<?xml version="1.0" encoding="iso-8859-1"?>
<!-- Generator: Adobe Illustrator 18.0.0, SVG Export Plug-In . SVG Version: 6.00 Build 0)  -->
<!DOCTYPE svg PUBLIC "-//W3C//DTD SVG 1.1//EN" "http://www.w3.org/Graphics/SVG/1.1/DTD/svg11.dtd">
<svg version="1.1" id="Layer_1" xmlns="http://www.w3.org/2000/svg" xmlns:xlink="http://www.w3.org/1999/xlink" x="0px" y="0px"
	 viewBox="0 0 391.664 391.664" style="enable-background:new 0 0 391.664 391.664;" xml:space="preserve">
<path style="fill:#445F84;" d="M312.105,220.531v-24.699c0-3.379-2.738-6.121-6.117-6.121H201.953v-18.578
	c44.395-3.148,79.555-40.273,79.555-85.457C281.508,38.434,243.074,0,195.832,0s-85.676,38.434-85.676,85.676
	c0,45.187,35.16,82.309,79.555,85.457v18.578H85.676c-3.379,0-6.117,2.742-6.117,6.121v24.699C35.16,223.68,0,260.805,0,305.988
	c0,47.243,38.434,85.676,85.676,85.676s85.676-38.433,85.676-85.676c0-45.183-35.161-82.308-79.555-85.457v-18.578h208.07v18.578
	c-44.394,3.149-79.555,40.274-79.555,85.457c0,47.243,38.434,85.676,85.676,85.676s85.676-38.433,85.676-85.676
	C391.664,260.805,356.504,223.68,312.105,220.531L312.105,220.531z M128.516,365.598c-12.067,8.695-26.864,13.828-42.84,13.828
	c-15.977,0-30.774-5.133-42.84-13.828v-16.774c0-15.429,8.324-29.679,21.746-37.289c5.973,4.211,13.246,6.692,21.094,6.692
	c7.847,0,15.121-2.481,21.094-6.692c13.421,7.61,21.746,21.86,21.746,37.289V365.598z M61.195,281.508
	c0-13.496,10.985-24.477,24.481-24.477s24.48,10.981,24.48,24.477c0,13.5-10.984,24.48-24.48,24.48S61.195,295.008,61.195,281.508
	L61.195,281.508z M159.113,305.988c0,18.583-6.941,35.571-18.359,48.516v-5.676c0-18.715-9.516-36.074-25.074-46.195
	c4.222-5.977,6.715-13.262,6.715-21.125c0-20.246-16.473-36.719-36.719-36.719s-36.719,16.473-36.719,36.719
	c0,7.859,2.492,15.148,6.715,21.125c-15.559,10.121-25.074,27.48-25.074,46.195v5.676c-11.418-12.949-18.36-29.937-18.36-48.516
	c0-40.492,32.946-73.437,73.438-73.437C126.168,232.551,159.113,265.496,159.113,305.988L159.113,305.988z M140.754,134.196
	c-11.418-12.95-18.359-29.938-18.359-48.52c0-40.492,32.941-73.438,73.437-73.438c40.492,0,73.438,32.946,73.438,73.438
	c0,18.582-6.942,35.57-18.36,48.52v-5.68c0-18.711-9.515-36.074-25.074-46.192c4.223-5.98,6.715-13.265,6.715-21.125
	c0-20.246-16.473-36.718-36.719-36.718s-36.719,16.472-36.719,36.718c0,7.86,2.492,15.145,6.715,21.125
	c-15.558,10.118-25.074,27.481-25.074,46.192V134.196z M220.309,61.199c0,13.497-10.981,24.477-24.477,24.477
	c-13.5,0-24.48-10.98-24.48-24.477c0-13.5,10.98-24.48,24.48-24.48C209.328,36.719,220.309,47.699,220.309,61.199L220.309,61.199z
	 M152.992,145.289v-16.773c0-15.434,8.324-29.68,21.746-37.289c5.973,4.207,13.246,6.687,21.094,6.687
	c7.844,0,15.121-2.48,21.094-6.687c13.422,7.609,21.742,21.859,21.742,37.289v16.773c-12.063,8.696-26.863,13.824-42.836,13.824
	C179.855,159.113,165.059,153.985,152.992,145.289L152.992,145.289z M348.824,365.598c-12.062,8.695-26.863,13.828-42.836,13.828
	c-15.976,0-30.773-5.133-42.84-13.828v-16.774c0-15.429,8.325-29.679,21.747-37.289c5.972,4.211,13.246,6.692,21.093,6.692
	c7.844,0,15.117-2.481,21.094-6.692c13.422,7.61,21.742,21.86,21.742,37.289V365.598z M281.508,281.508
	c0-13.496,10.98-24.477,24.48-24.477c13.496,0,24.477,10.981,24.477,24.477c0,13.5-10.981,24.48-24.477,24.48
	C292.488,305.988,281.508,295.008,281.508,281.508L281.508,281.508z M361.062,354.504v-5.68c0-18.711-9.515-36.074-25.07-46.191
	c4.223-5.977,6.711-13.266,6.711-21.125c0-20.246-16.469-36.719-36.715-36.719c-20.25,0-36.718,16.473-36.718,36.719
	c0,7.859,2.488,15.145,6.71,21.125c-15.554,10.117-25.07,27.48-25.07,46.191v5.68c-11.422-12.949-18.359-29.937-18.359-48.516
	c0-40.492,32.941-73.437,73.437-73.437c40.492,0,73.438,32.941,73.438,73.437C379.426,324.567,372.484,341.555,361.062,354.504
	L361.062,354.504z M361.062,354.504"/>
</svg>
