<?xml version="1.0" encoding="utf-8"?>
<!-- Generator: Adobe Illustrator 18.0.0, SVG Export Plug-In . SVG Version: 6.00 Build 0)  -->
<!DOCTYPE svg PUBLIC "-//W3C//DTD SVG 1.1//EN" "http://www.w3.org/Graphics/SVG/1.1/DTD/svg11.dtd">
<svg version="1.1" id="Layer_1" xmlns="http://www.w3.org/2000/svg" xmlns:xlink="http://www.w3.org/1999/xlink" x="0px" y="0px"
	 viewBox="0 0 512 512" enable-background="new 0 0 512 512" xml:space="preserve">
<path fill="#47B03A" d="M132.9,229.6c-0.7,2.1-1.5,4.2-2.1,6.3c-16.5,54.2,14,111.6,68.2,128.1c9.8,3,19.9,4.5,30.2,4.5h73.6
	c32.1,0.1,62.4-14.8,81.8-40.3c19.3-24.9,25.9-57.4,17.7-87.9c-0.2-0.9-0.5-1.7-0.7-2.6c-10.4-36.1-34.2-64-67.6-79.8
	c5.1-9.6,2.6-21.4-5.9-28.1c4.9-11.2,10.8-22,17.7-32.2c7.2-10.7,13.7-15.8,20.7-21.3c2.7-2.1,5.5-4.3,8.3-6.9
	c4.5-4,6.3-10.2,4.7-15.9c-2.1-6.8-8.2-10.8-15.7-10.2c-6.5,0.6-15.3-4.6-21.7-8.4c-2.8-1.8-5.8-3.4-8.9-4.7
	c-15.8-6.4-26,4.4-30.4,9.1c-1.5,1.6-6.8,4.5-9.3,5.5c-0.3,0.1-0.6,0.2-1,0.3c-7.5,2.2-11.4,1.9-18.4-4.5
	c-10.5-9.6-22.9-11.3-33.1-4.6c-4,2.6-5.9,6.9-7.9,11.4c-0.8,2-1.8,3.9-2.8,5.8c-0.3,0.6-0.7,1.2-1.2,1.7c-0.1,0-0.2,0.1-0.3,0.1
	c-1.4,0.2-1.7,0.3-4.5-1.8l-1.1-0.8c-6.3-4.8-13.2-8.9-20.5-12.1c-0.3-0.1-0.6-0.3-1-0.5c-1.1-0.5-2.5-1.2-4.1-1.8
	c-6.5-2.6-20.9-3.1-27.9-1.1c-1.9,0.5-3.7,1.3-5.4,2.4c-3.1,2.3-5.3,5.6-6.4,9.4c-2.3,8.3,1,17.2,8.2,22c10.4,7,19.4,15.8,26.5,26
	c6.6,9.5,11.7,19.8,15.2,30.8c-11.1,5.5-15.6,19.1-10.1,30.2c0.4,0.9,1,1.8,1.5,2.6C180.5,169.4,147.5,188.9,132.9,229.6
	L132.9,229.6z M218,153.6c-3.5,0-6.4-2.8-6.4-6.4s2.8-6.4,6.4-6.4h96c3.5,0,6.4,2.8,6.4,6.4s-2.8,6.4-6.4,6.4H218z M175.3,57.1
	c-1.4-0.9-2.1-2.5-1.8-4.2c0.1-0.2,0.1-0.4,0.2-0.6c0.1,0,0.2-0.1,0.4-0.1c3.6-1,14.3-0.7,17.6,0.6c1,0.4,2,0.9,3,1.3
	c0.5,0.2,0.9,0.4,1.3,0.6c6.2,2.7,12.1,6.2,17.5,10.3l1.2,0.9c4.2,3.1,9,6.1,16.8,4.8c7.1-1.2,10.6-5.7,12.8-9.5
	c1.3-2.4,2.6-4.8,3.6-7.4c0.7-1.6,1.5-3.2,2.3-4.7c3.8-2.3,8.1-1.2,13,3.2c10.7,9.7,20.5,12,33.8,8c0.7-0.2,1.5-0.5,2.3-0.8
	c2.1-0.8,10.8-4.9,15.1-9.5c5.5-5.9,8.1-7,12.5-5.2c2.3,1.1,4.6,2.3,6.7,3.7c7.4,4.4,17.4,10.2,27.8,10.7c-1.7,1.4-3.4,2.7-5.1,4.1
	c-7.2,5.7-15.4,12.2-24,24.9c-7.7,11.5-14.3,23.6-19.8,36.3h-21.9c0.4-6.7,2.2-16.7,8.7-24.3c2.7-3.1,5.8-5.6,9.4-7.6
	c3.9-2.2,5.3-7.1,3.2-11c-2.2-3.9-7.1-5.3-11-3.2c-5.2,2.9-9.9,6.7-13.8,11.2c-9.8,11.4-12.2,25.6-12.7,34.9h-8.4
	c-3.4-10.3-10.3-27.9-14.5-34.7c-2.4-3.8-7.4-5-11.1-2.6c-3.8,2.4-5,7.4-2.6,11.1c2.8,4.5,7.9,17.1,11.2,26.2h-24.9
	c-4-13.5-10.2-26.2-18.3-37.7C197.6,75.2,187.2,65.1,175.3,57.1L175.3,57.1z M212.4,171.6c1.4-0.7,2.6-1.3,3.7-1.8
	c0.6,0,1.2,0.1,1.9,0.1h96c1.8,0,3.6-0.2,5.3-0.7c33.7,13.1,56.7,38.3,66.6,73c0.2,0.8,0.4,1.5,0.6,2.3c6.9,25.6,1.3,52.9-14.9,73.9
	c-16.4,21.5-41.9,34.1-69,34h-73.6c-27.6,0.1-53.6-13-69.9-35.3c-16.3-21.9-21.2-50.3-13-76.3c0.6-1.9,1.2-3.8,1.9-5.7
	C162.2,195.8,196.1,179.4,212.4,171.6z"/>
<path fill="#47B03A" stroke="#FDFFFD" stroke-width="5" stroke-miterlimit="10" d="M268.7,325.8c36.2,0,65.6-29,65.6-64.6
	s-29.4-64.6-65.6-64.6s-65.6,29-65.6,64.6S232.5,325.8,268.7,325.8L268.7,325.8z M268.7,212.8c27.3,0,49.5,21.7,49.5,48.4
	s-22.2,48.4-49.5,48.4s-49.5-21.7-49.5-48.4S241.4,212.8,268.7,212.8z"/>
<g>
	<path fill="#47B03A" d="M27.3,487.3v-41.2H49c7.8,0,11.9,5,11.9,10.5c0,5.1-3.2,8.6-7.1,9.5c4.4,0.7,7.9,4.9,7.9,10.1
		c0,6.2-4.1,11.2-12,11.2H27.3z M51.9,458.1c0-2.5-1.9-4.3-4.8-4.3h-11v8.6h11C50.1,462.4,51.9,460.8,51.9,458.1z M52.7,474.8
		c0-2.6-1.9-4.7-5.3-4.7H36.1v9.4h11.4C50.7,479.5,52.7,477.8,52.7,474.8z"/>
	<path fill="#47B03A" d="M68.3,470.8v-24.7h8.9v24.5c0,5.7,3.3,9.7,9.7,9.7c6.4,0,9.6-4,9.6-9.7v-24.5h9v24.7
		c0,10.2-6.1,17.2-18.6,17.2C74.3,488,68.3,481,68.3,470.8z"/>
	<path fill="#47B03A" d="M113.6,487.3v-41.2h16.2c12.9,0,21.9,8.2,21.9,20.6c0,12.5-9,20.6-21.8,20.6H113.6z M142.8,466.6
		c0-7.2-4.4-12.8-12.8-12.8h-7.5v25.8h7.5C138,479.5,142.8,473.7,142.8,466.6z"/>
	<path fill="#47B03A" d="M156,466.7c0-13,9.9-21.3,22-21.3c8.5,0,13.9,4.3,17,9.2l-7.2,4c-1.9-2.9-5.4-5.4-9.8-5.4
		c-7.5,0-13,5.7-13,13.5s5.4,13.5,13,13.5c3.6,0,7-1.6,8.7-3.1v-4.9h-10.9v-7.7h19.6v15.8c-4.2,4.7-10.1,7.7-17.5,7.7
		C165.9,488,156,479.7,156,466.7z"/>
	<path fill="#47B03A" d="M202.5,487.3v-41.2h29.2v7.7h-20.4v8.6h20v7.7h-20v9.4h20.4v7.7H202.5z"/>
	<path fill="#47B03A" d="M248,487.3v-33.5h-12v-7.7h32.9v7.7h-12v33.5H248z"/>
	<path fill="#47B03A" d="M290.3,487.3v-41.2h8.8v41.2H290.3z"/>
	<path fill="#47B03A" d="M343,487.3v-29.7l-11.6,29.7h-3.8L316,457.6v29.7h-8.8v-41.2h12.3l10,25.8l10-25.8h12.4v41.2H343z"/>
	<path fill="#47B03A" d="M360,487.3v-41.2h19.3c9,0,13.8,6.1,13.8,13.3c0,7.2-4.9,13.2-13.8,13.2h-10.5v14.7H360z M384.2,459.3
		c0-3.5-2.7-5.6-6.1-5.6h-9.3v11.1h9.3C381.5,464.8,384.2,462.7,384.2,459.3z"/>
	<path fill="#47B03A" d="M422.6,487.3l-2.6-7h-17.7l-2.6,7h-9.9l15.9-41.2h11l15.9,41.2H422.6z M411.1,454.8l-6.4,17.7h12.8
		L411.1,454.8z"/>
	<path fill="#47B03A" d="M432.3,466.7c0-12.7,9.6-21.3,22-21.3c9,0,14.3,4.9,17.2,10.1l-7.5,3.7c-1.7-3.3-5.4-6-9.6-6
		c-7.5,0-13,5.7-13,13.5s5.4,13.5,13,13.5c4.2,0,7.9-2.7,9.6-6l7.5,3.6c-2.9,5.1-8.2,10.1-17.2,10.1
		C441.8,488,432.3,479.4,432.3,466.7z"/>
	<path fill="#47B03A" d="M486.2,487.3v-33.5h-12v-7.7H507v7.7h-12v33.5H486.2z"/>
</g>
<g>
	<g>
		<path fill="#048087" d="M288.6,245.2c-0.2-0.2-0.5-0.4-0.9-0.4h-6.8c-0.5-2.2-1.3-4.1-2.6-5.7h9.3c0.4,0,0.7-0.1,0.9-0.4
			c0.2-0.2,0.4-0.5,0.4-0.9v-4.1c0-0.4-0.1-0.7-0.4-0.9c-0.2-0.2-0.5-0.4-0.9-0.4h-33.2c-0.4,0-0.7,0.1-0.9,0.4
			c-0.2,0.2-0.4,0.5-0.4,0.9v5.3c0,0.4,0.1,0.6,0.4,0.9c0.2,0.2,0.6,0.4,0.9,0.4h5.8c5.6,0,9.2,1.5,10.7,4.5h-16.5
			c-0.4,0-0.7,0.1-0.9,0.4c-0.2,0.2-0.4,0.5-0.4,0.9v4.1c0,0.4,0.1,0.7,0.4,0.9c0.2,0.2,0.5,0.4,0.9,0.4h17c-0.6,2.2-1.9,3.8-4.1,5
			c-2.1,1.1-5,1.7-8.5,1.7h-4.5c-0.4,0-0.6,0.1-0.9,0.4s-0.4,0.6-0.4,0.9v5.1c0,0.4,0.1,0.6,0.4,0.9c5.1,5.4,11.7,13,19.9,22.8
			c0.2,0.3,0.6,0.5,1,0.5h7.8c0.6,0,1-0.2,1.2-0.7c0.3-0.5,0.2-0.9-0.2-1.4c-7.8-9.5-13.9-16.6-18.3-21.4c4.5-0.5,8.2-2,11-4.4
			c2.8-2.4,4.5-5.5,5.1-9.3h6.7c0.4,0,0.7-0.1,0.9-0.4c0.2-0.2,0.4-0.5,0.4-0.9v-4.1C289,245.8,288.9,245.4,288.6,245.2z"/>
	</g>
</g>
</svg>
