<?xml version="1.0" encoding="utf-8"?>
<!-- Generator: Adobe Illustrator 23.1.0, SVG Export Plug-In . SVG Version: 6.00 Build 0)  -->
<svg version="1.1" id="Layer_1" xmlns="http://www.w3.org/2000/svg" xmlns:xlink="http://www.w3.org/1999/xlink" x="0px" y="0px"
	 viewBox="0 0 244.7 233.1" style="enable-background:new 0 0 244.7 233.1;" xml:space="preserve">
<style type="text/css">
	.st0{fill:#42B873;}
	.st1{fill:#FFFFFF;}
</style>
<path class="st0" d="M185,232.9H59.6c-32,0-58.1-26.1-58.1-58.1V58.7c0-32,26.1-58.1,58.1-58.1H185c32,0,58.1,26.1,58.1,58.1v116.1
	C243.1,206.7,216.9,232.9,185,232.9z"/>
<path class="st1" d="M165.3,69.3l-0.7-1.6C157.9,52.9,141,46,126,51.7c-0.6,0.2-1.1,0.5-1.7,0.7l-15.9,7.1l-6.8-15.1l-8.8,4
	l6.8,15.1l-6.2,2.8l-6.8-15.1l-15.5,7L78,73.2L44.9,88.1l11.3,25l7.9-3.6l30,66.7l-7.9,3.6L96.5,203l33.1-14.9l5.4,12.1l15.5-7
	l-5.4-12.1l6.2-2.8l5.4,12.1l8.8-4l-5.4-12.1l15.6-7c0.7-0.3,1.3-0.6,2-1c14.1-7.6,20.2-24.9,13.5-39.7l-0.7-1.6
	c-6.6-14.8-23.6-21.6-38.5-16c-0.6,0.2-1.1,0.5-1.7,0.7c0.6-0.3,1.1-0.5,1.7-0.8C165.9,101.4,171.9,84.1,165.3,69.3z M147.8,139.2
	c2.1,4.7,0,10.2-4.7,12.3l-9.4,4.2l-10.4-23.1l9.7-4.4c4.5-2,9.8,0,11.9,4.5L147.8,139.2z M129.3,98.2c2.1,4.7,0,10.2-4.7,12.3
	l-9.4,4.2l-10.4-23.1l9.7-4.4c4.5-2,9.8,0,11.9,4.5L129.3,98.2z"/>
</svg>
