<?xml version="1.0" encoding="utf-8"?>
<!-- Generator: Adobe Illustrator 18.0.0, SVG Export Plug-In . SVG Version: 6.00 Build 0)  -->
<!DOCTYPE svg PUBLIC "-//W3C//DTD SVG 1.1//EN" "http://www.w3.org/Graphics/SVG/1.1/DTD/svg11.dtd">
<svg version="1.1" id="Layer_1" xmlns="http://www.w3.org/2000/svg" xmlns:xlink="http://www.w3.org/1999/xlink" x="0px" y="0px"
	 viewBox="4 141.5 511.9 566" enable-background="new 4 141.5 511.9 566" xml:space="preserve">
<g>
	<rect x="152" y="254.2" fill="#47B03A" width="264" height="264"/>
	<g>
		<g>
			<line fill="none" stroke="#47B03A" stroke-width="12" stroke-miterlimit="10" x1="126.3" y1="499.3" x2="126.3" y2="477.4"/>
			
				<line fill="none" stroke="#47B03A" stroke-width="12" stroke-miterlimit="10" stroke-dasharray="32.2329,19.9086" x1="126.3" y1="451.8" x2="126.3" y2="263.1"/>
			<polyline fill="none" stroke="#47B03A" stroke-width="12" stroke-miterlimit="10" points="126.3,250.3 126.3,228.4 148.2,228.4 
							"/>
			
				<line fill="none" stroke="#47B03A" stroke-width="12" stroke-miterlimit="10" stroke-dasharray="38.5699,23.8226" x1="178.8" y1="228.4" x2="404.6" y2="228.4"/>
			<polyline fill="none" stroke="#47B03A" stroke-width="12" stroke-miterlimit="10" points="419.9,228.4 441.8,228.4 441.8,250.3 
							"/>
			
				<line fill="none" stroke="#47B03A" stroke-width="12" stroke-miterlimit="10" stroke-dasharray="38.5699,23.8226" x1="441.8" y1="281" x2="441.8" y2="506.7"/>
			<polyline fill="none" stroke="#47B03A" stroke-width="12" stroke-miterlimit="10" points="441.8,522.1 441.8,544 419.9,544 			
				"/>
			
				<line fill="none" stroke="#47B03A" stroke-width="12" stroke-miterlimit="10" stroke-dasharray="29.9815,18.518" x1="396.1" y1="544" x2="220.6" y2="544"/>
			<line fill="none" stroke="#47B03A" stroke-width="12" stroke-miterlimit="10" x1="208.7" y1="544" x2="186.8" y2="544"/>
		</g>
	</g>
	<path fill="#47B03A" d="M181.1,527.8c-3.9-5.9-10.1-10.1-17-11.8c-4.7-1.1-9.5-0.9-13.6,0.6l-12.2-18.4
		c10.8-17.2,26.9-42.6,28.9-45.7c5-7.5-3.2-15.8-3.5-16.1l-2.4-2.4l-32.8,49.5l-32.8-49.5l-2.4,2.4c-0.4,0.4-8.5,8.7-3.5,16.1
		c2,3.1,18.1,28.5,28.9,45.7l-12.2,18.4c-4.2-1.5-8.9-1.7-13.7-0.6c-6.9,1.6-13.1,5.9-17,11.8c-7.3,11-4.4,24.4,6.6,29.8
		c3.1,1.5,6.4,2.3,10,2.3c2,0,4.1-0.1,6-0.7c11.7-3.4,17.7-11.7,20.6-20.2c0.1-0.4,5.9-20.6,9.1-25c0,0,0.1-0.2,0.2-0.4
		c0.1,0.2,0.2,0.4,0.2,0.4c3.2,4.4,9,24.6,9.1,25c2.9,8.5,8.9,16.8,20.6,20.2c2,0.6,4,0.7,6,0.7c3.6,0,7-0.8,10.1-2.3
		C185.4,552.2,188.4,538.8,181.1,527.8L181.1,527.8z M106.1,542.7c-2.4,3.7-6.3,6.4-10.4,7.4c-1.1,0.3-2.1,0.4-3.1,0.4
		c-1.7,0-3.3-0.4-4.6-1c-5.7-2.8-6.8-10.4-2.5-17c2.5-3.7,6.3-6.4,10.4-7.4c2.8-0.7,5.6-0.4,7.8,0.7
		C109.3,528.5,110.4,536.2,106.1,542.7L106.1,542.7z M169.1,549.4c-1.4,0.7-3,1-4.6,1c-1,0-2.1-0.1-3.1-0.4c-4.1-1-8-3.7-10.4-7.4
		c-4.3-6.5-3.2-14.1,2.5-17c2.2-1.1,5-1.3,7.8-0.7c4.1,1,7.9,3.7,10.4,7.4C175.9,539,174.8,546.6,169.1,549.4L169.1,549.4z"/>
	<rect x="368" y="517" fill="none" width="148.1" height="189.6"/>
	<path fill="#FFFFFF" d="M331.7,343.4h-14.8c-1.2-5.9-3.5-11.8-5.9-11.8h20.7c6.5,0,11.8-5.3,11.8-11.8s-5.3-11.8-11.8-11.8h-88.5
		c-6.5,0-11.8,5.3-11.8,11.8c0,6.5,5.3,11.8,11.8,11.8h25.4c9.1,0.2,17.6,4.5,23,11.8h-48.4c-6.5,0-11.8,5.3-11.8,11.8
		c0,6.5,5.3,11.8,11.8,11.8h48.4c-1.2,0-2.4,3.5-4.7,5.3c-4.8,4.8-11.5,7.1-18.3,6.5h-25.4c-4.8,0.6-8.9,3.7-10.6,8.3
		c-1.7,4.6-0.8,9.8,2.4,13.6l63.2,60.2c2.2,2.2,5.1,3.5,8.3,3.5c3.4,0.1,6.7-1.4,8.9-4.1c4.3-4.7,4.1-12.1-0.6-16.5l-41.9-39.5
		c11.8-0.8,22.9-5.9,31.3-14.2c5.7-6.8,10.1-14.6,13-23h14.8c6.5,0,11.8-5.3,11.8-11.8C343.5,348.7,338.2,343.4,331.7,343.4z"/>
</g>
<g>
	<path fill="#47B03A" d="M91.4,675.7v-41.3h16.3c12.9,0,21.9,8.2,21.9,20.6c0,12.5-9,20.7-21.9,20.7H91.4z M120.7,655
		c0-7.2-4.5-12.9-12.9-12.9h-7.6V668h7.5C115.9,668,120.7,662.1,120.7,655z"/>
	<path fill="#47B03A" d="M135.9,675.7v-41.3h29.2v7.7h-20.4v8.7h20v7.7h-20v9.4h20.4v7.7H135.9z"/>
	<path fill="#47B03A" d="M172,675.7v-41.3h16.3c12.9,0,21.9,8.2,21.9,20.6c0,12.5-9,20.7-21.9,20.7H172z M201.3,655
		c0-7.2-4.5-12.9-12.9-12.9h-7.6V668h7.5C196.5,668,201.3,662.1,201.3,655z"/>
	<path fill="#47B03A" d="M216.5,659.2v-24.8h8.9v24.5c0,5.8,3.3,9.7,9.7,9.7c6.4,0,9.7-4,9.7-9.7v-24.5h9v24.8
		c0,10.2-6.1,17.3-18.6,17.3S216.5,669.4,216.5,659.2z"/>
	<path fill="#47B03A" d="M260,655.1c0-12.8,9.6-21.4,22.1-21.4c9,0,14.3,4.9,17.2,10.1l-7.6,3.7c-1.7-3.3-5.5-6-9.7-6
		c-7.6,0-13,5.8-13,13.6s5.5,13.6,13,13.6c4.2,0,7.9-2.7,9.7-6l7.6,3.7c-2.9,5.1-8.2,10.2-17.2,10.2
		C269.6,676.5,260,667.8,260,655.1z"/>
	<path fill="#47B03A" d="M314.1,675.7v-33.6H302v-7.7h33v7.7h-12v33.6H314.1z"/>
	<path fill="#47B03A" d="M340.6,675.7v-41.3h8.8v41.3H340.6z"/>
	<path fill="#47B03A" d="M355.6,655.1c0-12.5,9.1-21.4,21.6-21.4c12.5,0,21.6,8.9,21.6,21.4s-9.1,21.4-21.6,21.4
		C364.7,676.5,355.6,667.6,355.6,655.1z M389.7,655.1c0-7.7-4.9-13.6-12.5-13.6c-7.7,0-12.6,5.8-12.6,13.6c0,7.7,4.9,13.6,12.6,13.6
		C384.8,668.7,389.7,662.8,389.7,655.1z"/>
	<path fill="#47B03A" d="M433.5,675.7l-19.7-27v27H405v-41.3h9l19.1,26v-26h8.8v41.3H433.5z"/>
	<path fill="#47B03A" d="M447.3,669.9l4.8-6.9c2.9,3,7.4,5.6,13.1,5.6c4.9,0,7.2-2.2,7.2-4.6c0-7.2-23.8-2.2-23.8-17.7
		c0-6.9,5.9-12.6,15.7-12.6c6.6,0,12,2,16.1,5.8l-4.9,6.6c-3.3-3.1-7.8-4.5-12-4.5c-3.7,0-5.8,1.6-5.8,4.1c0,6.5,23.7,2.1,23.7,17.5
		c0,7.6-5.5,13.3-16.5,13.3C456.9,676.5,451.2,673.8,447.3,669.9z"/>
</g>
</svg>
