<?xml version="1.0" encoding="utf-8"?>
<!-- Generator: Adobe Illustrator 22.0.1, SVG Export Plug-In . SVG Version: 6.00 Build 0)  -->
<svg version="1.1" id="Layer_1" xmlns="http://www.w3.org/2000/svg" xmlns:xlink="http://www.w3.org/1999/xlink" x="0px" y="0px"
	 viewBox="0 0 1924 1452" style="enable-background:new 0 0 1924 1452;" xml:space="preserve">
<style type="text/css">
	.st0{fill:#86A7FF;}
	.st1{fill:#D3DFFF;}
	.st2{fill:#DADADA;}
	.st3{fill:#FFFFFF;}
	.st4{fill:#1F3C88;}
	.st5{fill:#FBC343;}
	.st6{fill:#E49B31;}
	.st7{fill:#ED7545;}
	.st8{opacity:0.4;fill:#E49B31;enable-background:new    ;}
	.st9{fill:#048087;}
	.st10{fill:#5F8901;}
	.st11{fill:#96C72E;}
	.st12{fill:#8C6338;}
	.st13{fill:#EDE7DA;}
	.st14{fill:#F4F0E5;}
	.st15{fill:#D7CEC7;}
	.st16{fill:#8B5E3C;}
	.st17{fill:#231F20;}
	.st18{clip-path:url(#SVGID_7_);}
	.st19{clip-path:url(#SVGID_9_);fill:url(#SVGID_10_);}
	.st20{opacity:0.1;fill:url(#SVGID_11_);enable-background:new    ;}
	.st21{clip-path:url(#SVGID_14_);}
	.st22{clip-path:url(#SVGID_15_);fill:url(#SVGID_16_);}
	.st23{opacity:0.1;fill:url(#SVGID_17_);enable-background:new    ;}
	.st24{fill:#FF6321;}
	.st25{fill:#E0550A;}
	.st26{fill:#CB9454;}
	.st27{fill:#B28456;}
	.st28{fill:#9E714C;}
	.st29{fill:#A67950;}
	.st30{fill:#603913;}
	.st31{fill:#754C29;}
	.st32{clip-path:url(#SVGID_20_);}
	.st33{clip-path:url(#SVGID_21_);fill:url(#SVGID_22_);}
	.st34{opacity:0.1;fill:url(#SVGID_23_);enable-background:new    ;}
	.st35{clip-path:url(#SVGID_26_);}
	.st36{clip-path:url(#SVGID_27_);fill:url(#SVGID_28_);}
	.st37{opacity:0.3;fill:url(#SVGID_29_);enable-background:new    ;}
	.st38{clip-path:url(#SVGID_32_);}
	.st39{clip-path:url(#SVGID_33_);fill:url(#SVGID_34_);}
	.st40{opacity:0.3;fill:url(#SVGID_35_);enable-background:new    ;}
	.st41{enable-background:new    ;}
</style>
<g id="BACKGROUND">
</g>
<path class="st0" d="M1322.7,1307.9h-787c-27.2,0-49.3-22.1-49.3-49.3V108.4c0-27.2,22.1-49.3,49.3-49.3h787
	c27.2,0,49.3,22.1,49.3,49.3v1150.3C1372,1285.9,1350,1307.9,1322.7,1307.9z"/>
<rect x="773.2" y="114" class="st1" width="312.1" height="52.4"/>
<rect x="574.8" y="246.3" class="st2" width="708.9" height="157.2"/>
<rect x="605.8" y="267.8" class="st3" width="646.9" height="114.2"/>
<g>
	<path class="st4" d="M1098.8,539.9h-48.2c-14.5,0-26.2-11.7-26.2-26.2v-11.1c0-14.5,11.7-26.2,26.2-26.2h48.2
		c14.5,0,26.2,11.7,26.2,26.2v11.1C1125,528.2,1113.3,539.9,1098.8,539.9z"/>
	<path class="st4" d="M1257.5,539.9h-48.2c-14.5,0-26.2-11.7-26.2-26.2v-11.1c0-14.5,11.7-26.2,26.2-26.2h48.2
		c14.5,0,26.2,11.7,26.2,26.2v11.1C1283.7,528.2,1272,539.9,1257.5,539.9z"/>
</g>
<g>
	<path class="st4" d="M1271.2,699.5h-96.7c-6.9,0-12.5-5.6-12.5-12.5v-58c0-6.9,5.6-12.5,12.5-12.5h96.7c6.9,0,12.5,5.6,12.5,12.5
		v58C1283.7,693.9,1278.1,699.5,1271.2,699.5z"/>
	<path class="st4" d="M1077.1,699.5h-96.7c-6.9,0-12.5-5.6-12.5-12.5v-58c0-6.9,5.6-12.5,12.5-12.5h96.7c6.9,0,12.5,5.6,12.5,12.5
		v58C1089.6,693.9,1084,699.5,1077.1,699.5z"/>
	<path class="st4" d="M883,699.5h-96.7c-6.9,0-12.5-5.6-12.5-12.5v-58c0-6.9,5.6-12.5,12.5-12.5H883c6.9,0,12.5,5.6,12.5,12.5v58
		C895.5,693.9,889.9,699.5,883,699.5z"/>
	<path class="st4" d="M688.9,699.5h-96.7c-6.9,0-12.5-5.6-12.5-12.5v-58c0-6.9,5.6-12.5,12.5-12.5h96.7c6.9,0,12.5,5.6,12.5,12.5v58
		C701.3,693.9,695.8,699.5,688.9,699.5z"/>
</g>
<g>
	<path class="st4" d="M1271.2,849.4h-96.7c-6.9,0-12.5-5.6-12.5-12.5v-58c0-6.9,5.6-12.5,12.5-12.5h96.7c6.9,0,12.5,5.6,12.5,12.5
		v58C1283.7,843.8,1278.1,849.4,1271.2,849.4z"/>
	<path class="st1" d="M1077.1,849.4h-96.7c-6.9,0-12.5-5.6-12.5-12.5v-58c0-6.9,5.6-12.5,12.5-12.5h96.7c6.9,0,12.5,5.6,12.5,12.5
		v58C1089.6,843.8,1084,849.4,1077.1,849.4z"/>
	<path class="st1" d="M883,849.4h-96.7c-6.9,0-12.5-5.6-12.5-12.5v-58c0-6.9,5.6-12.5,12.5-12.5H883c6.9,0,12.5,5.6,12.5,12.5v58
		C895.5,843.8,889.9,849.4,883,849.4z"/>
	<path class="st1" d="M688.9,849.4h-96.7c-6.9,0-12.5-5.6-12.5-12.5v-58c0-6.9,5.6-12.5,12.5-12.5h96.7c6.9,0,12.5,5.6,12.5,12.5v58
		C701.3,843.8,695.8,849.4,688.9,849.4z"/>
</g>
<g>
	<path class="st4" d="M1271.2,999.3h-96.7c-6.9,0-12.5-5.6-12.5-12.5v-58c0-6.9,5.6-12.5,12.5-12.5h96.7c6.9,0,12.5,5.6,12.5,12.5
		v58C1283.7,993.7,1278.1,999.3,1271.2,999.3z"/>
	<path class="st1" d="M1077.1,999.3h-96.7c-6.9,0-12.5-5.6-12.5-12.5v-58c0-6.9,5.6-12.5,12.5-12.5h96.7c6.9,0,12.5,5.6,12.5,12.5
		v58C1089.6,993.7,1084,999.3,1077.1,999.3z"/>
	<path class="st1" d="M883,999.3h-96.7c-6.9,0-12.5-5.6-12.5-12.5v-58c0-6.9,5.6-12.5,12.5-12.5H883c6.9,0,12.5,5.6,12.5,12.5v58
		C895.5,993.7,889.9,999.3,883,999.3z"/>
	<path class="st1" d="M688.9,999.3h-96.7c-6.9,0-12.5-5.6-12.5-12.5v-58c0-6.9,5.6-12.5,12.5-12.5h96.7c6.9,0,12.5,5.6,12.5,12.5v58
		C701.3,993.7,695.8,999.3,688.9,999.3z"/>
</g>
<g>
	<path class="st5" d="M1271.2,1154.5h-96.7c-6.9,0-12.5-5.6-12.5-12.5v-58c0-6.9,5.6-12.5,12.5-12.5h96.7c6.9,0,12.5,5.6,12.5,12.5
		v58C1283.7,1148.9,1278.1,1154.5,1271.2,1154.5z"/>
	<path class="st1" d="M1077.1,1154.5h-96.7c-6.9,0-12.5-5.6-12.5-12.5v-58c0-6.9,5.6-12.5,12.5-12.5h96.7c6.9,0,12.5,5.6,12.5,12.5
		v58C1089.6,1148.9,1084,1154.5,1077.1,1154.5z"/>
	<path class="st1" d="M883,1154.5h-96.7c-6.9,0-12.5-5.6-12.5-12.5v-58c0-6.9,5.6-12.5,12.5-12.5H883c6.9,0,12.5,5.6,12.5,12.5v58
		C895.5,1148.9,889.9,1154.5,883,1154.5z"/>
	<path class="st1" d="M688.9,1154.5h-96.7c-6.9,0-12.5-5.6-12.5-12.5v-58c0-6.9,5.6-12.5,12.5-12.5h96.7c6.9,0,12.5,5.6,12.5,12.5
		v58C701.3,1148.9,695.8,1154.5,688.9,1154.5z"/>
</g>
<g>
	<path class="st5" d="M1403.7,1248.8v37.8c0,13.3-10.7,24-24,24H981.4c-13.3,0-24-10.7-24-24v-37.8c0-13.3,10.7-24,24-24h398.3
		C1393,1224.8,1403.7,1235.5,1403.7,1248.8z"/>
	<path class="st5" d="M1354.4,1162.9v37.8c0,13.3-10.8,24-24,24H932c-13.3,0-24-10.7-24-24v-37.8c0-13.2,10.7-24,24-24h398.3
		C1343.6,1138.9,1354.4,1149.7,1354.4,1162.9z"/>
	<path class="st6" d="M1403.7,1248.8v37.8c0,13.3-10.7,24-24,24h-285.6c-19.7-24.3-31.8-55.7-39-85.8c-8.4-34.5-10.5-67.2-11-85.9
		h286.3c13.2,0,24,10.8,24,24v37.8c0,13.3-10.8,24-24,24h49.4C1393,1224.8,1403.7,1235.5,1403.7,1248.8z"/>
</g>
<path class="st5" d="M469,747.1l-25,76.8l-1.9,5.7l-11.6,35.7l-0.1,0.2l-37.4-0.9l-143.5-3.3l-10.5-30l-1.8-5.1L209.5,747
	C295.7,776.9,366.7,711.7,469,747.1z"/>
<path class="st6" d="M442.1,829.6l-11.6,35.7l-37.5-0.5l-143.5-3.3l-10.5-30C288.3,830.5,373.2,829.4,442.1,829.6z"/>
<path class="st5" d="M602.5,1263.5c-7.4,23.6-22,43.3-40.8,57.2c-18.9,13.9-42.2,21.9-66.8,21.9h-325c-47,0-88.2-31.4-100.7-76.8
	c-7.2-26.2-11-52.8-11.7-79.3c-0.1-2.6-0.1-5.1-0.1-7.6c0-3,0.1-6.1,0.2-9c2.6-95.9,49.5-185.2,124.8-244.8l77.8-61.6l177.8,4.2
	l97.8,93.6c13.8,13.1,26.1,27.9,35.9,44.2c11.8,19.5,21.3,40.2,28.5,61.5C621.5,1129.7,622.9,1198.5,602.5,1263.5z"/>
<path class="st7" d="M467.3,896.7H215.5c-10.4,0-18.9-8.6-18.9-18.9v-8.1c0-10.4,8.6-18.9,18.9-18.9h251.8
	c10.4,0,18.9,8.6,18.9,18.9v8.1C486.2,888.2,477.7,896.7,467.3,896.7z"/>
<path class="st8" d="M602.5,1263.5c-7.4,23.6-22,43.3-40.8,57.2c-18.9,13.9-42.2,21.9-66.8,21.9h-325c-47,0-88.2-31.4-100.7-76.8
	c-7.2-26.2-11-52.8-11.7-79.3c53.7,51.3,117.1,118.3,265.3,120.4c184,2.6,263.2-83.7,277.4-240
	C621.5,1129.7,622.9,1198.5,602.5,1263.5z"/>
<path d="M404.9,1024.8c8.6,0,15.6-7,15.6-15.6s-7-15.6-15.6-15.6H269.2c-8.6,0-15.6,7-15.6,15.6s7,15.6,15.6,15.6h47
	c16.5,0,30.3,11,34.8,26.1h-81.8c-8.6,0-15.6,7-15.6,15.6s7,15.6,15.6,15.6H346c-6.6,9.4-17.6,15.6-29.9,15.6h-47
	c-6.8,0-12.9,4.5-14.9,11s0.5,13.7,6.1,17.6l114.8,78.3c2.7,1.9,5.8,2.7,8.8,2.7c5,0,10-2.4,13-6.8c4.8-7.2,3-16.9-4.1-21.8
	l-73-49.8c28.5-1.5,52.1-20.8,60.6-46.9h24.5c8.6,0,15.6-7,15.6-15.6s-7-15.6-15.6-15.6H383c-1.5-9.5-4.8-18.4-9.8-26.1h31.7V1024.8
	z"/>
<path class="st9" d="M1769.7,278h-261.4c-5.1,0-9.3-4.2-9.3-9.3l0,0c0-5.1,4.2-9.3,9.3-9.3h261.4c5.1,0,9.3,4.2,9.3,9.3l0,0
	C1779,273.8,1774.8,278,1769.7,278z"/>
<g>
	<g>
		
			<ellipse transform="matrix(0.2767 -0.961 0.961 0.2767 259.1929 2437.3723)" class="st10" cx="1748.7" cy="1046.5" rx="113.7" ry="130.7"/>
		<path class="st11" d="M1853.7,1082c-17.4,60.3-79.4,90.2-148.8,70.2c-69.3-20-111.5-85.1-94.1-145.4c17.4-60.3,87.7-93.1,157-73.1
			C1837.2,953.8,1871.1,1021.7,1853.7,1082z"/>
		<ellipse class="st11" cx="1631.1" cy="820.1" rx="98" ry="116.6"/>
		
			<ellipse transform="matrix(0.4387 -0.8986 0.8986 0.4387 50.0089 1912.1669)" class="st11" cx="1555.7" cy="916.1" rx="97.2" ry="116.5"/>
		<path class="st10" d="M1823.1,872.8c16.6,47.7-17,110-78.3,124.2c-61.8,14.3-121.9-0.9-138.5-48.6
			c-16.6-47.7,18.4-103.3,78.3-124.2C1744.4,803.3,1806.4,825,1823.1,872.8z"/>
		<path class="st11" d="M1810.8,889.9c9.2,53.5-34,105.6-96.5,116.3s-120.6-23.9-129.8-77.4c-9.2-53.5,34-105.6,96.5-116.3
			S1801.6,836.4,1810.8,889.9z"/>
		
			<ellipse transform="matrix(0.991 -0.1335 0.1335 0.991 -125.6584 214.9777)" class="st11" cx="1540.2" cy="1044.5" rx="133.7" ry="121.9"/>
		<ellipse class="st11" cx="1635.2" cy="1074.1" rx="131.7" ry="123.7"/>
		<g>
			<path class="st12" d="M1678.3,1361.3h-66.8c-8,0-13.5-7.8-11-15.3c8.6-25.7,23.8-86.4,28.2-202.7c6.1-164.9-4.6-352.1-4.6-352.1
				s26.3,189.6,34.3,351.6c5.8,118.2,21.6,180.3,29.7,205.2C1690.2,1354.5,1685.3,1361.3,1678.3,1361.3z"/>
			<path class="st12" d="M1633.2,959.3c0-11.8,0-23.7,0-35.5c0-1.5,0-3-0.5-4.4c-0.8-2.3-2.6-4.1-4.5-5.8c-4.5-4.1-9-8.2-13.5-12.3
				c10.5,19.1,16,40.8,15.9,62.6C1632.6,963.7,1633.2,961.2,1633.2,959.3z"/>
			<path class="st12" d="M1601.3,1059.1c11.5,9.8,18.8,23.9,23,38.4c4.2,14.6,5.4,29.8,6.7,44.9c3.2-7,3.5-14.8,3.8-22.5
				c0.3-7.1,0.6-14.2,0.8-21.3c0.1-2.5,0.2-5.2-0.6-7.6c-0.8-2.4-2.4-4.4-4-6.3C1622.4,1074.8,1612.4,1066.1,1601.3,1059.1z"/>
			<path class="st12" d="M1646,983.8c4.8-6.4,10.3-12.4,16.4-17.6c-6,22.9-10.5,46.2-13.4,69.6c-2-7.4-4-14.9-6.1-22.3
				c-2-7.5-4-15.6-1.1-22.8C1642.8,988.2,1644.4,985.9,1646,983.8z"/>
		</g>
	</g>
	<g>
		<polygon class="st13" points="1542.3,980.9 1459.6,925.4 958,925.4 958,1336.7 1542.3,1336.7 		"/>
		<polygon class="st14" points="1542.3,985.3 1435.5,909.9 948.9,909.9 948.9,1070.7 1542.3,1070.7 		"/>
		<polygon class="st15" points="1542.3,1001.3 1445.5,940.3 1445.4,940.3 1445.4,953.4 1542.3,1014.4 		"/>
		<polygon class="st15" points="973.2,940.3 973.2,901.4 973.2,901.4 973.2,953.4 1445.4,953.4 1445.4,940.3 		"/>
		<rect x="1146.4" y="1290.5" class="st16" width="395.9" height="46.2"/>
		<rect x="1164.2" y="1221.4" class="st3" width="306.3" height="13.7"/>
		<g>
			<rect x="1195.6" y="1081.6" class="st13" width="90.7" height="127.5"/>
			<rect x="1202.6" y="1089.2" width="76.6" height="115.6"/>
			<rect x="1204.4" y="1090.8" class="st17" width="73.1" height="112.4"/>
			<polygon class="st3" points="1189.3,1215 1189.3,1076.5 1195.6,1081.6 1195.6,1209.2 			"/>
			<polygon class="st15" points="1195.6,1081.6 1189.3,1076.5 1292.7,1076.5 1286.3,1081.6 			"/>
			<polygon class="st3" points="1292.7,1076.5 1292.6,1215 1286.3,1209.2 1286.3,1081.6 			"/>
			<polygon class="st15" points="1292.6,1215 1286.3,1209.2 1195.6,1209.2 1189.3,1215 			"/>
			<rect x="1238.5" y="1089.2" class="st3" width="4.8" height="116"/>
			<rect x="1202.6" y="1144.6" class="st3" width="76.6" height="4.8"/>
		</g>
		<g>
			<rect x="1344.6" y="1081.6" class="st13" width="90.7" height="127.5"/>
			<rect x="1351.6" y="1089.2" width="76.6" height="115.6"/>
			<rect x="1353.4" y="1090.8" class="st17" width="73.1" height="112.4"/>
			<polygon class="st3" points="1338.3,1215 1338.3,1076.5 1344.6,1081.6 1344.6,1209.2 			"/>
			<polygon class="st15" points="1344.6,1081.6 1338.3,1076.5 1441.7,1076.5 1435.3,1081.6 			"/>
			<polygon class="st3" points="1441.7,1076.5 1441.6,1215 1435.3,1209.2 1435.3,1081.6 			"/>
			<polygon class="st15" points="1441.6,1215 1435.3,1209.2 1344.6,1209.2 1338.3,1215 			"/>
			<rect x="1387.5" y="1089.2" class="st3" width="4.8" height="116"/>
			<rect x="1351.6" y="1144.6" class="st3" width="76.6" height="4.8"/>
		</g>
		<rect x="1164.2" y="1057" class="st3" width="306.3" height="13.7"/>
		<g>
			<g>
				<defs>
					<polygon id="SVGID_1_" points="1,1 2,1 1,2 					"/>
				</defs>
				<defs>
					<polygon id="SVGID_4_" points="-1,-1 -2,-1 -1,-2 					"/>
				</defs>
				<clipPath id="SVGID_7_">
					<use xlink:href="#SVGID_1_"  style="overflow:visible;"/>
				</clipPath>
				<clipPath id="SVGID_9_" class="st18">
					<use xlink:href="#SVGID_4_"  style="overflow:visible;"/>
				</clipPath>
				
					<linearGradient id="SVGID_10_" gradientUnits="userSpaceOnUse" x1="1302.5499" y1="278.4" x2="1302.5499" y2="381.3" gradientTransform="matrix(1 0 0 -1 0 1452)">
					<stop  offset="0" style="stop-color:#000000"/>
					<stop  offset="1" style="stop-color:#FFFFFF"/>
				</linearGradient>
				<polygon class="st19" points="1470.6,1070.7 1441.7,1173.6 1134.5,1173.6 1164.2,1070.7 				"/>
			</g>
		</g>
		
			<linearGradient id="SVGID_11_" gradientUnits="userSpaceOnUse" x1="1302.5499" y1="278.4" x2="1302.5499" y2="381.3" gradientTransform="matrix(1 0 0 -1 0 1452)">
			<stop  offset="0" style="stop-color:#3C2415"/>
			<stop  offset="1" style="stop-color:#3C2415"/>
		</linearGradient>
		<polygon class="st20" points="1470.6,1070.7 1441.7,1173.6 1134.5,1173.6 1164.2,1070.7 		"/>
		<g>
			<g>
				<defs>
					<polygon id="SVGID_12_" points="1,1 2,1 1,2 					"/>
				</defs>
				<defs>
					<polygon id="SVGID_13_" points="-1,-1 -2,-1 -1,-2 					"/>
				</defs>
				<clipPath id="SVGID_14_">
					<use xlink:href="#SVGID_12_"  style="overflow:visible;"/>
				</clipPath>
				<clipPath id="SVGID_15_" class="st21">
					<use xlink:href="#SVGID_13_"  style="overflow:visible;"/>
				</clipPath>
				
					<linearGradient id="SVGID_16_" gradientUnits="userSpaceOnUse" x1="1302.5499" y1="115.3" x2="1302.5499" y2="216.9" gradientTransform="matrix(1 0 0 -1 0 1452)">
					<stop  offset="0" style="stop-color:#000000"/>
					<stop  offset="1" style="stop-color:#FFFFFF"/>
				</linearGradient>
				<polygon class="st22" points="1470.6,1235.1 1441.7,1336.7 1134.5,1336.7 1164.2,1235.1 				"/>
			</g>
		</g>
		
			<linearGradient id="SVGID_17_" gradientUnits="userSpaceOnUse" x1="1302.5499" y1="115.3" x2="1302.5499" y2="216.9" gradientTransform="matrix(1 0 0 -1 0 1452)">
			<stop  offset="0" style="stop-color:#3C2415"/>
			<stop  offset="1" style="stop-color:#3C2415"/>
		</linearGradient>
		<polygon class="st23" points="1470.6,1235.1 1441.7,1336.7 1134.5,1336.7 1164.2,1235.1 		"/>
		<polygon class="st24" points="1445.4,888.4 1611.6,993 1591.6,1032.4 1445.4,940.3 		"/>
		<rect x="973.2" y="888.4" class="st25" width="472.2" height="52"/>
		<rect x="1071.4" y="849" class="st26" width="65.9" height="98.6"/>
		<rect x="1071.4" y="854.8" class="st27" width="65.9" height="16.4"/>
		<polygon class="st14" points="945.1,855.3 1152.1,983.2 1152.1,1336.7 738.1,1336.7 738.1,983.2 		"/>
		<polygon class="st3" points="959.9,864.5 945.1,855.3 930.2,864.5 		"/>
		<rect x="738.1" y="1301.1" class="st28" width="414" height="35.7"/>
		<polygon class="st15" points="945.8,870.7 738.1,1001.5 738.1,1016.8 945.8,886 		"/>
		<polygon class="st15" points="945.8,870.7 1152.1,1000.5 1152,1015.9 945.8,886 		"/>
		<polygon class="st25" points="945.8,818.7 642.6,1009.7 666,1046.9 738.1,1001.5 945.8,870.7 		"/>
		<polygon class="st24" points="945.8,818.7 1249,1009.7 1225.6,1046.9 1152,1000.5 945.8,870.7 		"/>
		<rect x="1059.3" y="834.7" class="st29" width="88.3" height="29.6"/>
		<g>
			<rect x="865.2" y="1076.1" class="st29" width="160" height="224.9"/>
			<rect x="877.6" y="1089.5" class="st30" width="135.2" height="203.9"/>
			<rect x="880.8" y="1092.3" class="st26" width="128.9" height="198.3"/>
			<path class="st3" d="M901.6,1198.3c0,3.8-3.1,6.9-6.9,6.9c-3.8,0-6.9-3.1-6.9-6.9s3.1-6.9,6.9-6.9S901.6,1194.5,901.6,1198.3z"/>
			<polygon class="st3" points="854.2,1301.1 854.2,1067 865.2,1076.1 865.2,1301.1 			"/>
			<polygon class="st15" points="865.2,1076.1 854.2,1067 1036.5,1067 1025.3,1076.1 			"/>
			<polygon class="st3" points="1036.5,1067 1036.5,1301.1 1025.3,1301.1 1025.3,1076.1 			"/>
		</g>
		<rect x="802.9" y="1318.9" class="st30" width="284.4" height="17.8"/>
		<rect x="814.7" y="1301.1" class="st31" width="260.6" height="17.8"/>
		<rect x="738.2" y="1029" class="st3" width="413.9" height="18.5"/>
		<g>
			<g>
				<defs>
					<polygon id="SVGID_18_" points="1,1 2,1 1,2 					"/>
				</defs>
				<defs>
					<polygon id="SVGID_19_" points="-1,-1 -2,-1 -1,-2 					"/>
				</defs>
				<clipPath id="SVGID_20_">
					<use xlink:href="#SVGID_18_"  style="overflow:visible;"/>
				</clipPath>
				<clipPath id="SVGID_21_" class="st32">
					<use xlink:href="#SVGID_19_"  style="overflow:visible;"/>
				</clipPath>
				
					<linearGradient id="SVGID_22_" gradientUnits="userSpaceOnUse" x1="945.1" y1="265.5" x2="945.1" y2="404.5" gradientTransform="matrix(1 0 0 -1 0 1452)">
					<stop  offset="0" style="stop-color:#000000"/>
					<stop  offset="1" style="stop-color:#FFFFFF"/>
				</linearGradient>
				<polygon class="st33" points="1152.1,1047.5 1113,1186.5 738.1,1186.5 738.2,1047.5 				"/>
			</g>
		</g>
		
			<linearGradient id="SVGID_23_" gradientUnits="userSpaceOnUse" x1="945.1" y1="265.5" x2="945.1" y2="404.5" gradientTransform="matrix(1 0 0 -1 0 1452)">
			<stop  offset="0" style="stop-color:#3C2415"/>
			<stop  offset="1" style="stop-color:#3C2415"/>
		</linearGradient>
		<polygon class="st34" points="1152.1,1047.5 1113,1186.5 738.1,1186.5 738.2,1047.5 		"/>
		<g>
			<g>
				<defs>
					<polygon id="SVGID_24_" points="1,1 2,1 1,2 					"/>
				</defs>
				<defs>
					<polygon id="SVGID_25_" points="-1,-1 -2,-1 -1,-2 					"/>
				</defs>
				<clipPath id="SVGID_26_">
					<use xlink:href="#SVGID_24_"  style="overflow:visible;"/>
				</clipPath>
				<clipPath id="SVGID_27_" class="st35">
					<use xlink:href="#SVGID_25_"  style="overflow:visible;"/>
				</clipPath>
				
					<linearGradient id="SVGID_28_" gradientUnits="userSpaceOnUse" x1="945.1" y1="-5.9049" x2="945.1" y2="133.0928" gradientTransform="matrix(1 0 0 -1 0 1452)">
					<stop  offset="0" style="stop-color:#000000"/>
					<stop  offset="1" style="stop-color:#FFFFFF"/>
				</linearGradient>
				<polygon class="st36" points="1087.3,1318.9 802.9,1318.9 802.9,1336.7 1082.8,1336.7 1087.3,1320.7 				"/>
			</g>
		</g>
		
			<linearGradient id="SVGID_29_" gradientUnits="userSpaceOnUse" x1="945.1" y1="-5.9049" x2="945.1" y2="133.0928" gradientTransform="matrix(1 0 0 -1 0 1452)">
			<stop  offset="0" style="stop-color:#3C2415"/>
			<stop  offset="1" style="stop-color:#3C2415"/>
		</linearGradient>
		<polygon class="st37" points="1087.3,1318.9 802.9,1318.9 802.9,1336.7 1082.8,1336.7 1087.3,1320.7 		"/>
		<g>
			<g>
				<defs>
					<polygon id="SVGID_30_" points="1,1 2,1 1,2 					"/>
				</defs>
				<defs>
					<polygon id="SVGID_31_" points="-1,-1 -2,-1 -1,-2 					"/>
				</defs>
				<clipPath id="SVGID_32_">
					<use xlink:href="#SVGID_30_"  style="overflow:visible;"/>
				</clipPath>
				<clipPath id="SVGID_33_" class="st38">
					<use xlink:href="#SVGID_31_"  style="overflow:visible;"/>
				</clipPath>
				
					<linearGradient id="SVGID_34_" gradientUnits="userSpaceOnUse" x1="945.25" y1="11.9274" x2="945.25" y2="150.9305" gradientTransform="matrix(1 0 0 -1 0 1452)">
					<stop  offset="0" style="stop-color:#000000"/>
					<stop  offset="1" style="stop-color:#FFFFFF"/>
				</linearGradient>
				<polygon class="st39" points="814.9,1301.1 814.9,1318.9 1070.5,1318.9 1075.6,1301.1 				"/>
			</g>
		</g>
		
			<linearGradient id="SVGID_35_" gradientUnits="userSpaceOnUse" x1="945.25" y1="11.9274" x2="945.25" y2="150.9305" gradientTransform="matrix(1 0 0 -1 0 1452)">
			<stop  offset="0" style="stop-color:#3C2415"/>
			<stop  offset="1" style="stop-color:#3C2415"/>
		</linearGradient>
		<polygon class="st40" points="814.9,1301.1 814.9,1318.9 1070.5,1318.9 1075.6,1301.1 		"/>
	</g>
</g>
<g class="st41">
	<path d="M662.3,319v23h-3v-10.4h-11.7V342h-3v-23h3v10.1h11.7V319H662.3z"/>
	<path d="M670.7,341.1c-1.4-0.8-2.5-1.9-3.2-3.3s-1.2-3.1-1.2-4.9c0-1.8,0.4-3.5,1.2-4.9c0.8-1.4,1.9-2.5,3.3-3.3
		c1.4-0.8,2.9-1.1,4.7-1.1s3.3,0.4,4.7,1.1c1.4,0.8,2.5,1.8,3.3,3.3c0.8,1.4,1.2,3,1.2,4.9c0,1.9-0.4,3.5-1.2,4.9
		c-0.8,1.4-1.9,2.5-3.3,3.3c-1.4,0.8-3,1.2-4.7,1.2C673.6,342.3,672,341.9,670.7,341.1z M678.3,338.9c0.9-0.5,1.7-1.3,2.3-2.3
		s0.9-2.2,0.9-3.7s-0.3-2.7-0.9-3.7c-0.6-1-1.3-1.8-2.2-2.3c-0.9-0.5-1.9-0.7-3-0.7c-1.1,0-2.1,0.2-3,0.7c-0.9,0.5-1.6,1.2-2.2,2.3
		c-0.6,1-0.8,2.2-0.8,3.7c0,1.5,0.3,2.7,0.8,3.7s1.3,1.8,2.2,2.3c0.9,0.5,1.9,0.7,3,0.7C676.3,339.7,677.4,339.4,678.3,338.9z"/>
	<path d="M704.5,323.9V342h-3v-2.7c-0.6,0.9-1.4,1.6-2.4,2.2s-2.2,0.8-3.4,0.8c-1.4,0-2.7-0.3-3.8-0.9s-2-1.5-2.7-2.6
		c-0.6-1.2-1-2.6-1-4.3v-10.6h3v10.2c0,1.8,0.5,3.2,1.4,4.1c0.9,1,2.1,1.4,3.7,1.4c1.6,0,2.9-0.5,3.8-1.5s1.4-2.4,1.4-4.3v-9.9
		H704.5z"/>
	<path d="M712.3,341.6c-1.1-0.5-2-1.1-2.6-2c-0.6-0.8-1-1.8-1.1-2.9h3.1c0.1,0.9,0.5,1.6,1.3,2.2c0.8,0.6,1.8,0.9,3,0.9
		c1.1,0,2-0.3,2.7-0.8c0.7-0.5,1-1.1,1-1.9c0-0.8-0.4-1.4-1.1-1.8c-0.7-0.4-1.8-0.8-3.3-1.1c-1.3-0.4-2.4-0.7-3.3-1.1
		c-0.8-0.4-1.6-0.9-2.2-1.6c-0.6-0.7-0.9-1.7-0.9-2.8c0-0.9,0.3-1.8,0.8-2.5c0.5-0.8,1.3-1.4,2.3-1.8c1-0.5,2.2-0.7,3.5-0.7
		c2,0,3.6,0.5,4.9,1.5c1.2,1,1.9,2.4,2,4.2h-3c-0.1-0.9-0.4-1.7-1.1-2.3c-0.7-0.6-1.6-0.9-2.8-0.9c-1.1,0-1.9,0.2-2.6,0.7
		c-0.6,0.5-1,1.1-1,1.8c0,0.6,0.2,1.1,0.6,1.5c0.4,0.4,0.9,0.7,1.5,0.9c0.6,0.2,1.4,0.5,2.4,0.8c1.3,0.4,2.4,0.7,3.2,1
		c0.8,0.3,1.5,0.9,2.1,1.5c0.6,0.7,0.9,1.6,0.9,2.7c0,1-0.3,1.9-0.8,2.7s-1.3,1.4-2.3,1.9c-1,0.5-2.2,0.7-3.4,0.7
		C714.6,342.3,713.4,342.1,712.3,341.6z"/>
	<path d="M743.2,334.1h-14.5c0.1,1.8,0.7,3.2,1.8,4.2s2.5,1.5,4,1.5c1.3,0,2.4-0.3,3.3-0.9c0.9-0.6,1.5-1.4,1.8-2.4h3.2
		c-0.5,1.7-1.5,3.2-2.9,4.2c-1.5,1.1-3.3,1.6-5.4,1.6c-1.7,0-3.3-0.4-4.6-1.2c-1.4-0.8-2.4-1.9-3.2-3.3c-0.8-1.4-1.2-3.1-1.2-4.9
		c0-1.9,0.4-3.5,1.1-4.9c0.7-1.4,1.8-2.5,3.2-3.3c1.4-0.8,2.9-1.1,4.7-1.1c1.7,0,3.2,0.4,4.6,1.1s2.3,1.8,3.1,3.1
		c0.7,1.3,1.1,2.8,1.1,4.4C743.3,332.8,743.3,333.4,743.2,334.1z M739.5,328.7c-0.5-0.8-1.2-1.5-2.1-1.9c-0.9-0.4-1.8-0.6-2.9-0.6
		c-1.5,0-2.8,0.5-3.9,1.5c-1.1,1-1.7,2.3-1.8,4h11.4C740.2,330.5,740,329.5,739.5,328.7z"/>
	<path d="M769.5,330.5c-1.3,1.3-3.3,1.9-6,1.9h-4.4v9.6h-3v-23h7.4c2.6,0,4.6,0.6,5.9,1.9c1.4,1.3,2,2.9,2,4.9
		C771.5,327.6,770.8,329.2,769.5,330.5z M767.2,328.8c0.8-0.7,1.2-1.8,1.2-3.1c0-2.8-1.6-4.3-4.9-4.3h-4.4v8.4h4.4
		C765.2,329.9,766.4,329.6,767.2,328.8z"/>
	<path d="M780.5,324.4c1-0.6,2.2-0.9,3.6-0.9v3.1h-0.8c-3.4,0-5,1.8-5,5.5v9.8h-3v-18.1h3v2.9C778.8,325.8,779.5,325,780.5,324.4z"
		/>
	<path d="M790.8,341.1c-1.4-0.8-2.5-1.9-3.2-3.3c-0.8-1.4-1.2-3.1-1.2-4.9c0-1.8,0.4-3.5,1.2-4.9c0.8-1.4,1.9-2.5,3.3-3.3
		c1.4-0.8,2.9-1.1,4.7-1.1c1.7,0,3.3,0.4,4.7,1.1c1.4,0.8,2.5,1.8,3.3,3.3c0.8,1.4,1.2,3,1.2,4.9c0,1.9-0.4,3.5-1.2,4.9
		c-0.8,1.4-1.9,2.5-3.3,3.3c-1.4,0.8-3,1.2-4.7,1.2C793.7,342.3,792.2,341.9,790.8,341.1z M798.5,338.9c0.9-0.5,1.7-1.3,2.3-2.3
		c0.6-1,0.9-2.2,0.9-3.7s-0.3-2.7-0.9-3.7c-0.6-1-1.3-1.8-2.2-2.3s-1.9-0.7-3-0.7c-1.1,0-2.1,0.2-3,0.7c-0.9,0.5-1.6,1.2-2.2,2.3
		c-0.6,1-0.8,2.2-0.8,3.7c0,1.5,0.3,2.7,0.8,3.7c0.5,1,1.3,1.8,2.2,2.3c0.9,0.5,1.9,0.7,3,0.7S797.5,339.4,798.5,338.9z"/>
	<path d="M814.3,324.7c1.2-0.7,2.5-1,4.1-1c1.6,0,3.1,0.4,4.4,1.2c1.3,0.8,2.3,1.9,3.1,3.3c0.7,1.4,1.1,3,1.1,4.9
		c0,1.8-0.4,3.5-1.1,4.9c-0.7,1.4-1.8,2.5-3.1,3.3c-1.3,0.8-2.8,1.2-4.4,1.2c-1.5,0-2.9-0.3-4.1-1c-1.2-0.7-2.1-1.6-2.7-2.6v11.9h-3
		v-26.7h3v3.3C812.2,326.2,813.1,325.4,814.3,324.7z M823.1,329.3c-0.5-1-1.3-1.8-2.2-2.3c-0.9-0.5-2-0.8-3.1-0.8
		c-1.1,0-2.1,0.3-3.1,0.8c-0.9,0.5-1.7,1.3-2.2,2.3c-0.6,1-0.8,2.2-0.8,3.5c0,1.4,0.3,2.6,0.8,3.6c0.6,1,1.3,1.8,2.2,2.3
		c0.9,0.5,2,0.8,3.1,0.8c1.1,0,2.2-0.3,3.1-0.8c0.9-0.5,1.7-1.3,2.2-2.3c0.5-1,0.8-2.2,0.8-3.6C823.9,331.5,823.7,330.3,823.1,329.3
		z"/>
	<path d="M847.4,334.1h-14.5c0.1,1.8,0.7,3.2,1.8,4.2c1.1,1,2.5,1.5,4,1.5c1.3,0,2.4-0.3,3.3-0.9c0.9-0.6,1.5-1.4,1.8-2.4h3.2
		c-0.5,1.7-1.5,3.2-2.9,4.2c-1.5,1.1-3.3,1.6-5.4,1.6c-1.7,0-3.3-0.4-4.6-1.2c-1.4-0.8-2.4-1.9-3.2-3.3c-0.8-1.4-1.2-3.1-1.2-4.9
		c0-1.9,0.4-3.5,1.1-4.9c0.7-1.4,1.8-2.5,3.2-3.3c1.4-0.8,2.9-1.1,4.7-1.1c1.7,0,3.2,0.4,4.6,1.1s2.3,1.8,3.1,3.1
		c0.7,1.3,1.1,2.8,1.1,4.4C847.5,332.8,847.4,333.4,847.4,334.1z M843.6,328.7c-0.5-0.8-1.2-1.5-2.1-1.9c-0.9-0.4-1.8-0.6-2.9-0.6
		c-1.5,0-2.8,0.5-3.9,1.5c-1.1,1-1.7,2.3-1.8,4h11.4C844.4,330.5,844.1,329.5,843.6,328.7z"/>
	<path d="M856.7,324.4c1-0.6,2.2-0.9,3.6-0.9v3.1h-0.8c-3.4,0-5,1.8-5,5.5v9.8h-3v-18.1h3v2.9C854.9,325.8,855.7,325,856.7,324.4z"
		/>
	<path d="M867.4,326.4V337c0,0.9,0.2,1.5,0.6,1.9c0.4,0.4,1,0.5,1.9,0.5h2.2v2.5h-2.7c-1.7,0-2.9-0.4-3.8-1.2
		c-0.8-0.8-1.3-2-1.3-3.8v-10.7H862v-2.5h2.3v-4.6h3v4.6h4.7v2.5H867.4z"/>
	<path d="M891.3,323.9l-10.9,26.6h-3.1l3.6-8.7l-7.3-17.9h3.3l5.7,14.7l5.6-14.7H891.3z"/>
	<path d="M906.1,319v23h-3v-23H906.1z"/>
	<path d="M925.4,325.6c1.4,1.3,2,3.3,2,5.8V342h-3v-10.2c0-1.8-0.5-3.2-1.4-4.1s-2.1-1.4-3.7-1.4c-1.6,0-2.8,0.5-3.8,1.5
		c-0.9,1-1.4,2.4-1.4,4.3v10h-3v-18.1h3v2.6c0.6-0.9,1.4-1.6,2.4-2.1c1-0.5,2.2-0.8,3.4-0.8C922.3,323.6,924,324.3,925.4,325.6z"/>
	<path d="M932.4,328c0.7-1.4,1.8-2.5,3.1-3.3c1.3-0.8,2.9-1.2,4.6-1.2c2.2,0,4.1,0.5,5.5,1.6c1.4,1.1,2.4,2.6,2.9,4.5h-3.2
		c-0.3-1.1-0.9-2-1.8-2.6c-0.9-0.6-2-1-3.3-1c-1.7,0-3.1,0.6-4.2,1.8c-1.1,1.2-1.6,2.8-1.6,5c0,2.2,0.5,3.9,1.6,5
		c1.1,1.2,2.4,1.8,4.2,1.8c1.3,0,2.4-0.3,3.3-0.9c0.9-0.6,1.5-1.5,1.8-2.6h3.2c-0.5,1.8-1.5,3.3-2.9,4.4c-1.5,1.1-3.3,1.7-5.4,1.7
		c-1.7,0-3.2-0.4-4.6-1.2c-1.3-0.8-2.4-1.9-3.1-3.3c-0.7-1.4-1.1-3.1-1.1-5C931.2,331.1,931.6,329.4,932.4,328z"/>
	<path d="M955.7,341.1c-1.4-0.8-2.5-1.9-3.2-3.3c-0.8-1.4-1.2-3.1-1.2-4.9c0-1.8,0.4-3.5,1.2-4.9c0.8-1.4,1.9-2.5,3.3-3.3
		c1.4-0.8,2.9-1.1,4.7-1.1c1.7,0,3.3,0.4,4.7,1.1c1.4,0.8,2.5,1.8,3.3,3.3c0.8,1.4,1.2,3,1.2,4.9c0,1.9-0.4,3.5-1.2,4.9
		c-0.8,1.4-1.9,2.5-3.3,3.3c-1.4,0.8-3,1.2-4.7,1.2C958.6,342.3,957.1,341.9,955.7,341.1z M963.3,338.9c0.9-0.5,1.7-1.3,2.3-2.3
		c0.6-1,0.9-2.2,0.9-3.7s-0.3-2.7-0.9-3.7c-0.6-1-1.3-1.8-2.2-2.3s-1.9-0.7-3-0.7c-1.1,0-2.1,0.2-3,0.7c-0.9,0.5-1.6,1.2-2.2,2.3
		c-0.6,1-0.8,2.2-0.8,3.7c0,1.5,0.3,2.7,0.8,3.7c0.5,1,1.3,1.8,2.2,2.3c0.9,0.5,1.9,0.7,3,0.7S962.4,339.4,963.3,338.9z"/>
	<path d="M999,324.5c1.1,0.6,2,1.5,2.6,2.6c0.6,1.2,1,2.6,1,4.3V342h-3v-10.2c0-1.8-0.4-3.2-1.3-4.1c-0.9-1-2.1-1.4-3.6-1.4
		c-1.6,0-2.8,0.5-3.7,1.5c-0.9,1-1.4,2.4-1.4,4.3v10h-3v-10.2c0-1.8-0.4-3.2-1.3-4.1s-2.1-1.4-3.6-1.4c-1.6,0-2.8,0.5-3.7,1.5
		c-0.9,1-1.4,2.4-1.4,4.3v10h-3v-18.1h3v2.6c0.6-0.9,1.4-1.7,2.4-2.2c1-0.5,2.1-0.8,3.3-0.8c1.5,0,2.9,0.3,4,1c1.2,0.7,2,1.7,2.6,3
		c0.5-1.3,1.3-2.3,2.5-3c1.2-0.7,2.5-1.1,3.9-1.1C996.7,323.6,997.9,323.9,999,324.5z"/>
	<path d="M1023.9,334.1h-14.5c0.1,1.8,0.7,3.2,1.8,4.2c1.1,1,2.5,1.5,4,1.5c1.3,0,2.4-0.3,3.3-0.9c0.9-0.6,1.5-1.4,1.8-2.4h3.2
		c-0.5,1.7-1.5,3.2-2.9,4.2c-1.5,1.1-3.3,1.6-5.4,1.6c-1.7,0-3.3-0.4-4.6-1.2c-1.4-0.8-2.4-1.9-3.2-3.3c-0.8-1.4-1.2-3.1-1.2-4.9
		c0-1.9,0.4-3.5,1.1-4.9c0.7-1.4,1.8-2.5,3.2-3.3c1.4-0.8,2.9-1.1,4.7-1.1c1.7,0,3.2,0.4,4.6,1.1s2.3,1.8,3.1,3.1
		c0.7,1.3,1.1,2.8,1.1,4.4C1024,332.8,1024,333.4,1023.9,334.1z M1020.1,328.7c-0.5-0.8-1.2-1.5-2.1-1.9c-0.9-0.4-1.8-0.6-2.9-0.6
		c-1.5,0-2.8,0.5-3.9,1.5c-1.1,1-1.7,2.3-1.8,4h11.4C1020.9,330.5,1020.6,329.5,1020.1,328.7z"/>
	<path d="M1037.2,324.4c1-1.8,2.4-3.2,4.1-4.2c1.7-1,3.7-1.5,5.8-1.5c2.5,0,4.7,0.6,6.6,1.8c1.9,1.2,3.2,2.9,4.1,5.1h-3.6
		c-0.6-1.4-1.6-2.5-2.8-3.2c-1.2-0.7-2.6-1.1-4.3-1.1c-1.6,0-3,0.4-4.3,1.1c-1.3,0.7-2.3,1.8-3,3.2c-0.7,1.4-1.1,3-1.1,4.8
		c0,1.8,0.4,3.4,1.1,4.8c0.7,1.4,1.7,2.4,3,3.2c1.3,0.7,2.7,1.1,4.3,1.1c1.7,0,3.1-0.4,4.3-1.1c1.2-0.7,2.1-1.8,2.8-3.2h3.6
		c-0.9,2.2-2.2,3.9-4.1,5.1s-4.1,1.8-6.6,1.8c-2.1,0-4.1-0.5-5.8-1.5c-1.7-1-3.1-2.4-4.1-4.2c-1-1.8-1.5-3.8-1.5-6
		C1035.7,328.2,1036.2,326.2,1037.2,324.4z"/>
	<path d="M1062.3,328c0.7-1.4,1.8-2.5,3.1-3.3c1.3-0.8,2.8-1.2,4.4-1.2c1.6,0,3,0.3,4.1,1c1.2,0.7,2,1.5,2.6,2.6v-3.3h3V342h-3v-3.4
		c-0.6,1.1-1.5,1.9-2.7,2.6c-1.2,0.7-2.5,1-4.1,1c-1.6,0-3.1-0.4-4.4-1.2c-1.3-0.8-2.3-1.9-3.1-3.3c-0.7-1.4-1.1-3.1-1.1-4.9
		C1061.1,331,1061.5,329.4,1062.3,328z M1075.6,329.4c-0.6-1-1.3-1.8-2.2-2.3c-0.9-0.5-2-0.8-3.1-0.8s-2.1,0.3-3.1,0.8
		c-0.9,0.5-1.7,1.3-2.2,2.3c-0.6,1-0.8,2.2-0.8,3.6c0,1.4,0.3,2.6,0.8,3.6c0.5,1,1.3,1.8,2.2,2.3c0.9,0.5,1.9,0.8,3.1,0.8
		s2.2-0.3,3.1-0.8c0.9-0.5,1.7-1.3,2.2-2.3c0.5-1,0.8-2.2,0.8-3.6C1076.4,331.6,1076.2,330.4,1075.6,329.4z"/>
	<path d="M1087.6,317.6V342h-3v-24.4H1087.6z"/>
	<path d="M1092.7,328c0.7-1.4,1.8-2.5,3.1-3.3c1.3-0.8,2.9-1.2,4.6-1.2c2.2,0,4.1,0.5,5.5,1.6c1.4,1.1,2.4,2.6,2.9,4.5h-3.2
		c-0.3-1.1-0.9-2-1.8-2.6c-0.9-0.6-2-1-3.3-1c-1.7,0-3.1,0.6-4.2,1.8c-1.1,1.2-1.6,2.8-1.6,5c0,2.2,0.5,3.9,1.6,5
		c1.1,1.2,2.4,1.8,4.2,1.8c1.3,0,2.4-0.3,3.3-0.9c0.9-0.6,1.5-1.5,1.8-2.6h3.2c-0.5,1.8-1.5,3.3-2.9,4.4c-1.5,1.1-3.3,1.7-5.4,1.7
		c-1.7,0-3.2-0.4-4.6-1.2c-1.3-0.8-2.4-1.9-3.1-3.3c-0.7-1.4-1.1-3.1-1.1-5C1091.6,331.1,1091.9,329.4,1092.7,328z"/>
	<path d="M1128.7,323.9V342h-3v-2.7c-0.6,0.9-1.4,1.6-2.4,2.2c-1,0.5-2.2,0.8-3.4,0.8c-1.4,0-2.7-0.3-3.8-0.9s-2-1.5-2.7-2.6
		c-0.6-1.2-1-2.6-1-4.3v-10.6h3v10.2c0,1.8,0.5,3.2,1.4,4.1c0.9,1,2.1,1.4,3.7,1.4c1.6,0,2.9-0.5,3.8-1.5c0.9-1,1.4-2.4,1.4-4.3
		v-9.9H1128.7z"/>
	<path d="M1136.8,317.6V342h-3v-24.4H1136.8z"/>
	<path d="M1141.9,328c0.7-1.4,1.8-2.5,3.1-3.3c1.3-0.8,2.8-1.2,4.4-1.2c1.6,0,3,0.3,4.1,1c1.2,0.7,2,1.5,2.6,2.6v-3.3h3V342h-3v-3.4
		c-0.6,1.1-1.5,1.9-2.7,2.6c-1.2,0.7-2.5,1-4.1,1c-1.6,0-3.1-0.4-4.4-1.2c-1.3-0.8-2.3-1.9-3.1-3.3c-0.7-1.4-1.1-3.1-1.1-4.9
		C1140.8,331,1141.2,329.4,1141.9,328z M1155.3,329.4c-0.6-1-1.3-1.8-2.2-2.3c-0.9-0.5-2-0.8-3.1-0.8s-2.1,0.3-3.1,0.8
		c-0.9,0.5-1.7,1.3-2.2,2.3c-0.6,1-0.8,2.2-0.8,3.6c0,1.4,0.3,2.6,0.8,3.6c0.5,1,1.3,1.8,2.2,2.3c0.9,0.5,1.9,0.8,3.1,0.8
		s2.2-0.3,3.1-0.8c0.9-0.5,1.7-1.3,2.2-2.3c0.5-1,0.8-2.2,0.8-3.6C1156.1,331.6,1155.9,330.4,1155.3,329.4z"/>
	<path d="M1167.9,326.4V337c0,0.9,0.2,1.5,0.6,1.9c0.4,0.4,1,0.5,1.9,0.5h2.2v2.5h-2.7c-1.7,0-2.9-0.4-3.8-1.2
		c-0.8-0.8-1.3-2-1.3-3.8v-10.7h-2.3v-2.5h2.3v-4.6h3v4.6h4.7v2.5H1167.9z"/>
	<path d="M1179.5,341.1c-1.4-0.8-2.5-1.9-3.2-3.3c-0.8-1.4-1.2-3.1-1.2-4.9c0-1.8,0.4-3.5,1.2-4.9c0.8-1.4,1.9-2.5,3.3-3.3
		c1.4-0.8,2.9-1.1,4.7-1.1c1.7,0,3.3,0.4,4.7,1.1c1.4,0.8,2.5,1.8,3.3,3.3c0.8,1.4,1.2,3,1.2,4.9c0,1.9-0.4,3.5-1.2,4.9
		c-0.8,1.4-1.9,2.5-3.3,3.3c-1.4,0.8-3,1.2-4.7,1.2C1182.5,342.3,1180.9,341.9,1179.5,341.1z M1187.2,338.9c0.9-0.5,1.7-1.3,2.3-2.3
		c0.6-1,0.9-2.2,0.9-3.7s-0.3-2.7-0.9-3.7c-0.6-1-1.3-1.8-2.2-2.3s-1.9-0.7-3-0.7c-1.1,0-2.1,0.2-3,0.7c-0.9,0.5-1.6,1.2-2.2,2.3
		c-0.6,1-0.8,2.2-0.8,3.7c0,1.5,0.3,2.7,0.8,3.7c0.5,1,1.3,1.8,2.2,2.3c0.9,0.5,1.9,0.7,3,0.7S1186.2,339.4,1187.2,338.9z"/>
	<path d="M1202.6,324.4c1-0.6,2.2-0.9,3.6-0.9v3.1h-0.8c-3.4,0-5,1.8-5,5.5v9.8h-3v-18.1h3v2.9
		C1200.9,325.8,1201.7,325,1202.6,324.4z"/>
</g>
</svg>
