<?xml version="1.0" encoding="iso-8859-1"?>
<!-- Generator: Adobe Illustrator 18.0.0, SVG Export Plug-In . SVG Version: 6.00 Build 0)  -->
<!DOCTYPE svg PUBLIC "-//W3C//DTD SVG 1.1//EN" "http://www.w3.org/Graphics/SVG/1.1/DTD/svg11.dtd">
<svg version="1.1" id="Capa_1" xmlns="http://www.w3.org/2000/svg" xmlns:xlink="http://www.w3.org/1999/xlink" x="0px" y="0px"
	 viewBox="-17 181 448.25 432" style="enable-background:new -17 181 448.25 432;" xml:space="preserve">
<path style="fill:#4AB161;" d="M196.248,197c12.4,0,24.592,5.072,33.408,13.888l5.232,5.248l11.312,11.312l11.312-11.312
	l5.232-5.232c8.832-8.832,21.008-13.904,33.424-13.904c10.944,0,21.184,3.968,28.848,11.184c8.656,8.144,13.52,19.152,13.696,31.008
	c0.176,11.856-4.336,23.008-12.72,31.392l-79.776,79.776l-79.776-79.776c-8.384-8.384-12.896-19.536-12.72-31.392
	s5.04-22.864,13.696-31.008C175.064,200.968,185.304,197,196.248,197 M196.248,181c-14.384,0-28.656,5.04-39.808,15.536
	c-24.528,23.088-24.96,61.712-1.312,85.36l91.088,91.088l91.088-91.088c23.648-23.648,23.216-62.272-1.312-85.36
	C324.84,186.04,310.568,181,296.184,181c-16.192,0-32.544,6.384-44.736,18.592l-5.232,5.232l-5.232-5.248
	C228.792,187.384,212.44,181,196.248,181z"/>
<path style="fill:#435E84;" d="M135.48,421c12.672,0,25.136,2.928,35.744,8.336c12.768,6.832,27.68,7.776,41.904,7.776
	c0,0,6.128-0.128,36.64-0.128c0.208,0,21.472,0.176,21.472,16c0,10.912-12.816,16-21.472,16h-51.84
	c-11.152,0-22.928,8.08-22.928,25.072c0,12.64,10.224,22.928,22.928,22.928l89.568-0.016c0,0,94.24-78.56,101.84-82.72
	s16.864-6.912,24.704-3.056l-108.544,121.76c-9.04,7.76-20.544,12.032-32.464,12.032l-169.776,0.032L79,590.36L5.72,517.08
	l74.896-73.744C94.456,429.144,114.456,421,135.48,421 M135.48,405c-26.432,0-50.096,10.544-66.32,27.168L-17,517l96,96l32-32
	h162.032c16.128,0,31.696-5.92,43.744-16.624l109.712-123.072c6.704-5.952,6.32-16.896-1.088-21.936
	c-14-9.488-30.496-6.8-45.104,1.632c-14.608,8.432-98.48,80.144-98.48,80.144l-82.56,0.016c-3.84,0-8-4.32-8-8.144
	c0-4.496,3.92-8,8-8h50.512c17.68,0,37.472-11.52,37.472-32c0-21.76-19.792-32-37.472-32c-30.672,0-36.64,0.128-36.64,0.128
	c-12.288,0-24.752-0.736-34.352-5.872C165.976,408.712,151.224,405,135.48,405z"/>
</svg>
