<?xml version="1.0" encoding="utf-8"?>
<!-- Generator: Adobe Illustrator 23.1.0, SVG Export Plug-In . SVG Version: 6.00 Build 0)  -->
<svg version="1.1" id="Layer_1" xmlns="http://www.w3.org/2000/svg" xmlns:xlink="http://www.w3.org/1999/xlink" x="0px" y="0px"
	 viewBox="0 0 377.09 280" style="enable-background:new 0 0 377.09 280;" xml:space="preserve">
<style type="text/css">
	.st0{fill:#333333;}
</style>
<path class="st0" d="M67.21,124.01c2.48,0,3.94,0,5.39,0c91.01,0,182.02-0.01,273.03,0.04c2.84,0,5.83,0.14,8.48,1.01
	c7.02,2.32,11.32,9.71,10.27,16.85c-1.16,7.89-7.07,13.46-14.82,13.91c-1.62,0.09-3.25,0.07-4.87,0.07c-90.63,0-181.27,0-271.9,0
	c-1.48,0-2.96,0-5.47,0c1.51,1.63,2.42,2.68,3.4,3.66c26.51,26.53,53.02,53.07,79.57,79.56c3.5,3.49,6,7.36,5.97,12.46
	c-0.04,6.6-2.99,11.6-8.9,14.49c-6.04,2.96-11.9,2.18-17.23-1.95c-1.18-0.91-2.19-2.05-3.25-3.11
	c-35.89-35.89-71.78-71.78-107.67-107.68c-9.1-9.1-9.14-17.59-0.13-26.6C55.42,90.38,91.77,54.06,128.06,17.68
	c4.34-4.35,9.24-6.87,15.45-5.68c6.13,1.18,10.42,4.82,12.34,10.79c1.91,5.95,0.6,11.35-3.63,15.98c-0.93,1.01-1.92,1.97-2.89,2.94
	C123.16,67.88,97,94.05,70.83,120.23C69.87,121.19,68.95,122.19,67.21,124.01z"/>
</svg>
