<?xml version="1.0" encoding="iso-8859-1"?>
<!-- Generator: Adobe Illustrator 18.0.0, SVG Export Plug-In . SVG Version: 6.00 Build 0)  -->
<!DOCTYPE svg PUBLIC "-//W3C//DTD SVG 1.1//EN" "http://www.w3.org/Graphics/SVG/1.1/DTD/svg11.dtd">
<svg version="1.1" id="Layer_1" xmlns="http://www.w3.org/2000/svg" xmlns:xlink="http://www.w3.org/1999/xlink" x="0px" y="0px"
	 viewBox="0 0 300 265" style="enable-background:new 0 0 300 265;" xml:space="preserve">
<g>
	<rect x="67.113" y="26.902" style="fill:#8DB7E1;" width="205" height="205"/>
	<g>
		<g>
			
				<line style="fill:none;stroke:#5D7085;stroke-width:12;stroke-miterlimit:10;" x1="47.113" y1="217.235" x2="47.113" y2="200.235"/>
			
				<line style="fill:none;stroke:#5D7085;stroke-width:12;stroke-miterlimit:10;stroke-dasharray:32.2329,19.9086;" x1="47.113" y1="180.326" x2="47.113" y2="33.856"/>
			<polyline style="fill:none;stroke:#5D7085;stroke-width:12;stroke-miterlimit:10;" points="47.113,23.902 47.113,6.902 
				64.113,6.902 			"/>
			
				<line style="fill:none;stroke:#5D7085;stroke-width:12;stroke-miterlimit:10;stroke-dasharray:38.5699,23.8226;" x1="87.935" y1="6.902" x2="263.201" y2="6.902"/>
			<polyline style="fill:none;stroke:#5D7085;stroke-width:12;stroke-miterlimit:10;" points="275.113,6.902 292.113,6.902 
				292.113,23.902 			"/>
			
				<line style="fill:none;stroke:#5D7085;stroke-width:12;stroke-miterlimit:10;stroke-dasharray:38.5699,23.8226;" x1="292.113" y1="47.724" x2="292.113" y2="222.99"/>
			<polyline style="fill:none;stroke:#5D7085;stroke-width:12;stroke-miterlimit:10;" points="292.113,234.902 292.113,251.902 
				275.113,251.902 			"/>
			
				<line style="fill:none;stroke:#5D7085;stroke-width:12;stroke-miterlimit:10;stroke-dasharray:29.9815,18.518;" x1="256.595" y1="251.902" x2="120.355" y2="251.902"/>
			
				<line style="fill:none;stroke:#5D7085;stroke-width:12;stroke-miterlimit:10;" x1="111.096" y1="251.902" x2="94.096" y2="251.902"/>
		</g>
	</g>
	<path style="fill:#465C73;" d="M89.673,239.316c-3.017-4.549-7.836-7.877-13.208-9.142c-3.651-0.864-7.362-0.704-10.59,0.433
		l-9.478-14.312c8.416-13.357,20.886-33.106,22.466-35.485c3.844-5.814-2.476-12.267-2.739-12.531l-1.842-1.844L48.84,204.877
		L23.4,166.435l-1.833,1.844c-0.272,0.272-6.591,6.722-2.748,12.539c1.579,2.372,14.05,22.127,22.466,35.477l-9.469,14.32
		c-3.237-1.137-6.94-1.296-10.599-0.441c-5.372,1.265-10.19,4.601-13.208,9.15c-5.67,8.566-3.388,18.952,5.097,23.144
		c2.37,1.174,4.994,1.774,7.802,1.774c1.543,0,3.15-0.107,4.668-0.553c9.101-2.676,13.76-9.098,15.989-15.692
		c0.097-0.281,4.581-15.989,7.083-19.406c0,0,0.079-0.122,0.191-0.311c0.115,0.188,0.193,0.311,0.193,0.311
		c2.512,3.417,6.996,19.125,7.092,19.406c2.229,6.594,6.888,13.016,15.98,15.692c1.528,0.446,3.125,0.553,4.668,0.553
		c2.808,0,5.432-0.6,7.811-1.774C93.061,258.268,95.344,247.882,89.673,239.316L89.673,239.316z M31.438,250.915
		c-1.878,2.835-4.904,4.98-8.072,5.723c-0.833,0.196-1.66,0.295-2.44,0.295c-1.317,0-2.527-0.279-3.608-0.811
		c-4.439-2.191-5.318-8.104-1.966-13.175c1.914-2.88,4.862-4.964,8.074-5.723c2.195-0.508,4.318-0.349,6.054,0.516
		C33.923,239.929,34.799,245.842,31.438,250.915L31.438,250.915z M80.364,256.122c-1.081,0.539-2.292,0.811-3.608,0.811
		c-0.78,0-1.606-0.099-2.44-0.295c-3.168-0.743-6.194-2.888-8.072-5.723c-3.363-5.073-2.485-10.978,1.948-13.175
		c1.746-0.858,3.869-1.025,6.063-0.508c3.213,0.757,6.16,2.843,8.074,5.715C85.681,248.018,84.803,253.939,80.364,256.122
		L80.364,256.122z M80.364,256.122"/>
	<rect x="234.841" y="230.991" style="fill:none;" width="115.006" height="147.221"/>
	<path style="fill:#FFFFFF;stroke:#8DB7E1;stroke-width:3;stroke-miterlimit:10;" d="M206.6,96.174h-11.457
		c-0.917-4.583-2.75-9.165-4.583-9.165H206.6c5.062,0,9.165-4.103,9.165-9.165c0-5.062-4.103-9.165-9.165-9.165h-68.74
		c-5.062,0-9.165,4.103-9.165,9.165c0,5.062,4.103,9.165,9.165,9.165h19.705c7.05,0.142,13.643,3.523,17.872,9.165H137.86
		c-5.062,0-9.165,4.103-9.165,9.165c0,5.062,4.103,9.165,9.165,9.165h37.578c-0.917,0-1.833,2.75-3.666,4.124
		c-3.76,3.693-8.959,5.537-14.206,5.041H137.86c-3.73,0.435-6.909,2.908-8.249,6.416c-1.35,3.585-0.648,7.621,1.833,10.54
		l49.034,46.743c1.692,1.727,3.998,2.715,6.416,2.75c2.676,0.11,5.239-1.086,6.874-3.208c3.369-3.687,3.165-9.394-0.458-12.831
		l-32.537-30.704c9.148-0.656,17.761-4.556,24.288-10.998c4.452-5.272,7.872-11.335,10.082-17.872H206.6
		c5.062,0,9.165-4.103,9.165-9.165C215.765,100.277,211.661,96.174,206.6,96.174z"/>
</g>
<g>
</g>
<g>
</g>
<g>
</g>
<g>
</g>
<g>
</g>
<g>
</g>
</svg>
