<?xml version="1.0" encoding="utf-8"?>
<!-- Generator: Adobe Illustrator 22.0.1, SVG Export Plug-In . SVG Version: 6.00 Build 0)  -->
<svg version="1.1" id="Layer_1" xmlns="http://www.w3.org/2000/svg" xmlns:xlink="http://www.w3.org/1999/xlink" x="0px" y="0px"
	 viewBox="0 0 244.7 233.1" style="enable-background:new 0 0 244.7 233.1;" xml:space="preserve">
<style type="text/css">
	.st0{fill:#42B873;}
	.st1{fill:#FFFFFF;stroke:#41B873;stroke-width:3;stroke-miterlimit:10;}
</style>
<path class="st0" d="M185,233.3H59.6c-32,0-58.1-26.1-58.1-58.1V59.1C1.5,27.1,27.6,1,59.6,1H185c32,0,58.1,26.1,58.1,58.1v116.1
	C243.1,207.1,216.9,233.3,185,233.3z"/>
<path class="st1" d="M160.7,80H148c-1-5.1-3.1-10.2-5.1-10.2h17.9c5.7,0,10.2-4.5,10.2-10.2s-4.5-10.2-10.2-10.2H83.9
	c-5.7,0-10.2,4.5-10.2,10.2s4.5,10.2,10.2,10.2h22c7.8,0.1,15.2,4,20,10.2h-42c-5.7,0-10.2,4.5-10.2,10.2c0,5.7,4.5,10.2,10.2,10.2
	h42c-1,0-2,3.1-4.1,4.5c-4.3,4.1-10.1,6.2-15.9,5.7h-22c-4.1,0.4-7.7,3.3-9.2,7.1c-1.6,4-0.7,8.5,2,11.8l54.8,52.3
	c1.8,2,4.4,3,7.1,3.1c3,0.1,5.8-1.3,7.7-3.6c3.8-4.1,3.6-10.5-0.6-14.3l-36.1-34.4c10.2-0.7,19.9-5.1,27.1-12.4
	c5-5.8,8.8-12.6,11.2-20h12.8c5.7,0,10.2-4.5,10.2-10.2C171,84.4,166.4,80,160.7,80z"/>
</svg>
