<?xml version="1.0" encoding="utf-8"?>
<!-- Generator: Adobe Illustrator 22.0.1, SVG Export Plug-In . SVG Version: 6.00 Build 0)  -->
<svg version="1.1" id="Layer_1" xmlns="http://www.w3.org/2000/svg" xmlns:xlink="http://www.w3.org/1999/xlink" x="0px" y="0px"
	 viewBox="0 0 1842.2 1387.9" style="enable-background:new 0 0 1842.2 1387.9;" xml:space="preserve">
<style type="text/css">
	.st0{fill:#FFFFFF;}
	.st1{fill:#F4EBD7;}
	.st2{fill:none;stroke:#102048;stroke-width:5;stroke-miterlimit:10;}
	.st3{opacity:0.15;fill:#1F3C88;}
	.st4{fill:#1F3C88;}
	.st5{fill:#D3DFFF;}
	.st6{fill:#27481F;}
	.st7{fill:#49883A;}
	.st8{opacity:0.5;fill:#27481F;}
	.st9{opacity:0.38;fill:#27481F;}
	.st10{opacity:0.2;fill:#27481F;}
	.st11{fill:#FBC343;}
	.st12{opacity:0.4;fill:#C89B35;}
	.st13{fill:#EE6F57;}
	.st14{fill:#F9B384;}
	.st15{fill:#B35341;}
	.st16{fill:#708CD5;}
	.st17{fill:#102048;}
	.st18{fill:#E28B6D;}
	.st19{opacity:0.4;fill:#1F3C88;}
	.st20{fill:#C89B35;}
	.st21{fill:none;stroke:#E28B6D;stroke-width:2.5;stroke-miterlimit:10;}
	.st22{opacity:0.1;fill:#1F3C88;}
	.st23{opacity:0.4;fill:#EE6F57;}
</style>
<rect x="-63" y="-462" class="st0" width="2000" height="2000"/>
<path class="st1" d="M622.9,937.8c-88.7-10.5-177.9-31.9-256.2-78.9C288.3,812,221.4,737,195.3,645.3s-5.5-199.8,61.7-260.9
	c83.6-76.1,207.4-64,316.2-83.9c140.3-25.7,263.4-109,389.2-178.6S1230-6.2,1370.7,23.2C1484,47,1586.1,130.1,1638.1,241
	c52.1,110.9,52.8,247,2,356.4c-73.3,157.8-235.1,242.5-391.8,297.6c-115.5,40.6-234.2,71.2-354.6,91.3c-44.3,7.4-89.4,13.4-134,6.4
	c-44.6-7-89.1-28.6-116.7-67.1L622.9,937.8z"/>
<line class="st2" x1="-63" y1="1114.6" x2="1936.2" y2="1114.6"/>
<g>
	<ellipse class="st3" cx="180.3" cy="1207.3" rx="95" ry="18.1"/>
	<g>
		<g>
			<path class="st4" d="M136.7,1172.1c-20.6,0-43.4-30.1-43.4-50.5c0-20.7,16.5-37.6,36.8-37.6c20.3,0,36.8,16.9,36.8,37.6
				C167,1141.1,158.8,1172.1,136.7,1172.1z M130.1,1096.5c-13.4,0-24.3,11.3-24.3,25.1c0,15.3,18.5,38,30.9,38
				c11.4,0,17.7-22.5,17.7-38C154.5,1107.8,143.6,1096.5,130.1,1096.5z"/>
		</g>
		<path class="st4" d="M207.8,1204.6h-54.1c-9,0-16.5-6.9-17.2-15.8L125.3,1054h113.1L225,1189
			C224.1,1197.9,216.7,1204.6,207.8,1204.6z"/>
		<path class="st5" d="M138.4,892.3c-3.8,12.7-5.5,25.7-3.3,38.3c1.1,6.3,2.9,12.4,5.3,18.2c2.5,5.8,5.7,11.4,9.3,16.8
			c3.7,5.3,7.7,10.4,12.1,15.2c1.1,1.1,2.2,2.6,3.4,4c1.1,1.4,2.3,2.7,3.4,4.2l3,4.6c1,1.5,1.7,3.4,2.5,5c0.9,1.6,1.3,3.6,1.8,5.4
			c0.6,1.8,0.7,3.8,1,5.7c0.1,1,0.1,1.9,0,2.9l-0.2,2.9c-0.1,1-0.4,1.9-0.6,2.8c-0.2,0.9-0.4,1.9-0.8,2.8l-1.1,2.7
			c-0.4,0.8-0.9,1.6-1.4,2.5c-0.4,0.8-1,1.6-1.6,2.3c-0.6,0.7-1.1,1.5-1.7,2.2c-2.5,2.8-5.2,5-8.5,6.8l-2.1-3.3
			c4.6-4.1,8.4-9.6,9.7-15.2c0.3-0.7,0.3-1.4,0.4-2.1c0.1-0.7,0.2-1.4,0.2-2.1l-0.1-2.1c0-0.7,0-1.4-0.2-2.1
			c-0.3-1.4-0.4-2.8-1.1-4.2c-0.5-1.4-0.9-2.8-1.7-4.1c-0.8-1.3-1.3-2.7-2.3-3.9l-2.7-3.8c-1-1.2-2.1-2.3-3.1-3.5l-3.3-3.6
			c-2.4-2.5-4.7-5.1-6.9-7.8c-2.3-2.6-4.3-5.5-6.3-8.4c-3.8-5.9-7.4-12.1-9.9-18.7c-2.5-6.7-4.3-13.7-4.9-20.8
			c-1.5-14.3,1.9-28.6,8.2-40.8L138.4,892.3z"/>
		<path class="st5" d="M187.6,888.5c7,5.7,12.7,13.7,15.4,22.9c1.4,4.6,2,9.4,2,14.1c0.1,4.8-0.7,9.4-1.6,14
			c-1.1,4.5-2.6,8.9-4.4,13.1l-1.2,2.9c-0.3,0.9-0.8,1.8-1.1,2.7l-0.8,2.7c-0.3,0.9-0.3,1.8-0.5,2.7c-0.2,0.9-0.1,1.8-0.2,2.6
			c-0.1,0.9,0.1,1.7,0.2,2.5c0,0.9,0.4,1.6,0.6,2.4c0.4,0.7,0.6,1.6,1.2,2.3c1.7,2.9,5.1,5.5,8.6,7l-0.8,3.8
			c-5-0.5-9.6-2.6-13.3-6.5c-0.9-0.9-1.6-2.1-2.4-3.2c-0.5-1.2-1.3-2.4-1.6-3.7c-0.4-1.3-0.8-2.6-0.8-3.9c-0.1-1.3-0.3-2.6-0.2-3.9
			c0.1-1.3,0-2.6,0.3-3.8l0.7-3.6c0.3-1.2,0.7-2.3,1.1-3.5c0.4-1.2,0.8-2.3,1.1-3.2c1.6-3.9,2.7-7.8,3.7-11.8
			c0.9-4,1.5-7.9,1.8-11.9c0.2-4-0.1-7.9-0.8-11.9c-1.4-7.9-5.1-15.3-9.9-22.3L187.6,888.5z"/>
	</g>
</g>
<g>
	<ellipse class="st3" cx="1623.5" cy="1206.1" rx="190" ry="28.1"/>
	<rect x="1608.9" y="748" class="st6" width="26.7" height="260.8"/>
	<path class="st7" d="M1628.9,730.4c-0.3,18.9-2.1,34.8-3.6,45.1c-1.1,7.9-2.1,12.4-2.1,12.4c-72.8-23.6-106.2-68.8-120.1-114.3
		c-1.3-4.1-2.4-8.3-3.3-12.5c-14.7-63.3,5-123.7,5-123.7c33.4,7,58,21.5,76.2,40.2c3.1,3.2,6,6.5,8.8,9.9
		C1623.3,629.7,1629.7,687.7,1628.9,730.4z"/>
	<path class="st7" d="M1723.3,604.3c-1.4,50.7-21.1,109.6-82.2,166.3c-4.7,4.4-9.6,8.7-14.8,13c-0.6,0.5-1.1,0.9-1.7,1.4
		c0,0-10.1-14.8-20.6-39c-0.1-0.4-0.3-0.7-0.4-1c-3.6-8.5-7.3-18.2-10.6-28.8c-2.7-8.6-5.1-17.8-7-27.5c-7.3-37.3-7.4-81.5,13-125.2
		c15.2-33,42-65.6,85.9-94.9C1684.8,468.5,1725.5,526.6,1723.3,604.3z"/>
	<path class="st8" d="M1641,770.6c-4.7,4.4-9.6,8.7-14.8,13c-0.6,0.5-1.1,0.9-1.7,1.4c0,0-10.1-14.8-20.6-39c-0.1-0.3-0.3-0.7-0.4-1
		c0,0,0,0,0,0c-0.9-2.1-1.8-4.2-2.6-6.4c-0.3-0.8-0.7-1.7-1-2.6c-0.6-1.5-1.1-2.9-1.7-4.4c-0.4-1.2-0.9-2.4-1.3-3.7
		c-0.5-1.3-0.9-2.5-1.4-3.9c-0.9-2.6-1.7-5.2-2.5-7.9c-2.7-8.6-5.1-17.8-7-27.5c-6-30.4-7.1-65.4,3.7-101c-2.7-3.4-5.6-6.7-8.8-9.9
		c-7,18.5-18.4,60.9-19.7,99.1c-16.8-6.6-37.1-12-61.4-15.7c0.9,4.2,2,8.3,3.3,12.5c-10.4-2.5-21.6-4.6-33.7-6.4
		c9.6,32.7,48,136.7,148.2,138.2c2.5,0,5.1,0,7.8-0.1c4.1-0.1,8.4-0.5,12.7-1C1638,804.4,1642.5,790.2,1641,770.6z"/>
	<path class="st7" d="M1626,799.9c0,0.1,0,0.2,0,0.3c-0.1,0.6-0.1,1.2-0.2,1.8c0,0.3-0.1,0.6-0.1,0.8c-0.1,0.5-0.1,0.9-0.2,1.4
		c-0.2,1.4-0.4,2.6-0.6,3.9c-0.1,0.8-0.3,1.6-0.4,2.3c-1.3,6.7-2.8,10.7-2.8,10.7c-7.1,0.5-13.9,0.4-20.5,0
		c-118.6-8-143-155.4-143-155.4c3.8,0.5,7.5,1,11.2,1.6c12.1,1.8,23.3,4,33.7,6.4c42.9,10.2,71.3,25.6,89.8,42.6
		c5.6,5.1,10.3,10.4,14.2,15.7c11,14.8,16.1,30,18.1,43.6c0.4,2.8,0.7,5.5,0.9,8.2C1626.6,789.6,1626.4,795,1626,799.9z"/>
	<path class="st9" d="M1723.3,604.3c-0.7,25.3-6,52.7-18.8,80.9c-12.7,28.2-32.9,57.1-63.5,85.4c-0.1,0.1-0.3,0.2-0.4,0.3
		c-1.8,1.7-3.7,3.3-5.5,5c-0.6,0.5-1.1,1-1.7,1.5c-2.3,2-4.7,4.1-7.2,6.2c-0.2-2.6-0.5-5.4-0.9-8.2c-2-13.6-7.1-28.8-18.1-43.6
		c-3.9-5.3-8.6-10.6-14.2-15.7c-2.7-8.6-5.1-17.8-7-27.5c6.8,4,12.8,8.1,18,12.5c3.7,3.1,7,6.2,10.1,9.3
		C1629.7,669.7,1661.2,627.8,1723.3,604.3z"/>
	<path class="st10" d="M1626,799.9c0,0.1,0,0.2,0,0.3c-0.1,0.6-0.1,1.2-0.2,1.8c0,0.3-0.1,0.6-0.1,0.8c-0.1,0.5-0.1,0.9-0.2,1.4
		c-0.2,1.4-0.4,2.6-0.6,3.9c-0.2,0.8-0.3,1.6-0.4,2.3c-1.3,6.7-2.8,10.7-2.8,10.7c-7.1,0.5-13.9,0.4-20.5,0
		c-1.1-8.2-4.3-38.6,2.8-75c0.9-4.6,2-9.4,3.2-14.1c11,14.8,16.1,30,18.1,43.6c0.4,2.8,0.7,5.5,0.9,8.2
		C1626.6,789.6,1626.4,795,1626,799.9z"/>
	<path class="st11" d="M1740.1,975.5l-29.3,191.9c-3.3,21.4-21.7,37.2-43.3,37.2h-88c-19.2,0-35.8-12.4-41.6-30.1
		c-0.8-2.3-1.3-4.7-1.7-7.1l-29.3-191.9H1740.1z"/>
	<path class="st7" d="M1618.6,821.3c0,0-32.1-190.6,172.2-218C1790.8,603.3,1803.6,812.1,1618.6,821.3z"/>
	<path class="st12" d="M1740.1,975.5l-29.3,191.9c-3.3,21.4-21.7,37.2-43.3,37.2h-88c-19.2,0-35.8-12.4-41.6-30.1
		c114.3-18.3,145-136,151.2-199H1740.1z"/>
</g>
<g>
	<path class="st3" d="M1315.3,1208.4c0-23.4-208.9-42.5-466.5-42.5s-466.5,19-466.5,42.5c0,19,137.4,35.1,326.8,40.5
		c20.6,33.8-13.8,74.3-40.2,88.9c-46.3,2.3-79.6,7.5-74.4,18.5c24.8,52,235.2-3.3,235.2-3.3s82.3,5.1,82.3-2.7
		c0-3.6-14.5-6.9-38.3-9.4l1.8-0.1l-88.8-90.3c20.3,0.2,41.1,0.4,62.2,0.4C1106.4,1250.9,1315.3,1231.8,1315.3,1208.4z"/>
	<path class="st13" d="M1356.5,896.6c-6.2,101.5-57.3,202.9-141.2,258.7c-99.9,66.5-239.7,51.8-353.5,60.3
		c-98.4,7.3-197.6,13.6-296,3.2c-80.6-8.6-162-40.5-200.5-118.8c-38.6-78.5-42.8-182.8-4.2-262.2c12.3-25.3,28.8-47.9,48.1-67.5
		c3.2-3.2,6.4-6.4,9.7-9.5c2.3-2.1,4.5-4.1,6.9-6.1c3.6-3.1,7.2-6.1,10.9-9c1.2-1,2.5-1.9,3.7-2.8c1.2-0.9,2.5-1.9,3.7-2.8
		s2.5-1.9,3.8-2.7c0.9-0.7,1.9-1.3,2.8-2c1.6-1.1,3.2-2.2,4.8-3.3c14.4-9.7,29.5-18.2,45.1-25.5c15.2-7.2,30.9-13.2,46.6-18.1
		c51.8-16.1,105.8-21.8,159.3-28.8c113.4-14.9,228.8-20,343.1-19.9c93.3,0,198.3,14,260.6,94C1345.5,778.7,1360,838.8,1356.5,896.6z
		"/>
	<path class="st14" d="M1164.5,725.2c0,0,24.1-22.6,36.8-35.7c12.7-13.1-15.1-13.5-28.8,2.8C1158.8,708.6,1164.5,725.2,1164.5,725.2
		z"/>
	<path class="st15" d="M500.8,706.3c-15.6,7.3-30.8,15.8-45.1,25.5c-1.6,1.1-3.2,2.2-4.8,3.3c-0.9,0.7-1.9,1.3-2.8,2
		c-1.3,0.9-2.5,1.8-3.8,2.7s-2.5,1.9-3.7,2.8c-1.3,0.9-2.5,1.9-3.7,2.8c-3.6,2.9-7.2,5.9-10.7,8.9l-0.2,0.1c-2.3,2-4.6,4-6.9,6.1
		c-3.3,3.1-6.6,6.2-9.7,9.5c0.3,2.6,2,5.2,4.8,5.8c18.8,3.8,28.2,21.7,43.3,31.9c11.2,7.6,24.5,9.6,37.2,5.3
		c-13.7,29-21.2,57.7-15.3,90.1c1.8,9.8,4.9,19.3,9.2,28.4c-17.6-13.1-34.5-41-41.5-69.4c-1-4-5.1-6.5-9.1-5.5c-4,1-6.5,5-5.5,9.1
		c8.6,35.1,30.6,68.8,53.4,82c5.4,3.1,10.9,5.1,16.4,6.1c4.5,5.8,9.6,11.2,15.1,16l33.7,9.4l27.5-177.5L500.8,706.3z"/>
	<path class="st16" d="M598.5,825.5c-69.7-27.1-118.1-56-146.1-75.2c-18.2-12.5-27.4-34.4-23.7-56.2l35.9-209.4
		c3.7-21.6,18-39.9,38.1-48.5c57.6-24.7,113.8-38.8,163.3-45.7c0,0,27.7-2.2,63.1,1.3c23.3,2.3,76.6,18,110.5,28.5
		c19.1,5.9,34.5,20.3,41.8,39c14.2,36.6,37.3,98.5,44.6,131.9C951.4,706.5,947.2,698,947.2,698l26.3,177.5l-278.8,15.6l-71.3-32.5
		L598.5,825.5z"/>
	<path class="st17" d="M771,191.1c0,0-24.7-50.6-90.3-27.5c-47.5-10.3-83.8,45.9-48.8,122.5l65.9,15.3L771,191.1z"/>
	<path class="st14" d="M736,334.2v89.5c0,21-17,38-38,38c-28.4,0-51.4-23-51.4-51.4v-76.1H736z"/>
	<path class="st18" d="M736,371.4v48.8c-39.8,0.2-66.3-51.3-66.3-51.3L736,371.4z"/>
	<path class="st14" d="M775.4,322.9c-2.4,12.4-5.8,25.1-10.8,36.3c-8.6,19.6-21.7,34.6-41.8,35c-46.9,1-83.1-63.1-83.1-63.1
		l7.5-87.5l35.6-40l98.1,60.6C781,264.2,781.2,292.7,775.4,322.9z"/>
	<path class="st17" d="M645.6,305.5c0,0,9.7-39.4,43.4-65c0,0,49.1,64.1,100.9,33.1s29.4-91.9-19.1-82.5l-55.6-6.3L645.6,207
		l-11.9,54.7L645.6,305.5z"/>
	<path class="st19" d="M694.9,759.3c-47.3-102.1-106.9-53.4-121.4-90.9c-20.4-52.5-16.6-112-16.7-130l-28.5,160.3
		c0,0,63.6,6,87.1,44.3L694.9,759.3z"/>
	<path class="st4" d="M558.2,535.6c-1.8,13.7-3.9,27.4-6,41c-2.1,13.7-4.6,27.2-6.8,40.9c-2.4,13.6-4.9,27.2-7.5,40.8l-4.1,20.3
		c-1.5,6.8-2.8,13.5-4.4,20.3l-2.1-0.4c0.8-6.9,1.9-13.7,2.8-20.5l3.1-20.5c2.1-13.6,4.5-27.3,6.9-40.9c2.5-13.6,4.9-27.2,7.6-40.7
		c2.7-13.6,5.4-27.1,8.4-40.6L558.2,535.6z"/>
	<path class="st4" d="M834.4,510.3c3.8,17.8,7.3,35.7,10.7,53.6c3.5,17.9,6.6,35.8,9.9,53.7c3.2,17.9,6.3,35.9,9.3,53.8l4.4,27
		c1.3,9,2.8,18,4,27l-1.9,0.3c-1.9-8.9-3.7-17.8-5.5-26.7l-5.2-26.8c-3.4-17.9-6.7-35.8-9.9-53.7c-3.1-17.9-6.3-35.8-9.2-53.8
		c-3-18-5.9-35.9-8.5-53.9L834.4,510.3z"/>
	<path class="st19" d="M847.6,593c3.3,32.5-1.7,200.8-80,203.3l0.8,36.7l123.3-7.5L847.6,593z"/>
	<path class="st18" d="M686.6,791.7c55.6-23.8,66.3-22.9,73.8-22.5c25.6,1.3,62.5,52.5,62.5,52.5l-0.6,9.4H681.6L686.6,791.7z"/>
	<rect x="727.4" y="821.9" class="st0" width="173.1" height="26.3"/>
	<polygon class="st11" points="1136,848.2 835.1,848.2 902.6,579.3 1203.5,579.3 	"/>
	<path class="st20" d="M1163.2,738.2c-29.8-4.4-126-24.4-324.3,96.4l-4.6,16.7l301.7-3.1L1163.2,738.2z"/>
	<g>
		<path class="st14" d="M1168.9,798c-1.9,12.7-2.5,31.3-41.7,28.9l-11.6-5.9l10.9-12l23.6-12L1168.9,798z"/>
		<path class="st14" d="M1172.6,763.8c0,0,21.5,28-0.1,36.7c-23.4,9.4-45.9,8.4-45.9,8.4c10-28.1,42.5-26.3,42.5-26.3L1172.6,763.8z
			"/>
		<path class="st14" d="M1173.2,745.7c0,0,29.6,27.5,2.1,35.2c-38.8,10.9-50.8,11.7-50.8,11.7c-2.1-20.6,36.5-34,36.5-34
			L1173.2,745.7z"/>
		<path class="st14" d="M1167.2,721.7c0,0,40.4,24.6,2.5,38.3c-37.9,13.8-46.9,13.5-46.9,13.5c-2.1-20.6,38.5-27.7,38.5-27.7
			L1167.2,721.7z"/>
		<path class="st21" d="M1122.8,773.6c0,0,44.1-6.3,57.2-16.9"/>
		<path class="st21" d="M1124.5,792.5c0,0,45.8-6.5,60.2-16.5"/>
		<path class="st21" d="M1126.6,808.9c0,0,27.2,0.9,42.5-6.6"/>
	</g>
	<path class="st17" d="M699.7,1203c4.6-2.5,77.1,13.3,157.5-46.3l-103.8-29.6L699.7,1203z"/>
	<path class="st15" d="M1160.4,858.8c3.5-4.9,6.4-12.2,2.1-16.3c-4.5-4.4-11.9-0.5-16.7,3.6c-8.4,7.2-16,15.1-23,23.5l-175.1,32.6
		l-240,58.3l41.3,52.7c120,8.8,188.3,11,263.4-2.3c38.3-6.8,72.5-13.7,98-34.5c6.1-5,11.8-13.3,7.9-20.1c-2.7-4.6-8.2-5.8-13.8-5.7
		c12.8-3,25.3-7.4,37.1-13.2c5.3-2.6,11.2-6.5,11-12.4c-0.1-4.2-3.5-7.7-7.4-9.3c-3.9-1.5-8.2-1.4-12.4-1.1
		c-16,1.2-31.8,4.7-46.9,10.4C1113.3,905.8,1141.1,886.1,1160.4,858.8z M1085.6,925.2c0,0,0-0.1,0.1-0.1c0.1,0,0.2,0,0.2-0.1
		C1085.8,925,1085.7,925.1,1085.6,925.2z"/>
	<path class="st17" d="M758.5,881.7c0,0,233.8-111.3,310-106.3s73.8,100,45,141.3s-96.2,96.3-345,80L758.5,881.7z"/>
	<path class="st5" d="M875.4,1340.8c-12.7,3.6-30.6,4.4-55.3,0.5c0,0-32,8.3-63.5,14.8c-21.3,4.4-42.4,8-53.2,7.7
		c-0.9,0-1.8-0.1-2.8-0.2c-20.7-1.5-46.7-12.2-60.6-27.7c0,0,0-0.1-0.1-0.1c-3.8-4.3-6.7-8.9-8.2-13.7c-7.5-23.4,8.3-51.7,94.2-45.9
		c0,0,28.3-6.6,35-27.5c6.7-20.8-42.5-120.8-42.5-120.8l70-47.5l68.8,76.3c0,0,10.4,68.8,10.4,91.3c0,0,29.2,41.7,33.3,60
		C903.6,1319.7,897.8,1334.4,875.4,1340.8z"/>
	<path class="st4" d="M481.8,707.6c8-3.1,16.2-5.6,24.4-7.9c4.1-1.1,8.3-2.2,12.5-3c2.1-0.4,4.3-0.8,6.4-1.1
		c1.1-0.1,2.2-0.3,3.3-0.3c1.2-0.1,2.4,0,3.5,0.1c9,0.9,17.1,3.8,25.2,6.8c8,3.1,15.9,6.5,23.7,10.2c7.8,3.7,15.3,7.8,22.7,12
		c7.4,4.3,14.7,8.8,21.8,13.6c14.1,9.7,27.7,20.4,39.3,33l-1.5,1.5c-6.3-5.7-12.8-11.1-19.6-16.1c-6.8-5.1-13.7-9.9-20.9-14.4
		c-14.2-9.3-29.1-17.4-44.2-24.9c-7.6-3.8-15.3-7.2-23.1-10.3c-7.8-2.9-15.9-6.1-23.8-7.1c-1-0.1-1.9-0.2-2.9-0.2
		c-1,0-2,0.1-3.1,0.2c-2.1,0.2-4.1,0.5-6.2,0.9c-4.1,0.7-8.3,1.6-12.4,2.5c-8.3,1.9-16.5,4.1-24.6,6.6L481.8,707.6z"/>
	<path class="st15" d="M523.5,1034.8c28.1-1.9,55.8,0.1,75.8-6.9c21.5-7.5,77.5-2.5,77.5-2.5L646,981.1l-125,31.3L523.5,1034.8z"/>
	<path class="st4" d="M524.7,953c-28.8-46.3-28.8-137.5,7.5-178.8c41.4-47.1,130-65,176.3-10s131.3,256.3,148.8,392.5
		c0,0-93.8-31.3-157.5,46.3c0,0-83.8-191.2-101.3-261.2L551,979.2L524.7,953z"/>
	<path class="st5" d="M598.5,941.7c0,0-12.5-4.6-30,7.1c0,0-136.7-2.9-167.1,27.9c-30.4,30.8-7.1,72.1,37.5,76.7
		c37.4,3.8,110.1-25.2,132.4-34.6c4.5-1.9,9.4-3.1,14.3-3.4l37-2.4L598.5,941.7z"/>
	<path class="st14" d="M653,308c0,0-9.2-30.4-29.3-22.8c-20.2,7.6-9.4,47.1,30.4,58.1L653,308z"/>
	<path class="st4" d="M631.6,475.5c10,7,20.6,13.1,31.8,17.3c11.2,4.2,23.1,6.9,35,6.6c11.9-0.1,23.6-3.1,34.2-8.5l4-2
		c1.3-0.7,2.5-1.6,3.8-2.4c2.5-1.7,5.1-3.2,7.3-5.3l3.5-2.8l1.8-1.4c0.6-0.5,1.1-1.1,1.6-1.6c2.1-2.1,4.3-4.3,6.5-6.4l1.5,1.3
		c-2,2.4-4,4.7-6,7.1c-0.5,0.6-1,1.2-1.5,1.7l-1.7,1.6l-3.4,3.2c-2.2,2.2-4.8,4-7.3,5.8c-1.3,0.9-2.5,1.9-3.8,2.7l-4.1,2.3
		c-11,6.2-23.6,9.5-36.2,9.6c-12.6,0-25.2-2.7-36.6-7.6c-11.5-4.9-22.1-11.6-31.4-19.7L631.6,475.5z"/>
	<path class="st17" d="M577.7,861.9l10.8,37.9c3.7,12.6,7.1,25.3,11,37.8c3.8,12.6,7.5,25.1,11.5,37.6c2,6.2,3.9,12.5,6.1,18.7
		c1.1,3.1,2,6.2,3.1,9.3c1.1,3.1,2.2,6.2,3.3,9.3l-1.8,0.8c-2.8-6-5.4-12-7.9-18.2c-2.5-6.1-4.7-12.3-7-18.5
		c-4.4-12.4-8.4-25-12.1-37.6c-3.6-12.7-7.2-25.3-10.3-38.1c-3.2-12.8-6.2-25.6-8.7-38.5L577.7,861.9z"/>
	<path class="st22" d="M875.4,1340.8c-12.7,3.6-30.6,4.4-55.3,0.5c0,0-52.9,13.6-86.4,18.9c34.4-6.9,84.4-49.4,78.8-76.3
		C861.9,1300.1,875.3,1324.8,875.4,1340.8z"/>
	<path class="st19" d="M742.5,1345.5c-6.4,7.9-15.9,13.2-25.8,15.8c-5.2,1.4-10.6,2.2-16,2.3c-20.7-1.5-46.7-12.2-60.6-27.7
		c0,0,0-0.1-0.1-0.1c-1.5-2-2.9-4.1-4-6.2c7.4,6.8,15.4,12.4,24,16.7c4.3,2.1,8.7,4,13.3,5.4c2.2,0.9,4.5,1.4,6.8,2
		c2.3,0.7,4.6,1,7,1.4C705.7,1358.3,725.6,1356.4,742.5,1345.5z"/>
	<path class="st18" d="M644,312.3c-0.5-2.7-1.7-5.3-3.3-7.6c-1.5-2.3-3.4-4.4-5.5-5.9c-2.1-1.5-4.4-2.2-6.4-1.2c-2,1-3.7,3.5-5.1,6
		l-1.4-0.5c0.6-3,1.7-6.2,4.8-8.4c1.5-1.1,3.6-1.4,5.4-1.1c1.8,0.3,3.4,1.1,4.8,2.1c2.7,2,4.7,4.6,6.1,7.4c1.4,2.8,2.4,6,1.9,9.2
		L644,312.3z"/>
	<path class="st17" d="M762.9,311.6c-0.9,4.3-4.1,7.3-7.3,6.7s-5-4.7-4.1-9c0.9-4.3,4.1-7.3,7.3-6.7
		C762,303.2,763.8,307.2,762.9,311.6z"/>
	<ellipse transform="matrix(0.1609 -0.987 0.987 0.1609 289.7689 958.3167)" class="st17" cx="708.5" cy="308.7" rx="8" ry="5.8"/>
	<path class="st18" d="M734.9,315.5c0.3,3.5,0.4,7.1,0.5,10.5c0.1,1.3,0.8,2.5,1.9,3.7c1.1,1.2,2.4,2.4,3.6,4.2c0.6,0.9,1.1,2,1.3,3
		c0.2,1.1,0.3,2.1,0.2,3.2c-0.2,2.1-0.9,4.1-2.3,5.8c-0.7,0.8-1.6,1.5-2.6,2.1c-1,0.4-2.1,0.7-3.2,0.7c-2.1-0.1-4-0.9-5.5-2l0.7-1.3
		c1.6,0.5,3.2,0.9,4.7,0.7c1.4-0.2,2.5-1,3.3-2.1c1.5-2.3,1.8-5.8,0.3-8c-0.8-1.2-2-2.4-3.3-3.9c-1.2-1.4-2.4-3.6-2.3-5.9
		c0.3-3.6,0.7-7.2,1.3-10.7L734.9,315.5z"/>
	<path class="st17" d="M694.6,294.6c2-2,4.4-3.6,7-4.8c2.6-1.2,5.7-1.8,8.7-1.7c3,0.2,6,1.3,8.4,3.1c2.4,1.8,4.3,4,5.6,6.5l-1.2,0.9
		c-2.1-1.8-4.1-3.4-6.2-4.6c-2.2-1.2-4.5-2-6.9-2.1c-4.8-0.4-9.8,1.6-14.6,3.9L694.6,294.6z"/>
	<path class="st17" d="M745.5,298.9c0.8-2.7,3-4.8,5.5-6c2.5-1.3,5.2-1.8,8-1.8c2.7,0.1,5.5,0.8,7.9,2.2c2.4,1.4,4.4,3.5,5.4,6
		L771,300c-3.4-3.4-7.7-5.1-12.2-5.2c-4.4-0.1-9.1,1.1-12,4.7L745.5,298.9z"/>
	<path class="st0" d="M711.3,357.6l33.2,2.4C744.5,359.9,726,384.5,711.3,357.6z"/>
	<path class="st23" d="M775.4,322.9c-2.4,12.4-5.8,25.1-10.8,36.3c-6.5-3.1-11-9.6-11-17.3c0-10.6,8.6-19.1,19.2-19.1
		C773.7,322.8,774.5,322.8,775.4,322.9z"/>
	<ellipse transform="matrix(0.922 -0.3872 0.3872 0.922 -76.797 293.8622)" class="st23" cx="691" cy="337.5" rx="19.2" ry="19.2"/>
</g>
</svg>
