<?xml version="1.0" encoding="utf-8"?>
<!-- Generator: Adobe Illustrator 22.0.1, SVG Export Plug-In . SVG Version: 6.00 Build 0)  -->
<svg version="1.1" id="Layer_1" xmlns="http://www.w3.org/2000/svg" xmlns:xlink="http://www.w3.org/1999/xlink" x="0px" y="0px"
	 viewBox="0 0 244.7 233.1" style="enable-background:new 0 0 244.7 233.1;" xml:space="preserve">
<style type="text/css">
	.st0{fill:#42B873;}
	.st1{fill:#FFFFFF;}
	.st2{fill:#FFFFFF;stroke:#41B873;stroke-width:3;stroke-miterlimit:10;}
</style>
<g>
	<path class="st0" d="M185,232.9H59.6c-32,0-58.1-26.1-58.1-58.1V58.7c0-32,26.1-58.1,58.1-58.1H185c32,0,58.1,26.1,58.1,58.1v116.1
		C243.1,206.7,216.9,232.9,185,232.9z"/>
	<path class="st1" d="M172.3,146c0.2-18.7,0.5-37.5,0.4-56.2c0-1.6-2.5-3.9-4.3-4.8c-14.3-6.7-28.6-13.3-43.1-19.5
		c-2.1-0.9-5.5-0.1-7.9,0.9c-22.5,9.9-45,20.1-68.1,30.5c-1.4-3.1-2.8-6.1-4.4-9.5c22.1-9.9,43.8-19.6,65.6-29.5
		c3.8-1.7,7.4-3.9,11.1-5.9c0.5,0,1,0,1.4,0c5.6,2.9,11.2,6,16.9,8.6c19.8,9,39.6,17.7,59.7,26.7c-1.6,3.5-3,6.4-4.4,9.3
		c-4-1.5-7.3-2.8-11.5-4.4c0,18.4,0,36.1,0,53.8C180,146,176.1,146,172.3,146z"/>
	<path class="st2" d="M141,127.2h-9c-0.7-3.6-2.2-7.2-3.6-7.2H141c4,0,7.2-3.2,7.2-7.2c0-4-3.2-7.2-7.2-7.2H86.9
		c-4,0-7.2,3.2-7.2,7.2c0,4,3.2,7.2,7.2,7.2h15.5c5.5,0.1,10.7,2.8,14.1,7.2H86.9c-4,0-7.2,3.2-7.2,7.2s3.2,7.2,7.2,7.2h29.6
		c-0.7,0-1.4,2.2-2.9,3.2c-3,2.9-7.1,4.4-11.2,4H86.9c-2.9,0.3-5.4,2.3-6.5,5c-1.1,2.8-0.5,6,1.4,8.3l38.6,36.8
		c1.3,1.4,3.1,2.1,5,2.2c2.1,0.1,4.1-0.9,5.4-2.5c2.7-2.9,2.5-7.4-0.4-10.1L105,164.3c7.2-0.5,14-3.6,19.1-8.7
		c3.5-4.1,6.2-8.9,7.9-14.1h9c4,0,7.2-3.2,7.2-7.2S145,127.2,141,127.2z"/>
</g>
</svg>
