<?xml version="1.0" encoding="iso-8859-1"?>
<!-- Generator: Adobe Illustrator 18.0.0, SVG Export Plug-In . SVG Version: 6.00 Build 0)  -->
<!DOCTYPE svg PUBLIC "-//W3C//DTD SVG 1.1//EN" "http://www.w3.org/Graphics/SVG/1.1/DTD/svg11.dtd">
<svg version="1.1" id="Layer_1" xmlns="http://www.w3.org/2000/svg" xmlns:xlink="http://www.w3.org/1999/xlink" x="0px" y="0px"
	 viewBox="0 0 300 265" style="enable-background:new 0 0 300 265;" xml:space="preserve">
<g>
	<circle style="fill:none;stroke:#465C73;stroke-width:12;stroke-miterlimit:10;" cx="149.881" cy="132.206" r="124.75"/>
	<path style="fill:#FFFFFF;stroke:#528EBA;stroke-width:6;stroke-miterlimit:10;" d="M188.212,102.392h-12.777
		c-1.022-5.111-3.066-10.222-5.111-10.222h17.888c5.645,0,10.222-4.576,10.222-10.222s-4.576-10.222-10.222-10.222H111.55
		c-5.645,0-10.222,4.576-10.222,10.222s4.576,10.222,10.222,10.222h21.976c7.863,0.158,15.215,3.929,19.932,10.222H111.55
		c-5.645,0-10.222,4.576-10.222,10.222s4.576,10.222,10.222,10.222h41.908c-1.022,0-2.044,3.066-4.089,4.6
		c-4.194,4.118-9.992,6.176-15.843,5.622H111.55c-4.16,0.486-7.705,3.243-9.199,7.155c-1.506,3.999-0.723,8.499,2.044,11.755
		l54.685,52.13c1.887,1.926,4.459,3.028,7.155,3.066c2.985,0.123,5.843-1.211,7.666-3.578c3.757-4.112,3.53-10.476-0.511-14.31
		l-36.286-34.242c10.202-0.731,19.807-5.081,27.087-12.266c4.965-5.88,8.78-12.641,11.244-19.932h12.777
		c5.645,0,10.222-4.576,10.222-10.222S193.857,102.392,188.212,102.392z"/>
</g>
<g>
</g>
<g>
</g>
<g>
</g>
<g>
</g>
<g>
</g>
<g>
</g>
</svg>
