<?xml version="1.0" encoding="utf-8"?>
<!-- Generator: Adobe Illustrator 22.0.1, SVG Export Plug-In . SVG Version: 6.00 Build 0)  -->
<svg version="1.1" id="Layer_1" xmlns="http://www.w3.org/2000/svg" xmlns:xlink="http://www.w3.org/1999/xlink" x="0px" y="0px"
	 viewBox="0 0 244.7 233.1" style="enable-background:new 0 0 244.7 233.1;" xml:space="preserve">
<style type="text/css">
	.st0{fill:#58B84A;}
</style>
<path class="st0" d="M122.9,10.6C181.7,10.5,229.3,58,229.5,117c0.1,58.8-47.4,106.4-106.4,106.6c-58.8,0.1-106.4-47.4-106.6-106.4
	C16.4,58.4,63.9,10.8,122.9,10.6z M208.2,117c-0.1-47-38.6-85.4-85.4-85.2c-47,0.2-85.4,38.7-85.1,85.4c0.3,47,38.4,85.1,85.2,85.1
	C169.9,202.3,208.3,163.8,208.2,117z"/>
<path class="st0" d="M112.6,106.6c7,0,13.8,0,20.9,0c0,21.2,0,42.3,0,63.6c-7,0-13.8,0-20.9,0C112.6,149.1,112.6,128,112.6,106.6z"
	/>
<path class="st0" d="M133.4,64c0,7,0,13.9,0,21c-6.9,0-13.8,0-20.9,0c0-7,0-13.9,0-21C119.4,64,126.3,64,133.4,64z"/>
</svg>
