<?xml version="1.0" encoding="utf-8"?>
<!-- Generator: Adobe Illustrator 22.0.1, SVG Export Plug-In . SVG Version: 6.00 Build 0)  -->
<svg version="1.1" id="Layer_1" xmlns="http://www.w3.org/2000/svg" xmlns:xlink="http://www.w3.org/1999/xlink" x="0px" y="0px"
	 viewBox="0 0 2098 1448.4" style="enable-background:new 0 0 2098 1448.4;" xml:space="preserve">
<style type="text/css">
	.st0{fill:#86B1F2;}
	.st1{fill:#F47257;}
	.st2{fill:#3C8F7C;}
	.st3{fill:#96D9C9;}
	.st4{fill:#50BFA5;}
	.st5{fill:#B75742;}
	.st6{fill:#F7CC7F;}
	.st7{fill:#FAE0B2;}
	.st8{fill:#FFFFFF;}
	.st9{fill:#F48C7F;}
	.st10{fill:#466EB6;}
	.st11{fill:#F7A491;}
	.st12{fill:#F8A492;}
	.st13{fill:#F47458;}
	.st14{fill:#184655;}
	.st15{fill:#355389;}
</style>
<g>
	<path class="st0" d="M1788.1,373.7l25.1-13l25,13.3c2.8,1.5,6.2-0.9,5.7-4.1l-4.6-27.9l20.4-19.7c2.3-2.2,1.1-6.2-2.1-6.7l-28-4.2
		l-12.4-25.5c-1.4-2.9-5.5-2.9-7,0l-12.7,25.3l-28.1,3.9c-3.2,0.4-4.5,4.4-2.2,6.6l20.2,19.9l-5,27.9
		C1781.9,372.8,1785.2,375.2,1788.1,373.7z"/>
	<rect x="498.1" y="885.4" class="st1" width="1237.3" height="129.5"/>
	<g>
		<path class="st2" d="M1406.3,1343.8c-279-147.5-582.1-238.3-893.2-267.6c11.5-135,23.1-270,34.6-405
			C907.4,705,1257.8,810,1580.4,980.6C1522.3,1101.7,1464.3,1222.7,1406.3,1343.8z"/>
		<path class="st3" d="M540.5,1002.1c7.9-84.2,15.7-168.4,23.6-252.6c32.7,3.4,62-17.7,65.5-48c299.9,37.7,592.2,125.2,865.9,259.4
			c-12.2,27.7,2.1,61.8,31.6,77.1c-35.6,75.9-71.3,151.7-106.9,227.6c-27.1-14.1-59.2-2.4-71.4,25.2
			c-240.3-117.8-497-194.8-760.4-227.8C592,1032.8,570.6,1005.2,540.5,1002.1z"/>
		<g>
			<path class="st4" d="M1184.3,1016c-25.1,72.4-102.7,109.3-174.6,87.2c-71.9-22.3-118.1-97.4-101.9-172.6
				c16.1-75.1,95.9-120,176.8-95C1165.5,860.5,1209.5,943.7,1184.3,1016z"/>
			<path class="st2" d="M1009.1,1077.7c2-8.1,4-16.2,6-24.3c-10.8-3.5-21.1-8.5-29.3-13.7c-6.9-4.4-9.3-13.3-5.6-20.3
				c0.1-0.3,0.3-0.6,0.4-0.9c4.1-7.8,14.1-10.3,21.7-5.3c7.7,5.1,16.8,9.6,26.9,12.4c14.7,4.1,26.2,1.5,28.8-8.7
				c2.5-9.7-4.2-18.2-22-30c-25.7-17-42.1-34.7-36.4-59.6c5.1-22.6,25.9-36.1,56.3-33.4c2-8.1,4-16.2,6-24.3
				c8.9,2.5,17.8,5,26.7,7.6c-1.9,7.5-3.8,15-5.7,22.4c9.7,3.2,17.5,6.9,23.7,10.6c7.7,4.5,10.4,14,6.2,21.1l0,0
				c-4.4,7.4-14.3,9.5-22.1,4.7c-5.8-3.6-13.2-7.3-22.7-10c-17.4-4.9-24.8,0.7-26.5,7.9c-2.1,8.5,6,16.3,26.3,30.9
				c28.6,19.8,37.2,37.8,30.9,60.5c-6.3,22.6-27.7,36.7-58.2,33.4c-2.2,8.7-4.5,17.3-6.7,26
				C1025.6,1082.3,1017.4,1080,1009.1,1077.7z"/>
			<path class="st4" d="M865.2,927.8c-71.1-16.4-142.9-29.8-215.2-40.1c1.7-13,3.3-26,5-38.9c73.3,10.4,146.1,24,218.2,40.6
				C870.5,902.2,867.9,915,865.2,927.8z"/>
			<path class="st4" d="M1419.7,1124.7c-66.2-32.4-133.5-61.8-201.8-88.3c4.3-12.3,8.6-24.6,13-36.9
				c69.3,26.9,137.5,56.8,204.7,89.6C1430.2,1101,1424.9,1112.9,1419.7,1124.7z"/>
		</g>
	</g>
	<g>
		<path class="st2" d="M1536.6,880.4c-287.9,60.1-562,180.7-807.9,355.2c-66.4-114.7-132.9-229.3-199.3-344
			c284.4-201.8,601.3-341.2,934.1-410.7C1487.9,614.1,1512.3,747.3,1536.6,880.4z"/>
		<path class="st3" d="M707.9,1159.3c-41-71.9-81.9-143.9-122.8-215.8c26-18.1,35.9-53.5,21.7-79.8
			c242.3-160.8,506.7-277,783.2-344.4c6.4,29.7,35.9,47.8,66.1,41.2c15.8,83,31.7,166,47.5,248.9c-27.8,6.1-45,35.7-38.7,65.4
			c-242.8,59.1-475,161.2-687.8,302.4C762.9,1151,731.8,1142.6,707.9,1159.3z"/>
		<g>
			<path class="st4" d="M1190.8,761c21.7,73.6-15.1,152.2-80.5,180.4c-65.4,28-141.2-2.3-171-72.4c-29.8-69.9,4.1-156.4,77.8-188
				C1090.6,649.3,1169.2,687.5,1190.8,761z"/>
			<path class="st2" d="M1095.7,921.5c-3-7.7-6-15.4-9-23.1c-10,4.1-20.3,6.7-29.3,7.7c-7.5,0.9-14.3-4.6-15.4-12.6
				c0-0.3-0.1-0.6-0.1-1c-1.3-8.8,4.7-17.2,13.1-18c8.5-0.9,17.7-3,26.7-7.2c13.1-6.1,20.1-15.5,16.4-25.3
				c-3.5-9.3-13.2-11.8-32.9-9.9c-28.4,2.8-50.3-0.8-60-24.2c-8.7-21.2-0.9-45.2,23-62.3c-3-7.7-6.1-15.4-9.1-23.1
				c8-3.7,15.9-7.4,23.9-11c2.7,7.2,5.5,14.3,8.2,21.5c9-3.6,16.7-5.6,23.4-6.7c8.2-1.3,15.4,4.5,16.3,12.9l0,0
				c0.9,8.6-5.3,16.7-13.7,17.7c-6.3,0.8-13.8,2.6-22.3,6.5c-15.6,7.1-17.9,16.3-15.2,23.1c3.2,8,13.5,9.2,36.6,7.8
				c32.2-2.5,48.4,6.4,56.4,28.5c7.9,21.9,0,46.8-24.4,63.6c3.2,8.3,6.3,16.6,9.5,24.9C1110.5,914.6,1103.1,918,1095.7,921.5z"/>
			<path class="st4" d="M906.3,893.8c-61.6,32.2-122,67.2-181.1,105c-6-11.4-11.9-22.8-17.9-34.1c59.9-38.3,121.2-73.9,183.6-106.5
				C896,870.1,901.1,881.9,906.3,893.8z"/>
			<path class="st4" d="M1424.9,697.7c-66.8,16.4-132.9,35.8-198,58.1c-3.6-12.5-7.3-25-10.9-37.6c66.1-22.7,133-42.3,200.8-58.9
				C1419.5,672.2,1422.2,684.9,1424.9,697.7z"/>
		</g>
	</g>
	<g>
		<path class="st2" d="M1582.6,1132.1c-299.4-18.1-599.2,25.8-883.6,129.5c-39.2-128.6-78.3-257.2-117.5-385.8
			C910.3,755.9,1257,705.1,1603.1,726.1C1596.3,861.4,1589.4,996.7,1582.6,1132.1z"/>
		<path class="st3" d="M696,1182.2c-23.8-80.5-47.7-161-71.5-241.4c30-10.6,48.1-42.3,40.1-71.5c277.6-91.3,566.8-133.7,856.6-125.5
			c-0.6,30.5,24.4,55.8,55.9,57.4c-3.6,84.5-7.3,169-10.9,253.5c-29-1.5-53,22.6-53.6,53.1c-254.5-7.2-508.4,30-752.2,110.3
			C752.6,1188.7,723.6,1172.4,696,1182.2z"/>
		<g>
			<path class="st4" d="M1267.6,924.7c4.3,76.9-50.4,143.3-121.8,153.2c-71.4,9.7-139.5-39.7-152.7-115.4
				c-13.2-75.6,40.6-150.3,120.9-161.3C1194.2,790.1,1263.3,847.9,1267.6,924.7z"/>
			<path class="st2" d="M1135.9,1054.8c-1.2-8.3-2.4-16.5-3.6-24.8c-10.8,1.3-21.7,1.1-30.8-0.3c-7.6-1.1-13.1-8.2-12.4-16.3
				c0-0.3,0.1-0.6,0.1-1c0.7-8.8,8.7-15.4,17.2-14c8.6,1.4,18.3,1.8,28.2,0.1c14.4-2.4,23.6-9.7,22.2-20.1
				c-1.3-9.9-10.3-15-30.3-18.3c-28.8-4.8-49.7-14.1-53.8-39.3c-3.7-22.8,9.7-43.9,37.3-54.2c-1.2-8.2-2.4-16.5-3.6-24.7
				c8.8-1.5,17.5-2.9,26.3-4.3c1.1,7.7,2.1,15.3,3.2,23c9.7-1.1,17.9-1,24.8-0.3c8.4,0.9,14.3,8.5,13.2,16.8l0,0
				c-1.1,8.6-9.1,14.7-17.7,13.5c-6.4-0.9-14.3-1.1-23.6,0.4c-17.1,2.8-21.6,11.1-20.5,18.3c1.3,8.6,11.2,12.4,34.5,17.3
				c32.5,6.2,46.5,19,49.3,42.5c2.7,23.3-10.9,45.3-39,55c1.2,8.9,2.4,17.8,3.6,26.6C1152.2,1052.1,1144,1053.5,1135.9,1054.8z"/>
			<path class="st4" d="M954.6,977.8c-68.6,14.8-136.6,32.7-204,53.6c-3.3-12.6-6.5-25.2-9.8-37.8c68.3-21.2,137.3-39.3,206.8-54.4
				C949.9,952.1,952.2,965,954.6,977.8z"/>
			<path class="st4" d="M1514.4,925.6c-70-1.9-140.1-0.6-209.8,3.7c-0.7-13.1-1.4-26.2-2.1-39.2c70.8-4.4,141.8-5.7,212.8-3.8
				C1515,899.4,1514.7,912.5,1514.4,925.6z"/>
		</g>
	</g>
	<rect x="498.1" y="885.4" class="st1" width="1237.3" height="544.5"/>
	<path class="st5" d="M1735.4,1290.9h-306.2c-13.6,0-24.6,11.5-24.6,25.7l0,0c0,14.2,11,25.7,24.6,25.7h-39.7
		c-13.6,0-24.6,11.5-24.6,25.7l0,0c0,14.2,11,25.7,24.6,25.7h6.9c-13.6,0-24.6,11.5-24.6,25.7c0,3.7,0.7,7.2,2.1,10.3h361.5V1290.9z
		"/>
	<rect x="543.7" y="912.2" class="st5" width="1126.3" height="42.3"/>
	<g>
		<path class="st2" d="M1034.3,1423.2H526.1c-23,0-41.6-18.6-41.6-41.6v-255c0-23,18.6-41.6,41.6-41.6h508.3
			c23,0,41.6,18.6,41.6,41.6v255C1075.9,1404.6,1057.3,1423.2,1034.3,1423.2z"/>
		<rect x="522.5" y="1152.2" class="st6" width="145.6" height="84.7"/>
		<rect x="780.2" y="1130.8" class="st6" width="258.3" height="15.8"/>
		<rect x="544" y="1311.4" class="st6" width="475.3" height="19.5"/>
		<rect x="544" y="1357.4" class="st6" width="475.3" height="19.5"/>
	</g>
	<rect x="558" y="1024.4" class="st5" width="525.2" height="14"/>
	<circle class="st7" cx="1383.8" cy="816.8" r="117"/>
	<path class="st6" d="M1464.1,760.4c31.1,44.4,20.4,105.6-24,136.7c-44.4,31.1-105.6,20.4-136.7-24c-31.1-44.4-20.4-105.6,24-136.7
		C1371.7,705.3,1432.9,716,1464.1,760.4z"/>
	<g>
		
			<ellipse transform="matrix(0.7071 -0.7071 0.7071 0.7071 -404.631 1405.3518)" class="st7" cx="1494.1" cy="1191.1" rx="117" ry="117"/>
		<path class="st6" d="M1574.4,1134.7c31.1,44.4,20.4,105.6-24,136.7c-44.4,31.1-105.6,20.4-136.7-24
			c-31.1-44.4-20.4-105.6,24-136.7S1543.3,1090.4,1574.4,1134.7z"/>
		<g>
			<path class="st8" d="M1505.4,1260.1l-4.3-15.8c-7.2,1.6-14.6,2.2-20.9,1.8c-5.3-0.3-9.4-4.6-9.5-9.8l0-0.6
				c-0.1-5.8,4.8-10.5,10.6-10.1c5.9,0.4,12.4,0,18.9-1.8c9.5-2.6,15-8,13.2-14.6c-1.7-6.3-8.1-8.9-21.6-9.7
				c-19.4-1.2-33.8-6.2-38.2-22.4c-4-14.7,3.3-28.9,20.1-37.2l-4.3-15.8l16.3-4.4l4,14.7c6.1-1.4,11.3-1.9,15.8-1.9
				c5.5,0,9.9,4.4,10,9.8l0,0c0.1,5.6-4.5,10.2-10.2,10.1c-4.2-0.1-9.3,0.3-15.2,1.9c-10.8,2.9-13.1,8.5-11.8,13.2
				c1.5,5.5,8.3,7.4,23.8,8.9c21.7,1.6,32.2,8.6,36.2,23.6c4,14.8-3.1,30.3-21.3,38.8l4.6,17L1505.4,1260.1z"/>
		</g>
	</g>
	
		<ellipse transform="matrix(0.9999 -1.665987e-02 1.665987e-02 0.9999 -17.2285 21.2495)" class="st7" cx="1266.8" cy="1044.7" rx="117" ry="117"/>
	
		<ellipse transform="matrix(0.9135 -0.4068 0.4068 0.9135 -315.4415 605.7427)" class="st6" cx="1266.8" cy="1044.7" rx="98.1" ry="98.1"/>
	<rect x="1140.3" y="1112.1" class="st9" width="529.7" height="283.9"/>
	<path class="st5" d="M1404.6,1316.6L1404.6,1316.6c0,14.2,11,25.7,24.6,25.7h-39.7c-13.6,0-24.6,11.5-24.6,25.7l0,0
		c0,14.2,11,25.7,24.6,25.7h6.9c-3.5,0-6.9,0.8-9.9,2.2H1670v-105.1h-240.8C1415.6,1290.9,1404.6,1302.4,1404.6,1316.6z"/>
	<polygon class="st10" points="1367,358.8 1371,386 1328,397.3 1328.9,437.8 1298.1,451.6 1305,467.2 1346.3,448.8 1345.4,410.4 
		1390.2,398.6 1384.1,357.7 	"/>
	<g>
		<path class="st3" d="M959.7,272.6L968,252c-9.1-4.2-17.6-9.6-24.1-15.1c-5.5-4.6-6.4-12.6-2.2-18.4l0.5-0.7
			c4.7-6.3,13.7-7.4,19.7-2.3c6.1,5.2,13.4,10.1,21.9,13.5c12.4,5,22.7,3.6,26.2-5.1c3.3-8.2-1.5-16.2-15.4-28.1
			c-20.1-17.2-31.5-34.4-23-55.4c7.7-19.1,27.2-28.6,52.2-23.8l8.3-20.6l21.2,8.6l-7.7,19.1c7.7,3.5,13.8,7.2,18.6,10.8
			c5.9,4.4,7.1,12.8,2.7,18.8l0,0c-4.5,6.2-13.3,7.3-19.3,2.6c-4.5-3.6-10.3-7.3-18-10.4c-14.1-5.7-21.1-1.4-23.5,4.6
			c-2.9,7.2,2.9,14.8,18.5,29.1c22.1,19.5,27.7,35.6,19.9,55.1c-7.8,19.3-28.1,30.3-54.8,24.6l-8.9,22.1L959.7,272.6z"/>
	</g>
	<path class="st0" d="M999,492.4c2.2,3.5,1.5,8.1-1.5,10.9c-5.9,5.5-15.4,11.9-27,16.3c-16.9,6.3-35.6,6.9-52.5-0.7
		c-10.5-4.8-20.2-13.4-27-24.6l-10,3.7c-3.4,1.3-7.2-0.4-8.4-3.8l-0.1-0.3c-1.3-3.4,0.4-7.2,3.8-8.4l8.2-3.1
		c-1.3-2.7-2.2-4.4-2.8-5.9c-1-2.6-1.9-5.7-2.6-9.2l-8.4,3.2c-3.4,1.3-7.2-0.4-8.4-3.8l0,0c-1.3-3.4,0.4-7.2,3.8-8.4l10.2-3.8
		c-1.6-12.8,0.1-25.4,4.9-36c8.1-17.9,23.5-30.7,41.1-37.3c10.3-3.9,18.7-5,25.6-5.1c4.8-0.1,8.7,3.7,8.9,8.4l0,0.1
		c0.2,4.9-3.6,9.1-8.5,9.2c-5.6,0.2-12.2,1.3-19.9,4.2c-11.2,4.2-21.2,12-26.8,24.1c-3.2,7-4.7,15.5-3,23.9l57.5-21.6
		c3.4-1.3,7.2,0.4,8.4,3.8l0,0c1.3,3.4-0.4,7.2-3.8,8.4l-60.1,22.5c0.8,2.9,1.6,5.8,2.3,7.6c0.9,2.3,1.7,4.6,3.1,7.6l60.2-22.6
		c3.5-1.3,7.3,0.5,8.6,3.9l0,0c1.3,3.5-0.5,7.3-3.9,8.6l-57.6,21.6c4.6,6.7,10.5,11.8,16.9,14.7c12.6,5.5,24.1,5.2,36.9,0.4
		c7.8-2.9,14.3-6.9,19.2-10.8C990.3,487,996.2,488,999,492.4L999,492.4z"/>
	<polygon class="st4" points="841.9,287.4 815.8,290.1 806.9,248.5 768.2,247.7 756.5,217.7 741.3,223.6 757,263.7 793.6,264.5 
		802.9,307.8 842.2,303.8 	"/>
	<g>
		<path class="st7" d="M1143.7,256.3l27.9,9.2c0,0,44.3-14.4,48.7-23.4c4.4-9,5.6-30.9,11.9-31.5c6.3-0.6,18.5,1.5,21.4,16.4
			c2.1,10.9-13.8,42.3-11.3,45.7c1.6,2.1,17.5,7.9,29.2,11.9c7.7,2.6,13.2,9.4,14.4,17.6l0,0c0.8,5.5-2.3,10.9-7.5,12.9l-8,3.1
			l2.6,8.3c1.9,6.2-1.5,12.8-7.6,14.9l-6.2,2.1l2,5.1c2.6,6.5-1,13.9-7.7,15.8l-5.4,1.6l0.2,1.5c0.9,6-2.9,11.9-8.7,13.4l-5.4,1.4
			l-74.4-24.6c-7-2.3-13.4-6-18.9-11l-24.7-13c-2.7-1.4-3.9-4.6-2.9-7.5l22.9-66C1137.2,257,1140.6,255.3,1143.7,256.3z"/>
	</g>
	<path class="st6" d="M701.7,551.9l5.9-29.3l27.5-11.8c3.1-1.3,3.4-5.7,0.4-7.4l-26.1-14.7l-2.7-29.8c-0.3-3.4-4.4-5-6.9-2.7
		l-22,20.2l-29.2-6.7c-3.3-0.8-6.1,2.6-4.7,5.7l12.4,27.2l-15.3,25.7c-1.7,2.9,0.6,6.6,4,6.2l29.7-3.4l19.7,22.5
		C696.9,556.3,701.1,555.2,701.7,551.9z"/>
	<g>
		<g>
			<path class="st11" d="M342.8,1272.1c0,0-36.7,26.4-42.4,34.3c-8.3,11.4,62.1,32.6,54.4,19.3c-1.8-3.1-6.8-13.4-7.1-14.4
				c-1.2-5.4,13.8-20,13.8-20L342.8,1272.1z"/>
			<path class="st6" d="M373.8,1347.9l-24.9-35.2c0,0-15.5-3.6-31.5-21.6c0,0-14.3,5.5-23.2,17.3c0,0,16.7,18,42.3,38.2
				c0,0,15.2,13.5,36.3,20.6C393.9,1374.4,373.8,1347.9,373.8,1347.9z"/>
			<path class="st12" d="M36.4,790.3c0,0,4.5,4,6.1,5.2c1.9,1.4,7.8,5.3,7.8,5.3s21.4,12.2,22.1,10.6c0.7-1.6,0.7-6.2-0.4-7.4
				c-1.1-1.2-4.1-2.5-5.2-3.7c-1.1-1.2-1.4-3.7-0.1-5c1.4-1.4,8.7,2.6,8.7,2.6s5.9,3.3,8.4,7.3c8.6,13.8,6,14.6,7.1,16.3
				c1.4,2.1,31.4,15.7,31.4,15.7s89.7,37.3,94.6,39.3h0.1c0.7,4.2-1.6,8-2.7,11.7c-2.1,12.8-6,13.7-8.9,26
				c-13.8-7-109-59.4-118.7-64.9c0,0-14.5-2.5-23.6-4.3c-9.1-1.9-17-7.6-19.5-8.5c-0.4-0.1-8.5-3.6-17.4-10.5
				c-7.7-6,2.2-3.7,2.2-3.7s16.2,8.6,16.6,7.2c0.3-1-8.8-5.2-17.3-11.7c-2.2-1.7-4.4-3.3-6.4-4.9c-5.2-4-4.3-8.3,1.8-4.9
				c2.2,1.2,5.7,3.3,8,5.1c2.5,2,5.4,3,7.8,4.3c4.7,2.7,8,4.7,8,4.4c0-0.3,1.3-0.4-1-2.3c-2.7-2.2-9.6-5.7-13.4-9.3
				c-2.2-2-6.9-6-6.9-6s-6.1-7.3-5.8-7.8c1.6-2.6,7.2,1.2,9.7,4.4c2.6,1.2,7.5,5.5,7.5,5.5s11.8,6.6,12.7,5
				c0.4-0.7-6.4-5.6-12.3-11.3c-5.5-5.4-10.2-11.7-9.3-12.9C29.7,785,36.4,790.3,36.4,790.3z"/>
			<path class="st5" d="M286.7,1000.4l5.8,28.7l145.8,132.6l-104.4,105.6l28.2,28.8c0,0,154.1-113.2,159.7-128
				c8.6-22.8-110.5-174.1-110.5-174.1L286.7,1000.4z"/>
			<path class="st11" d="M185.6,1347.3c0,0-29.4,32.1-35.2,39.9c-8.3,11.4,53.8,28.1,46.1,14.8c-1.8-3.1-6.8-13.4-7.1-14.4
				c-1.2-5.4,13.8-20,13.8-20L185.6,1347.3z"/>
			<path class="st6" d="M229.3,1401l-40.5-14.8c0,0-15.3,7-38.6,1.3c0,0-8.2,11.6-8.7,26.3c0,0,76.7,9.8,98.1,3.7
				C260.8,1411.4,229.3,1401,229.3,1401z"/>
			<path class="st13" d="M291.7,1013.7l6.5,180.9l-129.4,158.6l35,19.2c0,0,143.1-122.8,158.8-157c9.7-21.2,42.5-213,42.5-213
				L291.7,1013.7z"/>
			<path class="st7" d="M409.3,998.9c-11.9-26.8-10.5-218.6-56.6-263.5c-16.2,2.7-27.8,4.3-30.5,5c-2.4,19.8-5.1,92.3-6.7,158.8
				c-1.1,44.3,0,90.7-5.4,115.2C306.6,1029.4,420.1,1023.3,409.3,998.9z"/>
			<path class="st10" d="M284.4,750.2c-13,3-22.5,5-39.5,30.1c-16.3,24-52.3,81-52.3,81l-95.1-42.2L93,867.2
				c0,0,107.5,55.9,122.7,50.9c15.2-5,57.8-67.4,61-71.6c0.7-1-3.6,66.6-3.6,77.4c0,10.8-20.6,104.8-20.6,104.8s52.3,12.9,62.5-10.5
				c31.3-71.7,7.3-278,7.3-278S293.7,748.1,284.4,750.2z"/>
			<path class="st11" d="M479.6,544.9c-4-3.3-5.7-11.4-6.4-16.5l-1.8-6.8c1.6-0.7,33.3-5.2,42.9-5.4c0.9,3,1.4,5.6,1.1,7.2
				c-1.4,7.8-11.4,58.6-11.4,58.6l-27.3,0.5C476.7,582.4,482.7,552.3,479.6,544.9z"/>
			<path class="st10" d="M363.3,746.5c0,0,18.7,53.3,34.1,45.6c15.4-7.7,102-96,102.9-100.2c0.9-4.3,6.9-112.6,6.9-112.6l-34.3-6.8
				l-19.7,88.8c0,0-63.4,60.6-76.2,66.6C364.2,733.7,363.3,746.5,363.3,746.5z"/>
			<path class="st10" d="M413.9,1011.7c10.4,0,14.2-1.4,21.1-3.5c0,0-19.7-111.3-31.2-221.7c-4.5-43.6-8.7-61.5-26.7-58.3
				c-5.2,0.9-19.3,6.3-24.4,7.1c45.2,127.9,45.4,226.3,51.8,254.9C407.6,1004.5,410.4,1011.8,413.9,1011.7z"/>
			<path class="st11" d="M347.9,716l4.7,19.3c0,0,1.1,16.8-6.7,18.3c-9.4,1.8-23.4-12.3-23.4-12.3l-8.1-54.5L347.9,716z"/>
			<path class="st11" d="M347.9,716l4.7,19.3c0,0,1.1,16.8-6.7,18.3c-9.4,1.8-23.4-12.3-23.4-12.3l-8.1-54.5L347.9,716z"/>
			<path class="st13" d="M314.5,687.1l33.4,28.9l3.5,14.4C338.6,727.3,320.4,713.3,314.5,687.1z"/>
			<path class="st11" d="M348,637c8.1,0,15.4,5.6,18.2,13.7c2.4,6.7,5.4,16.6,7.3,28c3.5,21-8.4,40.1-18.8,41.7
				c-10.4,1.5-35.1-5.3-40.6-35c-2.3-12.7-5.4-29.4,5-38.2C327.3,640.3,338.7,637,348,637z"/>
			<path class="st14" d="M317.5,707.9c0,0-36.6-32.6-38.2-58.1c-1.6-25.5,21.9-39.1,42.1-39.8c9.1-0.3,15.2,0.1,24.6,1.3
				c20.2,2.5,33.2,11.5,28.6,28c-6.2,22.2-48,3.5-56.6,10.4c-7.1,5.7,4.4,19.3-2.5,24.6c-6.4,4.9-3.2,3.2-1,12.6
				C316.7,696,317.5,707.9,317.5,707.9z"/>
			<path class="st11" d="M303.4,678.3c0.9,6.1,4.6,10.6,8.3,10.1c3.7-0.5,6-5.9,5.1-12c-0.9-6.1-4.6-10.6-8.3-10.1
				C304.7,666.8,302.5,672.2,303.4,678.3z"/>
			<path class="st13" d="M481.5,521.4c0,0,5.9,3.4,11.8,11.2c0,0,15.4-9.9,14.9-13c-0.7-4.2-16.5,3.6-16.5,3.6L481.5,521.4z"/>
		</g>
		<g>
			<path class="st3" d="M83.5,316.5l416.8,214.6c22.4,11.5,50.8,1.2,63.3-23.2L670,301.2c12.5-24.4,4.5-53.5-17.9-65L235.3,21.5
				c-22.4-11.5-50.8-1.2-63.3,23.2L65.6,251.4C53,275.8,61,304.9,83.5,316.5z"/>
			
				<rect x="297.9" y="63.6" transform="matrix(0.4578 -0.8891 0.8891 0.4578 -124.911 482.5111)" class="st15" width="70.5" height="560.2"/>
		</g>
		
			<rect x="204.6" y="75.5" transform="matrix(0.8887 0.4585 -0.4585 0.8887 79.985 -109.8944)" class="st6" width="123.5" height="68.5"/>
		<path class="st11" d="M481.4,521.1c-0.7-2-2.2-4.7-1.5-5.8c4.4-6.8-0.3-14.2-3.6-8.4c-1.9,3.4-5.2,10.7-4.9,14.6
			c0.2,2.8,3,13.4,3,13.4S485.5,532.2,481.4,521.1z"/>
	</g>
	<g>
		<path class="st11" d="M1737,1235.3c0,0-2.6,32-0.5,42.3c1.1,5.6,7.3,17,4.5,22.2s-6.1,6.5-6.1,6.5l-73.8,1.2
			c-4,0.1-1.4-2.5,1.9-4.8c5.3-3.8,9.6-6.4,26.5-14.4c1.1-0.5,5.1-3,6.6-3.9c3.7-2.2,7.4-5.7,10.6-9.2c5.3-5.8,5.8-33.9,5.8-33.9
			L1737,1235.3z"/>
		<path class="st15" d="M1679.3,810.5c0,0-31.7-15.6-25.6,18.4c6.1,34,52.6,416.5,52.6,416.5l43.5,2.4c0,0,5.6-127.5,4.3-145.8
			c-1.2-18.3-8.4-46.6-8.4-46.6l-3.7-113.1L1701,802.5L1679.3,810.5z"/>
		<path class="st2" d="M1696.1,1284.4c19.5,4.9,33.9,1.6,42-1.6c2.1,5.8,4.8,13.1,3.4,17.3c-1.8,5.1-4.1,7.4-6.4,7.5
			c-17.8,0.5-65.5,0-79.1,0.1c-1.9,0-2.9-2.2-1.7-3.6C1657.7,1300.1,1694.7,1285.2,1696.1,1284.4z"/>
		<path class="st11" d="M1653.7,580.7c0,0-26.8-51.6-31-70.6c-4.2-18.9-18.6-114.4-17.4-120.5c1.2-6.1,24-20.9,21.2-26.1
			c-2.8-5.2-24.5-5.2-29.5-4.8c-5,0.4-15,3.3-19.2,6.9c-4.3,3.5,4.8,117.9,7.5,142.5c2.7,24.6,36,100.4,36,100.4L1653.7,580.7z"/>
		<g>
			<path class="st11" d="M1862.7,982.9c0,0,22.1-23.2,27-32.6c2.6-5,5-17.8,10.5-20.1c5.5-2.3,8.9-1.2,8.9-1.2l58,45.6
				c3.2,2.5-0.5,2.8-4.5,2.6c-6.5-0.4-11.5-1.1-29.7-5.5c-1.2-0.3-5.9-0.9-7.6-1.1c-4.3-0.6-9.3-0.2-14,0.5
				c-7.8,1.2-25.9,22.7-25.9,22.7L1862.7,982.9z"/>
			<path class="st2" d="M1925.4,970.5c-12.1-16.1-25.4-22.6-33.7-25.2c2-5.8,4.3-13.4,8-15.8c4.6-2.9,7.8-2.3,9.6-0.9
				c14.1,10.9,51.1,40.6,61.8,49.1c1.5,1.2,0.9,3.5-0.9,3.9C1965.2,982.5,1927.1,970.8,1925.4,970.5z"/>
			<path class="st14" d="M1863.2,565c-13.8-28.9-44.3-44.8-73.8-37.1c-10.6-14.3-27-24.4-44.1-26.8c-33.7-4.8-77.1,11.6-72.7,46.7
				c-10.6,24.6-8,58.4,13.2,75c-3.9,32.3,28.5,61,66.8,57.1c15.4,21.3,42.2,33.8,67.3,28.9c6-1.2,15.2-3.4,16.7-3.1
				c-2-0.2,43.7,29.7,75.2-23.6C1944.1,627.8,1912.5,567,1863.2,565z"/>
			<path class="st10" d="M1666.6,822.9c0,0,71.1-31.6,72.3-28c8.9,28.7,36.7,19.5,53.1,70.1c6.9,21.2,14,162.1,14,162.1
				s28.1-23.3,68.1-64c3.1-3.1,33.2,25.5,33.2,25.5c-79.6,107.5-113.9,113.1-127.2,107.1c-27.7-12.6-86.2-188.3-86.1-188.3
				C1687,893.7,1666.6,822.9,1666.6,822.9z"/>
			<path class="st11" d="M1784.5,624.3c0,0,102.8-0.1,124.8-1.4c19.9-1.1,99,0.9,102,0.5c3.1-0.4,23.5-35,26.9-31.2
				c3.4,3.7-11.4,17.2-6.8,20.6c4.6,3.5,53.6-4.3,53-0.7c-1.2,6.8-29.8,5.9-29.8,9.2c0,3.3,29.9-1.8,32,3.6c2,5.4-28.8,2.2-30,4.6
				c-1.2,2.4,28.6,6.9,25.5,11.9c-1.7,2.7-26.4-4.6-26.3-0.8c0.1,3.7,18.2,12.3,16,15.2c-2.2,3-14.2-9.2-24.7-9.3
				c-10.5-0.2-18-5.6-34.7-1c-8.3,2.3-71.3,10-124.6,14.5c-54.6,4.7-99.4,6.1-99.4,6.1L1784.5,624.3z"/>
			<path class="st6" d="M1632,697c-1.4-16.5,1.9-29.2,2.6-34.7c-5-17.1-15.6-53.7-19.4-60.9c0,0,17.9-34.4,36.2-34.2
				c0,0,18.7,42.2,33.2,49.7c0.2-0.1,5.1,2.2,7.3,2.2c14-0.1,62.8-1.6,71.9-1.7l-5.1,69.3c-35.4,69.4-25.8,105.7-12.3,119.2
				c6.3,6.3-88.3,32-92.6,23.1C1648.6,818.3,1634.8,730.4,1632,697z"/>
			<path class="st6" d="M1739,620c9-4.3,74.2-2.1,74.2-2.1s9.1,45.4,1.8,56.3c0,0-58.3,8.7-56.6,13.5L1739,620z"/>
			<path class="st11" d="M1721.9,590.8c0,0-1.1,24.8,0,35.1c1.2,10.3-10.6,34.5-32.4,34.9c-21.8,0.4-3.2-23.2-1.3-33.3
				c1.9-10.1,4.2-49.9,4.2-49.9L1721.9,590.8z"/>
			<path class="st13" d="M1692.4,577.6c0,0-0.5,9.2-1.3,19.9c6.9,8.2,17.5,12.4,30.4,7.4c0.1-7.7,0.4-14.1,0.4-14.1L1692.4,577.6z"
				/>
			<path class="st11" d="M1723.7,517.1c0,0,12.4,3.7,19.3,16.1c6.9,12.4,9.9,47.6-16.8,62.1c-26.7,14.5-45-9.9-43.8-32.4
				C1683.7,540.4,1690.6,510.8,1723.7,517.1z"/>
			<path class="st11" d="M1677.1,555.5c1.8,5.6,5.9,9.2,9.1,8.2c3.2-1.1,4.4-6.4,2.6-12c-1.8-5.6-5.9-9.2-9.1-8.2
				C1676.5,544.6,1675.3,549.9,1677.1,555.5z"/>
			<path class="st14" d="M1720,516.1c0,0,13.5,37,27.4,41.2c13.9,4.2,12.4,22.2,12.4,22.2s2.6-41.8-10-52.3
				C1737.3,516.8,1720,516.1,1720,516.1z"/>
			<path class="st11" d="M1741.3,564.4c-2.3,5.7-1,11.6,2.9,13.1c3.9,1.5,8.8-1.9,11.1-7.6c2.3-5.7,1-11.6-2.9-13.1
				C1748.5,555.3,1743.6,558.7,1741.3,564.4z"/>
		</g>
		<path class="st13" d="M1574,374.4c0,0,30.1,1.3,33.7,1.3c3.5,0,13.8-10.6,13.8-10.6L1574,374.4z"/>
	</g>
	
		<ellipse transform="matrix(0.9755 -0.2199 0.2199 0.9755 -18.2945 353.1057)" class="st7" cx="1576.8" cy="258.7" rx="117" ry="117"/>
	<path class="st6" d="M1657.2,202.3c31.1,44.4,20.4,105.6-24,136.7c-44.4,31.1-105.6,20.4-136.7-24c-31.1-44.4-20.4-105.6,24-136.7
		C1564.8,147.3,1626,158,1657.2,202.3z"/>
	<path class="st11" d="M1607.6,375.7l12.4-11.2c0,0-5.9-7-3.4-8.4c4-2.2,10.8,6.3,10.2,8.3c-0.6,2.1-7.9,8.7-7.9,8.7L1607.6,375.7z"
		/>
	<path class="st8" d="M1609.4,238.6h-10.3c-0.8-4.1-2.5-8.2-4.1-8.2h14.4c4.6,0,8.2-3.7,8.2-8.2c0-4.6-3.7-8.2-8.2-8.2h-61.8
		c-4.6,0-8.2,3.7-8.2,8.2c0,4.6,3.7,8.2,8.2,8.2h17.7c6.3,0.1,12.2,3.2,16.1,8.2h-33.8c-4.6,0-8.2,3.7-8.2,8.2
		c0,4.6,3.7,8.2,8.2,8.2h33.8c-0.8,0-1.6,2.5-3.3,3.7c-3.4,3.3-8.1,5-12.8,4.6h-17.7c-3.3,0.3-6.2,2.6-7.4,5.7
		c-1.3,3.2-0.6,6.9,1.6,9.5l44.1,42c1.5,1.6,3.5,2.4,5.7,2.5c2.4,0.1,4.7-1,6.2-2.9c3.1-3.3,2.9-8.5-0.5-11.5l-29-27.6
		c8.2-0.6,16-4.1,21.8-9.9c4-4.7,7.1-10.2,9-16.1h10.3c4.6,0,8.2-3.7,8.2-8.2S1613.9,238.6,1609.4,238.6z"/>
	<path class="st8" d="M1414.7,800.9h-10.3c-0.8-4.1-2.5-8.2-4.1-8.2h14.4c4.6,0,8.2-3.7,8.2-8.2c0-4.6-3.7-8.2-8.2-8.2h-61.8
		c-4.6,0-8.2,3.7-8.2,8.2c0,4.6,3.7,8.2,8.2,8.2h17.7c6.3,0.1,12.2,3.2,16.1,8.2h-33.8c-4.6,0-8.2,3.7-8.2,8.2s3.7,8.2,8.2,8.2h33.8
		c-0.8,0-1.6,2.5-3.3,3.7c-3.4,3.3-8.1,5-12.8,4.6h-17.7c-3.3,0.3-6.2,2.6-7.4,5.7c-1.3,3.2-0.6,6.9,1.6,9.5l44.1,42
		c1.5,1.6,3.5,2.4,5.7,2.5c2.4,0.1,4.7-1,6.2-2.9c3.1-3.3,2.9-8.5-0.5-11.5l-29-27.6c8.2-0.6,16-4.1,21.8-9.9c4-4.7,7.1-10.2,9-16.1
		h10.3c4.6,0,8.2-3.7,8.2-8.2S1419.2,800.9,1414.7,800.9z"/>
	<path class="st8" d="M1306.6,1036.3l-9.7-3.3c0.5-4.2,0.2-8.6-1.3-9.1l13.6,4.6c4.3,1.5,9-0.9,10.4-5.2c1.5-4.3-0.9-9-5.2-10.4
		l-58.6-19.6c-4.3-1.5-9,0.9-10.4,5.2c-1.5,4.3,0.9,9,5.2,10.4l16.8,5.6c5.9,2.1,10.6,6.9,12.7,12.9l-32.1-10.7
		c-4.3-1.5-9,0.9-10.4,5.2c-1.5,4.3,0.9,9,5.2,10.4l32.1,10.7c-0.8-0.3-2.3,1.9-4.3,2.4c-4.3,2.1-9.3,2.2-13.6,0.3l-16.8-5.6
		c-3.3-0.7-6.7,0.5-8.9,3.1c-2.2,2.6-2.7,6.3-1.5,9.5l28.5,53.9c0.9,2,2.6,3.4,4.6,4.2c2.2,0.9,4.8,0.5,6.8-0.7
		c4-2.2,5.4-7.1,3.2-11.1l-18.7-35.4c8,2.1,16.5,1.2,23.8-2.5c5.3-3.2,9.9-7.4,13.7-12.4l9.7,3.3c4.3,1.5,9-0.9,10.4-5.2
		S1310.9,1037.8,1306.6,1036.3z"/>
</g>
</svg>
