<?xml version="1.0" encoding="iso-8859-1"?>
<!-- Generator: Adobe Illustrator 18.0.0, SVG Export Plug-In . SVG Version: 6.00 Build 0)  -->
<!DOCTYPE svg PUBLIC "-//W3C//DTD SVG 1.1//EN" "http://www.w3.org/Graphics/SVG/1.1/DTD/svg11.dtd">
<svg version="1.1" id="Capa_1" xmlns="http://www.w3.org/2000/svg" xmlns:xlink="http://www.w3.org/1999/xlink" x="0px" y="0px"
	 viewBox="-49 141 512 512" style="enable-background:new -49 141 512 512;" xml:space="preserve">
<path style="fill:#435E84;" d="M349.5,449.2l35.4-27.9l-0.2-45.1l19.7-40.6L384.8,295l0.2-45.1l-35.4-28l-19.4-40.7l-44-9.9L251,143
	l-44,10.3L163.1,143l-35.2,28.3l-44,9.9l-19.4,40.7l-35.5,28l0.2,45.1L9.5,335.6l19.7,40.6L29,421.3l35.4,28l14.2,29.9L21.1,602.5
	l68.1-10.4L125,651l59.6-127.9l22.3-5.2l17.6,4.1l60.2,129l35.8-58.9l68.1,10.4l-55.5-119L349.5,449.2z M123.1,616.3l-25.6-42.1
	l-48.6,7.4l42-90.2l37,8.3l35.2,28.3L123.1,616.3z M167.1,510.4l-31.9-25.7l-40-9l-17.6-37l-32.2-25.4l0.2-41l-17.9-36.8l17.9-36.9
	l-0.2-41l32.2-25.4l17.6-37l40-9l31.9-25.7l39.9,9.3l39.9-9.3l31.9,25.7l40,9l17.6,37l32.2,25.4l-0.2,41l17.9,36.8l-17.9,36.8
	l0.2,41l-32.2,25.4l-17.6,37l-40,9l-31.9,25.7L207,501L167.1,510.4z M312.2,574.3l-25.6,42l-41.8-89.6l6.1,1.4l35.2-28.3l33.1-7.4
	l41.6,89.3L312.2,574.3z"/>
<path style="fill:#435E84;" d="M348.7,335.6c0-78.1-63.6-141.7-141.7-141.7S65.3,257.5,65.3,335.6S128.9,477.3,207,477.3
	C285.1,477.2,348.7,413.7,348.7,335.6z M207,460.9c-69.1,0-125.3-56.2-125.3-125.3S137.9,210.3,207,210.3s125.3,56.2,125.3,125.3
	S276.1,460.9,207,460.9z"/>
<path style="fill:#4AB161;" d="M232.1,301L207,223.6L181.9,301h-81.4l65.8,47.8l-25.1,77.4l65.8-47.8l65.8,47.8l-25.1-77.4
	l65.8-47.8H232.1L232.1,301z M241.7,383.3L207,358.1l-34.7,25.2l13.2-40.8l-34.7-25.2h42.8l13.2-40.8l13.2,40.8h42.8l-34.7,25.2
	L241.7,383.3z"/>
</svg>
