<?xml version="1.0" encoding="utf-8"?>
<!-- Generator: Adobe Illustrator 16.0.0, SVG Export Plug-In . SVG Version: 6.00 Build 0)  -->
<!DOCTYPE svg PUBLIC "-//W3C//DTD SVG 1.1//EN" "http://www.w3.org/Graphics/SVG/1.1/DTD/svg11.dtd">
<svg version="1.1" id="Layer_1" xmlns="http://www.w3.org/2000/svg" xmlns:xlink="http://www.w3.org/1999/xlink" x="0px" y="0px"
	 width="250px" height="185px" viewBox="0 0 250 185" enable-background="new 0 0 250 185" xml:space="preserve">
<g>
	<path fill="#EBF3FB" d="M34.716,170.41c0,0-41.684-42.734-20.387-90.896c18.05-40.819,50.407-30.418,67.375-13.474
		c7.227,7.217,28.154,18.788,45.913-23.678c21.94-52.468,104.795-41.197,89.51,47.948c-7.396,43.14,34.009,37.067,18.771,80.19
		L34.716,170.41z"/>
	<g>
		<path fill="#2E3B65" d="M159.095,25.641c0.009-0.265,0.199-3.121,4.249-3.271c0,0-1.992,0.255-2.336,1.196
			c0,0,1.356-1.162,2.46-0.788c1.104,0.374,1.752,2.452,1.759,3.136c0.007,0.683-0.606,2.887-1.308,3.074
			c-0.265,0.071-0.57,0.052-0.849,0.001c0.188,0.313,0.37,0.657,0.544,1.043c1.616,3.564-0.05,7.046-1.418,6.662
			c-0.878-0.248-1.126,1.361-1.126,1.361l-8.521-7.414C152.549,30.642,155.68,23.682,159.095,25.641z"/>
		<path fill="#B2CBEA" d="M118.372,80.537l-0.196,1.345c-0.204,0.497-0.378,1.009-0.526,1.535h-1.643
			C117.346,81.655,118.372,80.537,118.372,80.537z"/>
		<path fill="#2B488C" d="M156.127,130.628l1.811,0.724c0,0,7.862-11.718,8.83-22.027c0.173-1.84,0.115-3.624-0.258-5.271
			c0,0,0.076-0.472,0.211-1.306c0.063-0.389,0.139-0.857,0.227-1.395c0.256-1.574,0.606-3.727,1.009-6.178
			c0.925-5.643,2.124-12.856,3.055-18.159l-0.487-0.169l-5.277-1.829l-1.091-3.722l-3.93-1.112c0,0-0.878,1.845-1.662,10.562
			c-0.146,1.144-0.277,2.405-0.376,3.772c-0.306,4.173-0.328,9.35,0.374,15.268c0.181,1.516,0.407,3.08,0.69,4.688
			c0.206,1.179,0.238,2.783,0.15,4.627C159.006,117.53,156.127,130.628,156.127,130.628z"/>
		<path fill="#243862" d="M158.188,84.52l8.533,18.229c0.063-0.389,0.139-0.857,0.227-1.395c0.256-1.574,0.606-3.727,1.009-6.178
			c0.925-5.643,2.124-12.856,3.055-18.159l-0.487-0.169l-5.277-1.829l-1.091-3.722l-3.93-1.112c0,0-0.878,1.845-1.662,10.562
			C158.418,81.891,158.286,83.152,158.188,84.52z"/>
		<path fill="#2B488C" d="M161.941,72.525l0.198-1.82c3.309,0.944,12.152-2.64,12.152-2.64s3.206,3.028,2.784,10.288
			c-0.204,3.543-0.581,18.599-0.973,23.055c-0.141,1.614-0.265,2.763-0.316,3.222c0,0.003,0,0.004,0,0.006
			c-0.017,0.14,0.029,0.271,0.096,0.394c0.577,1.054,1.054,2.149,1.446,3.271c3.848,11.015-0.592,24.582-0.592,24.582l-1.153-0.499
			c0,0-2.525-15.098-4.579-21.768c-0.349-1.131-0.683-2.021-0.988-2.552c-0.894-1.548-1.722-4.077-2.474-7.085
			c-1.42-5.688-2.564-13.087-3.325-18.798C164.112,82.184,161.941,72.525,161.941,72.525z"/>
		<path fill="#FAB17E" d="M138.183,66.475l0.247,1.781c0,0,0.109,0,0.302-0.015c0.603-0.044,2.067-0.132,3.727-0.324
			c2.493-0.265,5.451-0.736,6.63-1.516c1.794-1.178,4.74-4.785,6.657-8.391c0.056-0.088,0.096-0.176,0.138-0.264
			c1-1.915,1.698-3.814,1.753-5.33c0.042-0.927-0.055-1.722-0.232-2.414c-0.233-0.913-0.616-1.634-1.015-2.178
			c-0.054-0.088-0.109-0.177-0.19-0.25c-0.658-0.839-1.303-1.193-1.303-1.193c-0.329-0.147-0.685,0.03-1.055,0.457v0.015
			c-0.301,0.338-0.629,0.854-0.945,1.501c-0.014,0.015-0.026,0.03-0.026,0.044c-0.069,0.132-0.138,0.279-0.22,0.441
			c-0.028,0.029-0.041,0.073-0.056,0.103c-0.15,0.339-0.3,0.692-0.45,1.06c-1.686,3.945-3.48,9.922-4.974,11.703
			c-0.644,0.765-3.59,2.267-5.933,3.385C139.553,65.886,138.183,66.475,138.183,66.475z"/>
		<path fill="#FAB17E" d="M155.619,50.446c1.039,0.518,2.294,0.871,3.812,0.959c5.689,0.334,6.981-5.025,7.216-8.582
			c-0.819-0.32-1.538-0.29-1.952-0.266c-0.403,0.023-0.824,0.068-1.172,0.115c-0.696-0.391-1.946-2.289-2.669-5.463l-0.245,0.123
			l-4.106,2.073c0,0,0.437,1.435,0.759,2.809c0.252,1.076,0.432,2.113,0.281,2.404c-0.324,0.142-0.518,0.23-0.518,0.23
			s0,0.002-0.001,0.005C156.98,44.968,156.089,47.411,155.619,50.446z"/>
		<path fill="#F89748" d="M154.196,54.458c0.043,0.122,0.089,0.241,0.141,0.364c1.441,3.334,4.109,17.149,4.109,17.149
			c-0.38,2.483,17.371-0.487,17.417-2.749c0.626-2.398-2.219-6.25-3.822-8.183c-0.201-0.243-0.382-0.503-0.538-0.778
			c-0.396-0.689-0.647-1.468-0.727-2.281c-0.315-3.205-0.195-6.21-0.222-8.037l0,0c-0.313-0.25-0.616-0.479-0.898-0.7
			c-0.433-0.337-0.813-0.654-1.094-0.974c-0.309-0.35-0.503-0.708-0.525-1.11c-0.017-0.305-0.007-0.617,0.022-0.93
			c0.014-0.148,0.031-0.296,0.052-0.443c0.222-1.552,0.824-2.958,0.824-2.958c-1.526-0.664-4.241-0.269-4.241-0.269
			s0.003,0.162,0.004,0.427c0.01,1.066,0,3.803-0.316,4.32c-0.398,0.645-7.67,3.471-8.055,2.595
			c-0.379-0.861,0.657-4.893,0.696-5.045c0.001-0.003,0.001-0.005,0.001-0.005c-2.436,1.028-3.307,1.889-3.307,1.889
			C155.186,47.762,153.061,51.223,154.196,54.458z"/>
		<path fill="#EE9960" d="M156.502,39.407c0,0,0.437,1.434,0.759,2.81c2.399-0.72,3.128-3.43,3.348-4.883L156.502,39.407z"/>
		<path fill="#FAB17E" d="M155.996,40.925c0,0,5.742-1.428,4.859-5.255c-0.882-3.829-0.735-6.591-4.438-5.842
			c-3.703,0.75-4.075,2.4-4.069,3.754C152.353,34.938,154.481,41.198,155.996,40.925z"/>
		<path fill="#2E3B65" d="M152.023,31.409c0.618-1.388,1.345-1.313,1.798-1.067c2.698-2.683,5.345-0.492,5.345-0.492
			c1.018,2.645,3.226,3.724,3.226,3.724s-0.882,0.971-3.438,0.949c-0.78-0.007-1.565-0.392-2.28-0.923
			c1.377,1.491,2.994,2.399,2.994,2.399c-3.201-0.658-5.347-4.639-5.567-5.062c-0.27,0.43-0.789,1.345-0.833,2.119
			c-0.059,1.051,0.278,3.092-0.282,3.168C152.984,36.226,151.099,33.49,152.023,31.409z"/>
		<path fill="#F89748" d="M153.718,46.739c0,0-1.383,2.591-1.59,3.258c0,0,1.793-0.074,2.517,1.408
			C154.645,51.404,154.819,47.088,153.718,46.739z"/>
		<path fill="#ED7E2A" d="M163.226,67.329c3.501-0.04,6.466-3.946,8.277-7.068c-0.396-0.689-0.647-1.468-0.727-2.281
			c-0.315-3.205-0.195-6.21-0.222-8.037l0,0c-0.313-0.25-0.616-0.479-0.898-0.7c-0.433-0.337-0.813-0.654-1.094-0.974
			C165.695,53.476,158.479,67.382,163.226,67.329z"/>
		<path fill="#243862" d="M170.038,133.893h9.118c0,0,0.218-1.492-0.258-2.625c-0.457-1.088-1.172-1.581-1-2.896
			c-0.58,0.641-1.524,1.358-2.842,1.168c-0.162,0.282-1.043,1.787-1.581,2.203C172.878,132.203,170.223,132.039,170.038,133.893z"/>
		<path fill="#243862" d="M150.461,133.893h9.118c0,0,0.341-1.563-0.258-2.625c-0.529-0.94-0.326-1.478,0.066-2.256
			c-0.413,0.182-0.948,0.348-1.536,0.311c-0.454-0.027-0.935-0.249-1.355-0.512c-0.393,0.479-2.073,2.527-2.598,2.932
			C153.303,132.203,150.646,132.039,150.461,133.893z"/>
		<g>
			<path fill="#FAB17E" d="M137.904,66.436c0,0-1.688-0.354-2.074,0s-2.219,2.353-1.826,3.01c0.392,0.656,2.272-0.544,2.663-0.657
				c0.391-0.113,1.483-0.572,1.483-0.572L137.904,66.436z"/>
			<path fill="#89ADD8" d="M150.191,64.029c-0.13-0.298-0.29-0.569-0.479-0.816l0,0l-0.002-0.002
				c-0.14-0.184-0.295-0.352-0.465-0.507l-0.703-0.765l-0.185,0.147c-3.593-1.891-11.014,0.113-18.521,5.38
				c-9.072,6.364-14.896,15.128-13.216,19.784l-0.256,0.203l1.009,1.081c0.048,0.055,0.098,0.108,0.149,0.159l0.029,0.031
				l0.009,0.006c0.255,0.252,0.547,0.47,0.873,0.653l0.005,0.004l0-0.001c3.547,1.998,11.048,0.009,18.637-5.314
				C146.317,77.588,152.19,68.615,150.191,64.029z"/>
			<path fill="#B2CBEA" d="M128.76,66.306c9.241-6.483,18.354-8.022,20.352-3.436c1.999,4.585-3.873,13.56-13.114,20.042
				c-9.243,6.483-18.355,8.022-20.354,3.436C113.645,81.763,119.517,72.79,128.76,66.306z"/>
			<g>
				<path fill="#9AB8E1" d="M122.124,87.035c-0.75,0-1.433-0.091-2.034-0.277c-1.152-0.356-1.953-1.042-2.377-2.037
					c-0.834-1.953-0.062-4.851,2.174-8.163c2.184-3.236,5.517-6.517,9.385-9.239l0,0c5.94-4.18,11.984-6.199,15.395-5.144
					c1.152,0.356,1.952,1.042,2.377,2.037c0.833,1.953,0.063,4.853-2.173,8.164c-2.184,3.235-5.518,6.516-9.386,9.238
					C130.59,85.057,125.627,87.035,122.124,87.035z M142.654,62.629c-3.352,0-8.274,1.966-13.012,5.299
					c-3.802,2.675-7.071,5.891-9.208,9.057c-2.055,3.044-2.823,5.754-2.106,7.432c0.339,0.794,0.995,1.346,1.949,1.642
					c0.534,0.164,1.147,0.246,1.824,0.246c3.351,0,8.273-1.967,13.011-5.3c3.802-2.674,7.071-5.891,9.209-9.057
					c2.055-3.044,2.822-5.753,2.106-7.432c-0.339-0.792-0.995-1.346-1.949-1.64C143.944,62.71,143.331,62.629,142.654,62.629z"/>
			</g>
			<g>
				<path fill="#9AB8E1" d="M140.458,74.311l-2.621-3.237c0.011,0.936-0.305,1.872-1.11,2.719l1.73,2.138l-0.98,0.794l-1.716-2.119
					c-2.158,1.424-4.721,0.867-6.832-1.58c-0.351,2.817-1,6.104-1.688,9.387l-1.524-1.883c0.604-3.023,1.153-5.836,1.62-9.268
					l1.217-0.985l0.873,1.08c1.717,2.119,3.52,2.542,4.984,1.583l-3.621-4.473l0.98-0.794l3.574,4.414
					c0.915-1.196,0.642-2.697-0.74-4.403l-1.127-1.393l1.274-1.033l6.687,8.259L140.458,74.311z"/>
			</g>
		</g>
		<path fill="#FAB17E" d="M150.05,69.605l0.422,1.654c0,0,0.602-0.117,1.562-0.309c0.287-0.059,0.452-0.103,0.452-0.103
			c0.767-0.162,1.685-0.383,2.685-0.618h0.015c1.712-0.441,3.629-0.972,5.246-1.561c1.137-0.427,2.123-0.883,2.795-1.34
			c0.068-0.044,0.123-0.088,0.191-0.147c1.604-1.25,3.507-4.931,4.986-8.876c0.206-0.544,0.396-1.089,0.589-1.619
			c0.686-1.973,1.233-3.916,1.563-5.594c0.205-1,0.342-1.914,0.37-2.664c0.014-0.265,0.027-0.515,0.014-0.751
			c-0.028-4.268-2.001-4.857-2.001-4.857c-0.041-0.015-0.082-0.029-0.138-0.044c-0.341-0.058-0.698,0.192-1.067,0.678
			c-0.466,0.604-0.959,1.59-1.466,2.782c-0.781,1.899-1.603,4.358-2.37,6.802c-0.424,1.339-0.836,2.678-1.246,3.915
			c-0.233,0.75-0.467,1.458-0.686,2.105c-0.425,1.237-0.809,2.238-1.15,2.871c-0.22,0.413-0.85,0.987-1.685,1.634
			c-1.452,1.134-3.576,2.503-5.425,3.622c-0.768,0.471-1.336,1.035-1.938,1.388C150.794,69.143,150.05,69.605,150.05,69.605z"/>
		<path fill="#F89748" d="M166.271,46.241c2.637-0.782,4.672,1.431,4.672,1.431c-0.033-4.261-2.009-4.845-2.009-4.845
			C168.142,42.474,167.221,43.952,166.271,46.241z"/>
		<path fill="#FAB17E" d="M150.472,71.259c0,0-1.443,2.448-2.106,2.922c-0.661,0.475-1.623,1.394-1.96,1.17
			c-0.336-0.221,1.275-2.522,1.254-2.974c-0.022-0.451-0.066-0.806-0.066-0.806s-1.021,0.644-1.59,0.284
			c0,0,0.442-0.237,0.795-0.474c0.354-0.238,0.648-1.044,1.439-1.116c0.791-0.071,1.813-0.661,1.813-0.661L150.472,71.259z"/>
	</g>
	<g>
		<path fill="#F9DDBF" d="M84.508,32.926c0,0-5.147,9.369-9.865,9.5c-4.719,0.13-11.897-4.342-11.897-4.342
			s-4.333-12.486-1.394-17.372c0,0,2.947-1.671,6.028,1.281c0.528,0.51,1.066,1.151,1.595,1.976
			c0.748,1.162,1.587,1.824,2.477,2.171c3.366,1.325,7.363-1.792,8.857,1.216c0.873,1.748,1.822,3.061,2.603,3.984
			C83.836,32.405,84.508,32.926,84.508,32.926z"/>
		<path fill="#F9DDBF" d="M10.682,169.924c0,0-12.636-119.131,57.664-127.498c0,0,54.551,13.959,40.946,127.498H10.682z"/>
		<path fill="#F89748" d="M59.375,44.167c0,0,13.125,3.774,17.174,1.557c0,0,0.612-7.097-4.916-6.102
			c-3.783,0.681-6.247-1.67-7.696-2.624C61.887,35.647,58.831,41.198,59.375,44.167z"/>
		<path fill="#E5C1A1" d="M70.798,33.469c-0.84,0.813-3.417-11.476-3.417-11.476c0.528,0.51,1.066,1.151,1.595,1.976
			c0.748,1.162,1.587,1.824,2.477,2.171C71.461,26.499,71.612,32.676,70.798,33.469z"/>
		<path fill="#E5C1A1" d="M82.913,31.341c-0.185,0.141-6.255,4.842-7.078,4.842c-0.839,0,4.475-8.826,4.475-8.826
			C81.183,29.104,82.132,30.418,82.913,31.341z"/>
	</g>
	<path fill="#E5C1A1" d="M47.592,57.013c0,0,18.355,40.333,38.446,34.368c20.091-5.964,8.838,24.862,8.838,24.862
		s-44.788-0.28-44.986-1.14C49.692,114.244,47.592,57.013,47.592,57.013z"/>
	<g>
		<path fill="#B2CBEA" d="M148.666,165.909v3.098c0,0.246-0.07,0.476-0.189,0.666c-0.127,0.2-0.309,0.357-0.521,0.446
			c-0.066,0.028-0.134,0.049-0.203,0.062c-0.064,0.013-0.129,0.02-0.196,0.02h-45.909c-0.591,0-1.08-0.504-1.109-1.133
			c0-0.021-0.001-0.041-0.001-0.061v-3.098c0-0.02,0-0.041,0.001-0.062c0.03-0.628,0.518-1.132,1.109-1.132h45.909
			c0.067,0,0.132,0.006,0.196,0.02c0.069,0.012,0.137,0.034,0.203,0.061c0.213,0.089,0.395,0.247,0.521,0.446
			C148.596,165.434,148.666,165.662,148.666,165.909z"/>
		<path fill="#9AB8E1" d="M123.102,164.716h-21.575c-0.528,0-0.964,0.504-0.99,1.132c0,0.021-0.001,0.042-0.001,0.062v3.098
			c0,0.02,0,0.04,0.001,0.061c0.026,0.629,0.462,1.133,0.99,1.133h15.876l0,0h0.522l0,0h3.878l0,0h0.522l0,0h3.797
			C124.25,168.563,123.446,166.331,123.102,164.716z"/>
		<rect x="142.559" y="164.716" fill="#9AB8E1" width="0.522" height="5.484"/>
		<rect x="140.792" y="164.716" fill="#9AB8E1" width="0.521" height="5.484"/>
		<rect x="138.674" y="164.716" fill="#9AB8E1" width="0.521" height="5.484"/>
		<rect x="135.428" y="164.716" fill="#9AB8E1" width="0.521" height="5.484"/>
		<rect x="131.994" y="164.716" fill="#9AB8E1" width="0.521" height="5.484"/>
		<rect x="126.731" y="164.716" fill="#9AB8E1" width="0.521" height="5.484"/>
		<rect x="144.239" y="164.716" fill="#9AB8E1" width="0.522" height="5.484"/>
		<rect x="145.35" y="164.716" fill="#9AB8E1" width="0.521" height="5.484"/>
		<rect x="146.423" y="164.716" fill="#9AB8E1" width="0.522" height="5.484"/>
		<path fill="#9AB8E1" d="M147.229,164.716v5.484h0.326c0.067,0,0.132-0.007,0.196-0.02v-5.445c-0.064-0.014-0.129-0.02-0.196-0.02
			H147.229z"/>
		<path fill="#9AB8E1" d="M147.955,164.796v5.323c0.213-0.089,0.395-0.246,0.521-0.446v-4.431
			C148.35,165.042,148.168,164.885,147.955,164.796z"/>
		<path fill="#B2CBEA" d="M146.574,160.426v3.097c0,0.246-0.069,0.475-0.189,0.666c-0.127,0.2-0.309,0.358-0.521,0.446
			c-0.065,0.028-0.133,0.048-0.203,0.062c-0.063,0.013-0.129,0.02-0.196,0.02H99.556c-0.592,0-1.08-0.505-1.11-1.133
			c0-0.021,0-0.04,0-0.061v-3.097c0-0.021,0-0.042,0-0.063c0.03-0.628,0.519-1.131,1.11-1.131h45.908
			c0.067,0,0.133,0.006,0.196,0.018c0.07,0.015,0.138,0.034,0.203,0.063c0.213,0.087,0.395,0.245,0.521,0.446
			C146.505,159.949,146.574,160.179,146.574,160.426z"/>
		<path fill="#9AB8E1" d="M121.011,159.232H99.436c-0.528,0-0.964,0.503-0.991,1.131c0,0.021,0,0.042,0,0.063v3.097
			c0,0.021,0,0.04,0,0.061c0.027,0.628,0.463,1.133,0.991,1.133h15.876l0,0h0.522l0,0h3.878l0,0h0.521l0,0h3.797
			C122.159,163.079,121.355,160.846,121.011,159.232z"/>
		<rect x="140.467" y="159.232" fill="#9AB8E1" width="0.521" height="5.483"/>
		<rect x="138.7" y="159.232" fill="#9AB8E1" width="0.521" height="5.483"/>
		<rect x="136.583" y="159.232" fill="#9AB8E1" width="0.521" height="5.483"/>
		<rect x="133.337" y="159.232" fill="#9AB8E1" width="0.521" height="5.483"/>
		<rect x="129.903" y="159.232" fill="#9AB8E1" width="0.521" height="5.483"/>
		<rect x="124.64" y="159.232" fill="#9AB8E1" width="0.522" height="5.483"/>
		<rect x="142.147" y="159.232" fill="#9AB8E1" width="0.521" height="5.483"/>
		<rect x="143.259" y="159.232" fill="#9AB8E1" width="0.521" height="5.483"/>
		<rect x="144.331" y="159.232" fill="#9AB8E1" width="0.521" height="5.483"/>
		<path fill="#9AB8E1" d="M145.138,159.232v5.483h0.326c0.067,0,0.133-0.007,0.196-0.02v-5.446
			c-0.063-0.012-0.129-0.018-0.196-0.018H145.138z"/>
		<path fill="#9AB8E1" d="M145.863,159.313v5.322c0.213-0.088,0.395-0.246,0.521-0.446v-4.43
			C146.258,159.558,146.076,159.399,145.863,159.313z"/>
		<path fill="#B2CBEA" d="M148.967,154.915v3.098c0,0.246-0.07,0.475-0.191,0.666c-0.126,0.199-0.309,0.357-0.521,0.447
			c-0.064,0.026-0.133,0.048-0.203,0.061c-0.063,0.013-0.128,0.02-0.195,0.02h-45.908c-0.592,0-1.08-0.505-1.11-1.133
			c-0.001-0.021-0.001-0.041-0.001-0.061v-3.098c0-0.02,0-0.041,0.001-0.062c0.03-0.628,0.518-1.132,1.11-1.132h45.908
			c0.067,0,0.133,0.007,0.195,0.019c0.07,0.014,0.139,0.034,0.203,0.062c0.213,0.088,0.396,0.246,0.521,0.447
			C148.896,154.438,148.967,154.668,148.967,154.915z"/>
		<path fill="#9AB8E1" d="M123.402,153.722h-21.575c-0.528,0-0.963,0.504-0.991,1.132c-0.001,0.021-0.001,0.042-0.001,0.062v3.098
			c0,0.02,0,0.04,0.001,0.061c0.027,0.628,0.462,1.133,0.991,1.133h15.876l0,0h0.521l0,0h3.879l0,0h0.521l0,0h3.797
			C124.55,157.568,123.747,155.337,123.402,153.722z"/>
		<rect x="142.858" y="153.722" fill="#9AB8E1" width="0.521" height="5.484"/>
		<rect x="141.092" y="153.722" fill="#9AB8E1" width="0.522" height="5.484"/>
		<rect x="138.975" y="153.722" fill="#9AB8E1" width="0.521" height="5.484"/>
		<rect x="135.728" y="153.722" fill="#9AB8E1" width="0.521" height="5.484"/>
		<rect x="132.295" y="153.722" fill="#9AB8E1" width="0.521" height="5.484"/>
		<rect x="127.031" y="153.722" fill="#9AB8E1" width="0.522" height="5.484"/>
		<rect x="144.539" y="153.722" fill="#9AB8E1" width="0.521" height="5.484"/>
		<rect x="145.65" y="153.722" fill="#9AB8E1" width="0.521" height="5.484"/>
		<rect x="146.722" y="153.722" fill="#9AB8E1" width="0.522" height="5.484"/>
		<path fill="#9AB8E1" d="M147.529,153.722v5.484h0.326c0.067,0,0.133-0.007,0.196-0.02v-5.446
			c-0.063-0.012-0.129-0.019-0.196-0.019H147.529z"/>
		<path fill="#9AB8E1" d="M148.254,153.802v5.324c0.213-0.09,0.396-0.248,0.521-0.447v-4.43
			C148.649,154.048,148.467,153.89,148.254,153.802z"/>
		<path fill="#B2CBEA" d="M146.574,149.431v3.098c0,0.246-0.069,0.476-0.189,0.666c-0.127,0.2-0.309,0.357-0.521,0.447
			c-0.065,0.027-0.133,0.048-0.203,0.062c-0.063,0.012-0.129,0.019-0.196,0.019H99.556c-0.592,0-1.08-0.504-1.11-1.133
			c0-0.021,0-0.041,0-0.061v-3.098c0-0.021,0-0.04,0-0.062c0.03-0.627,0.519-1.132,1.11-1.132h45.908
			c0.067,0,0.133,0.007,0.196,0.02c0.07,0.013,0.138,0.033,0.203,0.061c0.213,0.09,0.395,0.246,0.521,0.447
			C146.505,148.955,146.574,149.185,146.574,149.431z"/>
		<path fill="#9AB8E1" d="M121.011,148.237H99.436c-0.528,0-0.964,0.505-0.991,1.132c0,0.021,0,0.041,0,0.062v3.098
			c0,0.02,0,0.04,0,0.061c0.027,0.629,0.463,1.133,0.991,1.133h15.876l0,0h0.522l0,0h3.878l0,0h0.521l0,0h3.797
			C122.159,152.085,121.355,149.852,121.011,148.237z"/>
		<rect x="140.467" y="148.237" fill="#9AB8E1" width="0.521" height="5.484"/>
		<rect x="138.7" y="148.237" fill="#9AB8E1" width="0.521" height="5.484"/>
		<rect x="136.583" y="148.237" fill="#9AB8E1" width="0.521" height="5.484"/>
		<rect x="133.337" y="148.237" fill="#9AB8E1" width="0.521" height="5.484"/>
		<rect x="129.903" y="148.237" fill="#9AB8E1" width="0.521" height="5.484"/>
		<rect x="124.64" y="148.237" fill="#9AB8E1" width="0.522" height="5.484"/>
		<rect x="142.147" y="148.237" fill="#9AB8E1" width="0.521" height="5.484"/>
		<rect x="143.259" y="148.237" fill="#9AB8E1" width="0.521" height="5.484"/>
		<rect x="144.331" y="148.237" fill="#9AB8E1" width="0.521" height="5.484"/>
		<path fill="#9AB8E1" d="M145.138,148.237v5.484h0.326c0.067,0,0.133-0.007,0.196-0.019v-5.446c-0.063-0.013-0.129-0.02-0.196-0.02
			H145.138z"/>
		<path fill="#9AB8E1" d="M145.863,148.317v5.324c0.213-0.09,0.395-0.247,0.521-0.447v-4.43
			C146.258,148.563,146.076,148.407,145.863,148.317z"/>
		<path fill="#B2CBEA" d="M146.574,143.92v3.098c0,0.247-0.069,0.477-0.189,0.666c-0.127,0.201-0.309,0.359-0.521,0.447
			c-0.065,0.027-0.133,0.048-0.203,0.062c-0.063,0.012-0.129,0.019-0.196,0.019H99.556c-0.592,0-1.08-0.504-1.11-1.131
			c0-0.021,0-0.042,0-0.063v-3.098c0-0.02,0-0.04,0-0.06c0.03-0.629,0.519-1.134,1.11-1.134h45.908c0.067,0,0.133,0.007,0.196,0.02
			c0.07,0.014,0.138,0.034,0.203,0.062c0.213,0.089,0.395,0.247,0.521,0.446C146.505,143.445,146.574,143.674,146.574,143.92z"/>
		<path fill="#9AB8E1" d="M121.011,142.727H99.436c-0.528,0-0.964,0.505-0.991,1.134c0,0.02,0,0.04,0,0.06v3.098
			c0,0.021,0,0.041,0,0.063c0.027,0.627,0.463,1.131,0.991,1.131h15.876l0,0h0.522l0,0h3.878l0,0h0.521l0,0h3.797
			C122.159,146.574,121.355,144.342,121.011,142.727z"/>
		<rect x="140.467" y="142.727" fill="#9AB8E1" width="0.521" height="5.484"/>
		<rect x="138.7" y="142.727" fill="#9AB8E1" width="0.521" height="5.484"/>
		<rect x="136.583" y="142.727" fill="#9AB8E1" width="0.521" height="5.484"/>
		<rect x="133.337" y="142.727" fill="#9AB8E1" width="0.521" height="5.484"/>
		<rect x="129.903" y="142.727" fill="#9AB8E1" width="0.521" height="5.484"/>
		<rect x="124.64" y="142.727" fill="#9AB8E1" width="0.522" height="5.484"/>
		<rect x="142.147" y="142.727" fill="#9AB8E1" width="0.521" height="5.484"/>
		<rect x="143.259" y="142.727" fill="#9AB8E1" width="0.521" height="5.484"/>
		<rect x="144.331" y="142.727" fill="#9AB8E1" width="0.521" height="5.484"/>
		<path fill="#9AB8E1" d="M145.138,142.727v5.484h0.326c0.067,0,0.133-0.007,0.196-0.019v-5.446c-0.063-0.013-0.129-0.02-0.196-0.02
			H145.138z"/>
		<path fill="#9AB8E1" d="M145.863,142.808v5.323c0.213-0.088,0.395-0.246,0.521-0.447v-4.43
			C146.258,143.055,146.076,142.896,145.863,142.808z"/>
		<path fill="#B2CBEA" d="M143.78,138.41v3.097c0,0.248-0.07,0.477-0.189,0.666c-0.127,0.201-0.309,0.359-0.521,0.447
			c-0.066,0.027-0.134,0.048-0.203,0.062c-0.064,0.013-0.129,0.019-0.197,0.019H96.761c-0.591,0-1.08-0.503-1.109-1.131
			c0-0.021-0.001-0.041-0.001-0.063v-3.097c0-0.021,0-0.041,0.001-0.061c0.03-0.628,0.518-1.133,1.109-1.133h45.908
			c0.068,0,0.133,0.007,0.197,0.02c0.069,0.014,0.137,0.033,0.203,0.062c0.213,0.088,0.395,0.246,0.521,0.446
			C143.71,137.935,143.78,138.164,143.78,138.41z"/>
		<path fill="#9AB8E1" d="M118.216,137.217H96.642c-0.528,0-0.963,0.505-0.99,1.133c0,0.02-0.001,0.04-0.001,0.061v3.097
			c0,0.021,0,0.042,0.001,0.063c0.027,0.628,0.462,1.131,0.99,1.131h15.876l0,0h0.522l0,0h3.878l0,0h0.521l0,0h3.797
			C119.364,141.063,118.561,138.831,118.216,137.217z"/>
		<rect x="137.673" y="137.217" fill="#9AB8E1" width="0.521" height="5.483"/>
		<rect x="135.906" y="137.217" fill="#9AB8E1" width="0.521" height="5.483"/>
		<rect x="133.788" y="137.217" fill="#9AB8E1" width="0.521" height="5.483"/>
		<rect x="130.542" y="137.217" fill="#9AB8E1" width="0.521" height="5.483"/>
		<rect x="127.109" y="137.217" fill="#9AB8E1" width="0.521" height="5.483"/>
		<rect x="121.846" y="137.217" fill="#9AB8E1" width="0.521" height="5.483"/>
		<rect x="139.354" y="137.217" fill="#9AB8E1" width="0.522" height="5.483"/>
		<rect x="140.464" y="137.217" fill="#9AB8E1" width="0.521" height="5.483"/>
		<rect x="141.537" y="137.217" fill="#9AB8E1" width="0.521" height="5.483"/>
		<path fill="#9AB8E1" d="M142.344,137.217v5.483h0.325c0.068,0,0.133-0.006,0.197-0.019v-5.445c-0.064-0.013-0.129-0.02-0.197-0.02
			H142.344z"/>
		<path fill="#9AB8E1" d="M143.069,137.298v5.322c0.213-0.088,0.395-0.246,0.521-0.447v-4.429
			C143.464,137.544,143.282,137.386,143.069,137.298z"/>
		<path fill="#B2CBEA" d="M145.302,132.899v3.098c0,0.247-0.069,0.476-0.19,0.667c-0.127,0.2-0.309,0.358-0.521,0.446
			c-0.064,0.026-0.133,0.049-0.203,0.062c-0.063,0.013-0.129,0.019-0.195,0.019H98.283c-0.592,0-1.08-0.504-1.11-1.132
			c0-0.021-0.001-0.041-0.001-0.062v-3.098c0-0.02,0-0.04,0.001-0.061c0.03-0.628,0.518-1.133,1.11-1.133h45.909
			c0.066,0,0.132,0.007,0.195,0.02c0.07,0.014,0.139,0.033,0.203,0.062c0.213,0.089,0.395,0.246,0.521,0.446
			C145.232,132.425,145.302,132.653,145.302,132.899z"/>
		<path fill="#9AB8E1" d="M119.738,131.706H98.163c-0.528,0-0.963,0.505-0.99,1.133c0,0.021-0.001,0.041-0.001,0.061v3.098
			c0,0.021,0,0.041,0.001,0.062c0.027,0.628,0.462,1.132,0.99,1.132h15.876l0,0h0.521l0,0h3.878l0,0h0.521l0,0h3.797
			C120.886,135.554,120.083,133.321,119.738,131.706z"/>
		<rect x="139.194" y="131.707" fill="#9AB8E1" width="0.521" height="5.483"/>
		<rect x="137.427" y="131.707" fill="#9AB8E1" width="0.522" height="5.483"/>
		<rect x="135.31" y="131.707" fill="#9AB8E1" width="0.522" height="5.483"/>
		<rect x="132.063" y="131.707" fill="#9AB8E1" width="0.521" height="5.483"/>
		<rect x="128.63" y="131.707" fill="#9AB8E1" width="0.522" height="5.483"/>
		<rect x="123.367" y="131.707" fill="#9AB8E1" width="0.522" height="5.483"/>
		<rect x="140.875" y="131.707" fill="#9AB8E1" width="0.521" height="5.483"/>
		<rect x="141.986" y="131.707" fill="#9AB8E1" width="0.521" height="5.483"/>
		<rect x="143.059" y="131.707" fill="#9AB8E1" width="0.521" height="5.483"/>
		<path fill="#9AB8E1" d="M143.865,131.706v5.484h0.326c0.066,0,0.132-0.006,0.195-0.019v-5.446c-0.063-0.013-0.129-0.02-0.195-0.02
			H143.865z"/>
		<path fill="#9AB8E1" d="M144.59,131.787v5.323c0.213-0.088,0.395-0.246,0.521-0.446v-4.431
			C144.984,132.033,144.803,131.876,144.59,131.787z"/>
		<path fill="#B2CBEA" d="M148.666,127.416v3.097c0,0.247-0.07,0.476-0.189,0.667c-0.127,0.201-0.309,0.357-0.521,0.446
			c-0.066,0.028-0.134,0.049-0.203,0.062c-0.064,0.013-0.129,0.019-0.196,0.019h-45.909c-0.591,0-1.08-0.503-1.109-1.131
			c0-0.021-0.001-0.041-0.001-0.063v-3.097c0-0.021,0-0.041,0.001-0.061c0.03-0.629,0.518-1.134,1.109-1.134h45.909
			c0.067,0,0.132,0.007,0.196,0.02c0.069,0.014,0.137,0.033,0.203,0.062c0.213,0.089,0.395,0.247,0.521,0.446
			C148.596,126.94,148.666,127.169,148.666,127.416z"/>
		<path fill="#9AB8E1" d="M123.102,126.222h-21.575c-0.528,0-0.964,0.505-0.99,1.134c0,0.02-0.001,0.04-0.001,0.061v3.097
			c0,0.021,0,0.041,0.001,0.063c0.026,0.628,0.462,1.131,0.99,1.131h15.876v0.001h0.522v-0.001h3.878v0.001h0.522v-0.001h3.797
			C124.25,130.069,123.446,127.837,123.102,126.222z"/>
		<rect x="142.559" y="126.222" fill="#9AB8E1" width="0.522" height="5.485"/>
		<rect x="140.792" y="126.222" fill="#9AB8E1" width="0.521" height="5.485"/>
		<rect x="138.674" y="126.222" fill="#9AB8E1" width="0.521" height="5.485"/>
		<rect x="135.428" y="126.222" fill="#9AB8E1" width="0.521" height="5.485"/>
		<rect x="131.994" y="126.222" fill="#9AB8E1" width="0.521" height="5.485"/>
		<rect x="126.731" y="126.222" fill="#9AB8E1" width="0.521" height="5.485"/>
		<rect x="144.239" y="126.222" fill="#9AB8E1" width="0.522" height="5.485"/>
		<rect x="145.35" y="126.222" fill="#9AB8E1" width="0.521" height="5.485"/>
		<rect x="146.423" y="126.222" fill="#9AB8E1" width="0.522" height="5.485"/>
		<path fill="#9AB8E1" d="M147.229,126.222v5.484h0.326c0.067,0,0.132-0.006,0.196-0.019v-5.446c-0.064-0.013-0.129-0.02-0.196-0.02
			H147.229z"/>
		<path fill="#9AB8E1" d="M147.955,126.303v5.323c0.213-0.089,0.395-0.245,0.521-0.446v-4.431
			C148.35,126.55,148.168,126.392,147.955,126.303z"/>
		<path fill="#B2CBEA" d="M146.574,121.933v3.096c0,0.247-0.069,0.477-0.189,0.667c-0.127,0.2-0.309,0.357-0.521,0.447
			c-0.065,0.027-0.133,0.048-0.203,0.061c-0.063,0.014-0.129,0.019-0.196,0.019H99.556c-0.592,0-1.08-0.503-1.11-1.132
			c0-0.02,0-0.04,0-0.062v-3.096c0-0.021,0-0.042,0-0.063c0.03-0.628,0.519-1.131,1.11-1.131h45.908
			c0.067,0,0.133,0.005,0.196,0.019c0.07,0.013,0.138,0.034,0.203,0.061c0.213,0.089,0.395,0.247,0.521,0.447
			C146.505,121.456,146.574,121.686,146.574,121.933z"/>
		<path fill="#9AB8E1" d="M121.011,120.739H99.436c-0.528,0-0.964,0.503-0.991,1.131c0,0.021,0,0.041,0,0.063v3.096
			c0,0.021,0,0.042,0,0.062c0.027,0.629,0.463,1.132,0.991,1.132h15.876l0,0h0.522l0,0h3.878l0,0h0.521l0,0h3.797
			C122.159,124.585,121.355,122.353,121.011,120.739z"/>
		<rect x="140.467" y="120.739" fill="#9AB8E1" width="0.521" height="5.482"/>
		<rect x="138.7" y="120.739" fill="#9AB8E1" width="0.521" height="5.482"/>
		<rect x="136.583" y="120.739" fill="#9AB8E1" width="0.521" height="5.482"/>
		<rect x="133.337" y="120.739" fill="#9AB8E1" width="0.521" height="5.482"/>
		<rect x="129.903" y="120.739" fill="#9AB8E1" width="0.521" height="5.482"/>
		<rect x="124.64" y="120.739" fill="#9AB8E1" width="0.522" height="5.482"/>
		<rect x="142.147" y="120.739" fill="#9AB8E1" width="0.521" height="5.482"/>
		<rect x="143.259" y="120.739" fill="#9AB8E1" width="0.521" height="5.482"/>
		<rect x="144.331" y="120.739" fill="#9AB8E1" width="0.521" height="5.482"/>
		<path fill="#9AB8E1" d="M145.138,120.739v5.482h0.326c0.067,0,0.133-0.005,0.196-0.019v-5.445
			c-0.063-0.014-0.129-0.019-0.196-0.019H145.138z"/>
		<path fill="#9AB8E1" d="M145.863,120.818v5.324c0.213-0.09,0.395-0.247,0.521-0.447v-4.43
			C146.258,121.065,146.076,120.907,145.863,120.818z"/>
		<path fill="#B2CBEA" d="M148.967,116.422v3.098c0,0.246-0.07,0.475-0.191,0.666c-0.126,0.2-0.309,0.357-0.521,0.446
			c-0.064,0.028-0.133,0.049-0.203,0.062c-0.063,0.012-0.128,0.02-0.195,0.02h-45.908c-0.592,0-1.08-0.505-1.11-1.133
			c-0.001-0.021-0.001-0.04-0.001-0.061v-3.098c0-0.021,0-0.041,0.001-0.062c0.03-0.628,0.518-1.132,1.11-1.132h45.908
			c0.067,0,0.133,0.007,0.195,0.02c0.07,0.014,0.139,0.033,0.203,0.061c0.213,0.088,0.396,0.246,0.521,0.447
			C148.896,115.946,148.967,116.175,148.967,116.422z"/>
		<path fill="#9AB8E1" d="M123.402,115.229h-21.575c-0.528,0-0.963,0.504-0.991,1.132c-0.001,0.021-0.001,0.041-0.001,0.062v3.098
			c0,0.021,0,0.04,0.001,0.061c0.027,0.628,0.462,1.133,0.991,1.133h15.876l0,0h0.521l0,0h3.879l0,0h0.521l0,0h3.797
			C124.55,119.076,123.747,116.843,123.402,115.229z"/>
		<rect x="142.858" y="115.229" fill="#9AB8E1" width="0.521" height="5.484"/>
		<rect x="141.092" y="115.229" fill="#9AB8E1" width="0.522" height="5.484"/>
		<rect x="138.975" y="115.229" fill="#9AB8E1" width="0.521" height="5.484"/>
		<rect x="135.728" y="115.229" fill="#9AB8E1" width="0.521" height="5.484"/>
		<rect x="132.295" y="115.229" fill="#9AB8E1" width="0.521" height="5.484"/>
		<rect x="127.031" y="115.229" fill="#9AB8E1" width="0.522" height="5.484"/>
		<rect x="144.539" y="115.229" fill="#9AB8E1" width="0.521" height="5.484"/>
		<rect x="145.65" y="115.229" fill="#9AB8E1" width="0.521" height="5.484"/>
		<rect x="146.722" y="115.229" fill="#9AB8E1" width="0.522" height="5.484"/>
		<path fill="#9AB8E1" d="M147.529,115.229v5.484h0.326c0.067,0,0.133-0.008,0.196-0.021v-5.444c-0.063-0.014-0.129-0.02-0.196-0.02
			H147.529z"/>
		<path fill="#9AB8E1" d="M148.254,115.309v5.323c0.213-0.089,0.396-0.246,0.521-0.446v-4.43
			C148.649,115.555,148.467,115.396,148.254,115.309z"/>
		<path fill="#B2CBEA" d="M146.574,110.938v3.098c0,0.246-0.069,0.476-0.189,0.666c-0.127,0.201-0.309,0.357-0.521,0.447
			c-0.065,0.026-0.133,0.048-0.203,0.061c-0.063,0.013-0.129,0.02-0.196,0.02H99.556c-0.592,0-1.08-0.504-1.11-1.132
			c0-0.021,0-0.041,0-0.062v-3.098c0-0.02,0-0.041,0-0.061c0.03-0.628,0.519-1.133,1.11-1.133h45.908
			c0.067,0,0.133,0.006,0.196,0.02c0.07,0.014,0.138,0.033,0.203,0.061c0.213,0.09,0.395,0.246,0.521,0.447
			C146.505,110.461,146.574,110.691,146.574,110.938z"/>
		<path fill="#9AB8E1" d="M121.011,109.744H99.436c-0.528,0-0.964,0.505-0.991,1.133c0,0.02,0,0.041,0,0.061v3.098
			c0,0.021,0,0.041,0,0.062c0.027,0.628,0.463,1.132,0.991,1.132h15.876l0,0h0.522l0,0h3.878l0,0h0.521l0,0h3.797
			C122.159,113.592,121.355,111.359,121.011,109.744z"/>
		<rect x="140.467" y="109.744" fill="#9AB8E1" width="0.521" height="5.484"/>
		<rect x="138.7" y="109.744" fill="#9AB8E1" width="0.521" height="5.484"/>
		<rect x="136.583" y="109.744" fill="#9AB8E1" width="0.521" height="5.484"/>
		<rect x="133.337" y="109.744" fill="#9AB8E1" width="0.521" height="5.484"/>
		<rect x="129.903" y="109.744" fill="#9AB8E1" width="0.521" height="5.484"/>
		<rect x="124.64" y="109.744" fill="#9AB8E1" width="0.522" height="5.484"/>
		<rect x="142.147" y="109.744" fill="#9AB8E1" width="0.521" height="5.484"/>
		<rect x="143.259" y="109.744" fill="#9AB8E1" width="0.521" height="5.484"/>
		<rect x="144.331" y="109.744" fill="#9AB8E1" width="0.521" height="5.484"/>
		<path fill="#9AB8E1" d="M145.138,109.744v5.484h0.326c0.067,0,0.133-0.007,0.196-0.02v-5.445c-0.063-0.014-0.129-0.02-0.196-0.02
			H145.138z"/>
		<path fill="#9AB8E1" d="M145.863,109.824v5.324c0.213-0.09,0.395-0.246,0.521-0.447v-4.43
			C146.258,110.07,146.076,109.914,145.863,109.824z"/>
		<path fill="#B2CBEA" d="M146.574,105.428v3.097c0,0.247-0.069,0.476-0.189,0.666c-0.127,0.202-0.309,0.359-0.521,0.447
			c-0.065,0.028-0.133,0.048-0.203,0.062c-0.063,0.012-0.129,0.019-0.196,0.019H99.556c-0.592,0-1.08-0.504-1.11-1.132
			c0-0.021,0-0.041,0-0.062v-3.097c0-0.021,0-0.041,0-0.062c0.03-0.628,0.519-1.132,1.11-1.132h45.908
			c0.067,0,0.133,0.006,0.196,0.019c0.07,0.014,0.138,0.034,0.203,0.062c0.213,0.088,0.395,0.246,0.521,0.447
			C146.505,104.953,146.574,105.181,146.574,105.428z"/>
		<path fill="#9AB8E1" d="M121.011,104.234H99.436c-0.528,0-0.964,0.504-0.991,1.132c0,0.021,0,0.041,0,0.062v3.097
			c0,0.021,0,0.04,0,0.062c0.027,0.628,0.463,1.132,0.991,1.132h15.876v0.001h0.522v-0.001h3.878v0.001h0.521v-0.001h3.797
			C122.159,108.082,121.355,105.849,121.011,104.234z"/>
		<rect x="140.467" y="104.234" fill="#9AB8E1" width="0.521" height="5.484"/>
		<rect x="138.7" y="104.234" fill="#9AB8E1" width="0.521" height="5.484"/>
		<rect x="136.583" y="104.234" fill="#9AB8E1" width="0.521" height="5.484"/>
		<rect x="133.337" y="104.234" fill="#9AB8E1" width="0.521" height="5.484"/>
		<rect x="129.903" y="104.234" fill="#9AB8E1" width="0.521" height="5.484"/>
		<rect x="124.64" y="104.234" fill="#9AB8E1" width="0.522" height="5.484"/>
		<rect x="142.147" y="104.234" fill="#9AB8E1" width="0.521" height="5.484"/>
		<rect x="143.259" y="104.234" fill="#9AB8E1" width="0.521" height="5.484"/>
		<rect x="144.331" y="104.234" fill="#9AB8E1" width="0.521" height="5.484"/>
		<path fill="#9AB8E1" d="M145.138,104.234v5.483h0.326c0.067,0,0.133-0.007,0.196-0.019v-5.446
			c-0.063-0.013-0.129-0.019-0.196-0.019H145.138z"/>
		<path fill="#9AB8E1" d="M145.863,104.314v5.323c0.213-0.088,0.395-0.245,0.521-0.447v-4.429
			C146.258,104.561,146.076,104.402,145.863,104.314z"/>
		<path fill="#B2CBEA" d="M143.78,99.918v3.096c0,0.248-0.07,0.477-0.189,0.666c-0.127,0.201-0.309,0.359-0.521,0.447
			c-0.066,0.028-0.134,0.049-0.203,0.063c-0.064,0.012-0.129,0.019-0.197,0.019H96.761c-0.591,0-1.08-0.505-1.109-1.132
			c0-0.021-0.001-0.041-0.001-0.063v-3.096c0-0.021,0-0.041,0.001-0.063c0.03-0.627,0.518-1.133,1.109-1.133h45.908
			c0.068,0,0.133,0.008,0.197,0.02c0.069,0.014,0.137,0.034,0.203,0.063c0.213,0.088,0.395,0.246,0.521,0.446
			C143.71,99.441,143.78,99.671,143.78,99.918z"/>
		<path fill="#9AB8E1" d="M118.216,98.723H96.642c-0.528,0-0.963,0.506-0.99,1.133c0,0.021-0.001,0.041-0.001,0.063v3.096
			c0,0.021,0,0.041,0.001,0.063c0.027,0.627,0.462,1.132,0.99,1.132h15.876l0,0h0.522l0,0h3.878l0,0h0.521l0,0h3.797
			C119.364,102.571,118.561,100.338,118.216,98.723z"/>
		<rect x="137.673" y="98.725" fill="#9AB8E1" width="0.521" height="5.483"/>
		<rect x="135.906" y="98.725" fill="#9AB8E1" width="0.521" height="5.483"/>
		<rect x="133.788" y="98.725" fill="#9AB8E1" width="0.521" height="5.483"/>
		<rect x="130.542" y="98.725" fill="#9AB8E1" width="0.521" height="5.483"/>
		<rect x="127.109" y="98.725" fill="#9AB8E1" width="0.521" height="5.483"/>
		<rect x="121.846" y="98.725" fill="#9AB8E1" width="0.521" height="5.483"/>
		<rect x="139.354" y="98.725" fill="#9AB8E1" width="0.522" height="5.483"/>
		<rect x="140.464" y="98.725" fill="#9AB8E1" width="0.521" height="5.483"/>
		<rect x="141.537" y="98.725" fill="#9AB8E1" width="0.521" height="5.483"/>
		<path fill="#9AB8E1" d="M142.344,98.723v5.485h0.325c0.068,0,0.133-0.007,0.197-0.019v-5.447c-0.064-0.012-0.129-0.02-0.197-0.02
			H142.344z"/>
		<path fill="#9AB8E1" d="M143.069,98.805v5.322c0.213-0.088,0.395-0.246,0.521-0.447v-4.429
			C143.464,99.051,143.282,98.893,143.069,98.805z"/>
		<path fill="#B2CBEA" d="M145.302,94.406v3.098c0,0.247-0.069,0.477-0.19,0.667c-0.127,0.2-0.309,0.358-0.521,0.446
			c-0.064,0.027-0.133,0.048-0.203,0.062c-0.063,0.013-0.129,0.019-0.195,0.019H98.283c-0.592,0-1.08-0.504-1.11-1.133
			c0-0.02-0.001-0.04-0.001-0.061v-3.098c0-0.02,0-0.039,0.001-0.061c0.03-0.629,0.518-1.132,1.11-1.132h45.909
			c0.066,0,0.132,0.007,0.195,0.019c0.07,0.014,0.139,0.034,0.203,0.062c0.213,0.089,0.395,0.245,0.521,0.446
			C145.232,93.932,145.302,94.16,145.302,94.406z"/>
		<path fill="#9AB8E1" d="M119.738,93.214H98.163c-0.528,0-0.963,0.503-0.99,1.132c0,0.021-0.001,0.041-0.001,0.061v3.098
			c0,0.021,0,0.041,0.001,0.061c0.027,0.629,0.462,1.133,0.99,1.133h15.876l0,0h0.521l0,0h3.878l0,0h0.521l0,0h3.797
			C120.886,97.061,120.083,94.828,119.738,93.214z"/>
		<rect x="139.194" y="93.214" fill="#9AB8E1" width="0.521" height="5.483"/>
		<rect x="137.427" y="93.214" fill="#9AB8E1" width="0.522" height="5.483"/>
		<rect x="135.31" y="93.214" fill="#9AB8E1" width="0.522" height="5.483"/>
		<rect x="132.063" y="93.214" fill="#9AB8E1" width="0.521" height="5.483"/>
		<rect x="128.63" y="93.214" fill="#9AB8E1" width="0.522" height="5.483"/>
		<rect x="123.367" y="93.214" fill="#9AB8E1" width="0.522" height="5.483"/>
		<rect x="140.875" y="93.214" fill="#9AB8E1" width="0.521" height="5.483"/>
		<rect x="141.986" y="93.214" fill="#9AB8E1" width="0.521" height="5.483"/>
		<rect x="143.059" y="93.214" fill="#9AB8E1" width="0.521" height="5.483"/>
		<path fill="#9AB8E1" d="M143.865,93.214v5.483h0.326c0.066,0,0.132-0.006,0.195-0.019v-5.446
			c-0.063-0.012-0.129-0.019-0.195-0.019H143.865z"/>
		<path fill="#9AB8E1" d="M144.59,93.294v5.323c0.213-0.088,0.395-0.246,0.521-0.446V93.74
			C144.984,93.539,144.803,93.382,144.59,93.294z"/>
	</g>
	<g>
		<polygon fill="#A8D29F" points="225.669,154.717 180.827,170.24 161.568,106.004 161.568,106.002 153.452,78.936 198.293,63.413 
			213.446,113.949 		"/>
		<path fill="#9DC993" d="M225.669,154.717l-44.842,15.523l-19.259-64.236c0,0,23.183,16.102,51.878,7.945L225.669,154.717z"/>
		<g>
			<path fill="#82B379" d="M219.091,151.232l-34.813,12.052l-24.606-82.066l34.813-12.052L219.091,151.232z M188.207,160.665
				l26.254-9.089c1.781-0.617,2.761-2.669,2.188-4.584l-21.824-72.789c-0.585-1.95-2.529-3.021-4.344-2.393l-26.149,9.052
				c-1.799,0.623-2.787,2.696-2.208,4.627l21.839,72.837C184.533,160.232,186.434,161.279,188.207,160.665z"/>
		</g>
		<path fill="#82B379" d="M180.015,119.468c-1.667-5.559,1.176-11.517,6.348-13.308c5.173-1.791,10.718,1.265,12.385,6.822
			s-1.177,11.517-6.35,13.307C187.225,128.08,181.682,125.026,180.015,119.468z"/>
	</g>
	<g>
		<g>
			<path fill="#ED7E2A" d="M82.969,77.189c-14.998,0-27.255,12.85-27.736,28.842c-0.001,0.025-0.001,0.053-0.002,0.08
				c0.363-0.055,0.733-0.08,1.113-0.08h2.986c0.481-13.568,10.901-24.441,23.64-24.441c12.742,0,23.16,10.873,23.642,24.441h4.095
				C110.224,90.039,97.967,77.189,82.969,77.189z"/>
		</g>
		<path fill="#ED7E2A" d="M104.406,169.829H48.525c-3.346,0-5.989-3.047-5.756-6.633l0.739-11.328l0.347-5.323l2.266-34.75
			c0.212-3.247,2.725-5.764,5.755-5.764h48.673c3.005,0,5.508,2.479,5.75,5.7l3.856,51.401
			C110.428,166.74,107.775,169.829,104.406,169.829z"/>
		<path fill="#F89748" d="M116.539,169.829H60.657c-3.345,0-5.988-3.047-5.754-6.633l3.352-51.401
			c0.211-3.246,2.725-5.765,5.755-5.765h48.672c3.006,0,5.508,2.48,5.75,5.7l3.857,51.401
			C122.56,166.74,119.908,169.829,116.539,169.829z"/>
		<g>
			<path fill="#DB6B27" d="M97.455,143.348c0,4.904-3.7,8.882-8.265,8.882c-0.438,0-0.869-0.037-1.289-0.107
				c-3.953-0.666-6.977-4.34-6.977-8.774c0-3.878,2.314-7.176,5.54-8.386v-15.663c0-0.994,0.604-1.845,1.437-2.148
				c0.212-0.078,0.438-0.12,0.673-0.12h1.231c1.16,0,2.109,1.021,2.109,2.269v15.663C95.14,136.172,97.455,139.47,97.455,143.348z"
				/>
			<path fill="#EA863B" d="M94.876,143.348c0,4.435-3.024,8.108-6.976,8.774c-3.953-0.666-6.977-4.34-6.977-8.774
				c0-3.878,2.314-7.176,5.54-8.386v-15.663c0-0.994,0.604-1.845,1.437-2.148c0.833,0.304,1.436,1.154,1.436,2.148v15.663
				C92.562,136.172,94.876,139.47,94.876,143.348z"/>
		</g>
	</g>
	<g>
		<g>
			<g>
				<path fill="#FDB83F" d="M209.684,166.432v2.72c0,0.218-0.073,0.418-0.2,0.585c-0.133,0.177-0.321,0.315-0.545,0.393
					c-0.067,0.024-0.139,0.043-0.212,0.054c-0.067,0.012-0.135,0.018-0.206,0.018h-48.017c-0.619,0-1.13-0.443-1.16-0.995
					c-0.001-0.018-0.002-0.035-0.002-0.054v-2.72c0-0.019,0.001-0.036,0.002-0.054c0.03-0.552,0.541-0.995,1.16-0.995h48.017
					c0.071,0,0.139,0.006,0.206,0.017c0.073,0.012,0.145,0.03,0.212,0.054c0.224,0.078,0.412,0.217,0.545,0.393
					C209.61,166.014,209.684,166.215,209.684,166.432z"/>
				<path fill="#FAA31A" d="M186.104,170.2h-25.725c-0.552,0-1.008-0.443-1.035-0.995c-0.001-0.018-0.002-0.035-0.002-0.054v-2.72
					c0-0.019,0.001-0.036,0.002-0.054c0.027-0.552,0.483-0.995,1.035-0.995h22.566C183.306,166.8,184.146,168.763,186.104,170.2z"/>
				<g>
					<rect x="203.295" y="165.383" fill="#FAA31A" width="0.546" height="4.817"/>
					<rect x="201.447" y="165.383" fill="#FAA31A" width="0.546" height="4.817"/>
					<rect x="199.231" y="165.383" fill="#FAA31A" width="0.547" height="4.817"/>
					<rect x="195.837" y="165.383" fill="#FAA31A" width="0.546" height="4.817"/>
					<rect x="192.245" y="165.383" fill="#FAA31A" width="0.547" height="4.817"/>
					<rect x="186.74" y="165.383" fill="#FAA31A" width="0.547" height="4.817"/>
					<rect x="181.586" y="165.383" fill="#FAA31A" width="0.546" height="4.817"/>
					<rect x="176.984" y="165.383" fill="#FAA31A" width="0.545" height="4.817"/>
					<rect x="205.053" y="165.383" fill="#FAA31A" width="0.546" height="4.817"/>
					<rect x="206.214" y="165.383" fill="#FAA31A" width="0.547" height="4.817"/>
					<rect x="207.336" y="165.383" fill="#FAA31A" width="0.546" height="4.817"/>
					<path fill="#FAA31A" d="M208.727,165.399v4.783c-0.067,0.012-0.135,0.018-0.206,0.018h-0.34v-4.817h0.34
						C208.592,165.383,208.659,165.389,208.727,165.399z"/>
					<path fill="#FAA31A" d="M209.483,165.846v3.891c-0.133,0.177-0.321,0.315-0.545,0.393v-4.676
						C209.162,165.531,209.351,165.67,209.483,165.846z"/>
				</g>
			</g>
			<g>
				<path fill="#FDB83F" d="M204.549,161.614v2.72c0,0.218-0.072,0.418-0.198,0.586c-0.133,0.177-0.323,0.315-0.546,0.393
					c-0.067,0.024-0.14,0.042-0.213,0.054c-0.066,0.011-0.135,0.017-0.204,0.017h-48.019c-0.619,0-1.129-0.442-1.16-0.995
					c-0.001-0.017-0.002-0.035-0.002-0.054v-2.72c0-0.018,0.001-0.036,0.002-0.055c0.031-0.551,0.541-0.994,1.16-0.994h48.019
					c0.03,0,0.062,0.001,0.092,0.004c0.013,0.001,0.026,0.002,0.039,0.004c0.014,0.001,0.028,0.003,0.043,0.005
					c0.011,0.001,0.021,0.004,0.03,0.005c0.073,0.011,0.146,0.03,0.213,0.054c0.011,0.005,0.021,0.007,0.03,0.011
					s0.02,0.008,0.029,0.012c0.02,0.009,0.039,0.017,0.059,0.025c0.011,0.006,0.022,0.011,0.033,0.017s0.021,0.01,0.03,0.017
					c0.018,0.009,0.037,0.021,0.055,0.03c0.021,0.014,0.039,0.026,0.06,0.041c0.016,0.01,0.029,0.021,0.045,0.033
					c0,0.001,0.002,0.001,0.003,0.002c0.009,0.007,0.02,0.016,0.029,0.023c0.029,0.024,0.057,0.052,0.083,0.078
					c0.009,0.008,0.018,0.017,0.024,0.025c0.007,0.007,0.014,0.017,0.022,0.024c0.014,0.018,0.029,0.036,0.043,0.054
					C204.477,161.196,204.549,161.397,204.549,161.614z"/>
				<path fill="#FAA31A" d="M180.97,165.383h-25.726c-0.552,0-1.007-0.442-1.035-0.995c-0.001-0.017-0.002-0.035-0.002-0.054v-2.72
					c0-0.018,0.001-0.036,0.002-0.055c0.028-0.551,0.483-0.994,1.035-0.994h22.566c0.01,0.04,0.021,0.079,0.03,0.119
					C178.219,162.093,179.064,163.985,180.97,165.383z"/>
				<g>
					<rect x="198.16" y="160.565" fill="#FAA31A" width="0.546" height="4.817"/>
					<rect x="196.313" y="160.565" fill="#FAA31A" width="0.546" height="4.817"/>
					<rect x="194.099" y="160.565" fill="#FAA31A" width="0.545" height="4.817"/>
					<rect x="190.701" y="160.565" fill="#FAA31A" width="0.547" height="4.817"/>
					<rect x="187.111" y="160.565" fill="#FAA31A" width="0.547" height="4.817"/>
					<rect x="181.606" y="160.565" fill="#FAA31A" width="0.546" height="4.817"/>
					<rect x="176.453" y="160.565" fill="#FAA31A" width="0.545" height="4.817"/>
					<rect x="171.851" y="160.565" fill="#FAA31A" width="0.545" height="4.817"/>
					<rect x="199.919" y="160.565" fill="#FAA31A" width="0.546" height="4.817"/>
					<rect x="201.08" y="160.565" fill="#FAA31A" width="0.547" height="4.817"/>
					<rect x="202.203" y="160.565" fill="#FAA31A" width="0.545" height="4.817"/>
					<path fill="#FAA31A" d="M203.592,160.583v4.783c-0.066,0.011-0.135,0.017-0.205,0.017h-0.34v-4.817h0.34
						C203.457,160.565,203.525,160.571,203.592,160.583z"/>
					<path fill="#FAA31A" d="M204.35,161.029v3.891c-0.132,0.177-0.322,0.314-0.545,0.393v-4.676
						C204.027,160.715,204.218,160.853,204.35,161.029z"/>
				</g>
			</g>
			<g>
				<path fill="#FDB83F" d="M207.03,156.916v2.72c0,0.218-0.073,0.419-0.199,0.586c-0.132,0.177-0.322,0.315-0.546,0.393
					c-0.067,0.024-0.139,0.043-0.212,0.054c-0.067,0.011-0.135,0.017-0.204,0.017h-48.019c-0.193,0-0.376-0.042-0.535-0.119
					c-0.341-0.16-0.583-0.469-0.621-0.828c-0.002-0.016-0.004-0.031-0.004-0.047c0-0.018-0.001-0.035-0.001-0.055v-2.72
					c0-0.017,0.001-0.036,0.001-0.054c0.031-0.552,0.541-0.994,1.16-0.994h48.019c0.069,0,0.137,0.006,0.204,0.017
					c0.073,0.012,0.145,0.03,0.212,0.054c0.224,0.078,0.414,0.216,0.546,0.392C206.957,156.498,207.03,156.699,207.03,156.916z"/>
				<path fill="#FAA31A" d="M183.451,160.685h-25.725c-0.173,0-0.335-0.042-0.479-0.119c-0.304-0.16-0.521-0.469-0.554-0.828
					c-0.002-0.016-0.004-0.031-0.004-0.047c0-0.018-0.001-0.035-0.001-0.055v-2.72c0-0.017,0.001-0.036,0.001-0.054
					c0.028-0.552,0.483-0.994,1.036-0.994h22.564c0.352,1.379,1.155,3.272,3.002,4.697
					C183.345,160.606,183.397,160.646,183.451,160.685z"/>
				<g>
					<rect x="200.642" y="155.868" fill="#FAA31A" width="0.546" height="4.816"/>
					<rect x="198.795" y="155.868" fill="#FAA31A" width="0.545" height="4.816"/>
					<rect x="196.579" y="155.868" fill="#FAA31A" width="0.545" height="4.816"/>
					<rect x="193.184" y="155.868" fill="#FAA31A" width="0.545" height="4.816"/>
					<rect x="189.593" y="155.868" fill="#FAA31A" width="0.545" height="4.816"/>
					<rect x="184.088" y="155.868" fill="#FAA31A" width="0.545" height="4.816"/>
					<rect x="178.934" y="155.868" fill="#FAA31A" width="0.545" height="4.816"/>
					<rect x="174.332" y="155.868" fill="#FAA31A" width="0.546" height="4.816"/>
					<rect x="202.4" y="155.868" fill="#FAA31A" width="0.545" height="4.816"/>
					<rect x="203.562" y="155.868" fill="#FAA31A" width="0.545" height="4.816"/>
					<rect x="204.684" y="155.868" fill="#FAA31A" width="0.545" height="4.816"/>
					<path fill="#FAA31A" d="M206.073,155.885v4.783c-0.067,0.011-0.135,0.017-0.204,0.017h-0.342v-4.816h0.342
						C205.938,155.868,206.006,155.874,206.073,155.885z"/>
					<path fill="#FAA31A" d="M206.831,156.33v3.892c-0.132,0.177-0.322,0.315-0.546,0.393v-4.676
						C206.509,156.017,206.699,156.154,206.831,156.33z"/>
				</g>
			</g>
			<g>
				<path fill="#FDB83F" d="M208.181,152.1v2.721c0,0.216-0.074,0.418-0.2,0.585c-0.132,0.176-0.321,0.314-0.545,0.393
					c-0.067,0.023-0.139,0.042-0.213,0.054c-0.065,0.011-0.134,0.017-0.204,0.017h-48.018c-0.619,0-1.129-0.443-1.161-0.994
					c0-0.019-0.001-0.036-0.001-0.054V152.1c0-0.018,0.001-0.036,0.001-0.054c0.029-0.511,0.468-0.928,1.023-0.987
					c0.045-0.005,0.091-0.007,0.138-0.007h48.018c0.07,0,0.139,0.005,0.204,0.017c0.074,0.012,0.146,0.029,0.213,0.054
					c0.224,0.077,0.413,0.216,0.545,0.393C208.106,151.681,208.181,151.883,208.181,152.1z"/>
				<path fill="#FAA31A" d="M184.601,155.868h-25.725c-0.552,0-1.008-0.443-1.036-0.994c0-0.019-0.001-0.036-0.001-0.054V152.1
					c0-0.018,0.001-0.036,0.001-0.054c0.026-0.51,0.418-0.928,0.914-0.987c0.039-0.005,0.08-0.007,0.122-0.007h22.566
					c0,0.002,0.001,0.005,0.002,0.007C181.806,152.476,182.646,154.434,184.601,155.868z"/>
				<g>
					<rect x="201.791" y="151.052" fill="#FAA31A" width="0.546" height="4.816"/>
					<rect x="199.945" y="151.052" fill="#FAA31A" width="0.545" height="4.816"/>
					<rect x="197.729" y="151.052" fill="#FAA31A" width="0.545" height="4.816"/>
					<rect x="194.334" y="151.052" fill="#FAA31A" width="0.546" height="4.816"/>
					<rect x="190.743" y="151.052" fill="#FAA31A" width="0.545" height="4.816"/>
					<rect x="185.238" y="151.052" fill="#FAA31A" width="0.545" height="4.816"/>
					<rect x="180.084" y="151.052" fill="#FAA31A" width="0.545" height="4.816"/>
					<rect x="175.48" y="151.052" fill="#FAA31A" width="0.547" height="4.816"/>
					<rect x="203.551" y="151.052" fill="#FAA31A" width="0.545" height="4.816"/>
					<rect x="204.712" y="151.052" fill="#FAA31A" width="0.545" height="4.816"/>
					<rect x="205.834" y="151.052" fill="#FAA31A" width="0.545" height="4.816"/>
					<path fill="#FAA31A" d="M207.223,151.068v4.783c-0.065,0.011-0.134,0.017-0.204,0.017h-0.342v-4.816h0.342
						C207.089,151.052,207.157,151.057,207.223,151.068z"/>
					<path fill="#FAA31A" d="M207.98,151.515v3.891c-0.132,0.176-0.321,0.314-0.545,0.393v-4.676
						C207.659,151.199,207.849,151.338,207.98,151.515z"/>
				</g>
			</g>
			<g>
				<path fill="#FDB83F" d="M204.649,147.29v2.721c0,0.216-0.072,0.418-0.199,0.585c-0.132,0.176-0.321,0.314-0.545,0.393
					c-0.067,0.024-0.139,0.042-0.213,0.054c-0.022,0.004-0.044,0.007-0.066,0.01c-0.013,0.001-0.025,0.002-0.038,0.003
					c-0.013,0.002-0.025,0.002-0.038,0.002c-0.02,0.001-0.041,0.002-0.063,0.002h-48.017c-0.619,0-1.13-0.442-1.161-0.994
					c-0.001-0.019-0.001-0.036-0.001-0.054v-2.721c0-0.018,0-0.036,0.001-0.053s0.002-0.03,0.004-0.045
					c0.046-0.444,0.403-0.811,0.871-0.918c0.011-0.003,0.023-0.005,0.034-0.007c0.081-0.017,0.165-0.025,0.252-0.025h48.017
					c0.036,0,0.07,0.002,0.104,0.004c0.017,0.002,0.031,0.003,0.046,0.005h0.001c0.019,0.002,0.037,0.005,0.054,0.007
					c0.074,0.013,0.146,0.03,0.213,0.055c0.224,0.078,0.413,0.217,0.545,0.393C204.577,146.873,204.649,147.074,204.649,147.29z"/>
				<path fill="#FAA31A" d="M181.07,151.059h-25.725c-0.552,0-1.008-0.442-1.036-0.994c-0.001-0.019-0.001-0.036-0.001-0.054v-2.721
					c0-0.018,0-0.036,0.001-0.053s0.002-0.03,0.004-0.045c0.042-0.454,0.374-0.826,0.805-0.924c0.015-0.005,0.029-0.008,0.044-0.011
					c0.061-0.01,0.121-0.016,0.184-0.016h22.566c0.003,0.011,0.006,0.022,0.008,0.034c0.365,1.412,1.204,3.35,3.141,4.775
					C181.063,151.054,181.067,151.057,181.07,151.059z"/>
				<g>
					<rect x="198.261" y="146.242" fill="#FAA31A" width="0.546" height="4.815"/>
					<rect x="196.414" y="146.242" fill="#FAA31A" width="0.546" height="4.815"/>
					<rect x="194.199" y="146.242" fill="#FAA31A" width="0.545" height="4.815"/>
					<rect x="190.803" y="146.242" fill="#FAA31A" width="0.546" height="4.815"/>
					<rect x="187.213" y="146.242" fill="#FAA31A" width="0.546" height="4.815"/>
					<rect x="181.708" y="146.242" fill="#FAA31A" width="0.546" height="4.815"/>
					<rect x="176.554" y="146.242" fill="#FAA31A" width="0.545" height="4.815"/>
					<rect x="171.951" y="146.242" fill="#FAA31A" width="0.546" height="4.815"/>
					<rect x="200.021" y="146.242" fill="#FAA31A" width="0.545" height="4.815"/>
					<rect x="201.182" y="146.242" fill="#FAA31A" width="0.546" height="4.815"/>
					<rect x="202.304" y="146.242" fill="#FAA31A" width="0.545" height="4.815"/>
					<path fill="#FAA31A" d="M203.692,146.258v4.784c-0.065,0.011-0.135,0.016-0.205,0.016h-0.34v-4.815h0.34
						C203.558,146.242,203.627,146.248,203.692,146.258z"/>
					<path fill="#FAA31A" d="M204.45,146.704v3.892c-0.132,0.176-0.321,0.314-0.544,0.393v-4.677
						C204.129,146.39,204.318,146.528,204.45,146.704z"/>
				</g>
			</g>
			<g>
				<path fill="#FDB83F" d="M204.549,142.508v2.72c0,0.218-0.072,0.418-0.198,0.585c-0.133,0.178-0.323,0.315-0.546,0.393
					c-0.054,0.02-0.109,0.035-0.166,0.046h-0.001c-0.016,0.003-0.029,0.006-0.046,0.008c-0.066,0.012-0.135,0.018-0.204,0.018
					h-48.019c-0.05,0-0.102-0.003-0.15-0.009c-0.019-0.003-0.038-0.005-0.057-0.01c-0.521-0.085-0.925-0.487-0.953-0.977
					c-0.001-0.018-0.002-0.035-0.002-0.054v-2.72c0-0.018,0.001-0.036,0.002-0.054c0.031-0.552,0.541-0.995,1.16-0.995h48.019
					c0.03,0,0.062,0.001,0.092,0.004c0.013,0.001,0.026,0.002,0.039,0.004c0.014,0.001,0.028,0.003,0.043,0.004
					c0.011,0.002,0.021,0.004,0.03,0.005c0.073,0.012,0.146,0.03,0.213,0.054c0.011,0.005,0.021,0.008,0.03,0.012
					s0.02,0.008,0.029,0.012c0.021,0.008,0.039,0.018,0.059,0.024c0.022,0.011,0.043,0.021,0.063,0.033
					c0.018,0.01,0.037,0.021,0.055,0.031c0.021,0.013,0.039,0.026,0.06,0.04c0.016,0.011,0.029,0.022,0.045,0.033
					c0,0.001,0.002,0.001,0.003,0.002c0.009,0.008,0.02,0.016,0.029,0.024c0.029,0.023,0.057,0.051,0.083,0.077
					c0.009,0.009,0.018,0.017,0.024,0.025c0.007,0.008,0.014,0.017,0.022,0.025c0.014,0.018,0.029,0.036,0.043,0.053
					C204.477,142.09,204.549,142.291,204.549,142.508z"/>
				<path fill="#FAA31A" d="M180.97,146.276h-25.726c-0.02,0-0.04-0.001-0.06-0.002c-0.023-0.001-0.045-0.003-0.066-0.006
					c-0.495-0.063-0.884-0.478-0.909-0.987c-0.001-0.018-0.002-0.035-0.002-0.054v-2.72c0-0.018,0.001-0.036,0.002-0.054
					c0.028-0.552,0.483-0.995,1.035-0.995h22.566c0.01,0.039,0.021,0.079,0.03,0.118c0.375,1.397,1.21,3.271,3.083,4.665
					C180.939,146.253,180.955,146.265,180.97,146.276z"/>
				<g>
					<rect x="198.16" y="141.459" fill="#FAA31A" width="0.546" height="4.817"/>
					<rect x="196.313" y="141.459" fill="#FAA31A" width="0.546" height="4.817"/>
					<rect x="194.099" y="141.459" fill="#FAA31A" width="0.545" height="4.817"/>
					<rect x="190.701" y="141.459" fill="#FAA31A" width="0.547" height="4.817"/>
					<rect x="187.111" y="141.459" fill="#FAA31A" width="0.547" height="4.817"/>
					<rect x="181.606" y="141.459" fill="#FAA31A" width="0.546" height="4.817"/>
					<rect x="176.453" y="141.459" fill="#FAA31A" width="0.545" height="4.817"/>
					<rect x="171.851" y="141.459" fill="#FAA31A" width="0.545" height="4.817"/>
					<rect x="199.919" y="141.459" fill="#FAA31A" width="0.546" height="4.817"/>
					<rect x="201.08" y="141.459" fill="#FAA31A" width="0.547" height="4.817"/>
					<rect x="202.203" y="141.459" fill="#FAA31A" width="0.545" height="4.817"/>
					<path fill="#FAA31A" d="M203.592,141.476v4.783c-0.066,0.012-0.135,0.018-0.205,0.018h-0.34v-4.817h0.34
						C203.457,141.459,203.525,141.465,203.592,141.476z"/>
					<path fill="#FAA31A" d="M204.35,141.922v3.891c-0.132,0.178-0.322,0.315-0.545,0.393v-4.676
						C204.027,141.607,204.218,141.746,204.35,141.922z"/>
				</g>
			</g>
			<g>
				<path fill="#FDB83F" d="M207.03,137.809v2.722c0,0.216-0.073,0.418-0.199,0.584c-0.132,0.177-0.322,0.315-0.546,0.393
					c-0.067,0.024-0.139,0.043-0.212,0.054c-0.067,0.012-0.135,0.017-0.204,0.017h-48.019c-0.193,0-0.376-0.042-0.535-0.118
					c-0.341-0.16-0.583-0.468-0.621-0.828c-0.002-0.017-0.004-0.032-0.004-0.047c0-0.019-0.001-0.036-0.001-0.054v-2.722
					c0-0.017,0.001-0.035,0.001-0.053c0.031-0.552,0.541-0.994,1.16-0.994h48.019c0.069,0,0.137,0.005,0.204,0.016
					c0.073,0.013,0.145,0.03,0.212,0.055c0.224,0.077,0.414,0.216,0.546,0.392C206.957,137.392,207.03,137.594,207.03,137.809z"/>
				<path fill="#FAA31A" d="M183.451,141.577h-25.725c-0.173,0-0.335-0.042-0.479-0.118c-0.304-0.16-0.521-0.468-0.554-0.828
					c-0.002-0.017-0.004-0.032-0.004-0.047c0-0.019-0.001-0.036-0.001-0.054v-2.722c0-0.017,0.001-0.035,0.001-0.053
					c0.028-0.552,0.483-0.994,1.036-0.994h22.564c0.352,1.379,1.155,3.272,3.002,4.697
					C183.345,141.499,183.397,141.539,183.451,141.577z"/>
				<g>
					<rect x="200.642" y="136.762" fill="#FAA31A" width="0.546" height="4.816"/>
					<rect x="198.795" y="136.762" fill="#FAA31A" width="0.545" height="4.816"/>
					<rect x="196.579" y="136.762" fill="#FAA31A" width="0.545" height="4.816"/>
					<rect x="193.184" y="136.762" fill="#FAA31A" width="0.545" height="4.816"/>
					<rect x="189.593" y="136.762" fill="#FAA31A" width="0.545" height="4.816"/>
					<rect x="184.088" y="136.762" fill="#FAA31A" width="0.545" height="4.816"/>
					<rect x="178.934" y="136.762" fill="#FAA31A" width="0.545" height="4.816"/>
					<rect x="174.332" y="136.762" fill="#FAA31A" width="0.546" height="4.816"/>
					<rect x="202.4" y="136.762" fill="#FAA31A" width="0.545" height="4.816"/>
					<rect x="203.562" y="136.762" fill="#FAA31A" width="0.545" height="4.816"/>
					<rect x="204.684" y="136.762" fill="#FAA31A" width="0.545" height="4.816"/>
					<path fill="#FAA31A" d="M206.073,136.777v4.784c-0.067,0.011-0.135,0.016-0.204,0.016h-0.342v-4.815h0.342
						C205.938,136.762,206.006,136.768,206.073,136.777z"/>
					<path fill="#FAA31A" d="M206.831,137.224v3.891c-0.132,0.177-0.322,0.315-0.546,0.393v-4.675
						C206.509,136.91,206.699,137.048,206.831,137.224z"/>
				</g>
			</g>
			<g>
				<path fill="#FDB83F" d="M210.954,132.993v2.72c0,0.217-0.073,0.418-0.2,0.586c-0.131,0.176-0.321,0.314-0.544,0.392
					c-0.068,0.024-0.14,0.043-0.213,0.054c-0.066,0.012-0.135,0.018-0.205,0.018h-48.018c-0.618,0-1.129-0.442-1.16-0.995
					c0-0.018-0.001-0.036-0.001-0.054v-2.72c0-0.018,0.001-0.037,0.001-0.054c0.028-0.51,0.468-0.928,1.022-0.987
					c0.045-0.006,0.092-0.008,0.138-0.008h48.018c0.07,0,0.139,0.006,0.205,0.018c0.073,0.011,0.145,0.028,0.213,0.053
					c0.223,0.078,0.413,0.216,0.544,0.393C210.881,132.574,210.954,132.776,210.954,132.993z"/>
				<path fill="#FAA31A" d="M187.374,136.762H161.65c-0.553,0-1.008-0.442-1.036-0.995c0-0.018-0.001-0.036-0.001-0.054v-2.72
					c0-0.018,0.001-0.037,0.001-0.054c0.026-0.51,0.418-0.928,0.912-0.987c0.041-0.006,0.081-0.008,0.124-0.008h22.565
					c0.001,0.002,0.001,0.006,0.002,0.008C184.579,133.369,185.419,135.326,187.374,136.762z"/>
				<g>
					<rect x="204.566" y="131.944" fill="#FAA31A" width="0.545" height="4.817"/>
					<rect x="202.719" y="131.944" fill="#FAA31A" width="0.546" height="4.817"/>
					<rect x="200.503" y="131.944" fill="#FAA31A" width="0.545" height="4.817"/>
					<rect x="197.108" y="131.944" fill="#FAA31A" width="0.545" height="4.817"/>
					<rect x="193.517" y="131.944" fill="#FAA31A" width="0.546" height="4.817"/>
					<rect x="188.012" y="131.944" fill="#FAA31A" width="0.546" height="4.817"/>
					<rect x="182.857" y="131.944" fill="#FAA31A" width="0.546" height="4.817"/>
					<rect x="178.255" y="131.944" fill="#FAA31A" width="0.546" height="4.817"/>
					<rect x="206.324" y="131.944" fill="#FAA31A" width="0.546" height="4.817"/>
					<rect x="207.486" y="131.944" fill="#FAA31A" width="0.545" height="4.817"/>
					<rect x="208.607" y="131.944" fill="#FAA31A" width="0.546" height="4.817"/>
					<path fill="#FAA31A" d="M209.997,131.962v4.782c-0.066,0.012-0.135,0.018-0.205,0.018h-0.34v-4.817h0.34
						C209.862,131.944,209.931,131.95,209.997,131.962z"/>
					<path fill="#FAA31A" d="M210.755,132.407v3.892c-0.132,0.176-0.322,0.314-0.545,0.392v-4.676
						C210.433,132.093,210.623,132.23,210.755,132.407z"/>
				</g>
			</g>
			<g>
				<path fill="#FDB83F" d="M204.649,128.184v2.72c0,0.217-0.072,0.418-0.199,0.586c-0.132,0.177-0.321,0.314-0.545,0.392
					c-0.067,0.025-0.139,0.043-0.213,0.055c-0.022,0.003-0.044,0.006-0.066,0.009c-0.018,0.002-0.036,0.003-0.054,0.005
					c-0.01,0.001-0.019,0.001-0.027,0.002c-0.019,0-0.037,0.001-0.058,0.001h-48.017c-0.619,0-1.13-0.442-1.161-0.995
					c-0.001-0.017-0.001-0.035-0.001-0.054v-2.72c0-0.018,0-0.036,0.001-0.055c0.031-0.552,0.542-0.994,1.161-0.994h48.017
					c0.021,0,0.043,0,0.063,0.002c0.049,0.003,0.097,0.008,0.143,0.016c0.074,0.011,0.146,0.029,0.213,0.054
					c0.035,0.012,0.068,0.026,0.101,0.041c0.021,0.009,0.041,0.018,0.061,0.028c0.002,0,0.005,0.002,0.007,0.004
					c0.02,0.01,0.038,0.021,0.058,0.033c0.004,0.001,0.007,0.003,0.01,0.005c0.019,0.011,0.035,0.021,0.052,0.034
					c0.041,0.028,0.08,0.058,0.116,0.091c0.012,0.01,0.023,0.021,0.032,0.031c0.002,0.001,0.004,0.003,0.007,0.005
					c0.006,0.007,0.013,0.014,0.019,0.021c0.002,0.001,0.003,0.003,0.004,0.004c0.013,0.013,0.023,0.024,0.035,0.039
					c0.016,0.018,0.031,0.036,0.045,0.057C204.577,127.766,204.649,127.967,204.649,128.184z"/>
				<path fill="#FAA31A" d="M181.07,131.952h-25.725c-0.552,0-1.008-0.442-1.036-0.995c-0.001-0.017-0.001-0.035-0.001-0.054v-2.72
					c0-0.018,0-0.036,0.001-0.055c0.028-0.552,0.484-0.994,1.036-0.994h22.566c0.008,0.037,0.019,0.074,0.03,0.112
					c0.373,1.404,1.218,3.297,3.118,4.697C181.063,131.946,181.067,131.95,181.07,131.952z"/>
				<g>
					<rect x="198.261" y="127.135" fill="#FAA31A" width="0.546" height="4.817"/>
					<rect x="196.414" y="127.135" fill="#FAA31A" width="0.546" height="4.817"/>
					<rect x="194.199" y="127.135" fill="#FAA31A" width="0.545" height="4.817"/>
					<rect x="190.803" y="127.135" fill="#FAA31A" width="0.546" height="4.817"/>
					<rect x="187.213" y="127.135" fill="#FAA31A" width="0.546" height="4.817"/>
					<rect x="181.708" y="127.135" fill="#FAA31A" width="0.546" height="4.817"/>
					<rect x="176.554" y="127.135" fill="#FAA31A" width="0.545" height="4.817"/>
					<rect x="171.951" y="127.135" fill="#FAA31A" width="0.546" height="4.817"/>
					<rect x="200.021" y="127.135" fill="#FAA31A" width="0.545" height="4.817"/>
					<rect x="201.182" y="127.135" fill="#FAA31A" width="0.546" height="4.817"/>
					<rect x="202.304" y="127.135" fill="#FAA31A" width="0.545" height="4.817"/>
					<path fill="#FAA31A" d="M203.692,127.152v4.783c-0.065,0.01-0.135,0.017-0.205,0.017h-0.34v-4.817h0.34
						C203.558,127.135,203.627,127.141,203.692,127.152z"/>
					<path fill="#FAA31A" d="M204.45,127.599v3.891c-0.132,0.177-0.321,0.314-0.544,0.392v-4.675
						C204.129,127.284,204.318,127.422,204.45,127.599z"/>
				</g>
			</g>
			<g>
				<path fill="#FDB83F" d="M208.181,123.478v2.721c0,0.216-0.074,0.417-0.2,0.585c-0.132,0.176-0.321,0.314-0.545,0.393
					c-0.067,0.024-0.139,0.042-0.213,0.054c-0.065,0.011-0.134,0.018-0.204,0.018h-48.018c-0.187,0-0.363-0.04-0.519-0.112
					c-0.351-0.158-0.601-0.473-0.639-0.84c-0.002-0.015-0.004-0.028-0.004-0.043c0-0.018-0.001-0.035-0.001-0.054v-2.721
					c0-0.017,0.001-0.035,0.001-0.054c0.029-0.51,0.468-0.927,1.023-0.987c0.045-0.006,0.091-0.008,0.138-0.008h48.018
					c0.07,0,0.139,0.007,0.204,0.018c0.074,0.011,0.146,0.03,0.213,0.055c0.224,0.077,0.413,0.216,0.545,0.392
					C208.106,123.06,208.181,123.261,208.181,123.478z"/>
				<path fill="#FAA31A" d="M184.601,127.247h-25.725c-0.166,0-0.323-0.04-0.463-0.112c-0.313-0.158-0.535-0.473-0.569-0.84
					c-0.002-0.015-0.004-0.028-0.004-0.043c0-0.018-0.001-0.035-0.001-0.054v-2.721c0-0.017,0.001-0.035,0.001-0.054
					c0.026-0.51,0.418-0.927,0.914-0.987c0.039-0.006,0.08-0.008,0.122-0.008h22.566c0,0.002,0.001,0.006,0.002,0.008
					c0.351,1.382,1.158,3.275,3.009,4.698C184.502,127.173,184.551,127.21,184.601,127.247z"/>
				<g>
					<rect x="201.791" y="122.429" fill="#FAA31A" width="0.546" height="4.817"/>
					<rect x="199.945" y="122.429" fill="#FAA31A" width="0.545" height="4.817"/>
					<rect x="197.729" y="122.429" fill="#FAA31A" width="0.545" height="4.817"/>
					<rect x="194.334" y="122.429" fill="#FAA31A" width="0.546" height="4.817"/>
					<rect x="190.743" y="122.429" fill="#FAA31A" width="0.545" height="4.817"/>
					<rect x="185.238" y="122.429" fill="#FAA31A" width="0.545" height="4.817"/>
					<rect x="180.084" y="122.429" fill="#FAA31A" width="0.545" height="4.817"/>
					<rect x="175.48" y="122.429" fill="#FAA31A" width="0.547" height="4.817"/>
					<rect x="203.551" y="122.429" fill="#FAA31A" width="0.545" height="4.817"/>
					<rect x="204.712" y="122.429" fill="#FAA31A" width="0.545" height="4.817"/>
					<rect x="205.834" y="122.429" fill="#FAA31A" width="0.545" height="4.817"/>
					<path fill="#FAA31A" d="M207.223,122.446v4.783c-0.065,0.011-0.134,0.017-0.204,0.017h-0.342v-4.817h0.342
						C207.089,122.429,207.157,122.435,207.223,122.446z"/>
					<path fill="#FAA31A" d="M207.98,122.893v3.891c-0.132,0.176-0.321,0.314-0.545,0.393V122.5
						C207.659,122.578,207.849,122.715,207.98,122.893z"/>
				</g>
			</g>
			<g>
				<path fill="#FDB83F" d="M209.684,118.668v2.721c0,0.217-0.073,0.418-0.2,0.585c-0.133,0.177-0.321,0.315-0.545,0.394
					c-0.067,0.023-0.139,0.041-0.212,0.053c-0.023,0.004-0.046,0.008-0.068,0.009c-0.011,0.002-0.024,0.002-0.037,0.004
					c-0.012,0.001-0.025,0.002-0.038,0.003c-0.021,0.001-0.041,0.001-0.063,0.001h-48.017c-0.619,0-1.13-0.442-1.16-0.994
					c-0.001-0.018-0.002-0.035-0.002-0.054v-2.721c0-0.018,0.001-0.035,0.002-0.054c0.03-0.552,0.541-0.993,1.16-0.993h48.017
					c0.071,0,0.139,0.005,0.206,0.016c0.073,0.012,0.145,0.03,0.212,0.054c0.224,0.078,0.412,0.217,0.545,0.393
					C209.61,118.25,209.684,118.452,209.684,118.668z"/>
				<path fill="#FAA31A" d="M186.104,122.437h-25.725c-0.552,0-1.008-0.442-1.035-0.994c-0.001-0.018-0.002-0.035-0.002-0.054
					v-2.721c0-0.018,0.001-0.035,0.002-0.054c0.027-0.552,0.483-0.993,1.035-0.993h22.566c0.359,1.414,1.197,3.372,3.148,4.808
					C186.097,122.431,186.101,122.435,186.104,122.437z"/>
				<g>
					<rect x="203.295" y="117.621" fill="#FAA31A" width="0.546" height="4.815"/>
					<rect x="201.447" y="117.621" fill="#FAA31A" width="0.546" height="4.815"/>
					<rect x="199.231" y="117.621" fill="#FAA31A" width="0.547" height="4.815"/>
					<rect x="195.837" y="117.621" fill="#FAA31A" width="0.546" height="4.815"/>
					<rect x="192.245" y="117.621" fill="#FAA31A" width="0.547" height="4.815"/>
					<rect x="186.74" y="117.621" fill="#FAA31A" width="0.547" height="4.815"/>
					<rect x="181.586" y="117.621" fill="#FAA31A" width="0.546" height="4.815"/>
					<rect x="176.984" y="117.621" fill="#FAA31A" width="0.545" height="4.815"/>
					<rect x="205.053" y="117.621" fill="#FAA31A" width="0.546" height="4.815"/>
					<rect x="206.215" y="117.621" fill="#FAA31A" width="0.546" height="4.815"/>
					<rect x="207.336" y="117.621" fill="#FAA31A" width="0.546" height="4.815"/>
					<path fill="#FAA31A" d="M208.727,117.637v4.783c-0.067,0.011-0.135,0.017-0.206,0.017h-0.34v-4.815h0.34
						C208.592,117.621,208.659,117.626,208.727,117.637z"/>
					<path fill="#FAA31A" d="M209.484,118.083v3.891c-0.134,0.177-0.322,0.314-0.546,0.393v-4.676
						C209.162,117.769,209.351,117.907,209.484,118.083z"/>
				</g>
			</g>
		</g>
		<g>
			<ellipse fill="#E18226" cx="156.557" cy="145.689" rx="22.821" ry="24.521"/>
			<ellipse fill="#FDB83F" cx="154.567" cy="145.689" rx="22.821" ry="24.521"/>
			<g>
				<path fill="#FAA31A" d="M154.566,168.321c-5.554,0-10.775-2.323-14.702-6.543c-3.927-4.221-6.09-9.831-6.09-15.799
					c0-5.967,2.163-11.577,6.09-15.798c3.927-4.22,9.148-6.544,14.702-6.544s10.776,2.324,14.702,6.544
					c3.927,4.221,6.09,9.831,6.09,15.798c0,5.968-2.163,11.578-6.09,15.799C165.343,165.998,160.12,168.321,154.566,168.321z
					 M154.566,124.971c-10.781,0-19.552,9.425-19.552,21.009c0,11.585,8.771,21.009,19.552,21.009s19.553-9.424,19.553-21.009
					C174.119,134.396,165.348,124.971,154.566,124.971z"/>
			</g>
			<g>
				<path fill="#AC5C26" d="M164.133,134.266h-7.479c1.316,1.043,2.267,2.539,2.538,4.624h4.94v2.267h-4.895
					c-0.453,4.622-4.126,7.568-9.926,7.75c3.535,3.672,7.388,8.294,11.194,12.962h-4.352c-3.535-4.261-6.843-8.203-11.104-12.735
					v-2.811h2.493c4.896,0,7.525-2.039,7.841-5.166h-10.334v-2.267h10.199c-0.635-2.629-3.037-3.943-6.98-3.943h-3.219V132h19.082
					V134.266z"/>
			</g>
		</g>
		<g>
			<path fill="#F9DDBF" d="M198.045,90.938c0,0-2.452,3.709-4.699,3.76c-2.248,0.053-5.668-1.719-5.668-1.719
				s-2.063-4.941-0.664-6.875c0,0,1.403-0.662,2.872,0.507c0.251,0.202,0.508,0.456,0.761,0.781c0.355,0.461,0.754,0.723,1.179,0.86
				c1.604,0.523,3.508-0.709,4.22,0.481c0.416,0.691,0.868,1.212,1.24,1.577C197.725,90.731,198.045,90.938,198.045,90.938z"/>
			<path fill="#F9DDBF" d="M166.081,117.69c0,0,8.667-22.563,24.265-22.993c0,0,14.398,1.721,15.198,22.993H166.081z"/>
			<path fill="#DB6B27" d="M186.073,95.388c0,0,6.251,1.493,8.181,0.616c0,0,0.29-2.811-2.342-2.416
				c-1.803,0.27-2.977-0.661-3.667-1.039C187.269,92.016,185.813,94.213,186.073,95.388z"/>
			<path fill="#E5C1A1" d="M191.513,91.152c-0.398,0.322-1.627-4.542-1.627-4.542c0.251,0.202,0.508,0.456,0.761,0.781
				c0.355,0.461,0.754,0.723,1.179,0.86C191.83,88.394,191.901,90.839,191.513,91.152z"/>
			<path fill="#E5C1A1" d="M197.285,90.311c-0.089,0.056-2.979,1.916-3.372,1.916c-0.4,0,2.132-3.493,2.132-3.493
				C196.461,89.425,196.913,89.945,197.285,90.311z"/>
			<path fill="#E5C1A1" d="M174.547,111.388c-0.16-0.147,6.133-9.956,7.866-10.028c1.733-0.071,5.628,2.15,8.446,2.436
				c2.819,0.287,5.553-0.572,6.086,1.217c0.533,1.791,1.999,8.141,1.1,9.156C197.145,115.184,178.007,114.564,174.547,111.388z"/>
		</g>
		<g>
			<path fill="#FAB17E" d="M192.931,93.26c-0.523-0.396-1.71-1.27-1.771-1.075c-0.045,0.14,0.02,0.377,0.161,0.624
				c-0.717-0.287-1.446-0.477-3.167-0.12c-0.346,0.071-0.658,0.28-0.849,0.599c-0.175,0.295-0.241,0.661,0.198,0.955
				c0.88,0.587,0.624,0.235,1.846,1.09c1.222,0.855,2.718,1.074,3.61,0.474l1.199-0.215l0.149-2.119
				C194.308,93.472,193.624,93.385,192.931,93.26z"/>
			<path fill="#FAB17E" d="M224.353,75.483c0,0-2.827,3.604-6.428,2.096c0,0-0.774-2.013-0.785-3.496
				c-0.001-0.183-0.003-0.359-0.006-0.527c-0.02-1.671-0.071-2.608-0.071-2.608s0.001,0,0.004,0
				c0.163-0.074,5.503-2.429,5.498-2.234C222.473,73.232,224.353,75.483,224.353,75.483z"/>
			<path fill="#EE985E" d="M222.028,69.792c-0.515,1.025-2.282,3.031-4.895,3.765c-0.02-1.671-0.071-2.608-0.071-2.608
				s0.001,0,0.004,0C217.214,70.904,222.182,69.489,222.028,69.792z"/>
			<path fill="#FAB17E" d="M215.944,70.774c0,0,6.005,1.517,6.826-2.516c0.821-4.033,2.149-6.554-1.649-7.692
				c-3.799-1.139-4.86,0.224-5.438,1.498C215.103,63.339,214.403,70.275,215.944,70.774z"/>
			<path fill="#AB473E" d="M222.564,69.357c0.083,0.056,1.374,0.483,3.821-4.755c0.385-0.823,0.646-2.602-0.25-4.173
				c-0.895-1.571-4.069-2.807-6.707-3.344c-2.639-0.539-3.271,1.057-3.893,2.66c-0.652,1.683-2.535,3.067-2.535,3.067
				c2.273,1.366,5.015-0.587,5.963-0.266c0.949,0.322,1.284,1.928,1.355,2.444c0.072,0.515,0.181,0.943,1.374,0.483
				c1.193-0.46,0.541,1.817,0.349,2.253C222.042,67.726,221.88,68.885,222.564,69.357z"/>
			<g>
				<path fill="#2E3B65" d="M238.033,169.924h3.636c0.763,0,1.609-0.819,1.821-2.321c0.212-1.503,1.779-2.321,2.119-3.551
					c0.339-1.229-1.398-2.959-1.398-2.959l-0.291-0.4l-0.303-0.418l-2.88,0.728c0,0-0.071,0.736-0.115,1.676
					c-0.031,0.678-0.048,1.461-0.012,2.147c0.085,1.639-0.427,3.404-1.782,3.723C237.472,168.867,238.033,169.924,238.033,169.924z"
					/>
				<path fill="#2E3B65" d="M212.722,169.924h9.638c0.092-0.019,0.162-0.041,0.204-0.063c0.644-0.346,0.442-2.994,0.365-3.813
					c-0.016-0.15-0.025-0.239-0.025-0.239s-3.39-2.912-3.856-0.683c-0.014,0.069-0.032,0.139-0.049,0.206v0.001
					c-0.589,2.086-3.219,3.034-4.737,3.298C213.1,168.834,212.799,169.561,212.722,169.924z"/>
				<path fill="#2B488C" d="M214.664,110.202c0,0,0.514,6.9,1.119,15.195c0.822,11.268,1.811,25.107,1.909,27.729
					c0.169,4.553,0.848,11.835,0.848,11.835s1.609,1.73,4.829,1.001c0,0,2.869-10.396,3.689-21.396
					c0.013-0.18,0.025-0.361,0.038-0.543c0.763-11.197,1.947-34.777,1.947-34.777L214.664,110.202z"/>
				<path fill="#243862" d="M214.664,110.202c0,0,0.514,6.9,1.119,15.195l11.275,19.169c0.013-0.18,0.025-0.361,0.038-0.543
					c0.763-11.197,1.947-34.777,1.947-34.777L214.664,110.202z"/>
				<path fill="#2B488C" d="M217.015,111.021c0,0,9.276,24.99,15.378,36.734c6.1,11.743,8.005,15.021,8.005,15.021
					s3.496-1.501,3.813-2.525c0,0-2.333-22.673-6.418-28.199c-2.309-3.123-5.02-12.495-5.147-15.772
					c-0.127-3.277-0.825-9.764-0.825-9.764L217.015,111.021z"/>
			</g>
			<g>
				<path fill="#FAB17E" d="M238.171,106.481l0.098,1.606c0,0-0.985,2.855,1.778,4.32c0,0,1.183,0.514,1.23-0.477
					c0.049-0.99-0.103-0.617-0.006-2.012c0.096-1.394-0.414-2.71-1.272-3.154l-0.704-0.873L238.171,106.481z"/>
				<path fill="#1E3E70" d="M239.251,107.651c-1.026,0.354-1.192,0.274-1.192,0.274s-4.997-9.777-5.504-10.673
					c-0.506-0.896-10.61-10.964-10.61-10.964l2.597-10.406c0,0,11.493,15.992,12.735,18.288c2.05,3.792,3.252,12.6,3.252,12.6
					S240.057,107.373,239.251,107.651z"/>
			</g>
			<path fill="#2B4F97" d="M212.705,90.375c0.036,2.137,0.152,4.538,0.308,6.979c0.01,0.145,0.02,0.289,0.028,0.434
				c0.1,1.512,0.207,3.027,0.332,4.504c0.05,0.592,0.103,1.178,0.158,1.753l0.008,0.077c0.005,0.216,0.029,0.449,0.051,0.662
				c0.508,5.533,1.038,9.905,1.137,9.973c0.117,0.084,0.251,0.126,0.396,0.107c1.351-0.182,5.38,0.148,8.679-0.623
				c2.783-0.632,5.181-1.828,7.721-3.44c0.337-0.214,1.105-0.782,1.043-1.206c-0.063-0.465-0.175-1.139-0.319-1.984
				c-0.501-2.943-1.363-8.007-1.658-13.932c-0.059-1.104-0.142-2.194-0.249-3.267c-0.283-2.791-0.737-5.442-1.347-7.799
				c-1.13-4.376-2.792-7.727-4.878-9.038c-0.271-0.164-1.738,0.838-3.084,1.767c-1.244,0.856-2.553,1.093-3.826,0.974l-1.121,1.331
				c-1.355,1.695-2.802,3.952-3.195,7.16c-0.029,0.235-0.055,0.489-0.077,0.756C212.701,86.868,212.675,88.521,212.705,90.375z"/>
			<path fill="#1E3E70" d="M212.705,90.375c0.036,2.137,0.152,4.538,0.308,6.979c0.01,0.145,0.02,0.289,0.028,0.434
				c7.714-5.188,8.903-14.683,8.903-14.683c-3.795,0.179-6.81,1.116-9.135,2.457C212.701,86.868,212.675,88.521,212.705,90.375z"/>
			<path fill="#2B4F97" d="M193.215,94.461c-0.079-1.229,0.513-1.434,0.513-1.434s11.63-2.266,12.619-2.6s9.444-9.785,9.444-9.785
				s3.24-3.927,5.894-3.059c2.306,0.753,3.206,2.686,3.514,4.526c0.365,2.194-0.575,4.401-2.344,5.567
				c-3.969,2.615-11.916,7.771-13.787,8.36c-4.165,1.312-15.355,0.104-15.355,0.104S193.276,95.427,193.215,94.461z"/>
		</g>
	</g>
	<g>
		<g>
			<path fill="#EA8E50" d="M65.829,113.719l0.95,0.83c0,0,2.599-1.002,3.186,2.316c0,0,0.156,1.414-0.678,1.417
				c-0.833,0.003-0.49-0.154-1.67-0.116c-1.181,0.035-2.159-0.633-2.332-1.662l-0.565-0.872L65.829,113.719z"/>
			<path fill="#1E3E70" d="M65.721,115.498c0.758-0.85,0.696-1.479,0.696-1.479s-8.777-7.722-9.667-8.351
				c-0.607-0.429-7.07-6.586-10.092-10.341c-1.498-1.861-3.355-1.139-5.479-0.483l-1.749,0.538
				c-2.112,0.652-2.662,3.826-0.929,5.369c4.881,4.344,13,9.229,14.52,10.256c3.771,2.549,11.153,5.578,11.153,5.578
				S65.07,116.229,65.721,115.498z"/>
		</g>
		<path fill="#243862" d="M75.737,162.938c0,0,2.13,1.715,5.394,0.809c0,0,2.631-0.644,3.208,0.767c0,0-4.037,2.202-5.058,2.805
			c-0.77,0.454-1.572,1.17-2.14,1.725c-0.45,0.439-1.149,0.381-1.533-0.126c-0.178-0.234-0.381-0.514-0.603-0.839
			c-0.623-0.906-2.072-3.833-2.072-3.833L75.737,162.938z"/>
		<path fill="#2B488C" d="M76.987,162.066c0,0-1.297,3.213-4.291,2.622c0,0-6.11-5.421-10.3-11.053
			c-1.361-1.829-2.521-3.68-3.201-5.374c-2.779-6.914-10.279-17.225-15.048-22.451l11.931-4.638c0,0,3.822,8.261,8.907,18.406
			C68.65,146.891,72.969,155.181,76.987,162.066z"/>
		<path fill="#243862" d="M64.985,139.579l-2.588,14.057c-1.361-1.829-2.521-3.68-3.201-5.374
			c-2.779-6.914-10.279-17.225-15.048-22.451l11.931-4.638C56.079,121.173,59.901,129.434,64.985,139.579z"/>
		<path fill="#243862" d="M55.233,164.802c0,0-0.13,2.565,2.763,2.906c0,0,1.653,0.01,1.658,1.642l-8.408,0.029
			c0,0-0.244-0.658-0.303-2.068c-0.046-1.083,0.977-3.914,0.977-3.914L55.233,164.802z"/>
		<path fill="#2B488C" d="M52.166,121.173c0,0,5.314,6.275,8.689,17.582c1.835,6.151-3.365,21.617-4.378,26.992
			c0,0-3.489,0.317-5.874-0.673c0,0-0.182-11.1,1.213-19.655c0.781-4.786-6.998-10.237-10.397-18.889
			c-2.313-5.886,0.5-5.786,3.958-5.927L52.166,121.173z"/>
		<path fill="#FAAF7C" d="M46.03,93.174c-2.957,1.795-9.011,0.14-9.011,0.14s2.458-3.021,1.341-7.885l2.323,1.267l2.494,1.361
			c0,0,0.161,0.859,0.273,2.402c0.028,0.398,0.054,0.842,0.072,1.326C45.04,92.279,46.03,93.174,46.03,93.174z"/>
		<path fill="#2B4F97" d="M56.874,120.848c0,0.56-0.599,0.827-0.726,0.854c-1.192,0.234-4.523,1.627-7.523,1.946
			c-2.526,0.284-4.872,0.014-7.448-0.543c-0.341-0.073-1.142-0.305-1.199-0.656c-0.071-0.383-9.939-21.615-2.268-30.735
			c0.18-0.214,1.694,0.172,3.079,0.524c1.279,0.326,2.452,0.144,3.5-0.308l1.298,0.734c1.595,0.955,4.613,4.348,4.966,7.01
			c0.179,1.354,0.9,2.355,1.108,3.547c0.078,0.44,0.157,0.871,0.237,1.29c0.157,0.823,0.319,1.604,0.486,2.35
			c0.451,2.013,0.927,3.746,1.395,5.244c0.498,1.59,0.986,2.911,1.422,4.019c0.565,1.434,1.044,2.506,1.342,3.326
			C56.752,120.027,56.874,120.481,56.874,120.848z"/>
		<path fill="#1E3E70" d="M56.542,119.449c-13.93-7.052-18.754-20.592-18.754-20.592s11.317,4.485,14.109,5.653
			c0.157,0.823,0.319,1.604,0.486,2.35c0.451,2.013,0.927,3.746,1.395,5.244c0.498,1.59,0.986,2.911,1.422,4.019
			C55.765,117.557,56.244,118.629,56.542,119.449z"/>
		<path fill="#EA8E50" d="M43.449,90.459c-2.908,0.176-4.799-2.404-4.799-2.404s1.315-0.783,2.032-1.359l2.494,1.361
			C43.176,88.057,43.337,88.916,43.449,90.459z"/>
		<path fill="#FAAF7C" d="M44.688,87.25c0,0-4.406,3.398-6.333,0.417c-1.927-2.98-3.793-4.55-1.061-6.845
			c2.731-2.295,4.019-1.57,4.887-0.743C43.05,80.906,45.785,86.291,44.688,87.25z"/>
		<path fill="#243862" d="M42.647,77.387c-0.158-1.146-0.513-1.953-0.513-1.953s-0.277,1.231-2.37,1.061s-5.411,0.221-6.517,2.784
			c-0.071,0.163-0.134,0.332-0.189,0.503c-0.2-0.568-0.249-1.42-0.249-1.42c-0.398,1.104,0,2.483,0,2.483l0,0
			c-0.006,0.041-0.011,0.081-0.016,0.121c-0.462,0.42-0.85,1.724-0.85,1.724c0.14-0.364,0.479-0.6,0.783-0.747
			c-0.01,1.994,0.743,3.945,2.064,4.525c1.932,0.849,1.917,0.201,3.86,1.586c0,0,0.521-0.695,0.166-1.162
			c-0.355-0.467-1.699-1.146-0.948-1.824c0.751-0.68,1.027,0.085,1.303-0.382c0.277-0.468-1.105-1.826,0.671-3.098
			C41.62,80.314,42.805,78.532,42.647,77.387z"/>
		<g>
			<path fill="#FDB83F" d="M46.477,100.145c-2.957-12.348,3.961-24.933,15.453-28.11c11.491-3.178,23.204,4.257,26.161,16.604
				c2.957,12.348-3.962,24.934-15.453,28.11S49.435,112.492,46.477,100.145z"/>
			<g>
				<path fill="#FAA31A" d="M72.225,115.025c-5.063,1.4-10.331,0.598-14.833-2.26s-7.699-7.428-9.002-12.868
					c-1.303-5.441-0.556-11.102,2.103-15.938c2.66-4.837,6.913-8.272,11.976-9.673c5.063-1.4,10.332-0.598,14.833,2.26
					s7.699,7.428,9.001,12.868c1.303,5.441,0.556,11.102-2.103,15.939C81.542,110.189,77.289,113.625,72.225,115.025z M62.76,75.501
					c-9.829,2.717-15.768,13.521-13.239,24.083c2.529,10.563,12.583,16.944,22.414,14.227c9.829-2.718,15.768-13.521,13.238-24.084
					C82.644,79.165,72.59,72.783,62.76,75.501z"/>
			</g>
			<g>
				<path fill="#FAA31A" d="M75.194,85.692h-5.896c1.038,0.821,1.787,2.002,2.001,3.645h3.895v1.787h-3.859
					c-0.356,3.644-3.252,5.967-7.825,6.109c2.788,2.895,5.824,6.538,8.826,10.218h-3.431c-2.787-3.358-5.395-6.466-8.754-10.039
					v-2.216h1.965c3.859,0,5.932-1.607,6.181-4.072h-8.146v-1.787h8.041c-0.501-2.072-2.395-3.108-5.503-3.108h-2.537v-2.322h15.042
					V85.692z"/>
			</g>
		</g>
		<g>
			<path fill="#FCC29A" d="M64.985,117.666c0,0,2.357,0.855,3.716,0.818c1.358-0.034,3.72-1.57,3.725-1.679
				c0.004-0.107-1.062-0.77-2.609-0.56c-1.547,0.211-1.862-0.039-1.381-0.245c0.541-0.231,0.927-0.581,0.795-0.802
				c-0.073-0.123-0.851,0.143-1.115,0.236c-0.265,0.096-0.927-0.166-1.48,0.263c-0.366,0.284-1.744,0.497-1.744,0.497
				L64.985,117.666z"/>
			<path fill="#2B4F97" d="M65.917,116.844c0.416-1.26,0.605-1.83,0.605-1.83s-9.279-7.717-10.222-8.375
				c-0.642-0.448-7.046-5.326-10.203-9.177c-1.566-1.91-3.984-2.737-6.289-2.151l-1.899,0.481c-2.292,0.581-2.967,3.736-1.141,5.335
				c5.145,4.501,13.764,9.651,15.373,10.727c3.997,2.672,12.783,6.329,12.783,6.329S65.591,117.833,65.917,116.844z"/>
		</g>
	</g>
	<g>
		<path fill="#243862" d="M104.72,101.241c-1.847,3.456-4.17,4.79-4.17,4.79h-9.668C90.882,106.031,106.13,98.605,104.72,101.241z"
			/>
		<g>
			<path fill="#FAB17E" d="M97.295,127.976c-0.252,0.311-0.284,0.658-0.159,1.027c0,0.002,0,0.003,0.002,0.005
				c0.23,0.686,0.992,1.449,1.877,2.213c0.113,0.099,0.214,0.188,0.302,0.271c0.023,0.021,0.046,0.043,0.067,0.064
				c0.018,0.018,0.035,0.035,0.052,0.051c0.825,0.817,0.514,1.006,1.997,2.663c1.69,1.89,2.854,1.924,3.185,1.751
				c0.281-0.146-0.289-1.148-0.919-2.274c-0.03-0.054-0.06-0.109-0.092-0.165c-0.083-0.149-0.167-0.302-0.251-0.452
				c-0.738-1.355-0.548-1.992-0.374-4.01c0.143-1.64,2.374-9.159,2.374-9.159l-3.239-0.601c0,0-0.976,5.988-2.05,6.912
				c-0.575,0.491-1.219,0.496-1.771,0.86c-0.039,0.025-0.077,0.051-0.114,0.078C97.868,127.435,97.548,127.665,97.295,127.976z"/>
			<path fill="#243862" d="M97.295,127.976c-0.252,0.311-0.284,0.658-0.159,1.027c0,0.002,0,0.003,0.002,0.005
				c0.282,0.685,1.024,1.445,1.88,2.206c0.112,0.1,0.211,0.191,0.299,0.277c0.023,0.021,0.046,0.043,0.067,0.064
				c0.018,0.018,0.035,0.035,0.052,0.051c0.825,0.817,0.514,1.006,1.997,2.663c1.69,1.89,2.854,1.924,3.185,1.751
				c0.281-0.146-0.289-1.148-0.919-2.274c-0.329-0.129-1.857-0.796-3.013-2.386c-1.019-1.396-1.696-3.189-2.39-4.229
				c-0.039,0.025-0.077,0.051-0.114,0.078C97.868,127.435,97.548,127.665,97.295,127.976z"/>
			<path fill="#FAB17E" d="M123.415,125.803c0.2,1.074,1.626,0.895,3.218,0.476c1.594-0.418,1.215,0.079,3.48-0.189
				c2.267-0.27,2.953-1.178,3.021-1.54c0.063-0.322-1.058-0.435-2.26-0.584c-0.15-0.017-0.301-0.037-0.453-0.058
				c-1.356-0.183-2.35-1.123-3.582-1.896c-1.166-0.73-2.908-3.712-2.908-3.712l-3.107,0.265c0,0,1.63,2.662,2.261,3.819
				c0.371,0.681,0.351,1.581,0.305,2.276C123.368,125.037,123.345,125.424,123.415,125.803z"/>
			<path fill="#243862" d="M126.633,126.278c1.594-0.418,1.215,0.079,3.48-0.189c2.267-0.27,2.953-1.178,3.021-1.54
				c0.063-0.322-1.058-0.435-2.26-0.584l-0.011,0.024c0,0-1.358,1.037-3.245,1.086c-1.537,0.04-3.166-0.435-4.228-0.415
				c-0.023,0.377-0.046,0.764,0.024,1.143C123.615,126.877,125.041,126.697,126.633,126.278z"/>
			<path fill="#243862" d="M111.504,104.447l-2.905,8.401l-3.793,10.969c0,0-1.029,0.107-2.016-0.198
				c-0.907-0.281-1.948-1.019-1.948-1.019s1.052-11.778,3.018-18.539c0.502-1.734,1.067-3.139,1.689-3.929
				C108.596,96.264,111.504,104.447,111.504,104.447z"/>
			<path fill="#2B488C" d="M85.011,96.611c0,0,19.247-6.993,23.54-5.506c4.292,1.488,17.181,29.042,17.181,29.042
				s-0.291,0.416-1.084,0.735c-0.739,0.299-2.526,0.278-2.526,0.278s-11.632-10.712-13.016-13.837
				c-1.385-3.125-1.939-6.1-3.324-5.803c-0.846,0.182-7.386,4.509-13.244,4.509c-2.276,0-8.479,0-8.479,0
				c-3.666-4.241-2.639-10.963-2.639-10.963L85.011,96.611z"/>
			<path fill="#B6473D" d="M98.382,49.034c-0.793-0.576-1.782-0.715-2.481-0.729c0.194-0.184,0.551-0.226,0.551-0.226
				c-0.426-0.105-1.422,0.274-1.422,0.274c-5.818-2.984-7.447,6.425-7.481,8.641c-0.034,2.214-0.203,4.752-3.339,6.479
				c-6.172,3.397-1.694,10.604-1.694,10.604c0.044,0.033,2.383,5.169,2.383,5.169c-0.022-1.794,8.308-10.556,12.502-13.038
				c1.083-1.455,1.625-4.141,1.667-4.353c-0.323,2.139-0.753,3.318-1.109,3.972C101.579,62.768,100.483,50.56,98.382,49.034z"/>
			<path fill="#FAB17E" d="M95.649,65.948c0.018,0.013-2.064,0.777-3.456,0.115c-1.31-0.623-2.302-2.938-2.282-2.94
				c0.595-0.029,1.25-0.588,1.753-4.262l0.254,0.098l4.266,1.649c0,0-0.31,1.472-0.509,2.872
				C95.506,64.656,95.416,65.783,95.649,65.948z"/>
			<path fill="#EE985E" d="M96.184,60.608c0,0-0.31,1.472-0.509,2.872c-2.451-0.474-3.412-3.097-3.757-4.521L96.184,60.608z"/>
			<path fill="#B6473D" d="M90.888,57.813c0,0-1.304-2.214-1.617-4.108c-0.223-1.352,0.417-6.362,5.104-5.641
				c0,0,1.361,0.145,2.64,1.073c1.017,0.738,2.485,2.333,0.844,6.705l-0.426,1.477L90.888,57.813z"/>
			<path fill="#FAB17E" d="M96.819,62.069c0,0-5.837-0.842-5.293-4.739c0.544-3.898,0.157-6.631,3.907-6.259
				c3.75,0.372,4.265,1.977,4.377,3.324C99.923,55.744,98.352,62.188,96.819,62.069z"/>
			<path fill="#B6473D" d="M98.098,51.405c0,0-2.237,4.314-4.778,4.592c-2.542,0.279-3.503-0.597-3.503-0.597
				s2.102-1.298,2.884-4.03C92.7,51.37,97.201,49.035,98.098,51.405z"/>
			<path fill="#B6473D" d="M97.65,51.713c0,0,1.047,1.213,1.198,2.253c0.151,1.04-0.005,3.104,0.559,3.125
				c0,0,1.637-2.913,0.535-4.89C98.772,50.104,97.65,51.713,97.65,51.713z"/>
			<path fill="#2B4F97" d="M80.496,96.721c0.318,0.947,1.292,1.191,2.597,1.026c2.489-0.313,6.186-2.108,8.851-3.351
				c4.062-1.891,5.908-0.113,7.201-1.318c1.292-1.203-1.478-3.881,0.923-16.313c0.814-4.216-4.393-13.285-4.393-13.285
				s-0.398,2.647-5.333-0.5c-0.174-0.111-2.117,2.979-3.988,6.79c-2.063,4.204-4.038,9.282-3.457,11.899
				C84.004,86.656,79.573,93.967,80.496,96.721z"/>
			<path fill="#1E3E70" d="M80.496,96.721c0.318,0.947,1.292,1.191,2.597,1.026c1.723-0.807,9.165-3.904,9.081-6.004
				c-0.124-3.107-1.431-3.207-0.508-7.042c0.741-3.081-6.134-8.807-7.231-10.053c-2.062,4.204-2.119,4.403-1.538,7.02
				C84.004,86.656,79.573,93.967,80.496,96.721z"/>
			<path fill="#2B488C" d="M108.6,112.849l-3.793,10.969c0,0-1.029,0.107-2.016-0.198c-0.907-0.281-1.948-1.019-1.948-1.019
				s1.052-11.778,3.018-18.539L108.6,112.849z"/>
			<path fill="#2B4F97" d="M95.675,63.48c0,0,5.077,0.925,5.673,3.274c0.597,2.35,4.105,16.158,4.105,16.158
				s-2.581,0.498-3.773-0.782c-1.193-1.282-4.149-11.887-4.149-11.887L95.675,63.48z"/>
			<path fill="#2B4F97" d="M90.341,62.979c0,0-4.799,0.317-6.46,2.808c-2.339,3.504-6.978,18.443-4.319,20.435
				c2.995,2.243,13.628,0.587,13.628,0.587s0.354-1.777-0.138-2.638c-0.492-0.858-8.493-2.248-8.862-2.645s4.616-7.737,4.616-8.928
				C88.805,71.408,90.341,62.979,90.341,62.979z"/>
		</g>
		<g>
			<g>
				<polygon fill="#F89748" points="90.54,91.65 111.035,91.65 114.729,77.806 94.267,77.806 				"/>
				<rect x="84.171" y="91.111" fill="#ED7E2A" width="26.794" height="0.539"/>
			</g>
			<path fill="#FDB83F" d="M104.527,84.504c0.129-0.487-0.132-0.881-0.585-0.881c-0.453,0-0.925,0.394-1.055,0.881
				c-0.13,0.486,0.132,0.881,0.584,0.881C103.925,85.385,104.397,84.99,104.527,84.504z"/>
		</g>
	</g>
	<polygon fill="#DB6B27" points="53.047,140.213 43.509,151.868 43.856,146.545 45.893,140.213 	"/>
</g>
</svg>
