<?xml version="1.0" encoding="utf-8"?>
<!-- Generator: Adobe Illustrator 23.1.0, SVG Export Plug-In . SVG Version: 6.00 Build 0)  -->
<svg version="1.1" xmlns="http://www.w3.org/2000/svg" xmlns:xlink="http://www.w3.org/1999/xlink" x="0px" y="0px"
	 viewBox="0 0 1604 1349.7" style="enable-background:new 0 0 1604 1349.7;" xml:space="preserve">
<style type="text/css">
	.st0{fill:#C3CCEA;}
	.st1{fill:#FFFFFF;}
	.st2{fill:#E2EBF9;}
	.st3{fill:#A0A0C3;}
	.st4{fill:#DADADA;}
	.st5{fill:#86A7FF;}
	.st6{fill:#D3DFFF;}
	.st7{fill:#1F3C88;}
	.st8{fill:#FBC343;}
	.st9{fill:url(#SVGID_1_);}
	.st10{fill:#FFCC48;}
	.st11{fill:url(#SVGID_2_);}
	.st12{fill:#EFA600;}
	.st13{opacity:0.3;fill:#D27100;}
	.st14{opacity:0.4;}
	.st15{fill:#4F2D00;}
	.st16{fill:#E39E03;}
	.st17{opacity:0.2;clip-path:url(#SVGID_4_);}
	.st18{fill:#FFE6B1;}
	.st19{fill:url(#SVGID_5_);}
	.st20{fill:#C68000;}
	.st21{opacity:0.2;clip-path:url(#SVGID_7_);}
	.st22{fill:url(#SVGID_8_);}
	.st23{opacity:0.2;clip-path:url(#SVGID_10_);}
	.st24{fill:#454579;}
	.st25{fill:none;stroke:#01235C;stroke-width:1.127;stroke-miterlimit:10;stroke-dasharray:5.6513,5.6513;}
	.st26{fill:#01235C;}
	.st27{fill:#EC9D7D;}
	.st28{fill:#C97555;}
	.st29{fill:#97B0E7;}
	.st30{fill:#6280B4;}
	.st31{fill:#9D3F2D;}
	.st32{fill:#242C4D;}
	.st33{fill:#384775;}
	.st34{fill:#B24F38;}
	.st35{fill:#1E1C1B;}
	.st36{fill:#BF6443;}
	.st37{fill:#773728;}
	.st38{fill:#E25252;}
	.st39{fill:#F1F2F2;}
	.st40{fill:#191D2F;}
	.st41{fill:#DADEE9;}
	.st42{fill:#7998D0;}
	.st43{fill:#ACBBDD;}
	.st44{fill:url(#SVGID_11_);}
	.st45{opacity:0.2;clip-path:url(#SVGID_13_);}
	.st46{fill:url(#SVGID_14_);}
	.st47{opacity:0.2;clip-path:url(#SVGID_16_);}
	.st48{fill:url(#SVGID_17_);}
	.st49{opacity:0.2;clip-path:url(#SVGID_19_);}
	.st50{fill:url(#SVGID_20_);}
	.st51{opacity:0.2;clip-path:url(#SVGID_22_);}
	.st52{fill:url(#SVGID_23_);}
	.st53{opacity:0.2;clip-path:url(#SVGID_25_);}
	.st54{fill:url(#SVGID_26_);}
	.st55{opacity:0.2;clip-path:url(#SVGID_28_);}
	.st56{fill:#009647;}
	.st57{fill:none;stroke:#007333;stroke-width:1.585;stroke-miterlimit:10;}
	.st58{fill:#00DB81;}
	.st59{fill:none;stroke:#007333;stroke-width:2.2539;stroke-miterlimit:10;}
	.st60{fill:#FF9C00;}
	.st61{opacity:0.76;}
	.st62{fill:#FFCD53;}
	.st63{opacity:0.49;fill:#D27100;}
	.st64{opacity:0.5;fill:#FFE6B1;}
	.st65{opacity:0.2;fill:#FFE6B1;}
	.st66{opacity:0.72;fill:#D27100;}
	.st67{fill:url(#SVGID_29_);}
	.st68{opacity:0.2;clip-path:url(#SVGID_31_);}
</style>
<g id="BACKGROUND">
</g>
<g id="OBJECTS">
	<g>
		<g>
			<rect x="2694.4" y="1185.3" class="st0" width="21.1" height="21.1"/>
			<rect x="2723.7" y="1172.5" class="st0" width="21.1" height="33.8"/>
			<rect x="2753.1" y="1155.4" class="st0" width="21.1" height="50.9"/>
			<rect x="2782.4" y="1130.8" class="st0" width="21.1" height="75.5"/>
		</g>
		<g>
			<polygon class="st0" points="2369.4,1581.4 2385.2,1581.4 2385.2,1525.3 2427.3,1525.3 2427.3,1581.4 2443.1,1581.4 
				2406.3,1637.6 			"/>
		</g>
		<g>
			<polygon class="st0" points="2115.4,1065.1 2087.8,1065.1 2087.8,1163.1 2014.3,1163.1 2014.3,1065.1 1986.7,1065.1 2051,967.1 
							"/>
		</g>
	</g>
	<g>
		<rect x="-621" y="-477" class="st1" width="3000" height="2000"/>
		<path class="st2" d="M1409.7,1313.2c0,0,334.3-834.4,67.2-1035c-314.7-236.4-576.1,253-922.1,70.9
			C208.9,167.1-31.8,470.3,34.5,766.2c66.3,295.9,182.6,465.6,231.5,547.1H1409.7z"/>
		<ellipse class="st3" cx="819.8" cy="1272.6" rx="707.4" ry="44"/>
		<g>
			<path class="st4" d="M1357.9,200.1c-9.5,0-17.2-7.7-17.2-17.2s7.7-17.2,17.2-17.2c9.5,0,17.2,7.7,17.2,17.2
				S1367.4,200.1,1357.9,200.1z M1357.9,171c-6.6,0-11.9,5.3-11.9,11.9s5.3,11.9,11.9,11.9c6.6,0,11.9-5.3,11.9-11.9
				S1364.5,171,1357.9,171z"/>
			<path class="st4" d="M-67.8,466c-9.5,0-17.2-7.7-17.2-17.2s7.7-17.2,17.2-17.2s17.2,7.7,17.2,17.2S-58.3,466-67.8,466z
				 M-67.8,436.9c-6.6,0-11.9,5.3-11.9,11.9s5.3,11.9,11.9,11.9s11.9-5.3,11.9-11.9S-61.2,436.9-67.8,436.9z"/>
			<path class="st4" d="M1527.2,849.1c-9.5,0-17.2-7.7-17.2-17.2c0-9.5,7.7-17.2,17.2-17.2c9.5,0,17.2,7.7,17.2,17.2
				C1544.4,841.4,1536.7,849.1,1527.2,849.1z M1527.2,820c-6.6,0-11.9,5.3-11.9,11.9c0,6.6,5.3,11.9,11.9,11.9
				c6.6,0,11.9-5.3,11.9-11.9C1539.1,825.3,1533.8,820,1527.2,820z"/>
			<path class="st4" d="M2112.3,665.7c-9.5,0-17.2-7.7-17.2-17.2c0-9.5,7.7-17.2,17.2-17.2s17.2,7.7,17.2,17.2
				C2129.4,658,2121.7,665.7,2112.3,665.7z M2112.3,636.6c-6.6,0-11.9,5.3-11.9,11.9c0,6.6,5.3,11.9,11.9,11.9s11.9-5.3,11.9-11.9
				C2124.2,641.9,2118.8,636.6,2112.3,636.6z"/>
			<circle class="st4" cx="1470.4" cy="604.8" r="11.9"/>
			<circle class="st4" cx="2018.3" cy="1043.1" r="11.9"/>
			
				<ellipse transform="matrix(1.415886e-03 -1 1 1.415886e-03 875.8328 1406.9036)" class="st4" cx="1142.4" cy="264.9" rx="11.9" ry="11.9"/>
			<circle class="st4" cx="-171.8" cy="1081.9" r="11.9"/>
		</g>
		<path class="st5" d="M1017.7,1282.9h-787c-27.2,0-49.3-22.1-49.3-49.3V83.4c0-27.2,22.1-49.3,49.3-49.3h787
			c27.2,0,49.3,22.1,49.3,49.3v1150.3C1067,1260.9,1045,1282.9,1017.7,1282.9z"/>
		<rect x="468.2" y="89" class="st6" width="312.1" height="52.4"/>
		<rect x="269.8" y="221.3" class="st4" width="708.9" height="157.2"/>
		<rect x="300.8" y="242.8" class="st1" width="646.9" height="114.2"/>
		<g>
			<path class="st7" d="M793.8,514.9h-48.2c-14.5,0-26.2-11.7-26.2-26.2v-11.1c0-14.5,11.7-26.2,26.2-26.2h48.2
				c14.5,0,26.2,11.7,26.2,26.2v11.1C820,503.2,808.3,514.9,793.8,514.9z"/>
			<path class="st7" d="M952.5,514.9h-48.2c-14.5,0-26.2-11.7-26.2-26.2v-11.1c0-14.5,11.7-26.2,26.2-26.2h48.2
				c14.5,0,26.2,11.7,26.2,26.2v11.1C978.7,503.2,967,514.9,952.5,514.9z"/>
		</g>
		<g>
			<path class="st7" d="M966.2,674.5h-96.7c-6.9,0-12.5-5.6-12.5-12.5v-58c0-6.9,5.6-12.5,12.5-12.5h96.7c6.9,0,12.5,5.6,12.5,12.5
				v58C978.7,668.9,973.1,674.5,966.2,674.5z"/>
			<path class="st7" d="M772.1,674.5h-96.7c-6.9,0-12.5-5.6-12.5-12.5v-58c0-6.9,5.6-12.5,12.5-12.5h96.7c6.9,0,12.5,5.6,12.5,12.5
				v58C784.6,668.9,779,674.5,772.1,674.5z"/>
			<path class="st7" d="M578,674.5h-96.7c-6.9,0-12.5-5.6-12.5-12.5v-58c0-6.9,5.6-12.5,12.5-12.5H578c6.9,0,12.5,5.6,12.5,12.5v58
				C590.5,668.9,584.9,674.5,578,674.5z"/>
			<path class="st7" d="M383.9,674.5h-96.7c-6.9,0-12.5-5.6-12.5-12.5v-58c0-6.9,5.6-12.5,12.5-12.5h96.7c6.9,0,12.5,5.6,12.5,12.5
				v58C396.3,668.9,390.8,674.5,383.9,674.5z"/>
		</g>
		<g>
			<path class="st7" d="M966.2,824.4h-96.7c-6.9,0-12.5-5.6-12.5-12.5v-58c0-6.9,5.6-12.5,12.5-12.5h96.7c6.9,0,12.5,5.6,12.5,12.5
				v58C978.7,818.8,973.1,824.4,966.2,824.4z"/>
			<path class="st6" d="M772.1,824.4h-96.7c-6.9,0-12.5-5.6-12.5-12.5v-58c0-6.9,5.6-12.5,12.5-12.5h96.7c6.9,0,12.5,5.6,12.5,12.5
				v58C784.6,818.8,779,824.4,772.1,824.4z"/>
			<path class="st6" d="M578,824.4h-96.7c-6.9,0-12.5-5.6-12.5-12.5v-58c0-6.9,5.6-12.5,12.5-12.5H578c6.9,0,12.5,5.6,12.5,12.5v58
				C590.5,818.8,584.9,824.4,578,824.4z"/>
			<path class="st6" d="M383.9,824.4h-96.7c-6.9,0-12.5-5.6-12.5-12.5v-58c0-6.9,5.6-12.5,12.5-12.5h96.7c6.9,0,12.5,5.6,12.5,12.5
				v58C396.3,818.8,390.8,824.4,383.9,824.4z"/>
		</g>
		<g>
			<path class="st7" d="M966.2,974.3h-96.7c-6.9,0-12.5-5.6-12.5-12.5v-58c0-6.9,5.6-12.5,12.5-12.5h96.7c6.9,0,12.5,5.6,12.5,12.5
				v58C978.7,968.7,973.1,974.3,966.2,974.3z"/>
			<path class="st6" d="M772.1,974.3h-96.7c-6.9,0-12.5-5.6-12.5-12.5v-58c0-6.9,5.6-12.5,12.5-12.5h96.7c6.9,0,12.5,5.6,12.5,12.5
				v58C784.6,968.7,779,974.3,772.1,974.3z"/>
			<path class="st6" d="M578,974.3h-96.7c-6.9,0-12.5-5.6-12.5-12.5v-58c0-6.9,5.6-12.5,12.5-12.5H578c6.9,0,12.5,5.6,12.5,12.5v58
				C590.5,968.7,584.9,974.3,578,974.3z"/>
			<path class="st6" d="M383.9,974.3h-96.7c-6.9,0-12.5-5.6-12.5-12.5v-58c0-6.9,5.6-12.5,12.5-12.5h96.7c6.9,0,12.5,5.6,12.5,12.5
				v58C396.3,968.7,390.8,974.3,383.9,974.3z"/>
		</g>
		<g>
			<path class="st8" d="M966.2,1129.5h-96.7c-6.9,0-12.5-5.6-12.5-12.5v-58c0-6.9,5.6-12.5,12.5-12.5h96.7c6.9,0,12.5,5.6,12.5,12.5
				v58C978.7,1123.9,973.1,1129.5,966.2,1129.5z"/>
			<path class="st6" d="M772.1,1129.5h-96.7c-6.9,0-12.5-5.6-12.5-12.5v-58c0-6.9,5.6-12.5,12.5-12.5h96.7c6.9,0,12.5,5.6,12.5,12.5
				v58C784.6,1123.9,779,1129.5,772.1,1129.5z"/>
			<path class="st6" d="M578,1129.5h-96.7c-6.9,0-12.5-5.6-12.5-12.5v-58c0-6.9,5.6-12.5,12.5-12.5H578c6.9,0,12.5,5.6,12.5,12.5v58
				C590.5,1123.9,584.9,1129.5,578,1129.5z"/>
			<path class="st6" d="M383.9,1129.5h-96.7c-6.9,0-12.5-5.6-12.5-12.5v-58c0-6.9,5.6-12.5,12.5-12.5h96.7c6.9,0,12.5,5.6,12.5,12.5
				v58C396.3,1123.9,390.8,1129.5,383.9,1129.5z"/>
		</g>
		<g>
			<linearGradient id="SVGID_1_" gradientUnits="userSpaceOnUse" x1="1073.7192" y1="958.9658" x2="1074.0562" y2="980.8667">
				<stop  offset="0" style="stop-color:#454579"/>
				<stop  offset="1" style="stop-color:#363664"/>
			</linearGradient>
			<path class="st9" d="M1267.4,959.1H880.8c-2.6,0-4.6,2.1-4.6,4.6v43.6c0,2.6,2.1,4.6,4.6,4.6h386.6c2.6,0,4.6-2.1,4.6-4.6v-43.6
				C1272,961.2,1270,959.1,1267.4,959.1z"/>
			<g>
				<path class="st10" d="M900.2,611.2c-2.9,0.9-5.7,2-8.5,3.1c-24.5,10.2-44.4,28.5-56.5,52.4c-13.5,26.6-15.9,56.8-6.7,85.2
					c9.2,28.4,28.9,51.5,55.5,65c26.6,13.5,56.8,15.9,85.2,6.7c28.4-9.2,51.5-28.9,65-55.5c13.5-26.6,15.9-56.8,6.7-85.2
					C1021.9,624.3,958.8,592.2,900.2,611.2z"/>
				
					<linearGradient id="SVGID_2_" gradientUnits="userSpaceOnUse" x1="734.0735" y1="562.027" x2="963.3657" y2="562.027" gradientTransform="matrix(0.885 0.4656 -0.4656 0.885 445.265 -175.1559)">
					<stop  offset="0" style="stop-color:#FFCC48"/>
					<stop  offset="0.9996" style="stop-color:#FF9C00"/>
				</linearGradient>
				<path class="st11" d="M899.3,608.4c-60.2,19.6-93.2,84.2-73.6,144.4c19.6,60.2,84.2,93.2,144.4,73.6
					c60.2-19.6,93.2-84.2,73.6-144.4v0l0,0l0,0C1024.2,621.8,959.5,588.8,899.3,608.4z M1040.9,682.9c9.2,28.4,6.8,58.6-6.7,85.2
					c-13.6,26.6-36.6,46.3-65,55.5c-28.4,9.2-58.6,6.8-85.2-6.7c-26.6-13.6-46.3-36.6-55.5-65c-9.2-28.4-6.8-58.6,6.7-85.2
					c12.2-23.9,32.1-42.2,56.5-52.4c2.8-1.1,5.6-2.2,8.5-3.1C958.8,592.2,1021.9,624.3,1040.9,682.9z"/>
				<path class="st12" d="M899.3,608.4c-29.1,9.4-52.8,29.7-66.7,57c-13.9,27.3-16.4,58.3-6.9,87.5c9.4,29.1,29.7,52.8,57,66.7
					c27.3,13.9,58.3,16.4,87.5,6.9c3-1,5.8-2,8.7-3.2c25.1-10.4,45.5-29.3,58-53.8c13.9-27.3,16.4-58.3,6.9-87.5
					C1024.2,621.9,959.4,588.8,899.3,608.4z M1038.3,683.8c9,27.7,6.6,57.2-6.6,83.1c-13.2,25.9-35.7,45.1-63.4,54.1
					c-27.7,9-57.2,6.6-83.1-6.6c-25.9-13.2-45.1-35.7-54.1-63.4c-9-27.7-6.6-57.2,6.6-83.1c11.9-23.3,31.2-41.2,55.1-51.1
					c2.7-1.1,5.4-2.1,8.3-3C958.2,595.3,1019.7,626.7,1038.3,683.8z"/>
				<path class="st13" d="M1027.3,687.3c16.6,51.2-11.4,106.1-62.6,122.7c-51.2,16.6-106.1-11.4-122.7-62.6
					c-16.6-51.2,11.4-106.1,62.6-122.7C955.8,608.2,1010.7,636.2,1027.3,687.3z"/>
				<g>
					<g class="st14">
						<polygon class="st15" points="851.3,770.3 866.7,786.1 916.2,766.1 900.6,727.6 948.8,748 967.8,703.4 982.3,739.3 
							1032.9,718.8 1031.7,696.9 994.1,712.1 968.1,648 937.3,720.7 862,686.9 889.4,754.5 						"/>
					</g>
					<g>
						<g>
							<polygon class="st16" points="850.7,769.6 866.2,785.4 915.6,765.4 900,726.9 948.3,747.3 967.2,702.7 981.8,738.6 
								1032.4,718.1 1031.2,696.2 993.5,711.4 967.6,647.3 936.8,720 861.5,686.2 888.9,753.8 							"/>
						</g>
					</g>
				</g>
				<g>
					<defs>
						<path id="SVGID_3_" d="M1027.3,687.3c16.6,51.2-11.4,106.1-62.6,122.7c-51.2,16.6-106.1-11.4-122.7-62.6
							c-16.6-51.2,11.4-106.1,62.6-122.7C955.8,608.2,1010.7,636.2,1027.3,687.3z"/>
					</defs>
					<clipPath id="SVGID_4_">
						<use xlink:href="#SVGID_3_"  style="overflow:visible;"/>
					</clipPath>
					<g class="st17">
						
							<rect x="927.1" y="576.3" transform="matrix(0.8909 0.4542 -0.4542 0.8909 432.175 -347.6042)" class="st18" width="25.1" height="298.9"/>
						
							<rect x="870" y="566.7" transform="matrix(0.8909 0.4542 -0.4542 0.8909 422.6805 -327.2489)" class="st18" width="45.1" height="298.9"/>
						
							<rect x="961.7" y="593.3" transform="matrix(0.8909 0.4542 -0.4542 0.8909 442.9928 -358.6096)" class="st18" width="12.6" height="298.9"/>
					</g>
				</g>
				<path class="st13" d="M846.1,749.2c-16.6-51.2,11.4-106.1,62.6-122.7c21.9-7.1,44.4-6,64.4,1.6c-20.9-9-45.1-10.8-68.5-3.2
					c-51.2,16.6-79.2,71.5-62.6,122.7c9.5,29.3,31.6,50.9,58.3,61C875.5,797.8,855.1,776.9,846.1,749.2z"/>
				<path class="st13" d="M969.4,626.4c25.2,10.6,45.8,31.6,54.9,59.6c16.6,51.2-11.4,106.1-62.6,122.7c-22,7.1-44.7,6-64.8-1.7
					c20.8,8.7,44.7,10.4,67.8,2.9c51.2-16.6,79.2-71.6,62.6-122.7C1017.9,658.2,996,636.6,969.4,626.4z"/>
			</g>
			<g>
				<path class="st10" d="M1272.4,598.4c-3.1-1.2-6.2-2.4-9.3-3.4c-27.6-8.8-57.2-7.4-84.2,4c-30,12.7-53.4,36.3-65.7,66.5
					c-12.3,30.2-12.1,63.4,0.6,93.5c12.7,30.1,36.3,53.4,66.5,65.7c30.3,12.3,63.4,12.1,93.5-0.6c30-12.7,53.4-36.3,65.7-66.5
					C1364.9,695.2,1334.8,623.8,1272.4,598.4z"/>
				
					<linearGradient id="SVGID_5_" gradientUnits="userSpaceOnUse" x1="1151.9636" y1="609.2302" x2="1402.6852" y2="609.2302" gradientTransform="matrix(0.9541 0.2996 -0.2996 0.9541 190.2312 -252.4125)">
					<stop  offset="0" style="stop-color:#FFCC48"/>
					<stop  offset="0.9996" style="stop-color:#FF9C00"/>
				</linearGradient>
				<path class="st19" d="M1273.6,595.4c-64.1-26.1-137.3,4.8-163.3,68.9c-26.1,64.1,4.8,137.3,68.9,163.3
					c64.1,26.1,137.3-4.8,163.3-68.9v0l0,0l0,0C1368.6,694.6,1337.8,621.5,1273.6,595.4z M1339.5,757.6
					c-12.3,30.2-35.6,53.8-65.7,66.5c-30.1,12.7-63.2,12.9-93.5,0.6c-30.2-12.3-53.8-35.6-66.5-65.7c-12.7-30.1-12.9-63.2-0.6-93.5
					c12.3-30.2,35.6-53.8,65.7-66.5c27-11.4,56.5-12.7,84.2-4c3.1,1,6.2,2.1,9.3,3.4C1334.8,623.8,1364.9,695.2,1339.5,757.6z"/>
				<path class="st12" d="M1273.6,595.4c-31-12.6-65.1-12.4-95.9,0.6c-30.9,13-54.8,37.3-67.4,68.3c-12.6,31-12.4,65.1,0.6,95.9
					s37.3,54.8,68.3,67.4c3.1,1.3,6.3,2.4,9.5,3.4c28.4,9,58.7,7.6,86.4-4.1c30.9-13,54.8-37.3,67.4-68.3
					C1368.6,694.7,1337.7,621.5,1273.6,595.4z M1336.7,756.4c-12,29.5-34.7,52.5-64,64.8c-29.3,12.4-61.6,12.6-91.1,0.6
					c-29.5-12-52.5-34.7-64.8-64c-12.4-29.3-12.6-61.7-0.6-91.1c12-29.5,34.7-52.5,64-64.8c26.3-11.1,55.1-12.4,82.1-3.9
					c3,1,6.1,2.1,9,3.3C1332.1,626,1361.4,695.6,1336.7,756.4z"/>
				
					<ellipse transform="matrix(0.7071 -0.7071 0.7071 0.7071 -143.9306 1075.6018)" class="st13" cx="1226.4" cy="711.5" rx="106.5" ry="106.5"/>
				<g>
					<g class="st14">
						<polygon class="st15" points="1252,626.3 1167.7,705.7 1211.1,756.5 1278.6,741.1 						"/>
						<polygon class="st15" points="1167.7,705.7 1229.7,702.4 1278.6,741.1 1211.1,756.5 						"/>
						<polygon class="st15" points="1165.7,712.3 1207.3,766.1 1276.7,747.1 1195,806.1 						"/>
					</g>
					<g>
						<g>
							<polygon class="st16" points="1251.7,625.8 1167.4,705.2 1210.8,756 1278.3,740.6 							"/>
							<polygon class="st20" points="1167.4,705.2 1229.4,702 1278.3,740.6 1210.8,756 							"/>
							<polygon class="st16" points="1165.3,711.8 1206.9,765.6 1276.4,746.7 1194.6,805.6 							"/>
						</g>
					</g>
				</g>
				<g>
					<defs>
						
							<ellipse id="SVGID_6_" transform="matrix(0.7071 -0.7071 0.7071 0.7071 -143.9306 1075.6018)" cx="1226.4" cy="711.5" rx="106.5" ry="106.5"/>
					</defs>
					<clipPath id="SVGID_7_">
						<use xlink:href="#SVGID_6_"  style="overflow:visible;"/>
					</clipPath>
					<g class="st21">
						
							<rect x="1210.9" y="558.6" transform="matrix(0.3886 0.9214 -0.9214 0.3886 1414.0004 -686.9121)" class="st18" width="27.5" height="326.9"/>
						
							<rect x="1167.3" y="517.4" transform="matrix(0.3886 0.9214 -0.9214 0.3886 1356.0712 -682.038)" class="st18" width="49.3" height="326.9"/>
						
							<rect x="1229.4" y="592.8" transform="matrix(0.3886 0.9214 -0.9214 0.3886 1452.6255 -676.7983)" class="st18" width="13.7" height="326.9"/>
					</g>
				</g>
				<path class="st13" d="M1130,675.7c22.2-54.5,84.3-80.7,138.8-58.5c23.3,9.5,41.4,26.3,52.8,46.7c-11.2-22.3-30.1-40.8-55-51
					c-54.5-22.2-116.6,4-138.8,58.5c-12.7,31.2-9.5,64.8,5.8,92.1C1120.3,737,1117.9,705.3,1130,675.7z"/>
				<path class="st13" d="M1319.5,659.9c13.6,26.6,16.1,58.7,3.9,88.6c-22.2,54.5-84.3,80.7-138.8,58.5c-23.4-9.5-41.6-26.5-53-47
					c11.2,22,30,40.2,54.6,50.2c54.5,22.2,116.6-4,138.8-58.5C1337.7,720.6,1334.6,687.1,1319.5,659.9z"/>
			</g>
			<g>
				<path class="st10" d="M1018.7,709.7c-4.4,1.6-8.7,3.3-13,5.1c-37.5,16.6-67.5,45.6-85.4,83c-19.9,41.5-22.5,88.4-7.3,131.8
					c15.3,43.5,46.5,78.4,88.1,98.4c41.5,19.9,88.4,22.5,131.8,7.3c43.6-15.3,78.4-46.6,98.4-88.1c19.9-41.5,22.5-88.4,7.3-131.8
					C1207.2,725.6,1108.5,678.2,1018.7,709.7z"/>
				
					<linearGradient id="SVGID_8_" gradientUnits="userSpaceOnUse" x1="716.9177" y1="967.396" x2="1071.1443" y2="967.396" gradientTransform="matrix(0.9144 -0.4048 0.4048 0.9144 -133.2156 349.8478)">
					<stop  offset="0" style="stop-color:#FFCC48"/>
					<stop  offset="0.9996" style="stop-color:#FF9C00"/>
				</linearGradient>
				<path class="st22" d="M1017.2,705.4c-92.3,32.4-140.8,133.5-108.4,225.8c32.4,92.3,133.5,140.8,225.8,108.4
					c92.3-32.4,140.8-133.5,108.4-225.8l0,0l0,0l0,0C1210.6,721.6,1109.5,673,1017.2,705.4z M1238.7,815.4
					c15.3,43.5,12.7,90.3-7.3,131.8c-20,41.5-54.8,72.8-98.4,88.1c-43.5,15.3-90.3,12.7-131.8-7.3c-41.5-20-72.8-54.9-88.1-98.4
					c-15.3-43.5-12.7-90.3,7.3-131.8c17.9-37.3,48-66.4,85.4-83c4.2-1.9,8.5-3.6,13-5.1C1108.5,678.2,1207.2,725.6,1238.7,815.4z"/>
				<path class="st12" d="M1017.2,705.4c-44.6,15.6-80.5,47.8-101,90.4c-20.5,42.6-23.1,90.7-7.5,135.3
					c15.7,44.6,47.8,80.5,90.4,101c42.6,20.5,90.7,23.1,135.3,7.5c4.5-1.6,9-3.3,13.3-5.3c38.4-17,69.3-46.8,87.7-85.2
					c20.5-42.6,23.1-90.7,7.5-135.3C1210.6,721.7,1109.4,673.1,1017.2,705.4z M1234.6,816.8c14.9,42.4,12.4,88-7.1,128.5
					c-19.5,40.5-53.4,70.9-95.9,85.9c-42.4,14.9-88,12.4-128.5-7.1c-40.5-19.5-71-53.5-85.9-95.9c-14.9-42.4-12.4-88,7.1-128.5
					c17.5-36.4,46.7-64.7,83.3-80.9c4.1-1.8,8.3-3.5,12.6-5C1107.7,683.1,1203.9,729.3,1234.6,816.8z"/>
				
					<ellipse transform="matrix(0.7071 -0.7071 0.7071 0.7071 -301.8524 1016.3264)" class="st13" cx="1075.9" cy="872.5" rx="150.5" ry="150.5"/>
				<g>
					<g class="st14">
						<path class="st15" d="M1139.8,807.9l-1-2.3c-9.2-20.5-32.8-30.1-53.6-22.2c-0.8,0.3-1.6,0.6-2.4,1l-22.1,9.9l-9.4-21
							l-12.2,5.5l9.4,21l-8.6,3.9l-9.4-21l-21.5,9.7l9.4,21l-46,20.7l15.7,34.8l11-4.9l41.7,92.7l-11,4.9l14.5,32.2l46-20.7
							l7.6,16.8l21.5-9.7l-7.6-16.8l8.6-3.9l7.6,16.8l12.2-5.5l-7.6-16.8l21.6-9.7c0.9-0.4,1.9-0.9,2.7-1.4
							c19.6-10.6,28-34.6,18.7-55.2l-1-2.3c-9.2-20.5-32.8-30.1-53.6-22.2c-0.8,0.3-1.6,0.6-2.4,1c0.8-0.4,1.6-0.8,2.3-1.2
							C1140.7,852.6,1149.1,828.5,1139.8,807.9z M1115.5,905.1c2.9,6.5,0,14.2-6.5,17.1l-13.1,5.9l-14.5-32.2l13.5-6.1
							c6.3-2.8,13.7,0,16.5,6.3L1115.5,905.1z M1089.9,848.1c2.9,6.5,0,14.2-6.5,17.1l-13.1,5.9l-14.5-32.2l13.5-6.1
							c6.3-2.8,13.7,0,16.5,6.3L1089.9,848.1z"/>
					</g>
					<g>
						<g>
							<path class="st16" d="M1139,806.8l-1-2.3c-9.2-20.5-32.8-30.1-53.6-22.2c-0.8,0.3-1.6,0.6-2.4,1l-22.1,9.9l-9.4-21l-12.2,5.5
								l9.4,21l-8.6,3.9l-9.4-21l-21.5,9.7l9.4,21l-46,20.7l15.7,34.8l11-4.9l41.7,92.7l-11,4.9l14.5,32.2l46-20.7l7.6,16.8
								l21.5-9.7l-7.6-16.8l8.6-3.9l7.6,16.8l12.2-5.5l-7.6-16.8l21.6-9.7c0.9-0.4,1.9-0.9,2.7-1.4c19.6-10.6,28-34.6,18.7-55.2
								l-1-2.3c-9.2-20.5-32.8-30.1-53.6-22.2c-0.8,0.3-1.6,0.6-2.4,1c0.8-0.4,1.6-0.8,2.3-1.2
								C1139.9,851.5,1148.3,827.5,1139,806.8z M1114.7,904c2.9,6.5,0,14.2-6.5,17.1l-13.1,5.9l-14.5-32.2l13.5-6.1
								c6.3-2.8,13.7,0,16.5,6.3L1114.7,904z M1089,847c2.9,6.5,0,14.2-6.5,17.1l-13.1,5.9l-14.5-32.2l13.5-6.1
								c6.3-2.8,13.7,0,16.5,6.3L1089,847z"/>
						</g>
					</g>
				</g>
				<g>
					<defs>
						
							<ellipse id="SVGID_9_" transform="matrix(0.7071 -0.7071 0.7071 0.7071 -301.8524 1016.3264)" cx="1075.9" cy="872.5" rx="150.5" ry="150.5"/>
					</defs>
					<clipPath id="SVGID_10_">
						<use xlink:href="#SVGID_9_"  style="overflow:visible;"/>
					</clipPath>
					<g class="st23">
						
							<rect x="1064.4" y="654.4" transform="matrix(0.9014 0.433 -0.433 0.9014 490.1806 -381.9868)" class="st18" width="38.8" height="461.8"/>
						
							<rect x="975.9" y="641.3" transform="matrix(0.9014 0.433 -0.433 0.9014 477.3117 -351.6193)" class="st18" width="69.7" height="461.8"/>
						
							<rect x="1118.5" y="679.7" transform="matrix(0.9014 0.433 -0.433 0.9014 505.4844 -398.7027)" class="st18" width="19.4" height="461.8"/>
					</g>
				</g>
				<path class="st13" d="M940.3,924.8c-27.5-78.4,13.7-164.3,92.1-191.8c33.5-11.8,68.4-10.9,99.5,0c-32.7-13.2-70-15.1-105.9-2.5
					c-78.4,27.5-119.7,113.4-92.1,191.8c15.7,44.9,50.6,77.5,92.3,92.1C987.4,998.8,955.2,967.4,940.3,924.8z"/>
				<path class="st13" d="M1126.2,730.8c39.3,15.4,71.9,47.1,87,90.1c27.5,78.4-13.7,164.3-92.1,191.8
					c-33.7,11.8-68.8,10.9-100.1-0.2c32.4,12.7,69.3,14.5,104.8,2c78.4-27.5,119.7-113.4,92.1-191.8
					C1202.2,778,1167.5,745.5,1126.2,730.8z"/>
			</g>
			<path class="st24" d="M1293.1,1279.6H858.6c-5.1,0-9.1-4.1-9.1-9.1v-286c0-5.1,4.1-9.1,9.1-9.1h434.5c5.1,0,9.1,4.1,9.1,9.1v286
				C1302.3,1275.5,1298.2,1279.6,1293.1,1279.6z"/>
			<g>
				<path class="st25" d="M1282.4,1265.8H869.4c-2.6,0-4.6-2.1-4.6-4.6V993.7c0-2.6,2.1-4.6,4.6-4.6h413.1c2.6,0,4.6,2.1,4.6,4.6
					v267.5C1287.1,1263.8,1285,1265.8,1282.4,1265.8z"/>
			</g>
			<path class="st26" d="M1074.1,1153L1074.1,1153c-26.3,0-47.6-21.3-47.6-47.6V975.3h95.3v130.1
				C1121.8,1131.7,1100.4,1153,1074.1,1153z"/>
			<circle class="st24" cx="1074.3" cy="1107.8" r="22.2"/>
			<circle class="st10" cx="1074.3" cy="1107.8" r="15.4"/>
		</g>
		<g>
			<g>
				<g>
					<g>
						<path class="st27" d="M1089.1,460c-1.2-1.6-2.4-3.3-2.3-5.3c0.1-2.8,2.7-4.9,3.5-7.6c1-3.3-0.8-6.9-3.3-9.2
							c-2.5-2.4-5.6-4-8.3-6.2c-4.6-3.9-7.6-9.7-8-15.7c-0.1-1.3-2.4-10.3-3-11.5c-0.6-1.2-2-2.1-3.3-1.6c-0.6,0.3-1.1,0.9-1.4,1.4
							c-3.1,4.6-2.2,17.8-1.8,23.4c-19,2.1-37.9,4.1-56.9,6.2c-6.8,0.7-14,1.6-19.5,5.9c-2.2,1.7-4.1,4.2-4.3,7
							c-0.3,4,2.9,7.4,6.3,9.6c21.9,14.7,57.7,8.3,79.6,22.9c4.5,3,8.3,7,11.9,11.1c4.1,4.6,4.6,3.4,9.8,6.8
							c5.2,3.4,11.7,5.2,17.6,3.1c3.6-1.2,7.5-4.8,8.2-8.7c0.8-4.7,6.8-10.3,3.7-13.2C1110.2,471.5,1095.2,468.1,1089.1,460z"/>
						<path class="st28" d="M983.8,442.7c0.1,0,0.1,0,0.2,0c9-1,15.4-1.8,21.7-2.5c6.3-0.7,12.7-1.5,21.8-2.5
							c0.9-0.1,1.5-0.9,1.4-1.7c-0.1-0.9-0.8-1.6-1.7-1.4c-9.1,1-15.4,1.8-21.8,2.5c-6.3,0.7-12.6,1.5-21.7,2.5
							c-0.9,0.1-1.5,0.9-1.4,1.7C982.4,442.1,983,442.7,983.8,442.7z"/>
						<path class="st28" d="M982.6,453.2c0,0,0.1,0,0.2,0c10.6-1.1,15.9-1.4,21.1-1.8c5.1-0.4,10.5-0.8,21.1-1.8
							c0.9-0.1,1.5-0.9,1.4-1.7c-0.1-0.9-0.8-1.5-1.7-1.4c-10.6,1.1-15.9,1.4-21.1,1.8c-5.1,0.4-10.5,0.8-21.1,1.8
							c-0.9,0.1-1.5,0.9-1.4,1.7C981.1,452.6,981.8,453.2,982.6,453.2z"/>
						<path class="st28" d="M992.8,461.7c0,0,0.1,0,0.2,0c3.3-0.3,6.9-0.7,10.6-1.2c6.9-0.8,14.1-1.6,20.3-1.9
							c0.9,0,1.5-0.8,1.5-1.7c0-0.9-0.7-1.6-1.7-1.5c-6.3,0.3-13.5,1.1-20.5,1.9c-3.7,0.4-7.3,0.8-10.6,1.1
							c-0.9,0.1-1.5,0.9-1.4,1.7C991.3,461.1,992,461.7,992.8,461.7z"/>
						<path class="st28" d="M1024.5,460C1024.5,460,1024.5,460,1024.5,460c0.9,0,1.6-0.7,1.6-1.6c-0.2-20.5,4.3-22.2,4.3-22.2
							c0.9-0.1,1.4-0.8,1.4-1.7c-0.1-0.9-0.9-1.5-1.8-1.4c-1.7,0.1-7.3,2.4-7,25.4C1022.9,459.3,1023.6,460,1024.5,460z"/>
						<path class="st28" d="M1063.8,450.8c0.5,0,1-0.3,1.3-0.7c0.5-0.7,0.2-1.7-0.5-2.2c-1.3-0.9-2.2-2.6-2.7-5.3
							c-0.8-4.7-0.2-9.6,1.6-14c0.3-0.8-0.1-1.7-0.9-2.1c-0.8-0.3-1.7,0.1-2.1,0.9c-2,5-2.7,10.4-1.8,15.7c0.6,3.6,2,6.1,4.1,7.5
							C1063.2,450.8,1063.5,450.8,1063.8,450.8z"/>
					</g>
					<path class="st29" d="M1281.5,431.2c0,0-48.8,50.4-73.9,91.1c0,0-7.9-6.9-9.4,1.8l-97-60c0,0-18,10.2-22.7,30.6
						c0,0,85.5,67.4,99.6,80c14.1,12.5,37.6,37.6,68.2-3.1c30.6-40.8,79.2-101.9,79.2-101.9s12.5-24.3-1.6-47
						C1309.7,399.8,1281.5,431.2,1281.5,431.2z"/>
					<path class="st30" d="M1215.5,540c0.3,0,0.5-0.1,0.8-0.3c0.5-0.4,0.6-1.2,0.2-1.8c-4.9-6.3-11.3-11.4-18.4-14.9
						c-0.6-0.3-1.4,0-1.7,0.6c-0.3,0.6,0,1.4,0.6,1.7c6.8,3.3,12.9,8.2,17.5,14.2C1214.8,539.8,1215.1,540,1215.5,540z"/>
					<path class="st30" d="M1217.7,534.2c0.3,0,0.6-0.1,0.9-0.3c0.5-0.5,0.5-1.3,0.1-1.8l-9.4-10c-0.5-0.5-1.3-0.5-1.8-0.1
						c-0.5,0.5-0.5,1.3-0.1,1.8l9.4,10C1217,534.1,1217.3,534.2,1217.7,534.2z"/>
					<path class="st30" d="M1091.9,502.3c0.5,0,0.9-0.3,1.1-0.7c0.1-0.2,8.8-19.2,20.2-26c0.6-0.4,0.8-1.1,0.4-1.7
						c-0.4-0.6-1.1-0.8-1.7-0.4c-12,7.2-20.8,26.3-21.2,27.1c-0.3,0.6,0,1.4,0.6,1.7C1091.5,502.3,1091.7,502.3,1091.9,502.3z"/>
				</g>
				<path class="st31" d="M1304,1230.6c0,0-35,19.8-56,31.7c-14.9,8.5-25.5,23.9-9,24.4c16.5,0.5,43.4-3.1,59.6-11.6
					c11.3-5.9,17.7-3.9,26-5.4c8.2-1.5,18-2.1,19.6-9.3c1.5-7.2-0.5-28.3-0.5-28.3L1304,1230.6z"/>
				<path class="st31" d="M1411.2,1233.4c0,1.5,3.1,20.6,0.5,38.1c-2.6,17.5,3.4,25.2,22.4,23.7c19-1.5,28,2.6,20.8-20
					c-7.2-22.7-9.8-45.8-9.8-45.8L1411.2,1233.4z"/>
				<path class="st32" d="M1256.3,701.7l38.6,533.8c0,0,32.8,10.8,55.1,0l3-433.5l44.4,434.5c0,0,27,14.7,57,0l1-563.2
					C1455.2,673.3,1277.5,674.2,1256.3,701.7z"/>
				<path class="st33" d="M1358.1,805.8c0.3,0,0.6-0.1,0.9-0.4c0.3-0.3,0.4-0.7,0.4-1c-0.1-0.6-7.8-64.1-7.5-74.2
					c0-0.7-0.5-1.3-1.2-1.3c-0.5,0-1.3,0.5-1.3,1.2c-0.2,9.6,6.1,62.8,7.3,73l-9.5-1.2c-2.8-11.1-12.3-69.8-12.4-72.7
					c0-0.6-0.3-1.1-0.9-1.3c-0.7-0.2-1.4,0.1-1.6,0.8c-0.6,1.7,10.6,67.3,12.7,74.6c0.1,0.5,0.5,0.8,1,0.9l11.9,1.6
					C1358,805.8,1358,805.8,1358.1,805.8z"/>
				<path class="st31" d="M1256.3,701.7l1.6,21.6c17.5,5.9,95.7,23.7,197.3,0.3l0.1-50.3C1455.2,673.3,1277.5,674.2,1256.3,701.7z"
					/>
				<polygon class="st32" points="1278.4,712.7 1279.8,739 1285.8,738.8 1287.7,710.8 				"/>
				<polygon class="st32" points="1392.8,716.2 1394.2,742.6 1400.2,742.3 1402.1,714.3 				"/>
				<polygon class="st32" points="1303.1,715.9 1304.5,742.3 1310.5,742 1312.4,714 				"/>
				<polygon class="st32" points="1362.1,717.3 1363.5,743.6 1369.5,743.4 1371.4,715.4 				"/>
				<path class="st29" d="M1265.3,717.3c10.9,3,23.3,3,34.1,4.1c15.6,1.7,31.2,2.9,46.9,3.4c36.7,1.3,74.7-0.1,110.2-10.5
					c0.5-0.2,1.1-21.4,1.3-23.2c1.7-12.3,1.8-24.7,1.2-37c-1.3-25-5.4-49.8-4.7-74.9c0.8-29.3,8.3-57.8,12-86.7
					c1.8-14.1,3.2-29,1.4-43.2c-1.6-12.4-10.6-22.4-20.8-29.4c-38.5-26.4-119-38.5-149-6c-13.3,14.4-29.9,27.2-36.7,45.9
					c-7.5,20.6-11.8,39.1-11.9,61.2c-0.2,31,3.3,61.9,5.1,92.8c1.6,27.9,3.7,58.9-4.8,85.8c-0.7,2.3-1.5,4.8-0.9,7.1
					c0.7,2.5,2.9,4.3,5.2,5.7C1257.4,714.7,1261.3,716.2,1265.3,717.3z"/>
				<g>
					<path class="st27" d="M1388.9,346.9l-2.5,65.4c0,0,2.5,26.5-37.9,25.9c0,0-25.7-3.3-25.3-29.1l0.9-58.8L1388.9,346.9z"/>
					<path class="st34" d="M1388.6,353.6l0.3-6.7l-64.5,3.4c-0.1,0.2-0.2,0.3-0.3,0.5l-0.5,32.2
						C1337.9,390.1,1368.2,398.2,1388.6,353.6z"/>
					<path class="st27" d="M1399.1,332.6c-5.4,16.5-15.6,33.5-30.3,43.3c-14.5,9.7-35.2,10.9-47.3-3.2c-7-8.1-10-19-11-29.7
						c-0.5-5.5-0.5-11.1-1.3-16.6c-0.6-4.4-1.8-8.8-2.5-13.2c-0.8-5.7-0.8-11.5-0.5-17.3c0.4-6.6,1.2-13.4,3.8-19.5
						c9.1-21.7,38.5-23.9,57.7-16.1c25,10,38.1,36,33.8,62.3c0,0.3-0.1,0.5-0.1,0.8C1400.9,326.2,1400.2,329.3,1399.1,332.6z"/>
					<path class="st35" d="M1351.8,314.1c0,2.5,2,4.4,4.4,4.4c2.5,0,4.4-2,4.4-4.4c0-2.5-2-4.4-4.4-4.4
						C1353.8,309.7,1351.8,311.7,1351.8,314.1z"/>
					<path class="st35" d="M1316.2,314.1c0,2.5,2,4.4,4.4,4.4c2.5,0,4.4-2,4.4-4.4c0-2.5-2-4.4-4.4-4.4
						C1318.2,309.7,1316.2,311.7,1316.2,314.1z"/>
					<path class="st36" d="M1336.2,344.6c0.6,0,1.2,0,1.7-0.1c0.5,0,0.8-0.5,0.8-0.9c0-0.5-0.5-0.8-0.9-0.8
						c-1.1,0.1-2.2,0.2-3.2-0.1c-0.8-0.2-1.7-0.7-2-1.6c-0.2-0.7-0.1-1.5,0.1-2.3l5.1-26.3c0.1-0.5-0.2-0.9-0.7-1
						c-0.5-0.1-0.9,0.2-1,0.7l-5.1,26.3c-0.2,0.9-0.4,2.1,0,3.2c0.4,1.3,1.6,2.3,3.2,2.7C1334.9,344.5,1335.5,344.6,1336.2,344.6z"
						/>
					<g>
						<path class="st37" d="M1330.8,353c0,0,20-1.8,33.6-5.5c0,0-1.4,13.3-14.5,15.9C1336.7,366,1330.8,353,1330.8,353z"/>
						<path class="st38" d="M1361.5,355.3c-2.1,3.4-5.6,6.9-11.7,8.1c-4,0.8-7.4,0.1-10.1-1.2
							C1344.8,355.7,1356.4,355.2,1361.5,355.3z"/>
						<path class="st39" d="M1334.7,356l-1-3.3c6.1-0.6,20.2-2.4,30.6-5.2c0,0-0.2,1.6-0.9,3.8C1358,353.1,1344.4,357.2,1334.7,356z
							"/>
					</g>
					<path class="st40" d="M1358.5,300.9c-2.8-0.7-5.6-1.6-8.4-2.4c-0.7-0.2-1.4-0.5-1.8-1.1c-0.6-0.9-0.1-2.2,0.7-2.9
						c3.2-3.1,11.4-1.7,15.1,0.3c1.5,0.8,4.3,3.6,3.9,5.4C1367.3,303.3,1360.6,301.5,1358.5,300.9z"/>
					<path class="st40" d="M1320.7,300.9c2.8-0.7,5.6-1.6,8.4-2.4c0.7-0.2,1.4-0.5,1.8-1.1c0.6-0.9,0.1-2.2-0.7-2.9
						c-3.2-3.1-11.4-1.7-15.1,0.3c-1.5,0.8-4.3,3.6-3.9,5.4C1311.9,303.3,1318.6,301.5,1320.7,300.9z"/>
					<path class="st40" d="M1412.3,259.5c-0.4,0.5-1,0.9-1.4,1.4c-0.6,0.8-0.6,1.8-0.7,2.7c-0.3,11.6,0.7,23.1,0.7,34.6
						c-0.7,12.5-4.4,24.6-8.1,36.5c-0.8,2.5-2.3-0.4-2.9-1.6c-0.7-1.5-1.1-3.2-1-4.9c0-0.4,0-0.9-0.2-1.3c-0.5-0.7-1.5-0.5-2.1,0
						c-0.6,0.5-1,1.2-1.7,1.7c-1.2,0.8-2.9,0.4-3.9-0.5c-1-1-1.5-2.5-1.7-3.9c-0.1-1.2-0.1-2.5,0-3.7c0.3-3.8,1.2-7.6-0.3-11
						c-1.1-2.5-3.4-4.2-5.4-6c-3.1-2.6-6.1-5.7-7.7-9.4c-1.6-3.8-1.7-8.4,0.7-11.7c1.4-1.9,3.6-3.6,3.4-6c-0.1-1.2-0.9-2.2-1.8-3
						c-3.8-3.4-9.2-3.7-14.2-3.9c-9.8-0.4-19.6-0.9-29.4-0.3c-4.4,0.3-8.7,1-13,1.1c-3.1,0.1-6.5,2-7.1,5.2
						c-0.3,1.1-0.1,2.3-0.6,3.3c-0.4,0.9-1.3,1.7-2,2.5c-1.8,2-2.7,4.7-3.4,7.3c-0.9,3.2-1.7,6.4-2.3,9.7c0,0,0,0,0-0.1
						c-1-2-1.1-3.9-1.6-6c-0.3-1.3-0.7-2.4-0.7-3.6c-2.8-10.3-8-26.6-15.5-37.2c-11.7-16.5,3.9-49.1,32.9-27.9
						c20,14.6,40.3,21.2,55.1,25.1c1.3,0.3,2.6,0.7,3.9,1c1.1,0.3,2.2,0.7,3.3,1c3,0.9,6,2,9.1,2.3c3.2,0.3,6.5-0.1,9.7-0.8
						c0.4-0.1,0.8-0.1,1.2,0c1.7,0.8-0.1,4.4,1.7,4.7c1.6-0.8,3.3-1.6,4.9-1.3C1411.8,256,1413.2,258.1,1412.3,259.5z"/>
					<path class="st27" d="M1409.2,324.3c-1.6,5.1-5.3,9.1-9.7,10.5c-0.9,0.3-1.9,0.5-2.8,0c-8.1-4.4-3.8-23.3,2.1-27.7
						C1407.5,300.6,1411.6,316.7,1409.2,324.3z"/>
					<g>
						<path class="st35" d="M1398.4,328.7c-0.9,3.1-3.5,5.4-6,7.6c-2.6,2.2-5.4,4.6-8.7,5.5c-1.9,0.5-4.5,0.2-5.2-1.7
							c-0.7-1.9,1.1-3.7,2.6-5c3.8-3.1,7.5-6.1,11.3-9.2c0.7-0.6,1.4-1.2,1.7-2c1.1-3.5-0.1-6.1,3.7-8.4c2.6-1.6,5.3-1.3,7.4,1
							C1409.8,321.6,1405.8,330.7,1398.4,328.7z"/>
						<path class="st41" d="M1403.1,323c0-0.8,0-1.6-0.3-2.3c-0.3-0.7-0.8-1.4-1.6-1.6c-0.8-0.2-1.7,0.2-1.9,1
							c-0.1,0.5,0.1,1,0.3,1.5c1,2.6,0.5,5.2,1,7.7C1403.3,328.7,1403.1,325,1403.1,323z"/>
						<path class="st41" d="M1380.5,338.1l13.9-9.9c3.2-2.3,3.1-8.9,3-9.2c0-0.2-0.2-0.4-0.4-0.4c0,0,0,0,0,0
							c-0.2,0-0.4,0.2-0.4,0.4c0,0.1,0.2,6.4-2.7,8.4l-13.9,9.9L1380.5,338.1z"/>
					</g>
				</g>
				<path class="st42" d="M1390.8,380.8l-44.5,33.7l-7.6,18.9l-15.7-46.8l-16.2,20.7l2.7,26.1l12.1-14.8c0,0,4.9,16.6,14.8,21.1
					l7.2,0.9l12.1-0.4l9.9,4.9l31.5-34.6L1390.8,380.8z"/>
				<path class="st27" d="M1411.4,737.5l-12.2,14.7c0,0,9.6,20.8,35.3,16.5l4.3-17.8L1411.4,737.5z"/>
				<path class="st29" d="M1410.8,467.9c0,0,37.3,98.1,55.3,121.6l-60.8,144.5c0,0,9.7,19.4,35.9,22.1c0,0,60.1-118.2,67.7-128.6
					c7.6-10.4,16.6-27,16.6-34.6c0-7.6-42.2-138.2-65-159c-22.8-20.7-36.6-14.5-43.5-11.1C1410.1,426.5,1397.6,443.8,1410.8,467.9z"
					/>
				<path class="st30" d="M1408.2,729.5c0.5,0,1-0.3,1.2-0.8l57.9-138.7c0.1-0.3,0.1-0.7,0-1c-0.5-1-46.1-95.7-48.6-104.8
					c-0.4-1.4-1.1-3.2-2-5.5c-5.2-13.3-14.7-38,5.7-56.6c0.5-0.5,0.6-1.3,0.1-1.8c-0.5-0.5-1.3-0.5-1.8-0.1
					c-21.7,19.8-11.3,46.5-6.3,59.4c0.8,2.2,1.6,4,1.9,5.3c2.5,9,44.5,96.3,48.5,104.7L1407,727.8c-0.3,0.6,0,1.4,0.7,1.6
					C1407.8,729.5,1408,729.5,1408.2,729.5z"/>
				<path class="st30" d="M1505.9,599c0.4,0,0.9-0.2,1.1-0.7c0.3-0.6,0.1-1.4-0.5-1.7c-11.8-6.1-25.5-8.8-38.7-7.4
					c-0.7,0.1-1.2,0.7-1.1,1.4c0.1,0.7,0.6,1.2,1.4,1.1c12.8-1.3,26,1.3,37.3,7.2C1505.5,598.9,1505.7,599,1505.9,599z"/>
				<path class="st30" d="M1474.1,587.6h18.4c0.7,0,1.3-0.6,1.3-1.3c0-0.7-0.6-1.3-1.3-1.3h-18.4c-0.7,0-1.3,0.6-1.3,1.3
					C1472.9,587.1,1473.4,587.6,1474.1,587.6z"/>
				<path class="st30" d="M1480.1,599.4c0.5,0,1-0.3,1.2-0.9c0.2-0.7-0.2-1.4-0.8-1.6c-2.1-0.6-4.3-0.9-6.4-0.7
					c-0.7,0.1-1.2,0.7-1.1,1.3c0.1,0.7,0.6,1.2,1.3,1.1c1.8-0.1,3.7,0.1,5.4,0.6C1479.8,599.4,1479.9,599.4,1480.1,599.4z"/>
				<path class="st30" d="M1410,483.6c0.2,0,0.5-0.1,0.7-0.2c0.6-0.4,0.7-1.2,0.4-1.7c-1.4-2.1-2.4-4.5-3.2-6.8
					c-5.5-15-7.1-31.4-4.8-47.2c0.1-0.7-0.4-1.3-1.1-1.4c-0.7-0.1-1.3,0.4-1.4,1.1c-2.4,16.3-0.7,33,4.9,48.5c0.9,2.4,1.9,5,3.5,7.3
					C1409.2,483.4,1409.6,483.6,1410,483.6z"/>
				<path class="st30" d="M1339.6,438.3c0.4,0,0.8-0.2,1-0.6l11.1-16.5l8.9,12.9c0.2,0.3,0.5,0.5,0.8,0.5c0.3,0.1,0.7,0,1-0.2
					c0.2-0.2,22-16.9,33.1-32.7c0.4-0.6,0.3-1.3-0.3-1.7c-0.6-0.4-1.3-0.3-1.7,0.3c-9.5,13.6-27.1,27.9-31.5,31.4l-9.2-13.3
					c-0.2-0.3-0.6-0.5-1-0.5c-0.5-0.1-0.8,0.2-1,0.6l-12.2,18.1c-0.4,0.6-0.2,1.3,0.3,1.7C1339.1,438.3,1339.3,438.3,1339.6,438.3z"
					/>
				<path class="st30" d="M1335.2,439.4c0.2,0,0.3,0,0.5-0.1c0.6-0.3,0.9-1,0.7-1.6l-7-17.3c-0.2-0.4-0.5-0.7-0.9-0.8
					c-0.4-0.1-0.8,0.1-1.1,0.4l-9.6,10l-7.8-23.1c-0.2-0.7-0.9-1-1.6-0.8c-0.7,0.2-1,0.9-0.8,1.6l8.5,25.1c0.1,0.4,0.5,0.7,0.9,0.8
					c0.4,0.1,0.9,0,1.2-0.3l9.7-10l6.3,15.5C1334.2,439.1,1334.7,439.4,1335.2,439.4z"/>
				<path class="st30" d="M1321.2,722.2c0.5,0,1-0.3,1.2-0.9c9.1-29.2,12.7-112.4,7.4-171.2c-5.1-56.3,8.7-107.8,8.8-108.3
					c0.2-0.7-0.2-1.4-0.9-1.5c-0.7-0.2-1.4,0.2-1.5,0.9c-0.1,0.5-14,52.5-8.9,109.2c5.3,58.5,1.7,141.2-7.3,170.2
					c-0.2,0.7,0.2,1.4,0.8,1.6C1320.9,722.2,1321,722.2,1321.2,722.2z"/>
				<path class="st30" d="M1399.7,510.6l-49.9-0.4c-0.3,0-0.7-0.2-0.9-0.4c-0.2-0.3-0.4-0.6-0.3-0.9l0.8-9.9
					c0.1-0.7,0.6-1.1,1.2-1.1c0,0,0,0,0,0l49.1,0.4c0.7,0,1.2,0.6,1.2,1.3v9.9c0,0.3-0.1,0.7-0.4,0.9
					C1400.3,510.4,1400,510.6,1399.7,510.6C1399.7,510.6,1399.7,510.6,1399.7,510.6z M1351.8,500.3l-0.6,7.4l47.3,0.4v-7.4
					L1351.8,500.3z"/>
				<path class="st30" d="M1252.6,583.8C1252.7,583.8,1252.7,583.8,1252.6,583.8c0.8-0.1,1.3-0.7,1.2-1.3
					c-0.1-0.8-6.1-77.6,3.1-101.4l1.3-3.4c8.4-21.7,13-33.6,18.1-39.4c0.5-0.5,0.4-1.3-0.1-1.8c-0.5-0.5-1.3-0.4-1.8,0.1
					c-5.4,6.1-9.8,17.5-18.5,40.1l-1.3,3.4c-9.4,24.3-3.5,99.3-3.2,102.5C1251.4,583.3,1252,583.8,1252.6,583.8z"/>
				<path class="st43" d="M1449.1,737.9c0.5,0,1.1-0.4,1.2-0.9c0.2-0.7-0.2-1.4-0.9-1.5c-24.6-6.9-32.3-16.6-32.4-16.7
					c-0.4-0.5-1.2-0.6-1.8-0.2c-0.5,0.4-0.7,1.2-0.2,1.8c0.3,0.4,8.2,10.4,33.7,17.6C1448.9,737.9,1449,737.9,1449.1,737.9z"/>
				<path class="st33" d="M1381.8,808.8c0.6,0,1.2-0.5,1.2-1.1c0.1-0.7-0.4-1.3-1.1-1.4c-29.9-2.7-49.6-6.7-49.8-6.7
					c-0.7-0.1-1.3,0.3-1.5,1c-0.1,0.7,0.3,1.3,1,1.5c0.2,0,20,4.1,50.1,6.8C1381.7,808.8,1381.8,808.8,1381.8,808.8z"/>
				<path class="st33" d="M1431.8,770.8c6.4,0,13.5-1.6,21.2-5.5c0.6-0.3,0.9-1.1,0.5-1.7c-0.3-0.6-1.1-0.8-1.7-0.5
					c-15.4,7.9-30,6.9-43.4-2.7c-10-7.3-15.5-16.9-15.6-17c-0.3-0.6-1.1-0.8-1.7-0.5c-0.6,0.3-0.8,1.1-0.5,1.7
					C1390.9,744.9,1405.8,770.8,1431.8,770.8z"/>
			</g>
		</g>
		<g>
			<g>
				<path class="st10" d="M1061.2,66.8c-1.4-1-2.8-2-4.3-2.8c-13-7.8-28.1-10.7-43.2-8.2c-16.8,2.8-31.5,11.9-41.4,25.8
					c-9.9,13.8-13.9,30.7-11.1,47.5c2.8,16.8,11.9,31.5,25.8,41.4c13.9,9.9,30.7,13.9,47.5,11.1c16.8-2.8,31.5-11.9,41.4-25.8
					C1096.4,127.2,1089.8,87.3,1061.2,66.8z"/>
				
					<linearGradient id="SVGID_11_" gradientUnits="userSpaceOnUse" x1="880.8874" y1="309.4637" x2="1011.7734" y2="309.4637" gradientTransform="matrix(0.8564 0.5164 -0.5164 0.8564 373.4236 -635.1017)">
					<stop  offset="0" style="stop-color:#FFCC48"/>
					<stop  offset="0.9996" style="stop-color:#FF9C00"/>
				</linearGradient>
				<path class="st44" d="M1062.2,65.4c-29.4-21.1-70.3-14.3-91.3,15.1c-21.1,29.4-14.3,70.3,15.1,91.3
					c29.4,21.1,70.3,14.3,91.3-15.1l0,0l0,0l0,0C1098.3,127.3,1091.6,86.5,1062.2,65.4z M1075.9,155.7c-9.9,13.8-24.6,23-41.4,25.8
					c-16.8,2.8-33.6-1.2-47.5-11.1c-13.8-9.9-23-24.6-25.8-41.4c-2.8-16.8,1.2-33.7,11.1-47.5c9.9-13.8,24.6-23,41.4-25.8
					c15.1-2.5,30.3,0.4,43.2,8.2c1.5,0.9,2.9,1.8,4.3,2.8C1089.8,87.3,1096.4,127.2,1075.9,155.7z"/>
				<path class="st12" d="M1062.2,65.4c-14.2-10.2-31.5-14.2-48.8-11.4c-17.2,2.8-32.4,12.2-42.5,26.4
					c-10.2,14.2-14.2,31.5-11.4,48.8c2.8,17.2,12.2,32.4,26.5,42.5c1.4,1,2.9,2,4.4,2.9c13.3,8,28.9,11,44.4,8.5
					c17.2-2.8,32.4-12.2,42.5-26.4C1098.3,127.4,1091.5,86.4,1062.2,65.4z M1074.6,154.8c-9.7,13.5-24,22.4-40.4,25.1
					c-16.4,2.7-32.8-1.1-46.3-10.8c-13.5-9.7-22.4-24-25.1-40.4c-2.7-16.4,1.1-32.8,10.8-46.3c9.7-13.5,24-22.4,40.4-25.1
					c14.7-2.4,29.5,0.4,42.1,8c1.4,0.9,2.8,1.8,4.2,2.8C1088.1,88.1,1094.5,127,1074.6,154.8z"/>
				
					<ellipse transform="matrix(0.5235 -0.852 0.852 0.5235 386.8685 929.0086)" class="st13" cx="1024.1" cy="118.6" rx="55.6" ry="55.6"/>
				<g>
					<g class="st14">
						<path class="st15" d="M999.1,81.2c1.2-0.6,17.6,0,17.6,0v-8.5h14.1v8.5h18.5v15.6l-34.6,43.7h34.6v13.8h-19.1v9.4H1017v-9.1
							h-20.5v-13.2l37-46.4h-34.3V81.2z"/>
					</g>
					<g>
						<g>
							<path class="st16" d="M998.5,80.3c1.2-0.6,17.6,0,17.6,0v-8.5h14.1v8.5h18.5v15.6l-34.6,43.7h34.6v13.8h-19.1v9.4h-13.2v-9.1
								h-20.5v-13.2l37-46.4h-34.3V80.3z"/>
						</g>
					</g>
				</g>
				<g>
					<defs>
						
							<ellipse id="SVGID_12_" transform="matrix(0.5235 -0.852 0.852 0.5235 386.8685 929.0086)" cx="1024.1" cy="118.6" rx="55.6" ry="55.6"/>
					</defs>
					<clipPath id="SVGID_13_">
						<use xlink:href="#SVGID_12_"  style="overflow:visible;"/>
					</clipPath>
					<g class="st45">
						
							<rect x="1014.7" y="38.4" transform="matrix(0.1629 0.9866 -0.9866 0.1629 977.4742 -904.6436)" class="st18" width="14.3" height="170.6"/>
						
							<rect x="997.4" y="13.5" transform="matrix(0.1629 0.9866 -0.9866 0.1629 943.2379 -914.0972)" class="st18" width="25.7" height="170.6"/>
						
							<rect x="1020.1" y="57.2" transform="matrix(0.1629 0.9866 -0.9866 0.1629 997.4772 -890.6852)" class="st18" width="7.2" height="170.6"/>
					</g>
				</g>
				<path class="st13" d="M979.5,88.7c17.9-25,52.6-30.7,77.6-12.8c10.7,7.7,17.8,18.4,21.1,30.1c-3-12.7-10.3-24.4-21.7-32.6
					c-25-17.9-59.7-12.2-77.6,12.8c-10.2,14.3-12.7,31.8-8.3,47.4C967.1,118.6,969.8,102.2,979.5,88.7z"/>
				<path class="st13" d="M1077.6,103.8c3.7,15.2,1,31.8-8.8,45.4c-17.9,25-52.6,30.7-77.6,12.8c-10.7-7.7-17.9-18.5-21.2-30.3
					c3,12.5,10.3,24,21.6,32.1c25,17.9,59.7,12.1,77.6-12.8C1079.4,136.8,1081.9,119.4,1077.6,103.8z"/>
			</g>
			<g>
				<path class="st10" d="M1203.2,520.7c-1.7-0.1-3.4-0.2-5.1-0.2c-15.1,0-29.6,5.2-41.3,15.1c-13,11-20.9,26.4-22.3,43.4
					c-1.4,17,3.9,33.5,14.9,46.5c11,13,26.4,20.9,43.4,22.3c17,1.4,33.5-3.9,46.5-14.9c13-11,20.9-26.4,22.3-43.4
					C1264.4,554.4,1238.2,523.6,1203.2,520.7z"/>
				
					<linearGradient id="SVGID_14_" gradientUnits="userSpaceOnUse" x1="1284.9948" y1="650.3686" x2="1415.886" y2="650.3686" gradientTransform="matrix(1 2.800000e-03 -2.800000e-03 1 -150.6631 -69.9077)">
					<stop  offset="0" style="stop-color:#FFCC48"/>
					<stop  offset="0.9996" style="stop-color:#FF9C00"/>
				</linearGradient>
				<path class="st46" d="M1203.3,519c-36-3-67.6,23.8-70.6,59.9c-3,36,23.8,67.6,59.9,70.6c36,3,67.6-23.8,70.6-59.9v0l0,0l0,0
					C1266.1,553.6,1239.3,522,1203.3,519z M1261.5,589.5c-1.4,17-9.3,32.4-22.3,43.4c-13,11-29.5,16.3-46.5,14.9
					c-17-1.4-32.4-9.3-43.4-22.3c-11-13-16.3-29.5-14.9-46.5c1.4-17,9.3-32.4,22.3-43.4c11.7-9.9,26.2-15.2,41.3-15.1
					c1.7,0,3.4,0.1,5.1,0.2C1238.2,523.6,1264.4,554.4,1261.5,589.5z"/>
				<path class="st12" d="M1203.3,519c-17.4-1.4-34.4,4-47.7,15.3c-13.3,11.3-21.5,27.1-22.9,44.5c-1.4,17.4,4,34.4,15.3,47.7
					c11.3,13.3,27.1,21.5,44.6,22.9c1.8,0.1,3.5,0.2,5.3,0.2c15.5,0,30.4-5.4,42.4-15.5c13.3-11.3,21.5-27.1,22.9-44.5
					C1266.1,553.6,1239.3,522,1203.3,519z M1259.9,589.3c-1.4,16.5-9.1,31.6-21.7,42.3c-12.7,10.7-28.7,15.9-45.3,14.5
					c-16.5-1.4-31.6-9.1-42.3-21.7c-10.7-12.7-15.9-28.7-14.5-45.3c1.4-16.5,9.1-31.6,21.7-42.3c11.4-9.6,25.5-14.8,40.3-14.8
					c1.7,0,3.3,0.1,5,0.2C1237.2,525.1,1262.7,555.2,1259.9,589.3z"/>
				
					<ellipse transform="matrix(0.8075 -0.5899 0.5899 0.8075 -114.0005 819.2053)" class="st13" cx="1198" cy="584.2" rx="55.6" ry="55.6"/>
				<g>
					<g class="st14">
						<polygon class="st15" points="1197.5,538.1 1167.9,590.8 1197.5,609.3 1228.7,591.1 						"/>
						<polygon class="st15" points="1167.9,590.8 1198.3,579.5 1228.7,591.1 1197.5,609.3 						"/>
						<polygon class="st15" points="1167.9,594.4 1197.1,614.7 1228.7,594.4 1197.2,636.6 						"/>
					</g>
					<g>
						<g>
							<polygon class="st16" points="1197.1,537.6 1167.6,590.3 1197.1,608.8 1228.3,590.6 							"/>
							<polygon class="st20" points="1167.6,590.3 1198,579 1228.3,590.6 1197.1,608.8 							"/>
							<polygon class="st16" points="1167.6,593.9 1196.7,614.2 1228.3,593.9 1196.9,636.1 							"/>
						</g>
					</g>
				</g>
				<g>
					<defs>
						
							<ellipse id="SVGID_15_" transform="matrix(0.8075 -0.5899 0.5899 0.8075 -114.0005 819.2053)" cx="1198" cy="584.2" rx="55.6" ry="55.6"/>
					</defs>
					<clipPath id="SVGID_16_">
						<use xlink:href="#SVGID_15_"  style="overflow:visible;"/>
					</clipPath>
					<g class="st47">
						
							<rect x="1191.5" y="504.4" transform="matrix(0.6468 0.7627 -0.7627 0.6468 873.1609 -705.9053)" class="st18" width="14.3" height="170.6"/>
						
							<rect x="1163.1" y="489" transform="matrix(0.6468 0.7627 -0.7627 0.6468 853.3766 -694.0379)" class="st18" width="25.7" height="170.6"/>
						
							<rect x="1206.3" y="519.6" transform="matrix(0.6468 0.7627 -0.7627 0.6468 888.6819 -709.0558)" class="st18" width="7.2" height="170.6"/>
					</g>
				</g>
				<path class="st13" d="M1144.3,581.5c2.5-30.6,29.4-53.4,60-50.9c13.1,1.1,24.7,6.6,33.6,15c-9-9.4-21.4-15.6-35.4-16.8
					c-30.6-2.5-57.4,20.3-60,50.9c-1.4,17.5,5.4,33.8,17.3,45C1149.1,613.5,1143,598.1,1144.3,581.5z"/>
				<path class="st13" d="M1236.3,544c10.9,11.1,17.2,26.7,15.8,43.5c-2.5,30.6-29.4,53.4-60,50.9c-13.2-1.1-24.9-6.7-33.7-15.1
					c9,9.2,21.2,15.3,35.1,16.5c30.6,2.5,57.4-20.3,60-50.9C1254.8,571.4,1248,555.2,1236.3,544z"/>
			</g>
			<g>
				<path class="st10" d="M68.5,263.9c-1.4,1-2.8,2-4.2,3c-11.9,9.4-19.9,22.6-22.8,37.6c-3.3,16.7,0.1,33.7,9.6,47.8
					c9.5,14.1,23.9,23.7,40.6,27c16.7,3.3,33.7-0.1,47.8-9.6c14.2-9.5,23.7-23.9,27-40.6c3.3-16.7-0.1-33.7-9.6-47.8
					C137.3,252.1,97.6,244.3,68.5,263.9z"/>
				
					<linearGradient id="SVGID_17_" gradientUnits="userSpaceOnUse" x1="231.8206" y1="51.9554" x2="362.7111" y2="51.9554" gradientTransform="matrix(0.7816 -0.6238 0.6238 0.7816 -160.748 461.6151)">
					<stop  offset="0" style="stop-color:#FFCC48"/>
					<stop  offset="0.9996" style="stop-color:#FF9C00"/>
				</linearGradient>
				<path class="st48" d="M67.5,262.5c-30,20.2-38,60.8-17.8,90.8c20.2,30,60.8,38,90.8,17.8c30-20.2,38-60.8,17.8-90.8l0,0l0,0l0,0
					C138.2,250.3,97.5,242.3,67.5,262.5z M156.9,281.2c9.5,14.1,12.9,31.1,9.6,47.8c-3.3,16.7-12.9,31.1-27,40.6
					c-14.1,9.5-31.1,12.9-47.8,9.6c-16.7-3.3-31.1-12.9-40.6-27c-9.5-14.1-12.9-31.1-9.6-47.8c2.9-15,11-28.2,22.8-37.6
					c1.3-1.1,2.7-2.1,4.2-3C97.6,244.3,137.3,252.1,156.9,281.2z"/>
				<path class="st12" d="M67.5,262.5C53,272.2,43.2,287,39.8,304.2c-3.4,17.2,0.1,34.6,9.9,49.1c9.7,14.5,24.6,24.4,41.7,27.7
					c17.2,3.4,34.6-0.1,49.1-9.9c1.5-1,2.9-2,4.3-3.1c12.2-9.7,20.4-23.2,23.4-38.6c3.4-17.2-0.1-34.6-9.9-49.1
					C138.2,250.3,97.5,242.3,67.5,262.5z M155.6,282.1c9.3,13.8,12.6,30.3,9.4,46.6c-3.2,16.3-12.5,30.3-26.3,39.6
					c-13.8,9.3-30.3,12.6-46.6,9.4c-16.3-3.2-30.4-12.5-39.6-26.3c-9.3-13.8-12.6-30.3-9.4-46.6c2.9-14.6,10.7-27.5,22.3-36.7
					c1.3-1,2.7-2,4.1-3C97.8,246.1,136.5,253.7,155.6,282.1z"/>
				
					<ellipse transform="matrix(0.8871 -0.4617 0.4617 0.8871 -134.502 83.7938)" class="st13" cx="104" cy="316.8" rx="55.6" ry="55.6"/>
				<g>
					<g class="st14">
						<polygon class="st15" points="74.6,281.3 84.4,341 119.1,337 132.1,303.3 						"/>
						<polygon class="st15" points="84.4,341 101.1,313.2 132.1,303.3 119.1,337 						"/>
						<polygon class="st15" points="86.7,343.8 122.1,341.5 134.2,305.9 135.8,358.5 						"/>
					</g>
					<g>
						<g>
							<polygon class="st16" points="74.3,280.8 84.1,340.5 118.7,336.5 131.7,302.8 							"/>
							<polygon class="st20" points="84.1,340.5 100.7,312.7 131.7,302.8 118.7,336.5 							"/>
							<polygon class="st16" points="86.3,343.3 121.7,341 133.8,305.4 135.5,358 							"/>
						</g>
					</g>
				</g>
				<g>
					<defs>
						
							<ellipse id="SVGID_18_" transform="matrix(0.8871 -0.4617 0.4617 0.8871 -134.502 83.7938)" cx="104" cy="316.8" rx="55.6" ry="55.6"/>
					</defs>
					<clipPath id="SVGID_19_">
						<use xlink:href="#SVGID_18_"  style="overflow:visible;"/>
					</clipPath>
					<g class="st49">
						
							<rect x="100.9" y="235.3" transform="matrix(0.9813 0.1926 -0.1926 0.9813 63.7608 -14.8035)" class="st18" width="14.3" height="170.6"/>
						
							<rect x="67.8" y="237.4" transform="matrix(0.9813 0.1926 -0.1926 0.9813 63.6579 -9.4935)" class="st18" width="25.7" height="170.6"/>
						
							<rect x="122.7" y="240.2" transform="matrix(0.9813 0.1926 -0.1926 0.9813 65.0478 -18.2165)" class="st18" width="7.2" height="170.6"/>
					</g>
				</g>
				<path class="st13" d="M60.4,348.1c-17.1-25.5-10.3-60,15.1-77.2c10.9-7.3,23.5-10.2,35.6-9.2c-12.9-1.7-26.4,1.1-38.1,8.9
					c-25.5,17.1-32.3,51.7-15.1,77.2c9.8,14.6,25.3,23,41.5,24.4C84.1,370.2,69.6,361.9,60.4,348.1z"/>
				<path class="st13" d="M108.8,261.4c15.5,1.9,30.1,10.2,39.5,24.1c17.1,25.5,10.3,60-15.1,77.2c-11,7.4-23.6,10.3-35.8,9.2
					c12.8,1.5,26.1-1.3,37.7-9c25.5-17.1,32.3-51.7,15.1-77.2C140.4,271.3,125,262.8,108.8,261.4z"/>
			</g>
			<g>
				<path class="st10" d="M91.1,541c-1.5-0.1-2.9-0.1-4.4-0.1c-12.9,0.1-25.1,4.7-34.9,13.2c-10.9,9.5-17.5,22.6-18.5,37.1
					c-1,14.4,3.6,28.4,13.1,39.3c9.5,10.9,22.6,17.5,37.1,18.5c14.4,1,28.4-3.6,39.3-13.1c10.9-9.5,17.5-22.6,18.5-37.1
					C143.3,569,120.8,543.1,91.1,541z"/>
				
					<linearGradient id="SVGID_20_" gradientUnits="userSpaceOnUse" x1="190.8978" y1="967.8636" x2="302.0157" y2="967.8636" gradientTransform="matrix(0.6456 0.7637 -0.7637 0.6456 667.2806 -218.0993)">
					<stop  offset="0" style="stop-color:#FFCC48"/>
					<stop  offset="0.9996" style="stop-color:#FF9C00"/>
				</linearGradient>
				<path class="st50" d="M91.2,539.6C60.6,537.4,34,560.4,31.8,591c-2.2,30.6,20.9,57.2,51.5,59.3c30.6,2.2,57.2-20.9,59.3-51.5v0
					h0h0C144.8,568.3,121.8,541.7,91.2,539.6z M141.2,598.8c-1,14.4-7.6,27.6-18.5,37.1c-10.9,9.5-24.9,14.1-39.3,13.1
					c-14.4-1-27.6-7.6-37.1-18.5c-9.5-10.9-14.1-24.9-13.1-39.3c1-14.4,7.6-27.6,18.5-37.1c9.8-8.5,22.1-13.1,34.9-13.2
					c1.4,0,2.9,0,4.4,0.1C120.8,543.1,143.3,569,141.2,598.8z"/>
				<path class="st12" d="M91.2,539.6c-14.8-1.1-29.1,3.7-40.3,13.5c-11.2,9.7-18,23.2-19,38c-1.1,14.8,3.7,29.1,13.5,40.3
					c9.7,11.2,23.2,18,38,19c1.5,0.1,3,0.2,4.5,0.1c13.2-0.1,25.8-4.9,35.9-13.6c11.2-9.7,18-23.2,19-38
					C144.8,568.3,121.7,541.7,91.2,539.6z M139.9,598.7c-1,14.1-7.4,26.9-18.1,36.1c-10.6,9.2-24.2,13.8-38.3,12.8
					c-14.1-1-26.9-7.4-36.1-18.1c-9.2-10.6-13.8-24.2-12.8-38.3c1-14.1,7.4-26.9,18.1-36.1c9.6-8.3,21.5-12.8,34-12.9
					c1.4,0,2.8,0,4.3,0.1C120,544.4,141.9,569.7,139.9,598.7z"/>
				<path class="st13" d="M134.3,598.3c-1.8,26-24.4,45.6-50.4,43.7c-26-1.8-45.6-24.4-43.7-50.4c1.8-26,24.4-45.6,50.4-43.7
					C116.6,549.7,136.2,572.3,134.3,598.3z"/>
				<g>
					<g class="st14">
						<polygon class="st15" points="40.6,603.8 44.6,613.8 70.5,613.8 70.5,593.6 88.4,611.6 105,595 105,613.8 131.5,613.8 
							135,603.7 115.3,603.7 115.3,570.2 88.2,597.2 60.6,568.4 60.6,603.7 						"/>
					</g>
					<g>
						<g>
							<polygon class="st16" points="40,603.1 44.1,613.1 69.9,613.1 69.9,592.9 87.9,610.9 104.5,594.3 104.5,613.1 131,613.1 
								134.4,603 114.7,603 114.7,569.5 87.7,596.5 60,567.7 60,603 							"/>
						</g>
					</g>
				</g>
				<g>
					<defs>
						<path id="SVGID_21_" d="M134.3,598.3c-1.8,26-24.4,45.6-50.4,43.7c-26-1.8-45.6-24.4-43.7-50.4c1.8-26,24.4-45.6,50.4-43.7
							C116.6,549.7,136.2,572.3,134.3,598.3z"/>
					</defs>
					<clipPath id="SVGID_22_">
						<use xlink:href="#SVGID_21_"  style="overflow:visible;"/>
					</clipPath>
					<g class="st51">
						
							<rect x="81.8" y="527.2" transform="matrix(0.6554 0.7553 -0.7553 0.6554 483.2273 140.244)" class="st18" width="12.2" height="144.9"/>
						
							<rect x="57.6" y="514.3" transform="matrix(0.6554 0.7553 -0.7553 0.6554 466.8073 150.4798)" class="st18" width="21.9" height="144.9"/>
						
							<rect x="94.5" y="540" transform="matrix(0.6554 0.7553 -0.7553 0.6554 496.2053 137.3853)" class="st18" width="6.1" height="144.9"/>
					</g>
				</g>
				<path class="st13" d="M41.7,593.1c1.8-26,24.4-45.6,50.4-43.7c11.1,0.8,21.1,5.4,28.7,12.4c-7.8-7.9-18.3-13.1-30.2-13.9
					c-26-1.8-48.6,17.7-50.4,43.7c-1.1,14.9,4.9,28.6,15.1,38C46,620.3,40.7,607.2,41.7,593.1z"/>
				<path class="st13" d="M119.4,560.4c9.4,9.3,14.8,22.5,13.8,36.8c-1.8,26-24.4,45.6-50.4,43.7c-11.2-0.8-21.2-5.4-28.8-12.5
					c7.7,7.7,18.2,12.8,29.9,13.6c26,1.8,48.6-17.7,50.4-43.7C135.4,583.5,129.4,569.8,119.4,560.4z"/>
			</g>
			<g>
				<path class="st10" d="M255.3,114.8c-1.2,0.4-2.3,0.8-3.4,1.2c-9.8,4.1-17.8,11.4-22.6,21c-5.4,10.6-6.4,22.7-2.7,34.1
					c3.7,11.4,11.6,20.6,22.2,26c10.6,5.4,22.7,6.4,34.1,2.7c11.4-3.7,20.6-11.6,26-22.2c5.4-10.6,6.4-22.7,2.7-34.1
					C304,120,278.7,107.1,255.3,114.8z"/>
				
					<linearGradient id="SVGID_23_" gradientUnits="userSpaceOnUse" x1="-47.0292" y1="376.212" x2="44.7094" y2="376.212" gradientTransform="matrix(0.885 0.4656 -0.4656 0.885 445.265 -175.1559)">
					<stop  offset="0" style="stop-color:#FFCC48"/>
					<stop  offset="0.9996" style="stop-color:#FF9C00"/>
				</linearGradient>
				<path class="st52" d="M254.9,113.6c-24.1,7.8-37.3,33.7-29.5,57.8s33.7,37.3,57.8,29.5c24.1-7.8,37.3-33.7,29.5-57.8v0l0,0l0,0
					C304.9,119,279,105.8,254.9,113.6z M311.6,143.5c3.7,11.4,2.7,23.5-2.7,34.1c-5.4,10.6-14.6,18.5-26,22.2
					c-11.4,3.7-23.5,2.7-34.1-2.7c-10.6-5.4-18.5-14.7-22.2-26c-3.7-11.4-2.7-23.5,2.7-34.1c4.9-9.6,12.8-16.9,22.6-21
					c1.1-0.5,2.2-0.9,3.4-1.2C278.7,107.1,304,120,311.6,143.5z"/>
				<path class="st12" d="M254.9,113.6c-11.6,3.8-21.1,11.9-26.7,22.8c-5.6,10.9-6.5,23.3-2.8,35c3.8,11.7,11.9,21.1,22.8,26.7
					c10.9,5.6,23.3,6.5,35,2.8c1.2-0.4,2.3-0.8,3.5-1.3c10.1-4.2,18.2-11.7,23.2-21.5c5.6-10.9,6.5-23.3,2.8-35
					C304.9,119,279,105.8,254.9,113.6z M310.5,143.8c3.6,11.1,2.7,22.9-2.6,33.2c-5.3,10.4-14.3,18-25.4,21.6
					c-11.1,3.6-22.9,2.7-33.2-2.6c-10.4-5.3-18.1-14.3-21.6-25.4c-3.6-11.1-2.7-22.9,2.6-33.2c4.7-9.3,12.5-16.5,22.1-20.4
					c1.1-0.4,2.2-0.9,3.3-1.2C278.5,108.4,303.1,121,310.5,143.8z"/>
				
					<ellipse transform="matrix(0.9608 -0.2774 0.2774 0.9608 -33.0607 80.8089)" class="st13" cx="269.1" cy="157.3" rx="39" ry="39"/>
				<g>
					<g class="st14">
						<polygon class="st15" points="235.9,178.7 242.1,185 261.9,177 255.6,161.6 275,169.8 282.5,151.9 288.3,166.3 308.6,158.1 
							308.1,149.3 293,155.4 282.7,129.8 270.3,158.9 240.2,145.4 251.2,172.4 						"/>
					</g>
					<g>
						<g>
							<polygon class="st16" points="235.5,178.1 241.7,184.5 261.4,176.4 255.2,161 274.5,169.2 282.1,151.4 287.9,165.7 
								308.2,157.5 307.7,148.8 292.6,154.9 282.2,129.2 269.9,158.3 239.8,144.8 250.7,171.8 							"/>
						</g>
					</g>
				</g>
				<g>
					<defs>
						
							<ellipse id="SVGID_24_" transform="matrix(0.9608 -0.2774 0.2774 0.9608 -33.0607 80.8089)" cx="269.1" cy="157.3" rx="39" ry="39"/>
					</defs>
					<clipPath id="SVGID_25_">
						<use xlink:href="#SVGID_24_"  style="overflow:visible;"/>
					</clipPath>
					<g class="st53">
						
							<rect x="266" y="100.8" transform="matrix(0.8909 0.4542 -0.4542 0.8909 102.5198 -105.5882)" class="st18" width="10.1" height="119.6"/>
						
							<rect x="243.2" y="97" transform="matrix(0.8909 0.4542 -0.4542 0.8909 98.7256 -97.4473)" class="st18" width="18" height="119.6"/>
						
							<rect x="279.9" y="107.6" transform="matrix(0.8909 0.4542 -0.4542 0.8909 106.8426 -109.9885)" class="st18" width="5" height="119.6"/>
					</g>
				</g>
				<path class="st13" d="M233.6,170c-6.6-20.5,4.6-42.5,25-49.1c8.8-2.8,17.8-2.4,25.8,0.6c-8.4-3.6-18-4.3-27.4-1.3
					c-20.5,6.6-31.7,28.6-25,49.1c3.8,11.7,12.6,20.4,23.3,24.4C245.4,189.4,237.2,181.1,233.6,170z"/>
				<path class="st13" d="M283,120.9c10.1,4.2,18.3,12.6,22,23.9c6.6,20.5-4.6,42.5-25,49.1c-8.8,2.9-17.9,2.4-25.9-0.7
					c8.3,3.5,17.9,4.2,27.1,1.2c20.5-6.6,31.7-28.6,25-49.1C302.4,133.6,293.6,124.9,283,120.9z"/>
			</g>
			<g>
				<path class="st10" d="M1208.9,288.6c-1.1-0.5-2.2-0.9-3.3-1.3c-9.9-3.5-20.6-3.3-30.4,0.5c-11,4.2-19.7,12.5-24.5,23.3
					c-4.8,10.8-5.1,22.8-0.8,33.8c4.2,11,12.5,19.7,23.3,24.5c10.8,4.8,22.8,5.1,33.8,0.8c11-4.2,19.7-12.5,24.5-23.3
					C1241.2,324.6,1231.1,298.5,1208.9,288.6z"/>
				
					<linearGradient id="SVGID_26_" gradientUnits="userSpaceOnUse" x1="1141.1743" y1="827.3937" x2="1231.7465" y2="827.3937" gradientTransform="matrix(0.9434 0.3318 -0.3318 0.9434 346.1973 -845.309)">
					<stop  offset="0" style="stop-color:#FFCC48"/>
					<stop  offset="0.9996" style="stop-color:#FF9C00"/>
				</linearGradient>
				<path class="st54" d="M1209.3,287.5c-22.9-10.1-49.6,0.2-59.8,23c-10.1,22.9,0.2,49.6,23,59.8c22.9,10.1,49.6-0.2,59.8-23v0l0,0
					l0,0C1242.5,324.4,1232.2,297.7,1209.3,287.5z M1231.3,346.8c-4.8,10.8-13.5,19-24.5,23.3c-11,4.2-23,3.9-33.8-0.8
					c-10.8-4.8-19-13.5-23.3-24.5c-4.2-11-3.9-23,0.8-33.8c4.8-10.8,13.5-19,24.5-23.3c9.9-3.8,20.6-4,30.4-0.5
					c1.1,0.4,2.2,0.8,3.3,1.3C1231.1,298.5,1241.2,324.6,1231.3,346.8z"/>
				<path class="st12" d="M1209.3,287.5c-11-4.9-23.4-5.2-34.6-0.9c-11.3,4.4-20.2,12.8-25.1,23.9c-4.9,11.1-5.2,23.4-0.9,34.6
					c4.4,11.3,12.8,20.2,23.9,25.1c1.1,0.5,2.3,0.9,3.4,1.4c10.1,3.6,21.1,3.4,31.2-0.5c11.3-4.4,20.2-12.8,25.1-23.9
					C1242.5,324.4,1232.2,297.6,1209.3,287.5z M1230.3,346.4c-4.7,10.5-13.1,18.6-23.8,22.7c-10.7,4.1-22.4,3.8-32.9-0.8
					c-10.5-4.7-18.6-13.1-22.7-23.8c-4.1-10.7-3.8-22.4,0.8-32.9c4.7-10.5,13.1-18.6,23.8-22.7c9.6-3.7,20-3.9,29.7-0.5
					c1.1,0.4,2.2,0.8,3.2,1.3C1230.1,299.2,1239.9,324.7,1230.3,346.4z"/>
				
					<ellipse transform="matrix(0.6706 -0.7418 0.7418 0.6706 148.3118 991.843)" class="st13" cx="1191" cy="328.9" rx="38.5" ry="38.5"/>
				<g>
					<g class="st14">
						<path class="st15" d="M1214.7,328.3l0.2-0.6c1.9-5.4-0.8-11.3-6.1-13.5c-0.2-0.1-0.4-0.2-0.6-0.2l-5.9-2l1.9-5.6l-3.2-1.1
							l-1.9,5.6l-2.3-0.8l1.9-5.6l-5.7-2l-1.9,5.6l-12.2-4.2l-3.2,9.2l2.9,1l-8.5,24.6l-2.9-1l-2.9,8.5l12.2,4.2l-1.5,4.5l5.7,2
							l1.5-4.5l2.3,0.8l-1.5,4.5l3.2,1.1l1.5-4.5l5.7,2c0.2,0.1,0.5,0.2,0.7,0.2c5.5,1.5,11.3-1.5,13.2-7l0.2-0.6
							c1.9-5.4-0.8-11.3-6.1-13.5c-0.2-0.1-0.4-0.2-0.6-0.2c0.2,0.1,0.4,0.1,0.6,0.2C1207,336.8,1212.8,333.8,1214.7,328.3z
							 M1193.1,342.2c-0.6,1.7-2.5,2.7-4.2,2.1l-3.5-1.2l2.9-8.5l3.6,1.2c1.7,0.6,2.6,2.4,2,4.1L1193.1,342.2z M1198.3,327
							c-0.6,1.7-2.5,2.6-4.2,2l-3.5-1.2l2.9-8.5l3.6,1.2c1.7,0.6,2.6,2.4,2,4.1L1198.3,327z"/>
					</g>
					<g>
						<g>
							<path class="st16" d="M1214.2,327.7l0.2-0.6c1.9-5.4-0.8-11.3-6.1-13.5c-0.2-0.1-0.4-0.2-0.6-0.2l-5.9-2l1.9-5.6l-3.2-1.1
								l-1.9,5.6l-2.3-0.8l1.9-5.6l-5.7-2l-1.9,5.6l-12.2-4.2l-3.2,9.2l2.9,1l-8.5,24.6l-2.9-1l-2.9,8.5l12.2,4.2l-1.5,4.5l5.7,2
								l1.5-4.5l2.3,0.8l-1.5,4.5l3.2,1.1l1.5-4.5l5.7,2c0.2,0.1,0.5,0.2,0.7,0.2c5.5,1.5,11.3-1.5,13.2-7l0.2-0.6
								c1.9-5.4-0.8-11.3-6.1-13.5c-0.2-0.1-0.4-0.2-0.6-0.2c0.2,0.1,0.4,0.1,0.6,0.2C1206.6,336.2,1212.4,333.2,1214.2,327.7z
								 M1192.7,341.6c-0.6,1.7-2.5,2.7-4.2,2.1l-3.5-1.2l2.9-8.5l3.6,1.2c1.7,0.6,2.6,2.4,2,4.1L1192.7,341.6z M1197.9,326.5
								c-0.6,1.7-2.5,2.6-4.2,2l-3.5-1.2l2.9-8.5l3.6,1.2c1.7,0.6,2.6,2.4,2,4.1L1197.9,326.5z"/>
						</g>
					</g>
				</g>
				<g>
					<defs>
						
							<ellipse id="SVGID_27_" transform="matrix(0.6706 -0.7418 0.7418 0.6706 148.3118 991.843)" cx="1191" cy="328.9" rx="38.5" ry="38.5"/>
					</defs>
					<clipPath id="SVGID_28_">
						<use xlink:href="#SVGID_27_"  style="overflow:visible;"/>
					</clipPath>
					<g class="st55">
						
							<rect x="1185.3" y="273.7" transform="matrix(0.3598 0.933 -0.933 0.3598 1072.3721 -897.508)" class="st18" width="9.9" height="118.1"/>
						
							<rect x="1170" y="258.4" transform="matrix(0.3598 0.933 -0.933 0.3598 1050.9065 -896.7087)" class="st18" width="17.8" height="118.1"/>
						
							<rect x="1191.6" y="286.1" transform="matrix(0.3598 0.933 -0.933 0.3598 1086.468 -893.1088)" class="st18" width="5" height="118.1"/>
					</g>
				</g>
				<path class="st13" d="M1156.6,314.9c8.6-19.4,31.3-28.2,50.8-19.6c8.3,3.7,14.6,10,18.5,17.5c-3.8-8.2-10.4-15.1-19.3-19
					c-19.4-8.6-42.2,0.2-50.8,19.6c-4.9,11.1-4.1,23.3,1,33.3C1152.4,336.9,1151.9,325.4,1156.6,314.9z"/>
				<path class="st13" d="M1225.2,311.3c4.6,9.8,5.1,21.4,0.4,32c-8.6,19.4-31.3,28.2-50.8,19.6c-8.4-3.7-14.7-10-18.6-17.6
					c3.8,8.1,10.4,14.8,19.2,18.7c19.4,8.6,42.2-0.2,50.8-19.6C1231.1,333.5,1230.3,321.3,1225.2,311.3z"/>
			</g>
		</g>
		<g>
			<g>
				<g>
					<path class="st56" d="M753.7,1326.5c0,0,37.2-110.8,80.6-111.9c43.3-1.1,13,73.1-46.6,111.9H753.7z"/>
					<path class="st57" d="M769.4,1326.5c0,0,45.3-73.1,60.3-83.7"/>
				</g>
				<g>
					<path class="st58" d="M690.6,1326.5h69.4c0,0,177.9-241.3,46.2-256.2C609,1048.1,690.6,1326.5,690.6,1326.5z"/>
					<path class="st59" d="M728.5,1326.5c0,0-12.9-109,57.3-217.9"/>
				</g>
				<g>
					<path class="st56" d="M690.6,1326.5c0,0-29.2-157.6-90.8-159.1c-61.6-1.5-18.5,104,66.3,159.1H690.6z"/>
					<path class="st59" d="M680.9,1326.5c0,0-59.2-135.3-90.6-141.3"/>
				</g>
			</g>
			<g>
				<g>
					<g>
						<path id="XMLID_113_" class="st60" d="M299,1327.2h-209c-1,0-1.7-0.8-1.7-1.7v-46.2c0-1,0.8-1.7,1.7-1.7h209
							c1,0,1.7,0.8,1.7,1.7v46.2C300.7,1326.4,299.9,1327.2,299,1327.2z"/>
						<g class="st61">
							<rect id="XMLID_112_" x="106.2" y="1282" class="st62" width="9.2" height="40.7"/>
							<rect id="XMLID_111_" x="134" y="1282" class="st62" width="9.2" height="40.7"/>
							<rect id="XMLID_110_" x="161.9" y="1282" class="st62" width="9.2" height="40.7"/>
							<rect id="XMLID_109_" x="189.8" y="1282" class="st62" width="9.2" height="40.7"/>
							<rect id="XMLID_108_" x="217.7" y="1282" class="st62" width="9.2" height="40.7"/>
							<rect id="XMLID_107_" x="245.6" y="1282" class="st62" width="9.2" height="40.7"/>
							<rect id="XMLID_106_" x="273.5" y="1282" class="st62" width="9.2" height="40.7"/>
						</g>
						<rect id="XMLID_105_" x="183.2" y="1282" class="st63" width="117.5" height="40.4"/>
						<rect id="XMLID_104_" x="97.7" y="1282" class="st64" width="58.7" height="40.4"/>
						<rect id="XMLID_103_" x="97.7" y="1282" class="st65" width="58.7" height="40.4"/>
						<path class="st66" d="M88.2,1323c0,2.3,1.9,4.2,4.2,4.2h204c2.3,0,4.2-1.9,4.2-4.2v-0.3H88.2V1323z"/>
						<path class="st10" d="M296.5,1277.5h-204c-2.3,0-4.2,1.9-4.2,4.2v0.3h212.5v-0.3C300.7,1279.4,298.8,1277.5,296.5,1277.5z"/>
					</g>
					<g>
						<path id="XMLID_36_" class="st60" d="M357.9,1277.5h-209c-1,0-1.7-0.8-1.7-1.7v-46.2c0-1,0.8-1.7,1.7-1.7h209
							c1,0,1.7,0.8,1.7,1.7v46.2C359.6,1276.7,358.8,1277.5,357.9,1277.5z"/>
						<g class="st61">
							<rect id="XMLID_35_" x="165.1" y="1232.3" class="st62" width="9.2" height="40.7"/>
							<rect id="XMLID_34_" x="193" y="1232.3" class="st62" width="9.2" height="40.7"/>
							<rect id="XMLID_33_" x="220.8" y="1232.3" class="st62" width="9.2" height="40.7"/>
							<rect id="XMLID_32_" x="248.7" y="1232.3" class="st62" width="9.2" height="40.7"/>
							<rect id="XMLID_31_" x="276.6" y="1232.3" class="st62" width="9.2" height="40.7"/>
							<rect id="XMLID_30_" x="304.5" y="1232.3" class="st62" width="9.2" height="40.7"/>
							<rect id="XMLID_29_" x="332.4" y="1232.3" class="st62" width="9.2" height="40.7"/>
						</g>
						<rect id="XMLID_28_" x="242.1" y="1232.3" class="st63" width="117.5" height="40.4"/>
						<rect id="XMLID_25_" x="156.6" y="1232.3" class="st64" width="58.7" height="40.4"/>
						<rect id="XMLID_24_" x="156.6" y="1232.3" class="st65" width="58.7" height="40.4"/>
						<path class="st66" d="M147.1,1273.2c0,2.3,1.9,4.2,4.2,4.2h204c2.3,0,4.2-1.9,4.2-4.2v-0.3H147.1V1273.2z"/>
						<path class="st10" d="M355.4,1227.8h-204c-2.3,0-4.2,1.9-4.2,4.2v0.3h212.5v-0.3C359.6,1229.7,357.7,1227.8,355.4,1227.8z"/>
					</g>
					<g>
						<path id="XMLID_44_" class="st60" d="M645.8,1327.2h-209c-1,0-1.7-0.8-1.7-1.7v-46.2c0-1,0.8-1.7,1.7-1.7h209
							c1,0,1.7,0.8,1.7,1.7v46.2C647.5,1326.4,646.8,1327.2,645.8,1327.2z"/>
						<g class="st61">
							<rect id="XMLID_43_" x="453" y="1282" class="st62" width="9.2" height="40.7"/>
							<rect id="XMLID_42_" x="480.9" y="1282" class="st62" width="9.2" height="40.7"/>
							<rect id="XMLID_41_" x="508.8" y="1282" class="st62" width="9.2" height="40.7"/>
							<rect id="XMLID_40_" x="536.7" y="1282" class="st62" width="9.2" height="40.7"/>
							<rect id="XMLID_39_" x="564.6" y="1282" class="st62" width="9.2" height="40.7"/>
							<rect id="XMLID_38_" x="592.5" y="1282" class="st62" width="9.2" height="40.7"/>
							<rect id="XMLID_37_" x="620.3" y="1282" class="st62" width="9.2" height="40.7"/>
						</g>
						<rect id="XMLID_27_" x="530.1" y="1282" class="st63" width="117.5" height="40.4"/>
						<rect id="XMLID_26_" x="444.5" y="1282" class="st64" width="58.7" height="40.4"/>
						<rect id="XMLID_23_" x="444.5" y="1282" class="st65" width="58.7" height="40.4"/>
						<path class="st66" d="M435,1323c0,2.3,1.9,4.2,4.2,4.2h204c2.3,0,4.2-1.9,4.2-4.2v-0.3H435V1323z"/>
						<path class="st10" d="M643.3,1277.5h-204c-2.3,0-4.2,1.9-4.2,4.2v0.3h212.5v-0.3C647.5,1279.4,645.6,1277.5,643.3,1277.5z"/>
					</g>
					<g>
						<path id="XMLID_22_" class="st60" d="M607.8,1277.5h-209c-1,0-1.7-0.8-1.7-1.7v-46.2c0-1,0.8-1.7,1.7-1.7h209
							c1,0,1.7,0.8,1.7,1.7v46.2C609.5,1276.7,608.7,1277.5,607.8,1277.5z"/>
						<g class="st61">
							<rect id="XMLID_21_" x="415" y="1232.3" class="st62" width="9.2" height="40.7"/>
							<rect id="XMLID_20_" x="442.9" y="1232.3" class="st62" width="9.2" height="40.7"/>
							<rect id="XMLID_19_" x="470.7" y="1232.3" class="st62" width="9.2" height="40.7"/>
							<rect id="XMLID_18_" x="498.6" y="1232.3" class="st62" width="9.2" height="40.7"/>
							<rect id="XMLID_17_" x="526.5" y="1232.3" class="st62" width="9.2" height="40.7"/>
							<rect id="XMLID_16_" x="554.4" y="1232.3" class="st62" width="9.2" height="40.7"/>
							<rect id="XMLID_15_" x="582.3" y="1232.3" class="st62" width="9.2" height="40.7"/>
						</g>
						<rect id="XMLID_14_" x="492.1" y="1232.3" class="st63" width="117.5" height="40.4"/>
						<rect id="XMLID_13_" x="406.5" y="1232.3" class="st64" width="58.7" height="40.4"/>
						<rect id="XMLID_5_" x="406.5" y="1232.3" class="st65" width="58.7" height="40.4"/>
						<path class="st66" d="M397,1273.2c0,2.3,1.9,4.2,4.2,4.2h204c2.3,0,4.2-1.9,4.2-4.2v-0.3H397V1273.2z"/>
						<path class="st10" d="M605.3,1227.8h-204c-2.3,0-4.2,1.9-4.2,4.2v0.3h212.5v-0.3C609.5,1229.7,607.6,1227.8,605.3,1227.8z"/>
					</g>
					<g>
						<path id="XMLID_12_" class="st60" d="M306.7,1228.4h-209c-1,0-1.7-0.8-1.7-1.7v-46.2c0-1,0.8-1.7,1.7-1.7h209
							c1,0,1.7,0.8,1.7,1.7v46.2C308.4,1227.6,307.7,1228.4,306.7,1228.4z"/>
						<g class="st61">
							<rect id="XMLID_11_" x="113.9" y="1183.2" class="st62" width="9.2" height="40.7"/>
							<rect id="XMLID_10_" x="141.8" y="1183.2" class="st62" width="9.2" height="40.7"/>
							<rect id="XMLID_9_" x="169.7" y="1183.2" class="st62" width="9.2" height="40.7"/>
							<rect id="XMLID_8_" x="197.6" y="1183.2" class="st62" width="9.2" height="40.7"/>
							<rect id="XMLID_7_" x="225.5" y="1183.2" class="st62" width="9.2" height="40.7"/>
							<rect id="XMLID_6_" x="253.4" y="1183.2" class="st62" width="9.2" height="40.7"/>
							<rect id="XMLID_4_" x="281.2" y="1183.2" class="st62" width="9.2" height="40.7"/>
						</g>
						<rect id="XMLID_3_" x="191" y="1183.2" class="st63" width="117.5" height="40.4"/>
						<rect id="XMLID_2_" x="105.4" y="1183.2" class="st64" width="58.7" height="40.4"/>
						<rect id="XMLID_1_" x="105.4" y="1183.2" class="st65" width="58.7" height="40.4"/>
						<path class="st66" d="M95.9,1224.2c0,2.3,1.9,4.2,4.2,4.2h204c2.3,0,4.2-1.9,4.2-4.2v-0.3H95.9V1224.2z"/>
						<path class="st10" d="M304.2,1178.7h-204c-2.3,0-4.2,1.9-4.2,4.2v0.3h212.5v-0.3C308.4,1180.6,306.5,1178.7,304.2,1178.7z"/>
					</g>
					<g>
						<path id="XMLID_124_" class="st60" d="M305.8,1178.7h-209c-1,0-1.7-0.8-1.7-1.7v-46.2c0-1,0.8-1.7,1.7-1.7h209
							c1,0,1.7,0.8,1.7,1.7v46.2C307.6,1177.9,306.8,1178.7,305.8,1178.7z"/>
						<g class="st61">
							<rect id="XMLID_123_" x="113" y="1133.5" class="st62" width="9.2" height="40.7"/>
							<rect id="XMLID_122_" x="140.9" y="1133.5" class="st62" width="9.2" height="40.7"/>
							<rect id="XMLID_121_" x="168.8" y="1133.5" class="st62" width="9.2" height="40.7"/>
							<rect id="XMLID_120_" x="196.7" y="1133.5" class="st62" width="9.2" height="40.7"/>
							<rect id="XMLID_119_" x="224.6" y="1133.5" class="st62" width="9.2" height="40.7"/>
							<rect id="XMLID_118_" x="252.5" y="1133.5" class="st62" width="9.2" height="40.7"/>
							<rect id="XMLID_117_" x="280.4" y="1133.5" class="st62" width="9.2" height="40.7"/>
						</g>
						<rect id="XMLID_116_" x="190.1" y="1133.5" class="st63" width="117.5" height="40.4"/>
						<rect id="XMLID_115_" x="104.6" y="1133.5" class="st64" width="58.7" height="40.4"/>
						<rect id="XMLID_114_" x="104.6" y="1133.5" class="st65" width="58.7" height="40.4"/>
						<path class="st66" d="M95.1,1174.4c0,2.3,1.9,4.2,4.2,4.2h204c2.3,0,4.2-1.9,4.2-4.2v-0.3H95.1V1174.4z"/>
						<path class="st10" d="M303.4,1129h-204c-2.3,0-4.2,1.9-4.2,4.2v0.3h212.5v-0.3C307.6,1130.9,305.7,1129,303.4,1129z"/>
					</g>
					<g>
						<path id="XMLID_138_" class="st60" d="M339.6,1129h-209c-1,0-1.7-0.8-1.7-1.7V1081c0-1,0.8-1.7,1.7-1.7h209
							c1,0,1.7,0.8,1.7,1.7v46.2C341.4,1128.2,340.6,1129,339.6,1129z"/>
						<g class="st61">
							<rect id="XMLID_137_" x="146.8" y="1083.8" class="st62" width="9.2" height="40.7"/>
							<rect id="XMLID_136_" x="174.7" y="1083.8" class="st62" width="9.2" height="40.7"/>
							<rect id="XMLID_135_" x="202.6" y="1083.8" class="st62" width="9.2" height="40.7"/>
							<rect id="XMLID_131_" x="230.5" y="1083.8" class="st62" width="9.2" height="40.7"/>
							<rect id="XMLID_130_" x="258.4" y="1083.8" class="st62" width="9.2" height="40.7"/>
							<rect id="XMLID_129_" x="286.3" y="1083.8" class="st62" width="9.2" height="40.7"/>
							<rect id="XMLID_128_" x="314.2" y="1083.8" class="st62" width="9.2" height="40.7"/>
						</g>
						<rect id="XMLID_127_" x="223.9" y="1083.8" class="st63" width="117.5" height="40.4"/>
						<rect id="XMLID_126_" x="138.4" y="1083.8" class="st64" width="58.7" height="40.4"/>
						<rect id="XMLID_125_" x="138.4" y="1083.8" class="st65" width="58.7" height="40.4"/>
						<path class="st66" d="M128.9,1124.7c0,2.3,1.9,4.2,4.2,4.2h204c2.3,0,4.2-1.9,4.2-4.2v-0.3H128.9V1124.7z"/>
						<path class="st10" d="M337.1,1079.2h-204c-2.3,0-4.2,1.9-4.2,4.2v0.3h212.5v-0.3C341.4,1081.1,339.5,1079.2,337.1,1079.2z"/>
					</g>
				</g>
				<g>
					<path class="st10" d="M174.4,898.6c-2.3-0.3-4.5-0.6-6.8-0.7c-20-1.4-39.7,4.4-56,16.5c-18.1,13.4-30,33.2-33.3,55.5
						c-3.3,22.3,2.3,44.6,15.7,62.8c13.5,18.1,33.2,30,55.5,33.3c22.4,3.3,44.6-2.3,62.8-15.7c18.1-13.4,30-33.2,33.3-55.5
						C252.4,948.6,220.5,905.5,174.4,898.6z"/>
					
						<linearGradient id="SVGID_29_" gradientUnits="userSpaceOnUse" x1="282.8953" y1="1173.7136" x2="456.4907" y2="1173.7136" gradientTransform="matrix(0.9977 6.810000e-02 -6.810000e-02 0.9977 -126.9754 -213.9331)">
						<stop  offset="0" style="stop-color:#FFCC48"/>
						<stop  offset="0.9996" style="stop-color:#FF9C00"/>
					</linearGradient>
					<path class="st67" d="M174.7,896.4c-47.4-7-91.6,25.7-98.6,73.1c-7,47.4,25.7,91.6,73.1,98.6c47.4,7,91.6-25.7,98.6-73.1v0l0,0
						l0,0C254.8,947.6,222.1,903.4,174.7,896.4z M245.6,994.7c-3.3,22.3-15.1,42.1-33.3,55.5c-18.1,13.5-40.4,19-62.8,15.7
						c-22.3-3.3-42.1-15.1-55.5-33.3c-13.4-18.1-19-40.4-15.7-62.8c3.3-22.3,15.1-42.1,33.3-55.5c16.3-12.1,36-17.8,56-16.5
						c2.3,0.2,4.5,0.4,6.8,0.7C220.5,905.5,252.4,948.6,245.6,994.7z"/>
					<path class="st12" d="M174.7,896.4c-22.9-3.4-45.8,2.3-64.4,16.1c-18.6,13.8-30.8,34-34.2,57c-3.4,22.9,2.3,45.8,16.1,64.4
						c13.8,18.6,34,30.8,57,34.2c2.3,0.3,4.6,0.6,7,0.8c20.6,1.4,40.7-4.5,57.5-16.9c18.6-13.8,30.8-34,34.2-57
						C254.8,947.7,222,903.4,174.7,896.4z M243.5,994.4c-3.2,21.8-14.8,41-32.4,54.1c-17.7,13.1-39.4,18.5-61.2,15.3
						c-21.8-3.2-41-14.8-54.1-32.4c-13.1-17.7-18.6-39.4-15.3-61.2c3.2-21.8,14.8-41,32.4-54.1c15.9-11.8,35-17.4,54.6-16
						c2.2,0.2,4.4,0.4,6.6,0.7C219,907.4,250.1,949.4,243.5,994.4z"/>
					<path class="st13" d="M234.9,993.1c-6,40.3-43.5,68.1-83.8,62.1c-40.3-6-68.1-43.5-62.1-83.8c6-40.3,43.5-68.1,83.8-62.1
						C213,915.3,240.9,952.8,234.9,993.1z"/>
					<g>
						<g class="st14">
							<path class="st15" d="M204.9,969l0.1-1.2c0.7-11-7.3-20.5-18.1-21.9c-0.4-0.1-0.8-0.1-1.3-0.1l-11.8-0.7l0.7-11.2l-6.6-0.4
								l-0.7,11.2l-4.6-0.3l0.7-11.2l-11.5-0.7l-0.7,11.2l-24.7-1.5l-1.2,18.7l5.9,0.4l-3.1,49.7l-5.9-0.4l-1.1,17.3l24.7,1.5
								l-0.6,9l11.5,0.7l0.6-9l4.6,0.3l-0.6,9l6.6,0.4l0.6-9l11.6,0.7c0.5,0,1,0,1.5,0c10.9-0.1,20-8.6,20.7-19.6l0.1-1.2
								c0.7-11-7.3-20.5-18.1-21.9c-0.4-0.1-0.8-0.1-1.3-0.1c0.4,0,0.9,0,1.3,0C195.1,988.6,204.2,980.1,204.9,969z M172.2,1005.6
								c-0.2,3.5-3.2,6.2-6.7,5.9l-7-0.4l1.1-17.3l7.2,0.5c3.4,0.2,5.9,3.1,5.7,6.5L172.2,1005.6z M174.1,975
								c-0.2,3.5-3.2,6.2-6.7,5.9l-7-0.4l1.1-17.2l7.2,0.5c3.4,0.2,5.9,3.1,5.7,6.5L174.1,975z"/>
						</g>
						<g>
							<g>
								<path class="st16" d="M204.3,968.2l0.1-1.2c0.7-11-7.3-20.5-18.1-21.9c-0.4-0.1-0.8-0.1-1.3-0.1l-11.8-0.7l0.7-11.2
									l-6.6-0.4l-0.7,11.2l-4.6-0.3l0.7-11.2l-11.5-0.7l-0.7,11.2l-24.7-1.5l-1.2,18.7l5.9,0.4l-3.1,49.7l-5.9-0.4l-1.1,17.3
									l24.7,1.5l-0.6,9l11.5,0.7l0.6-9l4.6,0.3l-0.6,9l6.6,0.4l0.6-9l11.6,0.7c0.5,0,1,0,1.5,0c10.9-0.1,20-8.6,20.7-19.6l0.1-1.2
									c0.7-11-7.3-20.5-18.1-21.9c-0.4-0.1-0.8-0.1-1.3-0.1c0.4,0,0.9,0,1.3,0C194.5,987.8,203.6,979.3,204.3,968.2z
									 M171.6,1004.8c-0.2,3.5-3.2,6.2-6.7,5.9l-7-0.4l1.1-17.3l7.2,0.5c3.4,0.2,5.9,3.1,5.7,6.5L171.6,1004.8z M173.5,974.2
									c-0.2,3.5-3.2,6.2-6.7,5.9l-7-0.4l1.1-17.2l7.2,0.5c3.4,0.2,5.9,3.1,5.7,6.5L173.5,974.2z"/>
							</g>
						</g>
					</g>
					<g>
						<defs>
							<path id="SVGID_30_" d="M234.9,993.1c-6,40.3-43.5,68.1-83.8,62.1c-40.3-6-68.1-43.5-62.1-83.8c6-40.3,43.5-68.1,83.8-62.1
								C213,915.3,240.9,952.8,234.9,993.1z"/>
						</defs>
						<clipPath id="SVGID_31_">
							<use xlink:href="#SVGID_30_"  style="overflow:visible;"/>
						</clipPath>
						<g class="st68">
							
								<rect x="153" y="876.5" transform="matrix(0.5957 0.8032 -0.8032 0.5957 860.6018 269.6561)" class="st18" width="19" height="226.3"/>
							
								<rect x="116.7" y="854.1" transform="matrix(0.5956 0.8033 -0.8033 0.5956 831.0183 283.6802)" class="st18" width="34.1" height="226.3"/>
							
								<rect x="171.2" y="897.5" transform="matrix(0.5957 0.8032 -0.8032 0.5957 882.9608 267.3568)" class="st18" width="9.5" height="226.3"/>
						</g>
					</g>
					<path class="st13" d="M91.2,973.9c6-40.3,43.5-68.1,83.8-62.1c17.2,2.6,32.2,10.9,43.1,22.8c-11.2-13.2-26.9-22.5-45.3-25.3
						c-40.3-6-77.8,21.8-83.8,62.1c-3.4,23,4.3,45.2,19,61C94.7,1016.8,87.9,995.8,91.2,973.9z"/>
					<path class="st13" d="M216.1,932.3c13.5,15.7,20.4,36.9,17.1,58.9c-6,40.3-43.5,68.1-83.8,62.1c-17.3-2.6-32.3-11-43.4-23
						c11.1,12.9,26.8,22.1,45,24.8c40.3,6,77.8-21.8,83.8-62.1C238.3,970.1,230.7,948.1,216.1,932.3z"/>
				</g>
			</g>
		</g>
		<g>
			<path d="M384.2,314.8v10.5h-39.6c0.4-4,1.7-7.7,3.9-11.3c2.1-3.6,6.4-8.3,12.7-14.1c5.1-4.7,8.2-8,9.4-9.6
				c1.6-2.3,2.3-4.6,2.3-6.9c0-2.5-0.7-4.5-2-5.8c-1.4-1.4-3.2-2-5.6-2c-2.4,0-4.2,0.7-5.6,2.1c-1.4,1.4-2.2,3.8-2.4,7.1l-11.3-1.1
				c0.7-6.2,2.8-10.7,6.3-13.4c3.5-2.7,8-4.1,13.3-4.1c5.8,0,10.4,1.6,13.7,4.7c3.3,3.1,5,7,5,11.7c0,2.7-0.5,5.2-1.4,7.6
				c-1,2.4-2.5,4.9-4.5,7.5c-1.4,1.7-3.8,4.2-7.4,7.5c-3.6,3.3-5.8,5.4-6.8,6.5c-1,1.1-1.7,2.1-2.3,3.1H384.2z"/>
			<path d="M401.6,293.5c-2.9-1.2-5-2.9-6.4-5.1c-1.3-2.2-2-4.5-2-7.1c0-4.4,1.5-8,4.6-10.9c3.1-2.9,7.4-4.3,13.1-4.3
				c5.6,0,9.9,1.4,13,4.3c3.1,2.9,4.6,6.5,4.6,10.9c0,2.7-0.7,5.2-2.1,7.3c-1.4,2.1-3.4,3.8-6,4.9c3.3,1.3,5.8,3.2,7.5,5.7
				c1.7,2.5,2.6,5.4,2.6,8.7c0,5.4-1.7,9.9-5.2,13.3c-3.5,3.4-8.1,5.1-13.8,5.1c-5.4,0-9.8-1.4-13.4-4.2c-4.2-3.3-6.3-7.9-6.3-13.7
				c0-3.2,0.8-6.1,2.4-8.8C395.7,297,398.2,295,401.6,293.5z M402.8,307.4c0,3.1,0.8,5.5,2.4,7.3c1.6,1.7,3.6,2.6,6,2.6
				c2.3,0,4.3-0.8,5.8-2.5c1.5-1.7,2.3-4.1,2.3-7.3c0-2.8-0.8-5-2.3-6.7c-1.6-1.7-3.5-2.5-5.9-2.5c-2.8,0-4.8,1-6.2,2.9
				C403.5,303.1,402.8,305.2,402.8,307.4z M403.9,282.2c0,2.3,0.6,4,1.9,5.3c1.3,1.3,3,1.9,5.1,1.9c2.1,0,3.9-0.6,5.1-1.9
				c1.3-1.3,1.9-3,1.9-5.3c0-2.1-0.6-3.8-1.9-5.1c-1.3-1.3-3-1.9-5-1.9c-2.2,0-3.9,0.6-5.2,1.9C404.5,278.3,403.9,280,403.9,282.2z"
				/>
			<path d="M439.8,314h11.3v8.1c0,3.3-0.3,5.8-0.8,7.7c-0.6,1.9-1.6,3.6-3.2,5.1c-1.6,1.5-3.6,2.7-6,3.5l-2.2-4.7
				c2.3-0.8,3.9-1.8,4.9-3.1c1-1.3,1.5-3.1,1.5-5.4h-5.5V314z"/>
			<path d="M460.1,309.7l10.9-1.3c0.3,2.8,1.3,4.9,2.8,6.4c1.5,1.5,3.4,2.2,5.5,2.2c2.3,0,4.3-0.9,5.9-2.7c1.6-1.8,2.4-4.2,2.4-7.2
				c0-2.8-0.8-5.1-2.3-6.8c-1.5-1.7-3.4-2.5-5.6-2.5c-1.4,0-3.2,0.3-5.2,0.8l1.2-9.2c3.1,0.1,5.4-0.6,7-2c1.6-1.4,2.4-3.3,2.4-5.6
				c0-2-0.6-3.6-1.8-4.7c-1.2-1.2-2.7-1.8-4.7-1.8c-1.9,0-3.6,0.7-4.9,2c-1.4,1.3-2.2,3.3-2.5,5.9l-10.4-1.8
				c0.7-3.6,1.8-6.4,3.3-8.5c1.5-2.1,3.5-3.8,6.1-5c2.6-1.2,5.5-1.8,8.8-1.8c5.5,0,10,1.8,13.3,5.3c2.8,2.9,4.1,6.2,4.1,9.8
				c0,5.2-2.8,9.3-8.5,12.4c3.4,0.7,6.1,2.3,8.1,4.9c2,2.5,3,5.6,3,9.1c0,5.2-1.9,9.6-5.7,13.2s-8.5,5.5-14.1,5.5
				c-5.3,0-9.8-1.5-13.3-4.6C462.7,318.7,460.7,314.7,460.1,309.7z"/>
			<path d="M516,293.5c-2.9-1.2-5-2.9-6.4-5.1c-1.3-2.2-2-4.5-2-7.1c0-4.4,1.5-8,4.6-10.9c3.1-2.9,7.4-4.3,13.1-4.3
				c5.6,0,9.9,1.4,13,4.3c3.1,2.9,4.6,6.5,4.6,10.9c0,2.7-0.7,5.2-2.1,7.3c-1.4,2.1-3.4,3.8-6,4.9c3.3,1.3,5.8,3.2,7.5,5.7
				c1.7,2.5,2.6,5.4,2.6,8.7c0,5.4-1.7,9.9-5.2,13.3c-3.5,3.4-8.1,5.1-13.8,5.1c-5.4,0-9.8-1.4-13.4-4.2c-4.2-3.3-6.3-7.9-6.3-13.7
				c0-3.2,0.8-6.1,2.4-8.8C510.1,297,512.6,295,516,293.5z M517.3,307.4c0,3.1,0.8,5.5,2.4,7.3c1.6,1.7,3.6,2.6,6,2.6
				c2.3,0,4.3-0.8,5.8-2.5c1.5-1.7,2.3-4.1,2.3-7.3c0-2.8-0.8-5-2.3-6.7c-1.6-1.7-3.5-2.5-5.9-2.5c-2.8,0-4.8,1-6.2,2.9
				C518,303.1,517.3,305.2,517.3,307.4z M518.3,282.2c0,2.3,0.6,4,1.9,5.3c1.3,1.3,3,1.9,5.1,1.9c2.1,0,3.9-0.6,5.1-1.9
				c1.3-1.3,1.9-3,1.9-5.3c0-2.1-0.6-3.8-1.9-5.1c-1.3-1.3-3-1.9-5-1.9c-2.2,0-3.9,0.6-5.2,1.9C519,278.3,518.3,280,518.3,282.2z"/>
			<path d="M554.2,314h11.3v8.1c0,3.3-0.3,5.8-0.8,7.7c-0.6,1.9-1.6,3.6-3.2,5.1c-1.6,1.5-3.6,2.7-6,3.5l-2.2-4.7
				c2.3-0.8,3.9-1.8,4.9-3.1c1-1.3,1.5-3.1,1.5-5.4h-5.5V314z"/>
			<path d="M575,277.7v-10.5h38.6v8.2c-3.2,3.1-6.4,7.6-9.7,13.5c-3.3,5.9-5.8,12.1-7.5,18.7c-1.7,6.6-2.6,12.5-2.6,17.7h-10.9
				c0.2-8.1,1.9-16.5,5-24.9c3.2-8.5,7.4-16,12.7-22.7H575z"/>
			<path d="M630.4,293.5c-2.9-1.2-5-2.9-6.4-5.1c-1.3-2.2-2-4.5-2-7.1c0-4.4,1.5-8,4.6-10.9c3.1-2.9,7.4-4.3,13.1-4.3
				c5.6,0,9.9,1.4,13,4.3c3.1,2.9,4.6,6.5,4.6,10.9c0,2.7-0.7,5.2-2.1,7.3c-1.4,2.1-3.4,3.8-6,4.9c3.3,1.3,5.8,3.2,7.5,5.7
				c1.7,2.5,2.6,5.4,2.6,8.7c0,5.4-1.7,9.9-5.2,13.3c-3.5,3.4-8.1,5.1-13.8,5.1c-5.4,0-9.8-1.4-13.4-4.2c-4.2-3.3-6.3-7.9-6.3-13.7
				c0-3.2,0.8-6.1,2.4-8.8C624.6,297,627,295,630.4,293.5z M631.7,307.4c0,3.1,0.8,5.5,2.4,7.3c1.6,1.7,3.6,2.6,6,2.6
				c2.3,0,4.3-0.8,5.8-2.5c1.5-1.7,2.3-4.1,2.3-7.3c0-2.8-0.8-5-2.3-6.7c-1.6-1.7-3.5-2.5-5.9-2.5c-2.8,0-4.8,1-6.2,2.9
				C632.4,303.1,631.7,305.2,631.7,307.4z M632.8,282.2c0,2.3,0.6,4,1.9,5.3c1.3,1.3,3,1.9,5.1,1.9c2.1,0,3.9-0.6,5.1-1.9
				c1.3-1.3,1.9-3,1.9-5.3c0-2.1-0.6-3.8-1.9-5.1c-1.3-1.3-3-1.9-5-1.9c-2.2,0-3.9,0.6-5.2,1.9C633.4,278.3,632.8,280,632.8,282.2z"
				/>
			<path d="M704.7,314.8v10.5h-39.6c0.4-4,1.7-7.7,3.9-11.3c2.1-3.6,6.4-8.3,12.7-14.1c5.1-4.7,8.2-8,9.4-9.6
				c1.6-2.3,2.3-4.6,2.3-6.9c0-2.5-0.7-4.5-2-5.8c-1.4-1.4-3.2-2-5.6-2c-2.4,0-4.2,0.7-5.6,2.1c-1.4,1.4-2.2,3.8-2.4,7.1l-11.3-1.1
				c0.7-6.2,2.8-10.7,6.3-13.4c3.5-2.7,8-4.1,13.3-4.1c5.8,0,10.4,1.6,13.7,4.7c3.3,3.1,5,7,5,11.7c0,2.7-0.5,5.2-1.4,7.6
				c-1,2.4-2.5,4.9-4.5,7.5c-1.4,1.7-3.8,4.2-7.4,7.5c-3.6,3.3-5.8,5.4-6.8,6.5c-1,1.1-1.7,2.1-2.3,3.1H704.7z"/>
			<path d="M714.7,325.3V314H726v11.3H714.7z"/>
			<path d="M735.4,310.2l11.3-1.2c0.3,2.5,1.3,4.6,2.9,6.1c1.6,1.5,3.4,2.2,5.5,2.2c2.4,0,4.4-1,6-2.9c1.6-1.9,2.5-4.8,2.5-8.7
				c0-3.6-0.8-6.3-2.4-8.1s-3.7-2.7-6.3-2.7c-3.2,0-6.2,1.4-8.7,4.3l-9.2-1.3l5.8-30.7h29.9v10.6h-21.3l-1.8,10
				c2.5-1.3,5.1-1.9,7.7-1.9c5,0,9.3,1.8,12.7,5.5c3.5,3.6,5.2,8.4,5.2,14.2c0,4.9-1.4,9.2-4.2,13c-3.8,5.2-9.2,7.8-16,7.8
				c-5.4,0-9.9-1.5-13.3-4.4C738.1,319,736,315.1,735.4,310.2z"/>
			<path d="M781,277.7v-10.5h38.6v8.2c-3.2,3.1-6.4,7.6-9.7,13.5c-3.3,5.9-5.8,12.1-7.5,18.7c-1.7,6.6-2.6,12.5-2.6,17.7h-10.9
				c0.2-8.1,1.9-16.5,5-24.9c3.2-8.5,7.4-16,12.7-22.7H781z"/>
		</g>
	</g>
</g>
</svg>
