<svg width="350" height="146" viewBox="0 0 350 146" fill="none" xmlns="http://www.w3.org/2000/svg">
<g clip-path="url(#clip0_691_707)">
<rect width="350" height="146" rx="12" fill="#59BA4B"/>
<path d="M30.5 24V26.2H26.56V38H24.26V26.2H20.3V24H30.5ZM38.1839 28H40.3439V38H38.1839V36.56C37.3706 37.6933 36.2039 38.26 34.6839 38.26C33.3106 38.26 32.1372 37.7533 31.1639 36.74C30.1906 35.7133 29.7039 34.4667 29.7039 33C29.7039 31.52 30.1906 30.2733 31.1639 29.26C32.1372 28.2467 33.3106 27.74 34.6839 27.74C36.2039 27.74 37.3706 28.3 38.1839 29.42V28ZM32.7639 35.3C33.3639 35.9 34.1172 36.2 35.0239 36.2C35.9306 36.2 36.6839 35.9 37.2839 35.3C37.8839 34.6867 38.1839 33.92 38.1839 33C38.1839 32.08 37.8839 31.32 37.2839 30.72C36.6839 30.1067 35.9306 29.8 35.0239 29.8C34.1172 29.8 33.3639 30.1067 32.7639 30.72C32.1639 31.32 31.8639 32.08 31.8639 33C31.8639 33.92 32.1639 34.6867 32.7639 35.3ZM51.8016 38H49.3016L46.8216 34.58L44.3216 38H41.8016L45.5616 32.86L42.0016 28H44.5016L46.8016 31.16L49.1016 28H51.6216L48.0616 32.88L51.8016 38ZM59.9522 33.92C60.1122 34.68 60.4789 35.2667 61.0522 35.68C61.6255 36.08 62.3255 36.28 63.1522 36.28C64.2989 36.28 65.1589 35.8667 65.7322 35.04L67.5122 36.08C66.5255 37.5333 65.0655 38.26 63.1322 38.26C61.5055 38.26 60.1922 37.7667 59.1922 36.78C58.1922 35.78 57.6922 34.52 57.6922 33C57.6922 31.5067 58.1855 30.26 59.1722 29.26C60.1589 28.2467 61.4255 27.74 62.9722 27.74C64.4389 27.74 65.6389 28.2533 66.5722 29.28C67.5189 30.3067 67.9922 31.5533 67.9922 33.02C67.9922 33.2467 67.9655 33.5467 67.9122 33.92H59.9522ZM59.9322 32.16H65.8122C65.6655 31.3467 65.3255 30.7333 64.7922 30.32C64.2722 29.9067 63.6589 29.7 62.9522 29.7C62.1522 29.7 61.4855 29.92 60.9522 30.36C60.4189 30.8 60.0789 31.4 59.9322 32.16ZM78.2328 26.2H72.3328V30.12H78.0328V32.32H72.3328V38H70.0328V24H78.2328V26.2ZM82.2844 26.1C82.0177 26.3667 81.6977 26.5 81.3244 26.5C80.951 26.5 80.6244 26.3667 80.3444 26.1C80.0777 25.82 79.9444 25.4933 79.9444 25.12C79.9444 24.7467 80.0777 24.4267 80.3444 24.16C80.611 23.88 80.9377 23.74 81.3244 23.74C81.711 23.74 82.0377 23.88 82.3044 24.16C82.571 24.4267 82.7044 24.7467 82.7044 25.12C82.7044 25.4933 82.5644 25.82 82.2844 26.1ZM80.2444 38V28H82.4044V38H80.2444ZM84.9123 38V23.4H87.0723V38H84.9123ZM91.6203 26.1C91.3536 26.3667 91.0336 26.5 90.6603 26.5C90.287 26.5 89.9603 26.3667 89.6803 26.1C89.4136 25.82 89.2803 25.4933 89.2803 25.12C89.2803 24.7467 89.4136 24.4267 89.6803 24.16C89.947 23.88 90.2736 23.74 90.6603 23.74C91.047 23.74 91.3736 23.88 91.6403 24.16C91.907 24.4267 92.0403 24.7467 92.0403 25.12C92.0403 25.4933 91.9003 25.82 91.6203 26.1ZM89.5803 38V28H91.7403V38H89.5803ZM99.5083 27.74C100.655 27.74 101.582 28.1067 102.288 28.84C102.995 29.5733 103.348 30.58 103.348 31.86V38H101.188V32.08C101.188 31.3333 100.988 30.76 100.588 30.36C100.188 29.96 99.6416 29.76 98.9483 29.76C98.1883 29.76 97.5749 30 97.1083 30.48C96.6416 30.9467 96.4083 31.6667 96.4083 32.64V38H94.2483V28H96.4083V29.28C97.0616 28.2533 98.0949 27.74 99.5083 27.74ZM113.634 28H115.754V37.54C115.754 39.06 115.254 40.2267 114.254 41.04C113.254 41.8533 112.041 42.26 110.614 42.26C108.307 42.26 106.727 41.4533 105.874 39.84L107.734 38.76C108.254 39.7867 109.227 40.3 110.654 40.3C111.587 40.3 112.314 40.0533 112.834 39.56C113.367 39.08 113.634 38.4067 113.634 37.54V36.32C112.821 37.48 111.661 38.06 110.154 38.06C108.741 38.06 107.547 37.56 106.574 36.56C105.601 35.5467 105.114 34.3267 105.114 32.9C105.114 31.4733 105.601 30.26 106.574 29.26C107.547 28.2467 108.741 27.74 110.154 27.74C111.661 27.74 112.821 28.32 113.634 29.48V28ZM108.174 35.14C108.787 35.74 109.547 36.04 110.454 36.04C111.361 36.04 112.114 35.74 112.714 35.14C113.327 34.54 113.634 33.7933 113.634 32.9C113.634 32.0067 113.327 31.26 112.714 30.66C112.114 30.06 111.361 29.76 110.454 29.76C109.547 29.76 108.787 30.06 108.174 30.66C107.574 31.26 107.274 32.0067 107.274 32.9C107.274 33.7933 107.574 34.54 108.174 35.14ZM134.192 27.74C135.325 27.74 136.238 28.1067 136.932 28.84C137.625 29.5733 137.972 30.56 137.972 31.8V38H135.812V31.94C135.812 31.2467 135.638 30.7133 135.292 30.34C134.945 29.9533 134.472 29.76 133.872 29.76C133.205 29.76 132.672 29.98 132.272 30.42C131.885 30.86 131.692 31.52 131.692 32.4V38H129.532V31.94C129.532 31.2467 129.365 30.7133 129.032 30.34C128.712 29.9533 128.252 29.76 127.652 29.76C126.998 29.76 126.465 29.9867 126.052 30.44C125.638 30.88 125.432 31.5333 125.432 32.4V38H123.272V28H125.432V29.2C126.072 28.2267 127.025 27.74 128.292 27.74C129.572 27.74 130.518 28.2667 131.132 29.32C131.798 28.2667 132.818 27.74 134.192 27.74ZM148.203 28H150.363V38H148.203V36.56C147.39 37.6933 146.223 38.26 144.703 38.26C143.33 38.26 142.157 37.7533 141.183 36.74C140.21 35.7133 139.723 34.4667 139.723 33C139.723 31.52 140.21 30.2733 141.183 29.26C142.157 28.2467 143.33 27.74 144.703 27.74C146.223 27.74 147.39 28.3 148.203 29.42V28ZM142.783 35.3C143.383 35.9 144.137 36.2 145.043 36.2C145.95 36.2 146.703 35.9 147.303 35.3C147.903 34.6867 148.203 33.92 148.203 33C148.203 32.08 147.903 31.32 147.303 30.72C146.703 30.1067 145.95 29.8 145.043 29.8C144.137 29.8 143.383 30.1067 142.783 30.72C142.183 31.32 141.883 32.08 141.883 33C141.883 33.92 142.183 34.6867 142.783 35.3ZM160.801 24H162.961V38H160.801V36.56C159.988 37.6933 158.821 38.26 157.301 38.26C155.928 38.26 154.754 37.7533 153.781 36.74C152.808 35.7133 152.321 34.4667 152.321 33C152.321 31.52 152.808 30.2733 153.781 29.26C154.754 28.2467 155.928 27.74 157.301 27.74C158.821 27.74 159.988 28.3 160.801 29.42V24ZM155.381 35.3C155.981 35.9 156.734 36.2 157.641 36.2C158.548 36.2 159.301 35.9 159.901 35.3C160.501 34.6867 160.801 33.92 160.801 33C160.801 32.08 160.501 31.32 159.901 30.72C159.301 30.1067 158.548 29.8 157.641 29.8C156.734 29.8 155.981 30.1067 155.381 30.72C154.781 31.32 154.481 32.08 154.481 33C154.481 33.92 154.781 34.6867 155.381 35.3ZM167.179 33.92C167.339 34.68 167.705 35.2667 168.279 35.68C168.852 36.08 169.552 36.28 170.379 36.28C171.525 36.28 172.385 35.8667 172.959 35.04L174.739 36.08C173.752 37.5333 172.292 38.26 170.359 38.26C168.732 38.26 167.419 37.7667 166.419 36.78C165.419 35.78 164.919 34.52 164.919 33C164.919 31.5067 165.412 30.26 166.399 29.26C167.385 28.2467 168.652 27.74 170.199 27.74C171.665 27.74 172.865 28.2533 173.799 29.28C174.745 30.3067 175.219 31.5533 175.219 33.02C175.219 33.2467 175.192 33.5467 175.139 33.92H167.179ZM167.159 32.16H173.039C172.892 31.3467 172.552 30.7333 172.019 30.32C171.499 29.9067 170.885 29.7 170.179 29.7C169.379 29.7 168.712 29.92 168.179 30.36C167.645 30.8 167.305 31.4 167.159 32.16ZM184.059 30.76C184.059 31.0933 184.239 31.36 184.599 31.56C184.973 31.7467 185.419 31.9133 185.939 32.06C186.473 32.1933 187.006 32.3533 187.539 32.54C188.073 32.7267 188.519 33.0467 188.879 33.5C189.253 33.94 189.439 34.5 189.439 35.18C189.439 36.14 189.066 36.8933 188.319 37.44C187.586 37.9867 186.659 38.26 185.539 38.26C184.553 38.26 183.706 38.0533 182.999 37.64C182.293 37.2267 181.779 36.6533 181.459 35.92L183.319 34.84C183.666 35.8 184.406 36.28 185.539 36.28C186.673 36.28 187.239 35.9067 187.239 35.16C187.239 34.84 187.053 34.58 186.679 34.38C186.319 34.18 185.873 34.0133 185.339 33.88C184.819 33.7333 184.293 33.5667 183.759 33.38C183.226 33.1933 182.773 32.8867 182.399 32.46C182.039 32.02 181.859 31.4667 181.859 30.8C181.859 29.88 182.206 29.14 182.899 28.58C183.606 28.02 184.479 27.74 185.519 27.74C186.346 27.74 187.079 27.9267 187.719 28.3C188.373 28.66 188.873 29.1667 189.219 29.82L187.399 30.84C187.053 30.08 186.426 29.7 185.519 29.7C185.106 29.7 184.759 29.7933 184.479 29.98C184.199 30.1533 184.059 30.4133 184.059 30.76ZM195.804 38.26C194.338 38.26 193.091 37.7533 192.064 36.74C191.038 35.7267 190.524 34.48 190.524 33C190.524 31.52 191.038 30.2733 192.064 29.26C193.091 28.2467 194.338 27.74 195.804 27.74C197.284 27.74 198.531 28.2467 199.544 29.26C200.571 30.2733 201.084 31.52 201.084 33C201.084 34.48 200.571 35.7267 199.544 36.74C198.531 37.7533 197.284 38.26 195.804 38.26ZM193.584 35.26C194.184 35.86 194.924 36.16 195.804 36.16C196.684 36.16 197.424 35.86 198.024 35.26C198.624 34.66 198.924 33.9067 198.924 33C198.924 32.0933 198.624 31.34 198.024 30.74C197.424 30.14 196.684 29.84 195.804 29.84C194.924 29.84 194.184 30.14 193.584 30.74C192.984 31.34 192.684 32.0933 192.684 33C192.684 33.9067 192.984 34.66 193.584 35.26ZM209.977 30.76C209.977 31.0933 210.157 31.36 210.517 31.56C210.891 31.7467 211.337 31.9133 211.857 32.06C212.391 32.1933 212.924 32.3533 213.457 32.54C213.991 32.7267 214.437 33.0467 214.797 33.5C215.171 33.94 215.357 34.5 215.357 35.18C215.357 36.14 214.984 36.8933 214.237 37.44C213.504 37.9867 212.577 38.26 211.457 38.26C210.471 38.26 209.624 38.0533 208.917 37.64C208.211 37.2267 207.697 36.6533 207.377 35.92L209.237 34.84C209.584 35.8 210.324 36.28 211.457 36.28C212.591 36.28 213.157 35.9067 213.157 35.16C213.157 34.84 212.971 34.58 212.597 34.38C212.237 34.18 211.791 34.0133 211.257 33.88C210.737 33.7333 210.211 33.5667 209.677 33.38C209.144 33.1933 208.691 32.8867 208.317 32.46C207.957 32.02 207.777 31.4667 207.777 30.8C207.777 29.88 208.124 29.14 208.817 28.58C209.524 28.02 210.397 27.74 211.437 27.74C212.264 27.74 212.997 27.9267 213.637 28.3C214.291 28.66 214.791 29.1667 215.137 29.82L213.317 30.84C212.971 30.08 212.344 29.7 211.437 29.7C211.024 29.7 210.677 29.7933 210.397 29.98C210.117 30.1533 209.977 30.4133 209.977 30.76ZM219.179 26.1C218.912 26.3667 218.592 26.5 218.219 26.5C217.846 26.5 217.519 26.3667 217.239 26.1C216.972 25.82 216.839 25.4933 216.839 25.12C216.839 24.7467 216.972 24.4267 217.239 24.16C217.506 23.88 217.832 23.74 218.219 23.74C218.606 23.74 218.932 23.88 219.199 24.16C219.466 24.4267 219.599 24.7467 219.599 25.12C219.599 25.4933 219.459 25.82 219.179 26.1ZM217.139 38V28H219.299V38H217.139ZM232.727 27.74C233.86 27.74 234.774 28.1067 235.467 28.84C236.16 29.5733 236.507 30.56 236.507 31.8V38H234.347V31.94C234.347 31.2467 234.174 30.7133 233.827 30.34C233.48 29.9533 233.007 29.76 232.407 29.76C231.74 29.76 231.207 29.98 230.807 30.42C230.42 30.86 230.227 31.52 230.227 32.4V38H228.067V31.94C228.067 31.2467 227.9 30.7133 227.567 30.34C227.247 29.9533 226.787 29.76 226.187 29.76C225.534 29.76 225 29.9867 224.587 30.44C224.174 30.88 223.967 31.5333 223.967 32.4V38H221.807V28H223.967V29.2C224.607 28.2267 225.56 27.74 226.827 27.74C228.107 27.74 229.054 28.2667 229.667 29.32C230.334 28.2667 231.354 27.74 232.727 27.74ZM244.479 27.74C245.852 27.74 247.025 28.2533 247.999 29.28C248.972 30.2933 249.459 31.5333 249.459 33C249.459 34.48 248.972 35.7267 247.999 36.74C247.025 37.7533 245.852 38.26 244.479 38.26C242.959 38.26 241.792 37.7 240.979 36.58V42H238.819V28H240.979V29.44C241.792 28.3067 242.959 27.74 244.479 27.74ZM241.879 35.3C242.479 35.9 243.232 36.2 244.139 36.2C245.045 36.2 245.799 35.9 246.399 35.3C246.999 34.6867 247.299 33.92 247.299 33C247.299 32.08 246.999 31.32 246.399 30.72C245.799 30.1067 245.045 29.8 244.139 29.8C243.232 29.8 242.479 30.1067 241.879 30.72C241.279 31.32 240.979 32.08 240.979 33C240.979 33.92 241.279 34.6867 241.879 35.3ZM251.416 38V23.4H253.576V38H251.416ZM257.784 33.92C257.944 34.68 258.311 35.2667 258.884 35.68C259.458 36.08 260.158 36.28 260.984 36.28C262.131 36.28 262.991 35.8667 263.564 35.04L265.344 36.08C264.358 37.5333 262.898 38.26 260.964 38.26C259.338 38.26 258.024 37.7667 257.024 36.78C256.024 35.78 255.524 34.52 255.524 33C255.524 31.5067 256.018 30.26 257.004 29.26C257.991 28.2467 259.258 27.74 260.804 27.74C262.271 27.74 263.471 28.2533 264.404 29.28C265.351 30.3067 265.824 31.5533 265.824 33.02C265.824 33.2467 265.798 33.5467 265.744 33.92H257.784ZM257.764 32.16H263.644C263.498 31.3467 263.158 30.7333 262.624 30.32C262.104 29.9067 261.491 29.7 260.784 29.7C259.984 29.7 259.318 29.92 258.784 30.36C258.251 30.8 257.911 31.4 257.764 32.16ZM269.924 35.6L268.524 40.8H266.724L267.524 35.6H269.924ZM29.18 53H31.34V63H29.18V61.56C28.3667 62.6933 27.2 63.26 25.68 63.26C24.3067 63.26 23.1333 62.7533 22.16 61.74C21.1867 60.7133 20.7 59.4667 20.7 58C20.7 56.52 21.1867 55.2733 22.16 54.26C23.1333 53.2467 24.3067 52.74 25.68 52.74C27.2 52.74 28.3667 53.3 29.18 54.42V53ZM23.76 60.3C24.36 60.9 25.1133 61.2 26.02 61.2C26.9267 61.2 27.68 60.9 28.28 60.3C28.88 59.6867 29.18 58.92 29.18 58C29.18 57.08 28.88 56.32 28.28 55.72C27.68 55.1067 26.9267 54.8 26.02 54.8C25.1133 54.8 24.36 55.1067 23.76 55.72C23.16 56.32 22.86 57.08 22.86 58C22.86 58.92 23.16 59.6867 23.76 60.3ZM39.1177 52.74C40.2643 52.74 41.191 53.1067 41.8977 53.84C42.6043 54.5733 42.9577 55.58 42.9577 56.86V63H40.7977V57.08C40.7977 56.3333 40.5977 55.76 40.1977 55.36C39.7977 54.96 39.251 54.76 38.5577 54.76C37.7977 54.76 37.1843 55 36.7177 55.48C36.251 55.9467 36.0177 56.6667 36.0177 57.64V63H33.8577V53H36.0177V54.28C36.671 53.2533 37.7043 52.74 39.1177 52.74ZM51.8281 53H54.1281L50.2881 63.32C49.3281 65.9067 47.7015 67.1333 45.4081 67V64.98C46.0881 65.02 46.6348 64.8733 47.0481 64.54C47.4615 64.22 47.8015 63.7133 48.0681 63.02L48.1681 62.82L43.9281 53H46.2881L49.2681 60.26L51.8281 53ZM59.8081 63.26C58.3415 63.26 57.0948 62.7533 56.0681 61.74C55.0415 60.7267 54.5281 59.48 54.5281 58C54.5281 56.52 55.0415 55.2733 56.0681 54.26C57.0948 53.2467 58.3415 52.74 59.8081 52.74C61.2881 52.74 62.5348 53.2467 63.5481 54.26C64.5748 55.2733 65.0881 56.52 65.0881 58C65.0881 59.48 64.5748 60.7267 63.5481 61.74C62.5348 62.7533 61.2881 63.26 59.8081 63.26ZM57.5881 60.26C58.1881 60.86 58.9281 61.16 59.8081 61.16C60.6881 61.16 61.4281 60.86 62.0281 60.26C62.6281 59.66 62.9281 58.9067 62.9281 58C62.9281 57.0933 62.6281 56.34 62.0281 55.74C61.4281 55.14 60.6881 54.84 59.8081 54.84C58.9281 54.84 58.1881 55.14 57.5881 55.74C56.9881 56.34 56.6881 57.0933 56.6881 58C56.6881 58.9067 56.9881 59.66 57.5881 60.26ZM72.3013 52.74C73.4479 52.74 74.3746 53.1067 75.0813 53.84C75.7879 54.5733 76.1413 55.58 76.1413 56.86V63H73.9813V57.08C73.9813 56.3333 73.7813 55.76 73.3813 55.36C72.9813 54.96 72.4346 54.76 71.7413 54.76C70.9813 54.76 70.3679 55 69.9013 55.48C69.4346 55.9467 69.2013 56.6667 69.2013 57.64V63H67.0413V53H69.2013V54.28C69.8546 53.2533 70.8879 52.74 72.3013 52.74ZM80.167 58.92C80.327 59.68 80.6937 60.2667 81.267 60.68C81.8404 61.08 82.5404 61.28 83.367 61.28C84.5137 61.28 85.3737 60.8667 85.947 60.04L87.727 61.08C86.7404 62.5333 85.2804 63.26 83.347 63.26C81.7204 63.26 80.407 62.7667 79.407 61.78C78.407 60.78 77.907 59.52 77.907 58C77.907 56.5067 78.4004 55.26 79.387 54.26C80.3737 53.2467 81.6404 52.74 83.187 52.74C84.6537 52.74 85.8537 53.2533 86.787 54.28C87.7337 55.3067 88.207 56.5533 88.207 58.02C88.207 58.2467 88.1804 58.5467 88.127 58.92H80.167ZM80.147 57.16H86.027C85.8804 56.3467 85.5404 55.7333 85.007 55.32C84.487 54.9067 83.8737 54.7 83.167 54.7C82.367 54.7 81.7004 54.92 81.167 55.36C80.6337 55.8 80.2937 56.4 80.147 57.16ZM99.8277 63.26C98.321 63.26 97.061 62.7533 96.0477 61.74C95.0477 60.7267 94.5477 59.48 94.5477 58C94.5477 56.5067 95.0477 55.26 96.0477 54.26C97.061 53.2467 98.321 52.74 99.8277 52.74C100.801 52.74 101.688 52.9733 102.488 53.44C103.288 53.9067 103.888 54.5333 104.288 55.32L102.428 56.4C102.201 55.92 101.854 55.5467 101.388 55.28C100.934 55 100.408 54.86 99.8077 54.86C98.9277 54.86 98.1877 55.16 97.5877 55.76C97.001 56.36 96.7077 57.1067 96.7077 58C96.7077 58.8933 97.001 59.64 97.5877 60.24C98.1877 60.84 98.9277 61.14 99.8077 61.14C100.394 61.14 100.921 61 101.388 60.72C101.868 60.44 102.228 60.0667 102.468 59.6L104.328 60.66C103.901 61.46 103.288 62.0933 102.488 62.56C101.688 63.0267 100.801 63.26 99.8277 63.26ZM113.653 53H115.813V63H113.653V61.56C112.839 62.6933 111.673 63.26 110.153 63.26C108.779 63.26 107.606 62.7533 106.633 61.74C105.659 60.7133 105.173 59.4667 105.173 58C105.173 56.52 105.659 55.2733 106.633 54.26C107.606 53.2467 108.779 52.74 110.153 52.74C111.673 52.74 112.839 53.3 113.653 54.42V53ZM108.233 60.3C108.833 60.9 109.586 61.2 110.493 61.2C111.399 61.2 112.153 60.9 112.753 60.3C113.353 59.6867 113.653 58.92 113.653 58C113.653 57.08 113.353 56.32 112.753 55.72C112.153 55.1067 111.399 54.8 110.493 54.8C109.586 54.8 108.833 55.1067 108.233 55.72C107.633 56.32 107.333 57.08 107.333 58C107.333 58.92 107.633 59.6867 108.233 60.3ZM123.59 52.74C124.737 52.74 125.664 53.1067 126.37 53.84C127.077 54.5733 127.43 55.58 127.43 56.86V63H125.27V57.08C125.27 56.3333 125.07 55.76 124.67 55.36C124.27 54.96 123.724 54.76 123.03 54.76C122.27 54.76 121.657 55 121.19 55.48C120.724 55.9467 120.49 56.6667 120.49 57.64V63H118.33V53H120.49V54.28C121.144 53.2533 122.177 52.74 123.59 52.74ZM142.676 49H144.836V63H142.676V61.56C141.863 62.6933 140.696 63.26 139.176 63.26C137.803 63.26 136.629 62.7533 135.656 61.74C134.683 60.7133 134.196 59.4667 134.196 58C134.196 56.52 134.683 55.2733 135.656 54.26C136.629 53.2467 137.803 52.74 139.176 52.74C140.696 52.74 141.863 53.3 142.676 54.42V49ZM137.256 60.3C137.856 60.9 138.609 61.2 139.516 61.2C140.423 61.2 141.176 60.9 141.776 60.3C142.376 59.6867 142.676 58.92 142.676 58C142.676 57.08 142.376 56.32 141.776 55.72C141.176 55.1067 140.423 54.8 139.516 54.8C138.609 54.8 137.856 55.1067 137.256 55.72C136.656 56.32 136.356 57.08 136.356 58C136.356 58.92 136.656 59.6867 137.256 60.3ZM152.074 63.26C150.607 63.26 149.36 62.7533 148.334 61.74C147.307 60.7267 146.794 59.48 146.794 58C146.794 56.52 147.307 55.2733 148.334 54.26C149.36 53.2467 150.607 52.74 152.074 52.74C153.554 52.74 154.8 53.2467 155.814 54.26C156.84 55.2733 157.354 56.52 157.354 58C157.354 59.48 156.84 60.7267 155.814 61.74C154.8 62.7533 153.554 63.26 152.074 63.26ZM149.854 60.26C150.454 60.86 151.194 61.16 152.074 61.16C152.954 61.16 153.694 60.86 154.294 60.26C154.894 59.66 155.194 58.9067 155.194 58C155.194 57.0933 154.894 56.34 154.294 55.74C153.694 55.14 152.954 54.84 152.074 54.84C151.194 54.84 150.454 55.14 149.854 55.74C149.254 56.34 148.954 57.0933 148.954 58C148.954 58.9067 149.254 59.66 149.854 60.26ZM166.347 51.1C166.08 51.3667 165.76 51.5 165.387 51.5C165.014 51.5 164.687 51.3667 164.407 51.1C164.14 50.82 164.007 50.4933 164.007 50.12C164.007 49.7467 164.14 49.4267 164.407 49.16C164.674 48.88 165 48.74 165.387 48.74C165.774 48.74 166.1 48.88 166.367 49.16C166.634 49.4267 166.767 49.7467 166.767 50.12C166.767 50.4933 166.627 50.82 166.347 51.1ZM164.307 63V53H166.467V63H164.307ZM174.555 55.08H172.075V59.88C172.075 60.2933 172.168 60.5933 172.355 60.78C172.542 60.9533 172.815 61.0533 173.175 61.08C173.548 61.0933 174.008 61.0867 174.555 61.06V63C172.902 63.2 171.715 63.06 170.995 62.58C170.275 62.0867 169.915 61.1867 169.915 59.88V55.08H168.075V53H169.915V50.84L172.075 50.2V53H174.555V55.08Z" fill="white"/>
<rect x="20" y="92" width="110" height="34" rx="8" fill="white"/>
<path d="M38.664 110.328C38.808 111.012 39.138 111.54 39.654 111.912C40.17 112.272 40.8 112.452 41.544 112.452C42.576 112.452 43.35 112.08 43.866 111.336L45.468 112.272C44.58 113.58 43.266 114.234 41.526 114.234C40.062 114.234 38.88 113.79 37.98 112.902C37.08 112.002 36.63 110.868 36.63 109.5C36.63 108.156 37.074 107.034 37.962 106.134C38.85 105.222 39.99 104.766 41.382 104.766C42.702 104.766 43.782 105.228 44.622 106.152C45.474 107.076 45.9 108.198 45.9 109.518C45.9 109.722 45.876 109.992 45.828 110.328H38.664ZM38.646 108.744H43.938C43.806 108.012 43.5 107.46 43.02 107.088C42.552 106.716 42 106.53 41.364 106.53C40.644 106.53 40.044 106.728 39.564 107.124C39.084 107.52 38.778 108.06 38.646 108.744ZM55.1166 103.38H49.8066V106.908H54.9366V108.888H49.8066V114H47.7366V101.4H55.1166V103.38ZM58.763 103.29C58.523 103.53 58.235 103.65 57.899 103.65C57.563 103.65 57.269 103.53 57.017 103.29C56.777 103.038 56.657 102.744 56.657 102.408C56.657 102.072 56.777 101.784 57.017 101.544C57.257 101.292 57.551 101.166 57.899 101.166C58.247 101.166 58.541 101.292 58.781 101.544C59.021 101.784 59.141 102.072 59.141 102.408C59.141 102.744 59.015 103.038 58.763 103.29ZM56.927 114V105H58.871V114H56.927ZM61.1281 114V100.86H63.0721V114H61.1281ZM66.8593 110.328C67.0033 111.012 67.3333 111.54 67.8493 111.912C68.3653 112.272 68.9953 112.452 69.7393 112.452C70.7713 112.452 71.5453 112.08 72.0613 111.336L73.6633 112.272C72.7753 113.58 71.4613 114.234 69.7213 114.234C68.2573 114.234 67.0753 113.79 66.1753 112.902C65.2753 112.002 64.8253 110.868 64.8253 109.5C64.8253 108.156 65.2693 107.034 66.1573 106.134C67.0453 105.222 68.1853 104.766 69.5773 104.766C70.8973 104.766 71.9773 105.228 72.8173 106.152C73.6693 107.076 74.0953 108.198 74.0953 109.518C74.0953 109.722 74.0713 109.992 74.0233 110.328H66.8593ZM66.8413 108.744H72.1333C72.0013 108.012 71.6953 107.46 71.2153 107.088C70.7473 106.716 70.1953 106.53 69.5593 106.53C68.8393 106.53 68.2393 106.728 67.7593 107.124C67.2793 107.52 66.9733 108.06 66.8413 108.744ZM85.0399 104.766C86.0719 104.766 86.9059 105.096 87.5419 105.756C88.1779 106.416 88.4959 107.322 88.4959 108.474V114H86.5519V108.672C86.5519 108 86.3719 107.484 86.0119 107.124C85.6519 106.764 85.1599 106.584 84.5359 106.584C83.8519 106.584 83.2999 106.8 82.8799 107.232C82.4599 107.652 82.2499 108.3 82.2499 109.176V114H80.3059V105H82.2499V106.152C82.8379 105.228 83.7679 104.766 85.0399 104.766ZM94.8371 114.234C93.5171 114.234 92.3951 113.778 91.4711 112.866C90.5471 111.954 90.0851 110.832 90.0851 109.5C90.0851 108.168 90.5471 107.046 91.4711 106.134C92.3951 105.222 93.5171 104.766 94.8371 104.766C96.1691 104.766 97.2911 105.222 98.2031 106.134C99.1271 107.046 99.5891 108.168 99.5891 109.5C99.5891 110.832 99.1271 111.954 98.2031 112.866C97.2911 113.778 96.1691 114.234 94.8371 114.234ZM92.8391 111.534C93.3791 112.074 94.0451 112.344 94.8371 112.344C95.6291 112.344 96.2951 112.074 96.8351 111.534C97.3751 110.994 97.6451 110.316 97.6451 109.5C97.6451 108.684 97.3751 108.006 96.8351 107.466C96.2951 106.926 95.6291 106.656 94.8371 106.656C94.0451 106.656 93.3791 106.926 92.8391 107.466C92.2991 108.006 92.0291 108.684 92.0291 109.5C92.0291 110.316 92.2991 110.994 92.8391 111.534ZM111.363 105H113.415L110.589 114H108.681L106.809 107.934L104.919 114H103.011L100.185 105H102.237L103.983 111.21L105.873 105H107.727L109.599 111.21L111.363 105Z" fill="#59BA4B"/>
<circle cx="329.5" cy="158.5" r="91.5" fill="white" fill-opacity="0.11"/>
<circle cx="285.5" cy="158.5" r="91.5" fill="white" fill-opacity="0.11"/>
<circle cx="254.5" cy="158.5" r="91.5" fill="white" fill-opacity="0.11"/>
</g>
<defs>
<clipPath id="clip0_691_707">
<rect width="350" height="146" rx="12" fill="white"/>
</clipPath>
</defs>
</svg>
