<svg width="350" height="146" viewBox="0 0 350 146" fill="none" xmlns="http://www.w3.org/2000/svg">
<g clip-path="url(#clip0_691_714)">
<rect width="350" height="146" rx="12" fill="url(#paint0_linear_691_714)"/>
<path d="M350 82L96.5 0H286L350 29V82Z" fill="url(#paint1_linear_691_714)"/>
<path d="M33.1 36.16C31.7 37.56 29.9867 38.26 27.96 38.26C25.9333 38.26 24.2133 37.56 22.8 36.16C21.4 34.7467 20.7 33.0267 20.7 31C20.7 28.9733 21.4 27.26 22.8 25.86C24.2133 24.4467 25.9333 23.74 27.96 23.74C29.9867 23.74 31.7 24.4467 33.1 25.86C34.5133 27.26 35.22 28.9733 35.22 31C35.22 33.0267 34.5133 34.7467 33.1 36.16ZM24.42 34.6C25.38 35.5467 26.56 36.02 27.96 36.02C29.36 36.02 30.5333 35.5467 31.48 34.6C32.44 33.64 32.92 32.44 32.92 31C32.92 29.56 32.44 28.3667 31.48 27.42C30.5333 26.46 29.36 25.98 27.96 25.98C26.56 25.98 25.38 26.46 24.42 27.42C23.4733 28.3667 23 29.56 23 31C23 32.44 23.4733 33.64 24.42 34.6ZM42.438 27.74C43.5846 27.74 44.5113 28.1067 45.218 28.84C45.9246 29.5733 46.278 30.58 46.278 31.86V38H44.118V32.08C44.118 31.3333 43.918 30.76 43.518 30.36C43.118 29.96 42.5713 29.76 41.878 29.76C41.118 29.76 40.5046 30 40.038 30.48C39.5713 30.9467 39.338 31.6667 39.338 32.64V38H37.178V28H39.338V29.28C39.9913 28.2533 41.0246 27.74 42.438 27.74ZM48.6038 38V23.4H50.7638V38H48.6038ZM60.0117 28H62.3117L58.4717 38.32C57.5117 40.9067 55.8851 42.1333 53.5917 42V39.98C54.2717 40.02 54.8184 39.8733 55.2317 39.54C55.6451 39.22 55.9851 38.7133 56.2517 38.02L56.3517 37.82L52.1117 28H54.4717L57.4517 35.26L60.0117 28ZM74.2423 30.08H71.7623V34.88C71.7623 35.2933 71.8557 35.5933 72.0423 35.78C72.229 35.9533 72.5023 36.0533 72.8623 36.08C73.2357 36.0933 73.6957 36.0867 74.2423 36.06V38C72.589 38.2 71.4023 38.06 70.6823 37.58C69.9623 37.0867 69.6023 36.1867 69.6023 34.88V30.08H67.7623V28H69.6023V25.84L71.7623 25.2V28H74.2423V30.08ZM81.4614 27.74C82.6081 27.74 83.5347 28.1067 84.2414 28.84C84.9481 29.5733 85.3014 30.58 85.3014 31.86V38H83.1414V32.08C83.1414 31.3333 82.9414 30.76 82.5414 30.36C82.1414 29.96 81.5947 29.76 80.9014 29.76C80.1414 29.76 79.5281 30 79.0614 30.48C78.5947 30.9467 78.3614 31.6667 78.3614 32.64V38H76.2014V24H78.3614V29.28C79.0147 28.2533 80.0481 27.74 81.4614 27.74ZM89.3272 33.92C89.4872 34.68 89.8539 35.2667 90.4272 35.68C91.0005 36.08 91.7005 36.28 92.5272 36.28C93.6739 36.28 94.5339 35.8667 95.1072 35.04L96.8872 36.08C95.9005 37.5333 94.4405 38.26 92.5072 38.26C90.8805 38.26 89.5672 37.7667 88.5672 36.78C87.5672 35.78 87.0672 34.52 87.0672 33C87.0672 31.5067 87.5605 30.26 88.5472 29.26C89.5339 28.2467 90.8005 27.74 92.3472 27.74C93.8139 27.74 95.0139 28.2533 95.9472 29.28C96.8939 30.3067 97.3672 31.5533 97.3672 33.02C97.3672 33.2467 97.3405 33.5467 97.2872 33.92H89.3272ZM89.3072 32.16H95.1872C95.0405 31.3467 94.7005 30.7333 94.1672 30.32C93.6472 29.9067 93.0339 29.7 92.3272 29.7C91.5272 29.7 90.8605 29.92 90.3272 30.36C89.7939 30.8 89.4539 31.4 89.3072 32.16ZM109.928 27.74C111.301 27.74 112.474 28.2467 113.448 29.26C114.421 30.2733 114.908 31.52 114.908 33C114.908 34.4667 114.421 35.7133 113.448 36.74C112.474 37.7533 111.301 38.26 109.928 38.26C108.408 38.26 107.241 37.6933 106.428 36.56V38H104.268V24H106.428V29.42C107.241 28.3 108.408 27.74 109.928 27.74ZM107.328 35.3C107.928 35.9 108.681 36.2 109.588 36.2C110.494 36.2 111.248 35.9 111.848 35.3C112.448 34.6867 112.748 33.92 112.748 33C112.748 32.08 112.448 31.32 111.848 30.72C111.248 30.1067 110.494 29.8 109.588 29.8C108.681 29.8 107.928 30.1067 107.328 30.72C106.728 31.32 106.428 32.08 106.428 33C106.428 33.92 106.728 34.6867 107.328 35.3ZM118.565 33.92C118.725 34.68 119.092 35.2667 119.665 35.68C120.239 36.08 120.939 36.28 121.765 36.28C122.912 36.28 123.772 35.8667 124.345 35.04L126.125 36.08C125.139 37.5333 123.679 38.26 121.745 38.26C120.119 38.26 118.805 37.7667 117.805 36.78C116.805 35.78 116.305 34.52 116.305 33C116.305 31.5067 116.799 30.26 117.785 29.26C118.772 28.2467 120.039 27.74 121.585 27.74C123.052 27.74 124.252 28.2533 125.185 29.28C126.132 30.3067 126.605 31.5533 126.605 33.02C126.605 33.2467 126.579 33.5467 126.525 33.92H118.565ZM118.545 32.16H124.425C124.279 31.3467 123.939 30.7333 123.405 30.32C122.885 29.9067 122.272 29.7 121.565 29.7C120.765 29.7 120.099 29.92 119.565 30.36C119.032 30.8 118.692 31.4 118.545 32.16ZM130.055 30.76C130.055 31.0933 130.235 31.36 130.595 31.56C130.969 31.7467 131.415 31.9133 131.935 32.06C132.469 32.1933 133.002 32.3533 133.535 32.54C134.069 32.7267 134.515 33.0467 134.875 33.5C135.249 33.94 135.435 34.5 135.435 35.18C135.435 36.14 135.062 36.8933 134.315 37.44C133.582 37.9867 132.655 38.26 131.535 38.26C130.549 38.26 129.702 38.0533 128.995 37.64C128.289 37.2267 127.775 36.6533 127.455 35.92L129.315 34.84C129.662 35.8 130.402 36.28 131.535 36.28C132.669 36.28 133.235 35.9067 133.235 35.16C133.235 34.84 133.049 34.58 132.675 34.38C132.315 34.18 131.869 34.0133 131.335 33.88C130.815 33.7333 130.289 33.5667 129.755 33.38C129.222 33.1933 128.769 32.8867 128.395 32.46C128.035 32.02 127.855 31.4667 127.855 30.8C127.855 29.88 128.202 29.14 128.895 28.58C129.602 28.02 130.475 27.74 131.515 27.74C132.342 27.74 133.075 27.9267 133.715 28.3C134.369 28.66 134.869 29.1667 135.215 29.82L133.395 30.84C133.049 30.08 132.422 29.7 131.515 29.7C131.102 29.7 130.755 29.7933 130.475 29.98C130.195 30.1533 130.055 30.4133 130.055 30.76ZM142.524 30.08H140.044V34.88C140.044 35.2933 140.137 35.5933 140.324 35.78C140.51 35.9533 140.784 36.0533 141.144 36.08C141.517 36.0933 141.977 36.0867 142.524 36.06V38C140.87 38.2 139.684 38.06 138.964 37.58C138.244 37.0867 137.884 36.1867 137.884 34.88V30.08H136.044V28H137.884V25.84L140.044 25.2V28H142.524V30.08ZM154.82 25.82C153.247 25.6733 152.46 26.3333 152.46 27.8V28H154.82V30.08H152.46V38H150.3V30.08H148.78V28H150.3V27.8C150.3 26.4267 150.68 25.3867 151.44 24.68C152.214 23.96 153.34 23.6467 154.82 23.74V25.82ZM160.335 38.26C158.869 38.26 157.622 37.7533 156.595 36.74C155.569 35.7267 155.055 34.48 155.055 33C155.055 31.52 155.569 30.2733 156.595 29.26C157.622 28.2467 158.869 27.74 160.335 27.74C161.815 27.74 163.062 28.2467 164.075 29.26C165.102 30.2733 165.615 31.52 165.615 33C165.615 34.48 165.102 35.7267 164.075 36.74C163.062 37.7533 161.815 38.26 160.335 38.26ZM158.115 35.26C158.715 35.86 159.455 36.16 160.335 36.16C161.215 36.16 161.955 35.86 162.555 35.26C163.155 34.66 163.455 33.9067 163.455 33C163.455 32.0933 163.155 31.34 162.555 30.74C161.955 30.14 161.215 29.84 160.335 29.84C159.455 29.84 158.715 30.14 158.115 30.74C157.515 31.34 157.215 32.0933 157.215 33C157.215 33.9067 157.515 34.66 158.115 35.26ZM169.729 29.68C170.275 28.44 171.302 27.82 172.809 27.82V30.16C171.982 30.1067 171.262 30.3067 170.649 30.76C170.035 31.2 169.729 31.9333 169.729 32.96V38H167.569V28H169.729V29.68ZM186.145 28H188.445L184.605 38.32C183.645 40.9067 182.018 42.1333 179.725 42V39.98C180.405 40.02 180.951 39.8733 181.365 39.54C181.778 39.22 182.118 38.7133 182.385 38.02L182.485 37.82L178.245 28H180.605L183.585 35.26L186.145 28ZM194.125 38.26C192.658 38.26 191.411 37.7533 190.385 36.74C189.358 35.7267 188.845 34.48 188.845 33C188.845 31.52 189.358 30.2733 190.385 29.26C191.411 28.2467 192.658 27.74 194.125 27.74C195.605 27.74 196.851 28.2467 197.865 29.26C198.891 30.2733 199.405 31.52 199.405 33C199.405 34.48 198.891 35.7267 197.865 36.74C196.851 37.7533 195.605 38.26 194.125 38.26ZM191.905 35.26C192.505 35.86 193.245 36.16 194.125 36.16C195.005 36.16 195.745 35.86 196.345 35.26C196.945 34.66 197.245 33.9067 197.245 33C197.245 32.0933 196.945 31.34 196.345 30.74C195.745 30.14 195.005 29.84 194.125 29.84C193.245 29.84 192.505 30.14 191.905 30.74C191.305 31.34 191.005 32.0933 191.005 33C191.005 33.9067 191.305 34.66 191.905 35.26ZM208.098 28H210.258V38H208.098V36.72C207.444 37.7467 206.411 38.26 204.998 38.26C203.851 38.26 202.924 37.8933 202.218 37.16C201.511 36.4267 201.158 35.42 201.158 34.14V28H203.318V33.92C203.318 34.6667 203.518 35.24 203.918 35.64C204.318 36.04 204.864 36.24 205.558 36.24C206.318 36.24 206.931 36.0067 207.398 35.54C207.864 35.06 208.098 34.3333 208.098 33.36V28ZM215.143 37.8C214.85 38.0933 214.497 38.24 214.083 38.24C213.67 38.24 213.317 38.0933 213.023 37.8C212.73 37.5067 212.583 37.1533 212.583 36.74C212.583 36.3267 212.723 35.9733 213.003 35.68C213.297 35.3867 213.657 35.24 214.083 35.24C214.497 35.24 214.85 35.3867 215.143 35.68C215.437 35.9733 215.583 36.3267 215.583 36.74C215.583 37.1533 215.437 37.5067 215.143 37.8ZM236.641 30.76V31.72C236.641 33.64 236.008 35.2133 234.741 36.44C233.474 37.6533 231.821 38.26 229.781 38.26C227.621 38.26 225.834 37.56 224.421 36.16C223.021 34.76 222.321 33.04 222.321 31C222.321 28.9733 223.021 27.26 224.421 25.86C225.834 24.4467 227.581 23.74 229.661 23.74C230.968 23.74 232.161 24.04 233.241 24.64C234.321 25.24 235.161 26.0467 235.761 27.06L233.781 28.2C233.408 27.5333 232.854 27 232.121 26.6C231.388 26.1867 230.568 25.98 229.661 25.98C228.194 25.98 226.988 26.46 226.041 27.42C225.094 28.38 224.621 29.58 224.621 31.02C224.621 32.46 225.094 33.6533 226.041 34.6C227.001 35.5467 228.254 36.02 229.801 36.02C231.041 36.02 232.048 35.7333 232.821 35.16C233.608 34.5733 234.108 33.7933 234.321 32.82H229.641V30.76H236.641ZM240.304 33.92C240.464 34.68 240.83 35.2667 241.404 35.68C241.977 36.08 242.677 36.28 243.504 36.28C244.65 36.28 245.51 35.8667 246.084 35.04L247.864 36.08C246.877 37.5333 245.417 38.26 243.484 38.26C241.857 38.26 240.544 37.7667 239.544 36.78C238.544 35.78 238.044 34.52 238.044 33C238.044 31.5067 238.537 30.26 239.524 29.26C240.51 28.2467 241.777 27.74 243.324 27.74C244.79 27.74 245.99 28.2533 246.924 29.28C247.87 30.3067 248.344 31.5533 248.344 33.02C248.344 33.2467 248.317 33.5467 248.264 33.92H240.304ZM240.284 32.16H246.164C246.017 31.3467 245.677 30.7333 245.144 30.32C244.624 29.9067 244.01 29.7 243.304 29.7C242.504 29.7 241.837 29.92 241.304 30.36C240.77 30.8 240.43 31.4 240.284 32.16ZM255.512 30.08H253.032V34.88C253.032 35.2933 253.125 35.5933 253.312 35.78C253.499 35.9533 253.772 36.0533 254.132 36.08C254.505 36.0933 254.965 36.0867 255.512 36.06V38C253.859 38.2 252.672 38.06 251.952 37.58C251.232 37.0867 250.872 36.1867 250.872 34.88V30.08H249.032V28H250.872V25.84L253.032 25.2V28H255.512V30.08ZM270.489 28H272.649V38H270.489V36.56C269.675 37.6933 268.509 38.26 266.989 38.26C265.615 38.26 264.442 37.7533 263.469 36.74C262.495 35.7133 262.009 34.4667 262.009 33C262.009 31.52 262.495 30.2733 263.469 29.26C264.442 28.2467 265.615 27.74 266.989 27.74C268.509 27.74 269.675 28.3 270.489 29.42V28ZM265.069 35.3C265.669 35.9 266.422 36.2 267.329 36.2C268.235 36.2 268.989 35.9 269.589 35.3C270.189 34.6867 270.489 33.92 270.489 33C270.489 32.08 270.189 31.32 269.589 30.72C268.989 30.1067 268.235 29.8 267.329 29.8C266.422 29.8 265.669 30.1067 265.069 30.72C264.469 31.32 264.169 32.08 264.169 33C264.169 33.92 264.469 34.6867 265.069 35.3ZM280.426 27.74C281.573 27.74 282.5 28.1067 283.206 28.84C283.913 29.5733 284.266 30.58 284.266 31.86V38H282.106V32.08C282.106 31.3333 281.906 30.76 281.506 30.36C281.106 29.96 280.56 29.76 279.866 29.76C279.106 29.76 278.493 30 278.026 30.48C277.56 30.9467 277.326 31.6667 277.326 32.64V38H275.166V28H277.326V29.28C277.98 28.2533 279.013 27.74 280.426 27.74ZM22.96 58.92C23.12 59.68 23.4867 60.2667 24.06 60.68C24.6333 61.08 25.3333 61.28 26.16 61.28C27.3067 61.28 28.1667 60.8667 28.74 60.04L30.52 61.08C29.5333 62.5333 28.0733 63.26 26.14 63.26C24.5133 63.26 23.2 62.7667 22.2 61.78C21.2 60.78 20.7 59.52 20.7 58C20.7 56.5067 21.1933 55.26 22.18 54.26C23.1667 53.2467 24.4333 52.74 25.98 52.74C27.4467 52.74 28.6467 53.2533 29.58 54.28C30.5267 55.3067 31 56.5533 31 58.02C31 58.2467 30.9733 58.5467 30.92 58.92H22.96ZM22.94 57.16H28.82C28.6733 56.3467 28.3333 55.7333 27.8 55.32C27.28 54.9067 26.6667 54.7 25.96 54.7C25.16 54.7 24.4933 54.92 23.96 55.36C23.4267 55.8 23.0867 56.4 22.94 57.16ZM41.3328 63H38.8328L36.3528 59.58L33.8528 63H31.3328L35.0928 57.86L31.5328 53H34.0328L36.3328 56.16L38.6328 53H41.1528L37.5928 57.88L41.3328 63ZM48.4434 52.74C49.8168 52.74 50.9901 53.2533 51.9634 54.28C52.9368 55.2933 53.4234 56.5333 53.4234 58C53.4234 59.48 52.9368 60.7267 51.9634 61.74C50.9901 62.7533 49.8168 63.26 48.4434 63.26C46.9234 63.26 45.7568 62.7 44.9434 61.58V67H42.7834V53H44.9434V54.44C45.7568 53.3067 46.9234 52.74 48.4434 52.74ZM45.8434 60.3C46.4434 60.9 47.1968 61.2 48.1034 61.2C49.0101 61.2 49.7634 60.9 50.3634 60.3C50.9634 59.6867 51.2634 58.92 51.2634 58C51.2634 57.08 50.9634 56.32 50.3634 55.72C49.7634 55.1067 49.0101 54.8 48.1034 54.8C47.1968 54.8 46.4434 55.1067 45.8434 55.72C45.2434 56.32 44.9434 57.08 44.9434 58C44.9434 58.92 45.2434 59.6867 45.8434 60.3ZM57.0811 58.92C57.2411 59.68 57.6078 60.2667 58.1811 60.68C58.7544 61.08 59.4544 61.28 60.2811 61.28C61.4278 61.28 62.2878 60.8667 62.8611 60.04L64.6411 61.08C63.6544 62.5333 62.1944 63.26 60.2611 63.26C58.6344 63.26 57.3211 62.7667 56.3211 61.78C55.3211 60.78 54.8211 59.52 54.8211 58C54.8211 56.5067 55.3144 55.26 56.3011 54.26C57.2878 53.2467 58.5544 52.74 60.1011 52.74C61.5678 52.74 62.7678 53.2533 63.7011 54.28C64.6478 55.3067 65.1211 56.5533 65.1211 58.02C65.1211 58.2467 65.0944 58.5467 65.0411 58.92H57.0811ZM57.0611 57.16H62.9411C62.7944 56.3467 62.4544 55.7333 61.9211 55.32C61.4011 54.9067 60.7878 54.7 60.0811 54.7C59.2811 54.7 58.6144 54.92 58.0811 55.36C57.5478 55.8 57.2078 56.4 57.0611 57.16ZM69.1817 54.68C69.7284 53.44 70.7551 52.82 72.2617 52.82V55.16C71.4351 55.1067 70.7151 55.3067 70.1017 55.76C69.4884 56.2 69.1817 56.9333 69.1817 57.96V63H67.0217V53H69.1817V54.68ZM79.6916 55.08H77.2116V59.88C77.2116 60.2933 77.3049 60.5933 77.4916 60.78C77.6782 60.9533 77.9516 61.0533 78.3116 61.08C78.6849 61.0933 79.1449 61.0867 79.6916 61.06V63C78.0382 63.2 76.8516 63.06 76.1316 62.58C75.4116 62.0867 75.0516 61.1867 75.0516 59.88V55.08H73.2116V53H75.0516V50.84L77.2116 50.2V53H79.6916V55.08ZM92.3283 55.08H89.8483V59.88C89.8483 60.2933 89.9416 60.5933 90.1283 60.78C90.3149 60.9533 90.5883 61.0533 90.9483 61.08C91.3216 61.0933 91.7816 61.0867 92.3283 61.06V63C90.6749 63.2 89.4883 63.06 88.7683 62.58C88.0483 62.0867 87.6883 61.1867 87.6883 59.88V55.08H85.8483V53H87.6883V50.84L89.8483 50.2V53H92.3283V55.08ZM98.5972 63.26C97.1305 63.26 95.8839 62.7533 94.8572 61.74C93.8305 60.7267 93.3172 59.48 93.3172 58C93.3172 56.52 93.8305 55.2733 94.8572 54.26C95.8839 53.2467 97.1305 52.74 98.5972 52.74C100.077 52.74 101.324 53.2467 102.337 54.26C103.364 55.2733 103.877 56.52 103.877 58C103.877 59.48 103.364 60.7267 102.337 61.74C101.324 62.7533 100.077 63.26 98.5972 63.26ZM96.3772 60.26C96.9772 60.86 97.7172 61.16 98.5972 61.16C99.4772 61.16 100.217 60.86 100.817 60.26C101.417 59.66 101.717 58.9067 101.717 58C101.717 57.0933 101.417 56.34 100.817 55.74C100.217 55.14 99.4772 54.84 98.5972 54.84C97.7172 54.84 96.9772 55.14 96.3772 55.74C95.7772 56.34 95.4772 57.0933 95.4772 58C95.4772 58.9067 95.7772 59.66 96.3772 60.26ZM112.53 58.92C112.69 59.68 113.057 60.2667 113.63 60.68C114.204 61.08 114.904 61.28 115.73 61.28C116.877 61.28 117.737 60.8667 118.31 60.04L120.09 61.08C119.104 62.5333 117.644 63.26 115.71 63.26C114.084 63.26 112.77 62.7667 111.77 61.78C110.77 60.78 110.27 59.52 110.27 58C110.27 56.5067 110.764 55.26 111.75 54.26C112.737 53.2467 114.004 52.74 115.55 52.74C117.017 52.74 118.217 53.2533 119.15 54.28C120.097 55.3067 120.57 56.5533 120.57 58.02C120.57 58.2467 120.544 58.5467 120.49 58.92H112.53ZM112.51 57.16H118.39C118.244 56.3467 117.904 55.7333 117.37 55.32C116.85 54.9067 116.237 54.7 115.53 54.7C114.73 54.7 114.064 54.92 113.53 55.36C112.997 55.8 112.657 56.4 112.51 57.16ZM130.811 51.2H124.911V55.12H130.611V57.32H124.911V63H122.611V49H130.811V51.2ZM134.863 51.1C134.596 51.3667 134.276 51.5 133.903 51.5C133.529 51.5 133.203 51.3667 132.923 51.1C132.656 50.82 132.523 50.4933 132.523 50.12C132.523 49.7467 132.656 49.4267 132.923 49.16C133.189 48.88 133.516 48.74 133.903 48.74C134.289 48.74 134.616 48.88 134.883 49.16C135.149 49.4267 135.283 49.7467 135.283 50.12C135.283 50.4933 135.143 50.82 134.863 51.1ZM132.823 63V53H134.983V63H132.823ZM137.49 63V48.4H139.65V63H137.49ZM143.858 58.92C144.018 59.68 144.385 60.2667 144.958 60.68C145.532 61.08 146.232 61.28 147.058 61.28C148.205 61.28 149.065 60.8667 149.638 60.04L151.418 61.08C150.432 62.5333 148.972 63.26 147.038 63.26C145.412 63.26 144.098 62.7667 143.098 61.78C142.098 60.78 141.598 59.52 141.598 58C141.598 56.5067 142.092 55.26 143.078 54.26C144.065 53.2467 145.332 52.74 146.878 52.74C148.345 52.74 149.545 53.2533 150.478 54.28C151.425 55.3067 151.898 56.5533 151.898 58.02C151.898 58.2467 151.872 58.5467 151.818 58.92H143.858ZM143.838 57.16H149.718C149.572 56.3467 149.232 55.7333 148.698 55.32C148.178 54.9067 147.565 54.7 146.858 54.7C146.058 54.7 145.392 54.92 144.858 55.36C144.325 55.8 143.985 56.4 143.838 57.16ZM165.539 53H167.839L163.999 63.32C163.039 65.9067 161.412 67.1333 159.119 67V64.98C159.799 65.02 160.346 64.8733 160.759 64.54C161.172 64.22 161.512 63.7133 161.779 63.02L161.879 62.82L157.639 53H159.999L162.979 60.26L165.539 53ZM173.519 63.26C172.052 63.26 170.806 62.7533 169.779 61.74C168.752 60.7267 168.239 59.48 168.239 58C168.239 56.52 168.752 55.2733 169.779 54.26C170.806 53.2467 172.052 52.74 173.519 52.74C174.999 52.74 176.246 53.2467 177.259 54.26C178.286 55.2733 178.799 56.52 178.799 58C178.799 59.48 178.286 60.7267 177.259 61.74C176.246 62.7533 174.999 63.26 173.519 63.26ZM171.299 60.26C171.899 60.86 172.639 61.16 173.519 61.16C174.399 61.16 175.139 60.86 175.739 60.26C176.339 59.66 176.639 58.9067 176.639 58C176.639 57.0933 176.339 56.34 175.739 55.74C175.139 55.14 174.399 54.84 173.519 54.84C172.639 54.84 171.899 55.14 171.299 55.74C170.699 56.34 170.399 57.0933 170.399 58C170.399 58.9067 170.699 59.66 171.299 60.26ZM187.492 53H189.652V63H187.492V61.72C186.839 62.7467 185.806 63.26 184.392 63.26C183.246 63.26 182.319 62.8933 181.612 62.16C180.906 61.4267 180.552 60.42 180.552 59.14V53H182.712V58.92C182.712 59.6667 182.912 60.24 183.312 60.64C183.712 61.04 184.259 61.24 184.952 61.24C185.712 61.24 186.326 61.0067 186.792 60.54C187.259 60.06 187.492 59.3333 187.492 58.36V53ZM194.338 54.68C194.885 53.44 195.911 52.82 197.418 52.82V55.16C196.591 55.1067 195.871 55.3067 195.258 55.76C194.645 56.2 194.338 56.9333 194.338 57.96V63H192.178V53H194.338V54.68ZM204.154 49H206.454V63H204.154V49ZM218.352 49V51.2H214.412V63H212.112V51.2H208.152V49H218.352ZM228.032 63L225.072 57.9H222.352V63H220.052V49H225.652C226.906 49 227.966 49.44 228.832 50.32C229.712 51.1867 230.152 52.2467 230.152 53.5C230.152 54.3933 229.892 55.2133 229.372 55.96C228.866 56.6933 228.199 57.2267 227.372 57.56L230.552 63H228.032ZM222.352 51.16V55.84H225.652C226.266 55.84 226.786 55.6133 227.212 55.16C227.639 54.7067 227.852 54.1533 227.852 53.5C227.852 52.8467 227.639 52.2933 227.212 51.84C226.786 51.3867 226.266 51.16 225.652 51.16H222.352Z" fill="white"/>
<rect x="20" y="92" width="131" height="34" rx="8" fill="white"/>
<path d="M44.73 101.4H46.8V114H44.73V108.546H39.33V114H37.26V101.4H39.33V106.566H44.73V101.4ZM51.0286 103.29C50.7886 103.53 50.5006 103.65 50.1646 103.65C49.8286 103.65 49.5346 103.53 49.2826 103.29C49.0426 103.038 48.9226 102.744 48.9226 102.408C48.9226 102.072 49.0426 101.784 49.2826 101.544C49.5226 101.292 49.8166 101.166 50.1646 101.166C50.5126 101.166 50.8066 101.292 51.0466 101.544C51.2866 101.784 51.4066 102.072 51.4066 102.408C51.4066 102.744 51.2806 103.038 51.0286 103.29ZM49.1926 114V105H51.1366V114H49.1926ZM55.3378 106.512C55.8298 105.396 56.7538 104.838 58.1098 104.838V106.944C57.3658 106.896 56.7178 107.076 56.1658 107.484C55.6138 107.88 55.3378 108.54 55.3378 109.464V114H53.3938V105H55.3378V106.512ZM60.6542 110.328C60.7982 111.012 61.1282 111.54 61.6442 111.912C62.1602 112.272 62.7902 112.452 63.5342 112.452C64.5662 112.452 65.3402 112.08 65.8562 111.336L67.4582 112.272C66.5702 113.58 65.2562 114.234 63.5162 114.234C62.0522 114.234 60.8702 113.79 59.9702 112.902C59.0702 112.002 58.6202 110.868 58.6202 109.5C58.6202 108.156 59.0642 107.034 59.9522 106.134C60.8402 105.222 61.9802 104.766 63.3722 104.766C64.6922 104.766 65.7722 105.228 66.6122 106.152C67.4642 107.076 67.8902 108.198 67.8902 109.518C67.8902 109.722 67.8662 109.992 67.8182 110.328H60.6542ZM60.6362 108.744H65.9282C65.7962 108.012 65.4902 107.46 65.0102 107.088C64.5422 106.716 63.9902 106.53 63.3542 106.53C62.6342 106.53 62.0342 106.728 61.5542 107.124C61.0742 107.52 60.7682 108.06 60.6362 108.744ZM81.2288 105H83.1728V114H81.2288V112.704C80.4968 113.724 79.4468 114.234 78.0788 114.234C76.8428 114.234 75.7868 113.778 74.9108 112.866C74.0348 111.942 73.5968 110.82 73.5968 109.5C73.5968 108.168 74.0348 107.046 74.9108 106.134C75.7868 105.222 76.8428 104.766 78.0788 104.766C79.4468 104.766 80.4968 105.27 81.2288 106.278V105ZM76.3508 111.57C76.8908 112.11 77.5688 112.38 78.3848 112.38C79.2008 112.38 79.8788 112.11 80.4188 111.57C80.9588 111.018 81.2288 110.328 81.2288 109.5C81.2288 108.672 80.9588 107.988 80.4188 107.448C79.8788 106.896 79.2008 106.62 78.3848 106.62C77.5688 106.62 76.8908 106.896 76.3508 107.448C75.8108 107.988 75.5408 108.672 75.5408 109.5C75.5408 110.328 75.8108 111.018 76.3508 111.57ZM90.1727 104.766C91.2047 104.766 92.0387 105.096 92.6747 105.756C93.3107 106.416 93.6287 107.322 93.6287 108.474V114H91.6847V108.672C91.6847 108 91.5047 107.484 91.1447 107.124C90.7847 106.764 90.2927 106.584 89.6687 106.584C88.9847 106.584 88.4327 106.8 88.0127 107.232C87.5927 107.652 87.3827 108.3 87.3827 109.176V114H85.4387V105H87.3827V106.152C87.9707 105.228 88.9007 104.766 90.1727 104.766ZM101.752 110.328C101.896 111.012 102.226 111.54 102.742 111.912C103.258 112.272 103.888 112.452 104.632 112.452C105.664 112.452 106.438 112.08 106.954 111.336L108.556 112.272C107.668 113.58 106.354 114.234 104.614 114.234C103.15 114.234 101.968 113.79 101.068 112.902C100.168 112.002 99.7179 110.868 99.7179 109.5C99.7179 108.156 100.162 107.034 101.05 106.134C101.938 105.222 103.078 104.766 104.47 104.766C105.79 104.766 106.87 105.228 107.71 106.152C108.562 107.076 108.988 108.198 108.988 109.518C108.988 109.722 108.964 109.992 108.916 110.328H101.752ZM101.734 108.744H107.026C106.894 108.012 106.588 107.46 106.108 107.088C105.64 106.716 105.088 106.53 104.452 106.53C103.732 106.53 103.132 106.728 102.652 107.124C102.172 107.52 101.866 108.06 101.734 108.744ZM116.782 114.234C114.886 114.234 113.314 113.61 112.066 112.362C110.818 111.102 110.194 109.548 110.194 107.7C110.194 105.852 110.818 104.304 112.066 103.056C113.314 101.796 114.886 101.166 116.782 101.166C117.922 101.166 118.972 101.436 119.932 101.976C120.904 102.516 121.66 103.248 122.2 104.172L120.4 105.216C120.064 104.592 119.572 104.1 118.924 103.74C118.288 103.368 117.574 103.182 116.782 103.182C115.438 103.182 114.346 103.608 113.506 104.46C112.678 105.312 112.264 106.392 112.264 107.7C112.264 109.008 112.678 110.088 113.506 110.94C114.346 111.792 115.438 112.218 116.782 112.218C117.574 112.218 118.294 112.038 118.942 111.678C119.59 111.306 120.076 110.808 120.4 110.184L122.2 111.21C121.672 112.134 120.922 112.872 119.95 113.424C118.99 113.964 117.934 114.234 116.782 114.234ZM132.04 114L131.158 111.462H125.794L124.912 114H122.662L127.234 101.4H129.718L134.272 114H132.04ZM126.478 109.518H130.474L128.476 103.83L126.478 109.518Z" fill="#0C2343"/>
<path d="M244.085 89.9417L294.5 64L350 82V90.5L244.278 121.13C243.639 121.315 243 120.835 243 120.169V91.7201C243 90.9709 243.419 90.2845 244.085 89.9417Z" fill="url(#paint2_linear_691_714)"/>
<path d="M349.5 145.5L244 121L297 106L354.5 127.5L349.5 145.5Z" fill="url(#paint3_linear_691_714)"/>
</g>
<defs>
<linearGradient id="paint0_linear_691_714" x1="-40.5" y1="-15.0867" x2="346.841" y2="150.005" gradientUnits="userSpaceOnUse">
<stop stop-color="#0C2343"/>
<stop offset="1" stop-color="#045F6E"/>
</linearGradient>
<linearGradient id="paint1_linear_691_714" x1="301.5" y1="-4.49999" x2="251.5" y2="61.5" gradientUnits="userSpaceOnUse">
<stop stop-color="#086274"/>
<stop offset="1" stop-color="#59BA4B"/>
</linearGradient>
<linearGradient id="paint2_linear_691_714" x1="301" y1="56.5" x2="277.847" y2="112.694" gradientUnits="userSpaceOnUse">
<stop stop-color="#086274"/>
<stop offset="1" stop-color="#59BA4B"/>
</linearGradient>
<linearGradient id="paint3_linear_691_714" x1="301.458" y1="101.043" x2="290.356" y2="141.433" gradientUnits="userSpaceOnUse">
<stop stop-color="#086274"/>
<stop offset="1" stop-color="#59BA4B"/>
</linearGradient>
<clipPath id="clip0_691_714">
<rect width="350" height="146" rx="12" fill="white"/>
</clipPath>
</defs>
</svg>
