<?xml version="1.0" encoding="utf-8"?>
<!-- Generator: Adobe Illustrator 22.0.1, SVG Export Plug-In . SVG Version: 6.00 Build 0)  -->
<svg version="1.1" xmlns="http://www.w3.org/2000/svg" xmlns:xlink="http://www.w3.org/1999/xlink" x="0px" y="0px"
	 viewBox="0 0 1924 1452" style="enable-background:new 0 0 1924 1452;" xml:space="preserve">
<style type="text/css">
	.st0{fill:#86A7FF;}
	.st1{fill:#D3DFFF;}
	.st2{fill:#DADADA;}
	.st3{fill:#FFFFFF;}
	.st4{fill:#1F3C88;}
	.st5{fill:#FBC343;}
	.st6{fill:#E49B31;}
	.st7{fill:#ED7545;}
	.st8{opacity:0.4;fill:#E49B31;}
	.st9{fill:#102048;}
	.st10{fill:#F9B384;}
	.st11{fill:#E28B6D;}
	.st12{fill:#3A6BEA;}
	.st13{opacity:0.4;fill:#EB5D60;}
	.st14{fill:#BA5C36;}
	.st15{fill:#048087;}
</style>
<g id="BACKGROUND">
</g>
<g id="OBJECTS">
	<g>
		<path class="st0" d="M1322.7,1307.9h-787c-27.2,0-49.3-22.1-49.3-49.3V108.4c0-27.2,22.1-49.3,49.3-49.3h787
			c27.2,0,49.3,22.1,49.3,49.3v1150.3C1372,1285.9,1350,1307.9,1322.7,1307.9z"/>
		<rect x="773.2" y="114" class="st1" width="312.1" height="52.4"/>
		<rect x="574.8" y="246.3" class="st2" width="708.9" height="157.2"/>
		<rect x="605.8" y="267.8" class="st3" width="646.9" height="114.2"/>
		<g>
			<path class="st4" d="M1098.8,539.9h-48.2c-14.5,0-26.2-11.7-26.2-26.2v-11.1c0-14.5,11.7-26.2,26.2-26.2h48.2
				c14.5,0,26.2,11.7,26.2,26.2v11.1C1125,528.2,1113.3,539.9,1098.8,539.9z"/>
			<path class="st4" d="M1257.5,539.9h-48.2c-14.5,0-26.2-11.7-26.2-26.2v-11.1c0-14.5,11.7-26.2,26.2-26.2h48.2
				c14.5,0,26.2,11.7,26.2,26.2v11.1C1283.7,528.2,1272,539.9,1257.5,539.9z"/>
		</g>
		<g>
			<path class="st4" d="M1271.2,699.5h-96.7c-6.9,0-12.5-5.6-12.5-12.5v-58c0-6.9,5.6-12.5,12.5-12.5h96.7c6.9,0,12.5,5.6,12.5,12.5
				v58C1283.7,693.9,1278.1,699.5,1271.2,699.5z"/>
			<path class="st4" d="M1077.1,699.5h-96.7c-6.9,0-12.5-5.6-12.5-12.5v-58c0-6.9,5.6-12.5,12.5-12.5h96.7c6.9,0,12.5,5.6,12.5,12.5
				v58C1089.6,693.9,1084,699.5,1077.1,699.5z"/>
			<path class="st4" d="M883,699.5h-96.7c-6.9,0-12.5-5.6-12.5-12.5v-58c0-6.9,5.6-12.5,12.5-12.5H883c6.9,0,12.5,5.6,12.5,12.5v58
				C895.5,693.9,889.9,699.5,883,699.5z"/>
			<path class="st4" d="M688.9,699.5h-96.7c-6.9,0-12.5-5.6-12.5-12.5v-58c0-6.9,5.6-12.5,12.5-12.5h96.7c6.9,0,12.5,5.6,12.5,12.5
				v58C701.3,693.9,695.8,699.5,688.9,699.5z"/>
		</g>
		<g>
			<path class="st4" d="M1271.2,849.4h-96.7c-6.9,0-12.5-5.6-12.5-12.5v-58c0-6.9,5.6-12.5,12.5-12.5h96.7c6.9,0,12.5,5.6,12.5,12.5
				v58C1283.7,843.8,1278.1,849.4,1271.2,849.4z"/>
			<path class="st1" d="M1077.1,849.4h-96.7c-6.9,0-12.5-5.6-12.5-12.5v-58c0-6.9,5.6-12.5,12.5-12.5h96.7c6.9,0,12.5,5.6,12.5,12.5
				v58C1089.6,843.8,1084,849.4,1077.1,849.4z"/>
			<path class="st1" d="M883,849.4h-96.7c-6.9,0-12.5-5.6-12.5-12.5v-58c0-6.9,5.6-12.5,12.5-12.5H883c6.9,0,12.5,5.6,12.5,12.5v58
				C895.5,843.8,889.9,849.4,883,849.4z"/>
			<path class="st1" d="M688.9,849.4h-96.7c-6.9,0-12.5-5.6-12.5-12.5v-58c0-6.9,5.6-12.5,12.5-12.5h96.7c6.9,0,12.5,5.6,12.5,12.5
				v58C701.3,843.8,695.8,849.4,688.9,849.4z"/>
		</g>
		<g>
			<path class="st4" d="M1271.2,999.3h-96.7c-6.9,0-12.5-5.6-12.5-12.5v-58c0-6.9,5.6-12.5,12.5-12.5h96.7c6.9,0,12.5,5.6,12.5,12.5
				v58C1283.7,993.7,1278.1,999.3,1271.2,999.3z"/>
			<path class="st1" d="M1077.1,999.3h-96.7c-6.9,0-12.5-5.6-12.5-12.5v-58c0-6.9,5.6-12.5,12.5-12.5h96.7c6.9,0,12.5,5.6,12.5,12.5
				v58C1089.6,993.7,1084,999.3,1077.1,999.3z"/>
			<path class="st1" d="M883,999.3h-96.7c-6.9,0-12.5-5.6-12.5-12.5v-58c0-6.9,5.6-12.5,12.5-12.5H883c6.9,0,12.5,5.6,12.5,12.5v58
				C895.5,993.7,889.9,999.3,883,999.3z"/>
			<path class="st1" d="M688.9,999.3h-96.7c-6.9,0-12.5-5.6-12.5-12.5v-58c0-6.9,5.6-12.5,12.5-12.5h96.7c6.9,0,12.5,5.6,12.5,12.5
				v58C701.3,993.7,695.8,999.3,688.9,999.3z"/>
		</g>
		<g>
			<path class="st5" d="M1271.2,1154.5h-96.7c-6.9,0-12.5-5.6-12.5-12.5v-58c0-6.9,5.6-12.5,12.5-12.5h96.7
				c6.9,0,12.5,5.6,12.5,12.5v58C1283.7,1148.9,1278.1,1154.5,1271.2,1154.5z"/>
			<path class="st1" d="M1077.1,1154.5h-96.7c-6.9,0-12.5-5.6-12.5-12.5v-58c0-6.9,5.6-12.5,12.5-12.5h96.7
				c6.9,0,12.5,5.6,12.5,12.5v58C1089.6,1148.9,1084,1154.5,1077.1,1154.5z"/>
			<path class="st1" d="M883,1154.5h-96.7c-6.9,0-12.5-5.6-12.5-12.5v-58c0-6.9,5.6-12.5,12.5-12.5H883c6.9,0,12.5,5.6,12.5,12.5v58
				C895.5,1148.9,889.9,1154.5,883,1154.5z"/>
			<path class="st1" d="M688.9,1154.5h-96.7c-6.9,0-12.5-5.6-12.5-12.5v-58c0-6.9,5.6-12.5,12.5-12.5h96.7c6.9,0,12.5,5.6,12.5,12.5
				v58C701.3,1148.9,695.8,1154.5,688.9,1154.5z"/>
		</g>
		<g>
			<path class="st5" d="M1403.7,1248.8v37.8c0,13.3-10.7,24-24,24H981.4c-13.3,0-24-10.7-24-24v-37.8c0-13.3,10.7-24,24-24h398.3
				C1393,1224.8,1403.7,1235.5,1403.7,1248.8z"/>
			<path class="st5" d="M1354.4,1162.9v37.8c0,13.3-10.8,24-24,24H932c-13.3,0-24-10.7-24-24v-37.8c0-13.2,10.7-24,24-24h398.3
				C1343.6,1138.9,1354.4,1149.7,1354.4,1162.9z"/>
			<path class="st6" d="M1403.7,1248.8v37.8c0,13.3-10.7,24-24,24h-285.6c-19.7-24.3-31.8-55.7-39-85.8c-8.4-34.5-10.5-67.2-11-85.9
				h286.3c13.2,0,24,10.8,24,24v37.8c0,13.3-10.8,24-24,24h49.4C1393,1224.8,1403.7,1235.5,1403.7,1248.8z"/>
		</g>
		<path class="st5" d="M1613.1,545l-32.2,98.8l-2.4,7.3l-14.9,45.9l-0.1,0.3l-48.1-1.1l-184.5-4.2l-13.5-38.6l-2.3-6.5l-35.7-102
			C1390.2,583.4,1481.5,499.5,1613.1,545z"/>
		<path class="st6" d="M1578.5,651.1l-14.9,45.9l-48.2-0.7l-184.5-4.2l-13.5-38.6C1380.8,652.3,1489.9,650.8,1578.5,651.1z"/>
		<path class="st5" d="M1784.7,1208.9c-9.5,30.3-28.3,55.7-52.5,73.5c-24.3,17.9-54.2,28.1-85.9,28.1h-417.9
			c-60.4,0-113.4-40.4-129.5-98.7c-9.3-33.7-14.2-67.9-15-101.9c-0.1-3.3-0.1-6.6-0.1-9.8c0-3.9,0.1-7.8,0.2-11.6
			c3.4-123.3,63.7-238.1,160.4-314.7l100-79.2L1573,700l125.8,120.4c17.7,16.9,33.5,35.9,46.1,56.8c15.2,25.1,27.4,51.7,36.7,79.1
			C1809.1,1036.9,1810.9,1125.4,1784.7,1208.9z"/>
		<path class="st7" d="M1610.9,737.4h-323.7c-13.4,0-24.3-11-24.3-24.3v-10.4c0-13.4,11-24.3,24.3-24.3h323.7
			c13.4,0,24.3,11,24.3,24.3v10.4C1635.2,726.4,1624.3,737.4,1610.9,737.4z"/>
		<path class="st8" d="M1784.7,1208.9c-9.5,30.3-28.3,55.7-52.5,73.5c-24.3,17.9-54.2,28.1-85.9,28.1h-417.9
			c-60.4,0-113.4-40.4-129.5-98.7c-9.3-33.7-14.2-67.9-15-101.9c69.1,65.9,150.6,152.1,341.1,154.8
			c236.5,3.3,338.4-107.6,356.7-308.6C1809.1,1036.9,1810.9,1125.4,1784.7,1208.9z"/>
		<g>
			<g>
				<g>
					<polygon class="st9" points="161.4,1237.4 119.1,1221.5 20.8,1307.9 137.1,1307.9 					"/>
					<polygon class="st10" points="161.4,1237.4 254.8,1237.4 244.3,1304.4 137.1,1307.9 					"/>
					<path class="st4" d="M536.5,861.7l-3.4,23.4l-2.1,14.1l-14.8,101.5l-5.7,38.8l-5,34.6l-13.2,90.2l-9.2,62.5
						c-6.9,47-47.2,81.9-94.7,81.9H181.7l0.3-2.6l6.7-68.8l1-9.7l144.2-27.8l19.4-140.6c-9.5-40.9-7.2-80.3-3.1-107.9
						c3.5-23.5,8.4-38.5,8.4-38.5l64.3-18.5L536.5,861.7z"/>
					<path class="st9" d="M492.4,1164.4l-9.2,62.5c-6.9,47-47.2,81.9-94.7,81.9h-10.6C472.6,1291.8,454.1,1170.8,492.4,1164.4z"/>
					
						<rect x="80.9" y="1289" transform="matrix(0.528 -0.8493 0.8493 0.528 -1049.6565 694.6725)" class="st3" width="38.4" height="5.3"/>
				</g>
				<path class="st9" d="M516.2,1000.8l-10.7,73.4c-29.8-8.5-69.1-51.1-69.1-51.1L516.2,1000.8z"/>
				<g>
					<path class="st9" d="M735.3,1188c0,0-50.3,25.8-140.2,9.3l74.7-49.6L735.3,1188z"/>
					<polygon class="st10" points="707.7,1223.6 627.3,1225.4 626.8,1208 625.6,1160.4 697,1165.7 700.4,1184.1 					"/>
					<polygon class="st11" points="700.4,1184.1 626.8,1208 625.6,1160.4 697,1165.7 					"/>
					<polygon class="st9" points="798.8,1308.6 710.2,1237.2 707.7,1223.6 627.3,1225.4 629.5,1308.6 					"/>
					
						<rect x="705.2" y="1266.7" transform="matrix(0.8482 -0.5297 0.5297 0.8482 -562.4529 576.1256)" class="st3" width="37.4" height="5.3"/>
					<path class="st4" d="M358.4,912.9L646,867.2c13.4-2.1,27.2-0.3,39.7,5.2h0c24.7,11,41,35.2,41.8,62.2l7.9,253.4
						c0,0-82-17.2-140.2,9.3l-5.3-173.3c-35.2,16-96.1,19.4-157.8,13.2L358.4,912.9z"/>
					<path class="st12" d="M694.8,1180.1h-5.3c0-43.8,1.1-80.2,2-112.3c2.3-78.2,3.5-121.3-16.4-139.5
						c-16.1-14.8-48.3-14.3-95.1-8.8c-50.1,5.8-70.1-47.5-70.2-48l5-1.8c0.7,2,18.7,50.1,64.7,44.6c49.5-5.8,81.6-6.1,99.3,10.1
						c21.7,19.9,20.5,61.2,18.1,143.5C695.9,1100,694.8,1136.3,694.8,1180.1z"/>
					<path class="st12" d="M595.2,1165.3l-1.9-4.9c0.7-0.3,67.7-25.2,141.8-6.7l-1.3,5.1C661.5,1140.7,595.9,1165.1,595.2,1165.3z"
						/>
				</g>
				<path class="st12" d="M211,1309.6c-8.2-16.5,4.5-84.8,5.1-87.6l5.2,1c-3.6,19.3-11.7,71.9-5.5,84.3L211,1309.6z"/>
				<path class="st9" d="M507.9,891.7c0,0-20.3,43.2-66.1,72.3c-15.6,9.8-30.8,14.3-44.5,14.4c-20.7,0.1-37.9-10-47.2-27
					c3.5-23.5,8.4-38.5,8.4-38.5l64.3-18.5l64.9-2.1L507.9,891.7z"/>
			</g>
			<g>
				<polygon class="st7" points="456.3,631.2 456.3,692.4 516.2,692.4 516.2,639.5 				"/>
				<polygon class="st10" points="516.2,601.6 456.3,601.6 456.3,631.2 516.2,639.5 				"/>
				<path class="st9" d="M473.9,610c1.3,0,14.5,20.6,42.3,29.5l-0.4-32.1L473.9,610z"/>
				<path class="st10" d="M523.3,528.4c0,0,33.1,89.1-9.7,94.8c-42.8,5.7-49.4-13.7-49.4-13.7L451,562.4l29.5-39.7L523.3,528.4z"/>
				
					<ellipse transform="matrix(1.850833e-02 -0.9998 0.9998 1.850833e-02 -46.6898 1094.8424)" class="st10" cx="534.3" cy="571.2" rx="9.3" ry="9.3"/>
				<path class="st9" d="M478.3,570.8c0,0,2.2-47.6,45-42.3c0,0-28.8-37-66.7-22.6c-19.3,7.3-32.1,25.7-34,46.2
					c-2.4,26.5,13,56.7,34.6,62c0,0,7.1-16.3,18.9-37L478.3,570.8z"/>
				
					<ellipse transform="matrix(0.905 -0.4254 0.4254 0.905 -198.9051 257.325)" class="st10" cx="476.8" cy="574.1" rx="13" ry="15.2"/>
				
					<ellipse transform="matrix(1.428083e-02 -0.9999 0.9999 1.428083e-02 -74.9229 1076.9852)" class="st13" cx="508.8" cy="576.5" rx="12.1" ry="12.1"/>
				<path class="st9" d="M479.5,579.1c-0.7,0-1.3-0.6-1.3-1.3c0-0.3-0.2-7.7-8.3-8.8c-0.7-0.1-1.2-0.8-1.1-1.5
					c0.1-0.7,0.8-1.2,1.5-1.1c10.5,1.5,10.6,11.4,10.6,11.5C480.8,578.5,480.2,579.1,479.5,579.1
					C479.5,579.1,479.5,579.1,479.5,579.1z"/>
			</g>
			<g>
				<path class="st14" d="M679.8,543.9c0,0,46.2,3.5,71.4,33.1L693.9,591L679.8,543.9z"/>
				<path class="st10" d="M761.7,518.5c0.2,4.2-11.4,25.3-20,40.3c-5,8.6-8.9,15.2-8.9,15.2l-30.8,9l-22-33.2l-1.1-1.6
					c0,0,0.3-1.4,0.9-4v-0.1c0.1-0.1,0.1-0.2,0.1-0.3c3.7-15.7,16.8-69.3,24.4-71.1c6.7-1.5,2.8,27.8,2.8,27.8s16.5-47.7,26.2-45.7
					c7.8,1.5-7.5,47.2-7.5,47.2s5.4-5.7,11-3.9c5.9,2,6.6,7.5,6.6,7.5s3.9-2.8,7.8-0.4c3.9,2.4,3.5,9.8,3.5,9.8
					S761.3,511.9,761.7,518.5z"/>
				<path class="st7" d="M442.3,670.9l-20.9,81.9l-32.5,127c-22.1,9.8-45.3,13.4-63.8,10.3c-21.4-3.5-36.4-16-35.4-38.1
					C292.3,792.5,442.3,670.9,442.3,670.9z"/>
				<path class="st14" d="M438.2,694.2l-16.9,58.6l-32.5,127c-22.1,9.8-45.3,13.4-63.8,10.3C372.1,755.1,438.2,694.2,438.2,694.2z"
					/>
				<path class="st7" d="M569.2,879.5c-43.6,3-181.2,116.7-214.3,43.3c0,0,4.6-273.7,145.9-268.7c25,0.9,47,17.6,54.5,41.4
					c3.4,10.8,6.8,24.9,9.4,43c2.7,18.4,4.7,40.9,5.4,68.4C570.8,828.1,570.5,852.2,569.2,879.5z"/>
				<path class="st14" d="M570.2,806.9c-21.8-14.1-44.7-56.7-44.7-56.7l39.3-11.6C567.5,756.9,569.5,779.5,570.2,806.9z"/>
				<path class="st11" d="M741.7,558.8c-5,8.6-8.9,15.2-8.9,15.2l-30.8,9l-22-33.2l-0.2-5.6v-0.4h0.1L741.7,558.8z"/>
				<path class="st7" d="M500.8,654.2c0,0,67.9,4.8,108.9,12.7l70.1-123c21.4,17.1,45.2,28.2,71.4,33.1l-61.3,144.6
					c-13.5,27.5-41.1,45.2-71.6,46.3l-105.1,3.6L500.8,654.2z"/>
				<path class="st14" d="M609.7,668.9c-0.1,0-0.2,0-0.4,0c-1.3-0.2-129.4-23.7-151.3-4.4c-0.8,0.7-2.1,0.6-2.8-0.2
					c-0.7-0.8-0.6-2.1,0.2-2.8c23.3-20.6,149.3,2.5,154.6,3.5c1.1,0.2,1.8,1.2,1.6,2.3C611.5,668.2,610.6,668.9,609.7,668.9z"/>
			</g>
		</g>
		<g>
			<path d="M665.6,333.4c-1.1-2.6-1.6-5.4-1.6-8.4c0-3,0.5-5.8,1.6-8.4c1.1-2.6,2.5-4.8,4.4-6.6c1.8-1.8,4-3.2,6.5-4.2
				c2.5-1,5.2-1.5,8.1-1.5c6.4,0,11.5,2.6,15.2,7.9l-4.1,2.3c-1.2-1.8-2.7-3.2-4.7-4.2c-2-1.1-4.1-1.6-6.3-1.6
				c-4.4,0-8.1,1.5-11,4.6c-2.9,3-4.4,6.9-4.4,11.7c0,3.1,0.7,5.9,2,8.4s3.2,4.4,5.5,5.8s5,2.1,7.9,2.1c2.2,0,4.3-0.5,6.3-1.6
				c2-1.1,3.6-2.5,4.7-4.2l4.2,2.3c-3.9,5.3-9,8-15.2,8c-2.9,0-5.5-0.5-8.1-1.5c-2.5-1-4.7-2.4-6.5-4.2
				C668.2,338.2,666.7,336,665.6,333.4z"/>
			<path d="M704.5,336.1c0-1.6,0.3-3,0.9-4.2s1.4-2.3,2.3-3c1-0.8,2-1.3,3.2-1.7c1.2-0.4,2.4-0.6,3.6-0.6c4.1,0,7.3,1.3,9.6,3.9
				v-5.2c0-1.9-0.7-3.4-2.1-4.4s-3.1-1.6-5.3-1.6c-3.4,0-6.4,1.3-8.9,4l-2.1-3.1c3.1-3.2,6.9-4.8,11.6-4.8c1.6,0,3.1,0.2,4.4,0.6
				c1.3,0.4,2.5,0.9,3.5,1.7c1,0.8,1.8,1.8,2.4,3.1s0.9,2.8,0.9,4.5V345h-4.5v-3.3c-2.4,2.7-5.6,4-9.6,4c-1.2,0-2.4-0.2-3.6-0.6
				s-2.2-1-3.2-1.8c-1-0.8-1.7-1.8-2.3-3C704.8,339,704.5,337.6,704.5,336.1z M709,336.1c0,1.9,0.7,3.4,2,4.6
				c1.3,1.2,3.1,1.8,5.2,1.8c1.6,0,3.1-0.3,4.5-0.9c1.4-0.6,2.5-1.5,3.4-2.7v-5.5c-0.8-1.1-2-2-3.4-2.6c-1.4-0.6-2.9-0.9-4.5-0.9
				c-2.1,0-3.8,0.6-5.2,1.8C709.6,332.8,709,334.3,709,336.1z"/>
			<path d="M737.7,345v-40h4.5v40H737.7z"/>
			<path d="M749.5,330.5c0-2.9,0.6-5.4,1.8-7.7c1.2-2.3,2.9-4.1,5.1-5.5c2.2-1.3,4.7-2,7.6-2c4.5,0,8,1.7,10.6,5l-3,2.7
				c-1.8-2.5-4.3-3.7-7.4-3.7c-3,0-5.5,1-7.3,3.1c-1.8,2.1-2.7,4.8-2.7,8c0,3.3,0.9,6,2.8,8.1c1.8,2.1,4.3,3.2,7.3,3.2
				c3,0,5.5-1.3,7.4-3.8l3,2.8c-2.6,3.3-6.1,5-10.6,5c-4.3,0-7.7-1.5-10.5-4.4C750.9,338.5,749.5,334.8,749.5,330.5z"/>
			<path d="M780.9,336.5V316h4.5v19.1c0,2.4,0.6,4.1,1.7,5.1s2.7,1.5,4.9,1.5c1.7,0,3.3-0.4,4.9-1.3c1.6-0.8,2.8-1.9,3.7-3.1V316
				h4.5v29h-4.5v-4c-1.2,1.4-2.7,2.5-4.5,3.4c-1.8,0.9-3.7,1.4-5.8,1.4C784,345.7,780.9,342.6,780.9,336.5z"/>
			<path d="M814,345v-40h4.5v40H814z"/>
			<path d="M825.9,336.1c0-1.6,0.3-3,0.9-4.2s1.4-2.3,2.3-3c1-0.8,2-1.3,3.2-1.7c1.2-0.4,2.4-0.6,3.6-0.6c4.1,0,7.3,1.3,9.6,3.9
				v-5.2c0-1.9-0.7-3.4-2.1-4.4s-3.1-1.6-5.3-1.6c-3.4,0-6.4,1.3-8.9,4l-2.1-3.1c3.1-3.2,6.9-4.8,11.6-4.8c1.6,0,3.1,0.2,4.4,0.6
				c1.3,0.4,2.5,0.9,3.5,1.7c1,0.8,1.8,1.8,2.4,3.1s0.9,2.8,0.9,4.5V345h-4.5v-3.3c-2.4,2.7-5.6,4-9.6,4c-1.2,0-2.4-0.2-3.6-0.6
				s-2.2-1-3.2-1.8c-1-0.8-1.7-1.8-2.3-3C826.2,339,825.9,337.6,825.9,336.1z M830.4,336.1c0,1.9,0.7,3.4,2,4.6
				c1.3,1.2,3.1,1.8,5.2,1.8c1.6,0,3.1-0.3,4.5-0.9c1.4-0.6,2.5-1.5,3.4-2.7v-5.5c-0.8-1.1-2-2-3.4-2.6c-1.4-0.6-2.9-0.9-4.5-0.9
				c-2.1,0-3.8,0.6-5.2,1.8C831,332.8,830.4,334.3,830.4,336.1z"/>
			<path d="M855.1,319.9V316h4.9v-8h4.5v8h6v3.9h-6V338c0,1.1,0.2,2,0.7,2.7c0.5,0.7,1.2,1,2.1,1c1.3,0,2.4-0.4,3.1-1.3l1.3,3.4
				c-1.3,1.2-3.1,1.9-5.3,1.9c-2.1,0-3.7-0.6-4.8-1.8c-1.1-1.2-1.6-2.9-1.6-5v-19H855.1z"/>
			<path d="M875.1,330.5c0-2.8,0.6-5.3,1.8-7.6s2.9-4.1,5.1-5.5c2.2-1.4,4.6-2,7.3-2c2.9,0,5.4,0.7,7.5,2.1c2.1,1.4,3.7,3.2,4.8,5.6
				c1.1,2.3,1.6,5,1.6,7.9v1.1h-23.5c0.2,2.9,1.2,5.2,3.1,7.1c1.9,1.9,4.3,2.9,7.3,2.9c1.7,0,3.3-0.3,4.9-1c1.6-0.6,2.9-1.6,4.1-2.8
				l2.2,2.9c-3.1,3-6.9,4.5-11.5,4.5c-4.3,0-7.9-1.4-10.6-4.2C876.5,338.7,875.1,335,875.1,330.5z M879.8,328.6h19
				c0-1.1-0.2-2.2-0.6-3.3c-0.4-1.1-0.9-2.1-1.7-3.1c-0.7-1-1.7-1.7-3-2.3c-1.3-0.6-2.7-0.9-4.3-0.9c-1.5,0-2.8,0.3-4,0.9
				c-1.2,0.6-2.2,1.4-2.9,2.3c-0.8,0.9-1.3,2-1.8,3.1C880.1,326.4,879.8,327.5,879.8,328.6z"/>
		</g>
		<path d="M1530.7,902c11.1,0,20.1-9,20.1-20.1c0-11.1-9-20.1-20.1-20.1h-174.5c-11.1,0-20.1,9-20.1,20.1c0,11.1,9,20.1,20.1,20.1
			h60.4c21.2,0,39,14.2,44.8,33.6h-105.2c-11.1,0-20.1,9-20.1,20.1c0,11.1,9,20.1,20.1,20.1h98.8c-8.5,12.1-22.6,20.1-38.4,20.1
			h-60.4c-8.8,0-16.6,5.8-19.2,14.2c-2.6,8.4,0.6,17.6,7.9,22.6l147.6,100.7c3.5,2.4,7.4,3.5,11.3,3.5c6.4,0,12.8-3.1,16.7-8.8
			c6.2-9.2,3.9-21.7-5.3-28l-93.9-64c36.6-1.9,67-26.8,77.9-60.3h31.5c11.1,0,20.1-9,20.1-20.1c0-11.1-9-20.1-20.1-20.1h-28.2
			c-1.9-12.2-6.2-23.6-12.6-33.6H1530.7z"/>
	</g>
	<path class="st15" d="M1769.7,278h-261.4c-5.1,0-9.3-4.2-9.3-9.3v0c0-5.1,4.2-9.3,9.3-9.3h261.4c5.1,0,9.3,4.2,9.3,9.3v0
		C1779,273.8,1774.8,278,1769.7,278z"/>
</g>
</svg>
