<?xml version="1.0" encoding="utf-8"?>
<!-- Generator: Adobe Illustrator 16.0.0, SVG Export Plug-In . SVG Version: 6.00 Build 0)  -->
<!DOCTYPE svg PUBLIC "-//W3C//DTD SVG 1.1//EN" "http://www.w3.org/Graphics/SVG/1.1/DTD/svg11.dtd">
<svg version="1.1" id="Layer_1" xmlns="http://www.w3.org/2000/svg" xmlns:xlink="http://www.w3.org/1999/xlink" x="0px" y="0px"
	 width="344.512px" height="203.496px" viewBox="0 0 344.512 203.496" enable-background="new 0 0 344.512 203.496"
	 xml:space="preserve">
<ellipse opacity="0.2" fill="#8BC2E9" enable-background="new    " cx="272.259" cy="195.825" rx="67.898" ry="7.671"/>
<path fill="#1F6BB5" d="M230.932,203.346h-117.86c-10.844,0-19.635-8.792-19.635-19.638V19.636C93.436,8.791,102.228,0,113.071,0
	h117.86c10.844,0,19.636,8.791,19.636,19.637v164.072C250.567,194.554,241.775,203.346,230.932,203.346z"/>
<rect x="106.611" y="17.404" fill="#C7DEF3" width="130.779" height="37.791"/>
<rect x="222.987" y="9.087" fill="#164577" width="14.403" height="3.593"/>
<rect x="205.326" y="9.087" fill="#164577" width="14.405" height="3.593"/>
<rect x="187.667" y="9.087" fill="#164577" width="14.404" height="3.593"/>
<rect x="170.007" y="9.087" fill="#164577" width="14.404" height="3.593"/>
<path fill="#164577" d="M123.268,88.226h-12.714c-2.179,0-3.943-1.766-3.943-3.942V71.568c0-2.178,1.765-3.943,3.943-3.943h12.714
	c2.178,0,3.943,1.766,3.943,3.943v12.716C127.212,86.461,125.446,88.226,123.268,88.226z"/>
<path fill="#164577" d="M150.813,88.226H138.1c-2.18,0-3.943-1.766-3.943-3.942V71.568c0-2.178,1.765-3.943,3.943-3.943h12.714
	c2.177,0,3.942,1.766,3.942,3.943v12.716C154.757,86.461,152.991,88.226,150.813,88.226z"/>
<path fill="#164577" d="M178.357,88.226h-12.713c-2.179,0-3.943-1.766-3.943-3.942V71.568c0-2.178,1.765-3.943,3.943-3.943h12.713
	c2.179,0,3.945,1.766,3.945,3.943v12.716C182.302,86.461,180.536,88.226,178.357,88.226z"/>
<path fill="#164577" d="M205.902,88.226h-12.713c-2.18,0-3.944-1.766-3.944-3.942V71.568c0-2.178,1.765-3.943,3.944-3.943h12.713
	c2.178,0,3.944,1.766,3.944,3.943v12.716C209.847,86.461,208.08,88.226,205.902,88.226z"/>
<g>
	<path fill="#9D9D9D" d="M233.449,88.226h-12.716c-2.179,0-3.943-1.766-3.943-3.942V71.568c0-2.178,1.766-3.943,3.943-3.943h12.716
		c2.177,0,3.941,1.766,3.941,3.943v12.716C237.391,86.461,235.626,88.226,233.449,88.226z"/>
	<path fill="#9D9D9D" d="M233.449,85.648h-12.716c-2.179,0-3.943-1.766-3.943-3.942v2.578c0,2.177,1.766,3.942,3.943,3.942h12.716
		c2.177,0,3.941-1.766,3.941-3.942v-2.578C237.391,83.884,235.626,85.648,233.449,85.648z"/>
</g>
<path fill="#164577" d="M123.268,113.728h-12.714c-2.179,0-3.943-1.766-3.943-3.942V97.069c0-2.177,1.765-3.942,3.943-3.942h12.714
	c2.178,0,3.943,1.766,3.943,3.942v12.716C127.212,111.963,125.446,113.728,123.268,113.728z"/>
<path fill="#164577" d="M150.813,113.728H138.1c-2.18,0-3.943-1.766-3.943-3.942V97.069c0-2.177,1.765-3.942,3.943-3.942h12.714
	c2.177,0,3.942,1.766,3.942,3.942v12.716C154.757,111.963,152.991,113.728,150.813,113.728z"/>
<path fill="#164577" d="M178.357,113.728h-12.713c-2.179,0-3.943-1.766-3.943-3.942V97.069c0-2.177,1.765-3.942,3.943-3.942h12.713
	c2.179,0,3.945,1.766,3.945,3.942v12.716C182.302,111.963,180.536,113.728,178.357,113.728z"/>
<path fill="#164577" d="M205.902,113.728h-12.713c-2.18,0-3.944-1.766-3.944-3.942V97.069c0-2.177,1.765-3.942,3.944-3.942h12.713
	c2.178,0,3.944,1.766,3.944,3.942v12.716C209.847,111.963,208.08,113.728,205.902,113.728z"/>
<path fill="#9D9D9D" d="M233.449,113.728h-12.716c-2.179,0-3.943-1.766-3.943-3.942V97.069c0-2.177,1.766-3.942,3.943-3.942h12.716
	c2.177,0,3.941,1.766,3.941,3.942v12.716C237.391,111.963,235.626,113.728,233.449,113.728z"/>
<path fill="#164577" d="M123.268,139.229h-12.714c-2.179,0-3.943-1.766-3.943-3.943V122.57c0-2.177,1.765-3.941,3.943-3.941h12.714
	c2.178,0,3.943,1.766,3.943,3.941v12.716C127.212,137.465,125.446,139.229,123.268,139.229z"/>
<path fill="#164577" d="M150.813,139.229H138.1c-2.18,0-3.943-1.766-3.943-3.943V122.57c0-2.177,1.765-3.941,3.943-3.941h12.714
	c2.177,0,3.942,1.766,3.942,3.941v12.716C154.757,137.465,152.991,139.229,150.813,139.229z"/>
<path fill="#164577" d="M178.357,139.229h-12.713c-2.179,0-3.943-1.766-3.943-3.943V122.57c0-2.177,1.765-3.941,3.943-3.941h12.713
	c2.179,0,3.945,1.766,3.945,3.941v12.716C182.302,137.465,180.536,139.229,178.357,139.229z"/>
<path fill="#164577" d="M205.902,139.229h-12.713c-2.18,0-3.944-1.766-3.944-3.943V122.57c0-2.177,1.765-3.941,3.944-3.941h12.713
	c2.178,0,3.944,1.766,3.944,3.941v12.716C209.847,137.465,208.08,139.229,205.902,139.229z"/>
<path fill="#164577" d="M233.449,139.229h-12.716c-2.179,0-3.943-1.766-3.943-3.943V122.57c0-2.177,1.766-3.941,3.943-3.941h12.716
	c2.177,0,3.941,1.766,3.941,3.941v12.716C237.391,137.465,235.626,139.229,233.449,139.229z"/>
<path fill="#164577" d="M123.268,164.73h-12.714c-2.179,0-3.943-1.766-3.943-3.945v-12.712c0-2.178,1.765-3.943,3.943-3.943h12.714
	c2.178,0,3.943,1.767,3.943,3.943v12.712C127.212,162.966,125.446,164.73,123.268,164.73z"/>
<path fill="#164577" d="M150.813,164.73H138.1c-2.18,0-3.943-1.766-3.943-3.945v-12.712c0-2.178,1.765-3.943,3.943-3.943h12.714
	c2.177,0,3.942,1.767,3.942,3.943v12.712C154.757,162.966,152.991,164.73,150.813,164.73z"/>
<path fill="#164577" d="M178.357,164.73h-12.713c-2.179,0-3.943-1.766-3.943-3.945v-12.712c0-2.178,1.765-3.943,3.943-3.943h12.713
	c2.179,0,3.945,1.767,3.945,3.943v12.712C182.302,162.966,180.536,164.73,178.357,164.73z"/>
<path fill="#164577" d="M123.268,190.232h-12.714c-2.179,0-3.943-1.767-3.943-3.946v-12.712c0-2.178,1.765-3.942,3.943-3.942h12.714
	c2.178,0,3.943,1.766,3.943,3.942v12.712C127.212,188.467,125.446,190.232,123.268,190.232z"/>
<path fill="#164577" d="M150.813,190.232H138.1c-2.18,0-3.943-1.767-3.943-3.946v-12.712c0-2.178,1.765-3.942,3.943-3.942h12.714
	c2.177,0,3.942,1.766,3.942,3.942v12.712C154.757,188.467,152.991,190.232,150.813,190.232z"/>
<path fill="#164577" d="M178.357,190.232h-12.713c-2.179,0-3.943-1.767-3.943-3.946v-12.712c0-2.178,1.765-3.942,3.943-3.942h12.713
	c2.179,0,3.945,1.766,3.945,3.942v12.712C182.302,188.467,180.536,190.232,178.357,190.232z"/>
<path fill="#164577" d="M205.902,190.232h-12.713c-2.18,0-3.944-1.767-3.944-3.946v-12.712c0-2.178,1.765-3.942,3.944-3.942h12.713
	c2.178,0,3.944,1.766,3.944,3.942v12.712C209.847,188.467,208.08,190.232,205.902,190.232z"/>
<path fill="#F6891F" d="M233.449,144.13h-12.716c-2.179,0-3.943,1.767-3.943,3.943v25.501v3.614v2.578v6.52
	c0,2.181,1.766,3.946,3.943,3.946h12.716c2.177,0,3.941-1.767,3.941-3.946v-6.52v-2.578v-3.614v-25.501
	C237.391,145.896,235.626,144.13,233.449,144.13z"/>
<g>
	<rect x="34.509" y="189.214" fill="#FFD439" width="68.614" height="13.022"/>
	<rect x="34.509" y="189.214" fill="#F6C21D" width="52.947" height="13.022"/>
	<rect x="34.509" y="189.214" fill="#F1B31C" width="14.672" height="13.022"/>
	<rect x="34.509" y="200.245" opacity="0.49" fill="#D49129" enable-background="new    " width="68.614" height="1.991"/>
</g>
<g>
	<rect x="42.017" y="176.476" fill="#FFD439" width="68.614" height="13.021"/>
	<rect x="42.017" y="176.476" fill="#F6C21D" width="52.947" height="13.021"/>
	<rect x="42.017" y="176.476" fill="#F1B31C" width="14.671" height="13.021"/>
	<rect x="42.017" y="187.507" opacity="0.49" fill="#D49129" enable-background="new    " width="68.614" height="1.991"/>
</g>
<g>
	<rect x="34.509" y="163.736" fill="#FFD439" width="68.614" height="13.021"/>
	<rect x="34.509" y="163.736" fill="#F6C21D" width="52.947" height="13.021"/>
	<rect x="34.509" y="163.736" fill="#F1B31C" width="14.672" height="13.021"/>
	<rect x="34.509" y="174.769" opacity="0.49" fill="#D49129" enable-background="new    " width="68.614" height="1.988"/>
</g>
<g>
	<rect x="28.668" y="150.997" fill="#FFD439" width="68.615" height="13.022"/>
	<rect x="28.668" y="150.997" fill="#F6C21D" width="52.948" height="13.022"/>
	<rect x="28.668" y="150.997" fill="#F1B31C" width="14.671" height="13.022"/>
	<rect x="28.668" y="162.029" opacity="0.49" fill="#D49129" enable-background="new    " width="68.615" height="1.99"/>
</g>
<g>
	<rect x="36.409" y="138.259" fill="#FFD439" width="68.615" height="13.021"/>
	<rect x="36.409" y="138.259" fill="#F6C21D" width="52.948" height="13.021"/>
	<rect x="36.409" y="138.259" fill="#F1B31C" width="14.671" height="13.021"/>
	<rect x="36.409" y="149.291" opacity="0.49" fill="#D49129" enable-background="new    " width="68.615" height="1.989"/>
</g>
<path opacity="0.37" fill="#F6C21D" enable-background="new    " d="M40.053,143.146c-1.156,0-2.295,0.074-3.416,0.202v58.685
	c1.121,0.13,2.26,0.203,3.416,0.203c16.316,0,29.543-13.229,29.543-29.545C69.597,156.375,56.37,143.146,40.053,143.146z"/>
<circle fill="#F1B31C" cx="28.109" cy="169.94" r="28.109"/>
<circle fill="#F6C21D" cx="28.109" cy="174.127" r="28.109"/>
<circle fill="#F1B31C" cx="28.109" cy="174.127" r="22.933"/>
<path opacity="0.36" fill="#E18D26" enable-background="new    " d="M28.109,154.003c12.229,0,22.222,9.573,22.894,21.638
	c0.024-0.43,0.039-0.86,0.039-1.296c0-12.665-10.268-22.933-22.933-22.933S5.177,161.679,5.177,174.344
	c0,0.436,0.015,0.866,0.037,1.296C5.887,163.576,15.879,154.003,28.109,154.003z"/>
<path fill="#F1B31C" d="M28.109,197.276c12.229,0,22.222-9.575,22.894-21.637c-0.672-12.063-10.663-21.638-22.894-21.638
	c-12.231,0-22.222,9.574-22.895,21.639C5.887,187.701,15.879,197.276,28.109,197.276z"/>
<g>
	<g>
		<path fill="#7E7CBB" d="M92.757,135.39c-1.039-1.639-3.089-2.283-4.996-2.618c-3.989-0.697-8.07,1.231-12.072,0.615l-2.307-0.355
			l-0.987,6.404c0.917,0.16,1.889,0.313,2.492,0.866c2.917,2.666,6.608,4.475,10.503,5.146c2.065,0.355,4.426,0.313,5.96-1.118
			c1.016-0.947,1.48-2.341,1.792-3.693C93.544,138.88,93.722,136.91,92.757,135.39z"/>
		<path fill="#46478D" d="M90.482,135.037c-1.037-1.636-3.087-2.283-4.997-2.617c-3.989-0.695-8.069,1.232-12.072,0.614
			l-2.305-0.354l-0.988,6.403c0.917,0.16,1.89,0.313,2.493,0.864c2.915,2.668,6.607,4.476,10.502,5.147
			c2.066,0.354,4.427,0.311,5.959-1.119c1.017-0.946,1.481-2.34,1.792-3.694C91.271,138.528,91.447,136.56,90.482,135.037z"/>
	</g>
	<path fill="#F4A28C" d="M46.749,95.251c0,0-3.549,12.141-1.496,16.996c2.056,4.856,10.46,10.459,10.46,10.459
		s2.056-13.819,2.056-14.381C57.768,107.764,46.749,95.251,46.749,95.251z"/>
	<path fill="#F4A28C" d="M87.945,95.251c0,0,3.549,12.141,1.495,16.996c-2.055,4.856-10.459,10.459-10.459,10.459
		s-2.056-13.819-2.056-14.381C76.926,107.764,87.945,95.251,87.945,95.251z"/>
	<path fill="#60C1C4" d="M89.807,97.229c0,0-3.146-12.895-12.579-17.295c-4.281-1.999-7.005-3.219-8.706-3.955l0.216-1.077
		c0,0-0.334,0.113-1.416,0.564c-1.081-0.451-1.415-0.564-1.415-0.564l0.217,1.077c-1.702,0.736-4.426,1.957-8.708,3.955
		c-9.433,4.4-12.579,17.295-12.579,17.295l6.918,4.716l-1.887,24.528h17.145h0.618h17.145l-1.887-24.528L89.807,97.229z"/>
	<ellipse fill="#F4A28C" cx="67.323" cy="83.471" rx="5.779" ry="8.361"/>
	<path fill="#F9B39E" d="M78.037,66.878c0,7.495-4.927,16.17-11.006,16.17c-6.077,0-11.004-8.675-11.004-16.17
		c0-7.496,4.928-10.974,11.004-10.974C73.109,55.904,78.037,59.382,78.037,66.878z"/>
	<path fill="#57579C" d="M60.403,85.234c-0.964,2.837,1.145,6.024,2.174,8.506c1.765,4.259-1.007,9.825-5.51,10.814
		c-4.502,0.989-9.425-3.104-9.11-7.702c0.204-2.972,2.204-5.588,2.431-8.559c0.39-5.106-0.039-7.161-2.109-11.847
		c-1.417-3.207-1.17-8.299,0.733-11.36c1.825-2.936,4.888-4.657,5.482-8.307c0.472-2.885,1.606-5.855,4.165-7.508
		c3.133-2.024,7.59-1.541,10.398,0.841c3.283,2.786,3.299,7.862,0.77,11.217c-1.076,1.428-3.291,2.563-4.948,3.229
		c-2.88,1.154-6.996,1.475-7.687,4.5c-0.938,4.104,1.233,7.672,3.415,10.504c0.497,0.644,1.774,1.373,1.808,2.229
		C62.467,83.178,60.824,83.996,60.403,85.234z"/>
	<path fill="#57579C" d="M81.37,61.625c0.602,5.553-2.101,11.224-0.75,16.643c0.725,2.907,2.55,5.414,3.607,8.218
		c1.42,3.768,1.375,8.067-0.123,11.806c-1.01,2.521-2.848,4.915-5.458,5.664c-2.61,0.752-5.916-0.818-6.246-3.515
		c-0.35-2.853,2.472-5.209,2.657-8.076c0.275-4.27-4.014-4.893-3.596-9.151c0.324-3.311,4.739-5.648,5.649-10.454
		c0.571-3.021,0.645-7.055-1.4-9.35c-1.289-1.446-3.081-2.314-4.729-3.33c-3.539-2.177-7.661-9.858-1.432-10.708
		C76.985,48.357,80.832,56.648,81.37,61.625z"/>
	<path fill="#F9B39E" d="M79.338,69.398c-0.523,1.18-1.458,2.306-2.729,2.517c-0.854,0.143-1.865-0.279-2.08-1.118
		c-0.146-0.564,0.097-1.153,0.377-1.665c0.624-1.13,1.825-2.421,3.044-2.948C80.128,65.242,79.931,68.061,79.338,69.398z"/>
	<path fill="#F9B39E" d="M54.898,69.949c0.433,1.216,1.277,2.41,2.531,2.717c0.84,0.207,1.88-0.138,2.158-0.957
		c0.188-0.552-0.008-1.157-0.251-1.688c-0.533-1.173-1.634-2.552-2.811-3.171C54.427,65.745,54.409,68.57,54.898,69.949z"/>
	<polygon fill="#E2E1E0" points="83.878,126.454 50.77,126.454 49.077,100.709 85.57,100.709 	"/>
	<path fill="#2B4342" d="M39.689,124.266L39.689,124.266c-1.167,3.495,0.595,7.261,3.916,8.369l31.161,10.405l4.242-12.708
		l-31.16-10.404C44.528,118.819,40.857,120.771,39.689,124.266z"/>
	<g>
		<path fill="#7E7CBB" d="M37.606,135.39c1.038-1.639,3.087-2.283,4.997-2.618c3.987-0.697,8.068,1.231,12.07,0.615l2.307-0.355
			l0.987,6.404c-0.915,0.16-1.887,0.313-2.491,0.866c-2.916,2.666-6.607,4.475-10.501,5.146c-2.066,0.355-4.428,0.313-5.96-1.118
			c-1.018-0.947-1.481-2.341-1.792-3.693C36.818,138.88,36.642,136.91,37.606,135.39z"/>
		<path fill="#46478D" d="M39.88,135.037c1.037-1.636,3.088-2.283,4.997-2.617c3.989-0.695,8.071,1.232,12.072,0.614l2.306-0.354
			l0.988,6.403c-0.918,0.16-1.889,0.313-2.492,0.864c-2.916,2.668-6.607,4.476-10.503,5.147c-2.065,0.354-4.426,0.311-5.959-1.119
			c-1.017-0.946-1.48-2.34-1.792-3.694C39.093,138.528,38.916,136.56,39.88,135.037z"/>
	</g>
	<path fill="#364D4D" d="M90.673,124.266L90.673,124.266c1.167,3.495-0.595,7.261-3.916,8.369l-31.161,10.405l-4.242-12.708
		l31.16-10.404C85.835,118.819,89.507,120.771,90.673,124.266z"/>
</g>
<circle fill="#F6C21D" cx="235.466" cy="80.854" r="33.182"/>
<circle fill="#F1B31C" cx="235.465" cy="80.854" r="27.07"/>
<path opacity="0.36" fill="#E18D26" enable-background="new    " d="M235.467,57.099c-14.438,0-26.232,11.302-27.024,25.541
	c-0.028-0.508-0.046-1.017-0.046-1.53c0-14.95,12.12-27.07,27.07-27.07c14.949,0,27.068,12.12,27.068,27.07
	c0,0.514-0.017,1.022-0.045,1.53C261.697,68.401,249.903,57.099,235.467,57.099z"/>
<path fill="#F1B31C" d="M235.467,108.181c-14.438,0-26.232-11.303-27.024-25.541c0.792-14.239,12.588-25.541,27.024-25.541
	c14.438,0,26.23,11.302,27.023,25.541C261.697,96.879,249.903,108.181,235.467,108.181z"/>
<g>
	<path fill="#81C8EF" d="M277.127,190.927c0,0,2.053,1.726,0.779,5.543h-17.181c0,0-0.849-4.029,10.24-5.543H277.127z"/>
	<path fill="#013347" d="M289.952,112.665c0,0,3.868,13.409-2.321,22.693l-1.482,2.572c-1.53,2.65-1.979,5.791-1.251,8.766
		l10.44,44.226l-6.132,0.151c0,0-23.235-36.117-23.752-45.658c-0.515-9.542,5.674-30.944,5.674-30.944L289.952,112.665z"/>
	<path fill="#0E3C61" d="M263.873,114.748c0,0-5.59,26.53-5.953,34.503c-0.361,7.975,13.047,41.677,13.047,41.677h6.16
		c0,0-3.016-42.761-0.842-47.833c2.174-5.073,14.429-23.431,11.862-32.75S263.873,114.748,263.873,114.748z"/>
	<path fill="#F9B39E" d="M252.529,105.419c0.076-0.021,0.15-0.044,0.226-0.066c0.948-0.302,1.857-0.706,2.776-1.083
		c1.029-0.425,2.299-0.899,3.021-1.797c0.572-0.712,0.167-1.688-0.343-2.31c-0.729-0.891-1.6-0.995-2.667-1.222
		c-0.66-0.142-1.301-0.347-1.888-0.685c-0.981-0.563-1.885-1.257-2.883-1.791c-0.305-0.162-0.64-0.313-0.981-0.269
		c-0.902,0.119-0.386,0.931-0.02,1.356c0.251,0.292,1.72,1.355,1.398,1.684c-0.513,0.523-1.664-0.105-2.197-0.301
		c-0.924-0.339-1.816-0.765-2.638-1.31c-0.938-0.626-2.257-2.047-3.474-1.234c-0.413,0.276-0.629,0.765-0.732,1.233
		c-0.408,1.845,0.286,3.814,1.313,5.337c0.604,0.899,1.434,1.579,2.436,1.992C247.98,105.823,250.334,106.051,252.529,105.419z"/>
	<path fill="#A2D9DF" d="M283.932,65.344c0,0,3.312,1.766,3.652,4.854c0.345,3.089,2.367,42.466,2.367,42.466
		s-10.26,6.606-26.388,3.519c0,0,5.317-36.718,7.378-41.694c2.06-4.975,4.975-6.52,4.975-6.52L283.932,65.344z"/>
	<path fill="#F8A791" d="M276.682,60.632l-1.449,8.881c0,0,5.979,0.362,8.699-4.168l0.543-8.7L276.682,60.632z"/>
	<path fill="#F9B39E" d="M271.031,56.696c0.072-1.619,0.358-3.219,0.643-4.814c0.381-2.126,0.76-4.253,1.139-6.379
		c0.222-1.241,0.157-3.896,0.943-4.871c1.852-2.291,7.375-1.794,9.747-0.985c0.77,0.262,1.526,0.612,2.117,1.169
		c1.454,1.368,1.593,3.592,1.634,5.587l1.057,2.758c-0.257,0.234-0.313,0.61-0.348,0.956c-0.317,3.354,0.036,7.17-2.272,9.623
		c-1.531,1.625-3.863,2.182-6.072,2.5c-1.545,0.223-3.137,0.364-4.654-0.002c-1.519-0.366-2.968-1.32-3.572-2.759
		C271.024,58.608,270.99,57.637,271.031,56.696z"/>
	<path fill="#57579C" d="M276.727,35.746c-1.84-0.533-3.565-1.462-5.453-1.788c-0.963-0.167-2.073-0.126-2.758,0.571
		c-0.443,0.449-0.624,1.087-0.779,1.699c-0.737,2.895-1.207,6.208,0.493,8.664c1.393,2.014,4.175,2.94,6.497,2.165
		c1.525-0.512,2.763-1.637,4.188-2.381c1.43-0.746,3.343-1.035,4.531,0.051c1.148,1.046,1.197,2.991,2.457,3.897
		c0.749,0.541,1.785,0.567,2.648,0.239c0.862-0.328,1.575-0.965,2.176-1.668c1.533-1.798,2.444-4.121,2.515-6.481
		c0.051-1.703-0.366-3.482-1.488-4.767c-1.133-1.294-2.881-1.946-4.601-2.001C283.251,33.819,280.69,36.894,276.727,35.746z"/>
	<path fill="#F9B39E" d="M288.892,45.744c3.371-0.126,1.362,6.176-0.351,7.201c-0.174,0.104-0.354,0.204-0.556,0.238
		c-0.332,0.055-0.668-0.082-0.942-0.275C284.884,51.381,285.943,45.855,288.892,45.744z"/>
	<path fill="#A2D9DF" d="M283.587,69.293c-2.032,2.535-3.312,5.575-4.701,8.514c-2.671,5.639-5.841,11.04-9.459,16.122
		c-0.565,0.792-1.154,1.59-1.939,2.163c-1.317,0.964-3.019,1.183-4.639,1.371c-2.745,0.32-5.488,0.642-8.232,0.961v6.436
		c7.989,0.614,16.295,0.115,23.896-2.425c1.249-0.417,2.514-0.893,3.516-1.744c1.31-1.112,2.041-2.75,2.618-4.367
		C287.771,87.551,287.26,77.852,283.587,69.293z"/>
	<path fill="#82D0D4" d="M283.587,69.293c0,0-5.502,14.202-10.648,22.61l-5.761,4.142C267.177,96.045,273.241,89.275,283.587,69.293
		z"/>
	<path fill="#81C8EF" d="M295.367,190.927c0,0,2.053,1.726,0.779,5.543h-17.181c0,0-0.849-4.029,10.241-5.543H295.367z"/>
</g>
<g>
	<g>
		<path fill="#FEEA89" d="M246.453,75.62h-3.593c-0.253-1.542-0.943-2.994-1.979-4.174h5.555c1.016,0,1.833-0.817,1.833-1.814
			c0-0.998-0.817-1.814-1.816-1.814h-18.366c-0.999,0-1.814,0.816-1.814,1.814s0.815,1.814,1.814,1.814h5.265
			c2.632,0.019,4.954,1.688,5.79,4.174h-11.055c-0.999,0-1.814,0.817-1.814,1.815s0.815,1.814,1.814,1.814h11.055
			c-0.291,0.944-0.817,1.815-1.509,2.523c-1.125,1.161-2.668,1.814-4.281,1.833h-5.265c-0.962-0.036-1.777,0.726-1.814,1.688
			c-0.02,0.509,0.182,1.017,0.563,1.361l13.141,12.415c0.726,0.688,1.888,0.654,2.56-0.091c0.672-0.689,0.653-1.796-0.036-2.469
			c-0.019-0.019-0.037-0.019-0.037-0.036l-9.817-9.238h0.688c2.576-0.018,5.045-1.052,6.86-2.886
			c1.396-1.379,2.342-3.158,2.668-5.101h3.593c0.999,0,1.816-0.816,1.816-1.814S247.452,75.62,246.453,75.62z"/>
	</g>
</g>
<g>
	<g>
		<path fill="#FEEA89" d="M34.306,170.279h-2.567c-0.181-1.101-0.673-2.139-1.413-2.981h3.968c0.726,0,1.31-0.584,1.31-1.296
			c0-0.713-0.583-1.297-1.296-1.297h-13.12c-0.714,0-1.297,0.584-1.297,1.297c0,0.712,0.583,1.296,1.297,1.296h3.759
			c1.88,0.014,3.539,1.206,4.136,2.981h-7.895c-0.714,0-1.297,0.585-1.297,1.297c0,0.713,0.583,1.296,1.297,1.296h7.895
			c-0.208,0.675-0.584,1.297-1.077,1.803c-0.804,0.828-1.905,1.297-3.059,1.311h-3.759c-0.688-0.026-1.271,0.519-1.297,1.206
			c-0.014,0.362,0.13,0.725,0.401,0.971l9.386,8.868c0.518,0.492,1.348,0.467,1.827-0.065c0.48-0.491,0.468-1.281-0.025-1.764
			c-0.015-0.012-0.026-0.012-0.026-0.024l-7.013-6.599h0.493c1.84-0.012,3.604-0.752,4.899-2.062
			c0.999-0.985,1.672-2.255,1.905-3.645h2.567c0.713,0,1.296-0.583,1.296-1.296C35.602,170.864,35.019,170.279,34.306,170.279z"/>
	</g>
</g>
</svg>
