<svg width="16" height="19" viewBox="0 0 16 19" fill="none" xmlns="http://www.w3.org/2000/svg">
<path fill-rule="evenodd" clip-rule="evenodd" d="M8 3C3.58172 3 0 6.58172 0 11C0 15.4183 3.58172 19 8 19C12.4183 19 16 15.4183 16 11C16 6.58172 12.4183 3 8 3ZM1.50475 11C1.50475 7.41277 4.41277 4.50475 8 4.50475C11.5872 4.50475 14.4953 7.41277 14.4953 11C14.4953 14.5872 11.5872 17.4953 8 17.4953C4.41277 17.4953 1.50475 14.5872 1.50475 11ZM8.00005 7.34858C7.58453 7.34858 7.24768 7.68542 7.24768 8.10095C7.24768 8.51647 7.58453 8.85332 8.00005 8.85332H8.0073C8.42282 8.85332 8.75967 8.51647 8.75967 8.10095C8.75967 7.68542 8.42282 7.34858 8.0073 7.34858H8.00005ZM8.00005 10.2475C7.58453 10.2475 7.24768 10.5844 7.24768 10.9999V13.899C7.24768 14.3145 7.58453 14.6513 8.00005 14.6513C8.41557 14.6513 8.75242 14.3145 8.75242 13.899V10.9999C8.75242 10.5844 8.41557 10.2475 8.00005 10.2475Z" fill="black"/>
</svg>
