<?xml version="1.0" encoding="utf-8"?>
<!-- Generator: Adobe Illustrator 22.0.1, SVG Export Plug-In . SVG Version: 6.00 Build 0)  -->
<svg version="1.1" id="Layer_1" xmlns="http://www.w3.org/2000/svg" xmlns:xlink="http://www.w3.org/1999/xlink" x="0px" y="0px"
	 viewBox="0 0 2090 1490.9" style="enable-background:new 0 0 2090 1490.9;" xml:space="preserve">
<style type="text/css">
	.st0{fill:#F8A492;}
	.st1{fill:#E08F7D;}
	.st2{fill:#F7A491;}
	.st3{fill:#FFB9A8;}
	.st4{fill:#C9563C;}
	.st5{fill:#E59F39;}
	.st6{fill:#F7CC7F;}
	.st7{opacity:0.3;fill:#F7CC7F;}
	.st8{fill:#EAB054;}
	.st9{fill:#50BFA5;}
	.st10{fill:#96D9C9;}
	.st11{fill:#3C8F7C;}
	.st12{fill:#355389;}
	.st13{fill:#466EB6;}
	.st14{fill:#F47458;}
	.st15{fill:#FFFFFF;}
	.st16{fill:#8FD6C5;}
	.st17{fill:#9BC1F9;}
	.st18{opacity:0.12;}
</style>
<g>
	<path class="st0" d="M858.9,414.5c21.3,3.5,20.1,6.9,22.8,7.3c3.2,0.4,41.8-18.9,41.8-18.9s114-56.2,120-59.5l82.3-103.5l63.4,29.2
		c0,0-92.5,110-98.4,114.9c-5.9,4.8-169.2,62.1-183.4,67.7c0,0-14.3,13.1-23.6,21c-9.3,7.9-21.7,11-24.6,12.8
		c-0.4,0.3-10.7,5.7-25.1,8.8c-12.5,2.7-2.1-5.8-2.1-5.8s22-9.3,20.9-11c-0.8-1.3-12.5,4.5-26.3,7.7c-3.5,0.8-7,1.6-10.2,2.3
		c-8.4,1.8-12.1-3-3.7-6.4c3-1.2,8-3,11.8-3.8c4.1-0.9,7.5-3,10.8-4.3c6.6-2.5,11.4-4.2,11.1-4.5c-0.3-0.3,0.6-1.7-3.2-1
		c-4.5,0.9-13.7,5-20.5,5.7c-3.9,0.4-11.8,1.9-11.8,1.9s-14.1,1.4-14.2-0.6c-0.2-4.3,8.5-6.8,13.8-6.6c3.4-1.7,11.8-3,11.8-3
		s16.4-6.5,15.4-8.9c-0.4-1-10.3,0.5-20.8,1.2c-11.1,0.8-19.2,0.8-19.8-1.4c-0.9-3.4,7.9-4.7,7.9-4.7s7.8-1.1,10.4-1.7
		c3-0.7,11.8-3.4,11.8-3.4s30.2-11.1,29.1-13.3c-1.1-2.2-6.1-6.9-8.2-6.9c-2.1,0-5.9,2.1-8.1,2.1c-2.1,0-6.7-0.4-7-3.1
		c-0.3-2.7,11.5-8.2,11.5-8.2S852.7,413.5,858.9,414.5z"/>
	<g>
		<path class="st1" d="M258,773.8c-40-105.3-192.5-80.9-192.5-80.9C42.8,853,196.8,901.6,196.8,901.6C244.4,853,258,773.8,258,773.8
			z"/>
		<g>
			
				<ellipse transform="matrix(0.3715 -0.9284 0.9284 0.3715 -1016.0443 1162.0474)" class="st1" cx="350.3" cy="1331.5" rx="156.5" ry="77.3"/>
			
				<ellipse transform="matrix(0.3715 -0.9284 0.9284 0.3715 -876.5528 1368.1146)" class="st2" cx="572.3" cy="1331.5" rx="156.5" ry="77.3"/>
			
				<ellipse transform="matrix(0.9284 -0.3715 0.3715 0.9284 -411.5838 526.7161)" class="st2" cx="1161.2" cy="1331.5" rx="77.3" ry="156.5"/>
			
				<ellipse transform="matrix(0.9284 -0.3715 0.3715 0.9284 -427.4713 444.2529)" class="st1" cx="939.2" cy="1331.5" rx="77.3" ry="156.5"/>
		</g>
		<path class="st2" d="M1300.7,988.2c-2,238-252.5,431-563.9,431s-563.9-193-563.9-431c0-266.5,252.5-423.9,563.9-423.9
			S1302.9,730.5,1300.7,988.2z"/>
		<ellipse class="st1" cx="410.6" cy="1043.2" rx="129.1" ry="99.7"/>
		<ellipse class="st3" cx="401.5" cy="1034.1" rx="129.1" ry="99.7"/>
		<g>
			<circle class="st1" cx="359.6" cy="1034.1" r="20.4"/>
			<circle class="st1" cx="443.4" cy="1034.1" r="20.4"/>
		</g>
		<path class="st2" d="M1396.3,846.6c-12.3-1.1-24.4-3.7-35.9-8.5c-4.7-2-9.2-4.3-13.5-7c5.3-11.9,9.2-24.5,11.1-37.3
			c2.1-13.8,1.7-28.7-4.4-41.5c-2.8-5.9-6.9-11.2-12-15.3c-4.8-3.8-10.3-6-16.2-7.5c-4-1-9.1-1.3-13.4-1c-6.6,0.5-13.1,2.8-18.3,7
			c-10.4,8.5-12.8,22.5-10.8,35.1c2,12.7,8,24.8,15.7,35c1.7,2.3,3.6,4.5,5.5,6.7c-3.4,4.7-7.2,9.2-11.2,13.4
			c-9.2,9.6-20.2,17.9-32.8,22.7c-5.7,2.1-11.7,3.5-17.8,3.5c-2.8,0-5.7-0.2-8.3-0.9c-1.7-0.5-3.5-0.9-5.2-1.3
			c-0.1,0.8-0.2,1.6-0.3,2.4c-1.8,12.3-3.5,24.6-5.3,36.9c-1.3,9.3-2.7,18.6-4,28c6.4,0.4,12.8,0.6,19.2,0.2
			c7.3-0.6,14.5-1.9,21.5-4c26.4-7.7,48.9-25.3,65.7-46.7c6.5-8.4,12.4-17.4,17.3-27c7,2.8,14.2,4.9,21.6,6.2c11,1.9,22,2,33.1,1.1
			C1397.2,846.7,1396.8,846.7,1396.3,846.6z M1308.4,781.3c-1.6-6.3-2.7-13.9-0.4-20.1c0.4-1,1-2.6,2.2-3.1c0.7-0.3,2.2,0.3,3,0.5
			c1.5,0.3,2.9,1.1,4.4,1.4c-0.2,0-0.3-0.1-0.5-0.1c5.5,1.9,4.7,10.7,4,15.1c-1,6.5-3.2,12.8-5.9,18.7c-0.4,0.8-0.8,1.6-1.1,2.3
			C1311.6,791.3,1309.7,786.4,1308.4,781.3z"/>
		<path class="st4" d="M911.2,649.2c-117-23.1-233.3-22.4-349,0.1c-10.8,2.1-20.9-6.2-20.9-17.2V632c0-8.3,5.8-15.4,13.9-17.1
			c121-25.3,242-25.3,363,0c8.1,1.7,13.9,8.9,13.9,17.1l0,0C932.1,643.1,922,651.4,911.2,649.2z"/>
		<g>
			<path class="st4" d="M294.8,895.6c16.6,0,31.4,5.7,41.5,14.6c-4.1-19.1-21.1-33.5-41.5-33.5c-20.4,0-37.4,14.3-41.5,33.5
				C263.4,901.3,278.2,895.6,294.8,895.6z"/>
			<path class="st4" d="M508.2,895.6c16.6,0,31.4,5.7,41.5,14.6c-4.1-19.1-21.1-33.5-41.5-33.5c-20.4,0-37.4,14.3-41.5,33.5
				C476.8,901.3,491.7,895.6,508.2,895.6z"/>
		</g>
	</g>
	
		<ellipse transform="matrix(0.8282 -0.5604 0.5604 0.8282 -134.7176 503.7341)" class="st5" cx="754.3" cy="471.6" rx="223.6" ry="225.4"/>
	
		<ellipse transform="matrix(0.8281 -0.5605 0.5605 0.8281 -134.7119 503.8915)" class="st6" cx="754.3" cy="471.6" rx="193.3" ry="194.8"/>
	<path class="st7" d="M650.4,306.8c-50.7,31.9-81.3,83.7-88.3,139.1c11.9-45.8,40.5-87.3,83.6-114.4
		c90.3-56.9,210.1-29.2,267.5,61.8c25.2,39.9,34.2,85.4,28.7,128.7c13.1-50.3,6.1-105.8-24-153.4
		C860.5,277.6,740.7,249.9,650.4,306.8z"/>
	<g>
		<g>
			<path class="st5" d="M1102.5,1397.5v67.8c0,11,122.3,19.9,273.2,19.9c150.9,0,273.2-8.9,273.2-19.9v-67.8H1102.5z"/>
			<g>
				<path class="st8" d="M1300.2,1484.4v-86.9h-197.7v67.8C1102.5,1474.4,1186.1,1482,1300.2,1484.4z"/>
				<path class="st8" d="M1309.5,1484.6c21.2,0.4,43.4,0.6,66.3,0.6c34.1,0,66.7-0.5,96.7-1.3v-86.4h-163V1484.6z"/>
				<path class="st8" d="M1483.4,1483.6c97.3-3,165.5-10.1,165.5-18.3v-67.8h-165.5V1483.6z"/>
			</g>
			<ellipse class="st5" cx="1375.7" cy="1396.8" rx="273.2" ry="19.9"/>
			<ellipse class="st6" cx="1375.7" cy="1396.8" rx="225" ry="13.8"/>
		</g>
		<g>
			<path class="st5" d="M1055.8,1325.7v67.8c0,11,122.3,19.9,273.2,19.9s273.2-8.9,273.2-19.9v-67.8H1055.8z"/>
			<g>
				<path class="st8" d="M1253.5,1412.6v-86.9h-197.7v67.8C1055.8,1402.6,1139.3,1410.3,1253.5,1412.6z"/>
				<path class="st8" d="M1262.7,1412.8c21.2,0.4,43.4,0.6,66.3,0.6c34.1,0,66.7-0.5,96.7-1.3v-86.4h-163V1412.8z"/>
				<path class="st8" d="M1436.7,1411.8c97.3-3,165.5-10.1,165.5-18.3v-67.8h-165.5V1411.8z"/>
			</g>
			<ellipse class="st5" cx="1329" cy="1325" rx="273.2" ry="19.9"/>
			<path class="st6" d="M1554,1325c0,7.6-100.7,13.8-225,13.8c-124.2,0-225-10.7-225-18.3c0-7.6,100.7-9.2,225-9.2
				C1453.2,1311.3,1554,1317.4,1554,1325z"/>
		</g>
		<g>
			<path class="st5" d="M1086.9,1252.1v67.8c0,11,122.3,19.9,273.2,19.9c150.9,0,273.2-8.9,273.2-19.9v-67.8H1086.9z"/>
			<g>
				<path class="st8" d="M1284.7,1339v-86.9h-197.7v67.8C1086.9,1328.9,1170.5,1336.6,1284.7,1339z"/>
				<path class="st8" d="M1293.9,1339.1c21.2,0.4,43.4,0.6,66.3,0.6c34.1,0,66.7-0.5,96.7-1.3v-86.4h-163V1339.1z"/>
				<path class="st8" d="M1467.8,1338.1c97.3-3,165.5-10.1,165.5-18.3v-67.8h-165.5V1338.1z"/>
			</g>
			<ellipse class="st5" cx="1360.1" cy="1251.3" rx="273.2" ry="19.9"/>
			<ellipse class="st6" cx="1360.1" cy="1251.3" rx="225" ry="13.8"/>
		</g>
		<g>
			<path class="st5" d="M1055.8,1179.4v67.8c0,11,122.3,19.9,273.2,19.9s273.2-8.9,273.2-19.9v-67.8H1055.8z"/>
			<g>
				<path class="st8" d="M1253.5,1266.3v-86.9h-197.7v67.8C1055.8,1256.3,1139.3,1263.9,1253.5,1266.3z"/>
				<path class="st8" d="M1262.7,1266.5c21.2,0.4,43.4,0.6,66.3,0.6c34.1,0,66.7-0.5,96.7-1.3v-86.4h-163V1266.5z"/>
				<path class="st8" d="M1436.7,1265.5c97.3-3,165.5-10.1,165.5-18.3v-67.8h-165.5V1265.5z"/>
			</g>
			<ellipse class="st5" cx="1329" cy="1178.7" rx="273.2" ry="19.9"/>
			<ellipse class="st6" cx="1329" cy="1178.7" rx="225" ry="13.8"/>
		</g>
		<g>
			<rect x="1434.3" y="1311" class="st9" width="478.6" height="174.2"/>
			<g>
				<rect x="1434.3" y="1336.4" class="st10" width="478.6" height="22.4"/>
				<rect x="1434.3" y="1380.1" class="st10" width="478.6" height="22.4"/>
				<rect x="1434.3" y="1423.9" class="st10" width="478.6" height="22.4"/>
				<rect x="1434.3" y="1462.8" class="st10" width="478.6" height="22.4"/>
				<rect x="1635.2" y="1311" class="st6" width="99.5" height="174.2"/>
			</g>
			<rect x="1367.8" y="1311" class="st11" width="72.3" height="174.2"/>
		</g>
	</g>
	<path class="st2" d="M911.2,684.9c-58.3-11.5-121.6,26.9-179.6,26.9c-58.3,0.1-111.4-38.1-169.4-26.8c-10.8,2.1-20.9-6.2-20.9-17.2
		v-0.1c0-8.3,5.8-15.4,13.9-17.1c121-25.3,242-25.3,363,0c8.1,1.7,13.9,8.9,13.9,17.1v0C932.1,678.8,922,687,911.2,684.9z"/>
	<path class="st1" d="M567.2,785.8c40-105.3,192.5-80.9,192.5-80.9C782.4,865,628.4,913.6,628.4,913.6
		C580.8,865,567.2,785.8,567.2,785.8z"/>
	<g>
		<g>
			<path class="st12" d="M1065.3,304c0,0,20.5,18.6,29.1,24.8c7.1,5.1,41.7,21.8,41.7,21.8s34.4-52.7,49.4-79.1
				c18.2-32,30.9-79.7,26.6-81c-12.1-3.6-28.8-5.8-44.1,1.2C1114.6,216.1,1065.3,304,1065.3,304z"/>
		</g>
		<path class="st2" d="M1402.1,1111.3c0,0,2.3,40.3,2.3,40.4c0.8,5.1,4.1,17.8,4.1,22.4c0,17.5-77.6-14.8-60.2-22.6
			c1.6-0.7,9.8-6,10.3-12c0.8-9.2,2.8-27.7,2.8-27.7L1402.1,1111.3z"/>
		<path class="st12" d="M1347.6,1151.8c0,0,18.2,5.3,27.5,6.7c9.3,1.3,21.6-9.9,28.2-6.9c7.3,3.3,7,33.5,7,33.5s-97.7,8.6-125.1-0.3
			C1274.3,1181.2,1310.3,1164.2,1347.6,1151.8z"/>
		<path class="st2" d="M1531.3,1109.2c0,0,2.3,40.3,2.3,40.4c0.8,5.1,4.1,17.8,4.1,22.4c0,17.5-77.6-14.8-60.2-22.6
			c1.6-0.7,12.3-10,12.8-15.9c0.8-9.2,0.4-23.8,0.4-23.8L1531.3,1109.2z"/>
		<path class="st12" d="M1477.7,1149.3c0,0,18.2,5.3,27.5,6.7c9.3,1.3,21.6-9.9,28.2-6.9c7.3,3.3,7.6,33.5,7.6,33.5s-97,4-125.7-0.3
			C1404,1180.6,1440.5,1161.8,1477.7,1149.3z"/>
		<path class="st12" d="M1508.3,468.7c0,0,13.1,68,7.8,119.6c-5.4,51.6-5.8,234.8-5.8,234.8l24.7,293.1l-52.8,1.2
			c0,0-57.5-293-56.5-285.5c1.1,7.5-19.3-206.3-19.3-206.3l68.6-163.3L1508.3,468.7z"/>
		<path class="st13" d="M1489.9,424.8c0,0,59.6,62.7,37.4,131.3c-8.9,27.5-91.9,290.5-93,312c-1.1,21.5-28.1,259.1-28.1,259.1
			l-56.4-1.7l-12.2-264.1l16.1-355.9l34.2-60L1489.9,424.8z"/>
		<path class="st14" d="M1128.3,220.6c19.5-21.8,62-52.7,62-52.7s25.3-21.6,35.6-25.2c15.2-5.2,41.2-19.2,78.8,37.8
			c26.9,40.8,196.6,251.9,224.5,259l-182,87.1c-5-41.6-94.9-120.1-107.9-134.8C1210.3,359,1109.8,241.2,1128.3,220.6z"/>
		<path class="st2" d="M1136.7,132.1l56.7,33.2c0,0,1.6,48.4-16.9,61c-15.5,10.5-27.4-14.8-27.4-14.8s-21.1-29.2-37.1-38.3
			C1096,164.1,1136.7,132.1,1136.7,132.1z"/>
		<path class="st14" d="M1146.3,153.4c-2.1,10.1-7.1,24.7-14.7,36.7c-6.2-6.8-13.3-13.4-19.5-16.9c-7.4-4.2-2.7-13.3,4.5-21.8
			c10.2-10.6,20.2-19.2,20.2-19.2l10.9,6.4C1148.3,142.6,1147,150.1,1146.3,153.4z"/>
		<path class="st2" d="M1107.2,49c1-1.2,47.5,56.8,41.8,84c-5.7,27.2-33.9,52-53.5,45.2c-21.7-7.6-61.9-75.8-47.5-109
			C1062.5,36.1,1107.2,49,1107.2,49z"/>
		<path class="st6" d="M1056.2,30.7c20.3-11.3,53.4-14.5,78.2-1.6c30.4,15.9,37.4,56,27.8,80.5c-9.5,24.5,1.4,38.3,1.4,38.3
			l-16.1-9.4c0,0-9.4-14.7-10.7-26.5c-1.2-11.7-18.3-9.7-26.7-15c-6.4-4.1-14.6-17.4-25.1-24.3c0,0-26.2-3.2-39.1,4
			C1024,89,1027.1,46.9,1056.2,30.7z"/>
		<path class="st2" d="M1123.2,106.8c-0.2,8.7,4,15.8,9.2,15.9c5.2,0.1,9.6-6.9,9.7-15.6c0.2-8.7-4-15.8-9.2-15.9
			C1127.7,91.1,1123.4,98.1,1123.2,106.8z"/>
		<path class="st15" d="M1075.5,153l24.7-18.4c0,0,6.5,10-4.1,18.4C1083.1,163.2,1075.5,153,1075.5,153z"/>
		<path class="st0" d="M1013.5,519.9c6.2-9,8.9-22.1,17.4-32c2.9-3.3,7.4-7.1,12.6-10.8c41.1-24,148.2-86,152.3-90.8
			c4.9-5.7,78-127.1,78-127.1l-65.6-14.9l-64.1,113.3c-5.4,4.3-107.2,79.5-107.2,79.5s-20.2,15.8-31.3,23.2c-5.6,3.3-11,5.4-15.8,7
			c-6,2.1-17.4,7.7-19.7,9.8c-2.7,2.4-8,7.4-11.2,10.5c-3.2,3.1-7,6.5-8.5,8.4c-0.9,1.1-3.7,2.6-5.8,3.7c-3.1,1.5-2.7,6.1,0.6,7
			c3.1,0.9,7.3-1.1,9.9-2.3c7.4-3.5,16.4-12.8,16.9-11.7c0.5,1.1-8.7,21.2-9.6,23.5c-0.9,2.4-11.4,25.7-11.9,30.9
			c-0.5,5.2,2.6,6.4,4.9,4.5c2-1.6,18.9-32.8,18.9-32.8s2.2-4,3-1.7c0.8,2.3-14.4,30.6-15.9,35.3c-1.5,4.7-0.3,8.5,4,6.8
			c5.2-2,19.7-33.2,19.7-33.2s1.9-3.9,3.2-2.5c1.3,1.4-12.1,25.2-12.3,28c-0.1,2.8,2.3,5.5,6,3.2c4.3-2.7,16.9-30.7,16.9-30.7
			s1.6-1.9,2.1-0.6c0.5,1.3-9.5,22.5-8.7,25.6c0.6,2.6,3,2.1,3,2.1C1000.5,550.9,1007.4,528.9,1013.5,519.9z"/>
		<path class="st12" d="M1256,323.2c0,0-21.4-6.8-35.1-13.1c-9.2-4.2-49.2-24.1-49.2-24.1s17.3-72.8,28.9-99
			c42.8-96.1,91.5-29.8,98.1-14.4C1313.5,207.2,1256,323.2,1256,323.2z"/>
	</g>
	<polygon class="st16" points="728,50.8 742.2,84.7 768.5,77.4 783.8,110.3 810.3,107.2 824.9,130.4 833.9,124.1 814.4,93 789.3,96 
		773.4,61.7 747.5,68.9 734.6,38.2 	"/>
	<polygon class="st17" points="1519.8,63.1 1498.8,55.7 1482.9,71.9 1459.9,61.8 1448.3,84.3 1421.8,74.1 1408.6,93.5 1381.5,87.8 
		1383.6,77.6 1403.8,81.8 1417.8,61.4 1443.3,71.2 1455.1,48.3 1480.4,59.4 1496,43.6 1515.4,50.5 1523.5,38 1532.3,43.6 	"/>
	<g>
		<path class="st6" d="M1936.4,638.1c-5.7,23.2,11.4,47.8,33.3,55c22.7,7.5,45.7-4.6,56.8-24.8c22.1-40-19.3-80.2-48.2-58.3
			c-27,20.4-24.8,57,0.5,60.8c9.5,1.4,26.1-4.3,21.7-16.8c-1-2.8-4.9-3.2-6.6-1c-3.8,4.8-3.6,5-5.3,5.9c-2.6,1.5-5.8,1.6-8.6,1.2
			c-25.7-4.3,0.2-60.7,28.4-41.9c15.5,10.3,17.6,30,9.4,45.7c-7.9,15.1-24.7,25.2-41.8,21.6c-20.5-4.4-35-25.9-33.3-46.5
			C1943,634.9,1937.4,634.1,1936.4,638.1L1936.4,638.1z"/>
	</g>
	<g>
		<path class="st17" d="M296,72.8c-5.7,23.2,11.4,47.8,33.3,55c22.7,7.5,45.7-4.6,56.8-24.8c22.1-40-19.3-80.2-48.2-58.3
			c-27,20.4-24.8,57,0.5,60.8c9.5,1.4,26.1-4.3,21.7-16.8c-1-2.8-4.9-3.2-6.6-1c-3.8,4.8-3.6,5-5.3,5.9c-2.6,1.5-5.8,1.6-8.6,1.2
			c-25.7-4.3,0.2-60.7,28.4-41.9c15.5,10.3,17.6,30,9.4,45.7c-7.9,15.1-24.7,25.2-41.8,21.6c-20.5-4.4-35-25.9-33.3-46.5
			C302.7,69.6,297,68.8,296,72.8L296,72.8z"/>
	</g>
	<polygon class="st6" points="63.2,346 102.4,367.4 97.5,328.4 	"/>
	<path class="st16" d="M1762.1,329l9.9-16.1l-7.9-3.2c-1.7-0.7-2.6-2.7-1.9-4.4l0,0c0.7-1.7,2.7-2.6,4.4-1.9l9.2,3.7l8.8-14.4
		l-8.5-3.4c-1.7-0.7-2.6-2.7-1.9-4.4l0,0c0.7-1.7,2.7-2.6,4.4-1.9l9.7,3.9l10.3-16.5c0.9-1.4,2.6-2,4.2-1.4l1.5,0.6
		c1.9,0.8,2.7,3.1,1.6,4.9l-9.6,15.6l14.1,5.7l10.3-16.5c0.9-1.4,2.6-2,4.2-1.4l1.6,0.7c1.9,0.8,2.7,3.1,1.6,4.9l-9.6,15.6l7.9,3.2
		c1.7,0.7,2.6,2.7,1.9,4.4l0,0c-0.7,1.7-2.7,2.6-4.4,1.9l-9.2-3.7l-8.7,14.5l8.5,3.4c1.7,0.7,2.6,2.7,1.9,4.4l0,0
		c-0.7,1.7-2.7,2.6-4.4,1.9l-9.7-3.9l-10.5,17c-0.9,1.4-2.6,2-4.2,1.4l-1.7-0.7c-1.9-0.8-2.7-3.1-1.6-4.9l9.9-16.1l-14.1-5.7
		l-10.5,17c-0.9,1.4-2.6,2-4.2,1.4l-1.7-0.7C1761.7,333.1,1761,330.8,1762.1,329z M1797.9,316.1l8.8-14.4l-14.1-5.7l-8.8,14.4
		L1797.9,316.1z"/>
	<g class="st18">
		<path d="M592.8,970.2c2.5,1.3,4.4,3.1,5.8,5.5c1.4,2.4,2,5.2,2,8.3c0,3.2-0.7,5.9-2,8.3c-1.4,2.4-3.3,4.2-5.8,5.5
			c-2.5,1.3-5.4,1.9-8.7,1.9h-11v-31.4h11C587.4,968.2,590.3,968.9,592.8,970.2z M591.5,991.6c1.8-1.8,2.7-4.3,2.7-7.6
			c0-3.3-0.9-5.8-2.7-7.7c-1.8-1.8-4.4-2.8-7.6-2.8h-4.5v20.7h4.5C587.1,994.3,589.7,993.4,591.5,991.6z"/>
		<path d="M628.3,989.1h-18.2c0.1,1.8,0.8,3.2,1.9,4.2c1.1,1,2.5,1.5,4.1,1.5c2.3,0,4-1,5-3h6.8c-0.7,2.4-2.1,4.4-4.1,5.9
			s-4.5,2.3-7.5,2.3c-2.4,0-4.6-0.5-6.5-1.6c-1.9-1.1-3.4-2.6-4.5-4.5c-1.1-2-1.6-4.2-1.6-6.8c0-2.6,0.5-4.8,1.6-6.8
			c1-2,2.5-3.5,4.4-4.5c1.9-1,4.1-1.6,6.5-1.6c2.4,0,4.5,0.5,6.4,1.5c1.9,1,3.3,2.5,4.4,4.3c1,1.9,1.6,4,1.6,6.5
			C628.5,987.5,628.5,988.3,628.3,989.1z M622,984.8c0-1.6-0.6-2.9-1.8-3.9c-1.1-1-2.5-1.5-4.2-1.5c-1.6,0-2.9,0.5-3.9,1.4
			c-1.1,0.9-1.7,2.3-2,3.9H622z"/>
		<path d="M633,980.4c1-2,2.4-3.5,4.1-4.5c1.7-1,3.7-1.6,5.8-1.6c1.6,0,3.2,0.4,4.6,1.1c1.5,0.7,2.6,1.6,3.5,2.8v-11.8h6.4v33.3
			h-6.4v-3.7c-0.8,1.2-1.9,2.2-3.3,3c-1.4,0.7-3,1.1-4.9,1.1c-2.1,0-4-0.5-5.8-1.6c-1.7-1.1-3.1-2.6-4.1-4.6c-1-2-1.5-4.2-1.5-6.8
			C631.5,984.6,632,982.3,633,980.4z M650.2,983.2c-0.6-1.1-1.4-1.9-2.4-2.5c-1-0.6-2.1-0.9-3.3-0.9c-1.2,0-2.3,0.3-3.2,0.9
			c-1,0.6-1.8,1.4-2.4,2.5c-0.6,1.1-0.9,2.4-0.9,3.9s0.3,2.8,0.9,3.9c0.6,1.1,1.4,2,2.4,2.6c1,0.6,2.1,0.9,3.2,0.9
			c1.2,0,2.3-0.3,3.3-0.9c1-0.6,1.8-1.4,2.4-2.5c0.6-1.1,0.9-2.4,0.9-3.9S650.8,984.3,650.2,983.2z"/>
		<path d="M687.2,974.7v24.9h-6.3v-3.2c-0.8,1.1-1.9,1.9-3.2,2.5s-2.7,0.9-4.3,0.9c-2,0-3.7-0.4-5.2-1.2c-1.5-0.8-2.7-2-3.5-3.6
			c-0.9-1.6-1.3-3.5-1.3-5.7v-14.6h6.3v13.7c0,2,0.5,3.5,1.5,4.6c1,1.1,2.3,1.6,4,1.6c1.7,0,3.1-0.5,4.1-1.6c1-1.1,1.5-2.6,1.5-4.6
			v-13.7H687.2z"/>
		<path d="M693.3,980.4c1-1.9,2.5-3.4,4.4-4.5c1.9-1.1,4-1.6,6.4-1.6c3.1,0,5.6,0.8,7.7,2.3c2,1.5,3.4,3.7,4.1,6.5H709
			c-0.4-1.1-1-1.9-1.8-2.5c-0.9-0.6-1.9-0.9-3.2-0.9c-1.8,0-3.2,0.7-4.3,2c-1.1,1.3-1.6,3.2-1.6,5.6c0,2.4,0.5,4.2,1.6,5.5
			c1,1.3,2.5,2,4.3,2c2.5,0,4.2-1.1,5-3.4h6.8c-0.7,2.7-2.1,4.8-4.1,6.4c-2,1.6-4.6,2.4-7.6,2.4c-2.4,0-4.5-0.5-6.4-1.6
			c-1.9-1.1-3.3-2.6-4.4-4.5c-1.1-1.9-1.6-4.2-1.6-6.8S692.3,982.3,693.3,980.4z"/>
		<path d="M727.8,979.9v12.1c0,0.8,0.2,1.4,0.6,1.8c0.4,0.4,1.1,0.6,2,0.6h2.9v5.3h-4c-5.3,0-8-2.6-8-7.7v-12h-3v-5.2h3v-6.2h6.3
			v6.2h5.6v5.2H727.8z"/>
		<path d="M738.3,970.7c-0.7-0.7-1.1-1.6-1.1-2.6c0-1,0.4-1.9,1.1-2.6c0.7-0.7,1.7-1.1,2.8-1.1s2,0.4,2.8,1.1
			c0.7,0.7,1.1,1.6,1.1,2.6c0,1.1-0.4,1.9-1.1,2.6c-0.7,0.7-1.7,1.1-2.8,1.1S739.1,971.4,738.3,970.7z M744.2,974.7v24.9h-6.3v-24.9
			H744.2z"/>
		<path d="M755,998.4c-1.9-1.1-3.4-2.6-4.5-4.5c-1.1-2-1.6-4.2-1.6-6.8s0.6-4.8,1.7-6.8s2.7-3.5,4.6-4.5c1.9-1.1,4.1-1.6,6.5-1.6
			c2.4,0,4.6,0.5,6.5,1.6c1.9,1.1,3.5,2.6,4.6,4.5s1.7,4.2,1.7,6.8s-0.6,4.8-1.7,6.8s-2.7,3.5-4.7,4.5c-2,1.1-4.2,1.6-6.6,1.6
			C759.1,1000,756.9,999.5,755,998.4z M764.7,993.7c1-0.6,1.8-1.4,2.4-2.5c0.6-1.1,0.9-2.5,0.9-4c0-2.4-0.6-4.2-1.9-5.5
			c-1.2-1.3-2.8-1.9-4.6-1.9c-1.8,0-3.3,0.6-4.5,1.9c-1.2,1.3-1.8,3.1-1.8,5.5s0.6,4.2,1.8,5.5s2.7,1.9,4.5,1.9
			C762.6,994.5,763.7,994.3,764.7,993.7z"/>
		<path d="M800.1,977.1c1.8,1.9,2.7,4.5,2.7,7.9v14.6h-6.3v-13.8c0-2-0.5-3.5-1.5-4.6c-1-1.1-2.3-1.6-4.1-1.6
			c-1.7,0-3.1,0.5-4.1,1.6c-1,1.1-1.5,2.6-1.5,4.6v13.8h-6.3v-24.9h6.3v3.1c0.8-1.1,1.9-1.9,3.2-2.5s2.7-0.9,4.3-0.9
			C795.9,974.3,798.3,975.3,800.1,977.1z"/>
		<path d="M825.8,968.2v19.4c0,2.1,0.6,3.8,1.7,4.9c1.1,1.1,2.7,1.7,4.7,1.7c2,0,3.6-0.6,4.7-1.7s1.7-2.8,1.7-4.9v-19.4h6.3v19.4
			c0,2.7-0.6,4.9-1.7,6.8c-1.2,1.8-2.7,3.2-4.6,4.2c-1.9,0.9-4.1,1.4-6.5,1.4c-2.3,0-4.5-0.5-6.4-1.4c-1.9-0.9-3.4-2.3-4.5-4.2
			c-1.1-1.8-1.7-4.1-1.7-6.8v-19.4H825.8z"/>
		<path d="M872,977.1c1.8,1.9,2.7,4.5,2.7,7.9v14.6h-6.3v-13.8c0-2-0.5-3.5-1.5-4.6c-1-1.1-2.3-1.6-4.1-1.6c-1.7,0-3.1,0.5-4.1,1.6
			c-1,1.1-1.5,2.6-1.5,4.6v13.8H851v-24.9h6.3v3.1c0.8-1.1,1.9-1.9,3.2-2.5s2.7-0.9,4.3-0.9C867.7,974.3,870.1,975.3,872,977.1z"/>
		<path d="M880.6,980.4c1-2,2.4-3.5,4.1-4.5c1.7-1,3.7-1.6,5.8-1.6c1.6,0,3.2,0.4,4.6,1.1c1.5,0.7,2.6,1.6,3.5,2.8v-11.8h6.4v33.3
			h-6.4v-3.7c-0.8,1.2-1.9,2.2-3.3,3c-1.4,0.7-3,1.1-4.9,1.1c-2.1,0-4-0.5-5.8-1.6c-1.7-1.1-3.1-2.6-4.1-4.6c-1-2-1.5-4.2-1.5-6.8
			C879.1,984.6,879.6,982.3,880.6,980.4z M897.8,983.2c-0.6-1.1-1.4-1.9-2.4-2.5c-1-0.6-2.1-0.9-3.3-0.9c-1.2,0-2.3,0.3-3.2,0.9
			c-1,0.6-1.8,1.4-2.4,2.5c-0.6,1.1-0.9,2.4-0.9,3.9s0.3,2.8,0.9,3.9c0.6,1.1,1.4,2,2.4,2.6c1,0.6,2.1,0.9,3.2,0.9
			c1.2,0,2.3-0.3,3.3-0.9c1-0.6,1.8-1.4,2.4-2.5c0.6-1.1,0.9-2.4,0.9-3.9S898.4,984.3,897.8,983.2z"/>
		<path d="M934.2,989.1H916c0.1,1.8,0.8,3.2,1.9,4.2c1.1,1,2.5,1.5,4.1,1.5c2.3,0,4-1,5-3h6.8c-0.7,2.4-2.1,4.4-4.1,5.9
			s-4.5,2.3-7.5,2.3c-2.4,0-4.6-0.5-6.5-1.6c-1.9-1.1-3.4-2.6-4.5-4.5c-1.1-2-1.6-4.2-1.6-6.8c0-2.6,0.5-4.8,1.6-6.8
			c1-2,2.5-3.5,4.4-4.5c1.9-1,4.1-1.6,6.5-1.6c2.4,0,4.5,0.5,6.4,1.5c1.9,1,3.3,2.5,4.4,4.3c1,1.9,1.6,4,1.6,6.5
			C934.4,987.5,934.3,988.3,934.2,989.1z M927.9,984.8c0-1.6-0.6-2.9-1.8-3.9c-1.1-1-2.5-1.5-4.2-1.5c-1.6,0-2.9,0.5-3.9,1.4
			c-1.1,0.9-1.7,2.3-2,3.9H927.9z"/>
		<path d="M948.4,975.5c1.3-0.7,2.8-1.1,4.5-1.1v6.6h-1.7c-2,0-3.5,0.5-4.5,1.4c-1,0.9-1.5,2.6-1.5,4.9v12.4H939v-24.9h6.3v3.9
			C946.1,977.2,947.1,976.2,948.4,975.5z"/>
		<path d="M633.1,1058.8c-1.8-0.8-3.1-1.8-4.2-3.2c-1-1.4-1.5-3.1-1.6-5h6.8c0.1,1.3,0.5,2.3,1.4,3.1c0.8,0.8,2,1.1,3.4,1.1
			c1.5,0,2.6-0.4,3.5-1.1c0.8-0.7,1.3-1.6,1.3-2.8c0-0.9-0.3-1.7-0.9-2.3c-0.6-0.6-1.3-1.1-2.1-1.4s-2-0.7-3.5-1.1
			c-2-0.6-3.7-1.2-5-1.8c-1.3-0.6-2.4-1.5-3.3-2.7c-0.9-1.2-1.4-2.8-1.4-4.7c0-1.9,0.5-3.5,1.4-4.9c0.9-1.4,2.2-2.4,3.9-3.2
			c1.7-0.7,3.6-1.1,5.8-1.1c3.2,0,5.9,0.8,7.9,2.4c2,1.6,3.1,3.8,3.4,6.6h-6.9c-0.1-1.1-0.5-2-1.4-2.7s-2-1.1-3.4-1.1
			c-1.2,0-2.2,0.3-2.9,0.9c-0.7,0.6-1.1,1.5-1.1,2.7c0,0.8,0.3,1.5,0.8,2.1c0.6,0.6,1.2,1,2.1,1.3c0.8,0.3,2,0.7,3.5,1.2
			c2,0.6,3.7,1.2,5,1.8c1.3,0.6,2.4,1.5,3.3,2.7c0.9,1.2,1.4,2.8,1.4,4.7c0,1.7-0.4,3.2-1.3,4.7c-0.9,1.4-2.1,2.6-3.8,3.4
			c-1.7,0.9-3.7,1.3-6,1.3C636.8,1059.9,634.8,1059.6,633.1,1058.8z"/>
		<path d="M678.5,1049.1h-18.2c0.1,1.8,0.8,3.2,1.9,4.2c1.1,1,2.5,1.5,4.1,1.5c2.3,0,4-1,5-3h6.8c-0.7,2.4-2.1,4.4-4.1,5.9
			s-4.5,2.3-7.5,2.3c-2.4,0-4.6-0.5-6.5-1.6c-1.9-1.1-3.4-2.6-4.5-4.5c-1.1-2-1.6-4.2-1.6-6.8c0-2.6,0.5-4.8,1.6-6.8
			c1-2,2.5-3.5,4.4-4.5c1.9-1,4.1-1.6,6.5-1.6c2.4,0,4.5,0.5,6.4,1.5c1.9,1,3.3,2.5,4.4,4.3c1,1.9,1.6,4,1.6,6.5
			C678.7,1047.5,678.7,1048.3,678.5,1049.1z M672.2,1044.8c0-1.6-0.6-2.9-1.8-3.9c-1.1-1-2.5-1.5-4.2-1.5c-1.6,0-2.9,0.5-3.9,1.4
			c-1.1,0.9-1.7,2.3-2,3.9H672.2z"/>
		<path d="M683.3,1040.4c1-1.9,2.5-3.4,4.4-4.5c1.9-1.1,4-1.6,6.4-1.6c3.1,0,5.6,0.8,7.7,2.3c2,1.5,3.4,3.7,4.1,6.5H699
			c-0.4-1.1-1-1.9-1.8-2.5c-0.9-0.6-1.9-0.9-3.2-0.9c-1.8,0-3.2,0.7-4.3,2c-1.1,1.3-1.6,3.2-1.6,5.6c0,2.4,0.5,4.2,1.6,5.5
			c1,1.3,2.5,2,4.3,2c2.5,0,4.2-1.1,5-3.4h6.8c-0.7,2.7-2.1,4.8-4.1,6.4c-2,1.6-4.6,2.4-7.6,2.4c-2.4,0-4.5-0.5-6.4-1.6
			c-1.9-1.1-3.3-2.6-4.4-4.5c-1.1-1.9-1.6-4.2-1.6-6.8S682.2,1042.3,683.3,1040.4z"/>
		<path d="M717.7,1039.9v12.1c0,0.8,0.2,1.4,0.6,1.8c0.4,0.4,1.1,0.6,2,0.6h2.9v5.3h-4c-5.3,0-8-2.6-8-7.7v-12h-3v-5.2h3v-6.2h6.3
			v6.2h5.6v5.2H717.7z"/>
		<path d="M728.3,1030.7c-0.7-0.7-1.1-1.6-1.1-2.6c0-1,0.4-1.9,1.1-2.6c0.7-0.7,1.7-1.1,2.8-1.1s2,0.4,2.8,1.1
			c0.7,0.7,1.1,1.6,1.1,2.6c0,1.1-0.4,1.9-1.1,2.6c-0.7,0.7-1.7,1.1-2.8,1.1S729,1031.4,728.3,1030.7z M734.2,1034.7v24.9h-6.3
			v-24.9H734.2z"/>
		<path d="M745,1058.4c-1.9-1.1-3.4-2.6-4.5-4.5c-1.1-2-1.6-4.2-1.6-6.8s0.6-4.8,1.7-6.8s2.7-3.5,4.6-4.5c1.9-1.1,4.1-1.6,6.5-1.6
			c2.4,0,4.6,0.5,6.5,1.6c1.9,1.1,3.5,2.6,4.6,4.5s1.7,4.2,1.7,6.8s-0.6,4.8-1.7,6.8s-2.7,3.5-4.7,4.5c-2,1.1-4.2,1.6-6.6,1.6
			C749,1060,746.9,1059.5,745,1058.4z M754.7,1053.7c1-0.6,1.8-1.4,2.4-2.5c0.6-1.1,0.9-2.5,0.9-4c0-2.4-0.6-4.2-1.9-5.5
			c-1.2-1.3-2.8-1.9-4.6-1.9c-1.8,0-3.3,0.6-4.5,1.9c-1.2,1.3-1.8,3.1-1.8,5.5s0.6,4.2,1.8,5.5s2.7,1.9,4.5,1.9
			C752.6,1054.5,753.6,1054.3,754.7,1053.7z"/>
		<path d="M790.1,1037.1c1.8,1.9,2.7,4.5,2.7,7.9v14.6h-6.3v-13.8c0-2-0.5-3.5-1.5-4.6c-1-1.1-2.3-1.6-4.1-1.6
			c-1.7,0-3.1,0.5-4.1,1.6c-1,1.1-1.5,2.6-1.5,4.6v13.8h-6.3v-24.9h6.3v3.1c0.8-1.1,1.9-1.9,3.2-2.5s2.7-0.9,4.3-0.9
			C785.9,1034.3,788.3,1035.3,790.1,1037.1z"/>
		<path d="M809.8,1035c0-1.6,0.4-3.1,1.2-4.4c0.8-1.3,2.1-2.4,3.7-3.2s3.7-1.2,6.1-1.2c2.4,0,4.4,0.4,6.1,1.2s2.9,1.9,3.7,3.2
			c0.8,1.3,1.2,2.8,1.2,4.4c0,1.7-0.4,3.1-1.2,4.3c-0.8,1.2-1.9,2.2-3.2,2.9c1.6,0.7,2.9,1.8,3.9,3.2c0.9,1.4,1.4,3,1.4,4.9
			c0,2-0.5,3.8-1.6,5.3c-1,1.5-2.5,2.7-4.3,3.5c-1.8,0.8-3.8,1.2-6.1,1.2s-4.3-0.4-6.1-1.2c-1.8-0.8-3.2-2-4.2-3.5
			c-1-1.5-1.6-3.3-1.6-5.3c0-1.9,0.5-3.5,1.4-4.9c0.9-1.4,2.2-2.4,3.9-3.1C811.3,1040.7,809.8,1038.3,809.8,1035z M816.7,1046.3
			c-1.1,0.9-1.6,2.1-1.6,3.7c0,1.5,0.5,2.7,1.6,3.7c1,0.9,2.4,1.4,4.2,1.4c1.8,0,3.2-0.5,4.2-1.4c1-1,1.5-2.2,1.5-3.6
			c0-1.6-0.5-2.8-1.6-3.7c-1.1-0.9-2.4-1.3-4.1-1.3S817.8,1045.4,816.7,1046.3z M824.5,1032.5c-0.9-0.8-2.1-1.2-3.6-1.2
			c-1.5,0-2.7,0.4-3.6,1.2c-0.9,0.8-1.3,2-1.3,3.5c0,1.3,0.5,2.4,1.4,3.2c0.9,0.8,2.1,1.2,3.5,1.2s2.6-0.4,3.6-1.2
			c0.9-0.8,1.4-1.9,1.4-3.3C825.8,1034.4,825.4,1033.3,824.5,1032.5z"/>
		<path d="M840.6,1030.6c1.9-2.9,5-4.4,9.3-4.4c4.3,0,7.5,1.5,9.3,4.4c1.9,2.9,2.8,7,2.8,12.2c0,5.2-0.9,9.3-2.8,12.3
			c-1.9,3-5,4.5-9.3,4.5c-4.4,0-7.5-1.5-9.3-4.5s-2.8-7.1-2.8-12.3C837.7,1037.6,838.7,1033.5,840.6,1030.6z M855.4,1037.2
			c-0.3-1.5-0.9-2.8-1.7-3.7s-2.1-1.4-3.8-1.4c-1.7,0-2.9,0.5-3.8,1.4s-1.4,2.2-1.7,3.7c-0.3,1.5-0.4,3.4-0.4,5.6
			c0,2.3,0.1,4.2,0.4,5.7c0.3,1.5,0.8,2.8,1.7,3.7c0.9,0.9,2.1,1.4,3.8,1.4c1.7,0,3-0.5,3.8-1.4s1.4-2.2,1.7-3.7
			c0.3-1.5,0.4-3.5,0.4-5.7C855.8,1040.6,855.7,1038.7,855.4,1037.2z"/>
		<path d="M868.1,1035.6c1.4-2.4,3.3-4.3,5.7-5.7c2.4-1.4,5.1-2,8.1-2c3.5,0,6.6,0.9,9.2,2.7c2.6,1.8,4.5,4.3,5.5,7.5h-7.2
			c-0.7-1.5-1.7-2.6-3-3.4c-1.3-0.8-2.8-1.1-4.5-1.1c-1.8,0-3.5,0.4-4.9,1.3c-1.4,0.9-2.5,2.1-3.3,3.6c-0.8,1.6-1.2,3.4-1.2,5.5
			c0,2.1,0.4,3.9,1.2,5.5c0.8,1.6,1.9,2.8,3.3,3.6c1.4,0.9,3.1,1.3,4.9,1.3c1.7,0,3.2-0.4,4.5-1.1c1.3-0.8,2.3-1.9,3-3.4h7.2
			c-1.1,3.2-2.9,5.7-5.5,7.5c-2.6,1.8-5.7,2.7-9.2,2.7c-3,0-5.7-0.7-8.1-2c-2.4-1.4-4.3-3.3-5.7-5.7c-1.4-2.4-2.1-5.2-2.1-8.3
			S866.7,1038,868.1,1035.6z"/>
	</g>
	<path class="st15" d="M813.4,414.6h-19.6c-1.5-7.9-4.8-15.7-7.9-15.7h27.5c8.7,0,15.7-7,15.7-15.7c0-8.7-7-15.7-15.7-15.7h-118
		c-8.7,0-15.7,7-15.7,15.7c0,8.7,7,15.7,15.7,15.7h33.8c12,0.2,23.3,6.1,30.8,15.7h-64.6c-8.7,0-15.7,7-15.7,15.7s7,15.7,15.7,15.7
		h64.6c-1.5,0-3.1,4.8-6.3,7c-6.5,6.3-15.5,9.6-24.4,8.7h-33.8c-6.3,0.7-11.8,5-14.2,10.9c-2.4,6.1-1.1,13.1,3.1,18.1l84.2,80.3
		c2.8,3.1,6.8,4.6,10.9,4.8c4.6,0.2,8.9-2,11.8-5.5c5.9-6.3,5.5-16.1-0.9-22l-55.4-52.8c15.7-1.1,30.5-7.9,41.7-19
		c7.6-8.9,13.5-19.4,17.2-30.8h19.6c8.7,0,15.7-7,15.7-15.7C829.1,421.3,822.1,414.6,813.4,414.6z"/>
</g>
</svg>
