<?xml version="1.0" encoding="iso-8859-1"?>
<!-- Generator: Adobe Illustrator 18.0.0, SVG Export Plug-In . SVG Version: 6.00 Build 0)  -->
<!DOCTYPE svg PUBLIC "-//W3C//DTD SVG 1.1//EN" "http://www.w3.org/Graphics/SVG/1.1/DTD/svg11.dtd">
<svg version="1.1" id="Layer_1" xmlns="http://www.w3.org/2000/svg" xmlns:xlink="http://www.w3.org/1999/xlink" x="0px" y="0px"
	 viewBox="0 0 300 265" style="enable-background:new 0 0 300 265;" xml:space="preserve">
<g>
	<path style="fill:none;stroke:#465C73;stroke-width:7;stroke-miterlimit:10;" d="M230.563,257.185H68.437c-5.523,0-10-4.477-10-10
		V59.041c0-6.627,5.373-12,12-12h160.126c5.523,0,10,4.477,10,10v190.144C240.563,252.708,236.086,257.185,230.563,257.185z"/>
	<circle style="fill:#FCDEC2;" cx="102" cy="109.723" r="14.459"/>
	<circle style="fill:#8CB6E0;" cx="102" cy="154.548" r="14.459"/>
	<circle style="fill:#8CB6DF;" cx="102" cy="202.987" r="14.459"/>
	<path style="fill:#B1CDEB;" d="M184.579,109h-52.374c-3.093,0-5.624-2.531-5.624-5.624v-0.32c0-3.093,2.531-5.624,5.624-5.624
		h52.374c3.093,0,5.624,2.531,5.624,5.624v0.32C190.203,106.47,187.672,109,184.579,109z"/>
	<path style="fill:#7C8CA0;" d="M167.228,126.183h-35.023c-3.093,0-5.624-2.531-5.624-5.624v-0.32c0-3.093,2.531-5.624,5.624-5.624
		h35.023c3.093,0,5.624,2.531,5.624,5.624v0.32C172.851,123.652,170.321,126.183,167.228,126.183z"/>
	<path style="fill:#B1CDEB;" d="M184.579,156.825h-52.374c-3.093,0-5.624-2.531-5.624-5.624v-0.32c0-3.093,2.531-5.624,5.624-5.624
		h52.374c3.093,0,5.624,2.531,5.624,5.624v0.32C190.203,154.294,187.672,156.825,184.579,156.825z"/>
	<path style="fill:#7C8CA0;" d="M167.228,173.007h-35.023c-3.093,0-5.624-2.531-5.624-5.624v-0.32c0-3.093,2.531-5.624,5.624-5.624
		h35.023c3.093,0,5.624,2.531,5.624,5.624v0.32C172.851,170.476,170.321,173.007,167.228,173.007z"/>
	<path style="fill:#B1CDEB;" d="M184.579,204.372h-52.374c-3.093,0-5.624-2.531-5.624-5.624v-0.32c0-3.093,2.531-5.624,5.624-5.624
		h52.374c3.093,0,5.624,2.531,5.624,5.624v0.32C190.203,201.841,187.672,204.372,184.579,204.372z"/>
	<path style="fill:#7C8CA0;" d="M167.228,222.554h-35.023c-3.093,0-5.624-2.531-5.624-5.624v-0.32c0-3.093,2.531-5.624,5.624-5.624
		h35.023c3.093,0,5.624,2.531,5.624,5.624v0.32C172.851,220.024,170.321,222.554,167.228,222.554z"/>
	<path style="fill:#FFFFFF;" d="M161.159,26.113c0,5.68-4.35,9.256-9.715,9.256s-9.715-3.576-9.715-9.256s4.35-10.285,9.715-10.285
		S161.159,20.433,161.159,26.113z"/>
	<path style="fill:#8CB6E0;stroke:#465C73;stroke-width:5;stroke-miterlimit:10;" d="M176.188,37.683h-54.377v-7.189
		c0-14.712,12.037-26.75,26.75-26.75h0.877c14.712,0,26.75,12.037,26.75,26.75V37.683z"/>
	<path style="fill:#8CB6E0;stroke:#465C73;stroke-width:5;stroke-miterlimit:10;" d="M173.546,33.827h14.452
		c12.341,0,22.346,10.59,22.346,23.654v10.027H87.442V57.481c0-13.064,10.004-23.654,22.346-23.654h14.452"/>
	<ellipse style="fill:#FFFFFF;" cx="149" cy="31.865" rx="13.659" ry="14.459"/>
</g>
<g>
</g>
<g>
</g>
<g>
</g>
<g>
</g>
<g>
</g>
<g>
</g>
</svg>
