<?xml version="1.0"?>
<svg xmlns="http://www.w3.org/2000/svg" height="512px" viewBox="0 -15 512 512" width="512px" class=""><g><path d="m462.023438 40h-30.363282c-.894531-22.207031-19.238281-40-41.660156-40s-40.765625 17.792969-41.660156 40h-50.679688c-.894531-22.207031-19.238281-40-41.660156-40s-40.765625 17.792969-41.660156 40h-49.679688c-.894531-22.207031-19.238281-40-41.660156-40s-40.765625 17.792969-41.660156 40h-31.363282c-27.558593 0-49.976562 22.417969-49.976562 49.976562v316.210938c0 41.800781 34.007812 75.8125 75.8125 75.8125h360.375c41.804688 0 75.8125-34.011719 75.8125-75.8125v-316.210938c0-27.558593-22.417969-49.976562-49.976562-49.976562zm-83.714844 1.691406c0-6.445312 5.242187-11.691406 11.691406-11.691406s11.691406 5.246094 11.691406 11.691406v23c0 6.449219-5.246094 11.695313-11.691406 11.695313s-11.691406-5.246094-11.691406-11.695313zm-134 0c0-6.445312 5.242187-11.691406 11.691406-11.691406s11.691406 5.246094 11.691406 11.691406v23c0 6.449219-5.246094 11.695313-11.691406 11.695313s-11.691406-5.246094-11.691406-11.695313zm-133 0c0-6.445312 5.242187-11.691406 11.691406-11.691406s11.691406 5.246094 11.691406 11.691406v23c0 6.449219-5.246094 11.695313-11.691406 11.695313s-11.691406-5.246094-11.691406-11.695313zm-61.332032 28.308594h31.667969c2.613281 20.492188 20.164063 36.386719 41.355469 36.386719s38.742188-15.894531 41.355469-36.386719h50.285156c2.617187 20.492188 20.167969 36.386719 41.359375 36.386719s38.742188-15.894531 41.355469-36.386719h51.285156c2.617187 20.492188 20.167969 36.386719 41.359375 36.386719s38.742188-15.894531 41.355469-36.386719h30.667969c11.015624 0 19.976562 8.960938 19.976562 19.976562v40.914063h-452v-40.914063c0-11.015624 8.960938-19.976562 19.976562-19.976562zm386.210938 382h-360.375c-25.261719 0-45.8125-20.550781-45.8125-45.8125v-245.296875h452v245.296875c0 25.261719-20.550781 45.8125-45.8125 45.8125zm0 0" data-original="#000000" class="active-path" data-old_color="#048087" fill="#048087"/><path d="m149.691406 199.941406h-53.382812c-8.285156 0-15 6.714844-15 15s6.714844 15 15 15h53.386718c8.28125 0 15-6.714844 15-15s-6.71875-15-15.003906-15zm0 0" data-original="#000000" class="active-path" data-old_color="#048087" fill="#048087"/><path d="m229.308594 229.941406h53.386718c8.28125 0 15-6.714844 15-15s-6.71875-15-15-15h-53.386718c-8.285156 0-15 6.714844-15 15s6.714844 15 15 15zm0 0" data-original="#000000" class="active-path" data-old_color="#048087" fill="#048087"/><path d="m416.691406 199.941406h-53.386718c-8.28125 0-15 6.714844-15 15s6.71875 15 15 15h53.386718c8.285156 0 15-6.714844 15-15s-6.714844-15-15-15zm0 0" data-original="#000000" class="active-path" data-old_color="#048087" fill="#048087"/><path d="m149.191406 260h-53.382812c-8.285156 0-15 6.714844-15 15s6.714844 15 15 15h53.386718c8.28125 0 15-6.714844 15-15s-6.71875-15-15.003906-15zm0 0" data-original="#000000" class="active-path" data-old_color="#048087" fill="#048087"/><path d="m228.808594 290h53.386718c8.28125 0 15-6.714844 15-15s-6.71875-15-15-15h-53.386718c-8.285156 0-15 6.714844-15 15s6.714844 15 15 15zm0 0" data-original="#000000" class="active-path" data-old_color="#048087" fill="#048087"/><path d="m416.191406 260h-53.386718c-8.28125 0-15 6.714844-15 15s6.71875 15 15 15h53.386718c8.285156 0 15-6.714844 15-15s-6.714844-15-15-15zm0 0" data-original="#000000" class="active-path" data-old_color="#048087" fill="#048087"/><path d="m149.191406 320h-53.382812c-8.285156 0-15 6.714844-15 15s6.714844 15 15 15h53.386718c8.28125 0 15-6.714844 15-15s-6.71875-15-15.003906-15zm0 0" data-original="#000000" class="active-path" data-old_color="#048087" fill="#048087"/><path d="m228.808594 350h53.386718c8.28125 0 15-6.714844 15-15s-6.71875-15-15-15h-53.386718c-8.285156 0-15 6.714844-15 15s6.714844 15 15 15zm0 0" data-original="#000000" class="active-path" data-old_color="#048087" fill="#048087"/><path d="m416.191406 320h-53.386718c-8.28125 0-15 6.714844-15 15s6.71875 15 15 15h53.386718c8.285156 0 15-6.714844 15-15s-6.714844-15-15-15zm0 0" data-original="#000000" class="active-path" data-old_color="#048087" fill="#048087"/><path d="m149.191406 380h-53.382812c-8.285156 0-15 6.714844-15 15s6.714844 15 15 15h53.386718c8.28125 0 15-6.714844 15-15s-6.71875-15-15.003906-15zm0 0" data-original="#000000" class="active-path" data-old_color="#048087" fill="#048087"/><path d="m416.191406 380h-187.382812c-8.285156 0-15 6.714844-15 15s6.714844 15 15 15h187.386718c8.28125 0 15-6.714844 15-15s-6.71875-15-15.003906-15zm0 0" data-original="#000000" class="active-path" data-old_color="#048087" fill="#048087"/></g> </svg>
