<?xml version="1.0" encoding="utf-8"?>
<!-- Generator: Adobe Illustrator 18.0.0, SVG Export Plug-In . SVG Version: 6.00 Build 0)  -->
<!DOCTYPE svg PUBLIC "-//W3C//DTD SVG 1.1//EN" "http://www.w3.org/Graphics/SVG/1.1/DTD/svg11.dtd">
<svg version="1.1" id="Capa_1" xmlns="http://www.w3.org/2000/svg" xmlns:xlink="http://www.w3.org/1999/xlink" x="0px" y="0px"
	 viewBox="0 0 515.9 728.5" enable-background="new 0 0 515.9 728.5" xml:space="preserve">
<circle fill="#FFFFFF" stroke="#47B03A" stroke-width="15" stroke-miterlimit="10" cx="268.9" cy="315.5" r="174"/>
<g>
	<g>
		<path fill="#048087" d="M329.6,268.7c-0.8-0.8-1.9-1.2-3.2-1.2h-23.9c-1.6-7.8-4.6-14.4-8.9-20.1h32.6c1.3,0,2.4-0.4,3.2-1.2
			c0.8-0.8,1.2-1.9,1.2-3.2v-14.3c0-1.3-0.4-2.4-1.2-3.2c-0.8-0.8-1.9-1.3-3.2-1.3H209.7c-1.3,0-2.4,0.4-3.2,1.2
			c-0.8,0.8-1.2,1.9-1.2,3.2v18.6c0,1.2,0.5,2.3,1.3,3.1c0.9,0.9,2,1.3,3.1,1.3H230c19.7,0,32.2,5.3,37.5,15.8h-57.8
			c-1.3,0-2.4,0.4-3.2,1.2c-0.8,0.8-1.2,1.9-1.2,3.2v14.3c0,1.3,0.4,2.4,1.2,3.2c0.8,0.8,1.9,1.2,3.2,1.2h59.7
			c-2.1,7.7-6.8,13.5-14.3,17.5s-17.4,6-29.7,6h-15.7c-1.2,0-2.3,0.5-3.1,1.3c-0.9,0.9-1.3,2-1.3,3.1v17.9c0,1.2,0.4,2.3,1.2,3.1
			c17.9,19,41.1,45.7,69.6,79.9c0.8,1.1,2,1.7,3.5,1.7h27.3c2,0,3.3-0.8,4.1-2.5c0.9-1.7,0.8-3.3-0.6-4.8
			c-27.2-33.4-48.6-58.3-64.2-75c15.9-1.8,28.7-7,38.6-15.4c9.9-8.4,15.9-19.3,18-32.7h23.5c1.3,0,2.4-0.4,3.2-1.2
			c0.8-0.8,1.3-1.9,1.3-3.2v-14.3C330.9,270.6,330.5,269.6,329.6,268.7z"/>
	</g>
</g>
<g>
	<path fill="#47B03A" d="M131,668.4v-48h10.2v48H131z"/>
	<path fill="#47B03A" d="M183.8,668.4l-22.9-31.2v31.2h-10.2v-48h10.5l22.2,30.1v-30.1h10.2v48L183.8,668.4L183.8,668.4z"/>
	<path fill="#47B03A" d="M200.8,644.5c0-14.8,11.2-24.8,25.6-24.8c10.5,0,16.6,5.6,20,11.7l-8.8,4.3c-2-3.9-6.3-7-11.2-7
		c-8.8,0-15.1,6.7-15.1,15.7s6.3,15.7,15.1,15.7c4.9,0,9.2-3.1,11.2-7l8.8,4.2c-3.4,5.9-9.5,11.8-20,11.8
		C211.9,669.2,200.8,659.2,200.8,644.5z"/>
	<path fill="#47B03A" d="M250.2,644.5c0-14.4,10.6-24.8,25.1-24.8c14.4,0,25,10.4,25,24.8s-10.6,24.8-25,24.8
		C260.8,669.2,250.2,659,250.2,644.5z M289.8,644.5c0-9-5.6-15.7-14.5-15.7s-14.6,6.8-14.6,15.7c0,8.9,5.6,15.7,14.6,15.7
		C284.2,660.2,289.8,653.4,289.8,644.5z"/>
	<path fill="#47B03A" d="M349.2,668.4v-34.6l-13.5,34.6h-4.4l-13.5-34.6v34.6h-10.2v-48h14.3l11.7,30l11.7-30h14.4v48H349.2z"/>
	<path fill="#47B03A" d="M369,668.4v-48h34v9h-23.8v10.1h23.3v9h-23.3v10.9H403v9h-34V668.4z"/>
</g>
</svg>
