<?xml version="1.0" encoding="utf-8"?>
<!-- Generator: Adobe Illustrator 16.0.0, SVG Export Plug-In . SVG Version: 6.00 Build 0)  -->
<!DOCTYPE svg PUBLIC "-//W3C//DTD SVG 1.1//EN" "http://www.w3.org/Graphics/SVG/1.1/DTD/svg11.dtd">
<svg version="1.1" id="Layer_1" xmlns="http://www.w3.org/2000/svg" xmlns:xlink="http://www.w3.org/1999/xlink" x="0px" y="0px"
	 width="172.8px" height="115.2px" viewBox="0 0 172.8 115.2" enable-background="new 0 0 172.8 115.2" xml:space="preserve">
<path fill="#4AB957" d="M81.282,60.381c-4.487,0-8.138,3.648-8.138,8.137c0,2.225,0.925,4.377,2.54,5.908v7.347
	c0,3.087,2.511,5.599,5.598,5.599c3.087,0,5.599-2.512,5.599-5.599v-7.347c1.615-1.53,2.541-3.684,2.541-5.908
	C89.419,64.03,85.769,60.381,81.282,60.381 M84.161,71.573c-0.776,0.731-1.223,1.754-1.223,2.809v7.393
	c0,0.913-0.743,1.656-1.656,1.656c-0.914,0-1.657-0.743-1.657-1.656v-7.393c0-1.053-0.445-2.076-1.222-2.809
	c-0.851-0.802-1.317-1.887-1.317-3.056c0-2.313,1.883-4.196,4.195-4.196c2.314,0,4.197,1.883,4.197,4.196
	C85.478,69.687,85.009,70.771,84.161,71.573"/>
<path fill="#4AB957" d="M105.143,49.683H99.23V34.019c0-9.898-8.051-17.949-17.949-17.949c-9.897,0-17.949,8.051-17.949,17.949
	v15.664h-5.911c-3.26,0-5.912,2.652-5.912,5.911v36.563c0,3.262,2.652,5.912,5.912,5.912h47.721c3.258,0,5.91-2.65,5.91-5.912
	V55.594C111.053,52.335,108.4,49.683,105.143,49.683 M67.274,34.019c0-7.724,6.284-14.007,14.008-14.007
	c7.723,0,14.006,6.284,14.006,14.007v15.664H67.274V34.019z M107.111,92.157c0,1.088-0.883,1.973-1.969,1.973H57.421
	c-1.087,0-1.971-0.885-1.971-1.973V55.594c0-1.086,0.884-1.971,1.971-1.971h47.721c1.086,0,1.969,0.885,1.969,1.971V92.157z"/>
<path fill="#4AB957" d="M108.285,68.445c-1.963,0.955-4.879,2.101-8.451,2.683v4.342c0,2.938,0.937,5.729,2.705,8.07
	c1.487,1.971,3.469,3.479,5.746,4.379c2.276-0.898,4.258-2.408,5.745-4.379c1.771-2.344,2.705-5.133,2.705-8.07v-4.342
	C113.164,70.545,110.248,69.4,108.285,68.445z"/>
<g>
	<g>
		<g>
			<path fill="#FFFFFF" stroke="#5C7D9E" stroke-width="0.5" stroke-miterlimit="10" d="M119.378,67.803
				c-3.221,0-5.938-0.818-7.65-1.504c-1.869-0.748-2.984-1.508-2.995-1.516l-0.446-0.31l-0.449,0.312
				c-0.043,0.028-4.443,3.018-10.646,3.018h-0.789v8.084c0,1.764,0.286,3.502,0.854,5.166c0.551,1.625,1.354,3.145,2.392,4.515
				c1.036,1.372,2.276,2.562,3.688,3.536c1.444,1,3.039,1.752,4.734,2.234l0.217,0.062l0.215-0.062
				c1.697-0.482,3.291-1.234,4.736-2.234c1.411-0.975,2.651-2.164,3.688-3.536c1.035-1.37,1.841-2.89,2.393-4.515
				c0.564-1.664,0.854-3.402,0.854-5.166v-8.084H119.378z M117.013,75.887c0,2.83-0.901,5.521-2.605,7.779
				c-1.503,1.987-3.525,3.487-5.852,4.34l-0.271,0.098l-0.271-0.098c-2.326-0.853-4.349-2.353-5.851-4.34
				c-1.705-2.26-2.606-4.949-2.606-7.779v-5.043l0,0l0.683-0.092c3.348-0.453,6.028-1.551,7.688-2.394l0.356-0.183l0.356,0.183
				c1.659,0.843,4.341,1.938,7.688,2.394l0.683,0.092L117.013,75.887L117.013,75.887z"/>
		</g>
	</g>
</g>
<path fill="#FFFFFF" d="M111.298,73.975l-4.379,4.377l-1.869-1.868c-0.354-0.354-0.928-0.354-1.282,0s-0.354,0.929,0,1.284
	l2.51,2.51c0.179,0.178,0.409,0.266,0.642,0.266c0.233,0,0.465-0.088,0.643-0.266l5.02-5.021c0.355-0.354,0.355-0.928,0-1.281
	C112.227,73.62,111.652,73.62,111.298,73.975z"/>
</svg>
