<?xml version="1.0" encoding="utf-8"?>
<!-- Generator: Adobe Illustrator 16.0.0, SVG Export Plug-In . SVG Version: 6.00 Build 0)  -->
<!DOCTYPE svg PUBLIC "-//W3C//DTD SVG 1.1//EN" "http://www.w3.org/Graphics/SVG/1.1/DTD/svg11.dtd">
<svg version="1.1" id="Layer_1" xmlns="http://www.w3.org/2000/svg" xmlns:xlink="http://www.w3.org/1999/xlink" x="0px" y="0px"
	 width="172.8px" height="115.2px" viewBox="0 0 172.8 115.2" enable-background="new 0 0 172.8 115.2" xml:space="preserve">
<g display="none">
	<path display="inline" fill="#00B5EF" d="M81.282,60.381c-4.487,0-8.138,3.648-8.138,8.137c0,2.225,0.925,4.377,2.54,5.908v7.347
		c0,3.087,2.511,5.599,5.598,5.599c3.087,0,5.599-2.512,5.599-5.599v-7.347c1.615-1.53,2.541-3.684,2.541-5.908
		C89.419,64.03,85.769,60.381,81.282,60.381 M84.161,71.573c-0.776,0.731-1.223,1.754-1.223,2.809v7.393
		c0,0.913-0.743,1.656-1.656,1.656c-0.914,0-1.657-0.743-1.657-1.656v-7.393c0-1.053-0.445-2.076-1.222-2.809
		c-0.851-0.802-1.317-1.887-1.317-3.056c0-2.313,1.883-4.196,4.195-4.196c2.314,0,4.197,1.883,4.197,4.196
		C85.478,69.687,85.009,70.771,84.161,71.573"/>
	<path display="inline" fill="#2A2076" d="M105.143,49.683H99.23V34.019c0-9.898-8.051-17.949-17.949-17.949
		c-9.897,0-17.949,8.051-17.949,17.949v15.664h-5.911c-3.26,0-5.912,2.652-5.912,5.911v36.563c0,3.262,2.652,5.912,5.912,5.912
		h47.721c3.258,0,5.91-2.65,5.91-5.912V55.594C111.053,52.335,108.4,49.683,105.143,49.683 M67.274,34.019
		c0-7.724,6.284-14.007,14.008-14.007c7.723,0,14.006,6.284,14.006,14.007v15.664H67.274V34.019z M107.111,92.157
		c0,1.088-0.883,1.973-1.969,1.973H57.421c-1.087,0-1.971-0.885-1.971-1.973V55.594c0-1.086,0.884-1.971,1.971-1.971h47.721
		c1.086,0,1.969,0.885,1.969,1.971V92.157z"/>
	<path display="inline" fill="#00B5EF" d="M108.285,68.445c-1.963,0.955-4.879,2.101-8.451,2.683v4.342
		c0,2.938,0.937,5.729,2.705,8.07c1.487,1.971,3.469,3.479,5.746,4.379c2.276-0.898,4.258-2.408,5.745-4.379
		c1.771-2.344,2.705-5.133,2.705-8.07v-4.342C113.164,70.545,110.248,69.4,108.285,68.445z"/>
	<g display="inline">
		<g>
			<g>
				<path fill="#FFFFFF" stroke="#5C7D9E" stroke-width="0.5" stroke-miterlimit="10" d="M119.378,67.803
					c-3.221,0-5.938-0.818-7.65-1.504c-1.869-0.748-2.984-1.508-2.995-1.516l-0.446-0.31l-0.449,0.312
					c-0.043,0.028-4.443,3.018-10.646,3.018h-0.789v8.084c0,1.764,0.286,3.502,0.854,5.166c0.551,1.625,1.354,3.145,2.392,4.515
					c1.036,1.372,2.276,2.562,3.688,3.536c1.444,1,3.039,1.752,4.734,2.234l0.217,0.062l0.215-0.062
					c1.697-0.482,3.291-1.234,4.736-2.234c1.411-0.975,2.651-2.164,3.688-3.536c1.035-1.37,1.841-2.89,2.393-4.515
					c0.564-1.664,0.854-3.402,0.854-5.166v-8.084H119.378z M117.013,75.887c0,2.83-0.901,5.521-2.605,7.779
					c-1.503,1.987-3.525,3.487-5.852,4.34l-0.271,0.098l-0.271-0.098c-2.326-0.853-4.349-2.353-5.851-4.34
					c-1.705-2.26-2.606-4.949-2.606-7.779v-5.043l0,0l0.683-0.092c3.348-0.453,6.028-1.551,7.688-2.394l0.356-0.183l0.356,0.183
					c1.659,0.843,4.341,1.938,7.688,2.394l0.683,0.092L117.013,75.887L117.013,75.887z"/>
			</g>
		</g>
	</g>
	<path display="inline" fill="#FFFFFF" d="M111.298,73.975l-4.379,4.377l-1.869-1.868c-0.354-0.354-0.928-0.354-1.282,0
		s-0.354,0.929,0,1.284l2.51,2.51c0.179,0.178,0.409,0.266,0.642,0.266c0.233,0,0.465-0.088,0.643-0.266l5.02-5.021
		c0.355-0.354,0.355-0.928,0-1.281C112.227,73.62,111.652,73.62,111.298,73.975z"/>
</g>
<g>
	<path fill="#4AB957" d="M44.541,88.747l-4.742-0.353l-1.808-4.392c-0.326-0.828-1.506-0.828-1.857,0l-1.807,4.416l-4.745,0.353
		c-0.903,0.076-1.254,1.181-0.577,1.756l3.641,3.063l-1.13,4.617c-0.225,0.879,0.728,1.558,1.506,1.08l4.041-2.512l4.042,2.512
		c0.752,0.478,1.706-0.227,1.504-1.08l-1.128-4.617l3.638-3.063C45.797,89.926,45.446,88.823,44.541,88.747L44.541,88.747z"/>
	<path fill="#4AB957" d="M65.976,88.747l-4.743-0.353l-1.808-4.416c-0.326-0.828-1.506-0.828-1.857,0l-1.807,4.416l-4.744,0.353
		c-0.903,0.076-1.255,1.18-0.577,1.758l3.64,3.063l-1.129,4.617c-0.227,0.879,0.728,1.557,1.506,1.078l4.039-2.51l4.041,2.51
		c0.754,0.479,1.707-0.225,1.506-1.078l-1.128-4.617l3.638-3.063C67.229,89.926,66.854,88.823,65.976,88.747L65.976,88.747z"/>
	<path fill="#4AB957" d="M91.405,85.648l-7.294-0.541l-2.778-6.789c-0.501-1.272-2.313-1.272-2.854,0L75.7,85.107l-7.291,0.541
		c-1.392,0.117-1.93,1.813-0.888,2.701l5.595,4.707l-1.736,7.101c-0.348,1.35,1.117,2.393,2.313,1.657l6.215-3.856l6.212,3.856
		c1.156,0.733,2.624-0.347,2.314-1.657l-1.738-7.101l5.597-4.707C93.333,87.463,92.753,85.766,91.405,85.648L91.405,85.648z"/>
	<path fill="#4AB957" d="M108.792,88.747l-4.744-0.353l-1.807-4.416c-0.326-0.828-1.506-0.828-1.857,0l-1.807,4.416l-4.742,0.353
		c-0.903,0.076-1.256,1.18-0.578,1.758l3.64,3.063l-1.13,4.617c-0.227,0.879,0.729,1.557,1.506,1.078l4.041-2.51l4.04,2.51
		c0.754,0.479,1.707-0.225,1.506-1.078l-1.128-4.617l3.639-3.063C110.046,89.926,109.695,88.823,108.792,88.747L108.792,88.747z"/>
	<path fill="#4AB957" d="M130.203,88.747l-4.744-0.353l-1.809-4.416c-0.326-0.828-1.507-0.828-1.857,0l-1.807,4.416l-4.744,0.353
		c-0.904,0.076-1.256,1.18-0.578,1.758l3.642,3.063l-1.132,4.617c-0.226,0.879,0.729,1.557,1.508,1.078l4.042-2.51l4.04,2.51
		c0.753,0.479,1.705-0.225,1.507-1.078l-1.131-4.617l3.64-3.063C131.457,89.926,131.104,88.823,130.203,88.747L130.203,88.747z"/>
	<path fill="#4AB957" d="M49.938,47.912c-1.834-1.631-1.834-4.492,0.025-6.123l1.203-1.055c1.306-1.154,1.758-3.036,1.08-4.643
		l-0.627-1.48c-0.955-2.259,0.301-4.845,2.66-5.497l1.555-0.426c1.682-0.479,2.888-1.958,2.986-3.714l0.077-1.607
		c0.124-2.459,2.384-4.242,4.794-3.815l1.58,0.276c1.732,0.301,3.464-0.527,4.291-2.058l0.779-1.406
		c1.178-2.158,3.99-2.786,5.973-1.356l1.306,0.93c1.431,1.028,3.338,1.028,4.768,0.024l1.306-0.929
		c2.009-1.43,4.794-0.777,5.974,1.381l0.754,1.405c0.828,1.531,2.56,2.384,4.291,2.084l1.58-0.277
		c2.41-0.426,4.668,1.381,4.771,3.841l0.075,1.605c0.074,1.757,1.279,3.264,2.961,3.74l1.557,0.452
		c2.358,0.678,3.59,3.262,2.637,5.521l-0.627,1.482c-0.679,1.605-0.252,3.488,1.053,4.642l1.205,1.054
		c1.832,1.632,1.832,4.493-0.025,6.125l-1.205,1.054c-1.305,1.154-1.756,3.036-1.078,4.643l0.629,1.481
		c0.952,2.258-0.303,4.842-2.662,5.494l-1.557,0.429c-1.682,0.478-2.886,1.959-2.984,3.713l-0.078,1.606
		c-0.125,2.461-2.383,4.242-4.791,3.816l-1.584-0.275c-1.729-0.303-3.463,0.525-4.291,2.058l-0.778,1.406
		c-1.179,2.155-3.99,2.784-5.972,1.354l-1.306-0.929c-1.43-1.028-3.338-1.028-4.769-0.024l-1.305,0.928
		c-2.008,1.432-4.794,0.779-5.973-1.379l-0.754-1.406c-0.828-1.531-2.56-2.385-4.292-2.084l-1.581,0.277
		c-2.408,0.428-4.667-1.381-4.768-3.84l-0.075-1.607c-0.076-1.756-1.28-3.262-2.962-3.738l-1.557-0.451
		c-2.359-0.68-3.59-3.264-2.635-5.522l0.627-1.481c0.678-1.606,0.252-3.489-1.053-4.643L49.938,47.912z"/>
	<path fill="#FFFFFF" d="M59.877,44.926c0,11.068,8.96,20.028,20.028,20.028c11.067,0,20.027-8.958,20.027-20.028
		c0-11.069-8.96-20.028-20.027-20.028C68.837,24.898,59.877,33.857,59.877,44.926L59.877,44.926z"/>
	<path fill="#4AB957" d="M69.589,55.843h3.238c0.452,0,0.854-0.124,1.204-0.376c0.076-0.075,0.503-0.502,0.503-1.707v-5.371
		c0,0-0.025,6.652,3.738,7.053c1.331,0.101,2.962,0.177,4.619,0.126c1.507,0.125,3.087,0.125,4.366-0.15
		c4.291-0.905,3.213-3.915,3.213-3.915c2.309-1.732,1.004-3.916,1.004-3.916c2.059-2.158,0.051-3.939,0.051-3.939
		s1.104-1.732-0.326-3.038c-1.781-1.632-6.652-0.552-6.652-0.552c-0.326,0.05-0.702,0.125-1.078,0.226c0,0-1.682,0.778,0-4.316
		c1.682-5.12-1.13-5.898-2.309-5.898c-1.181,0-0.778,2.535-0.778,2.535s-2.535,6.952-4.945,8.81
		c-0.652,0.678-0.979,1.43-1.178,1.983c-0.378-0.326-0.879-0.527-1.406-0.527h-3.238c-1.204,0-2.157,0.978-2.157,2.158v8.633
		C67.431,54.89,68.385,55.843,69.589,55.843L69.589,55.843z"/>
	<path d="M69.589,55.843"/>
</g>
</svg>
