<?xml version="1.0" encoding="utf-8"?>
<!-- Generator: Adobe Illustrator 18.0.0, SVG Export Plug-In . SVG Version: 6.00 Build 0)  -->
<!DOCTYPE svg PUBLIC "-//W3C//DTD SVG 1.1//EN" "http://www.w3.org/Graphics/SVG/1.1/DTD/svg11.dtd">
<svg version="1.1" id="Capa_1" xmlns="http://www.w3.org/2000/svg" xmlns:xlink="http://www.w3.org/1999/xlink" x="0px" y="0px"
	 viewBox="0 0 792 864" enable-background="new 0 0 792 864" xml:space="preserve">
<g>
	<polyline fill="#1ABC9C" stroke="#000000" stroke-miterlimit="10" points="341,189 759,46 756,78 717,127 667,204 580,333 463,278 
		330,191 	"/>
	<g>
		<g>
			<path fill="#374860" d="M773.8,36h-669c-3.6,0-7,1.4-9.3,4.1c-5,5.9-2.8,14.4,3.4,17.7l156,84c0,0,0,0,0,0l36.3,242.2
				c1.3,8.4,11.3,12.7,18.2,7.8l152.4-108.3c0,0,0,0,0.1,0l108,59.4c5.2,2.8,11.8,1.3,15.1-3.5l113.6-163.2
				c3.7-5.3,2.4-12.5-2.9-16.2c-5.3-3.7-12.5-2.4-16.2,2.9L571.9,317.5c0,0,0,0-0.1,0L356.5,199.1c0,0,0-0.1,0-0.1L744.2,69.8
				c0.1,0,0.1,0,0.1,0.1l-32.1,46.2c-3.7,5.3-2.8,12.7,2.4,16.5c5.3,3.9,12.7,2.6,16.4-2.7l52.5-75.5c0.3-0.5,0.6-1,0.9-1.5
				C788.1,45.1,782.2,36,773.8,36z M439.1,271.1C439.2,271.1,439.2,271.2,439.1,271.1l-121.3,86.3c0,0-0.1,0-0.1-0.1l19-142.5
				c0,0,0-0.1,0.1,0L439.1,271.1z M625.3,84.9L323.8,185.4c-4.2,1.4-7.3,5.1-7.8,9.5L302,299.1c0,0.1-0.1,0.1-0.1,0L278.7,144
				c0,0,0-0.1,0-0.1l346.5-59.2C625.3,84.8,625.3,84.9,625.3,84.9z M636,59.4l-368.6,62.9c0,0,0,0,0,0L150.6,59.4
				c-0.1,0,0-0.1,0-0.1H636C636.1,59.2,636.1,59.4,636,59.4z"/>
		</g>
	</g>
	<g>
		<g>
			<path fill="#374860" d="M215.2,501.2c-3.3,0-6.6,0.2-9.9,0.4c-6.4,0.4-11.3,5.9-10.9,12.4c0.4,6.2,5.5,10.9,11.6,10.9
				c0.3,0,0.5,0,0.8,0c2.9-0.2,5.8-0.3,8.7-0.3c6.4-0.1,11.5-5.4,11.4-11.8C226.9,506.3,221.6,501.1,215.2,501.2z"/>
		</g>
	</g>
	<g>
		<g>
			<path fill="#374860" d="M272.3,509.4c-6-2-12.4-3.6-18.8-4.9c-6.3-1.2-12.4,2.9-13.6,9.2c-1.2,6.3,2.9,12.4,9.2,13.6
				c5.5,1.1,11,2.5,16.1,4.2c6,2,12.7-1.4,14.6-7.5C281.8,518,278.4,511.4,272.3,509.4z"/>
		</g>
	</g>
	<g>
		<g>
			<path fill="#374860" d="M151.3,617c-0.9-5.3-1.4-10.8-1.6-16.2c-0.1-6.4-5.5-11.5-11.9-11.4c-6.4,0.1-11.5,5.5-11.4,11.9
				c0.2,6.6,0.8,13.2,1.9,19.6c1.1,6.2,7.2,10.6,13.4,9.5C148.1,629.4,152.4,623.3,151.3,617z"/>
		</g>
	</g>
	<g>
		<g>
			<path fill="#374860" d="M208,688.8c-4.9-1.7-9.7-4-14.2-6.7c-5.5-3.3-12.6-1.5-15.9,4c-3.3,5.5-1.5,12.6,4,15.9
				c5.8,3.5,12,6.4,18.4,8.7c6.3,2.2,13.3-1.5,15.1-7.9C216.9,697,213.7,690.8,208,688.8z"/>
		</g>
	</g>
	<g>
		<g>
			<path fill="#374860" d="M223.1,456.3c-4-5-11.3-5.9-16.3-1.9c-4.9,3.9-9.8,8.1-14.4,12.4c-4.7,4.4-5,11.7-0.6,16.4
				c4.3,4.6,11.8,4.9,16.4,0.6c4.2-3.9,8.5-7.6,13-11.2C226.3,468.7,227.1,461.3,223.1,456.3z"/>
		</g>
	</g>
	<g>
		<g>
			<path fill="#374860" d="M170.3,661.1c-3.2-4.2-6.1-8.7-8.7-13.5c-3-5.7-10-7.8-15.7-4.8c-5.7,3-7.8,10-4.8,15.7
				c3.1,5.9,6.8,11.6,10.8,16.8c4.2,5.4,12.4,6,17.3,1.2C173.4,672.5,173.9,665.7,170.3,661.1z"/>
		</g>
	</g>
	<g>
		<g>
			<path fill="#374860" d="M152.8,537.6c-5.9-2.5-12.7,0.2-15.3,6.1c-2.8,6.5-5,12.9-6.6,18.5c-1.7,6.2,2,12.6,8.2,14.3
				c1,0.3,2,0.4,3,0.4c5.1,0,9.8-3.4,11.2-8.6c0.9-3.2,2.5-8.5,5.5-15.5C161.5,546.9,158.8,540.1,152.8,537.6z"/>
		</g>
	</g>
	<g>
		<g>
			<path fill="#374860" d="M183.1,492.7c-5.1-3.9-12.4-3-16.3,2c-3.9,5-7.6,10.2-11.1,15.4c-3.5,5.4-2,12.6,3.3,16.1
				c5.3,3.5,12.6,2,16.1-3.3c3.1-4.7,6.5-9.4,10-13.9C189.1,504,188.2,496.7,183.1,492.7z"/>
		</g>
	</g>
	<g>
		<g>
			<path fill="#374860" d="M323.2,539.9c-4.6-4.7-9.7-9.2-15.4-13.1c-5.3-3.7-12.5-2.4-16.2,2.8c-3.7,5.3-2.4,12.5,2.8,16.2
				c4.4,3.1,8.5,6.6,12,10.2c4.4,4.6,11.9,4.7,16.4,0.3C327.5,551.9,327.6,544.5,323.2,539.9z"/>
		</g>
	</g>
	<g>
		<g>
			<path fill="#374860" d="M268.8,700.1c-1.3-6.3-7.5-10.3-13.8-8.9c-4.8,1-9.9,1.7-15.1,2l-0.9,0.1c-6.4,0.3-11.4,5.8-11,12.2
				c0.3,6.2,5.4,11,11.6,11c0.2,0,0.4,0,0.6,0l1.2-0.1c6.3-0.4,12.6-1.2,18.5-2.5C266.2,712.6,270.2,706.4,268.8,700.1z"/>
		</g>
	</g>
	<g>
		<g>
			<path fill="#374860" d="M348.1,595.4c-0.6-7-1.8-13.9-3.8-20.2c-1.9-6.1-8.4-9.6-14.6-7.6c-6.1,1.9-9.5,8.4-7.6,14.6
				c1.5,4.7,2.4,9.8,2.8,15.1c0.5,6.3,6.2,11.2,12.5,10.7C343.8,607.4,348.6,601.8,348.1,595.4z"/>
		</g>
	</g>
	<g>
		<g>
			<path fill="#374860" d="M335.9,620.9c-6.2-1.8-12.6,1.7-14.4,7.9c-1.5,5.1-3.5,10.2-5.8,15c-2.8,5.8-0.5,12.7,5.3,15.6
				c5.7,2.8,12.8,0.4,15.6-5.3c2.9-6,5.4-12.2,7.3-18.6C345.6,629.2,342,622.7,335.9,620.9z"/>
		</g>
	</g>
	<g>
		<g>
			<path fill="#374860" d="M270.5,430.2c-2.7-5.8-9.7-8.3-15.5-5.6c-5.7,2.7-11.4,5.6-16.8,8.7c-4.3,2.5-6.7,7.6-5.7,12.5
				c1.1,5.3,5.9,9.3,11.4,9.3c1.9,0,3.9-0.5,5.7-1.5c4.9-2.8,10.1-5.4,15.2-7.9C270.7,442.9,273.2,436,270.5,430.2z"/>
		</g>
	</g>
	<g>
		<g>
			<path fill="#374860" d="M313.3,669.8c-4.4-4.7-11.8-4.8-16.4-0.4c-3.8,3.6-8,6.9-12.5,9.8c-5.4,3.5-6.9,10.7-3.5,16.1
				c3.4,5.3,10.7,6.9,16.1,3.5c5.6-3.6,11-7.8,15.9-12.5C317.5,681.8,317.7,674.4,313.3,669.8z"/>
		</g>
	</g>
	<g>
		<g>
			<path fill="#374860" d="M313.9,416.6c-1.7-6.2-8-9.9-14.2-8.2c-3.1,0.8-6.3,1.7-9.3,2.7c-5.8,1.8-9.3,8-7.9,13.9
				c1.6,6.4,8.4,10.3,14.7,8.4c2.8-0.9,5.7-1.7,8.6-2.4C311.9,429.2,315.6,422.8,313.9,416.6z"/>
		</g>
	</g>
	<g>
		<g>
			<path fill="#374860" d="M19.3,695c-6.4-0.4-11.9,4.5-12.3,10.9c-0.3,4.6-0.4,9.2-0.4,13.7c0,4.2-0.2,8.2,2.6,11.7
				c2.2,2.8,5.7,4.4,9.3,4.3c3.6-0.1,6.9-1.8,9.1-4.7c2.6-3.4,2.3-7.3,2.3-11.4c0-4.1,0.1-8.2,0.4-12.3
				C30.6,700.9,25.7,695.4,19.3,695z"/>
		</g>
	</g>
	<g>
		<g>
			<path fill="#374860" d="M31.9,644.3c-6.1-2-12.7,1.4-14.6,7.5c-1.9,5.8-3.5,11.8-4.9,17.7c-1.5,6.2,2.4,12.5,8.7,14
				c6.2,1.5,12.5-2.5,14-8.7c1.2-5.3,2.7-10.6,4.4-15.9C41.4,652.9,38.1,646.3,31.9,644.3z"/>
		</g>
	</g>
	<g>
		<g>
			<path fill="#374860" d="M91.2,559.4c-4.4-4.6-11.8-4.8-16.4-0.4c-1.2,1.1-2.4,2.3-3.5,3.5c-3.1,3.1-6.2,6.5-9.2,9.9
				c-4.2,4.8-3.7,12.2,1.1,16.4c4.8,4.2,12.2,3.7,16.4-1.1c2.6-3,5.4-6,8.2-8.7c1-1,2.1-2.1,3.2-3.1
				C95.5,571.4,95.7,564.1,91.2,559.4z"/>
		</g>
	</g>
	<g>
		<g>
			<path fill="#374860" d="M56.3,598.2c-5.5-3.4-12.6-1.7-16,3.8c-3.2,5.2-6.2,10.6-9,16c-2.9,5.7-0.6,12.7,5.1,15.6
				c5.6,2.9,12.8,0.6,15.6-5.1c2.5-4.9,5.2-9.7,8.1-14.4C63.5,608.7,61.7,601.5,56.3,598.2z"/>
		</g>
	</g>
	<g>
		<g>
			<path fill="#374860" d="M127.9,534.8c-3.3-5.5-10.4-7.3-15.9-4c-2.8,1.7-5.6,3.4-8.3,5.2c-5.3,3.6-6.8,10.8-3.3,16.1
				c3.5,5.3,10.8,6.8,16.1,3.3c2.4-1.6,4.9-3.2,7.4-4.7C129.3,547.5,131.1,540.3,127.9,534.8z"/>
		</g>
	</g>
</g>
</svg>
