<?xml version="1.0" encoding="utf-8"?>
<!-- Generator: Adobe Illustrator 18.0.0, SVG Export Plug-In . SVG Version: 6.00 Build 0)  -->
<!DOCTYPE svg PUBLIC "-//W3C//DTD SVG 1.1//EN" "http://www.w3.org/Graphics/SVG/1.1/DTD/svg11.dtd">
<svg version="1.1" id="Layer_1" xmlns:sketch="http://www.bohemiancoding.com/sketch/ns"
	 xmlns="http://www.w3.org/2000/svg" xmlns:xlink="http://www.w3.org/1999/xlink" x="0px" y="0px" viewBox="3 3 40 40"
	 enable-background="new 3 3 40 40" xml:space="preserve">
<filter  width="200%" height="200%" filterUnits="objectBoundingBox" id="filter-1" x="-50%" y="-50%">
	<feOffset  dy="1" dx="0" result="shadowOffsetOuter1" in="SourceAlpha"></feOffset>
	<feGaussianBlur  stdDeviation="0.5" result="shadowBlurOuter1" in="shadowOffsetOuter1"></feGaussianBlur>
	
		<feColorMatrix  type="matrix" values="0 0 0 0 0   0 0 0 0 0   0 0 0 0 0  0 0 0 0.168 0" result="shadowMatrixOuter1" in="shadowBlurOuter1">
		</feColorMatrix>
	<feOffset  dy="0" dx="0" result="shadowOffsetOuter2" in="SourceAlpha"></feOffset>
	<feGaussianBlur  stdDeviation="0.5" result="shadowBlurOuter2" in="shadowOffsetOuter2"></feGaussianBlur>
	
		<feColorMatrix  type="matrix" values="0 0 0 0 0   0 0 0 0 0   0 0 0 0 0  0 0 0 0.084 0" result="shadowMatrixOuter2" in="shadowBlurOuter2">
		</feColorMatrix>
	<feMerge>
		<feMergeNode  in="shadowMatrixOuter1"></feMergeNode>
		<feMergeNode  in="shadowMatrixOuter2"></feMergeNode>
		<feMergeNode  in="SourceGraphic"></feMergeNode>
	</feMerge>
</filter>
<title>btn_google_dark_normal_ios</title>
<desc>Created with Sketch.</desc>
<g id="_x39_-PATCH" transform="translate(-608.000000, -219.000000)" sketch:type="MSArtboardGroup">
</g>
<g id="btn_google_dark_normal" transform="translate(-1.000000, -1.000000)" sketch:type="MSArtboardGroup">
	<g id="button" transform="translate(4.000000, 4.000000)" sketch:type="MSLayerGroup" filter="url(#filter-1)">
		<g id="button-bg_1_">
			<g sketch:type="MSShapeGroup">
				<path id="path-2_4_" fill="#4285F4" d="M2,0h36c1.1,0,2,0.9,2,2v36c0,1.1-0.9,2-2,2H2c-1.1,0-2-0.9-2-2V2C0,0.9,0.9,0,2,0z"/>
			</g>
		</g>
	</g>
	<g id="button-bg-copy">
		<g sketch:type="MSShapeGroup">
			<path id="path-3" fill="#FFFFFF" d="M6,5h36c0.6,0,1,0.4,1,1v36c0,0.6-0.4,1-1,1H6c-0.6,0-1-0.4-1-1V6C5,5.4,5.4,5,6,5z"/>
		</g>
		<g>
			<path id="path-3_1_" fill="none" d="M6,5h36c0.6,0,1,0.4,1,1v36c0,0.6-0.4,1-1,1H6c-0.6,0-1-0.4-1-1V6C5,5.4,5.4,5,6,5z"/>
		</g>
		<g>
			<path id="path-3_2_" fill="none" d="M6,5h36c0.6,0,1,0.4,1,1v36c0,0.6-0.4,1-1,1H6c-0.6,0-1-0.4-1-1V6C5,5.4,5.4,5,6,5z"/>
		</g>
		<g>
			<path id="path-3_3_" fill="none" d="M6,5h36c0.6,0,1,0.4,1,1v36c0,0.6-0.4,1-1,1H6c-0.6,0-1-0.4-1-1V6C5,5.4,5.4,5,6,5z"/>
		</g>
	</g>
	<g id="logo_googleg_48dp" transform="translate(15.000000, 15.000000)" sketch:type="MSLayerGroup">
		<path id="Shape" sketch:type="MSShapeGroup" fill="#4285F4" d="M17.6,9.2c0-0.6-0.1-1.3-0.2-1.8H9v3.5h4.8
			C13.6,12,13,12.9,12,13.6v2.3H15C16.7,14.3,17.6,11.9,17.6,9.2L17.6,9.2z"/>
		<path id="Shape_1_" sketch:type="MSShapeGroup" fill="#34A853" d="M9,18c2.4,0,4.5-0.8,6-2.2L12,13.6c-0.8,0.5-1.8,0.9-3,0.9
			c-2.3,0-4.3-1.6-5-3.7H1V13C2.4,16,5.5,18,9,18L9,18z"/>
		<path id="Shape_2_" sketch:type="MSShapeGroup" fill="#FBBC05" d="M4,10.7C3.8,10.2,3.7,9.6,3.7,9S3.8,7.8,4,7.3V5H1
			C0.3,6.2,0,7.5,0,9s0.3,2.8,1,4L4,10.7L4,10.7z"/>
		<path id="Shape_3_" sketch:type="MSShapeGroup" fill="#EA4335" d="M9,3.6c1.3,0,2.5,0.5,3.4,1.3L15,2.3C13.5,0.9,11.4,0,9,0
			C5.5,0,2.4,2,1,5l3,2.3C4.7,5.2,6.7,3.6,9,3.6L9,3.6z"/>
		<path id="Shape_4_" sketch:type="MSShapeGroup" fill="none" d="M0,0h18v18H0V0z"/>
	</g>
	<g id="handles_square" sketch:type="MSLayerGroup">
	</g>
</g>
</svg>
