<?xml version="1.0" encoding="utf-8"?>
<!-- Generator: Adobe Illustrator 16.0.0, SVG Export Plug-In . SVG Version: 6.00 Build 0)  -->
<!DOCTYPE svg PUBLIC "-//W3C//DTD SVG 1.1//EN" "http://www.w3.org/Graphics/SVG/1.1/DTD/svg11.dtd">
<svg version="1.1" id="Layer_1" xmlns="http://www.w3.org/2000/svg" xmlns:xlink="http://www.w3.org/1999/xlink" x="0px" y="0px"
	 width="462px" height="445px" viewBox="0 0 462 445" enable-background="new 0 0 462 445" xml:space="preserve">
<g>
	<g>
		<defs>
			<rect id="SVGID_1_" x="26.797" y="25.8" width="408.405" height="393.2"/>
		</defs>
		<clipPath id="SVGID_2_">
			<use xlink:href="#SVGID_1_"  overflow="visible"/>
		</clipPath>
		<g clip-path="url(#SVGID_2_)">
			<path fill="#E3CCFF" d="M424.595,167.946c-2.476-6.895-5.304-13.525-8.486-19.978C388.086,90.95,335.931,52.319,271.752,42.154
				c-2.74-0.442-5.569-0.795-8.309-1.149c-52.421-6.365-125.792,1.502-155.671,49.945c-15.559,25.194-9.194,56.841-25.636,81.328
				c-21.394,31.735-48.797,47.559-53.835,97.15c-3.713,36.421-2.033,75.759,23.779,104.844
				c30.321,34.21,82.476,46.056,126.941,39.515c43.228-6.365,81.858-27.671,119.604-47.737
				c35.891-19.006,76.908-32.796,105.902-61.879C441.214,267.396,441.125,213.737,424.595,167.946z"/>
			<path opacity="0.7" fill="#C7F0DC" enable-background="new    " d="M424.595,167.946c-2.476-6.895-5.304-13.525-8.486-19.978
				C388.086,90.95,335.931,52.319,271.752,42.154c-2.74-0.442-5.569-0.795-8.309-1.149c-52.421-6.365-125.792,1.502-155.671,49.945
				c-15.559,25.194-9.194,56.841-25.636,81.328c-21.394,31.735-48.797,47.559-53.835,97.15
				c-3.713,36.421-2.033,75.759,23.779,104.844c30.321,34.21,82.476,46.056,126.941,39.515
				c43.228-6.365,81.858-27.671,119.604-47.737c35.891-19.006,76.908-32.796,105.902-61.879
				C441.214,267.396,441.125,213.737,424.595,167.946z"/>
			<path fill="#FFFFFF" d="M88.921,114.813h-3.155v11.436h3.155c4.724,0,6.192-2.133,6.192-5.905
				C95.113,116.569,93.645,114.813,88.921,114.813z"/>
			<path fill="#FFFFFF" d="M87.271,71.768c-7.938-0.002-15.698,2.351-22.3,6.759c-6.601,4.408-11.747,10.676-14.786,18.01
				c-3.039,7.333-3.834,15.402-2.288,23.189c1.547,7.785,5.369,14.938,10.982,20.551c5.612,5.613,12.763,9.436,20.548,10.986
				c7.786,1.549,15.855,0.755,23.189-2.283c7.333-3.037,13.603-8.181,18.012-14.781c4.41-6.6,6.764-14.36,6.764-22.298
				c0-10.643-4.227-20.849-11.752-28.375C108.12,75.999,97.914,71.77,87.271,71.768L87.271,71.768z M87.271,146.155
				c-6.771,0.001-13.389-2.004-19.019-5.765s-10.019-9.106-12.61-15.36s-3.27-13.137-1.95-19.778
				c1.321-6.639,4.581-12.739,9.368-17.527c4.788-4.788,10.887-8.047,17.527-9.367c6.64-1.32,13.522-0.642,19.777,1.95
				c6.254,2.592,11.6,6.98,15.359,12.61c3.761,5.63,5.768,12.249,5.766,19.019c-0.022,9.064-3.635,17.753-10.048,24.16
				c-6.414,6.407-15.105,10.011-24.17,10.022L87.271,146.155L87.271,146.155z"/>
			<path fill="#FFFFFF" d="M94.208,104.059c0-3.324-1.46-4.956-5.628-4.956h-2.815v10.029h2.815
				C92.694,109.132,94.208,107.384,94.208,104.059z"/>
			<path fill="#FFFFFF" d="M87.271,80.031c-6.304-0.002-12.467,1.866-17.708,5.366c-5.242,3.501-9.329,8.478-11.742,14.302
				c-2.413,5.823-3.045,12.231-1.817,18.414c1.229,6.183,4.263,11.863,8.719,16.321c4.457,4.458,10.136,7.494,16.318,8.725
				c6.183,1.23,12.591,0.6,18.415-1.812c5.824-2.413,10.802-6.498,14.304-11.738c3.501-5.241,5.372-11.403,5.372-17.708
				c-0.01-8.448-3.369-16.547-9.342-22.522C103.818,83.404,95.72,80.042,87.271,80.031L87.271,80.031z M93.652,130.578v7.17h-4.051
				v-6.865h-3.764v6.856h-4.051v-6.865h-9.042v-5.376h1.792c0.39-0.059,0.75-0.245,1.023-0.528c0.274-0.283,0.446-0.648,0.491-1.041
				v-22.765c-0.045-0.391-0.217-0.756-0.491-1.04c-0.274-0.284-0.633-0.47-1.023-0.528h-1.792v-5.377h9.024v-6.901h4.051v6.901
				h3.764v-6.856h4.051v7.17c6.39,0.896,9.76,3.889,9.76,9.105c0,4.607-2.617,6.857-7.43,7.851v0.206
				c5.593,0.842,8.684,3.585,8.684,8.531c0,5.97-4.141,9.394-11.015,10.352H93.652z"/>
			<path fill="none" stroke="#FFFFFF" stroke-linejoin="round" stroke-miterlimit="10" d="M328.55,117.617V63.698l24.861,40.363
				L328.55,117.617z"/>
			<path fill="none" stroke="#FFFFFF" stroke-linejoin="round" stroke-miterlimit="10" d="M328.55,117.617l-24.213-13.884
				l24.213-40.035"/>
			<path fill="none" stroke="#FFFFFF" stroke-linejoin="round" stroke-miterlimit="10" d="M304.337,103.733l23.893-10.649
				l25.182,10.978"/>
			<path fill="none" stroke="#FFFFFF" stroke-linejoin="round" stroke-miterlimit="10" d="M305.05,108.009l23.807,13.723
				l24.308-14.058l-24.47,33.238L305.05,108.009z"/>
			<path fill="none" stroke="#FFFFFF" stroke-linejoin="round" stroke-miterlimit="10" d="M328.855,121.731v19.18"/>
			<path fill="#F7F0FF" stroke="#FFFFFF" stroke-linejoin="round" stroke-miterlimit="10" d="M305.685,103.733
				c0-0.269-0.081-0.531-0.23-0.754c-0.148-0.223-0.359-0.397-0.607-0.498c-0.248-0.103-0.521-0.129-0.783-0.075
				c-0.266,0.053-0.505,0.183-0.694,0.372c-0.189,0.19-0.317,0.432-0.369,0.696c-0.053,0.263-0.023,0.536,0.08,0.783
				c0.104,0.248,0.277,0.459,0.502,0.606c0.224,0.147,0.486,0.226,0.755,0.225c0.178,0,0.354-0.036,0.518-0.103
				c0.165-0.068,0.313-0.168,0.438-0.294c0.124-0.126,0.224-0.276,0.291-0.44C305.651,104.086,305.686,103.909,305.685,103.733z"/>
			<path fill="#F7F0FF" stroke="#FFFFFF" stroke-linejoin="round" stroke-miterlimit="10" d="M329.876,117.1
				c-0.002-0.266-0.082-0.526-0.23-0.747c-0.149-0.22-0.36-0.392-0.606-0.493c-0.246-0.101-0.517-0.126-0.777-0.074
				c-0.261,0.053-0.501,0.182-0.688,0.371c-0.188,0.189-0.315,0.429-0.367,0.69c-0.051,0.261-0.024,0.531,0.078,0.777
				c0.103,0.245,0.276,0.456,0.498,0.604s0.481,0.227,0.747,0.227c0.178,0,0.353-0.035,0.518-0.103
				c0.164-0.068,0.313-0.168,0.438-0.294c0.125-0.125,0.224-0.276,0.291-0.439C329.844,117.453,329.877,117.277,329.876,117.1z"/>
			<path fill="#F7F0FF" stroke="#FFFFFF" stroke-linejoin="round" stroke-miterlimit="10" d="M354.76,104.061
				c0.002-0.269-0.076-0.532-0.226-0.756c-0.148-0.224-0.359-0.398-0.608-0.502c-0.247-0.104-0.521-0.131-0.784-0.079
				c-0.264,0.052-0.506,0.181-0.696,0.371c-0.188,0.19-0.317,0.432-0.37,0.696c-0.052,0.263-0.023,0.537,0.078,0.784
				c0.104,0.248,0.279,0.459,0.503,0.608c0.224,0.147,0.486,0.227,0.755,0.226c0.357,0,0.7-0.142,0.952-0.395
				C354.617,104.761,354.76,104.418,354.76,104.061z"/>
			<path fill="#F7F0FF" stroke="#FFFFFF" stroke-linejoin="round" stroke-miterlimit="10" d="M329.796,64.048
				c0.001-0.269-0.077-0.532-0.226-0.755c-0.147-0.224-0.359-0.399-0.605-0.503c-0.248-0.103-0.521-0.131-0.785-0.08
				c-0.264,0.051-0.504,0.181-0.695,0.369c-0.19,0.189-0.319,0.431-0.373,0.694c-0.052,0.264-0.025,0.536,0.075,0.784
				c0.104,0.249,0.277,0.461,0.5,0.609s0.485,0.229,0.753,0.229c0.358,0,0.703-0.142,0.956-0.395
				C329.649,64.749,329.793,64.405,329.796,64.048z"/>
			<path fill="#F7F0FF" stroke="#FFFFFF" stroke-linejoin="round" stroke-miterlimit="10" d="M329.796,120.902
				c0-0.268-0.079-0.53-0.229-0.753c-0.148-0.223-0.36-0.396-0.607-0.499c-0.248-0.103-0.522-0.129-0.784-0.077
				c-0.263,0.052-0.503,0.181-0.694,0.37c-0.189,0.19-0.317,0.431-0.37,0.694c-0.052,0.262-0.024,0.535,0.077,0.783
				c0.103,0.248,0.276,0.459,0.499,0.607c0.223,0.149,0.484,0.229,0.752,0.229c0.179,0.001,0.354-0.034,0.521-0.102
				c0.164-0.067,0.313-0.167,0.44-0.293c0.126-0.126,0.226-0.276,0.293-0.44C329.762,121.256,329.797,121.08,329.796,120.902z"/>
			<path fill="#F7F0FF" stroke="#FFFFFF" stroke-linejoin="round" stroke-miterlimit="10" d="M329.796,93.185
				c0-0.268-0.079-0.531-0.229-0.753c-0.148-0.223-0.36-0.397-0.607-0.499c-0.248-0.103-0.522-0.129-0.784-0.077
				c-0.263,0.052-0.503,0.181-0.694,0.37c-0.189,0.189-0.317,0.431-0.37,0.694c-0.052,0.262-0.024,0.535,0.077,0.782
				c0.103,0.247,0.276,0.459,0.499,0.608s0.484,0.228,0.752,0.228c0.179,0.001,0.354-0.033,0.521-0.102
				c0.164-0.068,0.313-0.167,0.44-0.293c0.126-0.126,0.226-0.276,0.293-0.441C329.762,93.538,329.797,93.364,329.796,93.185z"/>
			<path fill="#F7F0FF" stroke="#FFFFFF" stroke-linejoin="round" stroke-miterlimit="10" d="M354.49,107.514
				c0-0.268-0.083-0.529-0.232-0.751c-0.149-0.222-0.36-0.394-0.609-0.496c-0.247-0.102-0.52-0.127-0.781-0.074
				c-0.263,0.053-0.504,0.183-0.691,0.373c-0.189,0.189-0.318,0.431-0.369,0.693c-0.054,0.263-0.025,0.534,0.078,0.782
				s0.275,0.458,0.499,0.607c0.224,0.149,0.484,0.229,0.752,0.229c0.179,0,0.355-0.036,0.521-0.104
				c0.164-0.069,0.314-0.169,0.439-0.295c0.126-0.127,0.226-0.277,0.294-0.442C354.457,107.869,354.491,107.692,354.49,107.514z"/>
			<path fill="#F7F0FF" stroke="#FFFFFF" stroke-linejoin="round" stroke-miterlimit="10" d="M330.052,140.926
				c0-0.269-0.077-0.531-0.226-0.755c-0.148-0.225-0.36-0.399-0.607-0.502c-0.249-0.104-0.522-0.131-0.786-0.08
				c-0.264,0.052-0.504,0.181-0.695,0.371c-0.19,0.19-0.318,0.432-0.372,0.696c-0.051,0.264-0.022,0.537,0.08,0.784
				c0.104,0.249,0.277,0.459,0.502,0.608c0.224,0.148,0.486,0.226,0.756,0.226c0.356,0,0.7-0.142,0.951-0.395
				C329.909,141.626,330.052,141.284,330.052,140.926z"/>
			<path fill="#F7F0FF" stroke="#FFFFFF" stroke-linejoin="round" stroke-miterlimit="10" d="M306.23,107.674
				c-0.001-0.267-0.081-0.526-0.23-0.747c-0.148-0.221-0.359-0.392-0.605-0.494c-0.247-0.101-0.518-0.126-0.778-0.073
				c-0.261,0.053-0.5,0.182-0.688,0.37c-0.188,0.189-0.315,0.429-0.367,0.691c-0.051,0.261-0.023,0.532,0.079,0.778
				c0.102,0.246,0.276,0.456,0.497,0.604c0.222,0.148,0.481,0.226,0.747,0.226c0.179,0,0.353-0.035,0.518-0.103
				c0.164-0.068,0.313-0.168,0.438-0.294c0.125-0.126,0.225-0.275,0.292-0.44S306.232,107.851,306.23,107.674z"/>
			<path fill="#FFFFFF" d="M69.721,240.569c-0.996,0.006-1.974-0.271-2.819-0.801c-0.396-0.308-0.706-0.711-0.899-1.174
				c-0.194-0.46-0.266-0.966-0.208-1.464c0.07-0.497,0.264-0.968,0.562-1.372c0.299-0.402,0.694-0.726,1.149-0.936
				c0.882-0.285,1.799-0.442,2.725-0.468c1.612-0.242,3.113-0.963,4.312-2.068c1.199-1.104,2.039-2.543,2.411-4.13
				c0.262-1.195,0.245-2.436-0.052-3.625c-0.297-1.188-0.864-2.291-1.657-3.223s-1.792-1.67-2.917-2.153
				c-1.125-0.482-2.346-0.7-3.569-0.634c-1.223,0.066-2.414,0.415-3.479,1.017c-1.066,0.603-1.979,1.442-2.667,2.456
				c-0.688,1.013-1.131,2.173-1.298,3.385c-0.166,1.214-0.05,2.449,0.34,3.608c0.343,1.027,0.896,1.981,1.187,3.031
				c0.179,0.513,0.232,1.063,0.154,1.602c-0.077,0.539-0.282,1.052-0.598,1.494c-1.106,1.29-3.271,0.917-4.626-0.102
				c-1.354-1.019-2.294-2.527-3.642-3.555c-0.96-0.71-2.077-1.178-3.256-1.366c-1.178-0.188-2.385-0.092-3.518,0.28
				c-6.184,2.003-7.62,10.613-2.068,14.27c1.549,0.962,3.375,1.382,5.189,1.187c1.813-0.193,3.509-0.988,4.821-2.257
				c0.874-0.89,1.529-1.974,2.455-2.813c0.924-0.838,2.294-1.398,3.445-0.918c1.311,0.547,1.813,2.186,1.676,3.643
				c-0.139,1.457-0.729,2.74-0.947,4.146c-0.184,1.378,0.005,2.779,0.545,4.061c0.54,1.281,1.414,2.394,2.529,3.223
				c1.134,0.788,2.45,1.273,3.824,1.41c1.374,0.138,2.76-0.076,4.028-0.624c1.548-0.699,2.841-1.86,3.702-3.325
				c0.861-1.466,1.248-3.161,1.105-4.854c-0.215-1.682-0.962-3.253-2.133-4.48c-1.171-1.228-2.702-2.053-4.372-2.351
				C70.667,240.613,70.202,240.569,69.721,240.569z"/>
			<path fill="#333333" d="M268.746,398.049H127.307c-7.072,0-12.818-5.746-12.818-12.817V84.674
				c0-7.072,5.746-12.818,12.818-12.818h141.439c7.071,0,12.817,5.746,12.817,12.818v300.558
				C281.651,392.303,275.906,398.049,268.746,398.049z"/>
			<path fill="none" stroke="#FFFFFF" stroke-linecap="round" stroke-linejoin="round" stroke-miterlimit="10" d="M203.153,387.441
				c0-3.094-2.563-5.656-5.657-5.656c-3.094,0-5.658,2.563-5.658,5.656s2.563,5.658,5.658,5.658
				C200.59,393.1,203.153,390.624,203.153,387.441z"/>
			<path fill="#FFFFFF" stroke="#333333" stroke-linecap="round" stroke-linejoin="round" stroke-miterlimit="10" d="
				M274.228,94.044H121.915V378.69h152.313V94.044z"/>
			<path opacity="0.4" fill="#333333" enable-background="new    " d="M281.123,412.635c0,3.536-36.156,6.365-80.709,6.365
				s-80.708-2.829-80.708-6.365s36.155-6.363,80.708-6.363C244.967,406.182,281.123,409.099,281.123,412.635z"/>
			<path opacity="0.4" fill="#333333" enable-background="new    " d="M367.756,419c33.247,0,60.199-3.879,60.199-8.663
				c0-4.785-26.952-8.663-60.199-8.663c-33.248,0-60.201,3.878-60.201,8.663C307.556,415.121,334.508,419,367.756,419z"/>
			<path opacity="0.7" fill="#C7F0DC" enable-background="new    " d="M383.932,392.127c0,0-5.039,7.337-6.542,8.663
				c-1.591,1.326-8.131,4.243-8.397,5.304c-0.266,1.062-0.795,1.856,0.267,2.652c1.06,0.794,13.702,1.061,16.087,1.061
				c2.387,0,3.979-2.387,5.039-3.184c1.061-0.794,4.243-3.182,6.1-4.508s7.337-4.51,7.603-6.277
				c0.265-1.856-7.072-8.929-7.072-8.929L383.932,392.127z"/>
			<path fill="#FFFFFF" stroke="#333333" stroke-linecap="round" stroke-linejoin="round" stroke-miterlimit="10" d="
				M369.169,408.657c1.061,0.796,13.702,1.061,16.089,1.061s3.978-2.387,5.039-3.182c1.061-0.796,4.243-3.184,6.098-4.51
				c1.858-1.326,7.339-4.508,7.604-6.276c0.088-0.619-0.796-1.944-1.945-3.447c-1.68,1.593-3.979,3.978-5.392,6.1
				c-2.388,3.448-8.931,7.602-12.644,7.868c-3.711,0.265-15.027-0.268-15.027-0.268
				C368.639,407.155,368.107,407.862,369.169,408.657z"/>
			<path fill="#333333" stroke="#333333" stroke-linecap="round" stroke-linejoin="round" stroke-miterlimit="10" d="
				M339.467,287.815c0,0,3.979,12.906,7.337,23.16c3.448,10.255,10.254,29.79,13.438,35.007
				c3.182,5.304,12.641,21.569,15.293,28.199c2.651,6.541,7.602,16.619,7.602,16.619l13.172-6.542c0,0-4.508-13.437-6.1-20.243
				c-1.591-6.807-3.446-14.496-6.276-18.74c-2.917-4.244-6.276-7.867-6.276-7.867l-6.807-31.382l-6.807-27.403
				C363.954,278.622,345.743,278.357,339.467,287.815z"/>
			<path fill="#FFFFFF" stroke="#333333" stroke-linecap="round" stroke-linejoin="round" stroke-miterlimit="10" d="
				M379.776,388.679c0,0,1.858,3.448,2.388,4.509s5.834,1.326,8.133,0.267c2.387-1.062,8.928-4.51,8.928-6.1
				c0-1.591-2.12-5.569-2.917-6.808c-0.796-1.326-3.713-0.265-5.569,0.532c-1.857,0.794-8.662,4.243-9.459,4.508
				C380.483,385.762,379.247,386.558,379.776,388.679z"/>
			<path opacity="0.7" fill="#C7F0DC" enable-background="new    " d="M333.103,396.813c0,0-1.856,2.12-5.305,4.508
				c-3.447,2.388-11.58,4.773-14.497,5.304c-2.918,0.532-2.918,2.122-2.918,3.713s9.989,3.979,15.028,4.774
				c5.039,0.794,18.476,0.529,19.713-0.532c1.326-1.061,1.326-11.58,1.326-12.641C346.539,400.79,333.103,396.813,333.103,396.813z"
				/>
			<path fill="#FFFFFF" stroke="#333333" stroke-linecap="round" stroke-linejoin="round" stroke-miterlimit="10" d="
				M345.212,414.492c0.442-0.354,0.707-1.68,0.884-3.448c-3.184,0.532-8.045,1.062-14.586,1.062c-9.988,0-17.502-2.829-20.597-4.243
				c-0.441,0.707-0.441,1.591-0.441,2.387c0,1.591,9.988,3.978,15.027,4.772C330.449,415.818,343.886,415.553,345.212,414.492z"/>
			<path fill="#333333" stroke="#333333" stroke-linecap="round" stroke-linejoin="round" stroke-miterlimit="10" d="
				M345.479,288.081c0,0-2.122,19.447-2.652,28.995c-0.53,9.458-2.122,17.944-2.122,22.1c0,4.243-3.711,30.586-3.711,35.006
				s-3.184,17.946-3.184,17.946s0,0.53,2.917,1.326c2.918,0.794,7.604,1.855,7.604,1.855h2.387c0,0,2.917-8.662,6.276-16.618
				c3.358-7.956,6.275-13.438,7.071-21.306c0.796-7.866,0-17.414,1.062-19.183c1.061-1.856,12.905-31.823,14.496-34.476
				c1.593-2.651,4.773-9.192,4.773-9.192s3.713-4.243,3.448-11.846c-0.267-7.603-4.245-7.071-11.582-7.071
				s-16.618,3.183-19.713,5.304C349.456,282.777,345.479,288.081,345.479,288.081z"/>
			<path fill="none" stroke="#636363" stroke-linecap="round" stroke-linejoin="round" stroke-miterlimit="10" d="M347.601,383.641
				c-0.708,2.21-1.15,3.625-1.15,3.625"/>
			<path fill="none" stroke="#636363" stroke-linecap="round" stroke-linejoin="round" stroke-miterlimit="10" d="M354.229,335.64
				c0,1.503,0,2.563,0,3.006c0,0.972-0.974,1.326-1.325,3.624c-0.354,2.298,2.298,5.923,1.325,6.542
				c-0.974,0.618-1.944,1.326-1.944,2.917c0,1.679,0.619,4.95,0,12.464c-0.354,4.42-2.387,11.581-3.89,16.708"/>
			<path fill="none" stroke="#636363" stroke-linecap="round" stroke-linejoin="round" stroke-miterlimit="10" d="M368.197,291.175
				c-4.154,10.608-11.934,30.763-12.907,34.563c-0.53,2.122-0.794,4.42-0.884,6.542"/>
			<path fill="none" stroke="#636363" stroke-linecap="round" stroke-linejoin="round" stroke-miterlimit="10" d="M370.761,284.722
				c0,0-0.53,1.326-1.326,3.446"/>
			<path fill="#FFFFFF" stroke="#333333" stroke-linecap="round" stroke-linejoin="round" stroke-miterlimit="10" d="
				M332.572,389.209c0,0,8.131,2.919,10.254,3.713c2.122,0.796,5.834,0.796,5.834,2.388c0,1.591,0.267,7.071-1.06,7.337
				c-1.326,0.265-8.93-1.326-11.581-2.388c-2.652-1.059-4.509-1.059-5.039-2.12c-0.53-1.061,0.267-3.978,0.267-5.568
				C331.246,391.066,332.572,389.209,332.572,389.209z"/>
			<path fill="#C7F0DC" stroke="#333333" stroke-linecap="round" stroke-linejoin="round" stroke-miterlimit="10" d="
				M356.616,184.123c0,0-13.26,3.183-14.496,4.597c-1.149,1.415-9.282,15.47-9.901,16.089c-0.619,0.619-3.536,3.005-4.332,3.359
				c-0.794,0.354-1.943,2.21-2.21,3.006c-0.175,0.795-0.794,1.945-3.182,6.188c-2.387,4.155-7.956,11.315-6.365,11.669
				c1.591,0.353,6.72-1.149,11.14-2.21c4.33-0.974,9.899-5.569,9.899-5.569s-0.972,11.934-0.972,19.005
				c0,7.072,0.177,30.94,0.177,35.272s-0.354,8.752,0,10.077c0.353,1.414,3.182,5.746,3.182,5.746l2.21-2.563l1.769,3.801
				c0,0,2.387-3.005,12.288-6.365c9.9-3.358,14.32-4.771,16.884-4.596s16.707,8.132,17.414,8.487
				c0.796,0.353-0.796-15.117-0.796-23.779c0-8.751-0.617-24.221-0.617-24.221s6.719-32.708,7.515-39.869
				c0.794-7.16-2.742-13.702-4.155-15.646c-1.416-1.945-18.212-6.542-18.212-6.542L356.616,184.123z"/>
			<path fill="none" stroke="#333333" stroke-linecap="round" stroke-miterlimit="10" d="M337.257,221.251
				c0,0,0.619-10.343,2.74-16.708"/>
			<path fill="none" stroke="#333333" stroke-linecap="round" stroke-miterlimit="10" d="M325.941,212.853
				c0,0,1.414,7.779,1.148,10.077c-0.265,2.298,0.973,0.62,0.973-4.95"/>
			<path fill="none" stroke="#333333" stroke-linecap="round" stroke-miterlimit="10" d="M355.997,190.753
				c0,0-5.304,17.503-7.072,26.254"/>
			<path fill="none" stroke="#333333" stroke-linecap="round" stroke-miterlimit="10" d="M344.329,245.649l-0.796,10.077"/>
			<path fill="none" stroke="#333333" stroke-linecap="round" stroke-miterlimit="10" d="M343.18,263.064
				c0,0-1.593,16.088-1.15,23.426"/>
			<path fill="#C7F0DC" stroke="#333333" stroke-linecap="round" stroke-linejoin="round" stroke-miterlimit="10" d="
				M321.963,209.936c0,0-0.796,3.536-3.803,7.514c-3.004,3.978-4.065,4.597-5.921,4.774c-1.768,0.177-4.067-2.74-4.597-3.978
				c-0.619-1.15-1.149,0-0.619,3.978c0.619,3.978,5.746,7.957,8.486,7.957c2.741,0,7.161-5.569,8.133-8.31
				c0.974-2.74,1.416-6.542,0.974-8.751C324.35,210.908,324.35,209.14,321.963,209.936z"/>
			<path fill="#FFFFFF" stroke="#333333" stroke-linecap="round" stroke-linejoin="round" stroke-miterlimit="10" d="
				M325.676,178.996c0,0,3.979-3.801,4.774-4.773c0.796-0.972,1.591-5.569,1.768-6.983c0.178-1.415,2.564-5.039,2.564-5.658
				s-1.416-1.237-2.387-0.088c-0.975,1.149-1.592,2.741-1.945,3.359c-0.354,0.619-1.591,0.354-1.591,0.354s0.088-1.061,0.352-2.21
				c0.178-1.149,2.388-4.508,3.185-5.746c0.794-1.149,0.088-4.509-1.681-2.034c-1.768,2.476-5.392,6.807-5.392,6.807
				s-5.746,7.16-6.542,8.928c-0.794,1.768-0.794,4.773-0.794,6.542s0.617,0.973-0.354,4.154c-0.972,3.183-6.542,16.885-8.928,22.808
				c-2.387,5.922-3.184,10.342-1.945,12.729c1.149,2.387,4.772,6.188,6.719,5.746c1.944-0.354,6.983-7.16,7.955-9.547
				c0.975-2.387,0.975-4.774,0.975-6.542c0-1.768-0.975-13.26,0-17.414C323.29,185.272,325.676,178.996,325.676,178.996z"/>
			<path fill="#FFFFFF" d="M320.195,172.189l0.972-0.708c0,0,1.062,1.238,1.681,1.415c2.032,0.707,3.182-0.796,3.182-0.796
				l0.265-0.442l1.592-1.768l1.503-1.591c0.354-0.354,0.531-0.884,0.441-1.415c-0.088-0.708-0.265-1.768-0.707-2.387
				c-0.441-0.531-2.033-4.243-3.006-4.509c-0.972-0.176-2.21,2.21-2.21,2.21s-1.943,1.149-2.563,2.21
				c-0.618,0.973-0.796,1.592-0.796,1.592s-2.562,1.414-2.739,3.182s0.441,6.718,0.441,6.718"/>
			<path fill="none" stroke="#333333" stroke-linecap="round" stroke-linejoin="round" stroke-miterlimit="10" d="M320.195,172.189
				l0.972-0.708c0,0,1.062,1.238,1.681,1.415c2.032,0.707,3.182-0.796,3.182-0.796l0.265-0.442l1.592-1.768l1.503-1.591
				c0.354-0.354,0.531-0.884,0.441-1.415c-0.088-0.708-0.265-1.768-0.707-2.387c-0.441-0.531-2.033-4.243-3.006-4.509
				c-0.972-0.176-2.21,2.21-2.21,2.21s-1.943,1.149-2.563,2.21c-0.618,0.973-0.796,1.592-0.796,1.592s-2.562,1.414-2.739,3.182
				s0.441,6.718,0.441,6.718"/>
			<path fill="none" stroke="#333333" stroke-linecap="round" stroke-linejoin="round" stroke-miterlimit="10" d="M324.438,162.377
				c0,0,3.801,4.95,4.155,6.718"/>
			<path fill="none" stroke="#333333" stroke-linecap="round" stroke-linejoin="round" stroke-miterlimit="10" d="M320.901,165.824
				c0,0,4.155,2.741,5.392,5.834"/>
			<path fill="#C1F1E5" stroke="#333333" stroke-linecap="round" stroke-linejoin="round" stroke-miterlimit="10" d="
				M359.003,181.825l-3.182,2.122l-1.238,8.221l1.416-1.415l2.827-7.16L359.003,181.825z"/>
			<path fill="#FFFFFF" stroke="#333333" stroke-linecap="round" stroke-linejoin="round" stroke-miterlimit="10" d="
				M337.167,156.189c0,0-0.175,4.508,0.709,6.276s2.827,5.569,2.827,7.337s0.709,4.332,2.652,6.983
				c1.944,2.652,6.454,7.161,8.574,7.161c2.122,0,6.278-3.801,6.278-3.801l0.53,3.448l-2.299,6.983c0,0,7.866-5.922,10.255-8.044
				c2.298-2.122,5.038-7.514,5.038-7.514l-4.685-9.458c0,0,1.768-2.298,1.943-5.746c0.177-3.448-0.176-2.476-0.53-4.686
				c-0.354-2.122-4.332-7.514-9.459-10.608c-5.214-3.005-14.496-1.591-18.122,0.354
				C337.345,146.818,337.167,156.189,337.167,156.189z"/>
			
				<path opacity="0.2" fill="#333333" stroke="#333333" stroke-linecap="round" stroke-linejoin="round" stroke-miterlimit="10" enable-background="new    " d="
				M361.654,186.687l-1.414-0.884l1.591-7.691l-3.536,2.033l0.53,3.448l-2.298,6.983
				C356.527,190.576,359.002,188.72,361.654,186.687z"/>
			<path fill="none" stroke="#333333" stroke-linecap="round" stroke-linejoin="round" stroke-miterlimit="10" d="M345.033,163.703
				c0,0,2.21,2.652,0.532,8.575c0.354,1.061,2.477,1.061,3.626,0.354"/>
			<path fill="none" stroke="#333333" stroke-linecap="round" stroke-linejoin="round" stroke-miterlimit="10" d="M346.89,177.127
				c0,0,4.33,4.698,6.54-1.49"/>
			<path fill="none" stroke="#333333" stroke-linecap="round" stroke-linejoin="round" stroke-miterlimit="10" d="M342.03,162.288
				c0,0-1.943,0.177-2.476,1.415"/>
			<path fill="none" stroke="#333333" stroke-linecap="round" stroke-linejoin="round" stroke-miterlimit="10" d="M346.627,160.873
				c0,0,2.652-1.944,5.923-0.354"/>
			<path fill="#333333" d="M351.117,164.853c0.272,0.701,0,1.403-0.679,1.491c-0.681,0.088-1.357-0.35-1.765-1.139
				c-0.272-0.702,0-1.404,0.679-1.493C350.032,163.625,350.846,164.151,351.117,164.853z"/>
			<path fill="#333333" d="M343.161,166.615c0.272,0.704,0,1.409-0.679,1.496c-0.681,0.088-1.357-0.352-1.765-1.144
				c-0.272-0.705,0-1.408,0.679-1.497C342.211,165.471,342.89,165.911,343.161,166.615z"/>
			<path fill="#FFDFA6" stroke="#333333" stroke-linecap="round" stroke-linejoin="round" stroke-miterlimit="10" d="
				M341.058,138.951c0,0-1.944,2.475-3.801,2.298c-1.857-0.177-5.746-2.298-8.221,1.061c-2.477,3.448-1.593,7.337,1.414,8.221
				c3.007,0.884,2.829,2.475,5.216,3.801c2.298,1.237,5.746,2.298,8.573-1.415c2.829-3.801,7.69-4.155,10.433-2.829
				c2.652,1.238,1.414,3.005,2.298,4.862c0.884,1.768,2.652,3.006,2.652,3.006s0.354,2.121,0.884,2.475
				c0.53,0.354,1.591,0.884,1.768-0.354c0.178-1.237-0.177-1.944,0.53-3.271c0.709-1.238,1.416-1.414,2.477-1.591
				c1.06-0.176,3.27,1.061,3.27,1.061s0.884-3.801,0.884-7.868c0-4.155-1.943-8.575-6.981-11.846
				c-5.039-3.271-13.438-1.591-15.912-0.884C344.152,136.476,341.058,138.951,341.058,138.951z"/>
			<path fill="#333333" stroke="#333333" stroke-linecap="round" stroke-linejoin="round" stroke-miterlimit="10" d="
				M355.644,148.145c0,0-4.154-0.531-7.514-0.177c-3.448,0.354-4.685,1.238-5.039,1.768c-0.352,0.53,0.177,6.453,2.122,8.044
				c1.945,1.591,5.746,1.945,8.044,0.354c2.3-1.591,3.626-4.862,3.801-6.63C357.235,149.736,356.705,148.145,355.644,148.145z"/>
			<path fill="none" stroke="#333333" stroke-linecap="round" stroke-linejoin="round" stroke-miterlimit="10" d="M356.351,148.321
				l8.398,7.161"/>
			<path fill="none" stroke="#333333" stroke-linecap="round" stroke-linejoin="round" stroke-miterlimit="10" d="M343.09,149.736
				l-2.917,0.707"/>
			<path fill="#333333" stroke="#333333" stroke-linecap="round" stroke-linejoin="round" stroke-miterlimit="10" d="
				M341.412,153.095c0,0-0.354-2.829-3.006-2.829c-2.652,0-7.337,2.829-7.691,5.039c-0.352,2.122,1.592,5.216,4.155,6.276
				c2.475,1.061,5.569-1.591,6.1-2.652C341.412,157.78,342.03,154.951,341.412,153.095z"/>
			<path fill="#C7F0DC" stroke="#333333" stroke-linecap="round" stroke-linejoin="round" stroke-miterlimit="10" d="
				M372.086,173.604l-13.083,12.906l3.094,4.774l13.083-11.581L372.086,173.604z"/>
			<path fill="#333333" stroke="#333333" stroke-linecap="round" stroke-linejoin="round" stroke-miterlimit="10" d="
				M287.842,217.98l9.636,15.47l7.071,0.265l-9.193-16.619L287.842,217.98z"/>
			<path fill="#FFFFFF" stroke="#333333" stroke-linecap="round" stroke-linejoin="round" stroke-miterlimit="10" d="
				M357.941,228.234c0,0-24.133,5.039-30.763,5.216c-6.719,0.176-11.315,0.442-11.315,0.442s-3.359-3.802-5.658-6.101
				c-2.298-2.298-6.718-1.503-6.718-1.503s-5.216,0.178-6.718,0.178c-1.503,0-5.216,1.061-5.216,1.855
				c0,0.796,0.796,1.238,2.122,1.238s4.153,0,4.153,0l2.918,0.796c0,0-5.038,0.794-5.835,1.236c-0.795,0.441,0,2.3,0,2.3
				l0.796,0.794l0.794,1.68l1.061,0.794c0,0,0,1.062,2.122,1.858c2.12,0.794,9.459,1.236,10.696,1.236c1.238,0,3.358,0,3.358,0
				s19.448,2.3,23.868,2.918s20.332,1.06,23.868,0.441s5.216-0.176,6.1-1.679c0.796-1.503-3.801-11.315-5.039-12.818
				C361.301,228.058,357.941,228.234,357.941,228.234z"/>
			<path fill="none" stroke="#333333" stroke-linecap="round" stroke-linejoin="round" stroke-miterlimit="10" d="M295.798,234.952
				l6.452-0.441"/>
			<path fill="none" stroke="#333333" stroke-linecap="round" stroke-linejoin="round" stroke-miterlimit="10" d="M297.653,237.428
				l6.276,0.442"/>
			<path fill="#C7F0DC" d="M376.594,194.908c0,0-5.216,11.138-6.72,15.735c-1.501,4.596-2.298,5.834-1.855,7.514
				c0.441,1.68-0.619,2.741-0.619,2.741s-1.679,1.679-1.679,2.298c0,0.619-2.122,0.177-0.177,4.155
				c1.856,3.978,5.481,11.757,6.453,13.437c1.061,1.679,3.182,2.298,5.039,1.237c1.855-1.061,6.895-3.536,7.514-7.161
				c0.619-3.536,0.619-7.161,1.503-8.575s6.896-12.552,8.573-18.651c1.68-6.1,2.477-9.813,1.061-13.791
				c-1.503-3.978-4.154-4.597-4.154-4.597"/>
			<path fill="none" stroke="#333333" stroke-linecap="round" stroke-linejoin="round" stroke-miterlimit="10" d="M376.594,194.908
				c0,0-5.216,11.138-6.72,15.735c-1.501,4.596-2.298,5.834-1.855,7.514c0.441,1.68-0.619,2.741-0.619,2.741
				s-1.679,1.679-1.679,2.298c0,0.619-2.122,0.177-0.177,4.155c1.856,3.978,5.481,11.757,6.453,13.437
				c1.061,1.679,3.182,2.298,5.039,1.237c1.855-1.061,6.895-3.536,7.514-7.161c0.619-3.536,0.619-7.161,1.503-8.575
				s6.896-12.552,8.573-18.651c1.68-6.1,2.477-9.813,1.061-13.791c-1.503-3.978-4.154-4.597-4.154-4.597"/>
			<path fill="#C7F0DC" stroke="#333333" stroke-linecap="round" stroke-linejoin="round" stroke-miterlimit="10" d="
				M365.721,223.195c0,0,9.192,13.791,9.813,15.735c0.619,1.857,0.441,3.184-0.442,3.978c-0.884,0.796-6.895,3.184-8.575,3.184
				c-1.678,0-2.298-2.741-2.298-3.978c0-1.238-8.133-14.056-8.133-14.056s0.796-2.299,1.503-2.917
				C358.295,224.522,365.721,223.195,365.721,223.195z"/>
			<path fill="none" stroke="#333333" stroke-linecap="round" stroke-linejoin="round" stroke-miterlimit="10" d="M376.329,230.621
				c1.059,0.973,1.768,1.769,1.943,2.476"/>
			<path fill="none" stroke="#333333" stroke-linecap="round" stroke-linejoin="round" stroke-miterlimit="10" d="M367.401,224.257
				c0,0,3.89,2.387,7.071,4.861"/>
			<path fill="none" stroke="#333333" stroke-linecap="round" stroke-linejoin="round" stroke-miterlimit="10" d="M369.079,223.46
				c0,0,8.133,1.238,9.017,3.185"/>
			<path fill="#333333" stroke="#333333" stroke-linecap="round" stroke-linejoin="round" stroke-miterlimit="10" d="
				M258.794,138.951H139.558c-4.178,0-7.565,3.388-7.565,7.567v51.166c0,4.179,3.388,7.567,7.565,7.567h119.236
				c4.179,0,7.565-3.388,7.565-7.567v-51.166C266.359,142.339,262.973,138.951,258.794,138.951z"/>
			<path fill="none" stroke="#FFFFFF" stroke-width="5" stroke-linecap="round" stroke-linejoin="round" d="M129.341,199.063
				l19.13-20.959l19.244,11.866l19.244-30.828l19.131,17.3l19.244-20.072h19.244l19.131-19.185"/>
			<path fill="#FFFFFF" stroke="#333333" stroke-miterlimit="10" d="M192.774,219.395h-58.759c-2.093,0-3.791,1.697-3.791,3.79
				v11.889c0,2.095,1.697,3.791,3.791,3.791h58.759c2.093,0,3.791-1.696,3.791-3.791v-11.889
				C196.565,221.092,194.868,219.395,192.774,219.395z"/>
			<path fill="none" stroke="#333333" stroke-miterlimit="10" d="M144.166,219.638v19.225"/>
			<path fill="none" stroke="#333333" stroke-miterlimit="10" d="M157.549,219.638v19.225"/>
			<path fill="none" stroke="#333333" stroke-miterlimit="10" d="M170.925,219.638v19.225"/>
			<path fill="none" stroke="#333333" stroke-miterlimit="10" d="M184.302,219.638v19.225"/>
			<path fill="none" stroke="#333333" stroke-miterlimit="10" d="M233.514,230.094h-16.556c-1.947,0-3.524,1.578-3.524,3.523v8.236
				c0,1.945,1.577,3.523,3.524,3.523h16.556c1.946,0,3.523-1.578,3.523-3.523v-8.236
				C237.037,231.672,235.46,230.094,233.514,230.094z"/>
			<path fill="none" stroke="#333333" stroke-miterlimit="10" d="M150.702,251.188h-16.556c-1.946,0-3.523,1.578-3.523,3.523v10.943
				c0,1.946,1.577,3.523,3.523,3.523h16.556c1.946,0,3.523-1.577,3.523-3.523v-10.943
				C154.225,252.766,152.647,251.188,150.702,251.188z"/>
			<path fill="none" stroke="#333333" stroke-miterlimit="10" d="M178.37,251.188h-16.556c-1.946,0-3.523,1.578-3.523,3.523v10.943
				c0,1.946,1.577,3.523,3.523,3.523h16.556c1.946,0,3.522-1.577,3.522-3.523v-10.943
				C181.893,252.766,180.315,251.188,178.37,251.188z"/>
			<path fill="none" stroke="#333333" stroke-miterlimit="10" d="M189.481,251.188h16.548c0.937,0,1.834,0.372,2.498,1.035
				c0.662,0.662,1.033,1.56,1.033,2.496v10.936c0,0.936-0.37,1.833-1.031,2.494c-0.661,0.661-1.557,1.035-2.492,1.037h-16.549
				c-0.935,0-1.83-0.371-2.491-1.031c-0.66-0.661-1.032-1.558-1.032-2.492v-10.951c0-0.933,0.37-1.828,1.029-2.488
				C187.653,251.562,188.547,251.189,189.481,251.188z"/>
			<path fill="none" stroke="#333333" stroke-miterlimit="10" d="M233.704,251.188h-16.556c-1.946,0-3.522,1.578-3.522,3.523v10.943
				c0,1.946,1.577,3.523,3.522,3.523h16.556c1.945,0,3.522-1.577,3.522-3.523v-10.943
				C237.227,252.766,235.649,251.188,233.704,251.188z"/>
			<path fill="none" stroke="#333333" stroke-miterlimit="10" d="M261.372,251.188h-16.557c-1.946,0-3.523,1.578-3.523,3.523v10.943
				c0,1.946,1.577,3.523,3.523,3.523h16.557c1.945,0,3.521-1.577,3.521-3.523v-10.943
				C264.895,252.766,263.317,251.188,261.372,251.188z"/>
			<path fill="none" stroke="#333333" stroke-miterlimit="10" d="M150.702,275.371h-16.556c-1.946,0-3.523,1.576-3.523,3.521v10.945
				c0,1.945,1.577,3.521,3.523,3.521h16.556c1.946,0,3.523-1.576,3.523-3.521v-10.945
				C154.225,276.947,152.647,275.371,150.702,275.371z"/>
			<path fill="#C1F1E5" stroke="#333333" stroke-miterlimit="10" d="M178.37,275.371h-16.556c-1.946,0-3.523,1.576-3.523,3.521
				v10.945c0,1.945,1.577,3.521,3.523,3.521h16.556c1.946,0,3.522-1.576,3.522-3.521v-10.945
				C181.893,276.947,180.315,275.371,178.37,275.371z"/>
			<path fill="#C1F1E5" stroke="#333333" stroke-miterlimit="10" d="M189.481,275.386h16.548c0.937,0,1.834,0.372,2.498,1.034
				c0.662,0.662,1.033,1.56,1.033,2.496v10.937c0,0.935-0.37,1.833-1.031,2.494c-0.661,0.661-1.557,1.034-2.492,1.036h-16.549
				c-0.935,0-1.83-0.372-2.491-1.031c-0.66-0.66-1.032-1.558-1.032-2.491v-10.968c0.004-0.93,0.376-1.82,1.035-2.478
				S188.55,275.388,189.481,275.386z"/>
			<path fill="#C1F1E5" stroke="#333333" stroke-miterlimit="10" d="M233.704,275.371h-16.556c-1.946,0-3.522,1.576-3.522,3.521
				v10.945c0,1.945,1.577,3.521,3.522,3.521h16.556c1.945,0,3.522-1.576,3.522-3.521v-10.945
				C237.227,276.947,235.649,275.371,233.704,275.371z"/>
			<path fill="none" stroke="#333333" stroke-miterlimit="10" d="M261.372,275.371h-16.557c-1.946,0-3.523,1.576-3.523,3.521v10.945
				c0,1.945,1.577,3.521,3.523,3.521h16.557c1.945,0,3.521-1.576,3.521-3.521v-10.945
				C264.895,276.947,263.317,275.371,261.372,275.371z"/>
			<path fill="none" stroke="#333333" stroke-miterlimit="10" d="M150.702,299.553h-16.556c-1.946,0-3.523,1.577-3.523,3.523v10.943
				c0,1.946,1.577,3.524,3.523,3.524h16.556c1.946,0,3.523-1.578,3.523-3.524v-10.943
				C154.225,301.13,152.647,299.553,150.702,299.553z"/>
			<path fill="#C1F1E5" stroke="#333333" stroke-miterlimit="10" d="M178.37,299.553h-16.556c-1.946,0-3.523,1.577-3.523,3.523
				v10.943c0,1.946,1.577,3.524,3.523,3.524h16.556c1.946,0,3.522-1.578,3.522-3.524v-10.943
				C181.893,301.13,180.315,299.553,178.37,299.553z"/>
			<path fill="#C1F1E5" stroke="#333333" stroke-miterlimit="10" d="M189.481,299.553h16.548c0.937,0,1.834,0.373,2.498,1.034
				c0.662,0.663,1.033,1.562,1.033,2.497v10.936c0,0.936-0.37,1.833-1.031,2.494c-0.661,0.662-1.557,1.035-2.492,1.037h-16.549
				c-0.935,0-1.83-0.371-2.491-1.032c-0.66-0.661-1.032-1.556-1.032-2.49v-10.944c0-0.463,0.089-0.921,0.265-1.349
				c0.176-0.428,0.435-0.816,0.761-1.145s0.714-0.589,1.141-0.767C188.56,299.646,189.017,299.555,189.481,299.553z"/>
			<path fill="#C1F1E5" stroke="#333333" stroke-miterlimit="10" d="M233.704,299.553h-16.556c-1.946,0-3.522,1.577-3.522,3.523
				v10.943c0,1.946,1.577,3.524,3.522,3.524h16.556c1.945,0,3.522-1.578,3.522-3.524v-10.943
				C237.227,301.13,235.649,299.553,233.704,299.553z"/>
			<path fill="none" stroke="#333333" stroke-miterlimit="10" d="M261.372,299.553h-16.557c-1.946,0-3.523,1.577-3.523,3.523v10.943
				c0,1.946,1.577,3.524,3.523,3.524h16.557c1.945,0,3.521-1.578,3.521-3.524v-10.943
				C264.895,301.13,263.317,299.553,261.372,299.553z"/>
			<path fill="#E3CCFF" stroke="#333333" stroke-miterlimit="10" d="M150.702,323.736h-16.556c-1.946,0-3.523,1.577-3.523,3.522
				v10.943c0,1.945,1.577,3.522,3.523,3.522h16.556c1.946,0,3.523-1.577,3.523-3.522v-10.943
				C154.225,325.313,152.647,323.736,150.702,323.736z"/>
			<path fill="#C1F1E5" stroke="#333333" stroke-miterlimit="10" d="M178.37,323.736h-16.556c-1.946,0-3.523,1.577-3.523,3.522
				v10.943c0,1.945,1.577,3.522,3.523,3.522h16.556c1.946,0,3.522-1.577,3.522-3.522v-10.943
				C181.893,325.313,180.315,323.736,178.37,323.736z"/>
			<path fill="#C1F1E5" stroke="#333333" stroke-miterlimit="10" d="M189.481,323.736h16.548c0.937,0,1.834,0.372,2.498,1.034
				c0.662,0.662,1.033,1.56,1.033,2.495v10.937c0,0.936-0.37,1.831-1.031,2.494c-0.661,0.661-1.557,1.034-2.492,1.036h-16.549
				c-0.935,0-1.83-0.371-2.491-1.03c-0.66-0.661-1.032-1.559-1.032-2.492v-10.967c0.004-0.93,0.376-1.821,1.035-2.479
				C187.658,324.108,188.55,323.737,189.481,323.736z"/>
			<path fill="#C1F1E5" stroke="#333333" stroke-miterlimit="10" d="M233.704,323.736h-16.556c-1.946,0-3.522,1.577-3.522,3.522
				v10.943c0,1.945,1.577,3.522,3.522,3.522h16.556c1.945,0,3.522-1.577,3.522-3.522v-10.943
				C237.227,325.313,235.649,323.736,233.704,323.736z"/>
			<path fill="#E3CCFF" stroke="#333333" stroke-miterlimit="10" d="M150.702,347.926h-16.556c-1.946,0-3.523,1.578-3.523,3.522
				v10.944c0,1.945,1.577,3.522,3.523,3.522h16.556c1.946,0,3.523-1.577,3.523-3.522v-10.944
				C154.225,349.504,152.647,347.926,150.702,347.926z"/>
			<path fill="#C1F1E5" stroke="#333333" stroke-miterlimit="10" d="M178.37,347.926h-16.556c-1.946,0-3.523,1.578-3.523,3.522
				v10.944c0,1.945,1.577,3.522,3.523,3.522h16.556c1.946,0,3.522-1.577,3.522-3.522v-10.944
				C181.893,349.504,180.315,347.926,178.37,347.926z"/>
			<path fill="#C1F1E5" stroke="#333333" stroke-miterlimit="10" d="M189.481,347.926h16.548c0.937,0,1.834,0.371,2.498,1.034
				c0.662,0.661,1.033,1.56,1.033,2.496v10.937c0,0.936-0.37,1.831-1.031,2.493c-0.661,0.662-1.557,1.035-2.492,1.037h-16.549
				c-0.935,0-1.83-0.372-2.491-1.032c-0.66-0.661-1.032-1.558-1.032-2.491v-10.951c0-0.933,0.37-1.827,1.029-2.488
				C187.653,348.301,188.547,347.928,189.481,347.926z"/>
			<path fill="none" stroke="#333333" stroke-miterlimit="10" d="M233.704,347.926h-16.556c-1.946,0-3.522,1.578-3.522,3.522v10.944
				c0,1.945,1.577,3.522,3.522,3.522h16.556c1.945,0,3.522-1.577,3.522-3.522v-10.944
				C237.227,349.504,235.649,347.926,233.704,347.926z"/>
			<path fill="none" stroke="#333333" stroke-miterlimit="10" d="M261.311,323.736h-16.441c-0.949,0.001-1.86,0.379-2.53,1.052
				c-0.671,0.672-1.047,1.582-1.047,2.53v35.005c0,0.948,0.376,1.858,1.048,2.528c0.67,0.673,1.581,1.049,2.529,1.049h16.441
				c0.471,0,0.937-0.092,1.371-0.271c0.435-0.177,0.829-0.442,1.162-0.774c0.334-0.332,0.598-0.726,0.778-1.16
				s0.272-0.901,0.272-1.371v-35.005c0-0.948-0.377-1.86-1.051-2.533C263.173,324.113,262.262,323.736,261.311,323.736
				L261.311,323.736z"/>
			<path fill="#E3CCFF" stroke="#333333" stroke-miterlimit="10" d="M261.372,230.094h-16.557c-1.946,0-3.523,1.578-3.523,3.523
				v8.236c0,1.945,1.577,3.523,3.523,3.523h16.557c1.945,0,3.521-1.578,3.521-3.523v-8.236
				C264.895,231.672,263.317,230.094,261.372,230.094z"/>
			<path d="M245.846,241.519c-0.698-0.928-1.076-2.056-1.076-3.215c0-1.161,0.378-2.29,1.076-3.216
				c0.799-0.763,1.86-1.189,2.967-1.189c1.105,0,2.167,0.426,2.965,1.189c0.699,0.926,1.077,2.055,1.077,3.216
				c0,1.159-0.378,2.287-1.077,3.215c-0.798,0.763-1.859,1.188-2.965,1.188C247.706,242.707,246.645,242.281,245.846,241.519z
				 M250.849,240.815c0.478-0.753,0.731-1.624,0.731-2.517c0-0.892-0.254-1.764-0.731-2.517c-0.242-0.305-0.554-0.545-0.907-0.704
				c-0.355-0.16-0.742-0.232-1.129-0.211c-0.388-0.021-0.776,0.054-1.132,0.212s-0.669,0.398-0.911,0.703
				c-0.474,0.755-0.723,1.626-0.723,2.517s0.249,1.763,0.723,2.517c0.241,0.306,0.554,0.55,0.91,0.71
				c0.354,0.16,0.744,0.233,1.133,0.214c0.388,0.02,0.775-0.054,1.131-0.213C250.298,241.365,250.608,241.122,250.849,240.815z"/>
			<path d="M254.806,242.434c-0.056-0.049-0.099-0.109-0.128-0.175c-0.029-0.067-0.043-0.141-0.039-0.214v-7.252
				c-0.008-0.104,0.007-0.205,0.041-0.303s0.087-0.187,0.156-0.262c0.063-0.067,0.138-0.122,0.222-0.156
				c0.085-0.037,0.176-0.053,0.268-0.052c0.152,0.004,0.303,0.046,0.434,0.122c0.153,0.087,0.284,0.206,0.382,0.352l4.362,6.345
				v-6.283c-0.003-0.073,0.009-0.146,0.036-0.212c0.026-0.067,0.07-0.129,0.125-0.177c0.108-0.097,0.25-0.15,0.396-0.146
				c0.141-0.002,0.276,0.051,0.382,0.146c0.057,0.048,0.101,0.106,0.13,0.174s0.042,0.141,0.037,0.215v7.274
				c0.006,0.104-0.01,0.207-0.045,0.303c-0.035,0.098-0.091,0.187-0.162,0.263c-0.141,0.136-0.329,0.212-0.526,0.212
				c-0.142-0.001-0.279-0.037-0.403-0.104c-0.135-0.067-0.251-0.167-0.336-0.29l-4.378-6.347v6.208
				c0.005,0.074-0.008,0.147-0.037,0.214c-0.028,0.069-0.073,0.128-0.131,0.175c-0.11,0.093-0.25,0.145-0.395,0.145
				C255.048,242.602,254.908,242.539,254.806,242.434z"/>
			<path d="M137.966,265.091c-0.137-0.1-0.245-0.235-0.313-0.39l-2.784-6.261v6.513c0.003,0.063-0.01,0.128-0.04,0.183
				c-0.03,0.058-0.074,0.104-0.127,0.139c-0.115,0.07-0.247,0.108-0.382,0.108c-0.134,0-0.267-0.038-0.381-0.108
				c-0.054-0.035-0.099-0.081-0.127-0.139c-0.029-0.055-0.043-0.119-0.041-0.183v-7.107c0.001-0.11,0.026-0.221,0.073-0.32
				c0.048-0.101,0.116-0.188,0.202-0.259c0.175-0.152,0.4-0.234,0.633-0.229c0.202-0.001,0.399,0.06,0.564,0.176
				c0.193,0.13,0.341,0.317,0.427,0.533l2.723,6.033l2.714-6.033c0.082-0.216,0.228-0.403,0.42-0.533
				c0.18-0.123,0.395-0.184,0.611-0.174c0.218,0.009,0.426,0.089,0.594,0.228c0.085,0.07,0.154,0.158,0.201,0.259
				c0.048,0.1,0.072,0.21,0.073,0.32v7.085c0.003,0.063-0.01,0.128-0.041,0.182c-0.029,0.058-0.073,0.104-0.126,0.139
				c-0.114,0.078-0.251,0.118-0.389,0.113c-0.139,0.004-0.275-0.037-0.389-0.113c-0.053-0.036-0.095-0.084-0.125-0.14
				c-0.029-0.057-0.044-0.118-0.043-0.181v-6.513l-2.799,6.291c-0.068,0.156-0.176,0.29-0.313,0.389
				c-0.117,0.088-0.258,0.135-0.404,0.139C138.229,265.23,138.084,265.181,137.966,265.091z"/>
			<path d="M146.644,264.999c-0.596-0.382-1.07-0.928-1.365-1.57c-0.313-0.698-0.47-1.455-0.458-2.22
				c-0.001-0.589,0.095-1.173,0.283-1.731c0.166-0.511,0.423-0.987,0.762-1.403c0.352-0.408,0.789-0.733,1.282-0.953
				c0.538-0.233,1.121-0.35,1.708-0.344c0.758-0.005,1.504,0.187,2.166,0.557c0.08,0.036,0.146,0.093,0.193,0.167
				c0.046,0.072,0.07,0.159,0.067,0.244c0.001,0.063-0.009,0.124-0.031,0.182s-0.056,0.109-0.099,0.156
				c-0.04,0.045-0.089,0.081-0.144,0.105c-0.056,0.025-0.116,0.038-0.176,0.038c-0.067-0.007-0.132-0.022-0.191-0.054l-0.153-0.076
				l-0.197-0.093l-0.236-0.09l-0.313-0.093l-0.374-0.053c-0.155-0.009-0.31-0.009-0.465,0c-0.359-0.003-0.715,0.056-1.053,0.175
				c-0.284,0.115-0.542,0.282-0.762,0.496c-0.224,0.223-0.409,0.48-0.549,0.763c-0.147,0.301-0.255,0.618-0.321,0.944
				c-0.142,0.708-0.142,1.437,0,2.145c0.066,0.324,0.174,0.64,0.321,0.938c0.137,0.284,0.323,0.543,0.549,0.763
				c0.233,0.214,0.508,0.382,0.808,0.488c0.345,0.126,0.709,0.188,1.076,0.184c0.315,0.002,0.63-0.046,0.93-0.146
				c0.302-0.108,0.593-0.243,0.87-0.404c0.069-0.041,0.148-0.062,0.228-0.06c0.059,0,0.118,0.011,0.171,0.034
				c0.054,0.023,0.103,0.058,0.142,0.102c0.043,0.043,0.078,0.092,0.102,0.146c0.023,0.056,0.035,0.113,0.035,0.174
				c-0.004,0.098-0.035,0.192-0.089,0.274c-0.053,0.082-0.128,0.147-0.216,0.191c-0.703,0.448-1.523,0.677-2.356,0.655
				C148.027,265.635,147.281,265.416,146.644,264.999z"/>
			<path d="M140.542,359.272h-4.118l-0.709,1.823c-0.036,0.119-0.11,0.222-0.21,0.294c-0.101,0.071-0.223,0.107-0.347,0.103
				c-0.151-0.001-0.297-0.055-0.412-0.152c-0.057-0.044-0.103-0.101-0.135-0.166c-0.032-0.064-0.048-0.135-0.048-0.207
				c0.002-0.076,0.018-0.152,0.046-0.222l2.845-7.062c0.081-0.259,0.23-0.492,0.435-0.672c0.18-0.104,0.383-0.158,0.591-0.158
				c0.208,0,0.412,0.055,0.591,0.158c0.207,0.178,0.36,0.412,0.442,0.672l2.83,7.115c0.034,0.069,0.052,0.146,0.053,0.221
				c-0.001,0.073-0.02,0.145-0.052,0.21c-0.034,0.063-0.08,0.121-0.139,0.164c-0.117,0.1-0.266,0.154-0.419,0.154
				c-0.123,0.004-0.242-0.034-0.342-0.105c-0.099-0.072-0.171-0.174-0.207-0.291L140.542,359.272z M138.483,353.987l-1.723,4.424
				h3.439L138.483,353.987z"/>
			<path d="M145.31,361.02c-0.597-0.379-1.07-0.922-1.366-1.563c-0.314-0.698-0.47-1.456-0.457-2.219
				c-0.003-0.589,0.093-1.175,0.282-1.732c0.166-0.513,0.423-0.99,0.763-1.411c0.348-0.409,0.787-0.732,1.281-0.943
				c0.537-0.241,1.12-0.361,1.708-0.352c0.758-0.006,1.504,0.186,2.166,0.556c0.079,0.037,0.144,0.096,0.19,0.169
				c0.046,0.072,0.071,0.158,0.07,0.242c0.001,0.125-0.045,0.245-0.13,0.336c-0.039,0.047-0.089,0.085-0.145,0.107
				c-0.055,0.026-0.115,0.038-0.176,0.037c-0.069-0.002-0.136-0.019-0.199-0.045l-0.144-0.076l-0.199-0.1l-0.236-0.084l-0.313-0.092
				c-0.123-0.027-0.248-0.049-0.374-0.061c-0.155-0.009-0.31-0.009-0.465,0c-0.359-0.007-0.716,0.056-1.052,0.183
				c-0.287,0.111-0.546,0.278-0.763,0.496c-0.221,0.223-0.404,0.48-0.542,0.763c-0.147,0.297-0.255,0.611-0.32,0.939
				c-0.071,0.353-0.107,0.714-0.107,1.074c-0.001,0.362,0.035,0.721,0.107,1.076c0.064,0.322,0.172,0.636,0.32,0.93
				c0.135,0.286,0.321,0.544,0.55,0.764c0.233,0.217,0.508,0.386,0.808,0.495c0.346,0.119,0.71,0.179,1.075,0.175
				c0.315,0.006,0.63-0.04,0.931-0.137c0.3-0.112,0.59-0.247,0.869-0.405c0.069-0.043,0.148-0.066,0.229-0.068
				c0.059,0,0.117,0.011,0.171,0.035c0.054,0.024,0.102,0.059,0.142,0.103c0.042,0.041,0.076,0.093,0.098,0.146
				c0.022,0.055,0.033,0.114,0.032,0.174c-0.004,0.099-0.035,0.193-0.087,0.276s-0.125,0.15-0.211,0.196
				c-0.704,0.444-1.524,0.672-2.357,0.648C146.696,361.662,145.947,361.441,145.31,361.02z"/>
			<path d="M140.573,336.615c-0.594-0.378-1.065-0.922-1.357-1.563c-0.314-0.697-0.47-1.456-0.458-2.219
				c-0.004-0.589,0.088-1.174,0.275-1.731c0.166-0.513,0.423-0.991,0.762-1.411c0.345-0.409,0.782-0.733,1.274-0.946
				c0.54-0.238,1.125-0.358,1.716-0.351c0.756-0.006,1.5,0.187,2.159,0.557c0.07,0.032,0.13,0.079,0.178,0.14
				c0.046,0.062,0.078,0.131,0.09,0.208c0.013,0.075,0.007,0.152-0.017,0.226c-0.025,0.072-0.066,0.138-0.122,0.189
				c-0.038,0.047-0.085,0.083-0.14,0.109c-0.054,0.023-0.113,0.037-0.172,0.036c-0.069-0.002-0.136-0.018-0.199-0.047l-0.145-0.076
				l-0.207-0.099l-0.235-0.084l-0.313-0.092c-0.123-0.027-0.248-0.048-0.374-0.061c-0.155-0.009-0.31-0.009-0.466,0
				c-0.359-0.003-0.715,0.058-1.052,0.184c-0.287,0.108-0.546,0.277-0.763,0.496c-0.221,0.226-0.406,0.481-0.548,0.762
				c-0.148,0.298-0.255,0.613-0.32,0.938c-0.069,0.355-0.102,0.716-0.1,1.077c-0.003,0.359,0.03,0.72,0.1,1.075
				c0.064,0.323,0.172,0.637,0.32,0.93c0.14,0.282,0.326,0.54,0.548,0.763c0.234,0.218,0.509,0.385,0.809,0.496
				c0.346,0.12,0.709,0.179,1.075,0.176c0.315,0.006,0.63-0.04,0.93-0.138c0.302-0.108,0.592-0.244,0.87-0.404
				c0.069-0.041,0.148-0.064,0.229-0.068c0.059,0,0.118,0.013,0.174,0.035c0.055,0.024,0.104,0.059,0.146,0.102
				c0.083,0.086,0.129,0.202,0.13,0.321c-0.004,0.097-0.035,0.192-0.086,0.275c-0.052,0.082-0.125,0.151-0.211,0.196
				c-0.705,0.443-1.524,0.67-2.357,0.648C141.953,337.267,141.207,337.042,140.573,336.615z"/>
			<path d="M137.545,284.697c-0.356-0.483-0.549-1.069-0.549-1.671s0.193-1.187,0.549-1.671c0.182-0.226,0.417-0.404,0.682-0.521
				c0.265-0.117,0.555-0.167,0.844-0.15c0.317-0.005,0.63,0.063,0.915,0.199c0.257,0.124,0.48,0.311,0.648,0.54
				c0.159,0.235,0.28,0.492,0.359,0.764c0.083,0.273,0.125,0.56,0.122,0.846c0.021,0.605-0.176,1.198-0.557,1.671
				c-0.188,0.208-0.417,0.375-0.673,0.487c-0.256,0.114-0.533,0.172-0.813,0.172s-0.558-0.058-0.813-0.172
				c-0.256-0.112-0.486-0.278-0.673-0.487L137.545,284.697z M139.704,284.438c0.175-0.163,0.305-0.372,0.374-0.604
				c0.07-0.266,0.104-0.539,0.099-0.814c-0.006-0.261-0.047-0.521-0.122-0.771c-0.064-0.233-0.194-0.441-0.374-0.604
				c-0.185-0.164-0.424-0.252-0.671-0.244c-0.245-0.008-0.482,0.081-0.664,0.244c-0.177,0.164-0.306,0.372-0.373,0.604
				c-0.072,0.263-0.104,0.535-0.1,0.809c-0.004,0.275,0.029,0.549,0.1,0.814c0.071,0.23,0.2,0.438,0.373,0.604
				c0.181,0.165,0.419,0.251,0.664,0.244c0.128,0.002,0.256-0.022,0.375-0.072C139.504,284.601,139.613,284.528,139.704,284.438z
				 M139.117,289.448c-0.034-0.031-0.061-0.069-0.079-0.11c-0.019-0.042-0.029-0.087-0.028-0.134
				c0.006-0.072,0.029-0.144,0.068-0.205l4.675-8.274c0.03-0.067,0.078-0.123,0.139-0.165c0.06-0.04,0.131-0.062,0.204-0.063
				c0.045-0.001,0.09,0.007,0.132,0.023c0.042,0.018,0.081,0.041,0.112,0.074c0.063,0.069,0.1,0.159,0.099,0.252
				c-0.005,0.09-0.032,0.175-0.076,0.251l-4.659,8.222c-0.029,0.064-0.074,0.12-0.132,0.162c-0.058,0.04-0.125,0.062-0.196,0.067
				C139.28,289.548,139.188,289.513,139.117,289.448z M143.303,288.686c-0.372-0.481-0.563-1.078-0.542-1.687
				c-0.021-0.6,0.177-1.188,0.557-1.654c0.177-0.219,0.403-0.394,0.661-0.511c0.256-0.117,0.537-0.171,0.819-0.16
				c0.316-0.005,0.631,0.066,0.916,0.206c0.256,0.119,0.476,0.303,0.641,0.534c0.159,0.233,0.28,0.49,0.358,0.762
				c0.083,0.274,0.124,0.561,0.122,0.846c0.007,0.404-0.073,0.806-0.236,1.175c-0.154,0.342-0.4,0.636-0.71,0.847
				c-0.401,0.257-0.88,0.364-1.354,0.303c-0.473-0.061-0.909-0.287-1.231-0.638V288.686z M145.461,288.418
				c0.175-0.162,0.305-0.366,0.375-0.595c0.07-0.269,0.103-0.545,0.099-0.824c0.003-0.206-0.017-0.415-0.061-0.616
				c-0.036-0.182-0.098-0.355-0.183-0.52c-0.084-0.163-0.212-0.297-0.371-0.389s-0.339-0.137-0.522-0.13
				c-0.246-0.007-0.487,0.08-0.671,0.244c-0.176,0.162-0.303,0.371-0.366,0.603c-0.142,0.533-0.142,1.093,0,1.624
				c0.063,0.232,0.19,0.44,0.366,0.604c0.185,0.165,0.425,0.252,0.671,0.243c0.248,0.002,0.486-0.094,0.663-0.267V288.418z"/>
			<path d="M168.973,288.969c-0.058-0.05-0.105-0.109-0.137-0.179c-0.032-0.068-0.047-0.143-0.046-0.219
				c0.001-0.091,0.022-0.179,0.061-0.259l2.929-6.726h-3.942c-0.067,0.001-0.134-0.011-0.195-0.035
				c-0.062-0.024-0.118-0.062-0.164-0.11c-0.084-0.092-0.131-0.211-0.131-0.337c0-0.123,0.047-0.242,0.131-0.335
				c0.045-0.05,0.101-0.088,0.163-0.113c0.062-0.024,0.129-0.035,0.196-0.031h4.576c0.177-0.009,0.354,0.045,0.496,0.151
				c0.057,0.053,0.103,0.116,0.134,0.187c0.03,0.071,0.044,0.148,0.041,0.228c-0.002,0.175-0.038,0.349-0.107,0.51l-3.05,7.092
				c-0.037,0.104-0.107,0.192-0.2,0.253c-0.092,0.061-0.201,0.09-0.311,0.083C169.253,289.133,169.095,289.075,168.973,288.969z"/>
			<path d="M196.489,288.99c-0.424-0.167-0.79-0.457-1.052-0.83c-0.271-0.388-0.409-0.849-0.397-1.319
				c-0.008-0.498,0.147-0.984,0.443-1.387c0.31-0.4,0.759-0.675,1.258-0.763c-0.461-0.085-0.876-0.334-1.167-0.701
				c-0.269-0.364-0.408-0.807-0.396-1.259c-0.012-0.451,0.125-0.893,0.389-1.259c0.255-0.347,0.605-0.61,1.007-0.764
				c0.452-0.172,0.934-0.257,1.418-0.25c0.373-0.001,0.745,0.048,1.106,0.146c0.318,0.093,0.62,0.236,0.892,0.426
				c0.258,0.19,0.468,0.438,0.61,0.724c0.149,0.311,0.226,0.647,0.221,0.992c0.014,0.456-0.128,0.902-0.404,1.267
				c-0.289,0.358-0.697,0.606-1.151,0.692c0.494,0.107,0.939,0.376,1.266,0.764c0.291,0.393,0.443,0.873,0.427,1.364
				c0.006,0.47-0.132,0.931-0.397,1.317c-0.266,0.375-0.634,0.663-1.06,0.833c-0.972,0.355-2.039,0.355-3.013,0V288.99z
				 M199.257,287.977c0.166-0.135,0.298-0.308,0.383-0.505c0.085-0.196,0.122-0.41,0.105-0.624c0.012-0.225-0.028-0.45-0.112-0.658
				c-0.086-0.207-0.217-0.394-0.384-0.547c-0.351-0.287-0.796-0.437-1.251-0.42c-0.456-0.02-0.903,0.131-1.258,0.42
				c-0.167,0.152-0.3,0.339-0.387,0.545c-0.086,0.209-0.126,0.435-0.116,0.66c-0.011,0.304,0.075,0.603,0.244,0.854
				c0.156,0.225,0.377,0.396,0.633,0.496c0.282,0.108,0.583,0.161,0.884,0.153c0.442,0.015,0.876-0.117,1.236-0.374L199.257,287.977
				L199.257,287.977z M199.257,283.782c0.152-0.131,0.272-0.297,0.35-0.481c0.078-0.186,0.113-0.387,0.1-0.587
				c0.014-0.202-0.022-0.403-0.106-0.588c-0.084-0.184-0.212-0.343-0.375-0.464c-0.352-0.239-0.771-0.358-1.197-0.344
				c-0.21,0.001-0.421,0.027-0.625,0.076c-0.19,0.051-0.37,0.131-0.534,0.236c-0.166,0.109-0.297,0.264-0.382,0.442
				c-0.094,0.201-0.142,0.421-0.137,0.642c-0.013,0.201,0.022,0.401,0.1,0.587c0.078,0.185,0.198,0.35,0.35,0.48
				c0.365,0.24,0.792,0.366,1.228,0.366C198.465,284.147,198.893,284.021,199.257,283.782z"/>
			<path d="M222.584,288.815c-0.072-0.031-0.133-0.085-0.173-0.151c-0.042-0.066-0.061-0.144-0.056-0.224
				c0.001-0.134,0.047-0.266,0.13-0.372c0.035-0.053,0.081-0.095,0.135-0.127c0.054-0.029,0.115-0.047,0.178-0.052
				c0.05,0.004,0.099,0.018,0.144,0.038c0.476,0.234,0.997,0.356,1.525,0.359c0.257,0.007,0.515-0.023,0.763-0.092
				c0.198-0.053,0.386-0.138,0.556-0.252c0.156-0.111,0.291-0.25,0.396-0.411c0.113-0.167,0.205-0.345,0.274-0.533
				c0.078-0.216,0.135-0.438,0.168-0.665c0.044-0.252,0.072-0.506,0.084-0.763c0-0.243,0-0.524,0-0.83
				c-0.128,0.364-0.382,0.67-0.717,0.861c-0.408,0.252-0.879,0.383-1.357,0.375c-0.363,0.015-0.725-0.047-1.063-0.177
				c-0.339-0.131-0.646-0.33-0.904-0.586c-0.253-0.258-0.451-0.565-0.582-0.902c-0.132-0.337-0.193-0.697-0.182-1.058
				c-0.017-0.373,0.042-0.746,0.174-1.096c0.13-0.35,0.331-0.67,0.589-0.94c0.279-0.265,0.609-0.467,0.97-0.6
				c0.361-0.129,0.745-0.187,1.127-0.164c0.427-0.005,0.851,0.067,1.25,0.213c0.338,0.125,0.645,0.32,0.9,0.571
				c0.244,0.253,0.44,0.548,0.58,0.87c0.152,0.335,0.26,0.688,0.32,1.052c0.063,0.391,0.094,0.785,0.092,1.183
				c0,0.351,0,0.67,0,0.977c0,0.305-0.069,0.625-0.13,0.968c-0.059,0.314-0.147,0.623-0.259,0.923
				c-0.106,0.287-0.25,0.56-0.428,0.809c-0.17,0.255-0.381,0.479-0.625,0.663c-0.263,0.191-0.558,0.337-0.869,0.428
				c-0.375,0.104-0.763,0.156-1.152,0.152C223.798,289.265,223.161,289.11,222.584,288.815z M226.1,284.629
				c0.168-0.187,0.298-0.405,0.382-0.643s0.12-0.487,0.106-0.739c0.016-0.479-0.147-0.95-0.458-1.318
				c-0.16-0.181-0.359-0.322-0.583-0.415c-0.223-0.093-0.465-0.134-0.705-0.119c-0.244-0.016-0.489,0.021-0.717,0.109
				c-0.228,0.09-0.434,0.226-0.603,0.401c-0.32,0.379-0.484,0.864-0.458,1.357c-0.021,0.484,0.127,0.962,0.42,1.349
				c0.148,0.182,0.337,0.323,0.553,0.416c0.215,0.092,0.449,0.13,0.683,0.111c0.253,0.019,0.506-0.02,0.744-0.107
				S225.919,284.807,226.1,284.629z"/>
			<path d="M171.413,312.624c-0.057-0.049-0.103-0.11-0.133-0.177c-0.03-0.069-0.045-0.144-0.042-0.22v-1.319h-3.417
				c-0.083,0.004-0.166-0.012-0.243-0.045c-0.076-0.032-0.144-0.083-0.199-0.146c-0.111-0.116-0.171-0.272-0.168-0.434
				c0.002-0.131,0.04-0.261,0.107-0.374l3.272-5.133c0.096-0.173,0.238-0.316,0.41-0.417c0.171-0.099,0.367-0.15,0.565-0.146
				c0.217-0.007,0.429,0.065,0.595,0.205c0.086,0.08,0.152,0.176,0.194,0.283c0.042,0.109,0.059,0.226,0.049,0.342v4.988h0.862
				c0.061-0.003,0.122,0.006,0.178,0.029c0.057,0.021,0.108,0.056,0.15,0.101c0.074,0.084,0.116,0.193,0.114,0.306
				c0.003,0.113-0.037,0.226-0.114,0.313c-0.042,0.043-0.093,0.077-0.15,0.101c-0.057,0.021-0.117,0.032-0.178,0.028h-0.87v1.319
				c0.002,0.076-0.012,0.15-0.042,0.22c-0.031,0.066-0.076,0.128-0.134,0.176c-0.11,0.096-0.25,0.146-0.396,0.145
				C171.675,312.771,171.528,312.72,171.413,312.624z M171.238,310.031v-4.575l-2.86,4.575H171.238z"/>
			<path d="M196.694,312.655c-0.422-0.172-0.812-0.414-1.151-0.718c-0.037-0.031-0.067-0.07-0.087-0.115
				c-0.02-0.047-0.029-0.095-0.028-0.144c0.004-0.142,0.062-0.275,0.16-0.373c0.042-0.054,0.094-0.095,0.153-0.126
				c0.06-0.03,0.124-0.049,0.19-0.052c0.078,0,0.154,0.027,0.214,0.076c0.521,0.469,1.199,0.725,1.898,0.717
				c0.245,0.019,0.491-0.017,0.723-0.098c0.23-0.083,0.442-0.212,0.62-0.382c0.323-0.377,0.487-0.864,0.458-1.358
				c0.019-0.468-0.142-0.927-0.45-1.279c-0.151-0.164-0.335-0.292-0.541-0.377c-0.205-0.084-0.427-0.123-0.649-0.112
				c-0.33,0.005-0.655,0.079-0.953,0.221c-0.293,0.124-0.554,0.312-0.763,0.549c-0.032,0.029-0.07,0.052-0.11,0.062
				c-0.041,0.014-0.083,0.02-0.125,0.016c-0.171-0.003-0.338-0.048-0.488-0.13c-0.168-0.092-0.245-0.189-0.245-0.313v-3.905
				c0-0.357,0.191-0.54,0.58-0.54h3.919c0.062-0.004,0.124,0.005,0.181,0.028c0.058,0.024,0.107,0.062,0.147,0.108
				c0.078,0.09,0.121,0.201,0.122,0.32c0.001,0.117-0.039,0.23-0.114,0.319c-0.043,0.045-0.095,0.078-0.153,0.101
				c-0.058,0.022-0.121,0.032-0.183,0.028h-3.531v2.892l0.076-0.076c0.066-0.062,0.138-0.119,0.214-0.168
				c0.118-0.076,0.24-0.146,0.366-0.205c0.169-0.075,0.345-0.13,0.526-0.167c0.227-0.047,0.456-0.069,0.687-0.069
				c0.354-0.018,0.709,0.041,1.04,0.173c0.331,0.131,0.628,0.333,0.874,0.59c0.492,0.534,0.753,1.241,0.725,1.968
				c0.015,0.375-0.05,0.75-0.191,1.098c-0.14,0.35-0.354,0.663-0.625,0.923c-0.57,0.519-1.321,0.791-2.09,0.764
				C197.613,312.906,197.139,312.823,196.694,312.655z"/>
			<path d="M223.82,312.678c-0.34-0.119-0.648-0.314-0.9-0.572c-0.244-0.249-0.44-0.541-0.58-0.862
				c-0.151-0.338-0.259-0.693-0.32-1.059c-0.063-0.392-0.093-0.787-0.092-1.183c0-0.343,0-0.671,0-0.968
				c0.027-0.327,0.073-0.649,0.138-0.971c0.053-0.316,0.138-0.629,0.251-0.93c0.111-0.286,0.253-0.557,0.427-0.809
				c0.36-0.534,0.902-0.919,1.526-1.085c0.371-0.11,0.756-0.165,1.144-0.159c0.644,0.006,1.276,0.156,1.853,0.441
				c0.071,0.036,0.129,0.089,0.169,0.158c0.039,0.067,0.058,0.146,0.052,0.225c-0.002,0.135-0.047,0.267-0.129,0.375
				c-0.035,0.051-0.081,0.093-0.135,0.122s-0.116,0.047-0.178,0.044c-0.05,0.003-0.101-0.012-0.145-0.038
				c-0.476-0.229-0.997-0.35-1.525-0.356c-0.245-0.003-0.489,0.027-0.725,0.091c-0.194,0.058-0.38,0.146-0.549,0.26
				c-0.16,0.109-0.297,0.25-0.404,0.411c-0.114,0.166-0.206,0.346-0.274,0.533c-0.078,0.213-0.135,0.434-0.167,0.656
				c-0.043,0.254-0.071,0.507-0.083,0.763c0,0.244,0,0.521,0,0.831c0.12-0.368,0.376-0.677,0.717-0.863
				c0.405-0.256,0.878-0.386,1.357-0.373c0.361-0.019,0.724,0.04,1.062,0.169c0.338,0.132,0.645,0.331,0.9,0.588
				c0.256,0.257,0.455,0.564,0.583,0.904c0.128,0.338,0.184,0.698,0.164,1.061c0.015,0.371-0.044,0.745-0.175,1.093
				c-0.13,0.347-0.331,0.667-0.588,0.936c-0.279,0.264-0.609,0.467-0.97,0.599c-0.36,0.131-0.744,0.188-1.127,0.165
				C224.66,312.894,224.228,312.825,223.82,312.678z M223.751,308.719c-0.31,0.382-0.481,0.858-0.481,1.351
				c0,0.491,0.171,0.969,0.481,1.351c0.163,0.177,0.363,0.316,0.585,0.409c0.223,0.09,0.463,0.129,0.704,0.115
				c0.243,0.018,0.487-0.02,0.715-0.106c0.227-0.087,0.434-0.222,0.604-0.396c0.32-0.38,0.483-0.869,0.457-1.365
				c0.021-0.483-0.125-0.96-0.412-1.35c-0.153-0.178-0.344-0.316-0.56-0.409c-0.216-0.091-0.449-0.131-0.683-0.117
				c-0.258-0.021-0.518,0.016-0.762,0.105S223.936,308.537,223.751,308.719z"/>
			<path d="M170.308,337.394c-0.059-0.054-0.104-0.117-0.135-0.189c-0.03-0.073-0.044-0.15-0.04-0.23v-6.681l-1.289,0.763
				c-0.071,0.045-0.153,0.067-0.236,0.067c-0.085-0.006-0.167-0.038-0.235-0.092c-0.067-0.055-0.116-0.128-0.141-0.211
				c-0.025-0.082-0.024-0.169,0.002-0.25c0.026-0.084,0.077-0.156,0.145-0.207l2.051-1.282c0.1-0.058,0.213-0.087,0.328-0.084
				c0.074-0.003,0.148,0.01,0.217,0.035c0.07,0.027,0.133,0.067,0.188,0.118c0.056,0.056,0.099,0.124,0.126,0.199
				c0.027,0.076,0.039,0.155,0.034,0.235v7.39c0.003,0.079-0.01,0.156-0.041,0.229c-0.03,0.072-0.076,0.137-0.135,0.189
				c-0.119,0.101-0.271,0.154-0.427,0.154C170.569,337.546,170.423,337.492,170.308,337.394z"/>
			<path d="M200.355,332.65c-0.285,0.501-0.653,0.95-1.091,1.327l-2.729,2.661h3.599c0.064-0.003,0.129,0.008,0.189,0.029
				c0.061,0.021,0.116,0.056,0.162,0.101c0.081,0.087,0.125,0.201,0.122,0.319c0.003,0.059-0.007,0.117-0.027,0.173
				c-0.021,0.056-0.053,0.105-0.095,0.147c-0.045,0.048-0.1,0.084-0.16,0.107s-0.125,0.033-0.19,0.03h-4.118
				c-0.202,0.007-0.401-0.056-0.563-0.176c-0.068-0.053-0.122-0.119-0.159-0.197c-0.037-0.076-0.056-0.161-0.055-0.245
				c0.004-0.111,0.032-0.222,0.081-0.323c0.048-0.1,0.117-0.19,0.202-0.264l3.111-3.149c0.273-0.274,0.512-0.581,0.709-0.915
				c0.146-0.252,0.225-0.539,0.229-0.831c0.008-0.212-0.029-0.423-0.107-0.619c-0.079-0.198-0.198-0.377-0.35-0.525
				c-0.149-0.143-0.325-0.254-0.516-0.328c-0.193-0.075-0.398-0.111-0.605-0.104c-0.256-0.007-0.512,0.02-0.762,0.075
				c-0.161,0.029-0.319,0.073-0.473,0.13c-0.145,0.063-0.286,0.137-0.42,0.221l-0.335,0.198c-0.056,0.024-0.115,0.037-0.176,0.038
				c-0.062,0-0.124-0.014-0.181-0.04c-0.057-0.027-0.107-0.064-0.147-0.112c-0.046-0.044-0.083-0.098-0.108-0.156
				s-0.038-0.123-0.037-0.188c0-0.076,0.022-0.151,0.063-0.215c0.041-0.064,0.098-0.116,0.166-0.151
				c0.357-0.225,0.738-0.408,1.137-0.549c0.43-0.139,0.881-0.203,1.333-0.19c0.691-0.021,1.362,0.231,1.869,0.701
				c0.241,0.216,0.433,0.479,0.564,0.773c0.131,0.294,0.199,0.612,0.199,0.936C200.685,331.796,200.572,332.247,200.355,332.65z"/>
			<path d="M222.745,337.227c-0.09-0.036-0.168-0.096-0.224-0.175c-0.055-0.078-0.087-0.173-0.089-0.269
				c-0.002-0.13,0.047-0.256,0.138-0.352c0.039-0.046,0.088-0.084,0.143-0.11c0.056-0.024,0.116-0.039,0.177-0.041
				c0.05-0.005,0.102-0.005,0.153,0c0.513,0.252,1.075,0.388,1.646,0.396c0.459,0.022,0.913-0.109,1.289-0.373
				c0.162-0.12,0.292-0.279,0.378-0.46c0.087-0.184,0.126-0.385,0.117-0.586c0.009-0.239-0.038-0.477-0.137-0.693
				c-0.1-0.217-0.249-0.407-0.435-0.557c-0.413-0.322-0.926-0.486-1.449-0.465h-0.435c-0.059,0.006-0.118-0.005-0.172-0.027
				c-0.055-0.021-0.103-0.057-0.141-0.104c-0.038-0.039-0.068-0.088-0.087-0.139c-0.02-0.055-0.029-0.109-0.026-0.165
				c-0.004-0.115,0.037-0.228,0.114-0.313c0.038-0.046,0.086-0.08,0.141-0.103s0.113-0.032,0.172-0.026h0.389
				c0.477,0.022,0.948-0.111,1.342-0.382c0.167-0.129,0.3-0.298,0.388-0.491c0.088-0.191,0.127-0.404,0.115-0.615
				c0.01-0.193-0.026-0.385-0.106-0.563c-0.08-0.175-0.2-0.33-0.351-0.45c-0.325-0.244-0.723-0.37-1.129-0.359
				c-0.609-0.004-1.21,0.138-1.753,0.412c-0.045,0.008-0.092,0.008-0.137,0c-0.063-0.002-0.125-0.019-0.181-0.05
				s-0.104-0.074-0.14-0.127c-0.089-0.104-0.137-0.237-0.137-0.374c-0.003-0.069,0.015-0.139,0.049-0.2
				c0.036-0.061,0.087-0.11,0.148-0.143c0.289-0.156,0.596-0.272,0.916-0.344c0.407-0.113,0.828-0.171,1.25-0.177
				c0.479-0.005,0.955,0.078,1.404,0.245c0.398,0.156,0.743,0.42,0.999,0.763c0.259,0.379,0.393,0.83,0.381,1.289
				c0.014,0.434-0.127,0.857-0.396,1.198c-0.279,0.326-0.643,0.57-1.053,0.701c0.481,0.098,0.91,0.369,1.206,0.761
				c0.304,0.409,0.462,0.908,0.45,1.418c0.005,0.376-0.079,0.747-0.244,1.084c-0.152,0.308-0.38,0.57-0.664,0.762
				c-0.282,0.19-0.593,0.331-0.922,0.42c-0.359,0.093-0.729,0.141-1.099,0.138C224.057,337.633,223.37,337.51,222.745,337.227z"/>
			<path d="M169.087,360.7c-0.334-0.15-0.632-0.371-0.87-0.648c-0.233-0.295-0.417-0.629-0.541-0.983
				c-0.145-0.385-0.244-0.783-0.298-1.189c-0.057-0.442-0.084-0.889-0.083-1.336c0-2.943,1.003-4.415,3.012-4.415
				c1.998,0,3.005,1.472,3.005,4.415c0.001,0.443-0.028,0.888-0.084,1.328c-0.054,0.405-0.154,0.804-0.297,1.19
				c-0.121,0.356-0.304,0.689-0.542,0.982c-0.234,0.278-0.529,0.499-0.861,0.647c-0.383,0.171-0.801,0.254-1.221,0.245
				C169.889,360.945,169.472,360.865,169.087,360.7z M170.903,359.853c0.168-0.072,0.32-0.176,0.45-0.305
				c0.125-0.143,0.231-0.301,0.313-0.473c0.088-0.181,0.16-0.37,0.213-0.564c0.057-0.213,0.097-0.43,0.122-0.648
				c0-0.244,0.054-0.465,0.061-0.671c0.008-0.206,0-0.419,0-0.648c0-0.228,0-0.48,0-0.686s0-0.435-0.061-0.679
				c-0.026-0.219-0.07-0.437-0.129-0.648c-0.053-0.195-0.124-0.384-0.213-0.565c-0.076-0.168-0.182-0.324-0.313-0.457
				c-0.127-0.128-0.281-0.229-0.45-0.297c-0.379-0.152-0.802-0.152-1.182,0c-0.165,0.067-0.315,0.165-0.442,0.29
				c-0.131,0.135-0.239,0.288-0.32,0.457c-0.089,0.181-0.161,0.37-0.214,0.564c-0.046,0.191-0.084,0.413-0.122,0.656
				c-0.039,0.243-0.053,0.465-0.062,0.679c-0.008,0.213,0,0.434,0,0.686s0,0.451,0,0.656c0,0.206,0,0.427,0.062,0.663
				c0.024,0.219,0.065,0.436,0.122,0.648c0.053,0.197,0.125,0.389,0.214,0.572c0.077,0.171,0.182,0.329,0.312,0.464
				c0.128,0.13,0.281,0.235,0.45,0.306c0.188,0.079,0.391,0.117,0.595,0.114C170.512,359.97,170.714,359.931,170.903,359.853z"/>
			<path d="M196.869,357.938c-0.248-0.253-0.385-0.597-0.381-0.952c0-0.182,0.037-0.36,0.108-0.528
				c0.073-0.166,0.179-0.316,0.313-0.44c0.143-0.142,0.315-0.252,0.504-0.325c0.189-0.072,0.391-0.105,0.593-0.093
				c0.403-0.014,0.796,0.135,1.09,0.411c0.134,0.126,0.241,0.277,0.313,0.444c0.071,0.167,0.109,0.35,0.107,0.532
				c0.002,0.185-0.034,0.368-0.105,0.537c-0.071,0.171-0.175,0.325-0.307,0.454c-0.146,0.138-0.319,0.245-0.507,0.316
				c-0.189,0.069-0.39,0.103-0.59,0.095c-0.21,0.009-0.42-0.027-0.615-0.105C197.195,358.205,197.018,358.088,196.869,357.938z"/>
			<path d="M252.234,257.486c-0.128-0.123-0.229-0.271-0.298-0.435c-0.069-0.164-0.105-0.341-0.105-0.518
				c0-0.178,0.036-0.353,0.105-0.519c0.068-0.163,0.17-0.311,0.298-0.435c0.296-0.259,0.673-0.4,1.064-0.4
				c0.39,0,0.77,0.142,1.063,0.4c0.131,0.122,0.235,0.27,0.308,0.433c0.071,0.163,0.105,0.341,0.105,0.521
				c0,0.179-0.034,0.355-0.104,0.521c-0.07,0.166-0.172,0.314-0.301,0.438c-0.295,0.261-0.676,0.406-1.068,0.406
				s-0.773-0.146-1.067-0.406V257.486L252.234,257.486z"/>
			<path d="M252.234,265.472c-0.129-0.125-0.231-0.277-0.3-0.442c-0.069-0.166-0.105-0.346-0.104-0.527
				c0-0.174,0.036-0.35,0.105-0.509c0.068-0.162,0.17-0.308,0.298-0.429c0.142-0.136,0.309-0.243,0.492-0.313
				c0.185-0.069,0.38-0.1,0.575-0.092c0.195-0.008,0.389,0.022,0.57,0.092c0.183,0.067,0.35,0.171,0.491,0.306
				c0.13,0.12,0.233,0.266,0.306,0.429c0.071,0.164,0.107,0.34,0.105,0.516c0.002,0.182-0.034,0.361-0.104,0.527
				c-0.069,0.165-0.172,0.317-0.301,0.442c-0.295,0.261-0.675,0.405-1.068,0.405C252.909,265.877,252.53,265.732,252.234,265.472z"
				/>
			<path d="M220.893,356.223c-0.067-0.063-0.12-0.141-0.157-0.226c-0.036-0.086-0.056-0.178-0.056-0.271
				c-0.005-0.097,0.013-0.195,0.052-0.283c0.038-0.092,0.096-0.17,0.169-0.236c0.156-0.135,0.358-0.206,0.564-0.197h8.488
				c0.1-0.005,0.2,0.01,0.294,0.044c0.095,0.034,0.182,0.087,0.255,0.153c0.078,0.062,0.139,0.141,0.181,0.232
				c0.041,0.09,0.06,0.188,0.056,0.287c0.001,0.096-0.02,0.191-0.06,0.278c-0.041,0.089-0.102,0.165-0.177,0.225
				c-0.152,0.131-0.348,0.203-0.549,0.199h-8.542C221.219,356.427,221.034,356.354,220.893,356.223z M220.893,360.135
				c-0.068-0.062-0.123-0.137-0.159-0.221c-0.038-0.084-0.056-0.176-0.054-0.267c-0.003-0.098,0.016-0.195,0.054-0.284
				s0.096-0.17,0.167-0.235c0.157-0.133,0.358-0.203,0.564-0.197h8.519c0.196-0.007,0.388,0.063,0.534,0.197
				c0.072,0.065,0.131,0.145,0.168,0.234c0.038,0.09,0.056,0.187,0.052,0.285c0.002,0.095-0.018,0.188-0.057,0.273
				c-0.041,0.086-0.099,0.161-0.172,0.221c-0.153,0.133-0.348,0.201-0.549,0.2h-8.579c-0.179,0-0.351-0.062-0.489-0.176V360.135z"/>
			<path d="M252.634,285.665l-2.388,3.203c-0.052,0.082-0.123,0.148-0.206,0.197c-0.084,0.049-0.178,0.074-0.274,0.078
				c-0.068,0-0.136-0.012-0.199-0.04c-0.063-0.024-0.119-0.063-0.167-0.113c-0.051-0.045-0.09-0.1-0.117-0.162
				c-0.027-0.061-0.043-0.128-0.043-0.195c0-0.119,0.041-0.235,0.114-0.328l2.662-3.478l-2.502-3.409
				c-0.061-0.072-0.093-0.165-0.092-0.26c0.002-0.077,0.02-0.152,0.052-0.222c0.035-0.07,0.082-0.132,0.141-0.183
				c0.112-0.112,0.266-0.175,0.426-0.175c0.092,0.001,0.182,0.025,0.262,0.07c0.08,0.046,0.147,0.111,0.196,0.188l2.287,3.104
				l2.288-3.096c0.056-0.083,0.129-0.15,0.214-0.198c0.087-0.049,0.184-0.073,0.281-0.076c0.132-0.002,0.257,0.047,0.351,0.137
				c0.047,0.041,0.084,0.091,0.109,0.148c0.023,0.056,0.038,0.118,0.036,0.18c-0.002,0.11-0.038,0.219-0.107,0.305l-2.568,3.455
				l2.554,3.493c0.066,0.088,0.104,0.195,0.107,0.306c-0.003,0.072-0.021,0.144-0.053,0.207c-0.034,0.064-0.081,0.121-0.139,0.166
				c-0.119,0.102-0.271,0.158-0.426,0.16c-0.09,0.002-0.178-0.019-0.258-0.061c-0.078-0.039-0.145-0.1-0.193-0.175L252.634,285.665z
				"/>
			<path d="M252.435,352.173c-0.079-0.083-0.141-0.181-0.182-0.288c-0.04-0.108-0.06-0.222-0.055-0.337v-3.959h-4.119
				c-0.233,0.007-0.46-0.077-0.632-0.236c-0.087-0.071-0.155-0.162-0.204-0.263c-0.048-0.102-0.072-0.212-0.072-0.324
				s0.024-0.223,0.072-0.323c0.049-0.102,0.117-0.193,0.204-0.265c0.176-0.153,0.405-0.232,0.641-0.221h4.117v-3.996
				c-0.003-0.114,0.016-0.229,0.056-0.334c0.041-0.106,0.102-0.202,0.181-0.284c0.075-0.087,0.17-0.156,0.275-0.2
				c0.106-0.045,0.221-0.066,0.335-0.059c0.114-0.004,0.228,0.019,0.331,0.06c0.105,0.043,0.201,0.109,0.278,0.19
				c0.081,0.085,0.141,0.183,0.181,0.29c0.041,0.106,0.06,0.221,0.056,0.337v3.996h4.125c0.234-0.007,0.461,0.072,0.642,0.221
				c0.085,0.072,0.152,0.163,0.199,0.265s0.07,0.212,0.068,0.323c0.002,0.111-0.021,0.222-0.068,0.322s-0.114,0.192-0.199,0.265
				c-0.174,0.159-0.404,0.241-0.642,0.236h-4.125v3.959c0.004,0.112-0.019,0.224-0.057,0.329c-0.041,0.104-0.101,0.199-0.18,0.28
				c-0.075,0.088-0.169,0.155-0.274,0.2c-0.106,0.044-0.221,0.066-0.337,0.059c-0.114,0.006-0.228-0.014-0.335-0.056
				C252.611,352.319,252.515,352.255,252.435,352.173z"/>
			<path d="M138.109,311.77c-0.057-0.059-0.104-0.129-0.133-0.207c-0.03-0.077-0.044-0.159-0.042-0.241v-2.884h-2.99
				c-0.17,0.006-0.337-0.055-0.465-0.167c-0.062-0.054-0.111-0.119-0.145-0.193c-0.033-0.074-0.051-0.154-0.051-0.235
				s0.018-0.16,0.051-0.234c0.034-0.073,0.083-0.139,0.145-0.191c0.131-0.112,0.299-0.173,0.473-0.169h2.988v-2.882
				c-0.002-0.17,0.06-0.334,0.176-0.458c0.056-0.061,0.125-0.108,0.2-0.14c0.077-0.032,0.159-0.047,0.242-0.043
				c0.083-0.002,0.164,0.013,0.241,0.045c0.076,0.03,0.144,0.078,0.202,0.138c0.116,0.124,0.178,0.288,0.175,0.458v2.896h3.005
				c0.168,0,0.33,0.059,0.458,0.168c0.063,0.052,0.114,0.117,0.148,0.191c0.034,0.074,0.051,0.155,0.049,0.236
				c0,0.08-0.017,0.161-0.049,0.234s-0.081,0.14-0.142,0.192c-0.128,0.114-0.294,0.174-0.465,0.168h-3.005v2.883
				c0.002,0.164-0.062,0.323-0.175,0.442c-0.056,0.063-0.124,0.111-0.2,0.145c-0.077,0.034-0.16,0.049-0.243,0.047
				c-0.085,0.002-0.169-0.015-0.248-0.049C138.234,311.886,138.165,311.834,138.109,311.77z"/>
			<path d="M248.422,309.33c-0.055-0.034-0.102-0.083-0.132-0.139c-0.031-0.056-0.049-0.122-0.049-0.186
				c0-0.065,0.018-0.13,0.049-0.186c0.03-0.057,0.077-0.104,0.132-0.139c0.153-0.101,0.336-0.148,0.519-0.137h8.213
				c0.181-0.012,0.36,0.036,0.512,0.137c0.054,0.037,0.099,0.086,0.129,0.142c0.033,0.059,0.052,0.121,0.054,0.186
				c-0.002,0.065-0.021,0.128-0.052,0.184c-0.032,0.055-0.077,0.103-0.131,0.138c-0.151,0.101-0.331,0.147-0.512,0.137h-8.213
				C248.758,309.478,248.575,309.431,248.422,309.33z"/>
			<path d="M144.143,313.395c-0.042-0.042-0.074-0.093-0.097-0.147c-0.022-0.055-0.033-0.114-0.033-0.174
				c-0.001-0.121,0.045-0.239,0.129-0.328c0.044-0.045,0.097-0.082,0.156-0.104c0.059-0.023,0.123-0.035,0.187-0.03h5.552
				c0.064-0.007,0.129,0.006,0.189,0.03c0.06,0.025,0.112,0.063,0.154,0.113c0.083,0.087,0.129,0.201,0.13,0.319
				c0.001,0.06-0.01,0.119-0.032,0.175c-0.022,0.055-0.056,0.104-0.099,0.146c-0.043,0.047-0.097,0.083-0.156,0.106
				s-0.123,0.034-0.187,0.031h-5.552c-0.064,0.002-0.128-0.008-0.187-0.031S144.187,313.441,144.143,313.395z"/>
			<path d="M140.947,315.042c-0.056,0.051-0.125,0.085-0.199,0.099c-0.074,0.015-0.151,0.007-0.221-0.022
				c-0.106-0.062-0.152-0.199-0.145-0.396c0.027-0.272,0.119-0.533,0.267-0.763l6.102-10.592c0.113-0.24,0.287-0.444,0.503-0.596
				c0.056-0.052,0.125-0.087,0.199-0.099c0.075-0.014,0.151-0.005,0.221,0.022c0.106,0.061,0.152,0.198,0.137,0.397
				c-0.028,0.271-0.12,0.533-0.267,0.761l-6.102,10.593C141.324,314.68,141.154,314.883,140.947,315.042z"/>
			<path d="M248.422,260.896c-0.055-0.035-0.102-0.082-0.132-0.139c-0.031-0.058-0.049-0.12-0.049-0.187
				c0-0.064,0.018-0.128,0.049-0.185c0.03-0.058,0.077-0.105,0.132-0.139c0.153-0.101,0.336-0.148,0.519-0.138h8.213
				c0.181-0.011,0.36,0.037,0.512,0.138c0.054,0.036,0.099,0.085,0.129,0.143c0.033,0.056,0.052,0.12,0.054,0.186
				c-0.002,0.063-0.021,0.126-0.052,0.182c-0.032,0.057-0.077,0.104-0.131,0.139c-0.151,0.1-0.331,0.148-0.512,0.137h-8.213
				C248.758,261.045,248.575,260.996,248.422,260.896z"/>
			<path d="M165.931,265.091c-0.137-0.1-0.246-0.235-0.313-0.39l-2.791-6.261v6.513c0.002,0.062-0.011,0.124-0.04,0.181
				c-0.027,0.056-0.069,0.104-0.121,0.141c-0.117,0.075-0.255,0.117-0.396,0.113c-0.138,0.002-0.274-0.038-0.389-0.113
				c-0.052-0.037-0.095-0.083-0.125-0.14s-0.044-0.118-0.043-0.182v-7.107c0.001-0.11,0.026-0.221,0.074-0.32
				c0.047-0.101,0.116-0.188,0.201-0.259c0.168-0.139,0.376-0.219,0.593-0.228c0.218-0.01,0.431,0.051,0.612,0.174
				c0.192,0.13,0.34,0.317,0.427,0.533l2.715,6.033l2.7-6.01c0.082-0.218,0.228-0.404,0.419-0.534
				c0.181-0.122,0.395-0.184,0.612-0.175c0.217,0.012,0.425,0.092,0.594,0.229c0.084,0.071,0.153,0.159,0.2,0.26
				c0.048,0.098,0.073,0.209,0.073,0.319v7.085c0.003,0.063-0.01,0.128-0.041,0.183c-0.029,0.057-0.073,0.103-0.127,0.138
				c-0.115,0.075-0.25,0.116-0.389,0.114c-0.138,0.005-0.275-0.035-0.389-0.114c-0.054-0.035-0.097-0.081-0.127-0.138
				c-0.029-0.056-0.043-0.12-0.04-0.183v-6.513l-2.768,6.268c-0.065,0.157-0.171,0.29-0.305,0.39
				c-0.12,0.087-0.264,0.134-0.412,0.138C166.188,265.23,166.047,265.18,165.931,265.091z"/>
			<path d="M173.289,265.296c-0.062-0.052-0.11-0.118-0.142-0.192s-0.046-0.154-0.041-0.235v-7.383
				c-0.001-0.077,0.015-0.154,0.046-0.226s0.079-0.134,0.137-0.186c0.056-0.055,0.122-0.102,0.196-0.131
				c0.073-0.029,0.152-0.046,0.231-0.045h2.593c0.301-0.003,0.602,0.016,0.9,0.056c0.28,0.032,0.557,0.098,0.824,0.189
				c0.251,0.084,0.486,0.211,0.694,0.374c0.198,0.17,0.355,0.384,0.458,0.625c0.124,0.286,0.184,0.596,0.175,0.907
				c0.015,0.461-0.146,0.911-0.45,1.259c-0.358,0.378-0.835,0.623-1.351,0.694c0.447,0.086,0.849,0.326,1.138,0.677
				c0.29,0.351,0.448,0.79,0.448,1.244l0.214,1.877c0.004,0.027,0.004,0.056,0,0.084c0.002,0.072-0.011,0.146-0.04,0.213
				s-0.072,0.127-0.128,0.175c-0.108,0.099-0.25,0.155-0.396,0.153c-0.157,0.003-0.311-0.048-0.435-0.145
				c-0.065-0.045-0.119-0.104-0.157-0.173c-0.038-0.069-0.06-0.146-0.063-0.224l-0.183-1.671c-0.028-0.285-0.076-0.569-0.145-0.846
				c-0.046-0.191-0.141-0.368-0.275-0.511c-0.124-0.138-0.286-0.233-0.465-0.274c-0.251-0.053-0.507-0.074-0.763-0.069h-1.998v3.332
				c0.004,0.08-0.01,0.162-0.041,0.235c-0.032,0.074-0.081,0.141-0.142,0.191c-0.121,0.1-0.271,0.155-0.427,0.154
				C173.553,265.434,173.406,265.388,173.289,265.296z M176.057,260.613c0.237,0,0.45,0,0.634,0c0.191-0.023,0.38-0.064,0.564-0.122
				c0.171-0.05,0.333-0.133,0.473-0.244c0.132-0.114,0.236-0.258,0.305-0.419c0.085-0.2,0.126-0.416,0.123-0.633
				c0.001-0.18-0.027-0.357-0.084-0.527c-0.044-0.14-0.126-0.268-0.236-0.366c-0.097-0.089-0.205-0.166-0.321-0.229
				c-0.133-0.062-0.274-0.104-0.419-0.121l-0.435-0.107h-2.348v2.752L176.057,260.613z"/>
			<path d="M193.896,265.091c-0.139-0.098-0.248-0.233-0.313-0.39l-2.791-6.261v6.513c0.002,0.063-0.012,0.128-0.041,0.183
				c-0.029,0.058-0.073,0.104-0.127,0.139c-0.114,0.078-0.25,0.118-0.389,0.113c-0.138,0.002-0.274-0.038-0.389-0.113
				c-0.054-0.035-0.098-0.081-0.127-0.139c-0.029-0.055-0.043-0.119-0.041-0.183v-7.107c0-0.11,0.026-0.221,0.073-0.32
				c0.048-0.101,0.117-0.188,0.202-0.26c0.176-0.15,0.401-0.231,0.633-0.229c0.205,0,0.403,0.06,0.572,0.176
				c0.191,0.13,0.34,0.317,0.427,0.533l2.714,6.033l2.715-6.033c0.083-0.216,0.229-0.4,0.419-0.533
				c0.176-0.102,0.378-0.146,0.58-0.131c0.233-0.003,0.461,0.079,0.64,0.229c0.084,0.07,0.154,0.161,0.202,0.261
				c0.046,0.099,0.072,0.209,0.073,0.319v7.084c0.001,0.063-0.014,0.127-0.043,0.181c-0.03,0.058-0.073,0.104-0.125,0.141
				c-0.115,0.075-0.25,0.115-0.389,0.113c-0.14,0.004-0.279-0.036-0.397-0.113c-0.051-0.037-0.093-0.084-0.12-0.141
				c-0.028-0.055-0.042-0.118-0.04-0.181v-6.511l-2.799,6.244c-0.064,0.157-0.173,0.292-0.313,0.389
				c-0.116,0.089-0.257,0.139-0.404,0.139c-0.146,0-0.288-0.051-0.404-0.139V265.091L193.896,265.091z"/>
			<path d="M200.378,262.589c-0.042-0.035-0.076-0.079-0.099-0.13c-0.022-0.05-0.033-0.104-0.031-0.16
				c-0.002-0.058,0.009-0.113,0.031-0.167c0.022-0.053,0.057-0.101,0.099-0.139c0.096-0.084,0.223-0.127,0.351-0.121h2.662
				c0.062-0.005,0.125,0.004,0.184,0.025c0.058,0.021,0.113,0.055,0.159,0.096c0.045,0.037,0.081,0.084,0.104,0.136
				c0.024,0.055,0.035,0.11,0.033,0.169c0.002,0.057-0.009,0.112-0.033,0.162c-0.024,0.052-0.06,0.095-0.104,0.129
				c-0.097,0.078-0.219,0.118-0.343,0.114h-2.662C200.602,262.708,200.478,262.668,200.378,262.589z"/>
			<path d="M221.853,265.091c-0.137-0.1-0.245-0.235-0.312-0.39l-2.784-6.261v6.513c0.003,0.063-0.011,0.128-0.041,0.183
				c-0.029,0.058-0.073,0.104-0.127,0.139c-0.114,0.07-0.246,0.108-0.381,0.108c-0.135,0-0.267-0.038-0.382-0.108
				c-0.053-0.035-0.097-0.081-0.127-0.139c-0.03-0.055-0.044-0.119-0.04-0.183v-7.107c0.001-0.11,0.025-0.221,0.074-0.32
				c0.046-0.101,0.115-0.188,0.2-0.259c0.176-0.152,0.401-0.234,0.633-0.229c0.202-0.001,0.399,0.06,0.565,0.176
				c0.193,0.129,0.343,0.315,0.427,0.533l2.723,6.033l2.715-6.033c0.084-0.216,0.229-0.4,0.419-0.533
				c0.179-0.123,0.394-0.184,0.612-0.174c0.216,0.009,0.425,0.089,0.593,0.228c0.086,0.07,0.154,0.158,0.202,0.259
				c0.047,0.1,0.073,0.21,0.073,0.32v7.085c0.003,0.063-0.012,0.128-0.041,0.182c-0.029,0.058-0.073,0.104-0.127,0.139
				c-0.111,0.077-0.245,0.117-0.381,0.113c-0.141,0.005-0.279-0.035-0.396-0.113c-0.053-0.036-0.095-0.084-0.124-0.14
				c-0.03-0.057-0.044-0.118-0.044-0.181v-6.513l-2.799,6.291c-0.067,0.156-0.175,0.29-0.312,0.389
				c-0.118,0.088-0.259,0.135-0.405,0.139C222.117,265.23,221.973,265.181,221.853,265.091z"/>
			<path d="M231.646,265.297c-0.041-0.043-0.074-0.092-0.094-0.148c-0.021-0.055-0.031-0.113-0.028-0.173v-2.074h-2.159
				c-0.123,0.003-0.242-0.041-0.335-0.121c-0.044-0.038-0.079-0.086-0.103-0.139c-0.023-0.052-0.035-0.109-0.034-0.166
				c-0.003-0.059,0.008-0.119,0.032-0.172c0.024-0.055,0.061-0.103,0.105-0.141c0.093-0.078,0.213-0.119,0.335-0.114h2.159v-2.09
				c-0.005-0.121,0.039-0.239,0.122-0.327c0.04-0.044,0.091-0.079,0.146-0.101c0.056-0.022,0.115-0.031,0.174-0.029
				c0.059-0.002,0.118,0.008,0.171,0.031c0.054,0.021,0.103,0.056,0.142,0.099c0.086,0.088,0.131,0.205,0.13,0.327v2.09h2.158
				c0.122-0.002,0.24,0.038,0.336,0.114c0.045,0.038,0.08,0.088,0.104,0.141c0.022,0.054,0.034,0.113,0.031,0.172
				c0.001,0.057-0.011,0.115-0.035,0.166c-0.022,0.053-0.058,0.101-0.101,0.139c-0.093,0.082-0.213,0.125-0.336,0.121h-2.158v2.074
				c-0.001,0.12-0.047,0.235-0.13,0.321c-0.039,0.041-0.088,0.074-0.143,0.097c-0.054,0.022-0.111,0.033-0.17,0.032
				c-0.059,0.005-0.119-0.005-0.174-0.027C231.734,265.376,231.686,265.342,231.646,265.297z"/>
			<path fill="none" stroke="#000000" stroke-miterlimit="10" d="M221.272,237.255l3.432,4.575l3.813-6.863h3.813"/>
			<path fill="#333333" d="M141.807,125.843c-1.183-0.082-2.145-0.237-2.884-0.465c-0.723-0.246-1.265-0.467-1.626-0.663
				l0.838-2.331c0.526,0.262,1.158,0.5,1.898,0.712c0.756,0.213,1.61,0.319,2.563,0.319c1.134,0,1.914-0.163,2.341-0.49
				c0.444-0.344,0.665-0.793,0.665-1.349c0-0.376-0.09-0.704-0.271-0.981c-0.181-0.278-0.436-0.523-0.764-0.736
				c-0.328-0.212-0.722-0.408-1.183-0.589c-0.444-0.179-0.937-0.368-1.479-0.563c-0.509-0.18-1.018-0.385-1.527-0.614
				c-0.494-0.229-0.945-0.506-1.355-0.833c-0.396-0.343-0.715-0.752-0.962-1.226c-0.246-0.475-0.369-1.056-0.369-1.742
				c0-1.128,0.337-2.084,1.01-2.87c0.674-0.801,1.709-1.316,3.105-1.545v-2.748h2.563v2.649c0.79,0.065,1.496,0.18,2.12,0.343
				c0.624,0.148,1.118,0.294,1.479,0.442l-0.616,2.428c-0.477-0.181-1.043-0.351-1.701-0.516c-0.641-0.163-1.38-0.245-2.218-0.245
				c-0.887,0-1.552,0.164-1.996,0.491c-0.444,0.312-0.666,0.744-0.666,1.3c0,0.327,0.065,0.605,0.197,0.835
				c0.132,0.212,0.329,0.408,0.592,0.588c0.263,0.163,0.583,0.327,0.96,0.491c0.378,0.146,0.805,0.302,1.282,0.466
				c0.674,0.262,1.307,0.539,1.898,0.833c0.608,0.278,1.133,0.613,1.577,1.006c0.444,0.376,0.789,0.826,1.035,1.349
				c0.264,0.523,0.395,1.145,0.395,1.864c0,1.079-0.337,2.011-1.011,2.796c-0.673,0.785-1.782,1.292-3.327,1.521v3.066h-2.563
				V125.843z"/>
			<g>
				<path d="M159.693,126.575h-3.243v-12.502l-3.872,1.2v-2.637l6.767-2.424h0.348V126.575L159.693,126.575z"/>
				<path d="M174.597,120.425h1.852v2.615h-1.852v3.535h-3.243v-3.535h-6.7l-0.146-2.043l6.812-10.763h3.277V120.425z
					 M167.74,120.425h3.614v-5.768l-0.213,0.37L167.74,120.425z"/>
				<path d="M179.164,130.671l-1.694-0.887l0.404-0.729c0.501-0.913,0.759-1.822,0.774-2.727v-2.514h2.739l-0.012,2.244
					c-0.007,0.83-0.217,1.668-0.628,2.514S179.808,130.117,179.164,130.671z"/>
				<path d="M184.282,118.54l0.942-8.305h9.158v2.705h-6.499l-0.404,3.513c0.771-0.411,1.589-0.617,2.457-0.617
					c1.556,0,2.776,0.482,3.659,1.448c0.883,0.965,1.324,2.316,1.324,4.051c0,1.055-0.223,2-0.667,2.834s-1.083,1.481-1.914,1.941
					c-0.831,0.459-1.811,0.69-2.94,0.69c-0.988,0-1.904-0.201-2.749-0.6c-0.845-0.399-1.514-0.964-2.003-1.689
					s-0.75-1.552-0.779-2.48h3.209c0.067,0.681,0.305,1.21,0.712,1.588s0.941,0.566,1.599,0.566c0.733,0,1.298-0.263,1.694-0.791
					c0.397-0.527,0.595-1.274,0.595-2.239c0-0.928-0.228-1.639-0.684-2.132c-0.456-0.494-1.104-0.741-1.941-0.741
					c-0.771,0-1.396,0.202-1.874,0.606l-0.314,0.291L184.282,118.54z"/>
				<path d="M197.468,118.54l0.942-8.305h9.158v2.705h-6.499l-0.404,3.513c0.771-0.411,1.589-0.617,2.457-0.617
					c1.556,0,2.776,0.482,3.659,1.448c0.883,0.965,1.324,2.316,1.324,4.051c0,1.055-0.223,2-0.667,2.834s-1.083,1.481-1.914,1.941
					c-0.831,0.459-1.811,0.69-2.94,0.69c-0.988,0-1.904-0.201-2.749-0.6c-0.845-0.399-1.514-0.964-2.003-1.689
					s-0.75-1.552-0.779-2.48h3.209c0.067,0.681,0.305,1.21,0.712,1.588s0.941,0.566,1.599,0.566c0.733,0,1.298-0.263,1.694-0.791
					c0.397-0.527,0.595-1.274,0.595-2.239c0-0.928-0.228-1.639-0.684-2.132c-0.456-0.494-1.104-0.741-1.941-0.741
					c-0.771,0-1.396,0.202-1.874,0.606l-0.314,0.291L197.468,118.54z"/>
				<path d="M221.171,119.819c0,2.259-0.468,3.988-1.403,5.185c-0.936,1.197-2.305,1.795-4.107,1.795
					c-1.781,0-3.143-0.588-4.085-1.762c-0.942-1.173-1.425-2.858-1.448-5.05v-3.007c0-2.283,0.473-4.014,1.42-5.196
					c0.946-1.182,2.31-1.773,4.09-1.773c1.78,0,3.142,0.585,4.085,1.757c0.942,1.171,1.425,2.853,1.448,5.045V119.819z
					 M217.927,116.513c0-1.355-0.185-2.342-0.555-2.96c-0.371-0.618-0.949-0.927-1.734-0.927c-0.763,0-1.326,0.294-1.689,0.882
					c-0.363,0.588-0.555,1.507-0.578,2.758v3.978c0,1.333,0.181,2.323,0.544,2.971c0.363,0.648,0.944,0.971,1.745,0.971
					c0.792,0,1.365-0.311,1.716-0.933c0.352-0.621,0.535-1.573,0.55-2.854V116.513L217.927,116.513z"/>
				<path d="M223.662,124.981c0-0.517,0.174-0.936,0.521-1.257s0.784-0.482,1.308-0.482c0.531,0,0.971,0.161,1.317,0.482
					c0.35,0.322,0.523,0.741,0.523,1.257c0,0.509-0.171,0.922-0.516,1.24c-0.345,0.318-0.786,0.477-1.324,0.477
					c-0.532,0-0.969-0.159-1.313-0.477C223.834,125.903,223.662,125.49,223.662,124.981z"/>
				<path d="M241.035,119.819c0,2.259-0.468,3.988-1.402,5.185c-0.936,1.197-2.304,1.795-4.107,1.795
					c-1.782,0-3.143-0.588-4.085-1.762c-0.942-1.173-1.425-2.858-1.448-5.05v-3.007c0-2.283,0.473-4.014,1.419-5.196
					c0.947-1.182,2.31-1.773,4.091-1.773s3.144,0.585,4.085,1.757c0.942,1.171,1.426,2.853,1.448,5.045V119.819z M237.792,116.513
					c0-1.355-0.187-2.342-0.556-2.96c-0.371-0.618-0.948-0.927-1.734-0.927c-0.763,0-1.326,0.294-1.689,0.882
					c-0.362,0.588-0.554,1.507-0.576,2.758v3.978c0,1.333,0.181,2.323,0.543,2.971c0.363,0.648,0.945,0.971,1.746,0.971
					c0.792,0,1.365-0.311,1.716-0.933c0.352-0.621,0.535-1.573,0.551-2.854V116.513L237.792,116.513z"/>
				<path d="M254.222,119.819c0,2.259-0.468,3.988-1.403,5.185c-0.935,1.197-2.303,1.795-4.106,1.795
					c-1.781,0-3.144-0.588-4.085-1.762c-0.942-1.173-1.426-2.858-1.448-5.05v-3.007c0-2.283,0.474-4.014,1.42-5.196
					c0.946-1.182,2.309-1.773,4.09-1.773c1.782,0,3.143,0.585,4.085,1.757s1.426,2.853,1.448,5.045V119.819z M250.978,116.513
					c0-1.355-0.185-2.342-0.556-2.96c-0.369-0.618-0.948-0.927-1.733-0.927c-0.763,0-1.326,0.294-1.688,0.882
					s-0.556,1.507-0.578,2.758v3.978c0,1.333,0.181,2.323,0.544,2.971c0.364,0.648,0.945,0.971,1.746,0.971
					c0.793,0,1.365-0.311,1.717-0.933c0.351-0.621,0.534-1.573,0.549-2.854V116.513z"/>
			</g>
			<g enable-background="new    ">
				<path fill="#FFFFFF" d="M146.25,157.71h-2.105v5.726h-1.416v-5.726h-2.077v-1.146h5.598V157.71z"/>
				<path fill="#FFFFFF" d="M149.135,163.435c-0.063-0.123-0.109-0.275-0.137-0.458c-0.331,0.369-0.759,0.553-1.289,0.553
					c-0.5,0-0.915-0.145-1.244-0.434c-0.33-0.29-0.493-0.655-0.493-1.096c0-0.541,0.201-0.957,0.602-1.246
					c0.401-0.289,0.98-0.436,1.739-0.439h0.627v-0.292c0-0.236-0.061-0.425-0.181-0.567c-0.122-0.142-0.313-0.212-0.574-0.212
					c-0.229,0-0.409,0.055-0.54,0.165c-0.13,0.111-0.196,0.261-0.196,0.454h-1.364c0-0.295,0.092-0.57,0.274-0.821
					c0.183-0.252,0.441-0.449,0.774-0.592c0.333-0.143,0.708-0.215,1.124-0.215c0.629,0,1.128,0.158,1.5,0.475
					c0.37,0.316,0.554,0.76,0.554,1.333v2.214c0.002,0.484,0.072,0.851,0.202,1.1v0.08H149.135z M148.006,162.486
					c0.201,0,0.387-0.044,0.557-0.134c0.169-0.09,0.295-0.21,0.377-0.361v-0.879h-0.51c-0.682,0-1.047,0.236-1.09,0.708
					l-0.004,0.081c0,0.169,0.06,0.309,0.18,0.42C147.635,162.432,147.798,162.486,148.006,162.486z"/>
				<path fill="#FFFFFF" d="M153.302,159.853l0.859-1.525h1.458l-1.454,2.502l1.515,2.604h-1.463l-0.912-1.604l-0.906,1.604h-1.467
					l1.515-2.604l-1.45-2.502h1.464L153.302,159.853z"/>
			</g>
			<g>
				<path fill="#FFFFFF" d="M201.541,191.141c-0.078,1.084-0.479,1.938-1.201,2.562c-0.722,0.623-1.675,0.935-2.856,0.935
					c-1.292,0-2.309-0.435-3.051-1.306s-1.111-2.064-1.111-3.584v-0.616c0-0.97,0.171-1.824,0.513-2.562
					c0.342-0.738,0.83-1.306,1.464-1.7c0.635-0.394,1.372-0.591,2.213-0.591c1.164,0,2.101,0.312,2.812,0.935
					c0.71,0.624,1.122,1.498,1.232,2.625h-2.077c-0.051-0.65-0.231-1.123-0.543-1.416c-0.312-0.292-0.786-0.44-1.423-0.44
					c-0.692,0-1.211,0.248-1.555,0.744c-0.344,0.496-0.52,1.266-0.529,2.309v0.762c0,1.089,0.165,1.885,0.495,2.39
					c0.331,0.503,0.851,0.755,1.563,0.755c0.642,0,1.121-0.147,1.437-0.439c0.315-0.293,0.498-0.747,0.543-1.361H201.541z"/>
				<path fill="#FFFFFF" d="M207.115,194.499c-0.092-0.18-0.159-0.404-0.201-0.671c-0.484,0.54-1.114,0.811-1.891,0.811
					c-0.734,0-1.343-0.212-1.825-0.637c-0.482-0.424-0.723-0.96-0.723-1.606c0-0.794,0.294-1.403,0.883-1.828
					c0.588-0.425,1.439-0.64,2.551-0.644h0.921v-0.43c0-0.346-0.089-0.623-0.267-0.831c-0.177-0.208-0.458-0.312-0.841-0.312
					c-0.337,0-0.601,0.081-0.793,0.243c-0.191,0.162-0.287,0.383-0.287,0.665h-2.001c0-0.435,0.133-0.836,0.402-1.206
					c0.268-0.369,0.646-0.659,1.136-0.869c0.489-0.21,1.039-0.314,1.647-0.314c0.923,0,1.657,0.231,2.199,0.695
					c0.543,0.464,0.814,1.116,0.814,1.957v3.248c0.004,0.711,0.103,1.249,0.297,1.613v0.118L207.115,194.499L207.115,194.499z
					 M205.46,193.107c0.295,0,0.567-0.066,0.817-0.197c0.249-0.132,0.434-0.309,0.554-0.53v-1.288h-0.748
					c-1.001,0-1.535,0.347-1.6,1.039l-0.007,0.117c0,0.25,0.087,0.455,0.263,0.617C204.915,193.026,205.156,193.107,205.46,193.107z
					"/>
				<path fill="#FFFFFF" d="M212.489,194.499h-2.008v-10.636h2.008V194.499z"/>
				<path fill="#FFFFFF" d="M217.254,193.024c0.369,0,0.669-0.102,0.9-0.305c0.231-0.204,0.351-0.473,0.36-0.811h1.876
					c-0.004,0.508-0.143,0.973-0.416,1.396c-0.272,0.422-0.645,0.75-1.118,0.983c-0.473,0.233-0.996,0.35-1.569,0.35
					c-1.071,0-1.916-0.34-2.534-1.021s-0.928-1.621-0.928-2.822v-0.131c0-1.154,0.307-2.075,0.921-2.763
					c0.615-0.688,1.457-1.032,2.528-1.032c0.937,0,1.688,0.266,2.254,0.8c0.566,0.533,0.853,1.243,0.862,2.13h-1.876
					c-0.009-0.39-0.129-0.707-0.36-0.951c-0.231-0.244-0.535-0.365-0.914-0.365c-0.466,0-0.819,0.169-1.057,0.509
					c-0.237,0.34-0.356,0.891-0.356,1.654v0.208c0,0.772,0.117,1.327,0.353,1.664C216.415,192.855,216.774,193.024,217.254,193.024z
					"/>
				<path fill="#FFFFFF" d="M226.021,193.737c-0.494,0.601-1.177,0.901-2.05,0.901c-0.803,0-1.416-0.231-1.839-0.692
					c-0.422-0.461-0.638-1.139-0.647-2.029v-4.91h2.001v4.846c0,0.781,0.355,1.171,1.067,1.171c0.679,0,1.145-0.236,1.399-0.707
					v-5.311h2.007v7.493h-1.883L226.021,193.737z"/>
				<path fill="#FFFFFF" d="M231.581,194.499h-2.008v-10.636h2.008V194.499z"/>
				<path fill="#FFFFFF" d="M237.571,194.499c-0.093-0.18-0.16-0.404-0.201-0.671c-0.485,0.54-1.116,0.811-1.892,0.811
					c-0.733,0-1.342-0.212-1.824-0.637c-0.481-0.425-0.723-0.96-0.723-1.606c0-0.794,0.294-1.403,0.883-1.828
					c0.589-0.425,1.439-0.64,2.552-0.644h0.922v-0.43c0-0.346-0.09-0.623-0.268-0.831c-0.178-0.208-0.458-0.312-0.841-0.312
					c-0.337,0-0.601,0.081-0.793,0.243c-0.191,0.162-0.286,0.383-0.286,0.665h-2.002c0-0.435,0.132-0.836,0.401-1.206
					c0.268-0.369,0.646-0.659,1.135-0.869c0.49-0.21,1.04-0.314,1.648-0.314c0.924,0,1.656,0.231,2.198,0.695
					s0.813,1.116,0.813,1.957v3.248c0.005,0.711,0.104,1.249,0.298,1.613v0.118L237.571,194.499L237.571,194.499z M235.915,193.107
					c0.298,0,0.569-0.066,0.818-0.197c0.249-0.132,0.434-0.309,0.555-0.53v-1.288h-0.749c-1.002,0-1.535,0.347-1.6,1.039
					l-0.007,0.117c0,0.25,0.088,0.455,0.263,0.617C235.37,193.026,235.61,193.107,235.915,193.107z"/>
				<path fill="#FFFFFF" d="M243.229,185.164v1.842h1.281v1.469h-1.281v3.739c0,0.276,0.054,0.476,0.159,0.596s0.31,0.18,0.609,0.18
					c0.222,0,0.417-0.017,0.588-0.048v1.517c-0.392,0.12-0.796,0.181-1.211,0.181c-1.403,0-2.118-0.709-2.147-2.126v-4.037h-1.094
					v-1.468h1.094v-1.842L243.229,185.164L243.229,185.164z"/>
				<path fill="#FFFFFF" d="M245.105,190.683c0-0.743,0.143-1.405,0.429-1.987c0.286-0.582,0.697-1.032,1.235-1.35
					c0.538-0.318,1.161-0.478,1.873-0.478c1.011,0,1.836,0.309,2.476,0.927c0.64,0.619,0.996,1.458,1.07,2.521l0.014,0.513
					c0,1.15-0.319,2.072-0.962,2.767c-0.643,0.695-1.504,1.042-2.583,1.042c-1.081,0-1.942-0.347-2.587-1.039
					s-0.966-1.634-0.966-2.825L245.105,190.683L245.105,190.683z M247.107,190.826c0,0.712,0.133,1.256,0.4,1.634
					c0.27,0.377,0.65,0.565,1.149,0.565c0.485,0,0.864-0.186,1.136-0.559c0.273-0.371,0.41-0.967,0.41-1.786
					c0-0.698-0.137-1.239-0.41-1.622c-0.272-0.385-0.655-0.576-1.149-0.576c-0.49,0-0.866,0.191-1.136,0.572
					C247.24,189.435,247.107,190.025,247.107,190.826z"/>
				<path fill="#FFFFFF" d="M257.646,188.883c-0.271-0.037-0.513-0.056-0.719-0.056c-0.757,0-1.254,0.256-1.489,0.769v4.902h-2.002
					v-7.493h1.892l0.056,0.893c0.401-0.688,0.957-1.031,1.669-1.031c0.221,0,0.429,0.03,0.622,0.09L257.646,188.883z"/>
			</g>
			<g>
				<path fill="#FFDFA6" d="M146.212,150.331c-0.064,0.873-0.386,1.561-0.969,2.063c-0.581,0.502-1.348,0.754-2.299,0.754
					c-1.041,0-1.86-0.35-2.458-1.052c-0.596-0.701-0.895-1.663-0.895-2.885v-0.497c0-0.781,0.138-1.469,0.413-2.063
					c0.275-0.594,0.668-1.05,1.179-1.369c0.512-0.319,1.105-0.478,1.783-0.478c0.937,0,1.691,0.252,2.264,0.753
					c0.571,0.502,0.903,1.206,0.992,2.113h-1.673c-0.04-0.524-0.186-0.903-0.437-1.14c-0.252-0.236-0.632-0.353-1.145-0.353
					c-0.559,0-0.975,0.2-1.254,0.599c-0.275,0.399-0.417,1.02-0.425,1.86v0.613c0,0.878,0.132,1.518,0.398,1.924
					c0.267,0.405,0.685,0.607,1.258,0.607c0.516,0,0.902-0.118,1.156-0.354c0.254-0.236,0.4-0.6,0.438-1.096H146.212z"/>
				<path fill="#FFDFA6" d="M150.593,148.513c-0.22-0.03-0.413-0.045-0.579-0.045c-0.609,0-1.011,0.207-1.199,0.62v3.947h-1.611
					v-6.033h1.522l0.044,0.719c0.324-0.552,0.772-0.831,1.344-0.831c0.179,0,0.346,0.024,0.501,0.072L150.593,148.513z"/>
				<path fill="#FFDFA6" d="M153.722,150.755l1.115-3.753h1.728l-2.425,6.971l-0.133,0.317c-0.361,0.789-0.956,1.183-1.785,1.183
					c-0.233,0-0.472-0.036-0.712-0.106v-1.222l0.247,0.005c0.303,0,0.532-0.046,0.682-0.139c0.15-0.094,0.267-0.247,0.354-0.463
					l0.19-0.496l-2.114-6.051h1.734L153.722,150.755z"/>
				<path fill="#FFDFA6" d="M162.633,150.073c0,0.93-0.211,1.676-0.632,2.235c-0.422,0.559-0.993,0.838-1.709,0.838
					c-0.609,0-1.102-0.211-1.479-0.635v2.844h-1.61v-8.353h1.495l0.055,0.591c0.391-0.469,0.899-0.703,1.527-0.703
					c0.744,0,1.322,0.277,1.734,0.826s0.619,1.308,0.619,2.275V150.073L162.633,150.073z M161.021,149.957
					c0-0.561-0.099-0.994-0.299-1.299c-0.199-0.305-0.487-0.458-0.867-0.458c-0.505,0-0.853,0.193-1.043,0.58v2.47
					c0.197,0.397,0.549,0.598,1.055,0.598C160.637,151.848,161.021,151.218,161.021,149.957z"/>
				<path fill="#FFDFA6" d="M165.561,145.518v1.483h1.032v1.183h-1.032v3.011c0,0.224,0.042,0.383,0.128,0.48
					c0.084,0.096,0.248,0.145,0.489,0.145c0.179,0,0.337-0.013,0.474-0.039v1.22c-0.316,0.097-0.642,0.145-0.976,0.145
					c-1.13,0-1.706-0.57-1.728-1.711v-3.25h-0.88v-1.183h0.88v-1.483H165.561z"/>
				<path fill="#FFDFA6" d="M167.072,149.962c0-0.599,0.116-1.132,0.345-1.601c0.23-0.468,0.563-0.83,0.994-1.085
					c0.434-0.258,0.936-0.387,1.509-0.387c0.813,0,1.478,0.25,1.993,0.747c0.515,0.498,0.804,1.175,0.861,2.03l0.011,0.413
					c0,0.925-0.258,1.668-0.775,2.229c-0.517,0.559-1.21,0.838-2.081,0.838c-0.87,0-1.564-0.278-2.083-0.836
					c-0.519-0.558-0.778-1.315-0.778-2.274v-0.073H167.072z M168.683,150.077c0,0.574,0.108,1.012,0.323,1.316
					c0.215,0.304,0.525,0.456,0.925,0.456c0.39,0,0.696-0.15,0.915-0.45c0.219-0.3,0.328-0.779,0.328-1.438
					c0-0.563-0.109-0.998-0.328-1.308c-0.218-0.308-0.528-0.462-0.925-0.462c-0.395,0-0.699,0.153-0.916,0.46
					C168.792,148.958,168.683,149.433,168.683,150.077z"/>
				<path fill="#FFDFA6" d="M176.289,151.848c0.298,0,0.541-0.082,0.725-0.247c0.186-0.164,0.283-0.381,0.291-0.653h1.512
					c-0.003,0.41-0.117,0.782-0.335,1.124c-0.22,0.339-0.52,0.604-0.9,0.792c-0.381,0.188-0.803,0.282-1.264,0.282
					c-0.861,0-1.542-0.274-2.041-0.822c-0.498-0.547-0.747-1.306-0.747-2.272v-0.106c0-0.93,0.249-1.671,0.742-2.226
					c0.492-0.552,1.172-0.831,2.035-0.831c0.754,0,1.361,0.215,1.814,0.645c0.457,0.428,0.687,1,0.695,1.715h-1.511
					c-0.008-0.315-0.106-0.57-0.291-0.766c-0.185-0.196-0.433-0.294-0.735-0.294c-0.376,0-0.66,0.136-0.85,0.41
					c-0.192,0.273-0.288,0.717-0.288,1.332v0.168c0,0.622,0.095,1.068,0.285,1.34C175.613,151.711,175.903,151.848,176.289,151.848z
					"/>
				<path fill="#FFDFA6" d="M183.348,152.421c-0.397,0.484-0.947,0.725-1.651,0.725c-0.645,0-1.14-0.185-1.48-0.558
					c-0.34-0.371-0.514-0.916-0.521-1.632v-3.955h1.612v3.902c0,0.628,0.286,0.943,0.857,0.943c0.547,0,0.922-0.19,1.127-0.57V147
					h1.617v6.033h-1.516L183.348,152.421z"/>
				<path fill="#FFDFA6" d="M189.515,148.513c-0.219-0.03-0.413-0.045-0.58-0.045c-0.61,0-1.01,0.207-1.198,0.62v3.947h-1.611
					v-6.033h1.522l0.045,0.719c0.324-0.552,0.771-0.831,1.343-0.831c0.178,0,0.347,0.024,0.501,0.072L189.515,148.513z"/>
				<path fill="#FFDFA6" d="M193.68,148.513c-0.219-0.03-0.413-0.045-0.58-0.045c-0.609,0-1.008,0.207-1.199,0.62v3.947h-1.611
					v-6.033h1.522l0.045,0.719c0.323-0.552,0.771-0.831,1.343-0.831c0.179,0,0.346,0.024,0.502,0.072L193.68,148.513z"/>
				<path fill="#FFDFA6" d="M197.127,153.146c-0.886,0-1.607-0.271-2.161-0.813c-0.555-0.543-0.833-1.265-0.833-2.17v-0.155
					c0-0.606,0.117-1.149,0.351-1.626c0.234-0.478,0.565-0.847,0.996-1.104c0.429-0.259,0.919-0.389,1.469-0.389
					c0.826,0,1.474,0.261,1.95,0.781c0.474,0.521,0.711,1.258,0.711,2.214v0.659h-3.842c0.052,0.393,0.208,0.71,0.471,0.948
					c0.263,0.238,0.594,0.357,0.995,0.357c0.62,0,1.106-0.226,1.455-0.675l0.792,0.887c-0.242,0.343-0.569,0.609-0.983,0.8
					C198.085,153.052,197.629,153.146,197.127,153.146z M196.943,148.19c-0.32,0-0.58,0.108-0.778,0.323
					c-0.199,0.218-0.326,0.527-0.382,0.931h2.241v-0.129c-0.007-0.358-0.104-0.635-0.29-0.831
					C197.548,148.288,197.286,148.19,196.943,148.19z"/>
				<path fill="#FFDFA6" d="M202.006,147.002l0.049,0.696c0.433-0.539,1.011-0.808,1.735-0.808c0.641,0,1.114,0.188,1.427,0.564
					c0.312,0.376,0.472,0.937,0.48,1.684v3.897h-1.611v-3.857c0-0.344-0.074-0.592-0.223-0.745
					c-0.148-0.155-0.395-0.232-0.741-0.232c-0.454,0-0.795,0.193-1.021,0.58v4.254h-1.611v-6.033L202.006,147.002L202.006,147.002z"
					/>
				<path fill="#FFDFA6" d="M209.429,151.848c0.297,0,0.539-0.082,0.725-0.247c0.186-0.164,0.282-0.381,0.29-0.653h1.513
					c-0.004,0.41-0.116,0.782-0.335,1.124c-0.22,0.339-0.521,0.604-0.902,0.792c-0.38,0.188-0.802,0.282-1.263,0.282
					c-0.862,0-1.542-0.274-2.041-0.822c-0.498-0.547-0.747-1.306-0.747-2.272v-0.106c0-0.93,0.248-1.671,0.741-2.226
					c0.497-0.552,1.173-0.831,2.036-0.831c0.756,0,1.36,0.215,1.816,0.645c0.457,0.428,0.688,1,0.695,1.715h-1.513
					c-0.006-0.315-0.103-0.57-0.29-0.766c-0.186-0.196-0.432-0.294-0.738-0.294c-0.373,0-0.658,0.136-0.85,0.41
					c-0.19,0.273-0.287,0.717-0.287,1.332v0.168c0,0.622,0.094,1.068,0.285,1.34C208.754,151.711,209.041,151.848,209.429,151.848z"
					/>
				<path fill="#FFDFA6" d="M215.127,150.755l1.115-3.753h1.728l-2.425,6.971l-0.135,0.317c-0.361,0.789-0.954,1.183-1.783,1.183
					c-0.236,0-0.474-0.036-0.714-0.106v-1.222l0.246,0.005c0.304,0,0.532-0.046,0.682-0.139c0.15-0.094,0.27-0.247,0.354-0.463
					l0.19-0.496l-2.114-6.051h1.734L215.127,150.755z"/>
			</g>
			<g>
				<path fill="#FFFFFF" d="M302.273,274.782c9.893-0.026,18.195,8.103,18.216,17.835c0.021,10.43-7.888,18.58-18.131,18.684
					c-9.999,0.103-18.325-8.145-18.349-18.173C283.988,282.961,292.103,274.81,302.273,274.782z M302.351,277.554
					c-8.394-0.056-15.486,6.858-15.564,15.171c-0.081,8.699,6.861,15.776,15.495,15.793c8.273,0.017,15.389-6.938,15.432-15.084
					C317.761,284.591,311.008,277.61,302.351,277.554z"/>
				<path fill="#FFFFFF" d="M303.555,303.35c0,1.007,0,1.953,0,2.966c-0.876,0-1.636,0-2.5,0c0-0.979,0-1.923,0-2.972
					c-1.149,0-2.195,0-3.242,0c-1.022,0-2.045,0-3.176,0c0.026-1.989-0.342-3.759,1.206-5.459c2.933-3.229,5.584-6.714,8.35-10.096
					c0.282-0.346,0.544-0.709,0.957-1.251c-3.616,0-7.004,0-10.471,0c0-1.305,0-2.488,0-3.779c2.082,0,4.128,0,6.313,0
					c0-1.039,0-1.977,0-2.979c0.901,0,1.664,0,2.539,0c0,0.936,0,1.846,0,2.907c2.175,0,4.244,0,6.421,0
					c-0.02,1.983,0.322,3.718-1.189,5.386c-2.907,3.206-5.536,6.664-8.279,10.019c-0.332,0.406-0.661,0.817-1.142,1.409
					c3.63,0,7.047,0,10.63,0c0,1.207,0.041,2.296-0.041,3.374c-0.013,0.178-0.558,0.445-0.863,0.453
					C307.3,303.37,305.531,303.35,303.555,303.35z"/>
			</g>
			<path fill="#FFFFFF" d="M51.482,321.271c0.7-2.155,1.36-4.026,1.909-5.932c0.315-1.094,1.109-0.943,1.896-0.943
				c6.948-0.001,13.897-0.04,20.845,0.028c1.351,0.015,2.019-0.322,2.417-1.687c1.096-3.757,2.356-7.464,3.641-11.468
				c-8.082,0-15.951,0-24.19,0c0.767-2.33,1.387-4.359,2.138-6.34c0.11-0.29,0.841-0.485,1.285-0.486
				c8.201-0.027,16.403-0.04,24.604-0.006c3.065,0.015,4.842,2.149,4.367,5.17c-0.13,0.835-0.42,1.652-0.681,2.464
				c-1.339,4.173-2.653,8.353-4.051,12.507c-1.44,4.28-4.921,6.696-9.457,6.694c-7.519-0.004-15.037-0.003-22.555-0.003
				C53.032,321.271,52.411,321.271,51.482,321.271z"/>
			<path fill="#FFFFFF" d="M47.902,311.272c0.753-2.268,1.408-4.306,2.125-6.322c0.083-0.235,0.503-0.494,0.769-0.495
				c5.276-0.03,10.55-0.022,16.089-0.022c-0.719,2.22-1.341,4.215-2.034,6.184c-0.099,0.282-0.542,0.627-0.829,0.63
				C58.748,311.283,53.473,311.272,47.902,311.272z"/>
		</g>
	</g>
</g>
</svg>
