<?xml version="1.0" encoding="utf-8"?>
<!-- Generator: Adobe Illustrator 16.0.0, SVG Export Plug-In . SVG Version: 6.00 Build 0)  -->
<!DOCTYPE svg PUBLIC "-//W3C//DTD SVG 1.1//EN" "http://www.w3.org/Graphics/SVG/1.1/DTD/svg11.dtd">
<svg version="1.1" id="Layer_1" xmlns="http://www.w3.org/2000/svg" xmlns:xlink="http://www.w3.org/1999/xlink" x="0px" y="0px"
	 width="172.8px" height="115.2px" viewBox="0 0 172.8 115.2" enable-background="new 0 0 172.8 115.2" xml:space="preserve">
<g display="none">
	<path display="inline" fill="#00B5EF" d="M81.282,60.381c-4.487,0-8.138,3.648-8.138,8.137c0,2.225,0.925,4.377,2.54,5.908v7.347
		c0,3.087,2.511,5.599,5.598,5.599c3.087,0,5.599-2.512,5.599-5.599v-7.347c1.615-1.53,2.541-3.684,2.541-5.908
		C89.419,64.03,85.769,60.381,81.282,60.381 M84.161,71.573c-0.776,0.731-1.223,1.754-1.223,2.809v7.393
		c0,0.913-0.743,1.656-1.656,1.656c-0.914,0-1.657-0.743-1.657-1.656v-7.393c0-1.053-0.445-2.076-1.222-2.809
		c-0.851-0.802-1.317-1.887-1.317-3.056c0-2.313,1.883-4.196,4.195-4.196c2.314,0,4.197,1.883,4.197,4.196
		C85.478,69.687,85.009,70.771,84.161,71.573"/>
	<path display="inline" fill="#2A2076" d="M105.143,49.683H99.23V34.019c0-9.898-8.051-17.949-17.949-17.949
		c-9.897,0-17.949,8.051-17.949,17.949v15.664h-5.911c-3.26,0-5.912,2.652-5.912,5.911v36.563c0,3.262,2.652,5.912,5.912,5.912
		h47.721c3.258,0,5.91-2.65,5.91-5.912V55.594C111.053,52.335,108.4,49.683,105.143,49.683 M67.274,34.019
		c0-7.724,6.284-14.007,14.008-14.007c7.723,0,14.006,6.284,14.006,14.007v15.664H67.274V34.019z M107.111,92.157
		c0,1.088-0.883,1.973-1.969,1.973H57.421c-1.087,0-1.971-0.885-1.971-1.973V55.594c0-1.086,0.884-1.971,1.971-1.971h47.721
		c1.086,0,1.969,0.885,1.969,1.971V92.157z"/>
	<path display="inline" fill="#00B5EF" d="M108.285,68.445c-1.963,0.955-4.879,2.101-8.451,2.683v4.342
		c0,2.938,0.937,5.729,2.705,8.07c1.487,1.971,3.469,3.479,5.746,4.379c2.276-0.898,4.258-2.408,5.745-4.379
		c1.771-2.344,2.705-5.133,2.705-8.07v-4.342C113.164,70.545,110.248,69.4,108.285,68.445z"/>
	<g display="inline">
		<g>
			<g>
				<path fill="#FFFFFF" stroke="#5C7D9E" stroke-width="0.5" stroke-miterlimit="10" d="M119.378,67.803
					c-3.221,0-5.938-0.818-7.65-1.504c-1.869-0.748-2.984-1.508-2.995-1.516l-0.446-0.31l-0.449,0.312
					c-0.043,0.028-4.443,3.018-10.646,3.018h-0.789v8.084c0,1.764,0.286,3.502,0.854,5.166c0.551,1.625,1.354,3.145,2.392,4.515
					c1.036,1.372,2.276,2.562,3.688,3.536c1.444,1,3.039,1.752,4.734,2.234l0.217,0.062l0.215-0.062
					c1.697-0.482,3.291-1.234,4.736-2.234c1.411-0.975,2.651-2.164,3.688-3.536c1.035-1.37,1.841-2.89,2.393-4.515
					c0.564-1.664,0.854-3.402,0.854-5.166v-8.084H119.378z M117.013,75.887c0,2.83-0.901,5.521-2.605,7.779
					c-1.503,1.987-3.525,3.487-5.852,4.34l-0.271,0.098l-0.271-0.098c-2.326-0.853-4.349-2.353-5.851-4.34
					c-1.705-2.26-2.606-4.949-2.606-7.779v-5.043l0,0l0.683-0.092c3.348-0.453,6.028-1.551,7.688-2.394l0.356-0.183l0.356,0.183
					c1.659,0.843,4.341,1.938,7.688,2.394l0.683,0.092L117.013,75.887L117.013,75.887z"/>
			</g>
		</g>
	</g>
	<path display="inline" fill="#FFFFFF" d="M111.298,73.975l-4.379,4.377l-1.869-1.868c-0.354-0.354-0.928-0.354-1.282,0
		s-0.354,0.929,0,1.284l2.51,2.51c0.179,0.178,0.409,0.266,0.642,0.266c0.233,0,0.465-0.088,0.643-0.266l5.02-5.021
		c0.355-0.354,0.355-0.928,0-1.281C112.227,73.62,111.652,73.62,111.298,73.975z"/>
</g>
<g display="none">
	<path display="inline" fill="#00B5EF" d="M44.541,88.747l-4.742-0.353l-1.808-4.392c-0.326-0.828-1.506-0.828-1.857,0l-1.807,4.416
		l-4.745,0.353c-0.903,0.076-1.254,1.181-0.577,1.756l3.641,3.063l-1.13,4.617c-0.225,0.879,0.728,1.558,1.506,1.08l4.041-2.512
		l4.042,2.512c0.752,0.478,1.706-0.227,1.504-1.08l-1.128-4.617l3.638-3.063C45.797,89.926,45.446,88.823,44.541,88.747
		L44.541,88.747z"/>
	<path display="inline" fill="#00B5EF" d="M65.976,88.747l-4.743-0.353l-1.808-4.416c-0.326-0.828-1.506-0.828-1.857,0l-1.807,4.416
		l-4.744,0.353c-0.903,0.076-1.255,1.18-0.577,1.758l3.64,3.063l-1.129,4.617c-0.227,0.879,0.728,1.557,1.506,1.078l4.039-2.51
		l4.041,2.51c0.754,0.479,1.707-0.225,1.506-1.078l-1.128-4.617l3.638-3.063C67.229,89.926,66.854,88.823,65.976,88.747
		L65.976,88.747z"/>
	<path display="inline" fill="#00B5EF" d="M91.405,85.648l-7.294-0.541l-2.778-6.789c-0.501-1.272-2.313-1.272-2.854,0L75.7,85.107
		l-7.291,0.541c-1.392,0.117-1.93,1.813-0.888,2.701l5.595,4.707l-1.736,7.101c-0.348,1.35,1.117,2.393,2.313,1.657l6.215-3.856
		l6.212,3.856c1.156,0.733,2.624-0.347,2.314-1.657l-1.738-7.101l5.597-4.707C93.333,87.463,92.753,85.766,91.405,85.648
		L91.405,85.648z"/>
	<path display="inline" fill="#00B5EF" d="M108.792,88.747l-4.744-0.353l-1.807-4.416c-0.326-0.828-1.506-0.828-1.857,0
		l-1.807,4.416l-4.742,0.353c-0.903,0.076-1.256,1.18-0.578,1.758l3.64,3.063l-1.13,4.617c-0.227,0.879,0.729,1.557,1.506,1.078
		l4.041-2.51l4.04,2.51c0.754,0.479,1.707-0.225,1.506-1.078l-1.128-4.617l3.639-3.063
		C110.046,89.926,109.695,88.823,108.792,88.747L108.792,88.747z"/>
	<path display="inline" fill="#00B5EF" d="M130.203,88.747l-4.744-0.353l-1.809-4.416c-0.326-0.828-1.507-0.828-1.857,0
		l-1.807,4.416l-4.744,0.353c-0.904,0.076-1.256,1.18-0.578,1.758l3.642,3.063l-1.132,4.617c-0.226,0.879,0.729,1.557,1.508,1.078
		l4.042-2.51l4.04,2.51c0.753,0.479,1.705-0.225,1.507-1.078l-1.131-4.617l3.64-3.063C131.457,89.926,131.104,88.823,130.203,88.747
		L130.203,88.747z"/>
	<path display="inline" fill="#2A2076" d="M49.938,47.912c-1.834-1.631-1.834-4.492,0.025-6.123l1.203-1.055
		c1.306-1.154,1.758-3.036,1.08-4.643l-0.627-1.48c-0.955-2.259,0.301-4.845,2.66-5.497l1.555-0.426
		c1.682-0.479,2.888-1.958,2.986-3.714l0.077-1.607c0.124-2.459,2.384-4.242,4.794-3.815l1.58,0.276
		c1.732,0.301,3.464-0.527,4.291-2.058l0.779-1.406c1.178-2.158,3.99-2.786,5.973-1.356l1.306,0.93
		c1.431,1.028,3.338,1.028,4.768,0.024l1.306-0.929c2.009-1.43,4.794-0.777,5.974,1.381l0.754,1.405
		c0.828,1.531,2.56,2.384,4.291,2.084l1.58-0.277c2.41-0.426,4.668,1.381,4.771,3.841l0.075,1.605
		c0.074,1.757,1.279,3.264,2.961,3.74l1.557,0.452c2.358,0.678,3.59,3.262,2.637,5.521l-0.627,1.482
		c-0.679,1.605-0.252,3.488,1.053,4.642l1.205,1.054c1.832,1.632,1.832,4.493-0.025,6.125l-1.205,1.054
		c-1.305,1.154-1.756,3.036-1.078,4.643l0.629,1.481c0.952,2.258-0.303,4.842-2.662,5.494l-1.557,0.429
		c-1.682,0.478-2.886,1.959-2.984,3.713l-0.078,1.606c-0.125,2.461-2.383,4.242-4.791,3.816l-1.584-0.275
		c-1.729-0.303-3.463,0.525-4.291,2.058l-0.778,1.406c-1.179,2.155-3.99,2.784-5.972,1.354l-1.306-0.929
		c-1.43-1.028-3.338-1.028-4.769-0.024l-1.305,0.928c-2.008,1.432-4.794,0.779-5.973-1.379l-0.754-1.406
		c-0.828-1.531-2.56-2.385-4.292-2.084l-1.581,0.277c-2.408,0.428-4.667-1.381-4.768-3.84l-0.075-1.607
		c-0.076-1.756-1.28-3.262-2.962-3.738l-1.557-0.451c-2.359-0.68-3.59-3.264-2.635-5.522l0.627-1.481
		c0.678-1.606,0.252-3.489-1.053-4.643L49.938,47.912z"/>
	<path display="inline" fill="#FFFFFF" d="M59.877,44.926c0,11.068,8.96,20.028,20.028,20.028c11.067,0,20.027-8.958,20.027-20.028
		c0-11.069-8.96-20.028-20.027-20.028C68.837,24.898,59.877,33.857,59.877,44.926L59.877,44.926z"/>
	<path display="inline" fill="#00B5EF" d="M69.589,55.843h3.238c0.452,0,0.854-0.124,1.204-0.376
		c0.076-0.075,0.503-0.502,0.503-1.707v-5.371c0,0-0.025,6.652,3.738,7.053c1.331,0.101,2.962,0.177,4.619,0.126
		c1.507,0.125,3.087,0.125,4.366-0.15c4.291-0.905,3.213-3.915,3.213-3.915c2.309-1.732,1.004-3.916,1.004-3.916
		c2.059-2.158,0.051-3.939,0.051-3.939s1.104-1.732-0.326-3.038c-1.781-1.632-6.652-0.552-6.652-0.552
		c-0.326,0.05-0.702,0.125-1.078,0.226c0,0-1.682,0.778,0-4.316c1.682-5.12-1.13-5.898-2.309-5.898
		c-1.181,0-0.778,2.535-0.778,2.535s-2.535,6.952-4.945,8.81c-0.652,0.678-0.979,1.43-1.178,1.983
		c-0.378-0.326-0.879-0.527-1.406-0.527h-3.238c-1.204,0-2.157,0.978-2.157,2.158v8.633C67.431,54.89,68.385,55.843,69.589,55.843
		L69.589,55.843z"/>
	<path display="inline" d="M69.589,55.843"/>
</g>
<g display="none">
	<path display="inline" fill="#00B5EF" d="M123.619,91.03h-4.259V64.047c0-0.784-0.638-1.42-1.423-1.418
		c-0.461,0-0.895,0.225-1.161,0.604L96.895,91.635c-0.45,0.645-0.292,1.529,0.351,1.98c0.239,0.166,0.522,0.256,0.813,0.256h18.462
		v4.26c0,0.783,0.637,1.42,1.42,1.42s1.421-0.637,1.421-1.42v-4.26h4.259c0.785,0,1.422-0.638,1.422-1.422
		C125.042,91.667,124.404,91.03,123.619,91.03z M116.52,91.03h-15.733l15.733-22.479V91.03z"/>
	<path display="inline" fill="#00B5EF" d="M98.058,96.711H81.244l15.63-18.406c0.037-0.042,0.069-0.088,0.101-0.133
		c2.94-4.353,1.962-10.244-2.229-13.41c-5.095-3.664-12.195-2.5-15.855,2.597c-1.389,1.931-2.136,4.252-2.135,6.632
		c0,0.783,0.636,1.42,1.42,1.42c0.784,0,1.42-0.637,1.42-1.42c-0.001-4.707,3.814-8.521,8.519-8.521
		c1.784-0.002,3.524,0.559,4.974,1.599c2.936,2.25,3.619,6.394,1.562,9.466l-17.555,20.68c-0.508,0.6-0.434,1.494,0.164,2.002
		c0.257,0.22,0.583,0.338,0.918,0.338h19.882c0.783,0,1.42-0.637,1.42-1.42C99.478,97.346,98.841,96.711,98.058,96.711z"/>
	<path display="inline" fill="#2A2076" stroke="#2E2C73" stroke-width="2" stroke-miterlimit="10" d="M78.207,89.638
		c0.03-0.784-0.582-1.443-1.366-1.474l0,0c-18.527-0.688-33.398-15.531-34.119-34.058h5.631c0.784,0,1.42-0.635,1.42-1.42
		c0-0.784-0.636-1.42-1.42-1.42h-5.631c0.711-18.494,15.54-33.322,34.034-34.032v4.209c0,0.784,0.636,1.42,1.42,1.42
		c0.784,0,1.42-0.636,1.42-1.42v-4.209c18.241,0.706,32.963,15.15,34.017,33.374l-5.539-5.539c-0.564-0.545-1.463-0.529-2.009,0.035
		c-0.53,0.55-0.53,1.423,0,1.973l7.929,7.927c0.146,0.181,0.342,0.321,0.557,0.407c0.058,0.018,0.113,0.031,0.17,0.042
		c0.1,0.034,0.199,0.059,0.303,0.072c0.016,0,0.025,0,0.041,0c0.014,0,0.027,0,0.04,0c0.108-0.009,0.215-0.029,0.317-0.062
		c0.058-0.007,0.115-0.02,0.175-0.033c0.19-0.068,0.364-0.178,0.512-0.321l8.036-8.032c0.543-0.565,0.525-1.463-0.036-2.008
		c-0.551-0.532-1.423-0.532-1.974,0l-5.676,5.671c-1.016-20.355-17.799-36.349-38.182-36.377c-0.036-0.001-0.066-0.021-0.101-0.021
		c-0.036,0-0.065,0.019-0.101,0.021C56.978,14.392,39.88,31.489,39.852,52.586c0,0.036-0.02,0.064-0.02,0.101
		c0,0.036,0.019,0.065,0.02,0.101c0.036,20.576,16.321,37.453,36.884,38.214h0.052C77.551,91.002,78.177,90.399,78.207,89.638z"/>
	<path display="inline" fill="#00B5EF" d="M97.255,33.608c-0.555-0.555-1.453-0.555-2.008,0L79.986,48.867
		c-1.153-0.515-2.47-0.515-3.624,0l-7.226-7.226c-0.564-0.544-1.462-0.529-2.007,0.035c-0.531,0.55-0.531,1.423,0,1.973l7.211,7.212
		c-1.013,2.12-0.115,4.658,2.005,5.67c1.626,0.776,3.566,0.445,4.842-0.831c1.281-1.271,1.61-3.217,0.82-4.839l15.249-15.247
		C97.811,35.061,97.811,34.162,97.255,33.608z M79.181,53.691L79.181,53.691c-0.563,0.537-1.448,0.537-2.009,0
		c-0.555-0.555-0.555-1.454,0-2.009c0.555-0.555,1.455-0.555,2.01,0C79.735,52.236,79.735,53.136,79.181,53.691z"/>
</g>
<g>
	<polyline fill="#4AB957" points="84.364,94.07 81.163,89.538 82.63,79.271 84.229,76.872 87.832,76.736 90.897,88.338 
		85.163,94.07 	"/>
	<polyline fill="#4AB957" points="114.63,69.404 111.431,64.872 112.897,54.604 114.498,52.204 118.097,52.07 121.164,63.67 
		115.431,69.404 	"/>
	<polyline fill="#4AB957" points="53.563,69.404 50.363,64.872 51.83,54.604 53.431,52.204 57.03,52.07 60.097,63.67 54.363,69.404 
			"/>
	<path fill="#4AB957" d="M122.31,45.964c3.014-2.08,5-5.56,5-9.494v-4.307V27.87c0-6.36-5.172-11.533-11.533-11.533
		c-6.359,0-11.533,5.173-11.533,11.533v4.307v4.307c0,3.933,1.986,7.413,5,9.493c-5.053,1.586-9.397,4.88-12.266,9.121V52.51
		c0-6.36-5.174-11.533-11.534-11.533c-6.36,0-11.534,5.173-11.534,11.533v2.587c-2.866-4.228-7.214-7.521-12.267-9.121
		c3.014-2.08,5-5.56,5-9.493v-8.6c0-6.36-5.174-11.534-11.533-11.534c-5.76,0-10.561,4.253-11.4,9.787
		c-0.094,0.573-0.133,1.16-0.133,1.76v8.6c0,3.933,1.986,7.413,5,9.493c-9.134,2.84-15.947,11.2-15.947,20.679v6.722
		c0,0.854,0.693,1.532,1.533,1.532h8.36c0.854,0,1.533-0.692,1.533-1.532c0-0.854-0.693-1.533-1.533-1.533H35.71v-5.174
		c0-4.854,2.08-9.506,5.84-13.08c2.2-2.093,4.84-3.653,7.667-4.586l1.84,3.573l-2.653,11.534c-0.119,0.547,0.053,1.106,0.467,1.479
		l5.187,4.748c0.294,0.267,0.667,0.397,1.04,0.397s0.746-0.133,1.04-0.397l5.187-4.748c0.414-0.373,0.587-0.935,0.467-1.479
		L59.137,52.59l1.841-3.573c2.826,0.947,5.479,2.507,7.666,4.586c2.76,2.627,4.613,5.826,5.4,9.269
		c0.053,0.319,0.119,0.639,0.186,0.944c0.16,0.947,0.24,1.908,0.24,2.867v5.174H47.657c-0.854,0-1.533,0.692-1.533,1.533
		c0,0.854,0.693,1.532,1.533,1.532h23.307c-4.854,4.041-7.986,9.947-7.986,16.373v6.722c0,0.854,0.693,1.532,1.533,1.532h8.359
		c0.854,0,1.533-0.692,1.533-1.532c0-0.841-0.693-1.533-1.533-1.533h-6.813V91.31c0-4.854,2.08-9.506,5.841-13.08
		c2.199-2.095,4.84-3.651,7.666-4.586l1.84,3.571L78.75,88.75c-0.12,0.547,0.054,1.106,0.467,1.479l5.187,4.746
		c0.293,0.269,0.667,0.399,1.04,0.399c0.374,0,0.747-0.133,1.04-0.399l5.188-4.746c0.412-0.373,0.586-0.935,0.468-1.479
		l-2.654-11.533l1.841-3.572c2.827,0.945,5.479,2.506,7.668,4.586c3.76,3.574,5.84,8.227,5.84,13.08v5.16H78.003
		c-0.853,0-1.533,0.693-1.533,1.533s0.693,1.533,1.533,1.533h28.348c0.854,0,1.533-0.693,1.533-1.533v-6.721
		c0-6.427-3.133-12.332-7.986-16.373h7.867c0.852,0,1.533-0.693,1.533-1.533c0-0.854-0.693-1.533-1.533-1.533H96.39V66.67
		c0-0.973,0.08-1.935,0.24-2.865c0.08-0.307,0.135-0.627,0.188-0.947c0.787-3.439,2.641-6.641,5.4-9.267
		c2.199-2.093,4.84-3.653,7.666-4.587l1.84,3.574l-2.652,11.534c-0.121,0.547,0.053,1.105,0.467,1.479l5.187,4.748
		c0.293,0.267,0.666,0.398,1.041,0.398c0.373,0,0.746-0.133,1.039-0.398l5.188-4.748c0.411-0.373,0.586-0.932,0.467-1.479
		l-2.654-11.534l1.84-3.574c2.826,0.947,5.48,2.507,7.666,4.587c3.762,3.574,5.842,8.226,5.842,13.08v5.174H112.9
		c-0.854,0-1.533,0.693-1.533,1.533c0,0.854,0.693,1.533,1.533,1.533h23.799c0.854,0,1.535-0.693,1.535-1.533v-6.719
		C138.231,57.19,131.417,48.831,122.31,45.964z M46.63,27.857c0-4.667,3.801-8.453,8.453-8.453c4.654,0,8.453,3.8,8.453,8.453v2.573
		c-3.559-0.88-5.025-4.546-5.093-4.72c-0.214-0.56-0.733-0.947-1.333-0.987s-1.174,0.28-1.453,0.8
		c-0.027,0.054-2.467,4.414-9.027,5.027V27.857L46.63,27.857z M55.083,67.111l-3.479-3.188L53.91,53.91h2.347l2.307,10.014
		L55.083,67.111z M52.284,48.23c0.307-0.053,0.6-0.093,0.906-0.12c0.039,0,0.08-0.013,0.133-0.013
		c0.24-0.027,0.48-0.054,0.721-0.067c0.066,0,0.133-0.013,0.199-0.013c0.2-0.014,0.387-0.014,0.587-0.027c0.08,0,0.173,0,0.253,0
		s0.174,0,0.254,0c0.199,0,0.387,0.013,0.586,0.027c0.067,0,0.134,0.013,0.201,0.013c0.239,0.013,0.479,0.04,0.719,0.067
		c0.041,0,0.08,0.013,0.135,0.013c0.307,0.04,0.6,0.08,0.906,0.12l-1.334,2.586h-2.92L52.284,48.23z M55.417,44.91
		c-0.107,0-0.213-0.013-0.32-0.013c-0.014,0-0.026,0-0.04,0l0,0c-0.106,0-0.214,0-0.319,0.013c-4.508-0.173-8.121-3.893-8.121-8.453
		V33.63c5.24-0.4,8.454-2.787,10.16-4.587c1.201,1.76,3.348,3.987,6.747,4.52v2.894C63.55,41.017,59.937,44.737,55.417,44.91z
		 M76.978,52.484L76.978,52.484c0-4.667,3.799-8.454,8.453-8.454c0.879,0,1.721,0.133,2.506,0.387
		c3.441,1.067,5.947,4.293,5.947,8.08v2.573c-3.561-0.88-5.027-4.546-5.094-4.72c-0.213-0.56-0.732-0.946-1.332-0.986
		c-0.603-0.04-1.174,0.28-1.456,0.8c-0.025,0.053-2.467,4.414-9.025,5.027V52.484L76.978,52.484z M77.536,71.057v-1.559
		c0.428,0.397,0.867,0.76,1.348,1.092C78.431,70.725,77.99,70.885,77.536,71.057z M85.431,91.736l-3.48-3.187l2.307-10.014h2.348
		l2.308,10.014L85.431,91.736z M82.63,72.857c0.307-0.053,0.6-0.094,0.906-0.121c0.041,0,0.08-0.012,0.135-0.012
		c0.239-0.026,0.479-0.056,0.719-0.065c0.067,0,0.134-0.015,0.201-0.015c0.199-0.015,0.387-0.015,0.586-0.026
		c0.08,0,0.174,0,0.254,0c0.093,0,0.173,0,0.253,0c0.2,0,0.388,0.014,0.587,0.026c0.066,0,0.133,0.015,0.199,0.015
		c0.24,0.012,0.48,0.039,0.721,0.065c0.039,0,0.08,0.012,0.133,0.012c0.307,0.041,0.6,0.08,0.906,0.121l-1.332,2.586h-2.934
		L82.63,72.857z M93.324,71.057c-0.439-0.172-0.894-0.332-1.347-0.467c0.479-0.332,0.935-0.693,1.347-1.092V71.057z M93.884,61.084
		c0,0.438-0.027,0.867-0.094,1.278c-0.054,0.24-0.105,0.494-0.146,0.734c-0.879,3.586-4.053,6.293-7.88,6.438
		c-0.106,0-0.214-0.014-0.32-0.014c-0.013,0-0.026,0-0.04,0c-0.106,0-0.213,0-0.32,0.014c-3.826-0.146-7-2.84-7.879-6.438
		c-0.041-0.255-0.094-0.494-0.147-0.734c-0.066-0.411-0.093-0.84-0.093-1.278v-2.828c5.24-0.398,8.453-2.785,10.16-4.585
		c1.199,1.759,3.347,3.987,6.746,4.52L93.884,61.084L93.884,61.084z M107.31,27.857c0-4.667,3.801-8.453,8.455-8.453
		c4.666,0,8.453,3.8,8.453,8.453v2.573c-3.561-0.88-5.027-4.546-5.094-4.72c-0.213-0.56-0.734-0.947-1.334-0.987
		c-0.601-0.04-1.174,0.28-1.453,0.8c-0.027,0.054-2.467,4.414-9.027,5.027V27.857L107.31,27.857z M115.776,67.111l-3.479-3.188
		l2.308-10.013h2.347l2.307,10.013L115.776,67.111z M112.978,48.23c0.307-0.053,0.6-0.093,0.906-0.12
		c0.039,0,0.08-0.013,0.133-0.013c0.24-0.027,0.48-0.054,0.721-0.067c0.066,0,0.133-0.013,0.199-0.013
		c0.201-0.014,0.387-0.014,0.588-0.027c0.08,0,0.172,0,0.252,0c0.094,0,0.174,0,0.254,0c0.201,0,0.387,0.013,0.586,0.027
		c0.068,0,0.135,0.013,0.201,0.013c0.24,0.013,0.48,0.04,0.721,0.067c0.039,0,0.078,0.013,0.133,0.013
		c0.308,0.04,0.601,0.08,0.906,0.12l-1.334,2.586h-2.92L112.978,48.23z M116.11,44.91c-0.106,0-0.213-0.013-0.319-0.013
		c-0.015,0-0.025,0-0.039,0l0,0c-0.107,0-0.213,0-0.32,0.013c-4.508-0.173-8.121-3.893-8.121-8.453V33.63
		c5.24-0.4,8.455-2.787,10.16-4.587c1.201,1.76,3.348,3.987,6.748,4.52v2.894C124.231,41.017,120.617,44.737,116.11,44.91z"/>
</g>
</svg>
