<?xml version="1.0" encoding="utf-8"?>
<!-- Generator: Adobe Illustrator 16.0.0, SVG Export Plug-In . SVG Version: 6.00 Build 0)  -->
<!DOCTYPE svg PUBLIC "-//W3C//DTD SVG 1.1//EN" "http://www.w3.org/Graphics/SVG/1.1/DTD/svg11.dtd">
<svg version="1.1" id="Layer_1" xmlns="http://www.w3.org/2000/svg" xmlns:xlink="http://www.w3.org/1999/xlink" x="0px" y="0px"
	 width="270px" height="220px" viewBox="10 0 270 220" enable-background="new 10 0 270 220" xml:space="preserve">
<image overflow="visible" enable-background="new    " width="1400" height="238" xlink:href="2C83C1CB.png"  transform="matrix(0.188 0 0 0.1948 12.8516 166.4316)">
</image>
<g>
	<g>
		<path fill="#FFDAB6" d="M136.661,119.087l1.797,3.036c-0.217,0.605-0.801,0.986-1.479,0.959c-0.582-0.02-1.144-0.336-1.479-0.832
			l-2.188-3.58l-1.517-5.197C134.746,114.826,135.737,117.664,136.661,119.087z"/>
		<rect x="152.622" y="53.055" fill="#E8E6E7" width="4.675" height="2.537"/>
		<g>
			<g>
				<g>
					<g>
						<polygon fill="#E8E6E7" points="167.644,171.517 167.22,179.099 167.22,179.099 158.62,180.064 159.937,171.639 						"/>
						<path fill="#121212" d="M161.435,189.311l-4.408-1.294c-1.09-3.647,1.207-8.722,1.207-8.722l10.129-0.455l1.48,2.109
							l2.398,0.875l6.809,2.268c2,0.74,2.568,2.254,2.172,4.318l-0.379,0.897h-10.99
							C166.619,189.311,161.435,189.311,161.435,189.311z"/>
						<polygon fill="#292829" points="181.226,189.311 181.397,188.001 157.026,188.017 157.187,189.311 						"/>
					</g>
				</g>
			</g>
			<g>
				<g>
					<g>
						<polygon fill="#E8E6E7" points="142.265,171.517 142.687,179.099 142.687,179.099 151.286,180.064 149.968,171.639 						"/>
						<path fill="#121212" d="M148.474,189.311l4.409-1.294c1.089-3.647-1.211-8.722-1.211-8.722l-10.126-0.455l-1.479,2.109
							l-2.4,0.875l-6.807,2.268c-2.004,0.74-2.568,2.254-2.172,4.318l0.379,0.897h10.986
							C143.287,189.311,148.474,189.311,148.474,189.311z"/>
						<polygon fill="#292829" points="128.681,189.311 128.509,188.001 152.883,188.017 152.719,189.311 						"/>
					</g>
				</g>
			</g>
		</g>
		<path fill="#E8E6E7" d="M157.14,54.418c5.779,0,11.809,1.778,15.268,4.2c4.527,3.171-2.488,13.358-2.488,13.358
			s0.857,9.695,1.167,19.784c0.206,6.725-1.438,9.331-1.438,9.331s-2.375,3.735-14.688,3.735s-14.688-3.735-14.688-3.735
			s-1.644-2.606-1.439-9.331C139.14,81.672,140,71.976,140,71.976s-7.017-10.187-2.487-13.358c3.457-2.423,9.487-4.2,15.266-4.2
			H157.14z"/>
		<g>
			<path fill="#FFDAB6" d="M155.233,57.406c1.168-0.038,2.32-1.774,3.092-2.911c-1.299-0.064-2.615-0.077-3.979-0.077
				c-0.795,0-1.597,0.046-2.396,0.126C152.772,55.716,154.009,57.436,155.233,57.406z"/>
		</g>
		<g>
			<g>
				<path fill="#FFDAB6" d="M153.472,53.21v-0.003l0.004-4.293l2.928,0.004l-0.004,4.293v0.004l-0.004,1.611
					c-0.838,0.74-2.094,0.739-2.928-0.003L153.472,53.21z"/>
				<path fill="#FFBD9A" d="M153.472,52.1L153.472,52.1l0.004-2.079l2.928,0.004l-0.004,2.076v0.001v0.297
					c0,0.395-0.633,0.749-1.448,0.75c-0.013,0-0.021,0-0.032,0c-0.816-0.002-1.445-0.358-1.445-0.754V52.1H153.472z"/>
				<g>
					<g>
						<path fill="#FFBD9A" d="M166.021,42.652l-1.027-0.001l0.008-5.8h1.667c0.868,0.002,1.664,0.48,2.074,1.244
							c0.376,0.706,0.37,1.553-0.019,2.254l-0.586,1.06C167.708,42.177,166.899,42.653,166.021,42.652z"/>
						<path fill="#FFBD9A" d="M141.765,41.191l-0.584-1.061c-0.387-0.7-0.392-1.55-0.011-2.254c0.411-0.764,1.208-1.239,2.075-1.238
							l1.669,0.002l-0.009,5.8l-1.029-0.001C142.998,42.439,142.19,41.961,141.765,41.191z"/>
						<path fill="#FFDAB6" d="M143.567,40.595l0.015-9.757c0.01-6.286,5.11-11.376,11.399-11.367
							c6.283,0.01,11.377,5.112,11.367,11.4l-0.015,9.758c-0.009,6.286-5.112,11.376-11.399,11.367
							C148.647,51.986,143.56,46.883,143.567,40.595z"/>
						<path fill="#88512A" d="M166.426,35.459h-0.683c0.226,2.61,0.15,6.168-2.498,8.061c-1.59,1.136-5.903-0.455-8.287-0.455
							c-2.385,0-6.698,1.591-8.289,0.455c-2.646-1.892-2.725-5.451-2.496-8.061h-0.682c0,0-0.34,5.563-0.112,9.536
							c0.228,3.973,4.767,8.061,11.58,8.061s11.353-4.087,11.579-8.061C166.767,41.022,166.426,35.459,166.426,35.459z"/>
						<path fill="#FFBD9A" d="M153.742,43.548h-0.003c-0.473-0.291-0.69-0.709-0.613-1.118c0.006-0.037,0.088-0.098,0.218-0.175
							c0.991-0.582,2.222-0.579,3.212,0.006c0.129,0.074,0.213,0.137,0.219,0.175c0.076,0.408-0.146,0.825-0.614,1.115
							C155.386,43.896,154.513,43.896,153.742,43.548z"/>
						<g>
							<path fill="#FFBD9A" d="M158.11,38.709c0,0-0.018-0.087-0.014-0.241c0.002-0.153,0.025-0.371,0.127-0.625
								c0.096-0.252,0.272-0.544,0.572-0.77c0.146-0.109,0.318-0.211,0.51-0.266c0.189-0.057,0.387-0.087,0.582-0.089l0.07-0.002
								l0.087,0.009l0.12,0.015c0.07,0.004,0.18,0.03,0.279,0.054c0.207,0.047,0.365,0.135,0.524,0.234
								c0.158,0.094,0.286,0.225,0.394,0.35c0.104,0.123,0.178,0.259,0.234,0.385c0.111,0.25,0.141,0.474,0.147,0.625
								c0.004,0.154-0.017,0.242-0.017,0.242l-0.043,0.007c0,0-0.02-0.079-0.062-0.209c-0.045-0.132-0.121-0.318-0.255-0.514
								c-0.135-0.196-0.332-0.398-0.596-0.536c-0.125-0.07-0.271-0.128-0.424-0.157c-0.144-0.038-0.314-0.051-0.465-0.051
								c-0.313-0.008-0.627,0.079-0.875,0.238c-0.249,0.16-0.432,0.377-0.556,0.579c-0.252,0.409-0.306,0.729-0.306,0.729
								L158.11,38.709z"/>
							<path fill="#FFFFFF" d="M158.13,38.713c0,0,0.314-1.635,1.823-1.589c1.508,0.046,1.755,1.509,1.755,1.509
								s-0.496,0.789-1.758,0.778C158.687,39.399,158.13,38.713,158.13,38.713z"/>
							<g>
								<circle fill="#4799BF" cx="159.951" cy="38.267" r="1.142"/>
								<circle cx="159.951" cy="38.268" r="0.508"/>
								<circle fill="#FFFFFF" cx="159.448" cy="37.763" r="0.423"/>
							</g>
							<path fill="#FFBD9A" d="M148.119,38.709c0,0-0.019-0.087-0.015-0.241c0.006-0.153,0.028-0.371,0.129-0.625
								c0.094-0.252,0.273-0.544,0.57-0.77c0.15-0.109,0.32-0.211,0.514-0.266c0.188-0.057,0.387-0.087,0.578-0.089l0.071-0.002
								l0.087,0.009l0.12,0.015c0.071,0.004,0.179,0.03,0.281,0.054c0.205,0.047,0.364,0.135,0.524,0.234
								c0.155,0.094,0.283,0.225,0.393,0.35c0.104,0.123,0.177,0.259,0.234,0.385c0.111,0.25,0.142,0.474,0.146,0.625
								c0.004,0.154-0.014,0.242-0.014,0.242l-0.047,0.007c0,0-0.016-0.079-0.058-0.209c-0.048-0.132-0.122-0.318-0.257-0.514
								c-0.134-0.196-0.332-0.398-0.593-0.536c-0.13-0.07-0.274-0.128-0.425-0.157c-0.146-0.038-0.316-0.051-0.467-0.051
								c-0.315-0.008-0.629,0.079-0.877,0.238c-0.25,0.16-0.431,0.377-0.556,0.579c-0.249,0.409-0.306,0.729-0.306,0.729
								L148.119,38.709z"/>
							<path fill="#FFFFFF" d="M148.144,38.713c0,0,0.312-1.635,1.817-1.589c1.509,0.046,1.757,1.509,1.757,1.509
								s-0.496,0.789-1.759,0.778C148.694,39.399,148.144,38.713,148.144,38.713z"/>
							<g>
								<circle fill="#4799BF" cx="149.961" cy="38.267" r="1.143"/>
								<circle cx="149.961" cy="38.268" r="0.508"/>
								<circle fill="#FFFFFF" cx="149.458" cy="37.763" r="0.422"/>
							</g>
							<path fill="#6E4222" d="M158.706,33.271l2.843,0.004c0.769,0.001,1.388,0.623,1.388,1.391v0.244l-4.898-0.006v-0.966
								C158.036,33.568,158.336,33.271,158.706,33.271z"/>
							<path fill="#6E4222" d="M148.351,33.256l2.846,0.005c0.369,0,0.666,0.3,0.666,0.668l-0.002,0.966l-4.897-0.006v-0.246
								C146.962,33.877,147.585,33.256,148.351,33.256z"/>
						</g>
					</g>
					<path fill="#6E4222" d="M157.913,19.751c0.266-0.239,0.611-0.369,0.973-0.369l0,0c4.684,0.007,8.479,3.811,8.473,8.498
						l-0.012,9.078c-0.219-0.066-0.443-0.104-0.68-0.104h-0.369c-0.691-0.332-1.208-0.981-1.347-1.776l-0.839-4.824
						c-0.2-1.164-1.213-2.016-2.396-2.017l-3.815-0.006l-1.903-8.852C156.651,19.38,157.304,19.507,157.913,19.751z"/>
					<path fill="#88512A" d="M143.937,36.64l-0.69-0.001c-0.233,0-0.461,0.037-0.679,0.102l0.014-8.894
						c0.005-4.686,3.809-8.479,8.497-8.474l2.888,0.003l6.611,0.009c1.027,0.002,2.027-0.236,2.927-0.681
						c1.522-0.75,3.364,0.086,3.683,1.754c0.121,0.631,0.183,1.274,0.183,1.921l-0.007,2.268c-0.002,1.986-1.61,3.594-3.6,3.59
						l-11.726-0.015l-3.815-0.006c-1.184-0.002-2.197,0.847-2.4,2.011l-0.853,4.821C144.849,35.717,144.464,36.28,143.937,36.64z"/>
				</g>
			</g>
		</g>
		<g>
			<path fill="#D9543B" d="M154.958,56.764h-1.93l0.056,0.87c0,0,0.681,1.25,1.138,1.987h0.736h0.736
				c0.455-0.737,1.136-1.987,1.136-1.987l0.056-0.87H154.958z"/>
			<path fill="#FEFEFE" d="M157.304,53.055c0,0-0.57,1.816-2.084,3.709c0,0,2.178,1.135,2.559,2.347c0,0,1.798-2.423,2.08-4.618
				L157.304,53.055z"/>
			<path fill="#FEFEFE" d="M152.612,53.055c0,0,0.57,1.816,2.086,3.709c0,0-2.178,1.135-2.559,2.347c0,0-1.8-2.423-2.084-4.618
				L152.612,53.055z"/>
		</g>
		<path fill="#D9543B" d="M155.59,58.43c1.757,10.083,2.761,22.09,2.988,32.583c0.021,0.875-1.956,2.257-3.624,5.104
			c-1.663-2.846-3.639-4.225-3.618-5.098c0.25-10.492,1.271-22.503,3.046-32.588L155.59,58.43z"/>
		<path fill="#292229" d="M173.229,104.029l0.229,6.358c0.192,7.8,0.437,21.099,0.228,31.79c-0.203,10.342-3.629,28.193-5.258,35.35
			c-3.283,0.715-7.445,0.322-10.348-0.049c0,0,0.188-20.181-0.516-27.354c-0.902-9.172-2.037-19.143-2.613-33.627
			c-0.58,14.486-1.71,24.455-2.61,33.627c-0.706,7.173-0.521,27.354-0.521,27.354c-2.903,0.371-7.063,0.764-10.344,0.049
			c-1.629-7.154-5.054-25.008-5.256-35.35c-0.211-10.691,0.031-23.99,0.225-31.79l0.229-6.358H173.229L173.229,104.029z"/>
		<polygon fill="#292229" points="173.176,100.398 136.731,100.34 136.801,104.029 173.036,103.972 		"/>
		<g>
			<path fill="#4D2621" d="M148.913,126.492h-33.029c-2.143,0-3.879,1.736-3.879,3.877v19.055c0,2.143,1.736,3.88,3.879,3.88h33.029
				c2.145,0,3.879-1.737,3.879-3.88v-19.055C152.792,128.229,151.058,126.492,148.913,126.492z"/>
			<path fill="#68342D" d="M136.712,135.9h-8.628c-3.381,0-6.131-2.746-6.131-6.129v-4.85c0-3.381,2.75-6.131,6.131-6.131h8.628
				c3.382,0,6.133,2.75,6.133,6.131v4.85C142.847,133.152,140.094,135.9,136.712,135.9z M128.083,121.357
				c-1.965,0-3.564,1.6-3.564,3.564v4.85c0,1.965,1.6,3.568,3.564,3.568h8.628c1.968,0,3.565-1.604,3.565-3.568v-4.85
				c0-1.967-1.598-3.564-3.565-3.564H128.083z"/>
			<g>
				<path fill="#68342D" d="M120.668,148.594L120.668,148.594c-0.826,0-1.497-0.671-1.497-1.496v-1.854
					c0-0.828,0.671-1.498,1.497-1.498l0,0c0.828,0,1.499,0.671,1.499,1.498v1.854C122.165,147.926,121.496,148.594,120.668,148.594z
					"/>
				<path fill="#68342D" d="M144.128,148.594L144.128,148.594c-0.828,0-1.499-0.671-1.499-1.496v-1.854
					c0-0.828,0.671-1.498,1.499-1.498l0,0c0.827,0,1.497,0.671,1.497,1.498v1.854C145.625,147.926,144.955,148.594,144.128,148.594z
					"/>
			</g>
			<g>
				<path fill="#FFBC53" d="M143.88,127.347h-2.712c-0.944,0-1.71-0.767-1.71-1.711v-1.714h4.422c0.943,0,1.708,0.766,1.708,1.714
					l0,0C145.591,126.582,144.823,127.347,143.88,127.347z"/>
				<path fill="#FFBC53" d="M123.627,127.347h-2.711c-0.944,0-1.71-0.767-1.71-1.711l0,0c0-0.948,0.766-1.714,1.71-1.714h4.423
					v1.714C125.34,126.582,124.573,127.347,123.627,127.347z"/>
			</g>
			<path fill="#68342D" d="M148.913,125.349h-33.029c-2.143,0-3.879,1.737-3.879,3.882v13.063c0,2.143,1.736,3.879,3.879,3.879
				h33.029c2.145,0,3.879-1.736,3.879-3.879V129.23C152.792,127.087,151.058,125.349,148.913,125.349z"/>
		</g>
		<g>
			<path fill="#FFDAB6" d="M132.541,115.617c0,0-0.047-0.111-0.104-0.328c-3.064-15.27-1.283-29.346,3.33-38.469l-7.15-3.633
				c-8.479,18.051-3.04,37.844-1.463,42.654c-0.039,0.329-0.112,0.644-0.234,1.06L132.541,115.617z"/>
			<g>
				<path fill="#FFDAB6" d="M134.501,118.918c-0.068-0.271-0.273-0.479-0.557-0.563l-0.145-0.043
					c-0.501-0.15-1.107,0.118-1.382,0.604c-0.121,0.218-0.162,0.454-0.114,0.669l0.817,3.41c0.174,0.732,0.985,1.105,1.657,0.769
					l0,0c0.481-0.248,0.73-0.792,0.601-1.319L134.501,118.918z"/>
				<path fill="#FFDAB6" d="M134.366,117.578l0.549,3.256l-7.881,2.186l-0.887-1.822c-0.484-2.936-0.033-4.922,1.189-6.021
					l3.616-1.381l1.155,0.174c0.188,0.028-0.027,0.504,0.158,0.541L134.366,117.578z"/>
				<path fill="#FFDAB6" d="M132.705,119.637c-0.045-0.374-0.229-0.715-0.528-0.979c-0.429-0.371-1.176-0.338-1.644,0.08
					c-0.257,0.23-0.384,0.541-0.339,0.838l0.66,3.998c0.112,0.672,0.765,1.121,1.435,0.982l0,0c0.627-0.129,1.044-0.729,0.948-1.361
					L132.705,119.637z"/>
				<g>
					<path fill="#FFDAB6" d="M128.099,120.645c-0.05-0.183-0.176-0.348-0.355-0.468c-0.416-0.274-1.006-0.229-1.332,0.091
						c-0.23,0.23-0.33,0.533-0.279,0.838l0.415,2.393c0.097,0.553,0.595,0.945,1.153,0.91l0,0c0.656-0.045,1.129-0.646,1.013-1.295
						l-0.142-0.777L128.099,120.645z"/>
					<path fill="#FFDAB6" d="M130.914,122.998l-0.03-0.268l-0.652-3.115c-0.059-0.201-0.199-0.375-0.4-0.492
						c-0.467-0.271-1.122-0.178-1.484,0.215c-0.255,0.273-0.365,0.621-0.307,0.955l0.327,2.748l0.241,0.84
						c0.162,0.602,0.76,0.975,1.369,0.857l0,0c0.588-0.113,1.002-0.643,0.967-1.24L130.914,122.998z"/>
				</g>
			</g>
		</g>
		<g>
			<path fill="#324669" d="M172.153,104.029h-34.389c-0.783,0-1.42-0.633-1.42-1.418v-0.492c0-0.783,0.637-1.42,1.42-1.42h34.389
				c0.783,0,1.418,0.637,1.418,1.42v0.492C173.571,103.396,172.937,104.029,172.153,104.029z"/>
			<path fill="#324669" d="M156.772,104.751h-3.629c-0.785,0-1.422-0.638-1.422-1.421v-1.93c0-0.783,0.637-1.416,1.422-1.416h3.629
				c0.785,0,1.422,0.633,1.422,1.416v1.93C158.194,104.113,157.56,104.751,156.772,104.751z"/>
			<rect x="152.63" y="100.888" fill="#292229" width="4.654" height="2.953"/>
			<g>
				<rect x="144.664" y="100.398" fill="#292229" width="1.137" height="4.389"/>
				<rect x="164.114" y="100.398" fill="#292229" width="1.138" height="4.389"/>
			</g>
			<path fill="#324669" d="M155.065,102.82h-3.256c-0.248,0-0.453-0.205-0.453-0.455l0,0c0-0.252,0.205-0.453,0.453-0.453h3.256
				c0.252,0,0.455,0.201,0.455,0.453l0,0C155.521,102.615,155.317,102.82,155.065,102.82z"/>
		</g>
		<g>
			<path fill="#B55151" d="M150.739,45.186c0,0,1.479,0.098,4.209,0.103c2.726-0.002,4.205-0.1,4.205-0.1l0,0
				c-2.217,3.091-6.191,3.091-8.414,0V45.186z"/>
			<path fill="#FFFFFF" d="M159.153,45.189L159.153,45.189c0,0-1.479,0.098-4.205,0.1c-2.729-0.005-4.209-0.103-4.209-0.103
				l0.003,0.003c0.231,0.324,0.485,0.606,0.753,0.861c0.799,0.055,1.98,0.114,3.447,0.115h0.006
				c1.471-0.001,2.654-0.061,3.453-0.115C158.667,45.793,158.923,45.513,159.153,45.189z"/>
			<path fill="#FFA1A3" d="M157.396,46.818c-0.691-0.154-1.502-0.278-2.451-0.276c-0.938,0.002-1.748,0.125-2.436,0.28
				C154.045,47.727,155.856,47.725,157.396,46.818z"/>
		</g>
		<path fill="#E8E6E7" d="M173.461,110.388l-0.229-6.358h-36.557l-0.229,6.358c-0.045,1.841-0.092,3.988-0.137,6.338
			c7.473,3.778,18.53,1.157,18.53,1.157s0.021,0.003,0.056,0.016c0.02-0.465,0.039-0.931,0.059-1.4
			c0.02,0.479,0.039,0.953,0.059,1.422c1.436,0.314,11.651,2.35,18.586-1.314C173.556,114.303,173.504,112.199,173.461,110.388z"/>
	</g>
	<path fill="none" d="M179.806,62.921c-0.883,0.829-1.859,1.553-2.91,2.152c0.101-0.343-0.197-0.699-0.541-0.795
		c-0.342-0.099-0.705-0.011-1.053,0.078"/>
	<g>
		<path fill="#292229" d="M149.392,54.533c0,0,0.453,20.433,5.449,31.106v29.973c0,0-13.396,3.18-20.664-2.498
			c0,0,2.309-32.324,4.127-35.957c0,0-7.684,15.141-3.824,38.304c0,0-4.617,2.874-9.158,1.968c0,0-4.769-16.805-2.725-30.881
			c2.043-14.078,7.493-20.434,10.898-25.203C136.901,56.575,149.392,54.533,149.392,54.533z"/>
		<path fill="#332A33" d="M145.302,76.898c0,0,3.754,7.102,9.539,12.192v-3.451c-4.996-10.673-5.449-31.106-5.449-31.106
			l-5.224,0.982l-2.158,12.073l5.904,5.222L145.302,76.898z"/>
		<rect x="138.718" y="97.445" fill="#332A33" width="10.293" height="2.574"/>
	</g>
	<g>
		<path fill="#292229" d="M160.289,54.533c0,0-0.453,20.433-5.448,31.106v29.973c0,0,13.396,3.18,20.663-2.498
			c0,0-2.308-32.324-4.126-35.957c0,0,8.867-4.712,10.139-9.569c0.561-2.127-2.268-4.768-4.879-6.926
			C172.122,56.93,160.289,54.533,160.289,54.533z"/>
		<path fill="#332A33" d="M164.377,76.898c0,0-3.756,7.102-9.536,12.192v-3.451c4.995-10.673,5.448-31.106,5.448-31.106l5.221,0.982
			l2.159,12.073l-5.906,5.222L164.377,76.898z"/>
		<rect x="160.667" y="97.445" fill="#332A33" width="10.293" height="2.574"/>
	</g>
	<path fill="#FFDAB6" d="M170.753,37.328c0,0,2.256,1.301,2.668,1.792c0.984,1.171,1.173,1.959,1.287,4.06
		c0.12,2.2,0.628,2.709,1.08,3.406c-0.15,0.13-3.741,3.054-3.782,3.059c-1.502,0.195-3.284-1.192-3.221-2.467
		c0.034-0.758,0.155-7.076,0.801-7.589L170.753,37.328z"/>
	<g>
		<path fill="#121212" d="M168.835,50.426L168.835,50.426c0.505,0.001,0.917-0.407,0.921-0.914l0.093-18.505
			c0.002-0.508-0.404-0.921-0.914-0.922l0,0c-0.504-0.002-0.918,0.406-0.92,0.913l-0.095,18.506
			C167.918,50.01,168.326,50.424,168.835,50.426z"/>
		<path fill="#292829" d="M168.903,36.517L168.903,36.517c0.164,0,0.299-0.132,0.299-0.297l0.013-2.447
			c0.002-0.164-0.132-0.298-0.296-0.299l0,0c-0.162,0-0.296,0.132-0.3,0.295l-0.013,2.449
			C168.604,36.382,168.739,36.516,168.903,36.517z"/>
		<path fill="#292829" d="M168.892,39.163L168.892,39.163c0.162,0.001,0.297-0.132,0.297-0.295l0.01-1.373
			c0-0.164-0.131-0.297-0.297-0.298l0,0c-0.164-0.001-0.299,0.132-0.299,0.297l-0.006,1.371
			C168.591,39.028,168.726,39.163,168.892,39.163z"/>
	</g>
	<g>
		<g>
			<path fill="#FFDAB6" d="M171.864,38.082c0.232,0.157,0.354,0.42,0.336,0.717l-0.012,0.148c-0.033,0.519-0.496,0.999-1.047,1.086
				c-0.246,0.04-0.483-0.003-0.668-0.121l-2.918-1.947c-0.625-0.417-0.695-1.308-0.146-1.818l0,0
				c0.396-0.369,0.994-0.413,1.443-0.109L171.864,38.082z"/>
			<path fill="#FFDAB6" d="M171.517,40.446c0.334,0.173,0.59,0.465,0.73,0.833c0.205,0.533-0.087,1.222-0.639,1.516
				c-0.307,0.162-0.643,0.171-0.903,0.028l-3.521-2.002c-0.596-0.338-0.793-1.105-0.431-1.686l0,0
				c0.34-0.544,1.046-0.729,1.604-0.42L171.517,40.446z"/>
			<path fill="#FFDAB6" d="M171.451,43.278c0.34,0.164,0.604,0.45,0.752,0.817c0.216,0.527-0.06,1.222-0.606,1.528
				c-0.302,0.168-0.635,0.187-0.898,0.05l-3.569-1.919c-0.603-0.324-0.815-1.085-0.467-1.675l0,0
				c0.327-0.551,1.024-0.751,1.594-0.457L171.451,43.278z"/>
			<g>
				<path fill="#FFDAB6" d="M167.132,46.331c-0.164-0.091-0.3-0.251-0.374-0.452c-0.174-0.467-0.004-1.032,0.39-1.276
					c0.277-0.173,0.594-0.204,0.879-0.086l2.234,0.942c0.518,0.218,0.787,0.79,0.627,1.328l0,0
					c-0.188,0.628-0.881,0.954-1.484,0.695l-0.73-0.313L167.132,46.331z"/>
			</g>
		</g>
	</g>
	<path fill="#292229" d="M175.444,45.109c3.615,3.292,16.634,15.78,15.609,25.089c-0.363,3.318-3.293,6.66-10.029,6.812
		c-7.64,0.173-12.412-1.119-13.547-2.649c-1.32-1.782,4.246-3.334,6.027-4.232c1.785-0.899,5.148-3.502,5.288-5.492
		c0.133-1.992-7.892-14.646-7.892-14.646C172.269,44.843,175.444,45.109,175.444,45.109z"/>
</g>
<g>
	<path fill="#FFDAB6" d="M42.564,127.027l1.882,3.178c-0.226,0.638-0.839,1.031-1.549,1.007c-0.608-0.021-1.194-0.351-1.546-0.872
		l-2.289-3.747l-1.586-5.437C40.563,122.574,41.598,125.545,42.564,127.027z"/>
	<rect x="59.225" y="57.948" fill="#E8E6E7" width="4.889" height="2.653"/>
	<g>
		<g>
			<g>
				<g>
					<polygon fill="#F7CDA3" points="74.939,181.885 74.498,189.818 74.498,189.818 65.501,190.826 66.88,182.009 					"/>
					<path fill="#4D2621" d="M68.444,200.5l-4.613-1.354c-1.14-3.816,1.265-9.121,1.265-9.121l3.724-1.033
						c0.869-0.199,1.803,0.031,2.386,0.592l0,0h3.302l1.416,2.135l3.825,0.951l7.121,2.372c2.094,0.774,2.686,2.36,2.271,4.521
						l-0.396,0.938H77.251C73.869,200.5,68.444,200.5,68.444,200.5z"/>
					<polygon fill="#68342D" points="89.149,200.5 89.33,199.129 63.832,199.145 64.002,200.5 					"/>
				</g>
			</g>
			<path fill="#68342D" d="M79.75,192.667l-1.374,0.478c-1.277,0.442-2.745,0.313-3.877-0.338l-2.641-1.521
				c-0.288-0.168-0.477-0.426-0.516-0.711l-0.135-0.988l3.285-0.879c0.678-0.186,1.379,0.224,1.397,0.802l0,0
				c0.021,0.759,0.511,1.457,1.3,1.856L79.75,192.667z"/>
		</g>
		<g>
			<g>
				<g>
					<polygon fill="#F7CDA3" points="48.389,181.885 48.829,189.818 48.829,189.818 57.826,190.826 56.449,182.009 					"/>
					<path fill="#4D2621" d="M54.884,200.5l4.612-1.354c1.142-3.816-1.265-9.121-1.265-9.121l-3.725-1.033
						c-0.869-0.199-1.8,0.031-2.384,0.592l0,0H48.82l-1.417,2.135l-3.825,0.951l-7.119,2.372c-2.097,0.774-2.687,2.36-2.273,4.521
						l0.396,0.938h11.497C49.459,200.5,54.884,200.5,54.884,200.5z"/>
					<polygon fill="#68342D" points="34.179,200.5 33.998,199.129 59.497,199.145 59.326,200.5 					"/>
				</g>
			</g>
			<path fill="#68342D" d="M43.577,192.667l1.375,0.475c1.275,0.444,2.744,0.315,3.876-0.335l2.64-1.521
				c0.291-0.166,0.478-0.424,0.517-0.711l0.137-0.99l-3.287-0.877c-0.679-0.184-1.379,0.222-1.396,0.802l0,0
				c-0.022,0.759-0.512,1.457-1.301,1.854L43.577,192.667z"/>
		</g>
	</g>
	<path fill="#E8E6E7" d="M63.953,59.373c6.044,0,12.352,1.861,15.97,4.396c4.736,3.316,8.809,10.214,13.221,17.34
		c0,0-6.601,6.098-11.719,6.967l-4.106-10.332c0,0,0.899,10.143,1.223,20.697c0.215,7.035-1.505,9.76-1.505,9.76
		s-2.486,3.908-15.368,3.908c-12.883,0-15.367-3.908-15.367-3.908s-1.721-2.726-1.506-9.76c0.323-10.555,1.222-20.697,1.222-20.697
		l-4.106,10.332c-5.116-0.869-11.718-6.967-11.718-6.967c4.412-7.126,8.484-14.024,13.222-17.34
		c3.617-2.536,9.926-4.396,15.969-4.396H63.953z"/>
	<g>
		<path fill="#FFDAB6" d="M61.958,62.502c1.221-0.04,2.429-1.858,3.236-3.046c-1.362-0.067-2.739-0.083-4.164-0.083
			c-0.833,0-1.67,0.05-2.505,0.134C59.38,60.731,60.676,62.531,61.958,62.502z"/>
	</g>
	<g>
		<g>
			<path fill="#FFDAB6" d="M60.111,58.111v-0.002l0.007-4.493l3.061,0.003l-0.005,4.493v0.002l-0.001,1.687
				c-0.875,0.775-2.19,0.773-3.063-0.004L60.111,58.111z"/>
			<path fill="#FFBD9A" d="M60.115,56.949L60.115,56.949l0.003-2.174l3.063,0.005l-0.004,2.171v0.001v0.311
				c0,0.414-0.662,0.782-1.517,0.785c-0.01,0-0.021,0-0.033,0c-0.855-0.003-1.515-0.375-1.513-0.788L60.115,56.949L60.115,56.949z"
				/>
			<g>
				<g>
					<path fill="#FFBD9A" d="M73.243,47.065l-1.077-0.002l0.008-6.069l1.745,0.002c0.907,0,1.739,0.5,2.17,1.3
						c0.394,0.739,0.388,1.627-0.02,2.359l-0.615,1.109C75.008,46.567,74.162,47.065,73.243,47.065z"/>
					<path fill="#FFBD9A" d="M47.867,45.535l-0.612-1.109c-0.405-0.734-0.409-1.622-0.013-2.36c0.432-0.797,1.266-1.296,2.172-1.295
						l1.746,0.002l-0.008,6.069l-1.079-0.002C49.156,46.842,48.311,46.34,47.867,45.535z"/>
					<path fill="#FFDAB6" d="M49.752,44.913l0.014-10.207c0.009-6.577,5.348-11.903,11.926-11.894
						c6.579,0.009,11.902,5.349,11.893,11.926L73.57,44.946c-0.009,6.578-5.349,11.902-11.925,11.895
						C55.067,56.83,49.745,51.491,49.752,44.913z"/>
					<path fill="#FFBD9A" d="M60.396,48.002l-0.003-0.003c-0.492-0.305-0.721-0.741-0.64-1.168c0.007-0.039,0.093-0.104,0.227-0.182
						c1.039-0.609,2.324-0.606,3.36,0.004c0.133,0.078,0.222,0.145,0.229,0.184c0.079,0.427-0.152,0.864-0.644,1.166
						C62.119,48.366,61.201,48.366,60.396,48.002z"/>
					<g>
						<path fill="#FFBD9A" d="M64.964,42.939c0,0-0.016-0.09-0.013-0.251c0.004-0.157,0.031-0.39,0.133-0.653
							c0.101-0.262,0.289-0.569,0.599-0.806c0.157-0.115,0.337-0.221,0.536-0.279c0.199-0.058,0.404-0.091,0.608-0.095h0.076
							l0.089,0.008l0.125,0.015c0.074,0.005,0.188,0.029,0.293,0.057c0.216,0.048,0.384,0.141,0.551,0.245
							c0.165,0.098,0.296,0.234,0.405,0.366c0.113,0.131,0.189,0.271,0.25,0.402c0.118,0.261,0.146,0.496,0.153,0.656
							c0.004,0.16-0.016,0.252-0.016,0.252l-0.047,0.006c0,0-0.013-0.08-0.061-0.217c-0.047-0.137-0.126-0.333-0.267-0.537
							c-0.139-0.206-0.347-0.418-0.621-0.563c-0.134-0.074-0.285-0.132-0.442-0.165c-0.15-0.04-0.33-0.051-0.487-0.051
							c-0.331-0.009-0.658,0.081-0.916,0.249c-0.261,0.167-0.452,0.396-0.582,0.604c-0.26,0.428-0.319,0.764-0.319,0.764
							L64.964,42.939z"/>
						<path fill="#FFFFFF" d="M64.99,42.944c0,0,0.327-1.713,1.905-1.663s1.836,1.58,1.836,1.58s-0.518,0.824-1.839,0.812
							C65.569,43.662,64.99,42.944,64.99,42.944z"/>
						<g>
							<circle fill="#4799BF" cx="66.893" cy="42.478" r="1.196"/>
							<circle cx="66.893" cy="42.476" r="0.531"/>
							<circle fill="#FFFFFF" cx="66.368" cy="41.948" r="0.442"/>
						</g>
						<path fill="#FFBD9A" d="M54.514,42.939c0,0-0.018-0.09-0.015-0.251c0.006-0.157,0.03-0.39,0.135-0.653
							c0.1-0.262,0.286-0.569,0.599-0.806c0.156-0.115,0.334-0.221,0.534-0.279c0.198-0.058,0.405-0.091,0.607-0.095h0.077
							l0.09,0.008l0.125,0.015c0.072,0.005,0.187,0.029,0.292,0.057c0.214,0.048,0.382,0.141,0.549,0.245
							c0.167,0.098,0.297,0.234,0.408,0.366c0.111,0.131,0.188,0.271,0.247,0.402c0.12,0.261,0.147,0.496,0.154,0.656
							c0.005,0.16-0.015,0.252-0.015,0.252l-0.047,0.006c0,0-0.014-0.08-0.059-0.217c-0.048-0.137-0.127-0.333-0.268-0.537
							c-0.14-0.206-0.347-0.418-0.621-0.563c-0.134-0.074-0.285-0.132-0.442-0.165c-0.151-0.04-0.33-0.051-0.488-0.051
							c-0.328-0.009-0.657,0.081-0.915,0.249c-0.261,0.167-0.45,0.396-0.582,0.604c-0.259,0.428-0.318,0.764-0.318,0.764
							L54.514,42.939z"/>
						<path fill="#FFFFFF" d="M54.537,42.944c0,0,0.328-1.713,1.905-1.663c1.578,0.05,1.837,1.58,1.837,1.58
							s-0.518,0.824-1.839,0.812C55.117,43.662,54.537,42.944,54.537,42.944z"/>
						<g>
							<circle fill="#4799BF" cx="56.441" cy="42.478" r="1.196"/>
							<circle cx="56.44" cy="42.476" r="0.531"/>
							<circle fill="#FFFFFF" cx="55.915" cy="41.949" r="0.441"/>
						</g>
						<path fill="#6E4222" d="M65.589,37.25l2.977,0.005c0.8,0,1.451,0.652,1.45,1.453v0.257l-5.128-0.007l0.001-1.01
							C64.891,37.562,65.202,37.249,65.589,37.25z"/>
						<path fill="#6E4222" d="M54.754,37.235l2.979,0.005c0.384,0,0.697,0.313,0.695,0.699v1.01l-5.126-0.006v-0.258
							C53.301,37.883,53.954,37.234,54.754,37.235z"/>
					</g>
				</g>
				<path fill="#6E4222" d="M64.759,23.103c0.281-0.248,0.643-0.385,1.017-0.385l0,0c4.904,0.006,8.873,3.988,8.867,8.889
					l-0.013,9.498c-0.228-0.068-0.466-0.108-0.71-0.108h-0.389c-0.722-0.347-1.26-1.025-1.407-1.859l-0.876-5.046
					c-0.212-1.218-1.269-2.109-2.507-2.11l-3.993-0.005l-1.989-9.26C63.442,22.715,64.123,22.848,64.759,23.103z"/>
				<path fill="#88512A" d="M50.136,40.773l-0.722-0.001c-0.244-0.001-0.482,0.039-0.708,0.106l0.012-9.306
					c0.007-4.903,3.988-8.871,8.892-8.865c0.374,0,2.333,0.002,3.019,0.002l6.917,0.011c2.113,0.001,4.112-0.963,5.425-2.621
					c1.1,1.717,1.682,3.713,1.68,5.754l-0.003,2.375c-0.003,2.077-1.689,3.758-3.766,3.755l-12.268-0.016l-3.995-0.004
					c-1.237-0.002-2.296,0.886-2.511,2.104l-0.892,5.044C51.092,39.809,50.69,40.397,50.136,40.773z"/>
			</g>
		</g>
	</g>
	<g>
		<path fill="#324669" d="M61.669,61.829h-2.02l0.061,0.911c0,0,0.71,1.307,1.188,2.08h0.773h0.771
			c0.475-0.773,1.188-2.08,1.188-2.08l0.061-0.911H61.669z"/>
		<path fill="#FEFEFE" d="M64.121,57.948c0,0-0.594,1.901-2.18,3.881c0,0,2.278,1.188,2.675,2.455c0,0,1.882-2.534,2.179-4.83
			L64.121,57.948z"/>
		<path fill="#FEFEFE" d="M59.218,57.948c0,0,0.593,1.901,2.179,3.881c0,0-2.28,1.188-2.677,2.455c0,0-1.882-2.534-2.179-4.83
			L59.218,57.948z"/>
	</g>
	<path fill="#324669" d="M62.331,63.572c1.836,10.548,2.886,23.111,3.128,34.086c0.019,0.916-2.051,2.363-3.794,5.345
		c-1.74-2.979-3.806-4.423-3.783-5.337c0.259-10.977,1.331-23.542,3.187-34.093L62.331,63.572z"/>
	<path fill="#292229" d="M77.597,118.793l-0.315-7.572l-10.63-0.535l-20.667,0.594l-0.254,7.514
		c-0.203,8.158-2.09,25.507-1.872,36.691c0.212,10.823,2.002,25.198,3.707,32.688c3.435,0.746,7.786,0.337,10.825-0.054
		c0,0-1.973-20.633-1.234-28.137c0.945-9.594,3.903-20.506,4.508-35.662c0.604,15.152,3.565,26.066,4.509,35.662
		c0.738,7.506-1.235,28.137-1.235,28.137c3.039,0.391,7.39,0.8,10.826,0.054c1.704-7.487,3.494-21.865,3.706-32.688
		C79.689,144.299,77.8,126.951,77.597,118.793z"/>
	<rect x="47.806" y="70.895" fill="#292229" width="8.551" height="2.138"/>
	<polygon fill="#292229" points="77.402,107.476 45.926,107.416 45.985,111.279 77.282,111.22 	"/>
	<g>
		<path fill="#4D2621" d="M55.344,134.775H20.79c-2.242,0-4.059,1.819-4.059,4.06v19.935c0,2.24,1.817,4.059,4.059,4.059h34.555
			c2.242,0,4.059-1.815,4.059-4.059v-19.935C59.403,136.597,57.585,134.775,55.344,134.775z"/>
		<path fill="#68342D" d="M42.581,144.623h-9.028c-3.536,0-6.416-2.875-6.416-6.416v-5.072c0-3.535,2.88-6.414,6.416-6.414h9.028
			c3.537,0,6.414,2.881,6.414,6.414v5.072C48.996,141.748,46.118,144.623,42.581,144.623z M33.553,129.406
			c-2.057,0-3.729,1.672-3.729,3.729v5.072c0,2.058,1.672,3.732,3.729,3.732h9.028c2.056,0,3.729-1.676,3.729-3.732v-5.072
			c0-2.057-1.674-3.729-3.729-3.729H33.553z"/>
		<g>
			<path fill="#68342D" d="M25.794,157.902L25.794,157.902c-0.864,0-1.565-0.699-1.565-1.565v-1.938
				c0-0.865,0.701-1.566,1.565-1.566l0,0c0.864,0,1.567,0.701,1.567,1.566v1.938C27.361,157.203,26.658,157.902,25.794,157.902z"/>
			<path fill="#68342D" d="M50.339,157.902L50.339,157.902c-0.865,0-1.566-0.699-1.566-1.565v-1.938
				c0-0.865,0.701-1.566,1.566-1.566l0,0c0.865,0,1.567,0.701,1.567,1.566v1.938C51.905,157.203,51.204,157.902,50.339,157.902z"/>
		</g>
		<g>
			<path fill="#FFBC53" d="M50.077,135.673h-2.834c-0.99,0-1.791-0.804-1.791-1.792v-1.789h4.625c0.989,0,1.791,0.803,1.791,1.789
				l0,0C51.868,134.871,51.066,135.673,50.077,135.673z"/>
			<path fill="#FFBC53" d="M28.892,135.673h-2.835c-0.99,0-1.792-0.804-1.792-1.792l0,0c0-0.986,0.802-1.789,1.792-1.789h4.625
				v1.789C30.68,134.871,29.879,135.673,28.892,135.673z"/>
		</g>
		<path fill="#68342D" d="M55.344,133.584H20.79c-2.242,0-4.059,1.816-4.059,4.058v13.667c0,2.24,1.817,4.061,4.059,4.061h34.555
			c2.242,0,4.059-1.819,4.059-4.061v-13.668C59.403,135.4,57.585,133.584,55.344,133.584z"/>
	</g>
	<g>
		<path fill="#FFDAB6" d="M38.215,123.398c0,0-0.048-0.111-0.111-0.338c-3.206-15.979-1.341-30.705,3.486-40.248l-7.482-3.8
			c-8.869,18.884-3.178,39.589-1.529,44.624c-0.042,0.344-0.118,0.674-0.247,1.111L38.215,123.398z"/>
		<g>
			<path fill="#FFDAB6" d="M40.266,126.854c-0.071-0.283-0.285-0.5-0.582-0.589l-0.149-0.044c-0.522-0.154-1.16,0.125-1.447,0.635
				c-0.126,0.227-0.171,0.475-0.121,0.699l0.856,3.57c0.183,0.765,1.033,1.156,1.733,0.8l0,0c0.504-0.259,0.765-0.826,0.628-1.375
				L40.266,126.854z"/>
			<path fill="#FFDAB6" d="M40.126,125.451l0.574,3.408l-8.245,2.283l-0.928-1.904c-0.506-3.072-0.033-5.152,1.245-6.299
				l3.786-1.445l1.208,0.185c0.194,0.026-0.029,0.524,0.164,0.563L40.126,125.451z"/>
			<path fill="#FFDAB6" d="M38.387,127.607c-0.046-0.393-0.24-0.752-0.552-1.021c-0.448-0.393-1.23-0.357-1.719,0.08
				c-0.27,0.242-0.401,0.57-0.354,0.878l0.691,4.182c0.116,0.708,0.797,1.177,1.5,1.029l0,0c0.655-0.136,1.091-0.761,0.993-1.425
				L38.387,127.607z"/>
			<g>
				<path fill="#FFDAB6" d="M33.57,128.664c-0.053-0.195-0.186-0.367-0.373-0.491c-0.434-0.289-1.053-0.244-1.393,0.097
					c-0.241,0.241-0.347,0.559-0.294,0.875l0.436,2.504c0.101,0.575,0.621,0.984,1.205,0.949l0,0
					c0.686-0.044,1.18-0.676,1.058-1.352l-0.147-0.818L33.57,128.664z"/>
				<path fill="#FFDAB6" d="M36.513,131.125l-0.032-0.279l-0.681-3.264c-0.062-0.207-0.21-0.393-0.42-0.514
					c-0.486-0.283-1.173-0.186-1.552,0.225c-0.266,0.289-0.381,0.65-0.32,1l0.34,2.879l0.253,0.876
					c0.171,0.629,0.795,1.019,1.433,0.897l0,0c0.615-0.119,1.046-0.672,1.01-1.297L36.513,131.125z"/>
			</g>
		</g>
	</g>
	<path fill="#E8E6E7" d="M40.458,76.383c-1.359-1.612-2.724-3.221-4.063-4.853c-0.011-0.016-0.027-0.033-0.041-0.05
		c-2.049,2.92-4.066,6.246-6.16,9.631c0,0,6.602,6.098,11.718,6.967l2.331-5.865C43.097,80.184,41.948,78.152,40.458,76.383z"/>
	<g>
		<path fill="#324669" d="M76.491,111.279H46.848c-0.82,0-1.486-0.666-1.486-1.484v-0.514c0-0.821,0.666-1.487,1.486-1.487h29.643
			c0.82,0,1.484,0.666,1.484,1.487v0.514C77.975,110.613,77.31,111.279,76.491,111.279z"/>
		<path fill="#324669" d="M63.569,112.031h-3.8c-0.82,0-1.484-0.662-1.484-1.486v-2.018c0-0.818,0.665-1.486,1.484-1.486h3.8
			c0.819,0,1.484,0.668,1.484,1.486v2.018C65.054,111.369,64.389,112.031,63.569,112.031z"/>
		<rect x="59.234" y="107.994" fill="#292229" width="4.869" height="3.088"/>
		<g>
			<rect x="50.899" y="107.476" fill="#292229" width="1.188" height="4.597"/>
			<rect x="71.25" y="107.476" fill="#292229" width="1.188" height="4.597"/>
		</g>
		<path fill="#324669" d="M61.782,110.01h-3.405c-0.261,0-0.475-0.212-0.475-0.473l0,0c0-0.262,0.213-0.478,0.475-0.478h3.405
			c0.261,0,0.476,0.216,0.476,0.478l0,0C62.258,109.799,62.044,110.01,61.782,110.01z"/>
	</g>
	<g>
		<path fill="#FFDAB6" d="M90.142,135.716c-0.4-1.179-0.869-2.677-1.543-3.999c0,0-0.025,3.859-0.091,5.898
			c-0.051,1.599-1.786,1.401-1.833,0.041c-0.038-1.119-0.154-4.112-0.282-5.992c0,0-0.41,1.685-0.748,3.509
			c-0.338,1.823-0.465,2.84-0.598,3.705c-0.241,1.587-2.071,1.329-1.969-0.337c0.119-1.948,0.319-4.957,0.873-7.309
			c0,0-1.789,3.281-3.174,5.707c-0.738,1.291-2.304,0.309-1.703-1.1c0.599-1.409,1.299-2.764,2.338-4.938
			c0.767-1.605,1.04-2.59,0.696-2.865c-0.344-0.276-1.716,0.211-3.182,0.479c-1.465,0.264-2.969,0.02-2.628-1.84
			c0,0,3.229-0.656,4.54-1.329c1.312-0.675,1.688-1.987,3.517-2.265c0,0,0.049-0.114,0.112-0.342
			c3.204-15.976,1.34-30.701-3.485-40.246l7.481-3.799c8.869,18.883,3.178,39.592,1.529,44.623c0.042,0.342,0.12,0.672,0.247,1.108
			c0,0,1.432,2.159,0.207,5.624c0,0,0.941,3.547,1.172,4.975S90.53,136.85,90.142,135.716z"/>
	</g>
	<path fill="#E8E6E7" d="M78.605,80.98l2.821,7.098c5.118-0.869,11.719-6.967,11.719-6.967c-1.756-2.838-3.459-5.633-5.171-8.188
		C84.814,75.561,81.719,78.279,78.605,80.98z"/>
	<g>
		<path fill="#B55151" d="M57.255,49.716c0,0,1.548,0.101,4.401,0.105c2.854-0.003,4.401-0.104,4.401-0.104l0,0
			c-2.319,3.235-6.477,3.235-8.801,0.001L57.255,49.716z"/>
		<path fill="#FFFFFF" d="M66.058,49.718L66.058,49.718c0,0-1.547,0.1-4.401,0.103c-2.854-0.004-4.401-0.104-4.401-0.104
			l0.001,0.002c0.243,0.338,0.511,0.633,0.79,0.9c0.834,0.057,2.071,0.118,3.61,0.12h0.003c1.539-0.001,2.776-0.062,3.61-0.12
			C65.549,50.351,65.815,50.057,66.058,49.718z"/>
		<path fill="#FFA1A3" d="M64.217,51.422c-0.722-0.16-1.572-0.289-2.561-0.287c-0.986,0-1.832,0.13-2.552,0.294
			C60.714,52.373,62.609,52.372,64.217,51.422z"/>
	</g>
	<g>
		
			<rect x="83.807" y="119.652" transform="matrix(-0.9761 -0.2173 0.2173 -0.9761 147.0702 258.1352)" fill="#324669" width="7.839" height="2.661"/>
		<circle fill="#FFFFFF" cx="87.732" cy="120.978" r="1.849"/>
		<circle fill="#292229" cx="87.733" cy="120.979" r="1.271"/>
	</g>
</g>
<g>
	<path fill="#F8A285" d="M202.39,95.794c0,0-2.728,1.927-2.799,1.964c-0.772,0.411-5.423,2.955-5.041,4.625
		c0.416,1.82,2.789,5.512,3.551,5.46c0.76-0.048,2.693-1.146,2.693-1.146s0.156-6.062,2.604-7.412"/>
	<polygon fill="#5A2B25" points="200.474,181.955 198.784,104.184 202.804,104.184 202.804,182.455 	"/>
	<path fill="#5A2B25" d="M209.167,102.818c0,1.104-0.892,1.994-1.994,1.994h-9.246c-1.104,0-1.998-0.892-1.998-1.994l0,0
		c0-1.104,0.894-1.996,1.998-1.996h9.246C208.275,100.82,209.167,101.715,209.167,102.818L209.167,102.818z"/>
	<path fill="#F8A285" d="M201.79,99.676c0,0-4.169,4.449-3.938,4.941c0.234,0.496,2.186-0.051,3.121-0.545
		c0.938-0.494,2.057-1.828,2.057-1.828s2.783,0.035,3.539-1.059c0.755-1.092,0.26-2.185-0.704-2.264
		c-0.959-0.078-3.955,0.521-3.955,0.521"/>
	<path fill="#E0E0E0" d="M212.767,46.005c0,0-3.996,4.354-4.69,16.323c-0.765,13.168-0.295,11.913-1.765,17.165
		c-1.127,4.029-3.906,13.355-5.519,16.231c-0.313,0.558,2.853,7.445,6.718,4.578C213.873,95.585,217.601,49.004,212.767,46.005z"/>
	<path fill="#161617" d="M223.056,170.842c0,0,0.473-0.189,0.992,0.389c0.522,0.574,1.396,5.164,1.344,6.52
		c-0.055,1.351-0.192,4.129-0.192,4.129l-6.065-0.087l-0.533-1.236c0,0-3.644,0.495-5.164,1.507
		c-1.519,1.012-8.065,1.232-12.961-0.105c0,0-0.346-3.356,0.432-3.66c0.775-0.305,6.583,0.434,10.052-2.102
		c3.472-2.539,4.615-4.944,5.679-4.851C217.693,171.438,221.36,172.293,223.056,170.842z"/>
	<path fill="#161617" d="M241.872,171.068c0,0,0.479-0.183,0.988,0.403c0.512,0.584,1.316,5.187,1.242,6.54
		c-0.074,1.352-0.258,4.128-0.258,4.128l-6.063-0.183l-0.516-1.241c0,0-3.651,0.438-5.187,1.424
		c-1.537,0.986-8.086,1.108-12.957-0.305c0,0-0.294-3.358,0.483-3.653c0.779-0.293,6.58,0.536,10.086-1.945
		c3.506-2.486,4.689-4.873,5.75-4.764C236.501,171.582,240.157,172.494,241.872,171.068z"/>
	<path fill="#42201B" d="M227.675,84.779l-14.814,1.787c0,0-3.537,33.428-3.016,45.158c0.729,16.333,4.442,39.813,4.442,39.813
		s1.636,1.56,5.921,1.553c4.039-0.008,5.453-1.387,5.453-1.387s-2.811-28.43-1.979-40.813c0.607-9.042,5.838-34.776,5.838-34.776
		l-1.848-1.41L227.675,84.779L227.675,84.779z"/>
	<path fill="#42201B" d="M246.397,87.449h-16.444c0,0-1.905,35.215-1.382,46.945c0.729,16.336,4.439,39.813,4.439,39.813
		s1.635,1.56,5.92,1.552c4.041-0.005,5.457-1.384,5.457-1.384s-2.813-28.434-1.979-40.811c0.605-9.045,3.986-30.639,3.986-30.639
		v-5.557v-9.92H246.397z"/>
	<path fill="#1A2440" d="M246.995,103.089c0,0-7.193,2.334-20.587,2.438c-9.015,0.068-16.229-2.438-16.229-2.438
		s0.291-19.31,0.674-35.257c0.076-2.765,0.15-5.419,0.216-7.868c0.219-7.124,0.452-12.394,0.674-12.876
		c1.174-2.547,4.927-3.779,7.399-4.311c0.36-0.077,0.69-0.133,0.985-0.184c0.94-0.185,1.988-0.358,3.187-0.5
		c3.363-0.383,7.824-1.114,13.453-0.133c0.502,0.083,0.916,0.158,1.273,0.233l0.008-0.041c0,0,1.418,0.225,3.139,0.581
		c2.291,0.46,5.096,1.159,5.813,1.849c0.01,0.009,0.01,0.009,0.01,0.009C251.205,48.884,246.995,103.089,246.995,103.089z"/>
	<rect x="226.14" y="35.151" fill="#DB9075" width="8.528" height="7.48"/>
	<path fill="#F8A285" d="M239.318,9.467c2.334,4.917,2.118,11.621,1.087,15.881c-1.032,4.262-1.029,9.216-5.389,10.425
		c-3.655,1.013-11.608,1.424-13.18-4.429c-1.57-5.855-3.984-19.532,2.016-23.854C226.597,5.513,237.16,4.925,239.318,9.467z"/>
	<path fill="#F8A285" d="M237.955,22.805c0,1.485,1.229,2.69,2.754,2.69c1.521,0,2.753-1.206,2.753-2.69
		c0-1.486-1.232-2.691-2.753-2.691C239.185,20.113,237.955,21.319,237.955,22.805z"/>
	<path fill="#F8A285" d="M217.776,22.228c0,1.423,1.181,2.578,2.64,2.578c1.456,0,2.638-1.154,2.638-2.578
		c0-1.421-1.182-2.576-2.638-2.576C218.957,19.652,217.776,20.807,217.776,22.228z"/>
	<path fill="#EDEDED" d="M232.938,18.722c0,0,1.793-0.556,3.244-0.174c1.606,0.419,2.265,0.951,2.265,0.951s-0.013-1.108-0.752-1.67
		c-0.742-0.56-1.206-0.597-1.206-0.597l0.281-0.145c0,0-1.881-0.452-2.994,0.11C233.138,17.523,232.736,18.215,232.938,18.722z"/>
	<path fill="#EDEDED" d="M227.41,18.718c0,0-1.81-0.608-3.245-0.175c-1.556,0.47-2.122,0.977-2.122,0.977s-0.13-1.133,0.612-1.694
		c0.742-0.562,1.206-0.597,1.206-0.597l-0.363-0.157c0,0,1.979-0.468,3.077,0.123C227.513,17.701,227.616,18.211,227.41,18.718z"/>
	<path fill="#27355E" d="M240.321,42.392c-0.949,2.25-2.669,6.34-9.889,6.509c-6.51,0.154-9.141-4.641-9.641-6.455
		c0.309-0.064,0.955-0.165,1.207-0.209c0.807-0.156,1.648-0.204,2.68-0.326c2.885-0.328,6.715-0.957,11.545-0.113
		c0.43,0.072,0.785,0.135,1.092,0.201l0.008-0.036C237.325,41.963,238.843,42.084,240.321,42.392z"/>
	<path fill="#E0E0E0" d="M239.121,42.169c-0.84,3.171-5.508,5.275-8.719,5.275c-3.142,0-7.447-2.138-8.343-5.217
		C225.921,41.378,232.365,40.744,239.121,42.169z"/>
	<polyline fill="#EDEDED" points="224.024,41.784 226.257,38.734 230.433,41.434 227.517,44.972 223.856,41.874 	"/>
	<polyline fill="#EDEDED" points="236.845,41.784 234.608,38.734 230.433,41.434 233.489,45.256 237.009,41.874 	"/>
	<path fill="#EDEDED" d="M229.968,27.369c0,0,1.979-0.713,3.313,0.275c1.332,0.989,2.391,2.28,2.391,2.28s-1.886,0.742-4.076-0.165
		C229.402,28.852,229.123,28.138,229.968,27.369z"/>
	<path fill="#EDEDED" d="M230.06,27.369c0,0-1.979-0.713-3.313,0.275c-1.331,0.989-2.39,2.28-2.39,2.28s1.885,0.742,4.074-0.165
		C230.623,28.852,230.902,28.138,230.06,27.369z"/>
	<path fill="#EDEDED" d="M240.427,22.94c0,0,0.403-2.716,1.133-2.693c0,0,1.332-10.334-1.287-11.476
		c-2.623-1.14-3.441,0.659-2.635,3.222c0.81,2.563,2.377,8.347,1.979,10.948C239.618,22.94,239.493,23.708,240.427,22.94z"/>
	<path fill="#EDEDED" d="M220.022,19.684l0.207,2.943c0,0,0.511-0.346,0.589-3.128c0.079-2.783,0.157-6.444,2.235-9.849
		c0,0,0.83-1.649-0.334-1.905C221.558,7.489,218.533,12.218,220.022,19.684z"/>
	<path fill="#F8A285" d="M245.312,109.926c0,0-3.402,6.001-2.969,7.596c0.435,1.598,1.719,3.381,2.412,3.813
		c0.693,0.437,1.055-0.521,0.952-1.298c-0.104-0.778-0.834-2.012-0.834-2.012s1.11-2.984,1.32-4.267
		c0.204-1.284,0.202-2.845,0.202-2.845"/>
	<path fill="#F8A285" d="M245.134,114.395c0,0-1.183,4.592-0.324,6.008c0.854,1.416,2.578,2.78,3.365,3.008
		c0.783,0.227,0.875-0.791,0.563-1.514c-0.316-0.722-1.354-1.705-1.354-1.705s0.246-3.172,0.094-4.466
		c-0.15-1.291-2.229-1.364-2.229-1.364"/>
	<path fill="#F8A285" d="M247.335,112.906c0,0-1.179,4.592-0.324,6.008c0.855,1.414,2.582,2.777,3.366,3.006
		c0.786,0.229,0.876-0.791,0.562-1.512c-0.313-0.721-1.354-1.707-1.354-1.707s0.252-3.172,0.096-4.465
		c-0.151-1.289-2.229-1.363-2.229-1.363"/>
	<path fill="#F8A285" d="M244.25,115.035c0,0,5.45,2.545,6.697,0.634c3.056-4.701-4.233-4.925-5.447-3.679
		C244.285,113.238,244.25,115.035,244.25,115.035z"/>
	<path fill="#E0E0E0" d="M260.153,94.892c-1.864,10.521-4.167,11.835-6.574,16.938c0,0-0.824,4.369-6.129,1.041
		c-6.234-3.912-0.855-2.021,1.814-15.166c2.674-13.15-2.863-29.292-2.863-29.292s-0.317-1.073-0.691-2.796
		c-0.343-1.556-0.729-3.638-0.982-5.943c-0.558-5.177-0.389-11.436,2.666-15.199c0,0,5.636,1.29,8.341,12.537
		C258.438,68.256,262.043,84.212,260.153,94.892z"/>
	<g>
		<path fill="#F8A285" d="M229.308,23.717c0,0-0.744,3.294-0.625,3.4c0.123,0.103,1.451,0.901,2.623,0.381
			C232.479,26.976,229.308,23.717,229.308,23.717z"/>
		<path fill="#DE9177" d="M229.492,22.121c0,0,0.202,3.433-0.396,4.431c-0.601,0.998,2.209,0.945,2.209,0.945
			s-2.271,0.634-2.99-0.495C228.03,26.552,229.158,25.149,229.492,22.121z"/>
	</g>
	<path fill="#EDEDED" d="M243.751,111.345c0,0,4.006,3.474,8.271,3.315l3.535-5.672l-8.86-4.268L243.751,111.345z"/>
	<path fill="#EDEDED" d="M200.153,96.297c0,0,2.445,5.617,6.556,5.201l3.536-4.84c0,0-5.465-2.811-7.855-6.346L200.153,96.297z"/>
	<polygon fill="#27355E" points="218.449,58.543 214.892,63.703 217.892,68.948 221.293,63.703 	"/>
	<path fill="#27355E" d="M214.89,63.701l-3.398,5.245l-0.641-1.115c0.076-2.765,0.15-5.419,0.215-7.868l0.986-1.423L214.89,63.701z"
		/>
	<polygon fill="#27355E" points="224.849,58.543 221.293,63.703 224.298,68.948 227.696,63.703 	"/>
	<polygon fill="#27355E" points="231.252,58.543 227.696,63.703 230.698,68.948 234.097,63.703 	"/>
	<polygon fill="#27355E" points="237.655,58.543 234.097,63.703 237.101,68.948 240.5,63.703 	"/>
	<path fill="#27355E" d="M245.711,65.615l-2.155,3.331l-3.002-5.245l3.553-5.161l0.623,1.132
		C244.981,61.978,245.368,64.058,245.711,65.615z"/>
	<path fill="#9E6754" d="M224.149,22.737c0.209-0.57,0.857-0.855,1.451-0.638c0.354,0.128,0.604,0.408,0.711,0.733
		c0.186-0.563-0.123-1.183-0.709-1.396c-0.594-0.217-1.244,0.068-1.453,0.637c-0.086,0.231-0.079,0.471-0.008,0.693
		C224.146,22.757,224.146,22.745,224.149,22.737z"/>
	<path fill="#9E6754" d="M234.111,22.737c0.209-0.569,0.858-0.854,1.452-0.637c0.354,0.128,0.604,0.408,0.709,0.732
		c0.187-0.562-0.121-1.183-0.703-1.396c-0.598-0.218-1.248,0.069-1.457,0.64c-0.083,0.229-0.078,0.469-0.008,0.691
		C234.106,22.757,234.109,22.747,234.111,22.737z"/>
</g>
</svg>
