<?xml version="1.0" encoding="utf-8"?>
<!-- Generator: Adobe Illustrator 16.0.0, SVG Export Plug-In . SVG Version: 6.00 Build 0)  -->
<!DOCTYPE svg PUBLIC "-//W3C//DTD SVG 1.1//EN" "http://www.w3.org/Graphics/SVG/1.1/DTD/svg11.dtd">
<svg version="1.1" id="Layer_1" xmlns="http://www.w3.org/2000/svg" xmlns:xlink="http://www.w3.org/1999/xlink" x="0px" y="0px"
	 width="270px" height="219.686px" viewBox="0 0 270 219.686" enable-background="new 0 0 270 219.686" xml:space="preserve">
<path display="none" fill="#8E2B30" d="M74.503,174.584c0.369,1.132,1.572,1.921,2.951,1.847c1.378-0.074,2.486-0.992,2.728-2.156
	L74.503,174.584z"/>
<path display="none" fill="#FFFFFF" d="M74.549,174.713c0.756,0.168,1.749,0.313,2.824,0.252c1.075-0.062,2.044-0.313,2.778-0.563
	c0.011-0.045,0.022-0.088,0.031-0.133l-5.679,0.313C74.516,174.627,74.534,174.67,74.549,174.713z"/>
<path display="none" fill="#D85365" d="M79.307,175.707c-0.528-0.375-1.334-0.403-1.915-0.373s-1.378,0.149-1.86,0.581
	c0.53,0.355,1.2,0.557,1.922,0.518C78.174,176.391,78.82,176.12,79.307,175.707z"/>
<g display="none">
	<path display="inline" fill="#8E3925" d="M84.083,165.629c0.067,4.521-2.936,8.396-6.673,8.614
		c-3.738,0.216-7.174-3.402-7.636-8.04c-0.462-4.64,2.541-8.515,6.673-8.613C80.58,157.49,84.016,161.107,84.083,165.629z"/>
	<g display="inline">
		<g>
			<path fill="#FFB288" d="M84.971,170.557c-0.17,1.321-0.811,1.521-1.517,1.676c-0.79,0.179-1.16-1.123-0.989-2.442
				c0.172-1.317,0.516-2.671,1.604-2.339C85.076,167.757,85.141,169.236,84.971,170.557z"/>
		</g>
		
			<image overflow="visible" enable-background="new    " width="13" height="21" xlink:href="EBA56EB9.png"  transform="matrix(0.1108 0 0 0.16 83.0737 168.3381)">
		</image>
	</g>
	<g display="inline">
		<g>
			<path fill="#FFB288" d="M69.35,171.42c0.315,1.294,0.975,1.422,1.693,1.499c0.803,0.085,1.027-1.245,0.712-2.542
				c-0.314-1.294-0.805-2.601-1.85-2.146C68.938,168.648,69.037,170.124,69.35,171.42z"/>
		</g>
		
			<image overflow="visible" enable-background="new    " width="13" height="17" xlink:href="EBA56EBF.png"  transform="matrix(0.1108 0 0 0.1976 69.8125 169.0715)">
		</image>
	</g>
	<path display="inline" fill="#ED8366" d="M73.953,179.898c0.059,1.059,2.427,1.707,3.782,1.635
		c1.356-0.074,3.646-0.836,3.579-2.039l-0.289-5.239l-7.36,0.407L73.953,179.898z"/>
	<path display="inline" fill="#FFB288" d="M83.367,169.652c0.217,5.406-2.36,9.979-5.727,10.168
		c-3.367,0.188-6.432-4.076-6.812-9.477c-0.38-5.396,2.197-9.979,5.727-10.172C80.085,159.982,83.151,164.245,83.367,169.652z"/>
	<path display="inline" fill="#FFB288" d="M74.498,174.502c-0.983,0.056-0.08,3.899,3.054,3.729
		c3.135-0.172,3.627-4.096,2.625-4.041L74.498,174.502z"/>
	<path display="inline" fill="#8E3925" d="M74.973,158.887l0.354-0.08c0.4-0.086,0.854-0.076,1.324,0.006
		c0.459-0.133,0.908-0.191,1.314-0.147l0.36,0.038c0.401,0.042,0.702,0.068,0.928,0.102c-0.001-0.035-0.001-0.07-0.004-0.107
		c0,0,0.088,0.052,0.237,0.143c0.307,0.051,0.387,0.104,0.375,0.229c0.899,0.563,2.53,1.646,3.052,2.412
		c0.594,0.879,1.221,4.732,0.998,5.021c-0.05,0.063,0.189,0.896-0.216,0.919c-0.769,0.043-0.7,2.087-0.7,2.087
		c-0.033-0.604-0.232-3.361-0.302-4.654c-0.114-2.059-1.418-3.242-2.348-3.188c-1.561,0.084-1.954,1.714-3.557,1.801h-0.004
		c-1.604,0.091-2.172-1.481-3.735-1.397c-0.928,0.056-2.095,1.375-1.98,3.434c0.071,1.292,0.119,4.07,0.153,4.674
		c0,0-0.072-1.941-0.866-2.011c-0.404-0.034-0.259-0.832-0.315-0.892c-0.253-0.259-0.057-4.16,0.439-5.103
		c0.433-0.817,1.935-2.075,2.766-2.731c-0.024-0.121,0.048-0.188,0.348-0.271c0.137-0.104,0.219-0.166,0.219-0.166
		c0.001,0.035,0.006,0.067,0.009,0.104c0.221-0.053,0.517-0.114,0.911-0.203l0.354-0.077c0.398-0.087,0.853-0.073,1.323,0.009
		c0.458-0.137,0.908-0.194,1.316-0.15l0.357,0.037"/>
	<g display="inline">
		<circle fill="#FFFFFF" stroke="#FFFFFF" stroke-width="0.4355" stroke-miterlimit="10" cx="80.12" cy="168.927" r="0.896"/>
		
			<line fill="none" stroke="#8E3925" stroke-width="0.3" stroke-linecap="round" stroke-miterlimit="10" x1="78.954" y1="167.098" x2="81.711" y2="167.021"/>
		
			<line fill="none" stroke="#8E3925" stroke-width="0.3" stroke-linecap="round" stroke-miterlimit="10" x1="74.935" y1="167.318" x2="72.185" y2="167.546"/>
		<g>
			<g>
				<path fill="#422B27" d="M80.104,169.488c-0.297,0-0.542-0.231-0.558-0.529c-0.009-0.15,0.041-0.293,0.141-0.404
					c0.099-0.111,0.237-0.178,0.388-0.188h0.031c0.297,0,0.542,0.233,0.558,0.528c0.019,0.312-0.22,0.576-0.528,0.592
					L80.104,169.488z"/>
				<path fill="#422B27" d="M80.106,168.417c0.269,0,0.493,0.211,0.508,0.48c0.016,0.281-0.2,0.521-0.479,0.537
					c-0.01,0-0.02,0.002-0.03,0.002c-0.269,0-0.493-0.211-0.508-0.481c-0.016-0.282,0.2-0.521,0.481-0.539
					C80.086,168.417,80.097,168.417,80.106,168.417 M80.106,168.316c-0.011,0-0.023,0-0.035,0c-0.336,0.021-0.595,0.309-0.577,0.645
					c0.017,0.324,0.286,0.578,0.61,0.578c0.012,0,0.023-0.001,0.033-0.001c0.337-0.021,0.596-0.308,0.578-0.646
					C80.699,168.57,80.429,168.316,80.106,168.316L80.106,168.316z"/>
			</g>
		</g>
		<g>
			<g>
				<circle fill="#FFFFFF" cx="80.639" cy="168.717" r="0.227"/>
			</g>
		</g>
		<circle fill="#FFFFFF" stroke="#FFFFFF" stroke-width="0.4355" stroke-miterlimit="10" cx="73.809" cy="169.274" r="0.894"/>
		<g>
			<g>
				<path fill="#422B27" d="M73.824,169.833c-0.298,0-0.542-0.229-0.56-0.527c-0.007-0.15,0.042-0.293,0.142-0.404
					c0.101-0.11,0.237-0.178,0.387-0.188h0.032c0.295,0,0.542,0.231,0.558,0.529c0.008,0.149-0.042,0.293-0.142,0.403
					c-0.099,0.11-0.236,0.179-0.387,0.188L73.824,169.833L73.824,169.833z"/>
				<path fill="#422B27" d="M73.826,168.764c0.269,0,0.494,0.211,0.508,0.48c0.016,0.279-0.2,0.521-0.481,0.535
					c-0.01,0.002-0.019,0.002-0.028,0.002c-0.27,0-0.495-0.211-0.509-0.48c-0.016-0.281,0.2-0.521,0.481-0.537
					C73.807,168.764,73.815,168.764,73.826,168.764 M73.826,168.663L73.826,168.663c-0.013,0-0.023,0-0.036,0.001
					c-0.335,0.021-0.594,0.308-0.576,0.644c0.017,0.323,0.285,0.578,0.61,0.578c0.011,0,0.023,0,0.034,0
					c0.336-0.021,0.595-0.309,0.577-0.646C74.418,168.917,74.149,168.663,73.826,168.663L73.826,168.663z"/>
			</g>
		</g>
		<g>
			<g>
				<circle fill="#FFFFFF" cx="74.375" cy="169.063" r="0.225"/>
			</g>
		</g>
	</g>
	
		<line display="inline" fill="none" stroke="#8E3925" stroke-width="0.3" stroke-linecap="round" stroke-miterlimit="10" x1="83.074" y1="166.99" x2="83.198" y2="169.459"/>
	
		<line display="inline" fill="none" stroke="#8E3925" stroke-width="0.3" stroke-linecap="round" stroke-miterlimit="10" x1="70.846" y1="167.665" x2="70.993" y2="170.135"/>
</g>
<path display="none" fill="#FF7854" d="M78.67,172.27c-0.007-0.149-0.147-0.17-0.546-0.015c-0.184,0.074-0.51,0.165-0.89,0.188
	c-0.382,0.021-0.717-0.03-0.906-0.086c-0.415-0.108-0.551-0.082-0.542,0.07c0.01,0.207,0.747,0.791,1.483,0.756l0,0
	c0.001,0,0.002,0,0.005,0c0-0.002,0.002-0.002,0.004-0.002l0,0C78.014,173.135,78.684,172.477,78.67,172.27z"/>
<path fill="#FFFFFF" d="M109.374,89.442c-1.95,0-1.95,3.256,0,3.256C111.327,92.698,111.327,89.442,109.374,89.442z"/>
<g>
	<g>
		<g>
			<g enable-background="new    ">
				<g>
					<path fill="#EDC621" d="M159.603,188.844c0.571-2.827,5.619-5.384,13.36-6.342l-0.004,7.448
						c-7.741,0.957-12.793,3.514-13.361,6.347C159.598,193.814,159.603,191.329,159.603,188.844z"/>
				</g>
				<g>
					<path fill="#EDC621" d="M197.953,187.113c0.71,0.776,1.047,1.561,1.047,2.334l-0.006,7.45c0-0.777-0.338-1.561-1.043-2.336
						c-3.481-3.814-14.678-5.88-24.992-4.609l0.004-7.448C183.277,181.23,194.474,183.296,197.953,187.113z"/>
				</g>
				<g>
					<path fill="#EDC621" d="M159.552,189.384c0-0.176,0.015-0.355,0.051-0.54c0,2.488-0.005,4.97-0.005,7.453
						c-0.038,0.176-0.052,0.358-0.052,0.535C159.541,194.597,159.55,191.621,159.552,189.384z"/>
				</g>
				<g>
					<path fill="#FFDD4D" d="M199,189.447l-0.006,7.45c-0.002,3.035-5.198,5.859-13.417,6.872l0.005-7.442
						C193.805,195.313,198.996,192.486,199,189.447z"/>
				</g>
				<g>
					<path fill="#FFDD4D" d="M159.541,196.831l0.009-7.447c-0.002,0.772,0.33,1.561,1.039,2.33
						c3.485,3.819,14.672,5.876,24.993,4.611l-0.011,7.441c-10.319,1.271-21.501-0.784-24.99-4.599
						C159.878,198.39,159.541,197.604,159.541,196.831z"/>
				</g>
				<g>
					<path fill="#FFE783" d="M185.582,196.326c-10.321,1.268-21.505-0.786-24.992-4.611c-3.483-3.81,2.054-7.935,12.373-9.212
						c10.314-1.272,21.511,0.793,24.99,4.609C201.441,190.93,195.895,195.057,185.582,196.326z"/>
				</g>
				<g>
					<path fill="#EDC621" d="M203.929,189.451l-0.004,7.452c0,3.798-6.492,7.332-16.768,8.597l0.003-7.447
						C197.436,196.781,203.925,193.249,203.929,189.451z"/>
				</g>
				<g>
					<path fill="#EDC621" d="M154.611,196.823l0.006-7.455c0,0.971,0.418,1.954,1.306,2.928c4.354,4.764,18.337,7.344,31.237,5.75
						l-0.003,7.451c-12.903,1.588-26.885-0.988-31.244-5.759C155.031,198.772,154.611,197.786,154.611,196.823z"/>
				</g>
				<g>
					<path fill="#FFD522" d="M187.16,198.049c-12.902,1.596-26.884-0.984-31.237-5.752c-4.358-4.774,2.564-9.934,15.466-11.521
						c12.895-1.586,26.883,0.987,31.241,5.763C206.985,191.306,200.053,196.466,187.16,198.049z M172.963,182.501
						c-10.317,1.272-15.856,5.399-12.373,9.213c3.487,3.819,14.671,5.876,24.992,4.611c10.313-1.271,15.859-5.398,12.371-9.215
						C194.474,183.296,183.277,181.23,172.963,182.501"/>
				</g>
			</g>
		</g>
		<g>
			<g enable-background="new    ">
				<g>
					<path fill="#EDC621" d="M162.334,180.355c0.566-2.828,5.618-5.39,13.36-6.346l-0.006,7.449
						c-7.74,0.954-12.791,3.517-13.361,6.35C162.327,185.318,162.329,182.836,162.334,180.355z"/>
				</g>
				<g>
					<path fill="#EDC621" d="M200.69,178.615c0.702,0.776,1.038,1.561,1.038,2.335l-0.004,7.447c0-0.773-0.341-1.559-1.043-2.332
						c-3.482-3.815-14.676-5.874-24.99-4.607l0.006-7.452C186.008,172.737,197.206,174.803,200.69,178.615z"/>
				</g>
				<g>
					<path fill="#EDC621" d="M162.279,180.89c0-0.181,0.021-0.359,0.053-0.535c0,2.481-0.005,4.963-0.007,7.453
						c-0.034,0.175-0.05,0.351-0.05,0.53C162.275,186.107,162.279,183.126,162.279,180.89z"/>
				</g>
				<g>
					<path fill="#FFDD4D" d="M201.729,180.948l-0.004,7.451c-0.004,3.039-5.195,5.862-13.415,6.877l0.009-7.449
						C196.529,186.812,201.725,183.989,201.729,180.948z"/>
				</g>
				<g>
					<path fill="#FFDD4D" d="M162.275,188.337l0.004-7.447c0,0.771,0.335,1.559,1.042,2.333c3.486,3.817,14.665,5.88,24.993,4.603
						l-0.006,7.453c-10.323,1.272-21.503-0.788-24.991-4.607C162.605,189.892,162.275,189.115,162.275,188.337z"/>
				</g>
				<g>
					<path fill="#FFE783" d="M188.314,187.826c-10.329,1.271-21.507-0.786-24.993-4.606c-3.485-3.812,2.052-7.94,12.375-9.213
						c10.312-1.269,21.512,0.796,24.994,4.609C204.171,182.428,198.628,186.554,188.314,187.826z"/>
				</g>
				<g>
					<path fill="#EDC621" d="M206.66,180.96l-0.006,7.448c-0.001,3.799-6.493,7.331-16.769,8.595l0.003-7.448
						C200.164,188.285,206.66,184.759,206.66,180.96z"/>
				</g>
				<g>
					<path fill="#EDC621" d="M157.344,188.33l0.004-7.455c0,0.971,0.419,1.956,1.304,2.923c4.354,4.767,18.34,7.352,31.237,5.757
						l-0.003,7.448c-12.896,1.592-26.885-0.984-31.241-5.755C157.759,190.276,157.344,189.293,157.344,188.33z"/>
				</g>
				<g>
					<path fill="#FFD522" d="M189.889,189.555c-12.899,1.599-26.883-0.983-31.239-5.752c-4.355-4.771,2.566-9.929,15.469-11.516
						c12.893-1.592,26.883,0.984,31.239,5.757C209.713,182.811,202.783,187.97,189.889,189.555z M175.693,174.009
						c-10.321,1.27-15.857,5.4-12.376,9.209c3.49,3.82,14.668,5.88,24.997,4.607c10.309-1.272,15.856-5.398,12.372-9.214
						C197.206,174.803,186.008,172.737,175.693,174.009"/>
				</g>
			</g>
		</g>
		<g>
			<g enable-background="new    ">
				<g>
					<path fill="#EDC621" d="M158.243,169.3c0.569-2.836,5.618-5.391,13.359-6.344l-0.004,7.448
						c-7.743,0.95-12.793,3.52-13.36,6.343C158.24,174.261,158.243,171.782,158.243,169.3z"/>
				</g>
				<g>
					<path fill="#EDC621" d="M196.597,167.562c0.705,0.771,1.041,1.562,1.041,2.329l-0.006,7.45c0-0.771-0.336-1.561-1.043-2.336
						c-3.481-3.816-14.677-5.877-24.99-4.601l0.006-7.454C181.916,161.68,193.115,163.743,196.597,167.562z"/>
				</g>
				<g>
					<path fill="#EDC621" d="M158.188,169.831c0-0.171,0.018-0.354,0.055-0.531c0,2.484-0.003,4.965-0.006,7.447
						c-0.035,0.175-0.055,0.355-0.055,0.536C158.186,175.047,158.188,172.067,158.188,169.831z"/>
				</g>
				<g>
					<path fill="#FFDD4D" d="M197.638,169.892l-0.006,7.45c0,3.04-5.198,5.864-13.417,6.874l0.005-7.446
						C192.441,175.762,197.634,172.93,197.638,169.892z"/>
				</g>
				<g>
					<path fill="#FFDD4D" d="M158.182,177.278l0.005-7.447c0,0.771,0.335,1.56,1.041,2.329c3.488,3.816,14.67,5.884,24.992,4.607
						l-0.005,7.446c-10.321,1.275-21.503-0.785-24.988-4.601C158.514,178.838,158.182,178.049,158.182,177.278z"/>
				</g>
				<g>
					<path fill="#FFE783" d="M184.222,176.769c-10.324,1.274-21.503-0.785-24.991-4.607c-3.485-3.809,2.05-7.938,12.37-9.211
						c10.315-1.271,21.515,0.793,24.992,4.611C200.083,171.378,194.537,175.502,184.222,176.769z"/>
				</g>
				<g>
					<path fill="#EDC621" d="M202.569,169.899l-0.004,7.445c-0.005,3.805-6.496,7.339-16.771,8.603l0.008-7.449
						C196.075,177.229,202.567,173.696,202.569,169.899z"/>
				</g>
				<g>
					<path fill="#EDC621" d="M153.252,177.272l0.004-7.457c0,0.973,0.418,1.96,1.301,2.923c4.357,4.769,18.339,7.347,31.242,5.76
						l-0.007,7.449c-12.9,1.592-26.881-0.986-31.244-5.755C153.669,179.217,153.252,178.235,153.252,177.272z"/>
				</g>
				<g>
					<path fill="#FFD522" d="M185.802,178.497c-12.901,1.589-26.886-0.991-31.243-5.76c-4.356-4.77,2.566-9.926,15.468-11.518
						c12.895-1.584,26.887,0.989,31.243,5.765C205.621,171.757,198.69,176.913,185.802,178.497z M171.601,162.955
						c-10.32,1.264-15.857,5.396-12.37,9.208c3.488,3.818,14.667,5.882,24.991,4.605c10.315-1.267,15.861-5.392,12.375-9.208
						C193.115,163.743,181.916,161.68,171.601,162.955"/>
				</g>
			</g>
		</g>
		<g>
			<g enable-background="new    ">
				<g>
					<path fill="#EDC621" d="M162.068,160.802c0.568-2.829,5.621-5.385,13.361-6.34l-0.008,7.447
						c-7.74,0.95-12.787,3.515-13.359,6.343C162.064,165.767,162.064,163.285,162.068,160.802z"/>
				</g>
				<g>
					<path fill="#EDC621" d="M200.423,159.063c0.706,0.776,1.044,1.563,1.044,2.334l-0.007,7.448c0-0.771-0.339-1.562-1.044-2.33
						c-3.483-3.811-14.675-5.879-24.993-4.605l0.009-7.447C185.741,153.181,196.937,155.249,200.423,159.063z"/>
				</g>
				<g>
					<path fill="#EDC621" d="M162.012,161.336c0-0.177,0.019-0.356,0.057-0.534c-0.002,2.483-0.002,4.965-0.006,7.45
						c-0.035,0.177-0.051,0.356-0.051,0.538C162.01,166.549,162.012,163.571,162.012,161.336z"/>
				</g>
				<g>
					<path fill="#FFDD4D" d="M201.467,161.397l-0.007,7.452c-0.004,3.034-5.196,5.863-13.417,6.876l0.006-7.448
						C196.271,167.265,201.46,164.436,201.467,161.397z"/>
				</g>
				<g>
					<path fill="#FFDD4D" d="M162.01,168.786l0.002-7.45c0,0.771,0.337,1.559,1.045,2.333c3.486,3.821,14.67,5.88,24.99,4.607
						l-0.004,7.448c-10.321,1.272-21.507-0.788-24.995-4.606C162.343,170.348,162.01,169.564,162.01,168.786z"/>
				</g>
				<g>
					<path fill="#FFE783" d="M188.047,168.277c-10.322,1.271-21.509-0.783-24.99-4.607c-3.483-3.811,2.051-7.938,12.375-9.207
						c10.313-1.279,21.509,0.788,24.991,4.601C203.91,162.883,198.36,167.007,188.047,168.277z"/>
				</g>
				<g>
					<path fill="#EDC621" d="M206.396,161.406l-0.005,7.448c-0.002,3.801-6.492,7.337-16.767,8.6l0.002-7.451
						C199.896,168.736,206.391,165.207,206.396,161.406z"/>
				</g>
				<g>
					<path fill="#EDC621" d="M157.077,168.773l0.006-7.447c-0.002,0.966,0.415,1.955,1.304,2.921
						c4.352,4.771,18.335,7.347,31.237,5.757l-0.006,7.452c-12.896,1.584-26.884-0.988-31.237-5.763
						C157.494,170.728,157.077,169.744,157.077,168.773z"/>
				</g>
				<g>
					<path fill="#FFD522" d="M189.624,170.005c-12.902,1.594-26.886-0.986-31.237-5.755c-4.359-4.77,2.566-9.928,15.467-11.516
						c12.891-1.592,26.886,0.986,31.239,5.759C209.446,163.258,202.516,168.418,189.624,170.005z M175.428,154.462
						c-10.321,1.266-15.854,5.393-12.373,9.207c3.483,3.821,14.668,5.88,24.992,4.607c10.309-1.27,15.859-5.395,12.372-9.214
						C196.937,155.249,185.741,153.181,175.428,154.462"/>
				</g>
			</g>
		</g>
		<g>
			<g enable-background="new    ">
				<g>
					<path fill="#EDC621" d="M155.5,149.801c0.569-2.83,5.622-5.39,13.362-6.347l-0.008,7.448
						c-7.741,0.959-12.79,3.516-13.359,6.342C155.498,154.763,155.5,152.287,155.5,149.801z"/>
				</g>
				<g>
					<path fill="#EDC621" d="M193.854,148.062c0.704,0.773,1.044,1.56,1.044,2.333l-0.008,7.449c0-0.776-0.336-1.561-1.044-2.333
						c-3.481-3.813-14.679-5.882-24.992-4.608l0.005-7.448C179.175,142.186,190.373,144.256,193.854,148.062z"/>
				</g>
				<g>
					<path fill="#EDC621" d="M155.446,150.337c0-0.181,0.02-0.361,0.054-0.536c0,2.486-0.002,4.962-0.002,7.443
						c-0.038,0.18-0.056,0.363-0.056,0.539C155.442,155.551,155.446,152.573,155.446,150.337z"/>
				</g>
				<g>
					<path fill="#FFDD4D" d="M194.898,150.4l-0.005,7.446c-0.003,3.038-5.199,5.867-13.419,6.88l0.005-7.446
						C189.702,156.265,194.894,153.435,194.898,150.4z"/>
				</g>
				<g>
					<path fill="#FFDD4D" d="M155.442,157.783l0.004-7.451c0,0.776,0.335,1.562,1.043,2.335c3.486,3.819,14.671,5.878,24.992,4.611
						l-0.006,7.446c-10.321,1.271-21.503-0.788-24.99-4.611C155.773,159.342,155.442,158.554,155.442,157.783z"/>
				</g>
				<g>
					<path fill="#FFE783" d="M181.479,157.28c-10.321,1.264-21.507-0.792-24.99-4.611c-3.485-3.811,2.053-7.938,12.373-9.213
						c10.313-1.268,21.511,0.797,24.992,4.607C197.34,151.881,191.796,156.008,181.479,157.28z"/>
				</g>
				<g>
					<path fill="#EDC621" d="M199.828,150.406l-0.008,7.446c0,3.803-6.49,7.33-16.767,8.599l0.008-7.447
						C193.336,157.737,199.825,154.204,199.828,150.406z"/>
				</g>
				<g>
					<path fill="#EDC621" d="M150.51,157.775l0.006-7.452c0,0.973,0.42,1.955,1.302,2.923c4.356,4.768,18.338,7.346,31.244,5.76
						l-0.008,7.445c-12.902,1.589-26.882-0.984-31.242-5.76C150.929,159.723,150.507,158.741,150.51,157.775z"/>
				</g>
				<g>
					<path fill="#FFD522" d="M183.059,159.005c-12.903,1.586-26.885-0.988-31.243-5.757c-4.355-4.77,2.565-9.93,15.468-11.517
						c12.891-1.591,26.884,0.985,31.24,5.759C202.88,152.259,195.948,157.41,183.059,159.005z M168.862,143.454
						c-10.321,1.271-15.858,5.402-12.373,9.213c3.486,3.819,14.671,5.878,24.992,4.611c10.314-1.271,15.862-5.399,12.373-9.217
						C190.373,144.256,179.175,142.186,168.862,143.454"/>
				</g>
			</g>
		</g>
		<g>
			<g enable-background="new    ">
				<g>
					<path fill="#EDC621" d="M157.77,138.945c0.566-2.828,5.62-5.385,13.36-6.345l-0.009,7.455
						c-7.74,0.952-12.788,3.514-13.358,6.341C157.765,143.909,157.765,141.43,157.77,138.945z"/>
				</g>
				<g>
					<path fill="#EDC621" d="M196.123,137.21c0.705,0.776,1.042,1.563,1.042,2.336l-0.004,7.441c0-0.768-0.337-1.558-1.046-2.332
						c-3.482-3.81-14.679-5.874-24.992-4.603l0.009-7.453C181.445,131.331,192.64,133.397,196.123,137.21z"/>
				</g>
				<g>
					<path fill="#EDC621" d="M157.717,139.483c0-0.18,0.016-0.357,0.05-0.538c-0.002,2.485-0.002,4.968-0.006,7.451
						c-0.038,0.176-0.053,0.356-0.053,0.532C157.713,144.698,157.713,141.72,157.717,139.483z"/>
				</g>
				<g>
					<path fill="#FFDD4D" d="M197.165,139.547l-0.004,7.447c-0.004,3.04-5.197,5.865-13.418,6.876l0.007-7.449
						C191.967,145.406,197.161,142.581,197.165,139.547z"/>
				</g>
				<g>
					<path fill="#FFDD4D" d="M157.713,146.928l0.004-7.445c-0.004,0.773,0.334,1.561,1.038,2.334
						c3.486,3.817,14.671,5.878,24.993,4.604l-0.007,7.453c-10.321,1.267-21.507-0.792-24.993-4.607
						C158.041,148.491,157.713,147.703,157.713,146.928z"/>
				</g>
				<g>
					<path fill="#FFE783" d="M183.75,146.421c-10.32,1.272-21.507-0.785-24.993-4.602c-3.486-3.813,2.051-7.946,12.375-9.216
						c10.316-1.269,21.508,0.797,24.991,4.608C199.609,141.027,194.061,145.151,183.75,146.421z"/>
				</g>
				<g>
					<path fill="#EDC621" d="M202.095,139.555l-0.005,7.447c-0.002,3.799-6.488,7.329-16.768,8.596l0.008-7.448
						C195.602,146.884,202.092,143.353,202.095,139.555z"/>
				</g>
				<g>
					<path fill="#EDC621" d="M152.776,146.922l0.007-7.448c-0.004,0.972,0.415,1.953,1.297,2.919
						c4.358,4.77,18.345,7.345,31.242,5.755l-0.004,7.449c-12.906,1.592-26.888-0.988-31.241-5.755
						C153.194,148.873,152.776,147.889,152.776,146.922z"/>
				</g>
				<g>
					<path fill="#FFD522" d="M185.326,148.147c-12.901,1.591-26.883-0.984-31.241-5.755c-4.357-4.771,2.564-9.924,15.469-11.516
						c12.889-1.591,26.886,0.988,31.239,5.759C205.15,141.408,198.216,146.56,185.326,148.147z M171.127,132.6
						c-10.321,1.271-15.856,5.403-12.372,9.217c3.486,3.813,14.671,5.876,24.993,4.6c10.311-1.267,15.856-5.392,12.371-9.21
						C192.64,133.397,181.445,131.331,171.127,132.6"/>
				</g>
			</g>
		</g>
		<g>
			<g enable-background="new    ">
				<g>
					<path fill="#EDC621" d="M159.128,130.934c0.57-2.827,5.622-5.388,13.361-6.341l-0.005,7.446
						c-7.747,0.956-12.793,3.517-13.36,6.342C159.124,135.903,159.128,133.417,159.128,130.934z"/>
				</g>
				<g>
					<path fill="#EDC621" d="M197.483,129.197c0.706,0.776,1.04,1.562,1.04,2.333l-0.005,7.452c0-0.775-0.336-1.562-1.04-2.333
						c-3.483-3.812-14.679-5.881-24.993-4.608l0.006-7.446C182.804,123.322,194,125.383,197.483,129.197z"/>
				</g>
				<g>
					<path fill="#EDC621" d="M159.072,131.472c0-0.18,0.024-0.359,0.056-0.538c0,2.483-0.004,4.969-0.004,7.447
						c-0.039,0.179-0.054,0.359-0.054,0.54C159.072,136.685,159.072,133.709,159.072,131.472z"/>
				</g>
				<g>
					<path fill="#FFDD4D" d="M198.523,131.53l-0.005,7.454c0,3.038-5.192,5.86-13.417,6.878l0.006-7.452
						C193.33,137.395,198.522,134.574,198.523,131.53z"/>
				</g>
				<g>
					<path fill="#FFDD4D" d="M159.07,138.917l0.004-7.444c0,0.772,0.335,1.558,1.043,2.334c3.488,3.813,14.667,5.877,24.992,4.603
						l-0.004,7.452c-10.322,1.27-21.507-0.787-24.99-4.605C159.399,140.477,159.068,139.689,159.07,138.917z"/>
				</g>
				<g>
					<path fill="#FFE783" d="M185.109,138.41c-10.326,1.27-21.504-0.789-24.992-4.606c-3.483-3.813,2.053-7.938,12.374-9.21
						c10.313-1.269,21.512,0.787,24.992,4.603C200.969,133.015,195.422,137.136,185.109,138.41z"/>
				</g>
				<g>
					<path fill="#EDC621" d="M203.459,131.543l-0.011,7.444c0,3.801-6.492,7.333-16.769,8.6l0.007-7.45
						C196.962,138.873,203.452,135.337,203.459,131.543z"/>
				</g>
				<g>
					<path fill="#EDC621" d="M154.137,138.911l0.009-7.451c-0.004,0.969,0.416,1.953,1.301,2.918
						c4.355,4.77,18.341,7.35,31.237,5.759l-0.005,7.45c-12.899,1.586-26.884-0.985-31.239-5.76
						C154.557,140.864,154.137,139.874,154.137,138.911z"/>
				</g>
				<g>
					<path fill="#FFD522" d="M186.684,140.137c-12.896,1.597-26.882-0.989-31.237-5.751c-4.357-4.771,2.565-9.933,15.468-11.519
						c12.896-1.597,26.885,0.988,31.244,5.76C206.508,133.397,199.577,138.548,186.684,140.137z M172.491,124.594
						c-10.322,1.269-15.857,5.397-12.374,9.213c3.488,3.813,14.667,5.877,24.992,4.603c10.314-1.268,15.859-5.395,12.374-9.213
						C194,125.383,182.804,123.322,172.491,124.594"/>
				</g>
			</g>
		</g>
		<g>
			<g enable-background="new    ">
				<g>
					<path fill="#EDC621" d="M157.765,122.014c0.568-2.826,5.619-5.384,13.361-6.341l-0.005,7.452
						c-7.747,0.952-12.791,3.512-13.362,6.341C157.763,126.985,157.765,124.503,157.765,122.014z"/>
				</g>
				<g>
					<path fill="#EDC621" d="M196.119,120.282c0.702,0.772,1.038,1.56,1.038,2.332l-0.004,7.447c0.003-0.772-0.334-1.56-1.043-2.334
						c-3.482-3.812-14.674-5.877-24.991-4.603l0.004-7.452C181.437,114.403,192.637,116.467,196.119,120.282z"/>
				</g>
				<g>
					<path fill="#EDC621" d="M157.713,122.553c0-0.175,0.015-0.358,0.052-0.539c0,2.489-0.002,4.968-0.006,7.452
						c-0.036,0.178-0.055,0.355-0.055,0.535C157.704,127.771,157.713,124.79,157.713,122.553z"/>
				</g>
				<g>
					<path fill="#FFDD4D" d="M197.161,122.617l-0.005,7.447c0,3.044-5.195,5.871-13.415,6.88l0.007-7.453
						C191.967,128.478,197.161,125.655,197.161,122.617z"/>
				</g>
				<g>
					<path fill="#FFDD4D" d="M157.701,130l0.007-7.447c0,0.769,0.335,1.558,1.04,2.335c3.486,3.818,14.673,5.875,24.993,4.604
						l-0.007,7.449c-10.322,1.271-21.507-0.787-24.991-4.604C158.041,131.559,157.701,130.777,157.701,130z"/>
				</g>
				<g>
					<path fill="#FFE783" d="M183.745,129.493c-10.319,1.27-21.506-0.786-24.992-4.603c-3.482-3.816,2.055-7.938,12.374-9.216
						c10.314-1.27,21.51,0.79,24.992,4.607C199.604,124.101,194.057,128.22,183.745,129.493z"/>
				</g>
				<g>
					<path fill="#EDC621" d="M202.092,122.624l-0.005,7.443c-0.004,3.8-6.49,7.335-16.772,8.603l0.008-7.453
						C195.597,129.954,202.088,126.419,202.092,122.624z"/>
				</g>
				<g>
					<path fill="#EDC621" d="M152.771,129.99l0.008-7.446c-0.003,0.964,0.419,1.95,1.298,2.918
						c4.357,4.771,18.344,7.347,31.241,5.755l-0.004,7.451c-12.902,1.587-26.884-0.985-31.242-5.76
						C153.194,131.947,152.771,130.958,152.771,129.99z"/>
				</g>
				<g>
					<path fill="#FFD522" d="M185.322,131.22c-12.901,1.588-26.884-0.982-31.242-5.758c-4.353-4.769,2.569-9.925,15.467-11.514
						c12.889-1.591,26.889,0.987,31.242,5.761C205.146,124.475,198.21,129.63,185.322,131.22z M171.127,115.673
						c-10.321,1.271-15.856,5.401-12.374,9.215c3.486,3.816,14.673,5.875,24.992,4.601c10.312-1.269,15.859-5.39,12.374-9.206
						C192.637,116.467,181.437,114.403,171.127,115.673"/>
				</g>
			</g>
		</g>
		<g>
			<g enable-background="new    ">
				<g>
					<path fill="#EDC621" d="M156.047,110.218c0.569-2.834,5.618-5.385,13.358-6.343l-0.003,7.446
						c-7.741,0.954-12.79,3.518-13.36,6.343C156.042,115.187,156.044,112.698,156.047,110.218z"/>
				</g>
				<g>
					<path fill="#EDC621" d="M194.398,108.481c0.709,0.779,1.045,1.56,1.045,2.338l-0.007,7.444c0-0.772-0.335-1.564-1.042-2.335
						c-3.482-3.812-14.674-5.877-24.991-4.607l0.003-7.446C179.725,102.598,190.916,104.662,194.398,108.481z"/>
				</g>
				<g>
					<path fill="#EDC621" d="M155.992,110.753c0-0.176,0.02-0.357,0.052-0.538c0,2.483-0.002,4.969-0.002,7.447
						c-0.038,0.18-0.055,0.359-0.055,0.537C155.987,115.964,155.989,112.987,155.992,110.753z"/>
				</g>
				<g>
					<path fill="#FFDD4D" d="M195.443,110.812l-0.007,7.451c-0.001,3.035-5.196,5.862-13.414,6.88l0.005-7.457
						C190.246,116.681,195.437,113.85,195.443,110.812z"/>
				</g>
				<g>
					<path fill="#FFDD4D" d="M155.985,118.199l0.007-7.446c-0.003,0.773,0.336,1.56,1.042,2.33
						c3.484,3.819,14.669,5.879,24.99,4.606l-0.003,7.453c-10.325,1.265-21.508-0.791-24.994-4.61
						C156.322,119.76,155.985,118.971,155.985,118.199z"/>
				</g>
				<g>
					<path fill="#FFE783" d="M182.027,117.686c-10.322,1.271-21.509-0.783-24.991-4.606c-3.483-3.813,2.055-7.933,12.37-9.206
						c10.318-1.276,21.514,0.787,24.992,4.603C197.886,112.296,192.338,116.421,182.027,117.686z"/>
				</g>
				<g>
					<path fill="#EDC621" d="M200.373,110.819l-0.007,7.453c0,3.798-6.49,7.328-16.765,8.598l0.004-7.447
						C193.881,118.153,200.37,114.616,200.373,110.819z"/>
				</g>
				<g>
					<path fill="#EDC621" d="M151.053,118.189l0.005-7.451c-0.001,0.969,0.42,1.955,1.303,2.924
						c4.354,4.769,18.34,7.348,31.24,5.756l-0.004,7.449c-12.9,1.591-26.883-0.989-31.244-5.76
						C151.474,120.139,151.053,119.154,151.053,118.189z"/>
				</g>
				<g>
					<path fill="#FFD522" d="M183.602,119.417c-12.897,1.593-26.886-0.987-31.237-5.756c-4.355-4.774,2.563-9.927,15.469-11.519
						c12.893-1.584,26.882,0.99,31.239,5.764C203.43,112.676,196.493,117.827,183.602,119.417z M169.406,103.874
						c-10.316,1.271-15.854,5.392-12.37,9.209c3.484,3.819,14.67,5.879,24.991,4.606c10.311-1.268,15.859-5.397,12.371-9.213
						C190.916,104.662,179.725,102.598,169.406,103.874"/>
				</g>
			</g>
		</g>
		<g>
			<g enable-background="new    ">
				<g>
					<path fill="#EDC621" d="M158.776,101.724c0.567-2.832,5.617-5.389,13.36-6.345l-0.009,7.45
						c-7.743,0.955-12.788,3.516-13.359,6.341C158.772,106.688,158.772,104.205,158.776,101.724z"/>
				</g>
				<g>
					<path fill="#EDC621" d="M197.129,99.989c0.702,0.772,1.041,1.559,1.041,2.331l-0.008,7.45c0-0.776-0.334-1.556-1.041-2.338
						c-3.484-3.811-14.675-5.877-24.993-4.602l0.007-7.45C182.448,94.108,193.647,96.172,197.129,99.989z"/>
				</g>
				<g>
					<path fill="#EDC621" d="M158.721,102.257c0-0.176,0.018-0.356,0.052-0.533c0,2.483,0,4.967-0.003,7.446
						c-0.038,0.184-0.053,0.359-0.053,0.537C158.717,107.471,158.719,104.49,158.721,102.257z"/>
				</g>
				<g>
					<path fill="#FFDD4D" d="M198.17,102.316l-0.008,7.453c0,3.035-5.195,5.865-13.41,6.875l0.004-7.449
						C192.976,108.182,198.17,105.354,198.17,102.316z"/>
				</g>
				<g>
					<path fill="#FFDD4D" d="M158.717,109.708l0.002-7.453c-0.002,0.773,0.334,1.562,1.038,2.338
						c3.488,3.814,14.672,5.87,24.992,4.602l-0.004,7.449c-10.322,1.272-21.509-0.785-24.994-4.603
						C159.05,111.264,158.712,110.484,158.717,109.708z"/>
				</g>
				<g>
					<path fill="#FFE783" d="M184.754,109.195c-10.322,1.271-21.504-0.785-24.991-4.607c-3.483-3.811,2.053-7.938,12.374-9.208
						c10.312-1.272,21.511,0.788,24.992,4.604C200.617,103.801,195.067,107.923,184.754,109.195z"/>
				</g>
				<g>
					<path fill="#EDC621" d="M203.103,102.325l-0.004,7.449c-0.004,3.802-6.492,7.333-16.768,8.597l0.004-7.447
						C196.609,109.654,203.099,106.125,203.103,102.325z"/>
				</g>
				<g>
					<path fill="#EDC621" d="M153.784,109.697l0.006-7.451c-0.004,0.968,0.416,1.955,1.299,2.921
						c4.357,4.77,18.342,7.348,31.242,5.758l-0.005,7.447c-12.901,1.591-26.889-0.981-31.244-5.758
						C154.199,111.641,153.784,110.665,153.784,109.697z"/>
				</g>
				<g>
					<path fill="#FFD522" d="M186.333,110.925c-12.902,1.592-26.885-0.988-31.242-5.758c-4.353-4.771,2.566-9.927,15.467-11.514
						c12.892-1.59,26.886,0.985,31.242,5.761C206.154,104.181,199.221,109.342,186.333,110.925z M172.137,95.381
						c-10.321,1.269-15.854,5.397-12.373,9.216c3.487,3.813,14.671,5.875,24.992,4.602c10.313-1.271,15.861-5.395,12.373-9.208
						C193.647,96.172,182.448,94.108,172.137,95.381"/>
				</g>
			</g>
		</g>
		<g>
			<g enable-background="new    ">
				<g>
					<path fill="#EDC621" d="M154.687,90.666c0.568-2.833,5.617-5.39,13.361-6.349l-0.007,7.453
						c-7.741,0.951-12.79,3.52-13.358,6.341C154.68,95.633,154.683,93.147,154.687,90.666z"/>
				</g>
				<g>
					<path fill="#EDC621" d="M193.04,88.926c0.707,0.775,1.043,1.565,1.043,2.332l-0.009,7.451c0-0.771-0.333-1.558-1.038-2.336
						c-3.482-3.813-14.682-5.875-24.991-4.603l0.003-7.453C178.362,83.048,189.554,85.112,193.04,88.926z"/>
				</g>
				<g>
					<path fill="#EDC621" d="M154.629,91.201c0-0.178,0.02-0.361,0.054-0.539c0,2.485-0.003,4.967-0.003,7.448
						c-0.038,0.181-0.054,0.358-0.054,0.539C154.629,96.418,154.629,93.435,154.629,91.201z"/>
				</g>
				<g>
					<path fill="#FFDD4D" d="M194.083,91.258l-0.009,7.451c0,3.042-5.193,5.866-13.412,6.88l0.002-7.45
						C188.888,97.127,194.079,94.303,194.083,91.258z"/>
				</g>
				<g>
					<path fill="#FFDD4D" d="M154.626,98.649l0.003-7.448c0,0.772,0.335,1.56,1.042,2.327c3.488,3.817,14.671,5.886,24.991,4.61
						l-0.003,7.451c-10.321,1.27-21.509-0.789-24.994-4.608C154.959,100.203,154.626,99.415,154.626,98.649z"/>
				</g>
				<g>
					<path fill="#FFE783" d="M180.662,98.14c-10.32,1.273-21.503-0.784-24.991-4.607c-3.482-3.81,2.052-7.935,12.377-9.216
						c10.31-1.269,21.506,0.794,24.992,4.61S190.979,96.873,180.662,98.14z"/>
				</g>
				<g>
					<path fill="#EDC621" d="M199.012,91.273l-0.004,7.449c-0.003,3.796-6.492,7.331-16.772,8.595l0.008-7.447
						C192.518,98.599,199.009,95.067,199.012,91.273z"/>
				</g>
				<g>
					<path fill="#EDC621" d="M149.691,98.637l0.007-7.453c-0.003,0.968,0.417,1.956,1.301,2.924
						c4.357,4.765,18.343,7.348,31.24,5.757l-0.008,7.451c-12.902,1.59-26.88-0.991-31.241-5.76
						C150.111,100.585,149.69,99.603,149.691,98.637z"/>
				</g>
				<g>
					<path fill="#FFD522" d="M182.243,99.866c-12.901,1.589-26.883-0.989-31.24-5.758c-4.356-4.767,2.567-9.928,15.47-11.519
						c12.893-1.587,26.884,0.991,31.241,5.759C202.064,93.12,195.133,98.279,182.243,99.866z M168.048,84.315
						c-10.321,1.276-15.858,5.404-12.377,9.211c3.488,3.817,14.671,5.886,24.991,4.61c10.315-1.264,15.864-5.395,12.378-9.213
						C189.554,85.112,178.362,83.048,168.048,84.315"/>
				</g>
			</g>
		</g>
		<g>
			<g enable-background="new    ">
				<g>
					<path fill="#EDC621" d="M158.509,82.17c0.567-2.826,5.62-5.387,13.358-6.341l-0.004,7.446
						c-7.744,0.956-12.791,3.518-13.36,6.345C158.507,87.135,158.507,84.653,158.509,82.17z"/>
				</g>
				<g>
					<path fill="#EDC621" d="M196.864,80.431c0.704,0.776,1.045,1.563,1.045,2.334l-0.009,7.446c0-0.769-0.332-1.557-1.043-2.328
						c-3.481-3.813-14.678-5.882-24.992-4.61l0.007-7.446C182.186,74.553,193.383,76.616,196.864,80.431z"/>
				</g>
				<g>
					<path fill="#EDC621" d="M158.457,82.709c0-0.182,0.015-0.361,0.05-0.539c-0.001,2.483-0.001,4.964-0.005,7.45
						c-0.037,0.18-0.053,0.357-0.053,0.538C158.454,87.921,158.457,84.937,158.457,82.709z"/>
				</g>
				<g>
					<path fill="#FFDD4D" d="M197.904,82.767l-0.004,7.452c-0.004,3.037-5.196,5.864-13.416,6.876l0.007-7.453
						C192.709,88.63,197.904,85.802,197.904,82.767z"/>
				</g>
				<g>
					<path fill="#FFDD4D" d="M158.454,90.152l0.003-7.448c0,0.77,0.336,1.56,1.038,2.333c3.487,3.816,14.674,5.882,24.995,4.603
						l-0.006,7.454c-10.324,1.271-21.506-0.788-24.992-4.607C158.784,91.716,158.454,90.927,158.454,90.152z"/>
				</g>
				<g>
					<path fill="#FFE783" d="M184.489,89.642c-10.317,1.273-21.507-0.785-24.994-4.607c-3.48-3.814,2.053-7.939,12.377-9.208
						c10.313-1.274,21.511,0.784,24.992,4.601C200.351,84.247,194.803,88.373,184.489,89.642z"/>
				</g>
				<g>
					<path fill="#EDC621" d="M202.836,82.771l-0.006,7.453c-0.005,3.797-6.492,7.334-16.769,8.596l0.007-7.448
						C196.344,90.107,202.834,86.574,202.836,82.771z"/>
				</g>
				<g>
					<path fill="#EDC621" d="M153.517,90.144l0.007-7.449c-0.003,0.961,0.417,1.953,1.301,2.921
						c4.356,4.766,18.343,7.347,31.239,5.755l-0.002,7.45c-12.904,1.587-26.885-0.985-31.242-5.761
						C153.938,92.097,153.517,91.112,153.517,90.144z"/>
				</g>
				<g>
					<path fill="#FFD522" d="M186.068,91.375c-12.901,1.588-26.884-0.992-31.242-5.761c-4.356-4.772,2.565-9.924,15.47-11.513
						c12.887-1.591,26.88,0.984,31.236,5.754C205.888,84.631,198.958,89.785,186.068,91.375z M171.872,75.829
						c-10.322,1.267-15.857,5.391-12.377,9.209c3.487,3.818,14.674,5.882,24.994,4.603c10.313-1.27,15.861-5.396,12.375-9.21
						C193.383,76.616,182.186,74.553,171.872,75.829"/>
				</g>
			</g>
		</g>
		<g>
			<g enable-background="new    ">
				<g>
					<path fill="#EDC621" d="M151.945,71.167c0.567-2.828,5.618-5.383,13.359-6.339l-0.004,7.444
						c-7.742,0.959-12.793,3.515-13.361,6.345C151.939,76.132,151.943,73.655,151.945,71.167z"/>
				</g>
				<g>
					<path fill="#EDC621" d="M190.302,69.434c0.702,0.772,1.038,1.555,1.038,2.328l-0.005,7.457c0-0.775-0.336-1.56-1.042-2.341
						c-3.482-3.811-14.679-5.881-24.99-4.605l0.005-7.444C175.618,63.553,186.817,65.621,190.302,69.434z"/>
				</g>
				<g>
					<path fill="#EDC621" d="M151.889,71.705c0-0.18,0.021-0.361,0.057-0.538c-0.002,2.489-0.006,4.965-0.008,7.45
						c-0.035,0.176-0.053,0.358-0.053,0.536C151.885,76.92,151.889,73.942,151.889,71.705z"/>
				</g>
				<g>
					<path fill="#FFDD4D" d="M191.34,71.762l-0.005,7.451c0,3.039-5.199,5.867-13.415,6.875l0.004-7.447
						C186.145,77.629,191.335,74.799,191.34,71.762z"/>
				</g>
				<g>
					<path fill="#FFDD4D" d="M151.885,79.154l0.004-7.453c0,0.779,0.338,1.564,1.043,2.336c3.485,3.817,14.669,5.88,24.992,4.604
						l-0.004,7.45c-10.325,1.273-21.507-0.783-24.992-4.607C152.22,80.715,151.885,79.926,151.885,79.154z"/>
				</g>
				<g>
					<path fill="#FFE783" d="M177.924,78.642c-10.322,1.267-21.509-0.787-24.992-4.604c-3.485-3.819,2.055-7.942,12.373-9.211
						c10.313-1.272,21.513,0.79,24.995,4.606C193.783,73.249,188.24,77.372,177.924,78.642z"/>
				</g>
				<g>
					<path fill="#EDC621" d="M196.271,71.773l-0.006,7.451c-0.001,3.798-6.492,7.329-16.769,8.595l0.004-7.445
						C189.778,79.103,196.271,75.571,196.271,71.773z"/>
				</g>
				<g>
					<path fill="#EDC621" d="M146.951,79.142l0.007-7.449c0,0.97,0.418,1.955,1.301,2.921c4.353,4.769,18.341,7.343,31.241,5.76
						l-0.008,7.445c-12.898,1.592-26.885-0.985-31.24-5.754C147.371,81.093,146.949,80.112,146.951,79.142z"/>
				</g>
				<g>
					<path fill="#FFD522" d="M179.503,80.373c-12.901,1.587-26.887-0.991-31.24-5.76c-4.356-4.769,2.567-9.926,15.47-11.515
						c12.891-1.587,26.878,0.991,31.238,5.765C199.324,73.624,192.394,78.782,179.503,80.373z M165.308,64.828
						c-10.321,1.267-15.859,5.392-12.376,9.209c3.485,3.817,14.669,5.88,24.992,4.606c10.318-1.267,15.861-5.395,12.378-9.211
						C186.818,65.621,175.618,63.553,165.308,64.828"/>
				</g>
			</g>
		</g>
		<g>
			<g enable-background="new    ">
				<g>
					<path fill="#EDC621" d="M154.207,60.314c0.57-2.834,5.62-5.387,13.36-6.346l-0.004,7.453
						c-7.745,0.955-12.788,3.512-13.364,6.341C154.206,65.28,154.206,62.797,154.207,60.314z"/>
				</g>
				<g>
					<path fill="#EDC621" d="M192.564,58.576c0.708,0.774,1.043,1.559,1.043,2.333l-0.009,7.449c0-0.771-0.334-1.559-1.038-2.337
						c-3.487-3.809-14.679-5.873-24.993-4.599l0.005-7.453C177.888,52.698,189.081,54.764,192.564,58.576z"/>
				</g>
				<g>
					<path fill="#EDC621" d="M154.156,60.849c0-0.175,0.019-0.362,0.051-0.534c-0.001,2.482-0.001,4.965-0.004,7.449
						c-0.035,0.176-0.051,0.358-0.051,0.536C154.147,66.069,154.156,63.088,154.156,60.849z"/>
				</g>
				<g>
					<path fill="#FFDD4D" d="M193.607,60.912l-0.009,7.449c-0.004,3.043-5.194,5.872-13.414,6.875l0.007-7.446
						C188.411,66.776,193.603,63.952,193.607,60.912z"/>
				</g>
				<g>
					<path fill="#FFDD4D" d="M154.147,68.296l0.009-7.447c-0.004,0.774,0.332,1.559,1.038,2.336
						c3.487,3.816,14.671,5.877,24.993,4.602l-0.007,7.447c-10.324,1.277-21.507-0.783-24.995-4.601
						C154.485,69.857,154.147,69.073,154.147,68.296z"/>
				</g>
				<g>
					<path fill="#FFE783" d="M180.191,67.789c-10.321,1.273-21.505-0.785-24.992-4.602c-3.483-3.816,2.052-7.94,12.373-9.217
						c10.315-1.266,21.509,0.796,24.99,4.611C196.051,62.395,190.506,66.521,180.191,67.789z"/>
				</g>
				<g>
					<path fill="#EDC621" d="M198.538,60.922l-0.006,7.445c-0.002,3.8-6.492,7.33-16.769,8.599l0.005-7.45
						C192.042,68.252,198.536,64.715,198.538,60.922z"/>
				</g>
				<g>
					<path fill="#EDC621" d="M149.219,68.287l0.005-7.446c0,0.965,0.422,1.951,1.306,2.917c4.354,4.771,18.339,7.349,31.237,5.76
						l-0.005,7.449c-12.9,1.589-26.883-0.987-31.237-5.757C149.639,70.245,149.219,69.259,149.219,68.287z"/>
				</g>
				<g>
					<path fill="#FFD522" d="M181.767,69.518c-12.898,1.594-26.883-0.991-31.237-5.762c-4.36-4.763,2.565-9.922,15.466-11.511
						c12.891-1.592,26.882,0.986,31.237,5.76C201.595,62.771,194.656,67.928,181.767,69.518z M167.572,53.969
						c-10.322,1.276-15.856,5.4-12.373,9.216c3.487,3.816,14.671,5.877,24.992,4.602c10.314-1.266,15.859-5.392,12.371-9.21
						C189.081,54.764,177.888,52.698,167.572,53.969"/>
				</g>
			</g>
		</g>
		<g>
			<g enable-background="new    ">
				<g>
					<path fill="#EDC621" d="M155.571,52.306c0.569-2.83,5.621-5.389,13.364-6.339l-0.009,7.441
						c-7.743,0.954-12.789,3.519-13.359,6.347C155.567,57.27,155.568,54.791,155.571,52.306z"/>
				</g>
				<g>
					<path fill="#EDC621" d="M193.928,50.566c0.703,0.773,1.04,1.563,1.04,2.334l-0.006,7.448c0.002-0.773-0.334-1.561-1.043-2.331
						c-3.481-3.813-14.679-5.882-24.992-4.611l0.009-7.441C179.247,44.69,190.446,46.751,193.928,50.566z"/>
				</g>
				<g>
					<path fill="#EDC621" d="M155.516,52.84c0-0.177,0.021-0.359,0.053-0.534c-0.001,2.486-0.001,4.965-0.004,7.449
						c-0.038,0.181-0.058,0.359-0.058,0.539C155.511,58.051,155.516,55.071,155.516,52.84z"/>
				</g>
				<g>
					<path fill="#FFDD4D" d="M194.966,52.898l-0.007,7.453c0,3.036-5.193,5.862-13.411,6.877l0.004-7.453
						C189.77,58.764,194.964,55.936,194.966,52.898z"/>
				</g>
				<g>
					<path fill="#FFDD4D" d="M155.511,60.293l0.005-7.453c0,0.774,0.336,1.559,1.041,2.335c3.487,3.817,14.671,5.874,24.993,4.603
						l-0.002,7.453c-10.324,1.268-21.509-0.791-24.999-4.609C155.847,61.851,155.511,61.06,155.511,60.293z"/>
				</g>
				<g>
					<path fill="#FFE783" d="M181.552,59.776c-10.322,1.27-21.506-0.783-24.991-4.605c-3.483-3.811,2.053-7.939,12.375-9.207
						c10.312-1.271,21.508,0.787,24.99,4.602C197.413,54.386,191.866,58.508,181.552,59.776z"/>
				</g>
				<g>
					<path fill="#EDC621" d="M199.896,52.907l-0.004,7.451c-0.002,3.801-6.497,7.33-16.771,8.6l0.004-7.457
						C193.406,60.239,199.896,56.708,199.896,52.907z"/>
				</g>
				<g>
					<path fill="#EDC621" d="M150.579,60.281l0.004-7.449c-0.002,0.962,0.417,1.952,1.302,2.918
						c4.357,4.766,18.343,7.347,31.241,5.752l-0.004,7.458c-12.903,1.587-26.883-0.989-31.239-5.763
						C150.996,62.227,150.575,61.25,150.579,60.281z"/>
				</g>
				<g>
					<path fill="#FFD522" d="M183.128,61.503c-12.9,1.595-26.881-0.987-31.239-5.752c-4.354-4.77,2.569-9.927,15.469-11.517
						c12.891-1.591,26.886,0.991,31.243,5.762C202.95,54.764,196.021,59.916,183.128,61.503z M168.936,45.966
						c-10.322,1.266-15.858,5.395-12.379,9.21c3.487,3.817,14.671,5.874,24.993,4.603c10.314-1.269,15.863-5.39,12.376-9.212
						C190.446,46.751,179.247,44.69,168.936,45.966"/>
				</g>
			</g>
		</g>
		<g>
			<g enable-background="new    ">
				<g>
					<path fill="#EDC621" d="M154.206,43.387c0.571-2.833,5.621-5.391,13.361-6.345l-0.004,7.449
						c-7.742,0.954-12.791,3.516-13.36,6.345C154.203,48.349,154.203,45.87,154.206,43.387z"/>
				</g>
				<g>
					<path fill="#EDC621" d="M192.561,41.647c0.707,0.775,1.042,1.561,1.042,2.334l-0.008,7.448c0-0.767-0.334-1.556-1.042-2.332
						c-3.481-3.813-14.677-5.876-24.991-4.606l0.004-7.449C177.882,35.773,189.078,37.838,192.561,41.647z"/>
				</g>
				<g>
					<path fill="#EDC621" d="M154.152,43.922c0-0.176,0.016-0.361,0.054-0.535c-0.003,2.483-0.003,4.962-0.007,7.448
						c-0.034,0.18-0.052,0.354-0.052,0.536C154.147,49.135,154.152,46.157,154.152,43.922z"/>
				</g>
				<g>
					<path fill="#FFDD4D" d="M193.603,43.981l-0.008,7.448c0,3.043-5.194,5.865-13.414,6.88l0.007-7.453
						C188.409,49.849,193.599,47.021,193.603,43.981z"/>
				</g>
				<g>
					<path fill="#FFDD4D" d="M154.147,51.368l0.005-7.448c0,0.775,0.336,1.56,1.042,2.334c3.487,3.814,14.671,5.877,24.993,4.604
						l-0.007,7.451c-10.323,1.272-21.507-0.791-24.99-4.611C154.48,52.928,154.146,52.142,154.147,51.368z"/>
				</g>
				<g>
					<path fill="#FFE783" d="M180.188,50.86c-10.322,1.275-21.506-0.786-24.993-4.602c-3.481-3.817,2.053-7.944,12.373-9.218
						c10.316-1.266,21.511,0.794,24.993,4.607C196.046,45.463,190.501,49.592,180.188,50.86z"/>
				</g>
				<g>
					<path fill="#EDC621" d="M198.536,43.991l-0.006,7.445c-0.002,3.802-6.493,7.333-16.771,8.601l0.009-7.45
						C192.041,51.322,198.532,47.788,198.536,43.991z"/>
				</g>
				<g>
					<path fill="#EDC621" d="M149.215,51.36l0.007-7.446c-0.003,0.961,0.421,1.951,1.301,2.913
						c4.354,4.768,18.34,7.352,31.237,5.762l-0.005,7.45c-12.9,1.589-26.882-0.987-31.239-5.757
						C149.635,53.314,149.215,52.326,149.215,51.36z"/>
				</g>
				<g>
					<path fill="#FFD522" d="M181.764,52.589c-12.897,1.589-26.884-0.991-31.239-5.757c-4.356-4.767,2.567-9.925,15.469-11.512
						c12.894-1.594,26.884,0.986,31.239,5.759C201.59,45.843,194.654,50.998,181.764,52.589z M167.57,37.042
						c-10.323,1.27-15.857,5.397-12.373,9.214c3.485,3.814,14.67,5.877,24.992,4.604c10.312-1.269,15.861-5.396,12.371-9.213
						C189.078,37.838,177.882,35.773,167.57,37.042"/>
				</g>
			</g>
		</g>
	</g>
	<g>
		<g>
			<g enable-background="new    ">
				<g>
					<path fill="#EDC621" d="M200.744,194.615c0.569-2.827,5.624-5.39,13.362-6.346l-0.006,7.448
						c-7.741,0.956-12.792,3.517-13.361,6.347C200.739,199.579,200.744,197.096,200.744,194.615z"/>
				</g>
				<g>
					<path fill="#EDC621" d="M239.098,192.876c0.71,0.78,1.04,1.56,1.04,2.335l-0.002,7.447c0-0.771-0.337-1.557-1.043-2.333
						c-3.481-3.813-14.677-5.878-24.99-4.607l0.007-7.447C224.42,186.997,235.618,189.063,239.098,192.876z"/>
				</g>
				<g>
					<path fill="#EDC621" d="M200.69,195.155c0-0.184,0.02-0.359,0.054-0.539c0,2.482-0.005,4.964-0.005,7.449
						c-0.035,0.18-0.053,0.358-0.053,0.533C200.687,200.366,200.69,197.386,200.69,195.155z"/>
				</g>
				<g>
					<path fill="#FFDD4D" d="M240.138,195.211l-0.002,7.447c-0.004,3.042-5.193,5.869-13.416,6.883l0.005-7.453
						C234.945,201.076,240.136,198.252,240.138,195.211z"/>
				</g>
				<g>
					<path fill="#FFDD4D" d="M200.682,202.597l0.009-7.445c0,0.772,0.334,1.557,1.038,2.327c3.486,3.822,14.67,5.882,24.991,4.609
						l-0.003,7.452c-10.323,1.271-21.505-0.787-24.996-4.607C201.02,204.156,200.682,203.37,200.682,202.597z"/>
				</g>
				<g>
					<path fill="#FFE783" d="M226.725,202.088c-10.322,1.271-21.504-0.787-24.993-4.609c-3.482-3.807,2.054-7.938,12.378-9.209
						c10.313-1.27,21.512,0.793,24.991,4.606C242.583,196.696,237.033,200.823,226.725,202.088z"/>
				</g>
				<g>
					<path fill="#EDC621" d="M245.072,195.222l-0.007,7.447c0,3.797-6.49,7.328-16.767,8.595l0.006-7.445
						C238.581,202.556,245.068,199.016,245.072,195.222z"/>
				</g>
				<g>
					<path fill="#EDC621" d="M195.757,202.585l0.004-7.449c0,0.973,0.417,1.956,1.301,2.921c4.354,4.769,18.341,7.35,31.242,5.758
						l-0.007,7.443c-12.905,1.597-26.885-0.985-31.242-5.749C196.171,204.535,195.752,203.555,195.757,202.585z"/>
				</g>
				<g>
					<path fill="#FFD522" d="M228.304,203.816c-12.903,1.597-26.888-0.983-31.242-5.755c-4.357-4.775,2.565-9.927,15.468-11.516
						c12.89-1.59,26.885,0.983,31.242,5.76C248.127,197.072,241.189,202.23,228.304,203.816z M214.106,188.267
						c-10.323,1.271-15.86,5.403-12.375,9.212c3.483,3.821,14.671,5.882,24.988,4.613c10.313-1.271,15.863-5.401,12.378-9.218
						C235.618,189.063,224.42,186.997,214.106,188.267"/>
				</g>
			</g>
		</g>
		<g>
			<g enable-background="new    ">
				<g>
					<path fill="#EDC621" d="M203.472,186.119c0.568-2.83,5.62-5.388,13.36-6.346l-0.003,7.45
						c-7.743,0.952-12.792,3.522-13.359,6.351C203.472,191.085,203.472,188.604,203.472,186.119z"/>
				</g>
				<g>
					<path fill="#EDC621" d="M241.829,184.38c0.703,0.779,1.042,1.566,1.042,2.338l-0.007,7.446c0.002-0.77-0.334-1.559-1.043-2.335
						c-3.479-3.814-14.677-5.875-24.991-4.605l0.009-7.45C227.148,178.507,238.347,180.569,241.829,184.38z"/>
				</g>
				<g>
					<path fill="#EDC621" d="M203.421,186.654c0-0.177,0.017-0.356,0.051-0.534c0,2.484,0,4.966-0.004,7.455
						c-0.038,0.177-0.054,0.352-0.054,0.536C203.414,191.87,203.419,188.892,203.421,186.654z"/>
				</g>
				<g>
					<path fill="#FFDD4D" d="M242.871,186.718l-0.007,7.449c-0.001,3.038-5.194,5.865-13.415,6.872l0.007-7.442
						C237.674,192.585,242.868,189.757,242.871,186.718z"/>
				</g>
				<g>
					<path fill="#FFDD4D" d="M203.414,194.107l0.005-7.453c-0.005,0.779,0.336,1.563,1.04,2.337
						c3.486,3.816,14.672,5.883,24.992,4.606l-0.006,7.442c-10.319,1.275-21.505-0.784-24.993-4.603
						C203.749,195.665,203.414,194.877,203.414,194.107z"/>
				</g>
				<g>
					<path fill="#FFE783" d="M229.454,193.593c-10.322,1.274-21.507-0.787-24.993-4.603c-3.481-3.815,2.053-7.945,12.372-9.217
						c10.315-1.266,21.514,0.795,24.996,4.606C245.312,188.199,239.765,192.324,229.454,193.593z"/>
				</g>
				<g>
					<path fill="#EDC621" d="M247.801,186.726l-0.005,7.448c-0.006,3.797-6.492,7.333-16.768,8.595l0.005-7.447
						C241.304,194.053,247.797,190.526,247.801,186.726z"/>
				</g>
				<g>
					<path fill="#EDC621" d="M198.483,194.096l0.007-7.451c0,0.968,0.415,1.953,1.298,2.924c4.361,4.764,18.344,7.345,31.245,5.753
						l-0.005,7.447c-12.9,1.597-26.887-0.979-31.245-5.756C198.901,196.041,198.483,195.066,198.483,194.096z"/>
				</g>
				<g>
					<path fill="#FFD522" d="M231.033,195.322c-12.901,1.596-26.884-0.985-31.245-5.753c-4.354-4.77,2.568-9.929,15.472-11.52
						c12.891-1.587,26.887,0.985,31.239,5.762C250.853,188.579,243.923,193.736,231.033,195.322z M216.833,179.774
						c-10.316,1.271-15.854,5.402-12.372,9.217c3.486,3.813,14.671,5.883,24.993,4.603c10.311-1.269,15.857-5.395,12.372-9.214
						C238.347,180.569,227.148,178.507,216.833,179.774"/>
				</g>
			</g>
		</g>
		<g>
			<g enable-background="new    ">
				<g>
					<path fill="#EDC621" d="M199.381,175.06c0.569-2.824,5.623-5.382,13.362-6.342l-0.005,7.451
						c-7.74,0.955-12.79,3.519-13.36,6.344C199.381,180.025,199.381,177.547,199.381,175.06z"/>
				</g>
				<g>
					<path fill="#EDC621" d="M237.737,173.329c0.704,0.775,1.043,1.561,1.043,2.332l-0.005,7.447c0-0.772-0.338-1.56-1.044-2.333
						c-3.479-3.813-14.68-5.879-24.99-4.606l0.006-7.451C223.058,167.445,234.256,169.513,237.737,173.329z"/>
				</g>
				<g>
					<path fill="#EDC621" d="M199.333,175.602c0-0.18,0.018-0.357,0.054-0.542c0,2.487,0,4.973-0.006,7.453
						c-0.037,0.176-0.054,0.358-0.054,0.539C199.324,180.812,199.328,177.835,199.333,175.602z"/>
				</g>
				<g>
					<path fill="#FFDD4D" d="M238.78,175.659l-0.005,7.445c-0.002,3.039-5.195,5.866-13.417,6.879l0.003-7.444
						C233.584,181.527,238.778,178.698,238.78,175.659z"/>
				</g>
				<g>
					<path fill="#FFDD4D" d="M199.323,183.049l0.005-7.448c-0.001,0.768,0.333,1.555,1.043,2.329
						c3.485,3.821,14.666,5.883,24.99,4.609l-0.003,7.444c-10.321,1.271-21.506-0.789-24.992-4.602
						C199.657,184.609,199.323,183.819,199.323,183.049z"/>
				</g>
				<g>
					<path fill="#FFE783" d="M225.361,182.539c-10.324,1.271-21.505-0.785-24.99-4.607c-3.485-3.808,2.052-7.937,12.372-9.215
						c10.313-1.27,21.513,0.795,24.994,4.609C241.223,177.144,235.676,181.27,225.361,182.539z"/>
				</g>
				<g>
					<path fill="#EDC621" d="M243.709,175.672l-0.007,7.445c0,3.799-6.489,7.332-16.771,8.597l0.004-7.447
						C237.217,182.997,243.704,179.47,243.709,175.672z"/>
				</g>
				<g>
					<path fill="#EDC621" d="M194.392,183.035l0.007-7.449c-0.004,0.971,0.416,1.953,1.3,2.922
						c4.36,4.772,18.342,7.349,31.242,5.757l-0.007,7.446c-12.898,1.596-26.881-0.987-31.241-5.757
						C194.81,184.988,194.392,184.001,194.392,183.035z"/>
				</g>
				<g>
					<path fill="#FFD522" d="M226.94,184.265c-12.903,1.593-26.882-0.983-31.242-5.757c-4.355-4.771,2.569-9.928,15.47-11.52
						c12.893-1.585,26.887,0.99,31.241,5.763C246.765,177.523,239.831,182.679,226.94,184.265z M212.743,168.716
						c-10.318,1.273-15.857,5.405-12.372,9.213c3.485,3.821,14.666,5.883,24.99,4.609c10.314-1.27,15.861-5.396,12.374-9.21
						C234.256,169.513,223.058,167.445,212.743,168.716"/>
				</g>
			</g>
		</g>
		<g>
			<g enable-background="new    ">
				<g>
					<path fill="#EDC621" d="M203.209,166.566c0.567-2.824,5.616-5.383,13.36-6.339l-0.002,7.448
						c-7.747,0.951-12.791,3.513-13.362,6.344C203.205,171.533,203.205,169.054,203.209,166.566z"/>
				</g>
				<g>
					<path fill="#EDC621" d="M241.559,164.828c0.71,0.777,1.046,1.563,1.046,2.337l-0.007,7.446c0-0.771-0.334-1.558-1.044-2.332
						c-3.482-3.81-14.677-5.878-24.99-4.603l0.004-7.449C226.884,158.948,238.081,161.021,241.559,164.828z"/>
				</g>
				<g>
					<path fill="#EDC621" d="M203.156,167.103c0-0.178,0.019-0.36,0.053-0.537c-0.004,2.488-0.004,4.968-0.008,7.453
						c-0.035,0.179-0.054,0.356-0.054,0.536C203.147,172.322,203.151,169.342,203.156,167.103z"/>
				</g>
				<g>
					<path fill="#FFDD4D" d="M242.604,167.165l-0.004,7.451c-0.004,3.039-5.197,5.866-13.416,6.876l0.004-7.445
						C237.41,173.027,242.604,170.204,242.604,167.165z"/>
				</g>
				<g>
					<path fill="#FFDD4D" d="M203.147,174.551l0.006-7.448c-0.002,0.773,0.334,1.559,1.041,2.337
						c3.486,3.814,14.67,5.872,24.994,4.606l-0.009,7.445c-10.318,1.271-21.506-0.787-24.99-4.606
						C203.483,176.115,203.147,175.326,203.147,174.551z"/>
				</g>
				<g>
					<path fill="#FFE783" d="M229.188,174.047c-10.32,1.265-21.504-0.792-24.99-4.606c-3.485-3.813,2.052-7.942,12.371-9.213
						c10.318-1.276,21.516,0.792,24.992,4.601C245.048,168.649,239.5,172.774,229.188,174.047z"/>
				</g>
				<g>
					<path fill="#EDC621" d="M247.534,167.174l-0.008,7.448c0,3.8-6.492,7.329-16.768,8.598l0.005-7.451
						C241.041,174.503,247.532,170.976,247.534,167.174z"/>
				</g>
				<g>
					<path fill="#EDC621" d="M198.216,174.541l0.007-7.448c0,0.967,0.421,1.954,1.301,2.918c4.357,4.77,18.342,7.355,31.242,5.758
						l-0.005,7.452c-12.901,1.589-26.884-0.986-31.239-5.757C198.634,176.491,198.216,175.511,198.216,174.541z"/>
				</g>
				<g>
					<path fill="#FFD522" d="M230.766,175.77c-12.9,1.597-26.885-0.984-31.242-5.755c-4.356-4.769,2.566-9.927,15.472-11.516
						c12.887-1.59,26.881,0.989,31.233,5.76C250.591,169.029,243.655,174.187,230.766,175.77z M216.571,160.227
						c-10.321,1.268-15.858,5.397-12.375,9.213c3.487,3.814,14.67,5.872,24.992,4.606c10.313-1.273,15.859-5.399,12.373-9.219
						C238.081,161.021,226.884,158.948,216.571,160.227"/>
				</g>
			</g>
		</g>
		<g>
			<g enable-background="new    ">
				<g>
					<path fill="#EDC621" d="M196.646,155.563c0.566-2.828,5.615-5.387,13.355-6.341l-0.005,7.447
						c-7.742,0.957-12.789,3.515-13.362,6.346C196.64,160.532,196.642,158.048,196.646,155.563z"/>
				</g>
				<g>
					<path fill="#EDC621" d="M234.999,153.828c0.706,0.777,1.039,1.56,1.039,2.331l-0.007,7.452c0-0.772-0.335-1.56-1.04-2.334
						c-3.483-3.812-14.684-5.881-24.994-4.606l0.009-7.448C220.32,147.951,231.513,150.017,234.999,153.828z"/>
				</g>
				<g>
					<path fill="#EDC621" d="M196.587,156.102c0-0.181,0.02-0.356,0.057-0.538c-0.004,2.485-0.004,4.969-0.004,7.452
						c-0.038,0.178-0.058,0.36-0.058,0.539C196.583,161.315,196.587,158.337,196.587,156.102z"/>
				</g>
				<g>
					<path fill="#FFDD4D" d="M236.038,156.163l-0.007,7.448c0,3.036-5.194,5.868-13.415,6.876l0.004-7.442
						C230.842,162.028,236.038,159.206,236.038,156.163z"/>
				</g>
				<g>
					<path fill="#FFDD4D" d="M196.582,163.555l0.005-7.453c0,0.774,0.336,1.559,1.045,2.333c3.485,3.82,14.667,5.879,24.988,4.609
						l-0.004,7.443c-10.322,1.274-21.507-0.785-24.991-4.606C196.918,165.109,196.578,164.324,196.582,163.555z"/>
				</g>
				<g>
					<path fill="#FFE783" d="M222.622,163.045c-10.321,1.265-21.505-0.787-24.99-4.61c-3.483-3.813,2.055-7.937,12.374-9.212
						c10.309-1.268,21.51,0.791,24.993,4.605C238.483,157.647,232.939,161.771,222.622,163.045z"/>
				</g>
				<g>
					<path fill="#EDC621" d="M240.97,156.167l-0.003,7.46c-0.004,3.796-6.495,7.323-16.772,8.595l0.007-7.449
						C234.479,163.505,240.968,159.97,240.97,156.167z"/>
				</g>
				<g>
					<path fill="#EDC621" d="M191.655,163.536l0.005-7.443c0,0.964,0.417,1.952,1.3,2.922c4.355,4.766,18.341,7.346,31.241,5.755
						l-0.007,7.446c-12.901,1.596-26.883-0.985-31.237-5.759C192.07,165.491,191.651,164.512,191.655,163.536z"/>
				</g>
				<g>
					<path fill="#FFD522" d="M224.201,164.773c-12.9,1.588-26.886-0.988-31.241-5.758c-4.355-4.772,2.567-9.931,15.469-11.515
						c12.89-1.592,26.883,0.983,31.241,5.758C244.024,158.026,237.091,163.176,224.201,164.773z M210.002,149.223
						c-10.316,1.275-15.856,5.399-12.37,9.215c3.485,3.82,14.667,5.88,24.988,4.607c10.315-1.271,15.86-5.394,12.375-9.213
						C231.513,150.017,220.32,147.951,210.002,149.223"/>
				</g>
			</g>
		</g>
		<g>
			<g enable-background="new    ">
				<g>
					<path fill="#EDC621" d="M198.909,144.712c0.57-2.829,5.618-5.389,13.36-6.345l-0.004,7.449
						c-7.745,0.955-12.792,3.52-13.364,6.346C198.905,149.683,198.907,147.197,198.909,144.712z"/>
				</g>
				<g>
					<path fill="#EDC621" d="M237.262,142.979c0.709,0.775,1.043,1.562,1.043,2.33l-0.005,7.45c0-0.772-0.336-1.557-1.043-2.335
						c-3.485-3.812-14.68-5.88-24.99-4.606l0.003-7.449C222.584,137.1,233.779,139.16,237.262,142.979z"/>
				</g>
				<g>
					<path fill="#EDC621" d="M198.854,145.251c0-0.176,0.02-0.355,0.055-0.538c-0.002,2.483-0.004,4.97-0.004,7.45
						c-0.035,0.182-0.056,0.354-0.056,0.537C198.85,150.462,198.854,147.486,198.854,145.251z"/>
				</g>
				<g>
					<path fill="#FFDD4D" d="M238.307,145.309l-0.006,7.454c-0.003,3.037-5.196,5.864-13.418,6.874l0.007-7.445
						C233.111,151.175,238.304,148.348,238.307,145.309z"/>
				</g>
				<g>
					<path fill="#FFDD4D" d="M198.85,152.7l0.007-7.449c0,0.772,0.335,1.559,1.04,2.339c3.486,3.814,14.672,5.873,24.993,4.603
						l-0.007,7.444c-10.322,1.269-21.502-0.787-24.99-4.604C199.183,154.255,198.85,153.472,198.85,152.7z"/>
				</g>
				<g>
					<path fill="#FFE783" d="M224.89,152.192c-10.321,1.271-21.507-0.786-24.993-4.604c-3.483-3.817,2.05-7.942,12.373-9.217
						c10.314-1.269,21.51,0.793,24.992,4.609C240.751,146.794,235.2,150.917,224.89,152.192z"/>
				</g>
				<g>
					<path fill="#EDC621" d="M243.234,145.32l-0.004,7.445c0,3.804-6.494,7.33-16.769,8.599l0.004-7.448
						C236.741,152.651,243.234,149.118,243.234,145.32z"/>
				</g>
				<g>
					<path fill="#EDC621" d="M193.915,152.688l0.009-7.447c0,0.964,0.415,1.951,1.301,2.916c4.356,4.77,18.341,7.35,31.241,5.759
						l-0.004,7.448c-12.902,1.593-26.887-0.983-31.242-5.757C194.337,154.642,193.915,153.656,193.915,152.688z"/>
				</g>
				<g>
					<path fill="#FFD522" d="M226.466,153.915c-12.897,1.592-26.885-0.987-31.241-5.759c-4.355-4.767,2.566-9.927,15.469-11.514
						c12.889-1.591,26.882,0.986,31.235,5.758C246.29,147.172,239.358,152.325,226.466,153.915z M212.27,138.368
						c-10.32,1.275-15.856,5.401-12.373,9.217c3.486,3.813,14.672,5.878,24.993,4.604c10.311-1.271,15.859-5.396,12.372-9.21
						C233.779,139.16,222.584,137.1,212.27,138.368"/>
				</g>
			</g>
		</g>
		<g>
			<g enable-background="new    ">
				<g>
					<path fill="#EDC621" d="M200.271,136.697c0.567-2.825,5.613-5.383,13.36-6.343l-0.007,7.453
						c-7.744,0.956-12.788,3.515-13.361,6.346C200.268,141.668,200.268,139.185,200.271,136.697z"/>
				</g>
				<g>
					<path fill="#EDC621" d="M238.624,134.962c0.706,0.78,1.042,1.563,1.042,2.334l-0.009,7.451
						c0.002-0.775-0.333-1.562-1.039-2.334c-3.485-3.811-14.681-5.879-24.992-4.606l0.007-7.453
						C223.944,129.085,235.142,131.152,238.624,134.962z"/>
				</g>
				<g>
					<path fill="#EDC621" d="M200.217,137.236c0-0.176,0.017-0.352,0.054-0.539c-0.003,2.488-0.003,4.972-0.008,7.456
						c-0.036,0.181-0.052,0.355-0.052,0.536C200.211,142.448,200.217,139.473,200.217,137.236z"/>
				</g>
				<g>
					<path fill="#FFDD4D" d="M239.666,137.297l-0.009,7.451c0,3.041-5.191,5.863-13.414,6.878l0.007-7.449
						C234.472,143.165,239.666,140.34,239.666,137.297z"/>
				</g>
				<g>
					<path fill="#FFDD4D" d="M200.209,144.687l0.006-7.451c-0.002,0.78,0.333,1.559,1.043,2.338
						c3.486,3.816,14.667,5.877,24.992,4.603l-0.007,7.449c-10.319,1.268-21.508-0.789-24.994-4.606
						C200.546,146.247,200.209,145.461,200.209,144.687z"/>
				</g>
				<g>
					<path fill="#FFE783" d="M226.25,144.177c-10.322,1.273-21.506-0.784-24.992-4.603c-3.482-3.815,2.053-7.94,12.373-9.219
						c10.311-1.266,21.511,0.793,24.99,4.607C242.109,138.782,236.563,142.904,226.25,144.177z"/>
				</g>
				<g>
					<path fill="#EDC621" d="M244.597,137.305l-0.005,7.449c-0.004,3.8-6.49,7.33-16.771,8.598l0.006-7.447
						C238.1,144.639,244.592,141.109,244.597,137.305z"/>
				</g>
				<g>
					<path fill="#EDC621" d="M195.277,144.673l0.006-7.446c-0.002,0.966,0.422,1.951,1.302,2.919
						c4.358,4.769,18.34,7.35,31.239,5.759l-0.005,7.447c-12.9,1.592-26.882-0.984-31.241-5.758
						C195.694,146.625,195.277,145.647,195.277,144.673z"/>
				</g>
				<g>
					<path fill="#FFD522" d="M227.828,145.905c-12.902,1.596-26.88-0.985-31.239-5.755c-4.36-4.769,2.567-9.929,15.47-11.514
						c12.888-1.599,26.887,0.981,31.237,5.754C247.651,139.16,240.719,144.312,227.828,145.905z M213.631,130.354
						c-10.321,1.274-15.855,5.404-12.373,9.22c3.486,3.816,14.67,5.877,24.992,4.603c10.313-1.269,15.859-5.391,12.374-9.214
						C235.142,131.152,223.944,129.085,213.631,130.354"/>
				</g>
			</g>
		</g>
		<g>
			<g enable-background="new    ">
				<g>
					<path fill="#EDC621" d="M198.905,127.781c0.571-2.828,5.62-5.386,13.363-6.341l-0.007,7.448
						c-7.741,0.955-12.791,3.517-13.36,6.343C198.901,132.751,198.905,130.265,198.905,127.781z"/>
				</g>
				<g>
					<path fill="#EDC621" d="M237.258,126.046c0.71,0.775,1.046,1.563,1.046,2.333l-0.006,7.453c0-0.78-0.334-1.563-1.043-2.339
						c-3.48-3.811-14.678-5.878-24.992-4.605l0.007-7.448C222.582,120.169,233.775,122.232,237.258,126.046z"/>
				</g>
				<g>
					<path fill="#EDC621" d="M198.85,128.319c0-0.176,0.021-0.356,0.056-0.538c0,2.49-0.004,4.973-0.004,7.452
						c-0.038,0.181-0.056,0.357-0.056,0.538C198.848,133.534,198.85,130.559,198.85,128.319z"/>
				</g>
				<g>
					<path fill="#FFDD4D" d="M238.304,128.381l-0.006,7.457c-0.002,3.031-5.197,5.86-13.419,6.875l0.008-7.448
						C233.107,134.245,238.301,131.422,238.304,128.381z"/>
				</g>
				<g>
					<path fill="#FFDD4D" d="M198.846,135.767l0.004-7.448c0,0.771,0.335,1.56,1.043,2.336c3.485,3.817,14.669,5.875,24.99,4.607
						l-0.004,7.449c-10.321,1.264-21.505-0.791-24.993-4.61C199.178,137.325,198.846,136.538,198.846,135.767z"/>
				</g>
				<g>
					<path fill="#FFE783" d="M224.887,135.264c-10.326,1.266-21.506-0.79-24.992-4.607c-3.484-3.815,2.049-7.938,12.375-9.215
						c10.313-1.271,21.51,0.79,24.988,4.606C240.743,129.868,235.196,133.991,224.887,135.264z"/>
				</g>
				<g>
					<path fill="#EDC621" d="M243.234,128.392l-0.009,7.447c0,3.8-6.493,7.329-16.765,8.599l0.003-7.458
						C236.736,135.716,243.23,132.187,243.234,128.392z"/>
				</g>
				<g>
					<path fill="#EDC621" d="M193.915,135.759l0.004-7.448c0,0.966,0.42,1.947,1.306,2.917c4.354,4.771,18.341,7.351,31.237,5.754
						l-0.005,7.459c-12.9,1.586-26.884-0.99-31.24-5.765C194.334,137.713,193.915,136.726,193.915,135.759z"/>
				</g>
				<g>
					<path fill="#FFD522" d="M226.461,136.983c-12.9,1.596-26.886-0.98-31.241-5.751c-4.354-4.77,2.567-9.93,15.47-11.512
						c12.893-1.6,26.882,0.983,31.239,5.754C246.285,130.249,239.354,135.396,226.461,136.983z M212.267,121.444
						c-10.321,1.271-15.858,5.397-12.374,9.213c3.485,3.815,14.669,5.878,24.99,4.605c10.313-1.271,15.858-5.394,12.374-9.212
						C233.775,122.232,222.582,120.169,212.267,121.444"/>
				</g>
			</g>
		</g>
	</g>
	<g>
		<g>
			<g enable-background="new    ">
				<g>
					<path fill="#EDC621" d="M119.359,198.451c0.568-2.835,5.619-5.391,13.359-6.342l-0.004,7.443
						c-7.744,0.952-12.792,3.516-13.361,6.346C119.354,203.412,119.356,200.929,119.359,198.451z"/>
				</g>
				<g>
					<path fill="#EDC621" d="M157.713,196.708c0.705,0.775,1.038,1.562,1.038,2.33l-0.005,7.456c0-0.771-0.336-1.56-1.042-2.338
						c-3.482-3.813-14.68-5.877-24.99-4.607l0.004-7.443C143.031,190.836,154.23,192.897,157.713,196.708z"/>
				</g>
				<g>
					<path fill="#EDC621" d="M119.303,198.991c0-0.184,0.017-0.364,0.054-0.54c-0.003,2.485-0.003,4.961-0.005,7.447
						c-0.038,0.175-0.056,0.355-0.056,0.538C119.3,204.198,119.303,201.22,119.303,198.991z"/>
				</g>
				<g>
					<path fill="#FFDD4D" d="M158.753,199.044l-0.005,7.45c-0.002,3.037-5.195,5.861-13.415,6.875l0.002-7.448
						C153.557,204.912,158.751,202.083,158.753,199.044z"/>
				</g>
				<g>
					<path fill="#FFDD4D" d="M119.296,206.429l0.007-7.449c0,0.774,0.333,1.561,1.042,2.332c3.487,3.819,14.668,5.879,24.99,4.606
						l-0.004,7.448c-10.323,1.273-21.506-0.787-24.993-4.604C119.632,207.989,119.296,207.2,119.296,206.429z"/>
				</g>
				<g>
					<path fill="#FFE783" d="M145.337,205.921c-10.324,1.271-21.505-0.784-24.99-4.606c-3.487-3.812,2.051-7.938,12.374-9.208
						c10.313-1.272,21.513,0.791,24.995,4.603C161.196,200.53,155.651,204.656,145.337,205.921z"/>
				</g>
				<g>
					<path fill="#EDC621" d="M163.686,199.049l-0.006,7.455c-0.005,3.797-6.491,7.332-16.771,8.596l0.006-7.449
						C157.19,206.382,163.684,202.848,163.686,199.049z"/>
				</g>
				<g>
					<path fill="#EDC621" d="M114.367,206.416l0.005-7.449c-0.002,0.974,0.417,1.958,1.301,2.926
						c4.358,4.766,18.343,7.349,31.242,5.755l-0.006,7.45c-12.9,1.591-26.883-0.987-31.241-5.756
						C114.784,208.371,114.367,207.384,114.367,206.416z"/>
				</g>
				<g>
					<path fill="#FFD522" d="M146.913,207.65c-12.901,1.593-26.881-0.99-31.241-5.756c-4.356-4.773,2.568-9.93,15.464-11.521
						c12.897-1.586,26.885,0.989,31.242,5.765C166.739,200.907,159.804,206.063,146.913,207.65z M132.718,192.108
						c-10.32,1.267-15.86,5.393-12.374,9.206c3.487,3.822,14.668,5.881,24.99,4.608c10.316-1.266,15.861-5.393,12.378-9.208
						C154.23,192.897,143.031,190.836,132.718,192.108"/>
				</g>
			</g>
		</g>
		<g>
			<g enable-background="new    ">
				<g>
					<path fill="#EDC621" d="M112.793,187.443c0.571-2.825,5.618-5.385,13.359-6.34l-0.005,7.452
						c-7.743,0.953-12.79,3.512-13.362,6.341C112.788,192.41,112.791,189.922,112.793,187.443z"/>
				</g>
				<g>
					<path fill="#EDC621" d="M151.144,185.711c0.707,0.771,1.046,1.557,1.046,2.331l-0.009,7.449c0-0.775-0.334-1.561-1.041-2.333
						c-3.482-3.812-14.678-5.876-24.989-4.603l0.002-7.452C136.467,179.83,147.663,181.894,151.144,185.711z"/>
				</g>
				<g>
					<path fill="#EDC621" d="M112.739,187.983c0-0.175,0.016-0.363,0.052-0.54c-0.001,2.488-0.003,4.968-0.005,7.453
						c-0.035,0.175-0.052,0.355-0.052,0.539C112.732,193.195,112.737,190.217,112.739,187.983z"/>
				</g>
				<g>
					<path fill="#FFDD4D" d="M152.189,188.039l-0.007,7.453c-0.002,3.039-5.194,5.865-13.417,6.874l0.004-7.447
						C146.991,193.909,152.187,191.079,152.189,188.039z"/>
				</g>
				<g>
					<path fill="#FFDD4D" d="M112.732,195.425l0.005-7.447c-0.002,0.771,0.335,1.557,1.039,2.336
						c3.486,3.816,14.67,5.88,24.994,4.604l-0.007,7.446c-10.319,1.273-21.505-0.789-24.992-4.606
						C113.067,196.989,112.732,196.202,112.732,195.425z"/>
				</g>
				<g>
					<path fill="#FFE783" d="M138.77,194.919c-10.322,1.274-21.505-0.785-24.992-4.603c-3.483-3.815,2.051-7.944,12.375-9.213
						c10.314-1.275,21.511,0.788,24.991,4.604C154.629,189.525,149.083,193.652,138.77,194.919z"/>
				</g>
				<g>
					<path fill="#EDC621" d="M157.119,188.052l-0.008,7.448c-0.001,3.796-6.49,7.335-16.765,8.599l0.004-7.448
						C150.624,195.383,157.117,191.85,157.119,188.052z"/>
				</g>
				<g>
					<path fill="#EDC621" d="M107.801,195.42l0.005-7.448c0,0.963,0.42,1.951,1.303,2.918c4.356,4.771,18.339,7.346,31.241,5.761
						l-0.004,7.448c-12.903,1.588-26.886-0.991-31.245-5.763C108.219,197.372,107.801,196.386,107.801,195.42z"/>
				</g>
				<g>
					<path fill="#FFD522" d="M140.351,196.651c-12.903,1.585-26.885-0.988-31.241-5.761c-4.357-4.771,2.565-9.93,15.468-11.517
						c12.891-1.589,26.883,0.991,31.24,5.761C160.17,189.906,153.24,195.062,140.351,196.651z M126.152,181.103
						c-10.322,1.269-15.857,5.398-12.375,9.213c3.486,3.818,14.67,5.881,24.992,4.605c10.313-1.268,15.859-5.396,12.374-9.211
						C147.663,181.894,136.467,179.83,126.152,181.103"/>
				</g>
			</g>
		</g>
		<g>
			<g enable-background="new    ">
				<g>
					<path fill="#EDC621" d="M115.059,176.59c0.566-2.824,5.619-5.385,13.361-6.341l-0.006,7.448
						c-7.742,0.956-12.789,3.516-13.358,6.341C115.055,181.556,115.055,179.08,115.059,176.59z"/>
				</g>
				<g>
					<path fill="#EDC621" d="M153.415,174.86c0.703,0.771,1.043,1.556,1.043,2.327l-0.01,7.452c0-0.771-0.334-1.558-1.042-2.331
						c-3.482-3.817-14.679-5.881-24.993-4.608l0.006-7.448C138.731,168.978,149.932,171.045,153.415,174.86z"/>
				</g>
				<g>
					<path fill="#EDC621" d="M115.003,177.126c0-0.18,0.018-0.357,0.055-0.536c-0.003,2.49-0.003,4.966-0.005,7.448
						c-0.037,0.177-0.053,0.359-0.053,0.539C115.001,182.343,115.003,179.365,115.003,177.126z"/>
				</g>
				<g>
					<path fill="#FFDD4D" d="M154.455,177.186l-0.009,7.451c0,3.037-5.195,5.863-13.415,6.876l0.004-7.446
						C149.258,183.058,154.448,180.231,154.455,177.186z"/>
				</g>
				<g>
					<path fill="#FFDD4D" d="M115,184.578l0.003-7.451c0,0.776,0.335,1.561,1.042,2.339c3.488,3.815,14.669,5.874,24.992,4.604
						l-0.002,7.443c-10.325,1.274-21.507-0.784-24.994-4.607C115.334,186.139,115,185.347,115,184.578z"/>
				</g>
				<g>
					<path fill="#FFE783" d="M141.037,184.069c-10.318,1.271-21.503-0.787-24.992-4.606c-3.48-3.813,2.051-7.941,12.373-9.212
						c10.313-1.271,21.511,0.79,24.993,4.609C156.896,178.673,151.351,182.799,141.037,184.069z"/>
				</g>
				<g>
					<path fill="#EDC621" d="M159.384,177.198l-0.004,7.445c-0.002,3.802-6.492,7.331-16.771,8.598l0.004-7.445
						C152.892,184.527,159.382,180.996,159.384,177.198z"/>
				</g>
				<g>
					<path fill="#EDC621" d="M110.067,184.56l0.005-7.44c-0.001,0.965,0.417,1.953,1.302,2.917
						c4.355,4.771,18.339,7.348,31.239,5.76l-0.006,7.447c-12.9,1.593-26.882-0.987-31.242-5.755
						C110.485,186.522,110.067,185.532,110.067,184.56z"/>
				</g>
				<g>
					<path fill="#FFD522" d="M142.613,185.796c-12.899,1.591-26.881-0.984-31.237-5.76c-4.357-4.768,2.566-9.92,15.47-11.514
						c12.888-1.589,26.88,0.99,31.24,5.766C162.438,179.052,155.507,184.205,142.613,185.796z M128.42,170.25
						c-10.323,1.267-15.857,5.398-12.374,9.216c3.488,3.815,14.671,5.874,24.993,4.604c10.315-1.271,15.861-5.393,12.376-9.211
						C149.932,171.045,138.731,168.978,128.42,170.25"/>
				</g>
			</g>
		</g>
		<g>
			<g enable-background="new    ">
				<g>
					<path fill="#EDC621" d="M116.419,168.58c0.57-2.834,5.619-5.387,13.359-6.346l-0.002,7.451
						c-7.745,0.954-12.793,3.513-13.364,6.345C116.415,173.552,116.419,171.066,116.419,168.58z"/>
				</g>
				<g>
					<path fill="#EDC621" d="M154.775,166.844c0.705,0.774,1.038,1.556,1.038,2.333l-0.004,7.446c0-0.769-0.336-1.561-1.039-2.33
						c-3.485-3.811-14.683-5.88-24.994-4.607l0.004-7.451C140.095,160.962,151.293,163.031,154.775,166.844z"/>
				</g>
				<g>
					<path fill="#EDC621" d="M116.366,169.118c0-0.177,0.018-0.362,0.053-0.538c0,2.485-0.004,4.972-0.004,7.45
						c-0.037,0.175-0.052,0.36-0.052,0.536C116.36,174.331,116.366,171.352,116.366,169.118z"/>
				</g>
				<g>
					<path fill="#FFDD4D" d="M155.813,169.177l-0.002,7.446c-0.004,3.043-5.198,5.871-13.416,6.88l0.006-7.449
						C150.619,175.044,155.813,172.218,155.813,169.177z"/>
				</g>
				<g>
					<path fill="#FFDD4D" d="M116.36,176.566l0.006-7.449c0,0.77,0.335,1.56,1.043,2.329c3.485,3.82,14.668,5.879,24.991,4.604
						l-0.006,7.452c-10.324,1.275-21.504-0.788-24.993-4.603C116.693,178.124,116.36,177.338,116.36,176.566z"/>
				</g>
				<g>
					<path fill="#FFE783" d="M142.397,176.052c-10.322,1.271-21.506-0.781-24.991-4.604c-3.484-3.815,2.051-7.938,12.372-9.213
						c10.316-1.269,21.513,0.795,24.994,4.609C158.259,170.663,152.712,174.789,142.397,176.052z"/>
				</g>
				<g>
					<path fill="#EDC621" d="M160.745,169.185l-0.002,7.454c-0.005,3.796-6.498,7.326-16.773,8.595l0.007-7.448
						C154.252,176.515,160.743,172.984,160.745,169.185z"/>
				</g>
				<g>
					<path fill="#EDC621" d="M111.427,176.557l0.005-7.452c0,0.968,0.419,1.957,1.304,2.924c4.353,4.768,18.34,7.348,31.241,5.756
						l-0.007,7.449c-12.904,1.588-26.882-0.993-31.242-5.76C111.848,178.507,111.427,177.523,111.427,176.557z"/>
				</g>
				<g>
					<path fill="#FFD522" d="M143.977,177.785c-12.899,1.591-26.886-0.989-31.241-5.757c-4.357-4.774,2.566-9.926,15.467-11.52
						c12.893-1.583,26.883,0.99,31.239,5.761C163.8,171.045,156.868,176.197,143.977,177.785z M129.778,162.24
						c-10.318,1.27-15.854,5.393-12.372,9.209c3.487,3.821,14.669,5.881,24.991,4.604c10.314-1.265,15.861-5.391,12.375-9.21
						C151.293,163.031,140.095,160.962,129.778,162.24"/>
				</g>
			</g>
		</g>
		<g>
			<g enable-background="new    ">
				<g>
					<path fill="#EDC621" d="M115.055,159.663c0.568-2.827,5.619-5.383,13.361-6.341l-0.007,7.445
						c-7.741,0.956-12.79,3.517-13.36,6.34C115.053,164.624,115.055,162.151,115.055,159.663z"/>
				</g>
				<g>
					<path fill="#EDC621" d="M153.413,157.926c0.702,0.775,1.035,1.561,1.035,2.334l-0.006,7.448
						c0.004-0.77-0.335-1.556-1.038-2.334c-3.481-3.813-14.68-5.881-24.995-4.606l0.006-7.445
						C138.728,152.048,149.932,154.112,153.413,157.926z"/>
				</g>
				<g>
					<path fill="#EDC621" d="M115.001,160.2c0-0.182,0.02-0.357,0.056-0.537c-0.002,2.487-0.004,4.967-0.005,7.444
						c-0.038,0.183-0.053,0.363-0.053,0.54C114.999,165.416,115.001,162.434,115.001,160.2z"/>
				</g>
				<g>
					<path fill="#FFDD4D" d="M154.448,160.262l-0.006,7.445c0,3.04-5.196,5.867-13.413,6.877l0.004-7.444
						C149.255,166.13,154.446,163.3,154.448,160.262z"/>
				</g>
				<g>
					<path fill="#FFDD4D" d="M114.995,167.648l0.004-7.452c0,0.779,0.335,1.563,1.039,2.337c3.488,3.82,14.67,5.879,24.993,4.607
						l-0.004,7.445c-10.322,1.275-21.506-0.786-24.993-4.604C115.332,169.211,114.994,168.419,114.995,167.648z"/>
				</g>
				<g>
					<path fill="#FFE783" d="M141.035,167.139c-10.322,1.269-21.507-0.786-24.994-4.611c-3.484-3.811,2.053-7.936,12.377-9.209
						c10.312-1.27,21.511,0.791,24.993,4.607C156.895,161.742,151.349,165.868,141.035,167.139z"/>
				</g>
				<g>
					<path fill="#EDC621" d="M159.382,160.264l-0.004,7.457c-0.005,3.794-6.495,7.326-16.772,8.595l0.006-7.446
						C152.888,167.598,159.38,164.068,159.382,160.264z"/>
				</g>
				<g>
					<path fill="#EDC621" d="M110.065,167.632l0.002-7.444c0,0.967,0.417,1.957,1.305,2.923c4.357,4.767,18.338,7.343,31.239,5.759
						l-0.006,7.446c-12.898,1.59-26.882-0.989-31.24-5.763C110.479,169.589,110.063,168.608,110.065,167.632z"/>
				</g>
				<g>
					<path fill="#FFD522" d="M142.611,168.869c-12.9,1.584-26.882-0.992-31.239-5.759c-4.357-4.774,2.566-9.932,15.467-11.517
						c12.892-1.589,26.883,0.987,31.242,5.762C162.434,162.122,155.502,167.276,142.611,168.869z M128.418,153.323
						c-10.323,1.27-15.86,5.396-12.376,9.21c3.488,3.82,14.669,5.879,24.993,4.607c10.313-1.269,15.861-5.396,12.378-9.214
						C149.932,154.112,138.728,152.048,128.418,153.323"/>
				</g>
			</g>
		</g>
	</g>
	<g>
		<g>
			<path fill="#FFFFFF" d="M104.229,163.646c0,0,0.916-0.78,2.377-1.73c1.459-0.966,3.464-2.104,5.526-3.111
				c2.066-0.995,4.188-1.86,5.824-2.392c1.632-0.55,2.783-0.77,2.783-0.77s-0.912,0.783-2.377,1.738
				c-1.457,0.962-3.465,2.101-5.528,3.105c-2.068,0.991-4.187,1.852-5.827,2.391C105.379,163.426,104.229,163.646,104.229,163.646z"
				/>
		</g>
		<g>
			<path fill="#FFFFFF" d="M116.476,169.151c0,0-0.723-0.973-1.598-2.526c-0.888-1.548-1.942-3.679-2.865-5.871
				c-0.917-2.197-1.707-4.452-2.198-6.194c-0.503-1.733-0.699-2.962-0.699-2.962s0.724,0.971,1.6,2.526
				c0.891,1.547,1.938,3.682,2.863,5.871c0.915,2.197,1.705,4.456,2.196,6.197C116.276,167.924,116.476,169.151,116.476,169.151z"/>
		</g>
	</g>
	<g>
		<g>
			<path fill="#FFFFFF" d="M189.849,55.006c0,0,0.927,0.757,2.146,2.052c1.227,1.282,2.745,3.093,4.16,4.998
				c1.402,1.908,2.7,3.911,3.584,5.483c0.896,1.569,1.375,2.712,1.375,2.712s-0.929-0.761-2.146-2.057
				c-1.229-1.281-2.748-3.093-4.159-4.994c-1.403-1.911-2.701-3.914-3.584-5.486C190.328,56.151,189.849,55.006,189.849,55.006z"/>
		</g>
		<g>
			<path fill="#FFFFFF" d="M187.883,69.118c0,0,0.7-0.991,1.887-2.286c1.176-1.309,2.842-2.925,4.591-4.428
				c1.758-1.493,3.6-2.869,5.05-3.807c1.442-0.953,2.496-1.454,2.496-1.454s-0.695,0.992-1.884,2.284
				c-1.179,1.308-2.842,2.923-4.593,4.427c-1.755,1.492-3.599,2.865-5.05,3.8C188.938,68.61,187.883,69.118,187.883,69.118z"/>
		</g>
	</g>
	<path fill="#FFFFFF" d="M100.843,186.368c-0.974,0-5.013,2.022-2.823,2.022C98.992,188.391,103.032,186.368,100.843,186.368z"/>
	<path fill="#FFFFFF" d="M183.545,133.372c-0.844,0-4.966,1.787-2.878,1.787C181.513,135.16,185.634,133.372,183.545,133.372z"/>
	<path fill="#FFFFFF" d="M148.248,42.272c-0.892,0-4.986,1.883-2.854,1.883C146.281,44.156,150.376,42.272,148.248,42.272z"/>
	<path fill="#FFFFFF" d="M231.928,158.262c-0.891,0-4.983,1.876-2.852,1.876C229.962,160.136,234.058,158.262,231.928,158.262z"/>
</g>
<g>
	<g>
		<path fill="#FAAD58" d="M131.616,120.448H80.9l-5.286-29.613c1.191-35.355,34.534-31.079,50.896-27.552l-2.137,32.669h6.604
			L131.616,120.448z"/>
		<polygon fill="#FAAD58" points="59.784,163.802 102.9,116.225 75.614,90.835 33.358,132.923 		"/>
		<polygon fill="#399645" points="92.844,127.322 63.73,102.669 33.358,132.923 59.784,163.802 		"/>
		<g>
			<polygon fill="#94C43D" points="81.036,106.122 135.608,106.009 135.422,4.882 80.85,5.001 			"/>
			<path fill="#DEF0ED" d="M108.205,42.465c8.728-0.014,16.029,5.703,16.039,13c0.019,7.452-7.446,13.053-15.99,13.07
				c-8.846,0.019-16.032-5.802-16.042-13C92.193,48.337,99.356,42.486,108.205,42.465z"/>
			<path fill="#DEF0ED" d="M85.191,20.485l0.131,70.134c5.434-0.006,9.885,4.733,9.892,10.599l26.198-0.052
				c-0.012-5.867,4.422-10.629,9.854-10.644l-0.13-70.141c-5.436,0.008-9.882-4.734-9.894-10.596L95.044,9.843
				C95.059,15.704,90.627,20.472,85.191,20.485z M118.958,12.531c1.021,5.165,4.823,9.238,9.631,10.311l0.121,65.228
				c-4.805,1.089-8.595,5.184-9.589,10.354l-21.625,0.047c-1.016-5.166-4.823-9.245-9.626-10.315l-0.124-65.223
				c4.803-1.094,8.593-5.183,9.59-10.354L118.958,12.531z"/>
			<path fill="#5C9340" d="M101.299,49.55c0.092-0.21,0.302-0.328,0.517-0.279l1.245,0.108c0.158,0.041,0.268,0.194,0.265,0.37
				c0.006,0.084,0.014,0.17,0.009,0.253l-0.178,2.795l-0.004,0.205l0.107-0.088c0.479-0.329,1.019-0.545,1.581-0.633
				c0.143-0.014,0.144-0.117,0.213-0.173c0.024-0.687,0.078-1.354,0.082-2.091c0.007-0.731,0.164-0.538,0.559-0.458l1.109,0.082
				c0.229-0.019,0.431,0.166,0.445,0.412c0.008,0.067,0.001,0.129-0.021,0.187l-0.111,2.014c-0.018,0.136,0.008,0.172,0.143,0.204
				c0.933,0.238,1.775,0.774,2.414,1.54c0.505,0.604,0.882,1.324,1.103,2.106c0.182,0.606,0.293,1.235,0.33,1.868l0.025,0.222
				l4.121-3.384l2.881-2.245c0.334-0.274,0.585-0.156,0.746,0.179l-0.098,2.505c-0.007,0.257-0.121,0.497-0.308,0.658l-7.457,6.124
				c-0.11,0.096-0.247,0.143-0.39,0.141l-1.466-0.109c-0.232,0.012-0.428-0.181-0.438-0.43c-0.005-0.053,0.002-0.108,0.021-0.158
				l0.088-1.407c0.074-0.828,0.001-1.662-0.208-2.463c-0.156-0.606-0.478-1.152-0.925-1.566c-0.226-0.183-0.475-0.322-0.744-0.417
				l-0.003,0.206l-0.322,5.423l-0.043,0.257c-0.036,0.187-0.191,0.313-0.368,0.303l-1.382-0.095c-0.186-0.03-0.313-0.21-0.291-0.409
				l0.001-0.203l0.324-5.24l0.01-0.193l-0.082,0.068c-0.459,0.264-0.82,0.691-1.025,1.208c-0.263,0.636-0.41,1.322-0.444,2.021
				l-0.101,2.105c-0.028,0.385-0.217,0.542-0.605,0.497c-0.461-0.045-0.922-0.079-1.384-0.097c-0.229,0.036-0.446-0.111-0.512-0.347
				l0.578-11.578L101.299,49.55z"/>
		</g>
		<g>
			<path fill="#FCC179" d="M138.716,85.377c0-3.888-2.928-7.029-6.537-7.029c3.609,0,6.537-3.149,6.537-7.031
				c0-3.881-2.928-7.029-6.537-7.029h-17.413c-3.615,0-6.536,3.148-6.536,7.029c0,3.882,2.92,7.031,6.536,7.031
				c-3.615,0-6.536,3.141-6.536,7.029c0,3.882,2.92,7.03,6.536,7.03c-3.615,0-6.536,3.143-6.536,7.026s2.92,7.03,6.536,7.03
				c-3.615,0-6.536,3.143-6.536,7.025c0,3.888,2.92,7.036,6.536,7.036h17.413c3.609,0,6.537-3.148,6.537-7.036
				c0-3.882-2.928-7.025-6.537-7.025c3.609,0,6.537-3.147,6.537-7.03c0-3.881-2.928-7.026-6.537-7.026
				C135.788,92.406,138.716,89.259,138.716,85.377z"/>
			<path fill="#F37B3E" d="M118.16,66.791c-0.196-0.033-3.521-0.062-3.521-0.062c-2.357,0-4.271,2.05-4.271,4.586
				c0,2.532,1.914,4.592,4.271,4.592c0,0,3.325-0.034,3.521-0.065V66.791z"/>
			<path fill="#F37B3E" d="M118.16,80.634c-0.196-0.034-3.521-0.068-3.521-0.068c-2.357,0-4.271,2.06-4.271,4.593
				c0,2.538,1.914,4.59,4.271,4.59c0,0,3.325-0.033,3.521-0.065V80.634z"/>
			<path fill="#F37B3E" d="M118.16,95.195c-0.196-0.033-3.521-0.067-3.521-0.067c-2.357,0-4.271,2.057-4.271,4.593
				c0,2.533,1.914,4.591,4.271,4.591c0,0,3.325-0.039,3.521-0.067V95.195z"/>
			<path fill="#F37B3E" d="M118.16,109.03c-0.196-0.029-3.521-0.069-3.521-0.069c-2.357,0-4.271,2.061-4.271,4.593
				c0,2.539,1.914,4.59,4.271,4.59c0,0,3.325-0.03,3.521-0.064V109.03z"/>
		</g>
		<path fill="#FAAD58" d="M112.746,29.177c0,0,0.404,0.807,0.787,2.108c1.03,3.418,1.971,10.254-4.613,14.893
			c-4.832,3.4-24.691,17.378-24.691,17.378l-11.485,8.092l5.017-17.834L112.746,29.177z"/>
		<path fill="#F37B3E" d="M112.746,29.177c0.418,0.683,0.682,1.407,0.787,2.108c0.226,1.311-0.105,2.517-0.953,3.119l-6.233,4.385
			c-1.29,0.913-3.312,0.052-4.512-1.928L112.746,29.177z"/>
		<path fill="#FAAD58" d="M77.758,53.814c0,0-18.322,14.917-11.388,35.937c6.935,21.021,1.761,9.971,1.761,9.971l12.881-7.319
			c0,0,6.863-1.937,6.833-16.655C87.82,61.033,87.82,61.033,87.82,61.033L77.758,53.814z"/>
	</g>
</g>
<g>
	<path fill="#F5B5B2" d="M100.341,154.698c-1.038,0.137-2.621,0.642-3.042,1.823c-0.41,1.15-0.084,2.378,0.633,3.302
		c0.247,0.316,0.692,0.434,1.042,0.248c0.076-0.039,0.152-0.078,0.226-0.118c0.802-0.424,0.526-1.541-0.137-1.756
		c-0.206-0.525-0.01-0.932,0.65-1.148c0.604-0.198,1.353-0.343,1.845,0.197c1.006,1.103,1.138,2.96,0.479,4.244
		c-1.265,2.467-5.537,3.086-7.471,1.289c-0.807-0.751-1.652,0.557-1.162,1.363c0.535,0.876,1.95,1.41,2.865,1.655
		c1.343,0.362,2.58,0.027,3.869-0.398c2.534-0.842,4.463-3.024,4.348-5.977C104.397,157.137,102.706,154.38,100.341,154.698z"/>
	<path fill="#F5B5B2" d="M33.218,130.849c0,0,2.227,7.916,1.812,13.783c0,0,9.114-6.113,10.924-7.01
		C45.954,137.622,43.93,130.742,33.218,130.849z"/>
	<path fill="#F5B5B2" d="M96.146,165.963c0.15,17.45-15.593,31.754-35.164,31.946c-19.568,0.192-35.552-13.8-35.702-31.248
		c-0.149-17.453,15.596-31.754,35.164-31.946C80.014,134.524,96,148.514,96.146,165.963z"/>
	<path fill="#F5B5B2" d="M39.219,190.37l2.122,11.645c0.018,2.12,1.153,3.827,2.537,3.815l4.367-0.043
		c1.383-0.015,2.49-1.744,2.472-3.866l1.412-11.678L39.219,190.37z"/>
	<path fill="#F5B5B2" d="M69.158,190.076l2.123,11.646c0.018,2.118,1.153,3.826,2.538,3.814l4.366-0.045
		c1.384-0.013,2.491-1.741,2.473-3.863l1.41-11.68L69.158,190.076z"/>
	<path fill="#231F20" d="M38.077,156.991c0.833-0.008,1.562,0.462,1.967,1.173c0.179-0.355,0.28-0.763,0.275-1.194
		c-0.012-1.361-1.045-2.452-2.31-2.439c-1.264,0.013-2.28,1.124-2.268,2.484c0.003,0.464,0.129,0.896,0.341,1.266
		C36.47,157.518,37.215,157,38.077,156.991z"/>
	<path fill="#F5B5B2" d="M30.366,170.822l0.217-2.736l-0.479,0.006l-0.522-5.458c0,0-3.015,1.651-6.179,1.094
		c0,0-2.079-2.085-3.433,0.163l0.037,4.299l0.046,5.464l0.037,4.302c1.391,2.219,3.434,0.094,3.434,0.094
		c3.154-0.62,6.195,0.973,6.195,0.973l0.431-5.467l0.476-0.004L30.366,170.822z"/>
	<path fill="#D0D2D3" d="M69.425,135.651c6.198,1.7,12.279,4.593,16.992,9.286c3.844,3.827,6.68,8.812,7.742,14.361
		c1.219,6.365-0.488,12.519-4.68,17.209c-8.169,9.142-21.025,11.801-32.291,9.518c-11.11-2.252-21.488-9.674-23.899-22.188
		c-2.104-10.926,3.509-19.729,11.287-25.613c-10.645,4.899-18.157,14.446-19.175,25.595c-0.642,0.048-1.317,0.028-2-0.092
		c0,0-2.079-2.084-3.433,0.163l0.121,14.064c1.391,2.219,3.434,0.094,3.434,0.094c1.616-0.317,3.2-0.056,4.363,0.277
		c2.439,5.336,6.471,9.932,11.566,13.331l1.888,10.359c0.018,2.121,1.153,3.827,2.537,3.815l4.367-0.043
		c1.383-0.015,2.49-1.744,2.472-3.864l0.615-5.103c3.073,0.74,6.31,1.123,9.651,1.089c3.252-0.032,6.396-0.456,9.381-1.215
		l0.917,5.027c0.017,2.119,1.153,3.826,2.537,3.815l4.366-0.045c1.384-0.014,2.491-1.742,2.473-3.864l1.211-10.03
		c8.741-5.838,14.369-15.167,14.278-25.635C96.022,151.278,84.681,139.043,69.425,135.651z"/>
	<path opacity="0.5" fill="#FFFFFF" enable-background="new    " d="M81.585,152.778c-0.185-0.98-0.337-1.967-0.563-2.94
		c-3.325-14.291-24.433-17.391-33.158-7.81c-2.499,2.742-4.662,7.273-5.126,11.118c-0.19,1.562-0.033,3.162-0.021,4.732
		c0.015,1.666,0.357,3.077,0.918,4.637c0.514,1.424,0.982,2.649,1.872,3.856c0.836,1.137,2.169,2.065,3.346,2.729
		c2.837,1.595,5.837,2.554,8.986,3.069c3.142,0.515,6.372,0.692,9.523,0.179c3.156-0.514,6.076-1.694,8.545-3.898
		c1.149-1.026,2.128-2.377,3.051-3.631c0.951-1.293,1.727-2.705,2.084-4.32c0.359-1.623,0.746-3.291,0.904-4.95
		C82.035,154.613,81.756,153.683,81.585,152.778z"/>
	<g>
		<path fill="#BC8C8B" d="M70.708,142.541c-0.324,0.96-1.324,1.45-2.25,1.175c-4.972-1.492-10.237-1.44-15.184,0.147
			c-0.921,0.296-1.928-0.175-2.27-1.129l0,0c-0.339-0.951,0.227-2.067,1.288-2.408c5.567-1.787,11.492-1.845,17.089-0.168
			C70.446,140.477,71.031,141.583,70.708,142.541L70.708,142.541z"/>
		<path fill="#876565" d="M52.704,141.813c5.307-1.703,10.955-1.76,16.289-0.161c0.735,0.221,1.233,0.862,1.316,1.562
			c0.174-0.186,0.313-0.41,0.399-0.672c0.323-0.956-0.262-2.063-1.327-2.383c-5.597-1.677-11.522-1.619-17.089,0.168
			c-1.059,0.339-1.626,1.457-1.288,2.408c0.09,0.261,0.235,0.482,0.411,0.664C51.485,142.698,51.974,142.046,52.704,141.813z"/>
	</g>
	<g>
		<path fill="#D0D2D3" d="M42.061,169.302c0.886-0.008,0.873-1.484-0.011-1.476C41.162,167.833,41.174,169.31,42.061,169.302
			L42.061,169.302z"/>
	</g>
	<g>
		<path fill="#D0D2D3" d="M36.807,165.219c0.885-0.008,0.872-1.484-0.013-1.476C35.907,163.751,35.921,165.228,36.807,165.219
			L36.807,165.219z"/>
	</g>
	<g>
		<path fill="#D0D2D3" d="M41.054,163.847c0.885-0.009,0.873-1.484-0.013-1.475C40.154,162.38,40.167,163.856,41.054,163.847
			L41.054,163.847z"/>
	</g>
	<g>
		<path fill="#D0D2D3" d="M34.584,162.362c0.443-0.005,0.437-0.742-0.007-0.738C34.135,161.627,34.142,162.367,34.584,162.362
			L34.584,162.362z"/>
	</g>
	<g>
		<path fill="#D0D2D3" d="M35.798,167.739c0,0.048,0.001,0.1,0.001,0.148c0.003,0.475,0.69,0.47,0.686-0.008
			c0-0.049,0-0.098-0.001-0.147C36.48,167.257,35.793,167.263,35.798,167.739L35.798,167.739z"/>
	</g>
	<g>
		<path fill="#D0D2D3" d="M39.076,165.491c0,0.036,0,0.073,0,0.111c0.004,0.477,0.691,0.47,0.687-0.007c0-0.036,0-0.074,0-0.112
			C39.756,165.008,39.071,165.015,39.076,165.491c0,0.036,0,0.073,0,0.111c0.004,0.477,0.691,0.47,0.687-0.007
			c0-0.036,0-0.074,0-0.112C39.756,165.008,39.071,165.015,39.076,165.491L39.076,165.491z"/>
	</g>
	<g>
		<path fill="#D0D2D3" d="M37.88,162.255c0.887-0.009,0.874-1.486-0.013-1.478C36.982,160.788,36.995,162.262,37.88,162.255
			L37.88,162.255z"/>
	</g>
	<g>
		<path fill="#D0D2D3" d="M39.434,167.261c-0.047,0.001-0.092,0.001-0.138,0.001c-0.375,0.005-0.684,0.343-0.681,0.746
			c0.003,0.401,0.318,0.735,0.694,0.73c0.047,0,0.092-0.001,0.138-0.001c0.373-0.004,0.685-0.342,0.68-0.745
			C40.124,167.588,39.807,167.258,39.434,167.261L39.434,167.261z"/>
	</g>
	<g>
		<path fill="#D0D2D3" d="M40.614,160.752c0.887-0.009,0.875-1.485-0.012-1.478C39.716,159.283,39.729,160.76,40.614,160.752
			L40.614,160.752z"/>
	</g>
	<g>
		<path fill="#D0D2D3" d="M33.371,165.031c0.045,0,0.091-0.001,0.136-0.001c0.444-0.004,0.438-0.743-0.005-0.738
			c-0.046,0-0.091,0-0.137,0.001C32.922,164.296,32.928,165.035,33.371,165.031L33.371,165.031z"/>
	</g>
	<g>
		<path fill="#D0D2D3" d="M43.272,166.41c0.443-0.005,0.436-0.743-0.006-0.739C42.822,165.677,42.828,166.413,43.272,166.41
			L43.272,166.41z"/>
	</g>
	<g>
		<path fill="#D0D2D3" d="M43.355,160.059c0.443-0.004,0.437-0.742-0.006-0.738C42.907,159.326,42.912,160.065,43.355,160.059
			L43.355,160.059z"/>
	</g>
	<g>
		<path fill="#D0D2D3" d="M45.432,162.108c0.444-0.004,0.437-0.744-0.005-0.74C44.983,161.373,44.991,162.112,45.432,162.108
			L45.432,162.108z"/>
	</g>
	<g>
		<path fill="#D0D2D3" d="M33.4,168.429c0.443-0.007,0.436-0.744-0.005-0.74C32.95,167.693,32.958,168.433,33.4,168.429
			L33.4,168.429z"/>
	</g>
	<g>
		<path fill="#D0D2D3" d="M37.127,170.606c0.443-0.004,0.436-0.744-0.006-0.739C36.678,169.871,36.684,170.61,37.127,170.606
			L37.127,170.606z"/>
	</g>
	<g>
		<path fill="#D0D2D3" d="M40.906,170.789c0-0.098-0.001-0.197-0.002-0.295c-0.004-0.476-0.691-0.468-0.686,0.008
			c0,0.099,0,0.197,0.002,0.294C40.223,171.274,40.91,171.266,40.906,170.789L40.906,170.789z"/>
	</g>
</g>
</svg>
