<?xml version="1.0" encoding="utf-8"?>
<!-- Generator: Adobe Illustrator 16.0.0, SVG Export Plug-In . SVG Version: 6.00 Build 0)  -->
<!DOCTYPE svg PUBLIC "-//W3C//DTD SVG 1.1//EN" "http://www.w3.org/Graphics/SVG/1.1/DTD/svg11.dtd">
<svg version="1.1" id="Layer_1" xmlns="http://www.w3.org/2000/svg" xmlns:xlink="http://www.w3.org/1999/xlink" x="0px" y="0px"
	 width="270px" height="219.997px" viewBox="0 7.501 270 219.997" enable-background="new 0 7.501 270 219.997"
	 xml:space="preserve">
<image overflow="visible" enable-background="new    " width="1400" height="238" xlink:href="EBA56EBB.png"  transform="matrix(0.1634 0 0 0.1604 23.4688 187.1748)">
</image>
<g>
	<g>
		<g>
			<g>
				<ellipse fill="#FEDC32" cx="209.051" cy="201.374" rx="19.319" ry="2.368"/>
				<path fill="#FF9900" d="M228.37,206.161c0,1.31-8.65,2.37-19.319,2.37s-19.32-1.061-19.32-2.37c0-1.558,0-3.116,0-4.68h0.021
					c0.459,1.257,8.921,2.262,19.299,2.262c10.374,0,18.837-1.005,19.298-2.262h0.021C228.37,203.041,228.37,204.604,228.37,206.161
					z"/>
			</g>
			<path fill="#FFB300" d="M192.546,201.189c0-0.964,7.386-1.748,16.505-1.748c9.116,0,16.506,0.784,16.506,1.748
				c0,0.963-7.388,1.745-16.506,1.745C199.934,202.933,192.546,202.152,192.546,201.189z"/>
			<path fill="#FEDC32" d="M205.691,202.145c1.41,0,6.355-0.027,6.355-0.752v-0.226c0-0.167,0.447-0.199,1.317-0.199h0.479
				c0.902,0,1.229,0.06,1.229,0.222c0,0.352-0.209,0.716-0.326,0.865h4.522c0.779-0.295,0.989-0.341,1.021-0.674h2.458v-0.413
				h-2.458c-0.059-0.367-1.288-0.737-6.714-0.737h-0.986c-2.398,0-6.355,0.131-6.355,0.708v0.239c0,0.208-0.509,0.229-1.44,0.229
				h-0.326c-1.259,0-1.317-0.075-1.317-0.28c0-0.25,0.089-0.554,0.298-0.796h-4.526c-0.572,0.202-0.9,0.361-0.989,0.637h-2.575
				v0.414h2.575c0.12,0.419,1.62,0.763,5.935,0.763L205.691,202.145L205.691,202.145z"/>
		</g>
		<g>
			<g>
				<path fill="#FEDC32" d="M209.051,192.585c10.669,0,19.319,1.062,19.319,2.369c0,1.309-8.65,2.367-19.319,2.367
					s-19.32-1.06-19.32-2.367C189.73,193.645,198.382,192.585,209.051,192.585z"/>
				<path fill="#FF9900" d="M228.37,199.742c0,1.308-8.65,2.369-19.319,2.369s-19.32-1.063-19.32-2.369c0-1.559,0-3.119,0-4.681
					h0.021c0.459,1.259,8.921,2.26,19.299,2.26c10.374,0,18.837-1.001,19.298-2.26h0.021
					C228.37,196.622,228.37,198.182,228.37,199.742z"/>
			</g>
			<ellipse fill="#FFB300" cx="209.05" cy="194.767" rx="16.505" ry="1.745"/>
			<path fill="#FEDC32" d="M205.691,195.724c1.41,0,6.355-0.028,6.355-0.75v-0.226c0-0.169,0.447-0.201,1.317-0.201h0.479
				c0.902,0,1.229,0.061,1.229,0.224c0,0.351-0.209,0.712-0.326,0.867h4.522c0.779-0.297,0.989-0.346,1.021-0.68h2.458v-0.409
				h-2.458c-0.059-0.367-1.288-0.738-6.714-0.738h-0.986c-2.398,0-6.355,0.132-6.355,0.709v0.241c0,0.203-0.509,0.229-1.44,0.229
				h-0.326c-1.259,0-1.317-0.075-1.317-0.281c0-0.252,0.089-0.553,0.298-0.796h-4.526c-0.572,0.202-0.9,0.358-0.989,0.637h-2.575
				v0.409h2.575c0.12,0.423,1.62,0.766,5.935,0.766H205.691L205.691,195.724z"/>
		</g>
		<g>
			<g>
				<ellipse fill="#FEDC32" cx="209.051" cy="188.533" rx="19.319" ry="2.368"/>
				<path fill="#FF9900" d="M228.37,193.324c0,1.305-8.65,2.364-19.319,2.364s-19.32-1.06-19.32-2.364c0-1.563,0-3.124,0-4.683
					h0.021c0.459,1.257,8.921,2.259,19.299,2.259c10.374,0,18.837-1.002,19.298-2.259h0.021
					C228.37,190.2,228.37,191.763,228.37,193.324z"/>
			</g>
			<ellipse fill="#FFB300" cx="209.05" cy="188.347" rx="16.505" ry="1.749"/>
			<path fill="#FEDC32" d="M205.691,189.306c1.41,0,6.355-0.031,6.355-0.75v-0.229c0-0.167,0.447-0.2,1.317-0.2h0.479
				c0.902,0,1.229,0.06,1.229,0.221c0,0.354-0.209,0.719-0.326,0.867h4.522c0.779-0.295,0.989-0.346,1.021-0.676h2.458v-0.41h-2.458
				c-0.059-0.368-1.288-0.739-6.714-0.739h-0.986c-2.398,0-6.355,0.133-6.355,0.706v0.245c0,0.204-0.509,0.226-1.44,0.226h-0.326
				c-1.259,0-1.317-0.075-1.317-0.279c0-0.25,0.089-0.554,0.298-0.796h-4.526c-0.572,0.201-0.9,0.36-0.989,0.636h-2.575v0.411h2.575
				c0.12,0.421,1.62,0.767,5.935,0.767L205.691,189.306L205.691,189.306z"/>
		</g>
		<g>
			<g>
				<ellipse fill="#FEDC32" cx="209.051" cy="182.341" rx="19.319" ry="2.366"/>
				<path fill="#FF9900" d="M228.37,187.129c0,1.308-8.65,2.368-19.319,2.368s-19.32-1.061-19.32-2.368c0-1.56,0-3.119,0-4.684
					h0.021c0.459,1.258,8.921,2.262,19.299,2.262c10.374,0,18.837-1.004,19.298-2.262h0.021
					C228.37,184.008,228.37,185.569,228.37,187.129z"/>
			</g>
			<path fill="#FFB300" d="M192.546,182.153c0-0.963,7.386-1.745,16.505-1.745c9.116,0,16.506,0.782,16.506,1.745
				c0,0.967-7.388,1.746-16.506,1.746C199.934,183.897,192.546,183.12,192.546,182.153z"/>
			<path fill="#FEDC32" d="M205.691,183.109c1.41,0,6.355-0.031,6.355-0.749v-0.229c0-0.167,0.447-0.2,1.317-0.2h0.479
				c0.902,0,1.229,0.06,1.229,0.224c0,0.351-0.209,0.716-0.326,0.865h4.522c0.779-0.296,0.989-0.344,1.021-0.675h2.458v-0.409
				h-2.458c-0.059-0.372-1.288-0.742-6.714-0.742h-0.986c-2.398,0-6.355,0.132-6.355,0.708v0.243c0,0.204-0.509,0.227-1.44,0.227
				h-0.326c-1.259,0-1.317-0.075-1.317-0.28c0-0.25,0.089-0.553,0.298-0.795h-4.526c-0.572,0.199-0.9,0.356-0.989,0.638h-2.575v0.41
				h2.575c0.12,0.419,1.62,0.764,5.935,0.764L205.691,183.109L205.691,183.109z"/>
		</g>
		<g>
			<g>
				<path fill="#FEDC32" d="M209.051,173.551c10.669,0,19.319,1.062,19.319,2.368s-8.65,2.369-19.319,2.369
					s-19.32-1.063-19.32-2.369S198.382,173.551,209.051,173.551z"/>
				<path fill="#FF9900" d="M228.37,180.707c0,1.307-8.65,2.369-19.319,2.369s-19.32-1.063-19.32-2.369c0-1.558,0-3.118,0-4.68
					h0.021c0.459,1.257,8.921,2.26,19.299,2.26c10.374,0,18.837-1.003,19.298-2.26h0.021
					C228.37,177.587,228.37,179.149,228.37,180.707z"/>
			</g>
			<ellipse fill="#FFB300" cx="209.05" cy="175.732" rx="16.505" ry="1.745"/>
			<path fill="#FEDC32" d="M205.691,176.688c1.41,0,6.355-0.027,6.355-0.749v-0.228c0-0.167,0.447-0.201,1.317-0.201h0.479
				c0.902,0,1.229,0.062,1.229,0.223c0,0.356-0.209,0.719-0.326,0.868h4.522c0.779-0.297,0.989-0.345,1.021-0.677h2.458v-0.413
				h-2.458c-0.059-0.365-1.288-0.739-6.714-0.739h-0.986c-2.398,0-6.355,0.136-6.355,0.712v0.241c0,0.205-0.509,0.229-1.44,0.229
				h-0.326c-1.259,0-1.317-0.077-1.317-0.281c0-0.249,0.089-0.554,0.298-0.797h-4.526c-0.572,0.202-0.9,0.36-0.989,0.635h-2.575
				v0.414h2.575c0.12,0.421,1.62,0.762,5.935,0.762L205.691,176.688L205.691,176.688z"/>
		</g>
		<g>
			<g>
				<ellipse fill="#FEDC32" cx="209.051" cy="169.499" rx="19.319" ry="2.367"/>
				<path fill="#FF9900" d="M228.37,174.288c0,1.307-8.65,2.371-19.319,2.371s-19.32-1.064-19.32-2.371c0-1.56,0-3.121,0-4.683
					h0.021c0.459,1.258,8.921,2.259,19.299,2.259c10.374,0,18.837-1.001,19.298-2.259h0.021
					C228.37,171.168,228.37,172.729,228.37,174.288z"/>
			</g>
			<ellipse fill="#FFB300" cx="209.05" cy="169.313" rx="16.505" ry="1.748"/>
			<path fill="#FEDC32" d="M205.691,170.27c1.41,0,6.355-0.03,6.355-0.75v-0.229c0-0.166,0.447-0.201,1.317-0.201h0.479
				c0.902,0,1.229,0.062,1.229,0.226c0,0.352-0.209,0.715-0.326,0.868h4.522c0.779-0.298,0.989-0.347,1.021-0.681h2.458v-0.409
				h-2.458c-0.059-0.368-1.288-0.739-6.714-0.739h-0.986c-2.398,0-6.355,0.133-6.355,0.708v0.242c0,0.205-0.509,0.228-1.44,0.228
				h-0.326c-1.259,0-1.317-0.075-1.317-0.28c0-0.25,0.089-0.55,0.298-0.793h-4.526c-0.572,0.198-0.9,0.356-0.989,0.635h-2.575v0.409
				h2.575c0.12,0.421,1.62,0.764,5.935,0.764L205.691,170.27L205.691,170.27z"/>
		</g>
		<g>
			<g>
				<ellipse fill="#FEDC32" cx="209.051" cy="163.079" rx="19.319" ry="2.368"/>
				<path fill="#FF9900" d="M228.37,167.867c0,1.307-8.65,2.367-19.319,2.367s-19.32-1.061-19.32-2.367c0-1.56,0-3.119,0-4.68h0.021
					c0.459,1.258,8.921,2.26,19.299,2.26c10.374,0,18.837-1.002,19.298-2.26h0.021C228.37,164.746,228.37,166.308,228.37,167.867z"
					/>
			</g>
			<ellipse fill="#FFB300" cx="209.05" cy="162.894" rx="16.505" ry="1.745"/>
			<path fill="#FEDC32" d="M205.691,163.848c1.41,0,6.355-0.027,6.355-0.747v-0.229c0-0.166,0.447-0.2,1.317-0.2h0.479
				c0.902,0,1.229,0.059,1.229,0.221c0,0.355-0.209,0.72-0.326,0.871h4.522c0.779-0.298,0.989-0.346,1.021-0.681h2.458v-0.408
				h-2.458c-0.059-0.367-1.288-0.74-6.714-0.74h-0.986c-2.398,0-6.355,0.133-6.355,0.708v0.243c0,0.204-0.509,0.226-1.44,0.226
				h-0.326c-1.259,0-1.317-0.074-1.317-0.279c0-0.252,0.089-0.554,0.298-0.796h-4.526c-0.572,0.201-0.9,0.359-0.989,0.638h-2.575
				v0.408h2.575c0.12,0.42,1.62,0.765,5.935,0.765L205.691,163.848L205.691,163.848z"/>
		</g>
		<g>
			<g>
				<path fill="#FEDC32" d="M209.051,154.517c10.669,0,19.319,1.061,19.319,2.37c0,1.308-8.65,2.367-19.319,2.367
					s-19.32-1.062-19.32-2.367C189.73,155.577,198.382,154.517,209.051,154.517z"/>
				<path fill="#FF9900" d="M228.37,161.675c0,1.307-8.65,2.367-19.319,2.367s-19.32-1.063-19.32-2.367c0-1.562,0-3.123,0-4.682
					h0.021c0.459,1.258,8.921,2.261,19.299,2.261c10.374,0,18.837-1.003,19.298-2.261h0.021
					C228.37,158.552,228.37,160.113,228.37,161.675z"/>
			</g>
			<ellipse fill="#FFB300" cx="209.05" cy="156.697" rx="16.505" ry="1.746"/>
			<path fill="#FEDC32" d="M205.691,157.656c1.41,0,6.355-0.03,6.355-0.75v-0.229c0-0.167,0.447-0.197,1.317-0.197h0.479
				c0.902,0,1.229,0.058,1.229,0.221c0,0.354-0.209,0.715-0.326,0.867h4.522c0.779-0.296,0.989-0.342,1.021-0.678h2.458v-0.409
				h-2.458c-0.059-0.367-1.288-0.74-6.714-0.74h-0.986c-2.398,0-6.355,0.134-6.355,0.709v0.244c0,0.203-0.509,0.227-1.44,0.227
				h-0.326c-1.259,0-1.317-0.079-1.317-0.28c0-0.252,0.089-0.556,0.298-0.797h-4.526c-0.572,0.2-0.9,0.359-0.989,0.637h-2.575v0.409
				h2.575c0.12,0.421,1.62,0.766,5.935,0.766h1.825V157.656z"/>
		</g>
		<g>
			<g>
				<path fill="#FEDC32" d="M209.051,148.097c10.672,0,19.319,1.06,19.319,2.368c0,1.306-8.647,2.366-19.319,2.366
					c-10.668,0-19.318-1.062-19.318-2.366C189.732,149.156,198.383,148.097,209.051,148.097z"/>
				<path fill="#FF9900" d="M228.37,155.253c0,1.31-8.65,2.368-19.319,2.368s-19.32-1.059-19.32-2.368c0-1.559,0-3.119,0-4.682
					h0.021c0.459,1.259,8.921,2.262,19.299,2.262c10.374,0,18.837-1.003,19.298-2.262h0.021
					C228.37,152.133,228.37,153.692,228.37,155.253z"/>
			</g>
			<ellipse fill="#FFB300" cx="209.05" cy="150.277" rx="16.505" ry="1.746"/>
			<path fill="#FEDC32" d="M205.691,151.234c1.41,0,6.355-0.028,6.355-0.749v-0.23c0-0.164,0.447-0.199,1.317-0.199h0.479
				c0.902,0,1.229,0.062,1.229,0.224c0,0.352-0.209,0.713-0.326,0.869h4.522c0.779-0.297,0.989-0.346,1.021-0.682h2.458v-0.411
				h-2.458c-0.059-0.364-1.288-0.736-6.714-0.736h-0.986c-2.398,0-6.355,0.134-6.355,0.709v0.239c0,0.207-0.509,0.229-1.44,0.229
				h-0.326c-1.259,0-1.317-0.078-1.317-0.279c0-0.252,0.089-0.555,0.298-0.797h-4.526c-0.572,0.203-0.9,0.359-0.989,0.637h-2.575
				v0.411h2.575c0.12,0.42,1.62,0.764,5.935,0.764L205.691,151.234L205.691,151.234z"/>
		</g>
		<g>
			<g>
				<path fill="#FEDC32" d="M209.051,141.677c10.669,0,19.319,1.061,19.319,2.369c0,1.307-8.65,2.366-19.319,2.366
					s-19.32-1.06-19.32-2.366C189.73,142.737,198.382,141.677,209.051,141.677z"/>
				<path fill="#FF9900" d="M228.37,148.831c0,1.312-8.65,2.371-19.319,2.371s-19.32-1.06-19.32-2.371c0-1.56,0-3.118,0-4.679h0.021
					c0.459,1.258,8.921,2.26,19.299,2.26c10.374,0,18.837-1.002,19.298-2.26h0.021C228.37,145.713,228.37,147.275,228.37,148.831z"
					/>
			</g>
			<ellipse fill="#FFB300" cx="209.05" cy="143.858" rx="16.505" ry="1.746"/>
			<path fill="#FEDC32" d="M205.691,144.814c1.41,0,6.355-0.027,6.355-0.751v-0.225c0-0.168,0.447-0.202,1.317-0.202h0.479
				c0.902,0,1.229,0.061,1.229,0.227c0,0.351-0.209,0.714-0.326,0.866h4.522c0.779-0.295,0.989-0.347,1.021-0.681h2.458v-0.407
				h-2.458c-0.059-0.371-1.288-0.74-6.714-0.74h-0.986c-2.398,0-6.355,0.132-6.355,0.709v0.24c0,0.206-0.509,0.229-1.44,0.229
				h-0.326c-1.259,0-1.317-0.077-1.317-0.283c0-0.249,0.089-0.551,0.298-0.793h-4.526c-0.572,0.198-0.9,0.359-0.989,0.637h-2.575
				v0.407h2.575c0.12,0.422,1.62,0.768,5.935,0.768h1.827L205.691,144.814L205.691,144.814z"/>
		</g>
		<g>
			<g>
				<path fill="#FEDC32" d="M166.763,199.006c10.672,0,19.323,1.059,19.323,2.367c0,1.307-8.651,2.368-19.323,2.368
					c-10.67,0-19.32-1.062-19.32-2.368C147.442,200.064,156.093,199.006,166.763,199.006z"/>
				<path fill="#FF9900" d="M186.086,206.161c0,1.31-8.65,2.37-19.323,2.37c-10.668,0-19.32-1.061-19.32-2.37
					c0-1.558,0.002-3.116,0-4.68h0.022c0.456,1.257,8.921,2.262,19.297,2.262c10.377,0,18.84-1.005,19.3-2.262h0.021
					C186.086,203.041,186.086,204.604,186.086,206.161z"/>
			</g>
			<path fill="#FFB300" d="M150.258,201.189c0-0.964,7.39-1.748,16.506-1.748c9.117,0,16.507,0.784,16.507,1.748
				c0,0.963-7.39,1.745-16.507,1.745C157.647,202.933,150.258,202.152,150.258,201.189z"/>
			<path fill="#FEDC32" d="M163.409,202.145c1.408,0,6.351-0.027,6.351-0.752v-0.226c0-0.167,0.452-0.199,1.319-0.199h0.479
				c0.9,0,1.229,0.06,1.229,0.222c0,0.352-0.207,0.716-0.328,0.865h4.525c0.78-0.295,0.988-0.341,1.019-0.674h2.461v-0.413h-2.461
				c-0.061-0.367-1.288-0.737-6.713-0.737h-0.986c-2.398,0-6.354,0.131-6.354,0.708v0.239c0,0.208-0.511,0.229-1.438,0.229h-0.33
				c-1.261,0-1.32-0.075-1.32-0.28c0-0.25,0.093-0.554,0.301-0.796h-4.524c-0.571,0.202-0.902,0.361-0.991,0.637h-2.576v0.414h2.576
				c0.121,0.419,1.619,0.763,5.936,0.763L163.409,202.145L163.409,202.145z"/>
		</g>
		<g>
			<g>
				<path fill="#FEDC32" d="M166.763,192.585c10.671,0,19.323,1.062,19.323,2.369c0,1.309-8.652,2.367-19.323,2.367
					c-10.668,0-19.32-1.06-19.32-2.367C147.442,193.645,156.095,192.585,166.763,192.585z"/>
				<path fill="#FF9900" d="M186.086,199.742c0,1.308-8.65,2.369-19.323,2.369c-10.668,0-19.32-1.063-19.32-2.369
					c0-1.559,0.002-3.119,0-4.681h0.022c0.456,1.259,8.921,2.26,19.297,2.26c10.377,0,18.84-1.001,19.3-2.26h0.021
					C186.086,196.622,186.086,198.182,186.086,199.742z"/>
			</g>
			<path fill="#FFB300" d="M166.763,193.022c9.116,0,16.507,0.78,16.507,1.746c0,0.963-7.389,1.744-16.507,1.744
				c-9.115,0-16.507-0.781-16.507-1.744C150.258,193.802,157.647,193.022,166.763,193.022z"/>
			<path fill="#FEDC32" d="M163.409,195.724c1.408,0,6.351-0.028,6.351-0.75v-0.226c0-0.169,0.452-0.201,1.319-0.201h0.479
				c0.9,0,1.229,0.061,1.229,0.224c0,0.351-0.207,0.712-0.328,0.867h4.525c0.78-0.297,0.988-0.346,1.019-0.68h2.461v-0.409h-2.461
				c-0.061-0.367-1.288-0.738-6.713-0.738h-0.986c-2.398,0-6.354,0.132-6.354,0.709v0.241c0,0.203-0.511,0.229-1.438,0.229h-0.33
				c-1.261,0-1.32-0.075-1.32-0.281c0-0.252,0.093-0.553,0.301-0.796h-4.524c-0.571,0.202-0.902,0.358-0.991,0.637h-2.576v0.409
				h2.576c0.121,0.423,1.619,0.766,5.936,0.766H163.409L163.409,195.724z"/>
		</g>
		<g>
			<g>
				<path fill="#FEDC32" d="M166.763,186.165c10.672,0,19.323,1.062,19.323,2.367c0,1.31-8.651,2.368-19.323,2.368
					c-10.67,0-19.32-1.059-19.32-2.368C147.442,187.227,156.093,186.165,166.763,186.165z"/>
				<path fill="#FF9900" d="M186.086,193.324c0,1.305-8.65,2.364-19.323,2.364c-10.668,0-19.32-1.06-19.32-2.364
					c0-1.563,0.002-3.124,0-4.683h0.022c0.456,1.257,8.921,2.259,19.297,2.259c10.377,0,18.84-1.002,19.3-2.259h0.021
					C186.086,190.2,186.086,191.763,186.086,193.324z"/>
			</g>
			<path fill="#FFB300" d="M166.763,186.599c9.116,0,16.507,0.784,16.507,1.748c0,0.967-7.389,1.749-16.507,1.749
				c-9.115,0-16.507-0.782-16.507-1.749C150.258,187.383,157.647,186.599,166.763,186.599z"/>
			<path fill="#FEDC32" d="M163.409,189.306c1.408,0,6.351-0.031,6.351-0.75v-0.229c0-0.167,0.452-0.2,1.319-0.2h0.479
				c0.9,0,1.229,0.06,1.229,0.221c0,0.354-0.207,0.719-0.328,0.867h4.525c0.78-0.295,0.988-0.346,1.019-0.676h2.461v-0.41h-2.461
				c-0.061-0.368-1.288-0.739-6.713-0.739h-0.986c-2.398,0-6.354,0.133-6.354,0.706v0.245c0,0.204-0.511,0.226-1.438,0.226h-0.33
				c-1.261,0-1.32-0.075-1.32-0.279c0-0.25,0.093-0.554,0.301-0.796h-4.524c-0.571,0.201-0.902,0.36-0.991,0.636h-2.576v0.411h2.576
				c0.121,0.421,1.619,0.767,5.936,0.767L163.409,189.306L163.409,189.306z"/>
		</g>
		<g>
			<g>
				<path fill="#FEDC32" d="M166.763,179.975c10.672,0,19.323,1.059,19.323,2.365s-8.651,2.367-19.323,2.367
					c-10.67,0-19.32-1.061-19.32-2.367S156.093,179.975,166.763,179.975z"/>
				<path fill="#FF9900" d="M186.086,187.129c0,1.308-8.65,2.368-19.323,2.368c-10.668,0-19.32-1.061-19.32-2.368
					c0-1.56,0.002-3.119,0-4.684h0.022c0.456,1.258,8.921,2.262,19.297,2.262c10.377,0,18.84-1.004,19.3-2.262h0.021
					C186.086,184.008,186.086,185.569,186.086,187.129z"/>
			</g>
			<path fill="#FFB300" d="M150.258,182.153c0-0.963,7.39-1.745,16.506-1.745c9.117,0,16.507,0.782,16.507,1.745
				c0,0.967-7.39,1.746-16.507,1.746C157.647,183.899,150.258,183.12,150.258,182.153z"/>
			<path fill="#FEDC32" d="M163.409,183.109c1.408,0,6.351-0.031,6.351-0.749v-0.229c0-0.167,0.452-0.2,1.319-0.2h0.479
				c0.9,0,1.229,0.06,1.229,0.224c0,0.351-0.207,0.716-0.328,0.865h4.525c0.78-0.296,0.988-0.344,1.019-0.675h2.461v-0.409h-2.461
				c-0.061-0.372-1.288-0.742-6.713-0.742h-0.986c-2.398,0-6.354,0.132-6.354,0.708v0.243c0,0.204-0.511,0.227-1.438,0.227h-0.33
				c-1.261,0-1.32-0.075-1.32-0.28c0-0.25,0.093-0.553,0.301-0.795h-4.524c-0.571,0.199-0.902,0.356-0.991,0.638h-2.576v0.41h2.576
				c0.121,0.419,1.619,0.764,5.936,0.764L163.409,183.109L163.409,183.109z"/>
		</g>
		<g>
			<g>
				<path fill="#FEDC32" d="M166.763,173.551c10.671,0,19.323,1.062,19.323,2.368s-8.652,2.369-19.323,2.369
					c-10.668,0-19.32-1.063-19.32-2.369S156.095,173.551,166.763,173.551z"/>
				<path fill="#FF9900" d="M186.086,180.707c0,1.307-8.65,2.369-19.323,2.369c-10.668,0-19.32-1.063-19.32-2.369
					c0-1.558,0.002-3.118,0-4.68h0.022c0.456,1.257,8.921,2.26,19.297,2.26c10.377,0,18.84-1.003,19.3-2.26h0.021
					C186.086,177.587,186.086,179.149,186.086,180.707z"/>
			</g>
			<path fill="#FFB300" d="M166.763,173.988c9.116,0,16.507,0.78,16.507,1.745s-7.389,1.745-16.507,1.745
				c-9.115,0-16.507-0.78-16.507-1.745C150.258,174.767,157.647,173.988,166.763,173.988z"/>
			<path fill="#FEDC32" d="M163.409,176.688c1.408,0,6.351-0.027,6.351-0.749v-0.228c0-0.167,0.452-0.201,1.319-0.201h0.479
				c0.9,0,1.229,0.062,1.229,0.223c0,0.356-0.207,0.719-0.328,0.868h4.525c0.78-0.297,0.988-0.345,1.019-0.677h2.461v-0.413h-2.461
				c-0.061-0.365-1.288-0.739-6.713-0.739h-0.986c-2.398,0-6.354,0.136-6.354,0.712v0.241c0,0.205-0.511,0.229-1.438,0.229h-0.33
				c-1.261,0-1.32-0.077-1.32-0.281c0-0.249,0.093-0.554,0.301-0.797h-4.524c-0.571,0.202-0.902,0.36-0.991,0.635h-2.576v0.414
				h2.576c0.121,0.421,1.619,0.762,5.936,0.762L163.409,176.688L163.409,176.688z"/>
		</g>
		<g>
			<g>
				<path fill="#FEDC32" d="M166.763,167.132c10.672,0,19.323,1.061,19.323,2.366c0,1.309-8.651,2.366-19.323,2.366
					c-10.67,0-19.32-1.058-19.32-2.366C147.442,168.192,156.093,167.132,166.763,167.132z"/>
				<path fill="#FF9900" d="M186.086,174.288c0,1.307-8.65,2.371-19.323,2.371c-10.668,0-19.32-1.064-19.32-2.371
					c0-1.56,0.002-3.121,0-4.683h0.022c0.456,1.258,8.921,2.259,19.297,2.259c10.377,0,18.84-1.001,19.3-2.259h0.021
					C186.086,171.168,186.086,172.729,186.086,174.288z"/>
			</g>
			<path fill="#FFB300" d="M166.763,167.565c9.116,0,16.507,0.781,16.507,1.747s-7.389,1.749-16.507,1.749
				c-9.115,0-16.507-0.783-16.507-1.749S157.647,167.565,166.763,167.565z"/>
			<path fill="#FEDC32" d="M163.409,170.27c1.408,0,6.351-0.03,6.351-0.75v-0.229c0-0.166,0.452-0.201,1.319-0.201h0.479
				c0.9,0,1.229,0.062,1.229,0.226c0,0.352-0.207,0.715-0.328,0.868h4.525c0.78-0.298,0.988-0.347,1.019-0.681h2.461v-0.409h-2.461
				c-0.061-0.368-1.288-0.739-6.713-0.739h-0.986c-2.398,0-6.354,0.133-6.354,0.708v0.242c0,0.205-0.511,0.228-1.438,0.228h-0.33
				c-1.261,0-1.32-0.075-1.32-0.28c0-0.25,0.093-0.55,0.301-0.793h-4.524c-0.571,0.198-0.902,0.356-0.991,0.635h-2.576v0.409h2.576
				c0.121,0.421,1.619,0.764,5.936,0.764L163.409,170.27L163.409,170.27z"/>
		</g>
		<g>
			<g>
				<path fill="#FEDC32" d="M166.763,160.713c10.672,0,19.323,1.06,19.323,2.365c0,1.308-8.651,2.368-19.323,2.368
					c-10.67,0-19.32-1.061-19.32-2.368S156.093,160.713,166.763,160.713z"/>
				<path fill="#FF9900" d="M186.086,167.867c0,1.307-8.65,2.367-19.323,2.367c-10.668,0-19.32-1.061-19.32-2.367
					c0-1.56,0.002-3.119,0-4.68h0.022c0.456,1.258,8.921,2.26,19.297,2.26c10.377,0,18.84-1.002,19.3-2.26h0.021
					C186.086,164.746,186.086,166.308,186.086,167.867z"/>
			</g>
			<path fill="#FFB300" d="M166.763,161.148c9.116,0,16.507,0.782,16.507,1.744c0,0.964-7.389,1.747-16.507,1.747
				c-9.115,0-16.507-0.783-16.507-1.747C150.258,161.931,157.647,161.148,166.763,161.148z"/>
			<path fill="#FEDC32" d="M163.409,163.848c1.408,0,6.351-0.027,6.351-0.747v-0.229c0-0.166,0.452-0.2,1.319-0.2h0.479
				c0.9,0,1.229,0.059,1.229,0.221c0,0.355-0.207,0.72-0.328,0.871h4.525c0.78-0.298,0.988-0.346,1.019-0.681h2.461v-0.408h-2.461
				c-0.061-0.367-1.288-0.74-6.713-0.74h-0.986c-2.398,0-6.354,0.133-6.354,0.708v0.243c0,0.204-0.511,0.226-1.438,0.226h-0.33
				c-1.261,0-1.32-0.074-1.32-0.279c0-0.252,0.093-0.554,0.301-0.796h-4.524c-0.571,0.201-0.902,0.359-0.991,0.638h-2.576v0.408
				h2.576c0.121,0.42,1.619,0.765,5.936,0.765L163.409,163.848L163.409,163.848z"/>
		</g>
		<g>
			<g>
				<path fill="#FEDC32" d="M166.763,154.517c10.671,0,19.323,1.061,19.323,2.37c0,1.308-8.652,2.367-19.323,2.367
					c-10.668,0-19.32-1.062-19.32-2.367C147.442,155.577,156.095,154.517,166.763,154.517z"/>
				<path fill="#FF9900" d="M186.086,161.675c0,1.307-8.65,2.367-19.323,2.367c-10.668,0-19.32-1.061-19.32-2.367
					c0-1.562,0.002-3.123,0-4.682h0.022c0.456,1.258,8.921,2.261,19.297,2.261c10.377,0,18.84-1.003,19.3-2.261h0.021
					C186.086,158.552,186.086,160.113,186.086,161.675z"/>
			</g>
			<path fill="#FFB300" d="M166.763,154.951c9.116,0,16.507,0.784,16.507,1.747c0,0.964-7.389,1.746-16.507,1.746
				c-9.115,0-16.507-0.782-16.507-1.746C150.258,155.735,157.647,154.951,166.763,154.951z"/>
			<path fill="#FEDC32" d="M163.409,157.656c1.408,0,6.351-0.03,6.351-0.75v-0.229c0-0.167,0.452-0.197,1.319-0.197h0.479
				c0.9,0,1.229,0.058,1.229,0.221c0,0.354-0.207,0.715-0.328,0.867h4.525c0.78-0.296,0.988-0.342,1.019-0.678h2.461v-0.409h-2.461
				c-0.061-0.367-1.288-0.74-6.713-0.74h-0.986c-2.398,0-6.354,0.134-6.354,0.709v0.244c0,0.203-0.511,0.227-1.438,0.227h-0.33
				c-1.261,0-1.32-0.079-1.32-0.28c0-0.252,0.093-0.556,0.301-0.797h-4.524c-0.571,0.2-0.902,0.359-0.991,0.637h-2.576v0.409h2.576
				c0.121,0.421,1.619,0.766,5.936,0.766h1.829V157.656z"/>
		</g>
		<g>
			<g>
				<ellipse fill="#FEDC32" cx="122.769" cy="201.374" rx="19.321" ry="2.368"/>
				<path fill="#FF9900" d="M142.092,206.161c0,1.31-8.652,2.37-19.322,2.37c-10.671,0-19.32-1.061-19.32-2.37
					c0-1.558,0.003-3.116,0-4.68h0.022c0.457,1.257,8.922,2.262,19.296,2.262c10.376,0,18.841-1.005,19.297-2.262h0.023
					C142.092,203.041,142.092,204.604,142.092,206.161z"/>
			</g>
			<path fill="#FFB300" d="M106.264,201.189c0-0.964,7.391-1.748,16.506-1.748c9.115,0,16.505,0.784,16.505,1.748
				c0,0.963-7.39,1.745-16.505,1.745C113.654,202.933,106.264,202.152,106.264,201.189z"/>
			<path fill="#FEDC32" d="M119.414,202.145c1.407,0,6.353-0.027,6.353-0.752v-0.226c0-0.167,0.45-0.199,1.319-0.199h0.479
				c0.899,0,1.229,0.06,1.229,0.222c0,0.352-0.21,0.716-0.329,0.865h4.526c0.78-0.295,0.99-0.341,1.02-0.674h2.457v-0.413h-2.457
				c-0.061-0.367-1.29-0.737-6.714-0.737h-0.989c-2.396,0-6.354,0.131-6.354,0.708v0.239c0,0.208-0.511,0.229-1.439,0.229h-0.328
				c-1.259,0-1.32-0.075-1.32-0.28c0-0.25,0.093-0.554,0.301-0.796h-4.526c-0.57,0.202-0.898,0.361-0.99,0.637h-2.576v0.414h2.576
				c0.122,0.419,1.619,0.763,5.935,0.763L119.414,202.145L119.414,202.145z"/>
		</g>
		<g>
			<g>
				<path fill="#FEDC32" d="M122.769,192.585c10.669,0,19.321,1.062,19.321,2.369c0,1.309-8.65,2.367-19.321,2.367
					c-10.669,0-19.32-1.06-19.32-2.367C103.45,193.645,112.101,192.585,122.769,192.585z"/>
				<path fill="#FF9900" d="M142.092,199.742c0,1.308-8.652,2.369-19.322,2.369c-10.671,0-19.32-1.063-19.32-2.369
					c0-1.559,0.003-3.119,0-4.681h0.022c0.457,1.259,8.922,2.26,19.296,2.26c10.376,0,18.841-1.001,19.297-2.26h0.023
					C142.092,196.622,142.092,198.182,142.092,199.742z"/>
			</g>
			<ellipse fill="#FFB300" cx="122.77" cy="194.767" rx="16.505" ry="1.745"/>
			<path fill="#FEDC32" d="M119.414,195.724c1.407,0,6.353-0.028,6.353-0.75v-0.226c0-0.169,0.45-0.201,1.319-0.201h0.479
				c0.899,0,1.229,0.061,1.229,0.224c0,0.351-0.21,0.712-0.329,0.867h4.526c0.78-0.297,0.99-0.346,1.02-0.68h2.457v-0.409h-2.457
				c-0.061-0.367-1.29-0.738-6.714-0.738h-0.989c-2.396,0-6.354,0.132-6.354,0.709v0.241c0,0.203-0.511,0.229-1.439,0.229h-0.328
				c-1.259,0-1.32-0.075-1.32-0.281c0-0.252,0.093-0.553,0.301-0.796h-4.526c-0.57,0.202-0.898,0.358-0.99,0.637h-2.576v0.409h2.576
				c0.122,0.423,1.619,0.766,5.935,0.766H119.414L119.414,195.724z"/>
		</g>
		<g>
			<g>
				<ellipse fill="#FEDC32" cx="122.769" cy="188.533" rx="19.321" ry="2.368"/>
				<path fill="#FF9900" d="M142.092,193.324c0,1.305-8.652,2.364-19.322,2.364c-10.671,0-19.32-1.06-19.32-2.364
					c0-1.563,0.003-3.124,0-4.683h0.022c0.457,1.257,8.922,2.259,19.296,2.259c10.376,0,18.841-1.002,19.297-2.259h0.023
					C142.092,190.2,142.092,191.763,142.092,193.324z"/>
			</g>
			<ellipse fill="#FFB300" cx="122.77" cy="188.347" rx="16.505" ry="1.749"/>
			<path fill="#FEDC32" d="M119.414,189.306c1.407,0,6.353-0.031,6.353-0.75v-0.229c0-0.167,0.45-0.2,1.319-0.2h0.479
				c0.899,0,1.229,0.06,1.229,0.221c0,0.354-0.21,0.719-0.329,0.867h4.526c0.78-0.295,0.99-0.346,1.02-0.676h2.457v-0.41h-2.457
				c-0.061-0.368-1.29-0.739-6.714-0.739h-0.989c-2.396,0-6.354,0.133-6.354,0.706v0.245c0,0.204-0.511,0.226-1.439,0.226h-0.328
				c-1.259,0-1.32-0.075-1.32-0.279c0-0.25,0.093-0.554,0.301-0.796h-4.526c-0.57,0.201-0.898,0.36-0.99,0.636h-2.576v0.411h2.576
				c0.122,0.421,1.619,0.767,5.935,0.767L119.414,189.306L119.414,189.306z"/>
		</g>
		<g>
			<g>
				<ellipse fill="#FEDC32" cx="122.769" cy="182.341" rx="19.321" ry="2.366"/>
				<path fill="#FF9900" d="M142.092,187.129c0,1.308-8.652,2.368-19.322,2.368c-10.671,0-19.32-1.061-19.32-2.368
					c0-1.56,0.003-3.119,0-4.684h0.022c0.457,1.258,8.922,2.262,19.296,2.262c10.376,0,18.841-1.004,19.297-2.262h0.023
					C142.092,184.008,142.092,185.569,142.092,187.129z"/>
			</g>
			<path fill="#FFB300" d="M106.264,182.153c0-0.963,7.391-1.745,16.506-1.745c9.115,0,16.505,0.782,16.505,1.745
				c0,0.967-7.39,1.746-16.505,1.746C113.654,183.897,106.264,183.12,106.264,182.153z"/>
			<path fill="#FEDC32" d="M119.414,183.109c1.407,0,6.353-0.031,6.353-0.749v-0.229c0-0.167,0.45-0.2,1.319-0.2h0.479
				c0.899,0,1.229,0.06,1.229,0.224c0,0.351-0.21,0.716-0.329,0.865h4.526c0.78-0.296,0.99-0.344,1.02-0.675h2.457v-0.409h-2.457
				c-0.061-0.372-1.29-0.742-6.714-0.742h-0.989c-2.396,0-6.354,0.132-6.354,0.708v0.243c0,0.204-0.511,0.227-1.439,0.227h-0.328
				c-1.259,0-1.32-0.075-1.32-0.28c0-0.25,0.093-0.553,0.301-0.795h-4.526c-0.57,0.199-0.898,0.356-0.99,0.638h-2.576v0.41h2.576
				c0.122,0.419,1.619,0.764,5.935,0.764L119.414,183.109L119.414,183.109z"/>
		</g>
		<g>
			<g>
				<path fill="#FEDC32" d="M122.769,173.551c10.669,0,19.321,1.062,19.321,2.368s-8.65,2.369-19.321,2.369
					c-10.669,0-19.32-1.063-19.32-2.369S112.101,173.551,122.769,173.551z"/>
				<path fill="#FF9900" d="M142.092,180.707c0,1.307-8.652,2.369-19.322,2.369c-10.671,0-19.32-1.063-19.32-2.369
					c0-1.558,0.003-3.118,0-4.68h0.022c0.457,1.257,8.922,2.26,19.296,2.26c10.376,0,18.841-1.003,19.297-2.26h0.023
					C142.092,177.587,142.092,179.149,142.092,180.707z"/>
			</g>
			<ellipse fill="#FFB300" cx="122.77" cy="175.732" rx="16.505" ry="1.745"/>
			<path fill="#FEDC32" d="M119.414,176.688c1.407,0,6.353-0.027,6.353-0.749v-0.228c0-0.167,0.45-0.201,1.319-0.201h0.479
				c0.899,0,1.229,0.062,1.229,0.223c0,0.356-0.21,0.719-0.329,0.868h4.526c0.78-0.297,0.99-0.345,1.02-0.677h2.457v-0.413h-2.457
				c-0.061-0.365-1.29-0.739-6.714-0.739h-0.989c-2.396,0-6.354,0.136-6.354,0.712v0.241c0,0.205-0.511,0.229-1.439,0.229h-0.328
				c-1.259,0-1.32-0.077-1.32-0.281c0-0.249,0.093-0.554,0.301-0.797h-4.526c-0.57,0.202-0.898,0.36-0.99,0.635h-2.576v0.414h2.576
				c0.122,0.421,1.619,0.762,5.935,0.762L119.414,176.688L119.414,176.688z"/>
		</g>
		<g>
			<g>
				<ellipse fill="#FEDC32" cx="122.769" cy="169.499" rx="19.321" ry="2.367"/>
				<path fill="#FF9900" d="M142.092,174.288c0,1.307-8.652,2.371-19.322,2.371c-10.671,0-19.32-1.064-19.32-2.371
					c0-1.56,0.003-3.121,0-4.683h0.022c0.457,1.258,8.922,2.259,19.296,2.259c10.376,0,18.841-1.001,19.297-2.259h0.023
					C142.092,171.168,142.092,172.729,142.092,174.288z"/>
			</g>
			<ellipse fill="#FFB300" cx="122.77" cy="169.313" rx="16.505" ry="1.748"/>
			<path fill="#FEDC32" d="M119.414,170.27c1.407,0,6.353-0.03,6.353-0.75v-0.229c0-0.166,0.45-0.201,1.319-0.201h0.479
				c0.899,0,1.229,0.062,1.229,0.226c0,0.352-0.21,0.715-0.329,0.868h4.526c0.78-0.298,0.99-0.347,1.02-0.681h2.457v-0.409h-2.457
				c-0.061-0.368-1.29-0.739-6.714-0.739h-0.989c-2.396,0-6.354,0.133-6.354,0.708v0.242c0,0.205-0.511,0.228-1.439,0.228h-0.328
				c-1.259,0-1.32-0.075-1.32-0.28c0-0.25,0.093-0.55,0.301-0.793h-4.526c-0.57,0.198-0.898,0.356-0.99,0.635h-2.576v0.409h2.576
				c0.122,0.421,1.619,0.764,5.935,0.764L119.414,170.27L119.414,170.27z"/>
		</g>
		<g>
			<g>
				<ellipse fill="#FEDC32" cx="79.203" cy="201.438" rx="19.318" ry="2.37"/>
				<path fill="#FF9900" d="M98.521,206.231c0,1.305-8.648,2.366-19.318,2.366c-10.67,0-19.318-1.063-19.318-2.366
					c0-1.564,0-3.124,0-4.682h0.02c0.458,1.255,8.923,2.259,19.299,2.259c10.375,0,18.839-1.004,19.298-2.259h0.019
					C98.521,203.106,98.521,204.671,98.521,206.231z"/>
			</g>
			<ellipse fill="#FFB300" cx="79.202" cy="201.254" rx="16.506" ry="1.747"/>
			<path fill="#FEDC32" d="M75.845,202.211c1.409,0,6.355-0.029,6.355-0.751v-0.228c0-0.166,0.449-0.199,1.319-0.199h0.479
				c0.898,0,1.228,0.06,1.228,0.222c0,0.354-0.21,0.716-0.329,0.868h4.525c0.778-0.295,0.989-0.344,1.02-0.679h2.457v-0.409h-2.457
				c-0.06-0.369-1.289-0.74-6.712-0.74h-0.989c-2.398,0-6.353,0.135-6.353,0.708v0.243c0,0.203-0.511,0.228-1.439,0.228h-0.332
				c-1.257,0-1.318-0.076-1.318-0.28c0-0.251,0.088-0.554,0.298-0.796h-4.526c-0.568,0.2-0.898,0.357-0.989,0.636h-2.578v0.411
				h2.578c0.12,0.419,1.62,0.763,5.934,0.763L75.845,202.211L75.845,202.211z"/>
		</g>
		<g>
			<g>
				<ellipse fill="#FEDC32" cx="79.203" cy="195.246" rx="19.318" ry="2.368"/>
				<path fill="#FF9900" d="M98.521,200.033c0,1.307-8.648,2.37-19.318,2.37c-10.67,0-19.318-1.063-19.318-2.37
					c0-1.558,0-3.117,0-4.682h0.02c0.458,1.258,8.923,2.263,19.299,2.263c10.375,0,18.839-1.005,19.298-2.263h0.019
					C98.521,196.916,98.521,198.476,98.521,200.033z"/>
			</g>
			<ellipse fill="#FFB300" cx="79.202" cy="195.059" rx="16.506" ry="1.744"/>
			<path fill="#FEDC32" d="M75.845,196.016c1.409,0,6.355-0.029,6.355-0.748v-0.228c0-0.17,0.449-0.202,1.319-0.202h0.479
				c0.898,0,1.228,0.059,1.228,0.223c0,0.353-0.21,0.717-0.329,0.868h4.525c0.778-0.295,0.989-0.345,1.02-0.68h2.457v-0.407h-2.457
				c-0.06-0.37-1.289-0.742-6.712-0.742h-0.989c-2.398,0-6.353,0.134-6.353,0.712v0.239c0,0.206-0.511,0.227-1.439,0.227h-0.332
				c-1.257,0-1.318-0.071-1.318-0.278c0-0.251,0.088-0.554,0.298-0.797h-4.526c-0.568,0.203-0.898,0.362-0.989,0.64h-2.578v0.407
				h2.578c0.12,0.422,1.62,0.766,5.934,0.766L75.845,196.016L75.845,196.016z"/>
		</g>
	</g>
</g>
<path fill="#FFB288" d="M80.812,79.782c0.112,2.065-1.567,3.849-3.738,3.971l-0.744,0.041c-2.167,0.119-4.038-1.472-4.149-3.534
	l-0.287-5.744c-0.115-2.063,1.566-3.852,3.735-3.969l0.744-0.043c2.168-0.121,4.035,1.473,4.15,3.537L80.812,79.782z"/>
<path display="none" fill="#8E2B30" d="M74.503,174.584c0.369,1.132,1.572,1.921,2.951,1.846c1.378-0.074,2.486-0.992,2.728-2.156
	L74.503,174.584z"/>
<path display="none" fill="#FFFFFF" d="M74.549,174.713c0.756,0.168,1.749,0.313,2.824,0.252c1.075-0.061,2.044-0.313,2.778-0.563
	c0.011-0.045,0.022-0.088,0.031-0.133l-5.679,0.313C74.516,174.627,74.534,174.67,74.549,174.713z"/>
<path display="none" fill="#D85365" d="M79.307,175.707c-0.528-0.375-1.334-0.404-1.915-0.373s-1.378,0.15-1.86,0.581
	c0.53,0.356,1.2,0.556,1.922,0.517C78.174,176.391,78.82,176.12,79.307,175.707z"/>
<g display="none">
	<path display="inline" fill="#8E3925" d="M84.083,165.629c0.067,4.521-2.936,8.396-6.673,8.614
		c-3.738,0.216-7.174-3.402-7.636-8.04c-0.462-4.639,2.541-8.514,6.673-8.613C80.58,157.49,84.016,161.107,84.083,165.629z"/>
	<g display="inline">
		<g>
			<path fill="#FFB288" d="M84.971,170.557c-0.17,1.322-0.811,1.521-1.517,1.676c-0.79,0.177-1.16-1.123-0.989-2.444
				c0.172-1.319,0.516-2.671,1.604-2.339C85.076,167.757,85.141,169.236,84.971,170.557z"/>
		</g>
		
			<image overflow="visible" enable-background="new    " width="13" height="21" xlink:href="EBA56EB9.png"  transform="matrix(0.1108 0 0 0.16 83.0737 168.3379)">
		</image>
	</g>
	<g display="inline">
		<g>
			<path fill="#FFB288" d="M69.35,171.42c0.315,1.294,0.975,1.422,1.693,1.499c0.803,0.085,1.027-1.245,0.712-2.542
				c-0.314-1.294-0.805-2.6-1.85-2.146C68.938,168.648,69.037,170.124,69.35,171.42z"/>
		</g>
		
			<image overflow="visible" enable-background="new    " width="13" height="17" xlink:href="EBA56EBF.png"  transform="matrix(0.1108 0 0 0.1976 69.8125 169.0703)">
		</image>
	</g>
	<path display="inline" fill="#ED8366" d="M73.953,179.898c0.059,1.058,2.427,1.707,3.782,1.635c1.356-0.075,3.646-0.836,3.579-2.04
		l-0.289-5.239l-7.36,0.407L73.953,179.898z"/>
	<path display="inline" fill="#FFB288" d="M83.367,169.652c0.217,5.406-2.36,9.98-5.727,10.168
		c-3.367,0.188-6.432-4.077-6.812-9.477c-0.38-5.396,2.197-9.976,5.727-10.17C80.085,159.982,83.151,164.245,83.367,169.652z"/>
	<path display="inline" fill="#FFB288" d="M74.498,174.502c-0.983,0.055-0.08,3.9,3.054,3.729c3.135-0.172,3.627-4.096,2.625-4.041
		L74.498,174.502z"/>
	<path display="inline" fill="#8E3925" d="M74.973,158.887l0.354-0.08c0.4-0.086,0.854-0.076,1.324,0.006
		c0.459-0.133,0.908-0.193,1.314-0.149l0.36,0.038c0.401,0.042,0.702,0.07,0.928,0.1c-0.001-0.035-0.001-0.07-0.004-0.107
		c0,0,0.088,0.051,0.237,0.142c0.307,0.05,0.387,0.104,0.375,0.229c0.899,0.562,2.53,1.646,3.052,2.412
		c0.594,0.879,1.221,4.734,0.998,5.021c-0.05,0.063,0.189,0.896-0.216,0.919c-0.769,0.043-0.7,2.087-0.7,2.087
		c-0.033-0.603-0.232-3.362-0.302-4.655c-0.114-2.058-1.418-3.242-2.348-3.19c-1.561,0.084-1.954,1.714-3.557,1.801h-0.004
		c-1.604,0.09-2.172-1.483-3.735-1.399c-0.928,0.055-2.095,1.375-1.98,3.433c0.071,1.292,0.119,4.071,0.153,4.674
		c0,0-0.072-1.942-0.866-2.011c-0.404-0.034-0.259-0.832-0.315-0.891c-0.253-0.258-0.057-4.16,0.439-5.101
		c0.433-0.819,1.935-2.076,2.766-2.733c-0.024-0.121,0.048-0.186,0.348-0.271c0.137-0.104,0.219-0.166,0.219-0.166
		c0.001,0.036,0.006,0.069,0.009,0.106c0.221-0.053,0.517-0.115,0.911-0.203l0.354-0.078c0.398-0.086,0.853-0.074,1.323,0.008
		c0.458-0.135,0.908-0.195,1.316-0.151l0.357,0.037"/>
	<g display="inline">
		<circle fill="#FFFFFF" stroke="#FFFFFF" stroke-width="0.4355" stroke-miterlimit="10" cx="80.12" cy="168.927" r="0.896"/>
		
			<line fill="none" stroke="#8E3925" stroke-width="0.3" stroke-linecap="round" stroke-miterlimit="10" x1="78.954" y1="167.098" x2="81.711" y2="167.021"/>
		
			<line fill="none" stroke="#8E3925" stroke-width="0.3" stroke-linecap="round" stroke-miterlimit="10" x1="74.935" y1="167.318" x2="72.185" y2="167.546"/>
		<g>
			<g>
				<path fill="#422B27" d="M80.104,169.488c-0.297,0-0.542-0.232-0.558-0.53c-0.009-0.151,0.041-0.293,0.141-0.405
					c0.099-0.111,0.237-0.177,0.388-0.187h0.031c0.297,0,0.542,0.233,0.558,0.528c0.019,0.311-0.22,0.576-0.528,0.592
					L80.104,169.488z"/>
				<path fill="#422B27" d="M80.106,168.417c0.269,0,0.493,0.211,0.508,0.481c0.016,0.281-0.2,0.521-0.479,0.537
					c-0.01,0-0.02,0.002-0.03,0.002c-0.269,0-0.493-0.211-0.508-0.482c-0.016-0.282,0.2-0.521,0.481-0.539
					C80.086,168.417,80.097,168.417,80.106,168.417 M80.106,168.316c-0.011,0-0.023,0-0.035,0c-0.336,0.021-0.595,0.308-0.577,0.644
					c0.017,0.324,0.286,0.578,0.61,0.578c0.012,0,0.023-0.001,0.033-0.001c0.337-0.02,0.596-0.307,0.578-0.645
					C80.699,168.57,80.429,168.316,80.106,168.316L80.106,168.316z"/>
			</g>
		</g>
		<g>
			<g>
				<circle fill="#FFFFFF" cx="80.639" cy="168.717" r="0.227"/>
			</g>
		</g>
		<circle fill="#FFFFFF" stroke="#FFFFFF" stroke-width="0.4355" stroke-miterlimit="10" cx="73.809" cy="169.274" r="0.894"/>
		<g>
			<g>
				<path fill="#422B27" d="M73.824,169.833c-0.298,0-0.542-0.229-0.56-0.528c-0.007-0.15,0.042-0.293,0.142-0.404
					c0.101-0.112,0.237-0.178,0.387-0.188h0.032c0.295,0,0.542,0.232,0.558,0.529c0.008,0.15-0.042,0.293-0.142,0.404
					c-0.099,0.112-0.236,0.178-0.387,0.187H73.824L73.824,169.833z"/>
				<path fill="#422B27" d="M73.826,168.764c0.269,0,0.494,0.211,0.508,0.481c0.016,0.28-0.2,0.521-0.481,0.536
					c-0.01,0.002-0.019,0.002-0.028,0.002c-0.27,0-0.495-0.211-0.509-0.482c-0.016-0.281,0.2-0.521,0.481-0.537
					C73.807,168.764,73.815,168.764,73.826,168.764 M73.826,168.663L73.826,168.663c-0.013,0-0.023,0-0.036,0.001
					c-0.335,0.02-0.594,0.307-0.576,0.643c0.017,0.324,0.285,0.578,0.61,0.578c0.011,0,0.023,0,0.034,0
					c0.336-0.02,0.595-0.308,0.577-0.645C74.418,168.917,74.149,168.663,73.826,168.663L73.826,168.663z"/>
			</g>
		</g>
		<g>
			<g>
				<circle fill="#FFFFFF" cx="74.375" cy="169.063" r="0.225"/>
			</g>
		</g>
	</g>
	
		<line display="inline" fill="none" stroke="#8E3925" stroke-width="0.3" stroke-linecap="round" stroke-miterlimit="10" x1="83.074" y1="166.99" x2="83.198" y2="169.459"/>
	
		<line display="inline" fill="none" stroke="#8E3925" stroke-width="0.3" stroke-linecap="round" stroke-miterlimit="10" x1="70.846" y1="167.665" x2="70.993" y2="170.135"/>
</g>
<path display="none" fill="#FF7854" d="M78.67,172.27c-0.007-0.151-0.147-0.17-0.546-0.014c-0.184,0.074-0.51,0.165-0.89,0.188
	c-0.382,0.021-0.717-0.032-0.906-0.086c-0.415-0.11-0.551-0.082-0.542,0.07c0.01,0.207,0.747,0.791,1.483,0.756l0,0
	c0.001,0,0.002,0,0.005,0c0-0.002,0.002-0.002,0.004-0.002l0,0C78.014,173.135,78.684,172.477,78.67,172.27z"/>
<g>
	<g>
		<path d="M77.006,200.771C76.979,200.579,77.025,200.967,77.006,200.771c0.02,0.417,0.097,0.236,0.155,0.629
			c1.59,2.546,6.719,2.324,7.972-0.142c-0.022-0.195-0.03-0.195-0.057-0.389C83.774,203.284,78.582,203.294,77.006,200.771z"/>
		<path fill="#333333" d="M77.646,194.281c-0.61,2.594-0.946,4.413-0.639,6.489c1.591,2.543,6.854,2.505,8.105,0.038
			c-0.254-2.329-0.915-4.63-2.007-6.891L77.646,194.281z"/>
		<g>
			<path fill="#333333" d="M121.833,157.169c0.12,2.298,1.937,3.475,6.216,4.563c0.573,0.154,0.917,0.563,1.029,1.226l0.07,1.031
				c-0.221,0.441-0.579,0.592-0.869,0.634c-6.748,0.985-7.38-0.027-8.194-0.272c-0.5-0.151-1.313-0.647-1.4-1.02l-0.866,0.719
				l-3.379-0.56c-0.521-2.424-0.692-3.274-0.262-4.795L121.833,157.169z"/>
			<path d="M128.229,163.876c-6.749,0.988-7.38-0.025-8.197-0.268c-0.498-0.149-1.311-0.65-1.397-1.02l-0.865,0.719l-3.38-0.56
				c-0.224-1.039-0.381-1.788-0.456-2.427c0.008,0.799,0.194,1.688,0.504,3.132l3.377,0.556l0.867-0.718
				c0.085,0.371,0.897,0.868,1.397,1.019c0.817,0.246,1.448,1.259,8.197,0.272c0.291-0.042,0.647-0.192,0.868-0.635l-0.047-0.699
				C128.877,163.688,128.52,163.839,128.229,163.876z"/>
		</g>
	</g>
	<path fill="#FFFFFF" d="M92.566,125.429c-2.434-20.893-2.143-31.597-4.208-38.58l-17.972-3.839l-6.816,7.445
		c5.141,3.509,6.353,29.486,5.67,35.415C78.292,126.771,85.51,129.896,92.566,125.429z"/>
	<path fill="#564953" d="M92.865,120.275l21.775,3.256c2.67,0.459,4.425,1.951,4.482,5.222l2.844,29.262
		c-2.888,1.023-5.113,1.32-7.788,0.676l-2.295-25.767l-25.292,0.042c-1.125,0.175-4.91,4.771-4.91,5.863l1.377,23.333l1.843,33.173
		c-3.092,1.566-6.434,1.777-9.741,0.653l-6.31-68.617l17.876-2.725L92.865,120.275z"/>
	<g>
		<path fill="#3F363D" d="M78.992,196.728c-1.224-0.049-2.46-0.277-3.692-0.697l-2.633-23.866l-2.494-22.575l-2.817-25.496
			l5.67-0.112L78.992,196.728z"/>
		<path fill="#3F363D" d="M113.497,131.22l-20.358-3.304l-6.819,4.91h-0.41l24.418,1.091l3.852,24.773
			c1.151,0.136,0.743,0.258,1.898,0.307L113.497,131.22z"/>
		<path fill="#333333" d="M70.172,149.593l2.494,22.573l0.025,0.002l0.562-8.433l0.996-13.783L70.172,149.593z"/>
	</g>
	<path fill="#FFFFFF" d="M81.326,88.462c0.898-2.043,1.346-4.138,1.35-6.282l-2.044-2.07c0.307,2.086-1.646,4.14-3.093,4.43
		L81.326,88.462z"/>
	<path fill="#FFFFFF" d="M74.363,89.215c-1.931-1.907-3.167-4.433-3.951-7.362l1.681-1.69c-0.025,1.984,3.85,4.146,5.44,4.396
		L74.363,89.215z"/>
	<path fill="#FF3829" d="M77.526,84.456l-1.955,3.123l1.953,2.271l1.192,30.853l3.828,3.123l2.909-4.275
		c0,0-4.818-25.28-5.818-29.966l0.35-2.565L77.526,84.456z"/>
	<path fill="#3F363D" d="M64.027,92.402c1.286,14.455-0.362,31.893,0.011,42.441l14.087,1.006c0.989-0.17,2.025-0.797,2.139-1.833
		l-0.558-30.57l-3.74-7.98l-4.559-7.657L64.027,92.402z"/>
	<g>
		<path fill="#302A2F" d="M66.88,135.038c-0.395-10.4,0.975-30.069-0.337-44.267l-2.638,1.641
			c1.287,14.456-0.242,31.882,0.131,42.432L66.88,135.038z"/>
	</g>
	<g>
		<path fill="#FFB288" d="M110.54,57.305l0.896-3.149l-1.263-3.261l1.007-4.608c1.302,0.414,1.139,2.561,0.754,3.464l-0.071,0.15
			l0.234-1.532l5.258,2.277l-0.876,3.449l-1.664,2.192l-1.022,3.902l-3.722-1.955L110.54,57.305z"/>
		<g>
			<path fill="#F58D6C" d="M115.846,51.313c-0.132,0.459-0.583,0.669-0.994,0.469c-0.362-0.174-0.582-0.61-0.54-1.023l-0.13,0.446
				c-0.133,0.457,0.093,0.993,0.506,1.195c0.413,0.197,0.861-0.015,0.994-0.473l0.71-2.422c0.019-0.057,0.03-0.114,0.032-0.171
				L115.846,51.313z"/>
			<path fill="#F58D6C" d="M114.499,50.804c-0.142,0.482-0.617,0.707-1.053,0.499l-0.022-0.013c-0.386-0.185-0.618-0.653-0.57-1.093
				l-0.13,0.445c-0.141,0.484,0.1,1.052,0.536,1.265l0.024,0.012c0.434,0.21,0.907-0.015,1.05-0.5l0.804-2.736
				c0.016-0.057,0.026-0.113,0.034-0.172L114.499,50.804z"/>
			<path fill="#F58D6C" d="M113.447,49.777c-0.142,0.486-0.618,0.709-1.052,0.498l-0.019-0.009c-0.389-0.187-0.619-0.657-0.57-1.095
				l-0.13,0.445c-0.143,0.485,0.098,1.052,0.534,1.265l0.021,0.012c0.437,0.211,0.909-0.016,1.054-0.498l0.8-2.739
				c0.015-0.054,0.028-0.111,0.035-0.169L113.447,49.777z"/>
			<path fill="#F58D6C" d="M116.948,52.189c-0.154,0.424-0.596,0.593-0.983,0.375c-0.295-0.169-0.471-0.517-0.471-0.863
				l-0.111,0.307c-0.154,0.422,0.034,0.948,0.42,1.168c0.385,0.221,0.827,0.054,0.982-0.371l0.689-1.885
				c0.036-0.101,0.051-0.206,0.051-0.312L116.948,52.189z"/>
		</g>
		
			<rect x="70.098" y="56.408" transform="matrix(-0.6704 -0.742 0.742 -0.6704 159.2624 184.8416)" fill="#EAF9F8" width="101.175" height="1.281"/>
		<g>
			<polyline fill="#9E2121" points="110.448,28.143 107.289,24.992 109.91,22.664 114.298,22.583 115.494,23.917 115.305,24.95 
				112.543,26.099 111.124,27.25 110.448,28.143 			"/>
			<path fill="#FF4A2C" d="M88.378,22.278c0,0,13.412-11.521,18.099-7.292c4.688,4.232,8.036,8.457,8.036,8.457
				s-2.125-0.794-6.396,1.081c-2.722,1.194-10.785,7.734-10.785,7.734L88.378,22.278z"/>
			<path fill="#EF3325" d="M107.675,16.093l15.249-6.637l-5.261,9.609l14.368,1.04l-18.698,8.177
				c-3.243,1.231-4.351-1.186-0.914-2.448c4.696-1.537,1.535-2.508,2.093-2.39L107.675,16.093z"/>
		</g>
		<path fill="#FFB288" d="M116.565,49.207l-0.709,2.425c-0.135,0.458-0.584,0.669-0.996,0.471l0,0
			c-0.411-0.201-0.642-0.737-0.505-1.196l0.712-2.425c0.133-0.458,0.582-0.668,0.992-0.47l0,0
			C116.473,48.211,116.701,48.75,116.565,49.207z"/>
		<path fill="#FFB288" d="M115.289,48.096l-0.802,2.738c-0.141,0.484-0.6,0.714-1.021,0.513l-0.02-0.01
			c-0.42-0.202-0.646-0.765-0.503-1.247l0.804-2.739c0.142-0.482,0.601-0.716,1.021-0.512l0.021,0.01
			C115.206,47.05,115.432,47.612,115.289,48.096z"/>
		<path fill="#FFB288" d="M114.112,47.229l-0.774,2.638c-0.136,0.47-0.592,0.684-1.014,0.481l-0.021-0.011
			c-0.42-0.202-0.654-0.752-0.518-1.219l0.775-2.638c0.137-0.467,0.593-0.683,1.014-0.48l0.02,0.01
			C114.014,46.213,114.248,46.761,114.112,47.229z"/>
		<path fill="#FFB288" d="M116.229,49.563l-0.686,1.884c-0.157,0.425,0.032,0.954,0.417,1.171l0,0
			c0.387,0.219,0.83,0.051,0.986-0.372l0.686-1.887c0.154-0.424-0.034-0.95-0.421-1.171l0,0
			C116.827,48.97,116.384,49.137,116.229,49.563z"/>
	</g>
	<g>
		<path fill="#E0E0E0" d="M114.241,60.716c0.309-1.585,0.625-3.095,1.043-4.484l-4.971-1.155l-1.102,4.323L114.241,60.716z"/>
	</g>
	<path fill="#3F363D" d="M83.404,81.704c8.069-2.142,16.326-6.142,18.169-8.507c3.134-5.366,6.914-10.335,8.188-17.777l5.522,1.597
		c-1.838,9.916-1.481,10.286-4.521,17.868c-0.06,0.791-1.039,3.588-3.421,5.285c-9.659,7.487-20.197,13.101-19.338,13.913
		L83.404,81.704z"/>
	<path fill="#3F363D" d="M82.338,81.645l0.858,6.558l-0.345,7.509l-1.016,7.473l2.816,28.651c0.087,0.973,0.393,1.641,1.417,1.665
		c0.779,0.021,1.152-0.577,1.152-0.577s7.381-2.136,6.58-6.916c-1.483-8.868-1.138-20.782-1.815-29.807l0.06-12.892L82.338,81.645z"
		/>
	<path fill="#564953" d="M80.629,80.11l3.849,0.919l0.093,3.389l-1.821-0.364l1.64,1.55l-2.027,23.939l-0.816-7.923
		C81.547,101.621,82.498,85.128,80.629,80.11z"/>
	<g>
		<g>
			<g>
				<path fill="#60312B" d="M55.64,146.605c0.186-2.573,1.881-4.522,3.786-4.356c1.902,0.17,3.294,2.392,3.111,4.965
					c-0.059,0.807-0.267,1.556-0.582,2.193c0.661-0.759,1.102-1.779,1.185-2.933c0.187-2.574-1.477-4.819-3.712-5.019
					c-2.237-0.195-4.202,1.727-4.386,4.302c-0.095,1.305,0.286,2.523,0.974,3.435C55.717,148.429,55.575,147.54,55.64,146.605z"/>
				<g>
					<polygon fill="#512A27" points="43.177,158.596 44.21,144.289 42.408,167.352 49.448,167.977 52.8,159.443 					"/>
					<path fill="#472522" d="M49.448,167.977l21.792,1.908l0.584-8.757L52.8,159.445L49.448,167.977z M59.78,161.929l-5.137-0.456
						l0.133-1.841l5.137,0.455L59.78,161.929z"/>
					<path fill="#7E3D31" d="M71.824,161.126l1.036-14.305L71.824,161.126z"/>
					<polygon fill="#7E3D31" points="43.177,158.596 52.8,159.443 59.774,145.664 44.21,144.289 					"/>
					<polygon fill="#6B342D" points="72.861,146.823 71.823,161.13 52.798,159.443 54.254,156.574 59.774,145.668 					"/>
					<polygon fill="#ABCCE0" points="54.424,161.451 60.003,161.999 60.13,159.995 54.552,159.441 					"/>
				</g>
			</g>
		</g>
		<path fill="#FFB288" d="M59.789,132.488l0.457,3.683l2.706,2.475l0.979,5.202c-1.51,0.382-2.276-1.856-2.278-2.986l0.008-0.194
			l0.428,1.667l-6.361,0.947l-0.603-3.965l0.741-3.199l-0.652-4.504l4.65-0.333L59.789,132.488z"/>
		<path fill="#FFB288" d="M57.292,144.177l-0.328-2.848c-0.062-0.537,0.304-1.021,0.81-1.073l0,0
			c0.507-0.055,0.974,0.342,1.038,0.88l0.327,2.844c0.062,0.54-0.302,1.022-0.809,1.075l0,0
			C57.822,145.109,57.353,144.713,57.292,144.177z"/>
		<path fill="#FFB288" d="M58.856,144.179l-0.371-3.214c-0.065-0.57,0.303-1.08,0.818-1.132l0.024-0.004
			c0.516-0.057,0.992,0.366,1.059,0.938l0.372,3.21c0.064,0.57-0.304,1.078-0.818,1.135l-0.028,0.005
			C59.398,145.166,58.922,144.75,58.856,144.179z"/>
		<path fill="#FFB288" d="M60.452,143.789l-0.373-3.215c-0.066-0.569,0.321-1.08,0.859-1.138l0.028-0.003
			c0.536-0.058,1.031,0.361,1.097,0.931l0.371,3.215c0.065,0.568-0.32,1.079-0.857,1.136l-0.028,0.004
			C61.013,144.776,60.515,144.36,60.452,143.789z"/>
		<path fill="#FFB288" d="M57.552,144.106l-0.117-2.298c-0.027-0.517-0.451-0.924-0.939-0.905l0,0
			c-0.491,0.015-0.868,0.451-0.843,0.969l0.121,2.298c0.027,0.517,0.448,0.926,0.936,0.906l0,0
			C57.202,145.06,57.577,144.623,57.552,144.106z"/>
	</g>
	<g>
		<path fill="#E0E0E0" d="M61.657,130.237c-0.248,1.695-0.458,3.324-0.516,4.876l-5.764,0.461l0.031-4.943L61.657,130.237z"/>
	</g>
	<path fill="#3F363D" d="M72.034,80.381c-1.704,0.438-4.432,1.663-10.811,6.461c-2.525,7.894-5.874,17.055-6.428,24.895
		c-0.512,6.969-0.314,15.775-0.133,22.475l7.71-0.488l1.054-20.581l3.134-19.407l6.105-0.952L72.034,80.381z"/>
	<path fill="#564953" d="M72.094,80.163l-3.678,1.481l1.602,3.917l1.92-1.008l-1.273,2.499l9.049,19.211l-0.053-4.399
		C79.659,101.863,71.668,80.514,72.094,80.163z"/>
</g>
<path fill="#ED8366" d="M71.978,76.03c0.07,1.239,2.844,2.003,4.432,1.914c1.591-0.087,4.274-0.979,4.196-2.391l-0.338-6.142
	l-8.63,0.478L71.978,76.03z"/>
<g>
	<g display="none">
		<polygon display="inline" fill="#F6CCB8" points="72.081,76.784 80.122,77.291 80.122,73.234 72.081,73.234 		"/>
	</g>
	<path fill="#F6CCB8" d="M84.874,61.774l0.271-3.539c0-4.628-4.422-8.376-9.045-8.376c-4.626,0-9.046,3.749-9.046,8.376l0.271,3.534
		c-0.26,0.063-0.493,0.182-0.688,0.35c-0.361,0.307-0.589,0.765-0.589,1.275v1.743c0,0.92,0.742,1.667,1.665,1.673
		c0,4.37,5.25,8.51,8.387,8.51c3.136,0,8.386-4.141,8.386-8.51c0.92-0.006,1.665-0.752,1.665-1.673v-1.742
		C86.151,62.61,85.605,61.954,84.874,61.774"/>
	<g>
		<circle fill="#F7CDB9" cx="72.276" cy="63.729" r="1.html"/>
	</g>
	<path fill="#3C2415" d="M73.597,63.349c0.025,0.731-0.547,1.342-1.277,1.367c-0.729,0.026-1.342-0.544-1.368-1.276
		c-0.027-0.73,0.545-1.341,1.275-1.368C72.959,62.046,73.571,62.617,73.597,63.349"/>
	<path fill="#FFFFFF" d="M73.054,63.975c0.007,0.183-0.135,0.334-0.316,0.342c-0.185,0.007-0.337-0.137-0.344-0.318
		c-0.006-0.184,0.137-0.338,0.32-0.342C72.896,63.651,73.047,63.794,73.054,63.975"/>
	<g>
		<circle fill="#F7CDB9" cx="79.981" cy="63.729" r="1.html"/>
	</g>
	<path fill="#3C2415" d="M81.303,63.349c0.026,0.731-0.545,1.342-1.276,1.367c-0.73,0.026-1.343-0.544-1.369-1.276
		c-0.025-0.73,0.547-1.341,1.277-1.368C80.665,62.046,81.279,62.617,81.303,63.349"/>
	<path fill="#FFFFFF" d="M80.761,63.975c0.005,0.183-0.136,0.334-0.318,0.342c-0.185,0.007-0.337-0.137-0.343-0.318
		c-0.007-0.184,0.137-0.338,0.319-0.342C80.602,63.651,80.755,63.794,80.761,63.975"/>
	<path fill="#91491A" d="M72.706,47.673c-9.072-3.016-7.329,14.315-6.429,17.197c0.163,0.528,0.869,1.341,0.872,1.341
		c0.276,0.514-0.726,10.364,8.962,10.364c9.688,0,8.686-9.85,8.96-10.364c0.003,0,0.708-0.813,0.875-1.341
		C86.846,61.988,89.601,42.479,72.706,47.673 M83.98,65.922c0,1.098-0.676,2.725-1.635,3.447c-0.413,0.31-0.963,0.36-1.437,0.159
		c-0.799-0.342-2.586-0.649-4.796-0.649s-3.998,0.307-4.796,0.649c-0.475,0.202-1.027,0.152-1.437-0.159
		c-0.958-0.722-1.636-2.349-1.636-3.447c0,0-1.335-4.812-0.33-8.349c0.496-1.751,2.642-2.735,4.409-2.294
		c1.281,0.322,2.612,0.428,3.792,0.431c1.178-0.002,2.51-0.108,3.791-0.431c1.765-0.441,3.911,0.543,4.408,2.294
		C85.314,61.111,83.98,65.922,83.98,65.922"/>
	<path fill="#F6CCB8" d="M73.909,70.458h4.383c0.139,0,0.207,0.17,0.104,0.264c-0.313,0.283-0.994,0.696-2.296,0.696
		c-1.303,0-1.982-0.411-2.296-0.696C73.703,70.629,73.771,70.458,73.909,70.458"/>
	<path fill="#7C6CA3" d="M86.589,60.867l-3.052,0.003c-0.592-0.312-1.419-0.507-2.576-0.507c-1.927,0-3.234,0.369-3.905,1.089
		c-0.318-0.174-0.793-0.373-1.328-0.373c-0.531,0-1,0.196-1.317,0.369c-0.673-0.717-1.979-1.084-3.9-1.084
		c-1.158,0-1.988,0.196-2.577,0.507l-2.282-0.012l0.133,1.328l0.881,0.247c-0.063,0.252-0.088,0.51-0.088,0.757
		c0,2.033,0.644,3.21,3.933,3.21c2.777,0,3.88-0.792,4.365-3.139c0.061-0.287,0.066-0.562,0.025-0.819
		c0.155-0.098,0.407-0.186,0.826-0.186c0.429,0,0.685,0.092,0.838,0.192c-0.039,0.256-0.032,0.526,0.027,0.811
		c0.487,2.347,1.589,3.139,4.368,3.139c3.288,0,3.932-1.177,3.932-3.21c0-0.25-0.027-0.506-0.091-0.761l1.668-0.359L86.589,60.867z
		 M74.202,63.122c-0.422,2.03-1.216,2.588-3.69,2.588c-3.017,0-3.242-0.996-3.242-2.518c0-0.527,0-2.136,3.242-2.136
		c2.235,0,3.116,0.507,3.462,0.932C74.217,62.285,74.294,62.667,74.202,63.122 M80.962,65.708c-2.477,0-3.27-0.556-3.69-2.588
		c-0.093-0.454-0.018-0.837,0.228-1.135c0.345-0.425,1.228-0.932,3.462-0.932c3.241,0,3.241,1.61,3.241,2.137
		C84.202,64.713,83.977,65.708,80.962,65.708"/>
</g>
</svg>
