<svg width="30" height="24" viewBox="0 0 30 24" fill="none" xmlns="http://www.w3.org/2000/svg">
<path d="M13.1826 23.3498H0.000344878V12.021C-0.0441569 10.4117 0.306648 8.816 1.02202 7.37374C1.67133 6.16392 2.5714 5.10663 3.66209 4.27256C4.76353 3.43807 5.9822 2.77085 7.27863 2.2925C8.60771 1.78619 9.90966 1.38837 11.2026 0.954389L13.1465 4.48052C12.2761 4.78457 11.4273 5.14705 10.6059 5.56547C9.97986 5.89807 9.40447 6.31819 8.89704 6.81318C8.46556 7.25172 8.13534 7.77944 7.92961 8.35925C7.71122 9.01781 7.60725 9.70892 7.62221 10.4026H13.1826V23.3498ZM29.4571 23.3498H16.329V12.021C16.2478 10.5251 16.535 9.03218 17.1656 7.67328C17.7962 6.31438 18.7508 5.1311 19.9456 4.22735C21.0449 3.38957 22.264 2.72208 23.5621 2.2473C24.8912 1.74099 26.2022 1.34316 27.4951 0.90918L29.4661 4.43531C28.6032 4.75347 27.7633 5.13109 26.9526 5.56547C26.3266 5.89807 25.7512 6.31819 25.2438 6.81318C24.8092 7.24927 24.4785 7.77773 24.2764 8.35925C24.0547 9.01724 23.9477 9.70839 23.9599 10.4026H29.4932L29.4571 23.3498Z" fill="#59BA4B"/>
</svg>
