<?xml version="1.0" encoding="utf-8"?>
<!-- Generator: Adobe Illustrator 22.0.1, SVG Export Plug-In . SVG Version: 6.00 Build 0)  -->
<svg version="1.1" id="Layer_1" xmlns="http://www.w3.org/2000/svg" xmlns:xlink="http://www.w3.org/1999/xlink" x="0px" y="0px"
	 viewBox="0 0 128.7 104.1" style="enable-background:new 0 0 128.7 104.1;" xml:space="preserve">
<style type="text/css">
	.st0{fill:#2D965E;}
</style>
<g>
	<path class="st0" d="M31,49.7h2.2c5.9,0,11.2,2.3,15.9,6.8c4.7,4.5,7.1,10.1,7.1,16.9c0,6.6-2.4,12.1-7.1,16.4
		c-4.7,4.3-10.5,6.4-17.5,6.4c-7.6,0-13.9-3-18.9-9.1c-5-6.1-7.5-14.7-7.5-25.9c0-10.3,2.2-19.9,6.6-28.8c4.4-9,9.8-16.1,16.2-21.3
		c6.4-5.2,12-7.8,17-7.8c3.3,0,5.9,1,7.8,3c1.9,2,2.8,4.5,2.8,7.6c0,4.6-2,7.9-6.1,10.1c-5.5,3-9.8,6.5-13.1,10.6
		C33.2,38.5,31.4,43.6,31,49.7z M99.6,49.7h2c5.8,0,11.1,2.3,15.8,6.8c4.7,4.5,7.1,10.1,7.1,16.9c0,6.5-2.4,12-7.1,16.5
		c-4.7,4.5-10.5,6.7-17.5,6.7c-7.7,0-14-3.1-19-9.3s-7.5-14.9-7.5-25.9c0-8,1.3-15.5,3.9-22.5c2.6-7,5.9-13.2,10-18.4
		c4.1-5.2,8.5-9.4,13.2-12.4c4.7-3.1,8.9-4.6,12.7-4.6c3.4,0,6,1,7.8,2.9c1.8,1.9,2.7,4.5,2.7,7.7c0,4.7-2,8-6.1,10.1
		c-5.7,3.2-10,6.8-12.9,10.6C102,38.4,100.3,43.5,99.6,49.7z"/>
</g>
</svg>
