<?xml version="1.0" encoding="utf-8"?>
<!-- Generator: Adobe Illustrator 16.0.0, SVG Export Plug-In . SVG Version: 6.00 Build 0)  -->
<!DOCTYPE svg PUBLIC "-//W3C//DTD SVG 1.1//EN" "http://www.w3.org/Graphics/SVG/1.1/DTD/svg11.dtd">
<svg version="1.1" id="Layer_1" xmlns="http://www.w3.org/2000/svg" xmlns:xlink="http://www.w3.org/1999/xlink" x="0px" y="0px"
	 width="365.304px" height="372.06px" viewBox="36.948 70.5 365.304 372.06" enable-background="new 36.948 70.5 365.304 372.06"
	 xml:space="preserve">
<path fill="#2CA01C" d="M369.705,363.661c21.321-30.718,32.547-66.483,32.547-103.767c0-100.729-81.923-182.652-182.651-182.652
	c-100.727,0-182.653,81.934-182.653,182.665c0,100.707,81.927,182.638,182.652,182.652c29.326,0,58.383-7.16,84.431-20.786
	l-7.472,0.713l63.626,19.104c8.059,2.411,16.713,0.22,22.627-5.72c5.896-5.896,8.09-14.578,5.692-22.589l-17.442-58.15
	L369.705,363.661L369.705,363.661z M353.362,352.317l-2.733,3.938l1.377,4.592l17.44,58.143c0.298,0.998,0.023,2.087-0.717,2.827
	c-0.757,0.759-1.802,1.023-2.833,0.715l-63.617-19.101l-3.881-1.164l-3.59,1.878c-23.205,12.14-49.1,18.52-75.208,18.52
	c-89.737-0.013-162.758-73.038-162.758-162.758c0-89.744,73.019-162.77,162.758-162.77c89.741,0,162.756,73.016,162.756,162.757
	C382.356,293.118,372.374,324.926,353.362,352.317L353.362,352.317z M249.499,287.488h-54.614l-6.415,17.228
	c-2.505,6.72-4.643,11.256-6.415,13.607c-1.771,2.353-4.673,3.528-8.706,3.528c-3.421,0-6.445-1.252-9.072-3.758
	c-2.627-2.504-3.94-5.345-3.94-8.521c0-1.832,0.306-3.727,0.917-5.682s1.619-4.674,3.024-8.155l34.363-87.237
	c0.978-2.504,2.153-5.513,3.528-9.026s2.841-6.43,4.398-8.751c1.558-2.321,3.604-4.2,6.14-5.635s5.666-2.153,9.392-2.153
	c3.788,0,6.949,0.718,9.484,2.153s4.582,3.283,6.141,5.544c1.557,2.26,2.871,4.688,3.939,7.285
	c1.069,2.597,2.429,6.063,4.078,10.401l35.096,86.687c2.75,6.598,4.124,11.394,4.124,14.387c0,3.115-1.298,5.972-3.895,8.568
	c-2.597,2.596-5.728,3.895-9.393,3.895c-2.138,0-3.971-0.382-5.498-1.146s-2.81-1.802-3.849-3.116
	c-1.039-1.313-2.153-3.329-3.345-6.047c-1.191-2.719-2.214-5.117-3.069-7.193L249.499,287.488z M202.032,267.054h40.136
	l-20.251-55.439L202.032,267.054z"/>
</svg>
