<?xml version="1.0" encoding="iso-8859-1"?>
<!-- Generator: Adobe Illustrator 19.0.0, SVG Export Plug-In . SVG Version: 6.00 Build 0)  -->
<svg xmlns="http://www.w3.org/2000/svg" xmlns:xlink="http://www.w3.org/1999/xlink" version="1.1" id="Capa_1" x="0px" y="0px" viewBox="0 0 512.003 512.003" style="enable-background:new 0 0 512.003 512.003;" xml:space="preserve" width="512px" height="512px">
<g>
	<g>
		<path d="M435.398,466.527h0.01H435.398z" fill="#FFFFFF"/>
	</g>
</g>
<g>
	<g>
		<path d="M449.294,460.945l-24.393-60.715c-1.541-3.837-5.904-5.698-9.739-4.156c-3.838,1.542-5.698,5.902-4.157,9.739    l22.546,56.116l-43.009-13.504c-5.72-1.792-11.964,0.716-14.85,5.968l-21.711,39.505l-57.726-143.683    c5.469,1.206,10.948,1.404,16.371-0.357c12.111-3.933,19.097-15.885,25.26-26.43c4.006-6.854,8.149-13.941,12.892-17.392    c4.19-3.05,10.816-4.796,17.599-6.329l22.551,56.131c1.542,3.838,5.905,5.699,9.74,4.156c3.837-1.542,5.698-5.901,4.157-9.739    l-21.718-54.057c8.345-2.407,16.022-5.926,21.113-12.921c7.316-10.052,6.065-23.074,4.855-35.666    c-0.773-8.05-1.573-16.375,0.317-22.194c1.758-5.415,6.899-11.18,12.342-17.283c8.19-9.183,17.472-19.592,17.472-32.557    s-9.282-23.374-17.472-32.557c-5.443-6.103-10.584-11.868-12.342-17.283c-1.89-5.82-1.09-14.144-0.317-22.194    c1.21-12.592,2.461-25.614-4.855-35.666c-7.391-10.156-20.237-12.986-32.659-15.721c-7.835-1.726-15.937-3.51-20.782-7.036    c-4.743-3.451-8.886-10.539-12.892-17.393c-6.164-10.545-13.15-22.497-25.261-26.43c-11.622-3.771-23.5,1.39-34.987,6.384    c-7.529,3.273-15.314,6.657-21.636,6.657c-6.322,0-14.107-3.384-21.636-6.657c-11.486-4.994-23.363-10.155-34.988-6.384    c-12.111,3.933-19.096,15.885-25.26,26.43c-4.006,6.854-8.149,13.941-12.892,17.393c-4.845,3.526-12.947,5.311-20.783,7.036    c-12.422,2.736-25.267,5.565-32.659,15.721c-7.316,10.053-6.065,23.074-4.855,35.667c0.773,8.05,1.573,16.375-0.317,22.194    c-1.758,5.414-6.899,11.179-12.342,17.281c-8.19,9.184-17.473,19.593-17.473,32.558c0,12.965,9.283,23.375,17.473,32.558    c5.443,6.103,10.583,11.868,12.342,17.282c1.889,5.82,1.09,14.144,0.317,22.194c-1.21,12.592-2.461,25.614,4.855,35.666    c5.091,6.995,12.768,10.514,21.113,12.921l-66.19,164.747c-1.838,4.574-0.9,9.665,2.448,13.284    c3.349,3.62,8.352,4.952,13.054,3.473l45.901-14.412l23.172,42.164c2.248,4.089,6.427,6.547,11.041,6.547    c0.261,0,0.524-0.008,0.787-0.023c4.921-0.297,9.12-3.324,10.959-7.898l64.574-160.725c7.442-3.235,15.113-6.536,21.357-6.536    c6.244,0,13.915,3.301,21.357,6.536l64.574,160.726c1.838,4.575,6.038,7.602,10.959,7.898c0.264,0.016,0.526,0.023,0.787,0.023    c4.614,0,8.794-2.458,11.041-6.547l23.172-42.164l45.902,14.412c4.703,1.478,9.705,0.147,13.053-3.473    C450.194,470.61,451.132,465.52,449.294,460.945z M158.021,493.898l-21.71-39.503c-2.26-4.114-6.579-6.545-11.093-6.545    c-1.251,0-2.517,0.186-3.759,0.576l-43.008,13.503l65.175-162.222c6.783,1.533,13.409,3.279,17.599,6.329    c4.743,3.451,8.886,10.538,12.892,17.392c6.164,10.545,13.15,22.498,25.261,26.43c2.797,0.908,5.608,1.299,8.425,1.299    c2.645,0,5.294-0.35,7.942-0.934L158.021,493.898z M256.001,321.841c-9.436,0-18.673,4.016-27.606,7.899    c-9.341,4.061-18.162,7.895-24.392,5.873c-6.685-2.17-11.674-10.705-16.957-19.742c-4.784-8.185-9.731-16.648-17.009-21.945    c-7.377-5.368-17.034-7.496-26.373-9.552c-10.142-2.235-19.722-4.344-23.772-9.909c-3.974-5.461-3.043-15.157-2.057-25.421    c0.919-9.573,1.87-19.472-0.98-28.252c-2.73-8.407-9.175-15.635-15.408-22.624c-7.032-7.886-13.674-15.333-13.674-22.591    s6.642-14.705,13.674-22.59c6.233-6.99,12.679-14.217,15.408-22.624c2.851-8.78,1.9-18.679,0.98-28.252    c-0.986-10.264-1.918-19.961,2.057-25.422c4.05-5.564,13.63-7.674,23.772-9.909c9.339-2.056,18.996-4.184,26.373-9.552    c7.278-5.297,12.225-13.76,17.009-21.945c5.282-9.036,10.271-17.572,16.956-19.742c6.231-2.028,15.052,1.813,24.393,5.873    c8.933,3.883,18.17,7.899,27.606,7.899c9.436,0,18.673-4.016,27.606-7.899c9.341-4.061,18.165-7.894,24.392-5.873    c6.685,2.17,11.675,10.706,16.957,19.742c4.784,8.185,9.731,16.648,17.009,21.945c7.377,5.368,17.034,7.496,26.372,9.552    c10.142,2.235,19.722,4.344,23.772,9.909c3.974,5.461,3.043,15.157,2.057,25.421c-0.919,9.573-1.87,19.472,0.98,28.252    c2.73,8.408,9.175,15.636,15.409,22.625c7.031,7.885,13.673,15.332,13.673,22.59s-6.641,14.706-13.673,22.59    c-6.234,6.99-12.679,14.217-15.409,22.625c-2.851,8.78-1.9,18.678-0.98,28.252c0.986,10.265,1.917,19.961-2.057,25.421    c-4.05,5.564-13.63,7.674-23.772,9.909c-9.339,2.056-18.996,4.184-26.373,9.552c-7.277,5.297-12.224,13.76-17.008,21.945    c-5.282,9.036-10.271,17.572-16.956,19.742c-6.232,2.026-15.052-1.813-24.393-5.873    C274.674,325.857,265.437,321.841,256.001,321.841z" fill="#FFFFFF"/>
	</g>
</g>
<g>
	<g>
		<path d="M256.001,64.585c-2.668,0-5.365,0.095-8.015,0.286c-4.125,0.294-7.23,3.876-6.935,8.002    c0.295,4.125,3.871,7.246,8.002,6.935c2.297-0.164,4.634-0.247,6.949-0.247c52.944,0,96.017,43.073,96.017,96.017    c0,52.944-43.074,96.017-96.018,96.017c-52.944,0-96.017-43.073-96.017-96.017c0-32.39,16.169-62.384,43.252-80.232    c3.453-2.276,4.407-6.92,2.131-10.373s-6.92-4.406-10.373-2.132c-31.3,20.629-49.986,55.298-49.986,92.737    c0,61.202,49.791,110.993,110.993,110.993s110.993-49.791,110.993-110.993S317.203,64.585,256.001,64.585z" fill="#FFFFFF"/>
	</g>
</g>
<g>
</g>
<g>
</g>
<g>
</g>
<g>
</g>
<g>
</g>
<g>
</g>
<g>
</g>
<g>
</g>
<g>
</g>
<g>
</g>
<g>
</g>
<g>
</g>
<g>
</g>
<g>
</g>
<g>
</g>
</svg>
