<?xml version="1.0" encoding="iso-8859-1"?>
<!-- Generator: Adobe Illustrator 18.0.0, SVG Export Plug-In . SVG Version: 6.00 Build 0)  -->
<!DOCTYPE svg PUBLIC "-//W3C//DTD SVG 1.1//EN" "http://www.w3.org/Graphics/SVG/1.1/DTD/svg11.dtd">
<svg version="1.1" id="Capa_1" xmlns="http://www.w3.org/2000/svg" xmlns:xlink="http://www.w3.org/1999/xlink" x="0px" y="0px"
	 viewBox="-49 141 512 512" style="enable-background:new -49 141 512 512;" xml:space="preserve">
<path style="fill:#4AB161;" d="M280.564,294.917l19.208,19.208c5.099,5.099,7.895,11.916,7.895,19.208
	c0,7.292-2.814,14.109-7.895,19.208c-5.099,5.099-11.916,7.913-19.208,7.913c-7.292,0-14.109-2.814-19.208-7.895
	c-10.6-10.6-10.6-27.834,0-38.415L280.564,294.917 M280.564,269.075l-32.128,32.129c-17.673,17.673-17.673,46.603,0,64.275
	c8.845,8.845,20.487,13.25,32.128,13.25s23.301-4.423,32.129-13.25c17.672-17.673,17.672-46.585,0-64.275L280.564,269.075z"/>
<path style="fill:#4AB161;" d="M316.987,166.988l8.498,8.498c4.605,4.605,4.605,12.391,0,16.996
	c-2.248,2.248-5.263,3.491-8.498,3.491s-6.25-1.243-8.498-3.491c-4.605-4.605-4.605-12.391,0-16.996L316.987,166.988
	 M316.987,141.146l-21.419,21.419c-11.788,11.788-11.788,31.069,0,42.838c5.885,5.885,13.652,8.845,21.419,8.845
	c7.767,0,15.534-2.942,21.419-8.845c11.788-11.788,11.788-31.069,0-42.838L316.987,141.146z"/>
<path style="fill:#4AB161;" d="M207.461,221.815l8.498,8.498c4.605,4.605,4.605,12.391,0,16.996
	c-2.248,2.248-5.263,3.491-8.498,3.491c-3.235,0-6.25-1.243-8.498-3.491c-4.605-4.605-4.605-12.391,0-16.996L207.461,221.815
	 M207.461,195.973l-21.419,21.419c-11.788,11.788-11.788,31.069,0,42.838c5.885,5.885,13.652,8.845,21.419,8.845
	s15.534-2.942,21.419-8.845c11.788-11.788,11.788-31.069,0-42.838L207.461,195.973z"/>
<path style="fill:#435E84;" d="M125.166,433.574c14.474,0,28.711,3.344,40.828,9.522c14.584,7.804,31.617,8.882,47.864,8.882
	c0,0,7-0.146,41.851-0.146c0.238,0,24.526,0.201,24.526,18.276c0,12.464-14.639,18.276-24.526,18.276h-59.213
	c-12.738,0-26.189,9.229-26.189,28.638c0,14.438,11.678,26.189,26.189,26.189l102.307-0.018c0,0,107.643-89.733,116.324-94.485
	c8.681-4.752,19.262-7.895,28.218-3.491L319.363,584.293c-10.326,8.864-23.466,13.743-37.081,13.743l-193.922,0.036l-27.706,28.949
	l-83.702-83.702l85.548-84.232C78.326,442.876,101.152,433.574,125.166,433.574 M125.166,415.298
	c-30.191,0-57.221,12.044-75.752,31.032L-49,543.209L60.654,652.863l36.551-36.551h185.077c18.422,0,36.204-6.762,49.965-18.988
	l125.316-140.576c7.657-6.799,7.219-19.299-1.243-25.056c-15.991-10.837-34.833-7.767-51.519,1.864
	c-16.686,9.631-112.486,91.542-112.486,91.542l-94.302,0.018c-4.386,0-9.138-4.934-9.138-9.302c0-5.135,4.478-9.138,9.138-9.138
	h57.696c20.195,0,42.801-13.158,42.801-36.551c0-24.855-22.607-36.551-42.801-36.551c-35.034,0-41.851,0.146-41.851,0.146
	c-14.036,0-28.272-0.841-39.238-6.707C160,419.538,143.15,415.298,125.166,415.298z"/>
</svg>
