<?xml version="1.0" encoding="iso-8859-1"?>
<!-- Generator: Adobe Illustrator 18.0.0, SVG Export Plug-In . SVG Version: 6.00 Build 0)  -->
<!DOCTYPE svg PUBLIC "-//W3C//DTD SVG 1.1//EN" "http://www.w3.org/Graphics/SVG/1.1/DTD/svg11.dtd">
<svg version="1.1" id="Layer_1" xmlns="http://www.w3.org/2000/svg" xmlns:xlink="http://www.w3.org/1999/xlink" x="0px" y="0px"
	 viewBox="-1 152 416 485" style="enable-background:new -1 152 416 485;" xml:space="preserve">
<path style="fill:#435E84;" d="M303,477c0-6.168-2.408-11.744-6.24-16c3.84-4.256,6.24-9.832,6.24-16s-2.408-11.744-6.24-16
	c3.84-4.256,6.24-9.832,6.24-16c0-6.728-2.8-12.792-7.272-17.16C325.504,370.12,343,332.56,343,293c0-74.992-61.008-136-136-136
	S71,218.008,71,293c0,39.56,17.496,77.12,47.272,102.84C113.8,400.208,111,406.272,111,413c0,6.168,2.408,11.744,6.24,16
	c-3.84,4.256-6.24,9.832-6.24,16s2.408,11.744,6.24,16c-3.84,4.256-6.24,9.832-6.24,16c0,10.416,6.712,19.216,16,22.528V557
	c0,2.152,0.88,4.16,2.36,5.64l-0.016,0.016l72,72c1.56,1.56,3.608,2.344,5.656,2.344s4.096-0.784,5.656-2.344l72-72l-0.016-0.016
	c1.48-1.48,2.36-3.488,2.36-5.64v-57.472C296.288,496.216,303,487.416,303,477z M127,445c0-4.408,3.592-8,8-8h144
	c4.408,0,8,3.592,8,8s-3.592,8-8,8H135C130.592,453,127,449.408,127,445z M127,413c0-4.408,3.592-8,8-8h143.968l0.096,0.016
	C283.44,405.048,287,408.608,287,413c0,4.408-3.592,8-8,8H135C130.592,421,127,417.408,127,413z M188.12,326.856l-30.896-25.752
	c-9.04-7.536-14.224-18.6-14.224-30.36c0-13.72,11.216-25.744,24-25.744c2.488,0,4.928,0.4,7.264,1.176
	c-0.16,0.224-0.272,0.48-0.424,0.704c-0.84,1.24-1.6,2.512-2.288,3.832c-0.152,0.296-0.336,0.576-0.488,0.88
	c-0.792,1.608-1.456,3.272-2.024,4.976c-0.144,0.44-0.256,0.896-0.392,1.336c-0.392,1.336-0.712,2.696-0.968,4.072
	c-0.096,0.512-0.192,1.024-0.264,1.544c-0.24,1.808-0.416,3.632-0.416,5.48c0,12.024,5.456,23.336,14.976,31.016
	c1.464,1.184,3.248,1.776,5.024,1.776s3.56-0.592,5.024-1.776C201.544,292.336,207,281.024,207,269c0-1.848-0.176-3.672-0.424-5.48
	c-0.072-0.52-0.168-1.024-0.264-1.544c-0.248-1.376-0.568-2.736-0.968-4.072c-0.128-0.448-0.24-0.896-0.384-1.336
	c-0.568-1.704-1.232-3.368-2.024-4.976c-0.144-0.288-0.32-0.56-0.472-0.856c-0.696-1.336-1.48-2.632-2.328-3.88
	c-0.144-0.216-0.248-0.456-0.4-0.672c4.68-1.552,9.864-1.552,14.544,0c-0.152,0.216-0.256,0.456-0.4,0.672
	c-0.848,1.256-1.624,2.544-2.328,3.88c-0.152,0.288-0.328,0.56-0.472,0.856c-0.792,1.608-1.464,3.28-2.024,4.976
	c-0.144,0.44-0.256,0.888-0.384,1.336c-0.392,1.336-0.712,2.696-0.968,4.072c-0.096,0.512-0.192,1.024-0.264,1.544
	c-0.264,1.808-0.44,3.632-0.44,5.48c0,12.024,5.456,23.336,14.976,31.016c1.464,1.184,3.248,1.776,5.024,1.776
	s3.56-0.592,5.024-1.776C241.544,292.336,247,281.024,247,269c0-1.848-0.176-3.672-0.424-5.48c-0.072-0.52-0.168-1.024-0.264-1.544
	c-0.248-1.376-0.568-2.736-0.968-4.072c-0.128-0.448-0.24-0.896-0.392-1.336c-0.568-1.704-1.232-3.368-2.024-4.976
	c-0.144-0.304-0.328-0.584-0.488-0.88c-0.688-1.32-1.456-2.592-2.288-3.832c-0.152-0.232-0.264-0.48-0.424-0.704
	C242.072,245.4,244.504,245,247,245c12.784,0,24,12.024,24,25.744c0,11.76-5.184,22.832-14.224,30.36l-30.896,25.752
	c-1.824,1.52-2.88,3.768-2.88,6.144v56h-32v-56C191,330.624,189.944,328.376,188.12,326.856z M188.664,258.832
	c0.672,1.392,1.16,2.864,1.544,4.368c0.096,0.368,0.176,0.736,0.256,1.104c0.312,1.544,0.536,3.104,0.536,4.696
	c0,1.592-0.224,3.152-0.536,4.688c-0.08,0.368-0.16,0.744-0.256,1.104c-0.384,1.496-0.872,2.968-1.544,4.368
	c-0.048,0.104-0.12,0.208-0.176,0.312c-0.416,0.824-0.976,1.576-1.488,2.352c-0.512-0.776-1.072-1.528-1.488-2.352
	c-0.056-0.104-0.128-0.208-0.176-0.312c-0.672-1.4-1.16-2.872-1.544-4.368c-0.096-0.368-0.176-0.736-0.256-1.104
	C183.224,272.152,183,270.592,183,269c0-1.592,0.224-3.152,0.536-4.688c0.08-0.368,0.16-0.744,0.256-1.104
	c0.384-1.496,0.872-2.968,1.544-4.368c0.056-0.104,0.12-0.208,0.176-0.312c0.416-0.824,0.976-1.576,1.488-2.352
	c0.512,0.776,1.072,1.528,1.488,2.352C188.536,258.632,188.608,258.728,188.664,258.832z M228.664,258.832
	c0.672,1.392,1.16,2.864,1.544,4.368c0.096,0.368,0.176,0.736,0.256,1.104c0.312,1.544,0.536,3.104,0.536,4.696
	c0,1.592-0.224,3.152-0.536,4.688c-0.08,0.368-0.16,0.744-0.256,1.104c-0.384,1.496-0.872,2.968-1.544,4.368
	c-0.048,0.104-0.12,0.208-0.176,0.312c-0.416,0.824-0.976,1.576-1.488,2.352c-0.512-0.776-1.072-1.528-1.488-2.352
	c-0.056-0.104-0.128-0.208-0.176-0.312c-0.672-1.4-1.16-2.872-1.544-4.368c-0.096-0.368-0.176-0.736-0.256-1.104
	C223.224,272.152,223,270.592,223,269c0-1.592,0.224-3.152,0.536-4.688c0.08-0.368,0.16-0.744,0.256-1.104
	c0.384-1.496,0.872-2.968,1.544-4.368c0.056-0.104,0.12-0.208,0.176-0.312c0.416-0.824,0.976-1.576,1.488-2.352
	c0.512,0.776,1.072,1.528,1.488,2.352C228.536,258.632,228.608,258.728,228.664,258.832z M87,293c0-66.168,53.832-120,120-120
	s120,53.832,120,120c0,37.68-17.96,73.344-48.176,96H239v-52.256l28.016-23.352C279.72,302.816,287,287.264,287,270.744
	C287,248.12,268.68,229,247,229c-7.104,0-13.912,1.952-20.024,5.576c-12.312-7.136-27.624-7.136-39.944,0
	C180.912,230.952,174.104,229,167,229c-21.68,0-40,19.12-40,41.744c0,16.52,7.28,32.072,19.984,42.656L175,336.744V389h-39.824
	C104.96,366.344,87,330.68,87,293z M147.56,558.24l11.44-7.624l19.56,13.04c2.688,1.792,6.184,1.792,8.872,0L207,550.616
	l19.56,13.04c2.688,1.792,6.184,1.792,8.872,0L255,550.616l11.44,7.632L235.688,589h-57.376L147.56,558.24z M259.44,534.344
	c-2.688-1.792-6.184-1.792-8.872,0L231,547.384l-19.56-13.04c-2.688-1.792-6.184-1.792-8.872,0L183,547.384l-19.56-13.04
	c-2.688-1.792-6.184-1.792-8.872,0L143,542.048V501h128v41.048L259.44,534.344z M207,617.688L194.312,605h25.376L207,617.688z
	 M279,485H135c-4.408,0-8-3.592-8-8s3.592-8,8-8h144c4.408,0,8,3.592,8,8S283.408,485,279,485z"/>
<rect x="328.368" y="173.013" transform="matrix(-0.7071 0.7071 -0.7071 -0.7071 727.1819 60.8164)" style="fill:#4AB161;" width="45.256" height="16"/>
<rect x="342.986" y="382.358" transform="matrix(-0.7071 0.7071 -0.7071 -0.7071 885.5387 443.1697)" style="fill:#4AB161;" width="16" height="45.256"/>
<rect x="367" y="285" style="fill:#4AB161;" width="48" height="16"/>
<rect x="55.002" y="158.376" transform="matrix(-0.7071 0.7071 -0.7071 -0.7071 235.5401 264.4434)" style="fill:#4AB161;" width="16" height="45.256"/>
<rect x="40.373" y="396.996" transform="matrix(-0.7071 0.7071 -0.7071 -0.7071 393.9241 646.824)" style="fill:#4AB161;" width="45.256" height="16"/>
<rect x="-1" y="285" style="fill:#4AB161;" width="48" height="16"/>
<rect x="303" y="541" style="fill:#4AB161;" width="16" height="16"/>
<rect x="335" y="541" style="fill:#4AB161;" width="16" height="16"/>
<rect x="367" y="541" style="fill:#4AB161;" width="16" height="16"/>
<rect x="31" y="541" style="fill:#4AB161;" width="16" height="16"/>
<rect x="63" y="541" style="fill:#4AB161;" width="16" height="16"/>
<rect x="95" y="541" style="fill:#4AB161;" width="16" height="16"/>
</svg>
