<?xml version="1.0" encoding="iso-8859-1"?>
<!-- Generator: Adobe Illustrator 18.0.0, SVG Export Plug-In . SVG Version: 6.00 Build 0)  -->
<!DOCTYPE svg PUBLIC "-//W3C//DTD SVG 1.1//EN" "http://www.w3.org/Graphics/SVG/1.1/DTD/svg11.dtd">
<svg version="1.1" id="Layer_1" xmlns="http://www.w3.org/2000/svg" xmlns:xlink="http://www.w3.org/1999/xlink" x="0px" y="0px"
	 viewBox="0 0 327.988 372.002" style="enable-background:new 0 0 327.988 372.002;" xml:space="preserve">
<g>
	<g>
		<defs>
			<rect id="SVGID_1_" x="1" y="-0.998" width="327" height="373"/>
		</defs>
		<use xlink:href="#SVGID_1_"  style="display:none;overflow:visible;fill:#445F84;"/>
		<clipPath id="SVGID_2_">
			<use xlink:href="#SVGID_1_"  style="display:none;overflow:visible;"/>
		</clipPath>
		<path style="clip-path:url(#SVGID_2_);fill:#445F84;" d="M81.66,309.664c-35.426,0-66.914,21.231-80.219,54.082
			c-1.246,3.074,0.239,6.57,3.309,7.816c3.074,1.243,6.57-0.238,7.812-3.308c11.461-28.301,38.586-46.59,69.102-46.59
			s57.637,18.289,69.098,46.59c0.945,2.332,3.191,3.746,5.562,3.746c0.75,0,1.516-0.141,2.25-0.438
			c3.074-1.246,4.555-4.742,3.313-7.816C148.578,330.895,117.09,309.664,81.66,309.664L81.66,309.664z"/>
		<path style="clip-path:url(#SVGID_2_);fill:#445F84;" d="M81.66,309.664"/>
	</g>
	<path style="fill:#4AB161;" d="M292.258,27.875C269.625,9.898,239.613,0,207.754,0c-31.863,0-61.875,9.898-84.508,27.875
		C100.207,46.172,87.52,70.625,87.52,96.723c0,45.941,39.64,85.109,94.937,94.582c1.129,14.621-4.117,29.164-14.453,39.601
		c-1.703,1.719-2.207,4.297-1.277,6.531c0.933,2.235,3.117,3.692,5.539,3.692c29.457,0,54.734-21.106,60.558-49.789
		c25.61-4.371,48.949-15.473,66.129-31.535c18.723-17.504,29.035-39.907,29.035-63.082
		C327.988,70.625,315.297,46.172,292.258,27.875L292.258,27.875z M226.629,180.156c-3.121,0.43-5.379,3.207-5.164,6.356
		c0.004,0.043,0.008,0.09,0.012,0.136c-3.051,19.645-17.301,35.282-35.594,40.555c7.129-12.09,10.094-26.433,8.129-40.609
		c0.004-0.028,0.004-0.059,0.008-0.086c0.214-3.145-2.043-5.922-5.168-6.356C137.09,173,99.52,137.91,99.52,96.723
		C99.52,50.008,148.074,12,207.754,12s108.234,38.008,108.234,84.723C315.988,137.918,278.406,173.008,226.629,180.156
		L226.629,180.156z M226.629,180.156"/>
	<path style="fill:#4AB161;" d="M167.484,90.324c-3.527,0-6.398,2.871-6.398,6.399c0,3.531,2.871,6.402,6.398,6.402
		c3.528,0,6.399-2.871,6.399-6.402C173.883,93.195,171.012,90.324,167.484,90.324L167.484,90.324z M167.484,90.324"/>
	<path style="fill:#4AB161;" d="M248.023,90.324c-3.531,0-6.402,2.871-6.402,6.399c0,3.531,2.871,6.402,6.402,6.402
		c3.528,0,6.399-2.871,6.399-6.402C254.422,93.195,251.551,90.324,248.023,90.324L248.023,90.324z M248.023,90.324"/>
	<path style="fill:#4AB161;" d="M207.754,90.324c-3.531,0-6.402,2.871-6.402,6.399c0,3.531,2.871,6.402,6.402,6.402
		c3.527,0,6.398-2.871,6.398-6.402C214.152,93.195,211.281,90.324,207.754,90.324L207.754,90.324z M207.754,90.324"/>
	<path style="fill:#445F84;" d="M81.66,291.465c31.067,0,56.336-25.274,56.336-56.336c0-31.067-25.269-56.336-56.336-56.336
		c-31.062,0-56.332,25.269-56.332,56.336C25.328,266.191,50.598,291.465,81.66,291.465L81.66,291.465z M81.66,190.793
		c24.449,0,44.336,19.887,44.336,44.336c0,24.445-19.887,44.336-44.336,44.336c-24.445,0-44.332-19.891-44.332-44.336
		C37.328,210.68,57.215,190.793,81.66,190.793L81.66,190.793z M81.66,190.793"/>
</g>
</svg>
